<svg width="172" height="56" viewBox="0 0 172 56" fill="none" xmlns="http://www.w3.org/2000/svg">
<path d="M76.4996 2.67014L77.9996 2.07014C81.2996 0.370134 83.2996 0.470134 83.9996 0.570135C84.6996 0.670135 85.6996 1.37013 84.1996 3.67014C84.2996 3.67014 84.8996 3.37014 84.9996 3.37014C89.1996 1.37013 90.6996 0.670135 91.1996 0.470134C91.6431 0.388329 92.1012 0.458809 92.4996 0.670135C92.7701 0.777423 93.0104 0.949045 93.1996 1.17013C93.9996 1.97014 94.1996 2.37014 92.4996 4.47014C92.5996 4.77014 91.2996 6.27014 91.2996 6.67014C93.7996 5.17014 93.8996 6.07014 94.0996 6.57014C94.3207 6.75936 94.4923 6.99963 94.5996 7.27014C94.8996 8.37014 94.7996 8.97014 93.0996 11.0701C93.0996 11.3701 91.8996 12.7701 91.8996 13.0701C93.7996 12.4701 93.7996 12.9701 94.0996 13.3701C94.295 13.5443 94.4635 13.7465 94.5996 13.9701C94.8996 14.7701 94.8996 14.9701 93.1996 17.0701C93.8996 16.7701 94.3996 17.9701 93.7996 18.4701C93.6996 18.5701 92.9996 19.0701 92.9996 19.1701C93.7996 18.7701 93.9996 19.7701 93.4996 19.9701C91.2971 21.0807 89.0258 22.0494 86.6996 22.8701C85.1996 23.0701 83.8996 21.6701 85.5996 19.9701C85.6996 19.8701 84.6996 20.3701 84.4996 20.3701C79.6996 22.5701 77.9996 22.9701 77.1996 22.9701H76.9996C76.8431 22.9779 76.6872 22.9452 76.5471 22.8752C76.4069 22.8051 76.2872 22.7 76.1996 22.5701C75.5996 21.9701 75.4996 21.8701 76.9996 20.2701C76.7996 20.1701 77.7996 18.9701 77.5996 18.8701C73.7996 20.4701 73.3996 19.8701 72.9996 19.1701C72.8042 18.9959 72.6357 18.7937 72.4996 18.5701C72.1996 17.9701 72.1996 16.9701 74.1996 14.8701L75.5996 12.8701C73.3996 13.7701 73.2996 13.1701 72.9996 12.4701C72.8002 12.262 72.6318 12.0262 72.4996 11.7701C72.1996 10.5701 72.1996 9.87014 74.2996 7.27014C73.2996 7.67014 73.1996 7.47014 72.9996 7.47014C72.7869 7.35697 72.6128 7.18287 72.4996 6.97014C72.2996 6.37014 72.3996 5.97014 73.0996 3.97014C73.1996 3.87014 73.4996 2.67014 73.5996 2.57014C73.652 2.215 73.8333 1.89161 74.1091 1.66174C74.3848 1.43187 74.7355 1.31163 75.0943 1.324C75.4531 1.33637 75.7947 1.48048 76.0539 1.7288C76.3131 1.97712 76.4718 2.31224 76.4996 2.67014Z" fill="#1D8DCC"/>
<path d="M99.6993 4.6701C99.6953 4.10431 99.8038 3.54336 100.019 3.01986C100.233 2.49636 100.55 2.02074 100.95 1.62065C101.35 1.22056 101.826 0.903976 102.349 0.689293C102.873 0.474611 103.434 0.366112 103.999 0.370101H116.999C117.565 0.366112 118.126 0.474611 118.65 0.689293C119.173 0.903976 119.649 1.22056 120.049 1.62065C120.449 2.02074 120.765 2.49636 120.98 3.01986C121.195 3.54336 121.303 4.10431 121.299 4.6701V17.6701C121.303 18.2359 121.195 18.7968 120.98 19.3203C120.765 19.8438 120.449 20.3194 120.049 20.7195C119.649 21.1196 119.173 21.4362 118.65 21.6509C118.126 21.8656 117.565 21.9741 116.999 21.9701H103.999C103.434 21.9741 102.873 21.8656 102.349 21.6509C101.826 21.4362 101.35 21.1196 100.95 20.7195C100.55 20.3194 100.233 19.8438 100.019 19.3203C99.8038 18.7968 99.6953 18.2359 99.6993 17.6701V4.6701Z" fill="#38BFC4"/>
<path d="M159.5 48.8701C158.593 49.3014 157.605 49.5397 156.6 49.5701C155.721 49.5809 154.849 49.4086 154.04 49.0643C153.231 48.72 152.502 48.2112 151.9 47.5701C150.656 46.2049 149.976 44.4175 150 42.5701C149.947 41.6499 150.089 40.7289 150.417 39.8673C150.744 39.0057 151.25 38.2229 151.9 37.5701C152.502 36.929 153.231 36.4201 154.04 36.0758C154.849 35.7315 155.721 35.5593 156.6 35.5701C157.507 35.5343 158.41 35.7047 159.242 36.0685C160.073 36.4322 160.811 36.9798 161.4 37.6701C162.69 39.318 163.33 41.3816 163.2 43.4701C163.143 44.6242 162.767 45.7399 162.114 46.6932C161.461 47.6465 160.556 48.4 159.5 48.8701ZM99.9004 48.8701C98.9925 49.3014 98.0051 49.5397 97.0004 49.5701C96.1211 49.5809 95.2492 49.4086 94.4401 49.0643C93.6309 48.72 92.9023 48.2112 92.3004 47.5701C91.0555 46.2049 90.3763 44.4175 90.4004 42.5701C90.3475 41.6499 90.4893 40.7289 90.8167 39.8673C91.1442 39.0057 91.6497 38.2229 92.3004 37.5701C92.9023 36.929 93.6309 36.4201 94.4401 36.0758C95.2492 35.7315 96.1211 35.5593 97.0004 35.5701C97.9072 35.5343 98.8103 35.7047 99.6417 36.0685C100.473 36.4322 101.211 36.9798 101.8 37.6701C103.09 39.318 103.73 41.3816 103.6 43.4701C103.543 44.6242 103.167 45.7399 102.514 46.6932C101.861 47.6465 100.956 48.4 99.9004 48.8701ZM104.6 40.4701C104.44 39.7025 104.17 38.9617 103.8 38.2701C103.062 37.0648 102.03 36.0669 100.8 35.3701C99.61 34.7021 98.2654 34.3573 96.9004 34.3701C95.8432 34.3409 94.7914 34.5301 93.8106 34.9258C92.8298 35.3216 91.9413 35.9154 91.2004 36.6701C89.7095 38.2715 88.8867 40.3821 88.9004 42.5701C88.8964 43.6326 89.1002 44.6857 89.5004 45.6701C89.8726 46.6788 90.4517 47.5985 91.2004 48.3701C91.9126 49.1672 92.8036 49.7841 93.8004 50.1701C94.8195 50.5706 95.9054 50.7742 97.0004 50.7701C97.9875 50.7585 98.9664 50.5898 99.9004 50.2701C101.363 49.684 102.616 48.6741 103.5 47.3701V50.4701H104.9V43.4701C104.9 42.4626 104.799 41.4577 104.6 40.4701ZM72.9004 50.4701V26.9701H74.3004V41.1701H75.9004C76.7698 41.1735 77.6272 40.9677 78.4004 40.5701C79.2804 39.9585 80.0285 39.1764 80.6004 38.2701L83.2004 34.5701H84.8004L82.2004 38.5701C81.8004 39.1701 81.4004 39.6701 81.0004 40.1701C80.6256 40.5325 80.2245 40.8667 79.8004 41.1701C80.4322 41.1919 81.0534 41.339 81.6278 41.603C82.2022 41.8669 82.7185 42.2424 83.1465 42.7077C83.5745 43.1729 83.9058 43.7186 84.121 44.313C84.3363 44.9074 84.4312 45.5387 84.4004 46.1701V50.3701H83.0004V46.6701C83.0689 45.4863 82.7145 44.3167 82.0004 43.3701C81.6114 42.9782 81.1411 42.6766 80.6227 42.4865C80.1043 42.2964 79.5505 42.2226 79.0004 42.2701H74.6004V50.3701L72.9004 50.4701ZM130.9 43.3701C130.787 41.3143 131.427 39.2877 132.7 37.6701C133.282 36.9704 134.018 36.4162 134.852 36.0516C135.685 35.687 136.592 35.5221 137.5 35.5701C138.38 35.5593 139.252 35.7315 140.061 36.0758C140.87 36.4201 141.599 36.929 142.2 37.5701C143.46 38.9259 144.142 40.7196 144.1 42.5701C144.136 43.4884 143.986 44.4044 143.659 45.2635C143.333 46.1226 142.837 46.907 142.2 47.5701C141.599 48.2112 140.87 48.72 140.061 49.0643C139.252 49.4086 138.38 49.5809 137.5 49.5701C136.49 49.5881 135.491 49.3471 134.6 48.8701C133.5 48.4352 132.557 47.6767 131.896 46.6947C131.236 45.7127 130.888 44.5535 130.9 43.3701ZM129.5 43.4701V55.3701H130.9V47.3701C131.808 48.6522 133.054 49.6564 134.5 50.2701C135.422 50.6374 136.409 50.8078 137.4 50.7701C138.495 50.7742 139.581 50.5706 140.6 50.1701C141.597 49.7837 142.488 49.1669 143.2 48.3701C143.916 47.5726 144.49 46.6597 144.9 45.6701C145.301 44.6509 145.505 43.5651 145.5 42.4701C145.553 41.3802 145.376 40.2914 144.98 39.2748C144.583 38.2582 143.977 37.3365 143.2 36.5701C142.473 35.7969 141.587 35.1909 140.603 34.7938C139.619 34.3967 138.56 34.218 137.5 34.2701C136.134 34.2448 134.786 34.5903 133.6 35.2701C132.371 35.9669 131.339 36.9648 130.6 38.1701C130.188 38.8419 129.916 39.5903 129.8 40.3701C129.503 41.3747 129.401 42.4271 129.5 43.4701ZM111 43.3701C110.872 41.3125 111.513 39.2806 112.8 37.6701C113.382 36.9704 114.118 36.4162 114.952 36.0516C115.785 35.687 116.692 35.5221 117.6 35.5701C118.48 35.5593 119.352 35.7315 120.161 36.0758C120.97 36.4201 121.699 36.929 122.3 37.5701C123.56 38.9259 124.242 40.7196 124.2 42.5701C124.236 43.4884 124.086 44.4044 123.759 45.2635C123.433 46.1226 122.937 46.907 122.3 47.5701C121.699 48.2112 120.97 48.72 120.161 49.0643C119.352 49.4086 118.48 49.5809 117.6 49.5701C116.59 49.5881 115.591 49.3471 114.7 48.8701C113.6 48.4352 112.657 47.6767 111.996 46.6947C111.336 45.7127 110.988 44.5535 111 43.3701ZM109.7 43.4701V55.3701H111.1V47.3701C111.984 48.6517 113.241 49.6296 114.7 50.1701C115.622 50.5374 116.609 50.7078 117.6 50.6701C118.695 50.6742 119.781 50.4706 120.8 50.0701C121.797 49.6837 122.688 49.0669 123.4 48.2701C124.116 47.4726 124.69 46.5597 125.1 45.5701C125.501 44.5509 125.704 43.4651 125.7 42.3701C125.753 41.2802 125.576 40.1914 125.18 39.1748C124.783 38.1582 124.177 37.2365 123.4 36.4701C122.673 35.6969 121.787 35.0909 120.803 34.6938C119.819 34.2966 118.76 34.118 117.7 34.1701C116.334 34.1448 114.986 34.4903 113.8 35.1701C112.571 35.8669 111.539 36.8648 110.8 38.0701C110.388 38.7419 110.116 39.4903 110 40.2701C109.703 41.3089 109.601 42.394 109.7 43.4701ZM164.2 40.3701C164.04 39.6025 163.77 38.8617 163.4 38.1701C162.693 37.0018 161.695 36.0372 160.503 35.3711C159.311 34.7049 157.966 34.36 156.6 34.3701C155.542 34.3316 154.487 34.5166 153.505 34.9129C152.523 35.3092 151.636 35.9079 150.9 36.6701C150.151 37.4358 149.562 38.343 149.167 39.3388C148.772 40.3346 148.58 41.399 148.6 42.4701C148.606 43.5642 148.809 44.6484 149.2 45.6701C149.61 46.6597 150.185 47.5726 150.9 48.3701C151.613 49.1669 152.504 49.7837 153.5 50.1701C154.52 50.5706 155.605 50.7742 156.7 50.7701C157.991 50.7633 159.261 50.4517 160.408 49.8609C161.555 49.27 162.546 48.4166 163.3 47.3701V50.4701H164.7V43.4701C164.5 42.4701 164.4 41.4701 164.2 40.3701Z" fill="#38BFC4"/>
<path d="M49.1003 23.6701C49.046 23.6766 48.991 23.671 48.9391 23.6537C48.8872 23.6364 48.8398 23.6079 48.8003 23.5701C48.3967 23.4581 48.0437 23.211 47.8003 22.8701C47.1003 21.6701 47.3003 21.5701 50.8003 18.4701L53.3003 16.3701C46.8003 20.2701 46.7003 20.1701 46.0003 19.9701C45.6245 19.8552 45.3042 19.606 45.1003 19.2701C44.4003 18.0701 44.6003 17.9701 48.4003 14.6701L51.2003 12.3701C46.7003 14.9701 46.6003 14.9701 46.0003 14.7701C45.5967 14.6581 45.2437 14.411 45.0003 14.0701C44.5003 13.1701 44.4003 12.9701 48.6003 8.57013C46.6003 9.67013 46.5003 9.67013 46.0003 9.57013C45.7928 9.53316 45.5958 9.45138 45.4231 9.33048C45.2503 9.20959 45.1061 9.05248 45.0003 8.87013C44.5003 8.37013 44.5003 8.37013 45.5003 4.77013C45.7138 4.11605 45.8809 3.44773 46.0003 2.77013C45.7003 2.87013 45.0003 1.77013 46.2003 1.37012C47.1003 0.970123 48.2003 0.170124 49.0003 1.47013C49.3003 2.07013 49.4003 2.07013 48.6003 5.07013L50.5003 3.87013C56.3003 0.470123 56.3003 0.470123 57.0003 0.670124C57.4039 0.782133 57.7569 1.02922 58.0003 1.37012C58.6003 2.37013 58.6003 2.37013 54.4003 6.97013L55.4003 6.37013C65.5003 0.370123 65.5003 0.370123 66.3003 0.670124C66.6761 0.785022 66.9964 1.03419 67.2003 1.37012C67.9003 2.57013 67.7003 2.67013 63.8003 5.97013L61.0003 8.27013C66.0003 5.37013 66.1003 5.37013 66.7003 5.57013C67.0761 5.68502 67.3964 5.93419 67.6003 6.27013C68.3003 7.47013 68.1003 7.57013 64.6003 10.5701L62.2003 12.6701C66.0003 10.4701 66.1003 10.5701 66.7003 10.6701C67.0761 10.785 67.3964 11.0341 67.6003 11.3701C68.1003 12.2701 68.2003 12.3701 64.8003 16.4701C66.1003 15.7701 66.2003 15.8701 66.7003 15.8701C67.0914 15.9867 67.4231 16.2485 67.6276 16.6016C67.8321 16.9548 67.8939 17.3728 67.8003 17.7701C67.7558 18.003 67.6484 18.2193 67.4897 18.3956C67.3311 18.5718 67.1273 18.7013 66.9003 18.7701C66.6003 18.8701 64.5003 20.1701 63.0003 21.0701C58.5003 23.7701 58.5003 23.7701 57.8003 23.5701C57.3967 23.4581 57.0437 23.211 56.8003 22.8701C56.3003 21.9701 56.2003 21.8701 59.7003 17.7701L58.5003 18.4701C50.9003 22.9701 49.7003 23.6701 49.1003 23.6701Z" fill="#006495"/>
<path d="M41.0001 50.4701V34.5701H42.3001V37.6701C42.8874 36.6825 43.7124 35.8574 44.7001 35.2701C45.6907 34.7601 46.786 34.4863 47.9001 34.4701H48.3001C48.5052 34.4543 48.7111 34.4886 48.9001 34.5701V35.8701H48.8001C48.4649 35.8585 48.1309 35.8251 47.8001 35.7701C47.0803 35.7543 46.366 35.8986 45.7088 36.1926C45.0517 36.4866 44.468 36.9229 44.0001 37.4701C42.9622 38.7338 42.428 40.3364 42.5001 41.9701V50.3701L41.0001 50.4701ZM33.3001 34.5701H34.7001V43.5701C34.8118 45.5036 34.1661 47.4045 32.9001 48.8701C32.3067 49.5156 31.577 50.021 30.7641 50.3496C29.9512 50.6782 29.0754 50.8219 28.2001 50.7701C27.3248 50.8219 26.4489 50.6782 25.636 50.3496C24.8231 50.021 24.0935 49.5156 23.5001 48.8701C22.2616 47.3889 21.6198 45.4992 21.7001 43.5701V34.5701H23.1001V43.9701C23.0475 44.6971 23.1446 45.4272 23.3854 46.1152C23.6262 46.8032 24.0056 47.4345 24.5001 47.9701C24.9658 48.4803 25.5398 48.8798 26.1801 49.1394C26.8203 49.3989 27.5105 49.5119 28.2001 49.4701C28.8857 49.4795 29.5662 49.3516 30.2017 49.094C30.8371 48.8364 31.4146 48.4543 31.9001 47.9701C32.3945 47.4345 32.7739 46.8032 33.0147 46.1152C33.2555 45.4272 33.3526 44.6971 33.3001 43.9701V34.5701ZM3.90006 37.5701C4.50194 36.929 5.23061 36.4201 6.03974 36.0758C6.84887 35.7315 7.72078 35.5593 8.60006 35.5701C9.56569 35.5663 10.5208 35.7709 11.4001 36.1701C12.2497 36.5695 12.9754 37.1915 13.5001 37.9701L2.50006 45.3701C2.10043 44.4557 1.89608 43.468 1.90006 42.4701C1.89979 40.6379 2.61784 38.8787 3.90006 37.5701ZM15.1001 42.6701C15.0574 44.4935 14.3456 46.2376 13.1001 47.5701C12.5206 48.2061 11.8078 48.7062 11.0126 49.0346C10.2174 49.3631 9.35942 49.5118 8.50006 49.4701C7.62078 49.4809 6.74887 49.3086 5.93974 48.9643C5.1306 48.62 4.40194 48.1112 3.80006 47.4701C3.5093 47.1568 3.24192 46.8225 3.00006 46.4701L15.3001 38.2701C14.6032 37.0405 13.6053 36.0082 12.4001 35.2701C11.2144 34.5903 9.86655 34.2448 8.50006 34.2701C7.42143 34.2584 6.35158 34.465 5.35485 34.8775C4.35811 35.2899 3.45509 35.8997 2.70006 36.6701C1.28022 38.3077 0.499041 40.4027 0.500061 42.5701C0.49595 43.6651 0.699548 44.7509 1.10006 45.7701C1.50931 46.7836 2.12191 47.7025 2.90006 48.4701C3.64432 49.2049 4.52843 49.783 5.50006 50.1701C6.45215 50.5612 7.47077 50.7649 8.50006 50.7701C9.53911 50.7754 10.5689 50.5748 11.5301 50.1801C12.4912 49.7853 13.3647 49.2041 14.1001 48.4701C15.6224 46.9127 16.5131 44.8462 16.6001 42.6701H15.1001ZM52.8001 42.4701C52.7471 43.3903 52.889 44.3113 53.2164 45.1729C53.5438 46.0345 54.0494 46.8173 54.7001 47.4701C55.2694 48.084 55.9546 48.579 56.7162 48.9266C57.4778 49.2743 58.3008 49.4676 59.1375 49.4955C59.9743 49.5234 60.8083 49.3853 61.5914 49.0891C62.3745 48.793 63.0912 48.3447 63.7001 47.7701L64.0001 47.4701C65.2085 46.1043 65.8756 44.3437 65.8756 42.5201C65.8756 40.6965 65.2085 38.9358 64.0001 37.5701C62.8301 36.3288 61.2167 35.6006 59.5119 35.5444C57.8071 35.4882 56.1492 36.1085 54.9001 37.2701L54.6001 37.5701C53.9911 38.2274 53.5185 38.9988 53.2096 39.8399C52.9006 40.681 52.7614 41.5749 52.8001 42.4701ZM51.3001 42.5701C51.2959 41.4751 51.4995 40.3892 51.9001 39.3701C52.3093 38.3566 52.9219 37.4377 53.7001 36.6701C54.4125 35.8732 55.3035 35.2564 56.3001 34.8701C58.2547 34.0699 60.4455 34.0699 62.4001 34.8701C63.3967 35.2564 64.2876 35.8732 65.0001 36.6701C65.7459 37.4638 66.3543 38.3763 66.8001 39.3701C67.6004 41.4284 67.6004 43.7118 66.8001 45.7701C66.4141 46.7669 65.7972 47.6579 65.0001 48.3701C64.2876 49.1669 63.3967 49.7837 62.4001 50.1701C60.4108 50.9699 58.1893 50.9699 56.2001 50.1701C55.2035 49.7837 54.3125 49.1669 53.6001 48.3701C52.8219 47.6025 52.2093 46.6836 51.8001 45.6701C51.6001 44.6701 51.4001 43.5701 51.3001 42.5701Z" fill="white"/>
<path d="M171.49 27.9156C171.52 28.4992 171.426 29.0825 171.215 29.629C171.003 30.1755 170.679 30.6734 170.262 31.0914C169.844 31.5095 169.343 31.8388 168.79 32.0585C168.237 32.2783 167.643 32.3839 167.046 32.3687C165.826 32.3547 164.662 31.8673 163.809 31.0136C162.957 30.16 162.486 29.0101 162.5 27.8168C162.515 26.6236 163.013 25.4848 163.885 24.6509C164.758 23.817 165.934 23.3564 167.153 23.3704C167.749 23.3709 168.339 23.4911 168.885 23.7236C169.432 23.9562 169.923 24.2961 170.33 24.7223C170.737 25.1484 171.049 25.6518 171.249 26.2011C171.448 26.7505 171.53 27.334 171.49 27.9156ZM170.843 27.9156C170.857 27.1797 170.646 26.4565 170.237 25.8385C169.828 25.2205 169.24 24.7358 168.548 24.4463C167.857 24.1567 167.092 24.0755 166.353 24.2129C165.614 24.3504 164.933 24.7003 164.398 25.218C163.863 25.7357 163.498 26.3976 163.35 27.1192C163.201 27.8408 163.276 28.5894 163.564 29.2692C163.853 29.9491 164.342 30.5294 164.969 30.9359C165.597 31.3425 166.334 31.557 167.086 31.5518C168.072 31.5383 169.015 31.1499 169.713 30.4688C170.412 29.7876 170.813 28.8673 170.83 27.9025L170.843 27.9156Z" fill="#006495"/>
<path d="M165.54 27.8488C165.54 27.1664 165.54 26.4562 165.54 25.7877C165.54 25.5092 165.634 25.3839 165.916 25.3839C166.668 25.3486 167.422 25.3812 168.169 25.4813C168.933 25.6345 169.282 26.1637 169.161 27.1107C169.161 27.2858 169.116 27.4577 169.031 27.6092C168.946 27.7607 168.825 27.8865 168.679 27.9741C168.451 28.0994 168.41 28.2805 168.585 28.5172C168.856 28.8828 169.106 29.2641 169.336 29.6591C169.443 29.8541 169.644 30.1048 169.336 30.3137C169.191 30.374 169.033 30.3863 168.881 30.3489C168.73 30.3115 168.594 30.2262 168.491 30.1048C168.223 29.6731 167.954 29.2414 167.673 28.8096C167.537 28.6151 167.348 28.4664 167.131 28.3822C166.914 28.298 166.678 28.282 166.452 28.3362C166.251 28.3362 166.238 28.5172 166.238 28.6704C166.238 29.1021 166.238 29.5338 166.238 29.9655C166.238 30.3972 166.13 30.3415 165.876 30.3415C165.621 30.3415 165.5 30.258 165.5 29.9794C165.54 29.2692 165.54 28.559 165.54 27.8488ZM167.176 26.3169C166.211 26.3169 166.171 26.3169 166.264 27.1942V27.2778C166.264 27.3892 166.264 27.4728 166.439 27.4728C166.985 27.5572 167.542 27.4997 168.062 27.3056C168.154 27.2615 168.23 27.1874 168.279 27.0945C168.327 27.0016 168.345 26.8948 168.33 26.7904C168.33 26.5815 168.156 26.4562 167.954 26.4005C167.701 26.3289 167.438 26.3007 167.176 26.3169Z" fill="#006495"/>
</svg>
