<svg width="23" height="22" fill="none" xmlns="http://www.w3.org/2000/svg"><path d="M16.663 17.003c-.408-.902-.693-1.47-.855-1.43-.163.04-.155.668.06 1.662.132.583.298 1.157.498 1.719.114.321.242.653.386.994l.232.524a1.223 1.223 0 00.737.739.95.95 0 00.517 0 1.68 1.68 0 00.247-.095l.174-.088c.159-.083.316-.16.468-.236.298-.162.59-.319.864-.469a22.55 22.55 0 001.454-.86c.802-.52 1.27-.902 1.183-1.067-.086-.166-.673-.025-1.579.29-.453.162-.981.37-1.565.61l-.852.378c.321-.51.588-1.05.796-1.612.258-.684.448-1.39.568-2.108.19-1.017.258-2.05.2-3.075a13.166 13.166 0 00-3.177-7.804 14.065 14.065 0 00-3.625-3.004A13.105 13.105 0 009.198.523a10.527 10.527 0 00-1.05-.134c-.174-.013-.341-.03-.533-.024C7.423.37 7.26.36 7.1.368a9.004 9.004 0 00-1.879.327c-1.027.27-2.01.69-2.918 1.248C.79 2.9.17 3.845.246 3.907c.075.063.841-.683 2.365-1.438a11.638 11.638 0 012.794-.978 8.748 8.748 0 011.734-.19c.149-.002.297.003.445.016.15.015.309.042.466.061.317.032.635.108.958.17 1.348.315 2.63.847 3.797 1.575a13.2 13.2 0 013.193 2.803 12.093 12.093 0 012.714 6.955c.1 1.568-.09 3.147-.562 4.66a28.48 28.48 0 01-.558 1.533l-.232-.494-.712-1.577" fill="#DBCECE"/></svg>