<svg width="138" height="138" viewBox="0 0 138 138" fill="none" xmlns="http://www.w3.org/2000/svg">
<path d="M74.9056 137.584C111.238 137.584 137.485 111.972 137.485 74.3169C137.485 36.6619 111.238 0.0994263 74.9056 0.0994263C38.5735 0.0994263 9.15527e-05 28.7535 9.15527e-05 66.4085C9.15527e-05 104.063 38.5735 137.584 74.9056 137.584Z" fill="#F0D1C0"/>
<path d="M53.7584 94.9757C53.7584 94.9757 49 99.4848 47.5706 105.605" stroke="white" stroke-width="6" stroke-linecap="round" stroke-linejoin="round"/>
<path d="M89.0952 94.9757C89.0952 94.9757 94.5 99.9848 95.287 105.605" stroke="white" stroke-width="6" stroke-linecap="round" stroke-linejoin="round"/>
<path d="M71.4252 100.105C75.7339 100.105 80.0005 99.2559 83.9812 97.6069C87.9619 95.9579 91.5787 93.5409 94.6253 90.494C97.6718 87.4471 100.088 83.8299 101.737 79.849C103.385 75.8681 104.234 71.6015 104.233 67.2927C104.233 58.5915 100.777 50.2467 94.6239 44.094C88.4712 37.9413 80.1264 34.4848 71.4252 34.4848C67.1164 34.4843 62.8498 35.3325 58.8689 36.981C54.888 38.6295 51.2708 41.046 48.2239 44.0926C45.177 47.1392 42.76 50.756 41.111 54.7367C39.462 58.7174 38.6133 62.984 38.6133 67.2927C38.6128 71.6018 39.4611 75.8687 41.1099 79.8499C42.7586 83.8311 45.1755 87.4484 48.2225 90.4954C51.2695 93.5424 54.8868 95.9592 58.868 97.608C62.8492 99.2568 67.1161 100.105 71.4252 100.105Z" fill="#FFF8F4" stroke="#EB433C" stroke-width="6" stroke-linecap="round" stroke-linejoin="round"/>
<path d="M82.0381 74.6581C82.0381 74.6581 70.2236 71.9848 70.2236 69.7031C70.2236 67.4214 70.2236 54.8145 70.2236 54.8145" stroke="#20305B" stroke-width="6" stroke-linecap="round" stroke-linejoin="round"/>
</svg>
