<svg width="138" height="138" viewBox="0 0 138 138" fill="none" xmlns="http://www.w3.org/2000/svg">
<path d="M62.5793 0.129883C26.2471 0.129883 0 25.7423 0 63.3972C0 101.052 26.2471 137.615 62.5793 137.615C98.9114 137.615 137.485 108.961 137.485 71.3056C137.485 33.6507 98.9114 0.129883 62.5793 0.129883Z" fill="#F0D1C0"/>
<path fill-rule="evenodd" clip-rule="evenodd" d="M69.4833 82.2472C69.4833 82.2472 69.4833 82.2472 69.4833 82.2472C74.1885 83.888 74.2057 91.8932 75.3267 96.5801C89.6405 133.175 114.211 21.1958 78.3009 43.9057C75.9665 45.3819 73.3673 46.493 70.6143 46.7155C69.8615 46.7763 69.105 46.7763 68.3522 46.7155C65.5992 46.493 63.0001 45.3819 60.6657 43.9057C24.7557 21.1957 49.3259 133.175 63.6398 96.5801C64.7605 91.8932 64.7776 83.888 69.4833 82.2472C69.4833 82.2472 69.4833 82.2472 69.4833 82.2472Z" fill="white"/>
<circle cx="55.1031" cy="60.2752" r="5.50961" fill="#20305B"/>
<circle cx="50.6957" cy="58.0713" r="3.30576" fill="white"/>
<circle cx="81.9876" cy="58.5559" r="5.50961" fill="#20305B"/>
<circle cx="77.5836" cy="56.352" r="3.30576" fill="white"/>
<path d="M62.5398 76.1748C66.5581 78.8536 73.2553 76.8445 75.9342 74.8353" stroke="#EB433C" stroke-width="2" stroke-linecap="round"/>
<path d="M59.1301 44.1768C56.5417 44.1768 48.2589 48.577 48.0001 50.1301" stroke="#EB433C" stroke-width="5" stroke-linecap="round"/>
<path d="M89.5874 44.847C87.385 43.4872 78.0255 42.8801 76.9894 44.0656" stroke="#EB433C" stroke-width="5" stroke-linecap="round"/>
</svg>
