<svg width="138" height="139" viewBox="0 0 138 139" fill="none" xmlns="http://www.w3.org/2000/svg">
<path d="M74.9056 0.614655C111.238 0.614655 137.485 26.2271 137.485 63.882C137.485 101.537 111.238 138.099 74.9056 138.099C38.5735 138.099 9.15527e-05 109.445 9.15527e-05 71.7904C9.15527e-05 34.1355 38.5735 0.614655 74.9056 0.614655Z" fill="#F0D1C0"/>
<path d="M102.394 51.9938C102.577 47.7032 99.2398 44.0802 94.9487 43.9104L43.3548 41.8686C38.885 41.6917 35.1919 45.3209 35.2906 49.793L36.2773 94.5108C36.3739 98.8877 40.0703 102.318 44.4422 102.088L93.341 99.5169C97.3354 99.3068 100.516 96.0948 100.686 92.0985L102.394 51.9938Z" fill="white"/>
<path d="M102.808 48.6294C103.348 45.2829 100.784 42.2402 97.3943 42.2048L40.0877 41.6059C36.8218 41.5718 34.2347 44.3548 34.5067 47.6095L34.9586 53.0173C35.2011 55.9188 37.6473 58.138 40.5587 58.0976L96.7635 57.3171C99.4545 57.2798 101.73 55.3147 102.158 52.6579L102.808 48.6294Z" fill="#EB433C"/>
<rect width="8.37645" height="13.5871" rx="4.18823" transform="matrix(0.991427 -0.130661 0.103399 0.99464 40.8113 38.4857)" fill="white"/>
<rect width="9.2674" height="13.5871" rx="4.6337" transform="matrix(-0.991427 -0.130661 -0.103399 0.99464 95.5825 37.2107)" fill="white"/>
<path d="M50.0279 74.1717C50.0269 74.7438 49.7901 75.2175 49.3174 75.5929C48.8487 75.9638 48.3564 76.2003 47.8403 76.3025C47.5221 76.3777 47.2217 76.4288 46.9392 76.4557C46.8506 76.4644 46.7599 76.471 46.6669 76.4757C46.4598 76.4861 46.2373 76.4845 45.9993 76.471C45.9513 76.1895 45.9 75.6307 45.8454 74.7945C45.8183 74.423 45.7956 74.0555 45.7774 73.692C45.7545 73.2356 45.7359 72.6963 45.7217 72.0741C45.7073 71.4478 45.7316 71.0461 45.7948 70.8693C45.7851 70.8443 45.7767 70.7621 45.7697 70.6226C45.7627 70.4832 45.7567 70.3203 45.7516 70.1342C45.7465 69.948 45.7416 69.766 45.7369 69.5883C45.7289 69.343 45.7248 69.1779 45.7248 69.0932C45.7159 68.9157 45.7002 68.7279 45.6775 68.5299C45.6578 68.3911 45.6447 68.2561 45.6382 68.1251C45.6257 67.8758 45.6373 67.6421 45.6729 67.4243L45.9012 67.4128C46.171 67.3866 46.4285 67.3673 46.6737 67.355C46.8216 67.3476 46.9633 67.3426 47.0987 67.3401C47.2596 67.3363 47.4308 67.3298 47.6126 67.3207L48.031 67.2997C48.1662 67.2929 48.3076 67.2816 48.4551 67.2657C48.6064 67.2412 48.7518 67.2254 48.8913 67.2185C49.128 67.2066 49.351 67.2187 49.5604 67.2548L49.6011 67.9392C49.6032 67.9815 49.6072 68.0194 49.6132 68.053C49.6197 68.0993 49.6241 68.1435 49.6262 68.1858C49.6323 68.3084 49.618 68.4023 49.5831 68.4676C49.5449 68.55 49.4159 68.5968 49.1961 68.6078L49.1644 68.6094C48.9404 68.6206 48.7138 68.6235 48.4848 68.618C48.3024 68.6144 48.1223 68.615 47.9446 68.6197L47.7291 68.6305C47.5093 68.6415 47.2872 68.6484 47.0628 68.6511C47.0584 69.3251 47.0498 69.9992 47.037 70.6735C47.0366 70.9193 47.0335 71.1525 47.0276 71.3731C47.3032 71.3763 47.6012 71.4058 47.9218 71.4618C48.2424 71.5177 48.516 71.6078 48.7425 71.732C49.0855 71.8123 49.3701 71.9951 49.5963 72.2803C49.7273 72.4432 49.8316 72.6223 49.9092 72.8176C49.9346 72.9011 49.965 73.0436 50.0005 73.2452C50.0361 73.4468 50.0607 73.6426 50.0745 73.8326L50.0767 73.8769C50.085 74.0418 50.0687 74.14 50.0279 74.1717ZM47.036 74.8365L47.082 75.2473C47.2183 75.2617 47.3519 75.2656 47.483 75.259C47.6985 75.2482 47.9105 75.2079 48.1188 75.1381C48.2727 75.0796 48.3921 75.0101 48.477 74.9295C48.5619 74.849 48.6381 74.7626 48.7055 74.6702C48.749 74.6087 48.7968 74.547 48.8488 74.4851C48.853 74.4001 48.8594 74.3172 48.8681 74.2362C48.8837 74.1253 48.8902 74.0021 48.8877 73.8666C48.8475 73.3178 48.5601 72.953 48.0257 72.7722C47.7974 72.6989 47.5671 72.668 47.3346 72.6797C47.2205 72.6854 47.1069 72.7017 46.9939 72.7286L46.9951 72.7539C46.9877 72.8602 46.9856 72.9451 46.9888 73.0085L46.991 73.0528C46.994 73.112 47.0042 73.1878 47.0215 73.2801L47.036 74.8365ZM56.3389 76.0608L55.9344 75.9794C55.9008 75.8158 55.8741 75.5375 55.8544 75.1444L55.8252 74.5612C55.8212 74.4809 55.8125 74.3923 55.7992 74.2956L55.7582 73.8591C55.7513 73.8043 55.7298 73.4177 55.6937 72.6992C55.6901 72.4579 55.682 72.2104 55.6692 71.9569C55.6309 71.1919 55.5519 70.3759 55.4322 69.5091L55.4026 69.0466C55.3715 68.4253 55.3738 67.796 55.4097 67.1587C55.558 67.075 55.704 67.0295 55.8477 67.0223C55.9954 67.0107 56.0756 67.0045 56.0883 67.0039C56.3504 66.9907 56.549 67.0232 56.6843 67.1011C56.764 67.2539 56.8451 68.1544 56.9277 69.8028C56.9699 70.6438 57.0061 71.4937 57.0365 72.3523L57.0606 72.9612C57.0596 73.0248 57.0587 73.0927 57.0581 73.1647C57.0575 73.2368 57.0497 73.2922 57.0347 73.3311C57.0429 73.496 57.0565 73.6817 57.0753 73.8884C57.0984 74.0949 57.1144 74.2868 57.1233 74.4644C57.13 74.5996 57.1343 74.7265 57.136 74.8451C57.1356 74.9213 57.138 75.0123 57.1433 75.118L57.1519 75.2891C57.1695 75.6399 57.1676 75.8561 57.1463 75.9377C57.0176 75.9908 56.8983 76.02 56.7884 76.0256C56.7504 76.0275 56.7143 76.0271 56.6803 76.0246C56.6505 76.0219 56.6208 76.0212 56.5912 76.0227C56.5109 76.0268 56.4268 76.0394 56.3389 76.0608ZM51.903 76.1942C51.5776 76.2105 51.2489 76.2037 50.9169 76.1737C50.849 75.7491 50.7789 74.8163 50.7067 73.375C50.6336 71.9169 50.6138 71.0154 50.6474 70.6705C50.599 70.4653 50.5691 70.2507 50.5579 70.0267C50.5441 69.752 50.5474 69.4785 50.5676 69.2064C50.5731 69.062 50.5725 68.9222 50.5657 68.787C50.5589 68.6517 50.5457 68.5147 50.526 68.3759C50.5103 68.2326 50.4993 68.0975 50.493 67.9708C50.4807 67.7256 50.4925 67.4962 50.5284 67.2826L51.4296 67.2565L51.5751 67.2428C51.7146 67.2358 51.8362 67.253 51.9399 67.2944C52.0477 67.3314 52.1077 67.4703 52.1197 67.7113C52.1305 67.9268 52.1332 68.1491 52.1277 68.3782L52.1351 68.9053C52.1537 69.362 52.1495 69.8262 52.1223 70.2979C52.1098 70.557 52.1016 70.8158 52.0976 71.0745C52.3734 71.0819 52.7039 71.1246 53.0892 71.2027C53.4744 71.2809 53.7847 71.384 54.0199 71.512C54.1833 71.5589 54.3155 71.6179 54.4165 71.6892C54.5173 71.7561 54.6201 71.8633 54.7249 72.0105C54.8516 72.1694 54.9536 72.3465 55.0312 72.5418C55.0564 72.621 55.0871 72.7699 55.1235 72.9884C55.166 73.2447 55.1923 73.4722 55.2022 73.6709C55.2111 73.8484 55.1952 73.953 55.1544 73.9847C55.1608 74.1115 55.1207 74.2851 55.0343 74.5055C54.9479 74.7259 54.8394 74.9284 54.7089 75.1129C54.5823 75.293 54.4599 75.3881 54.3418 75.3982C54.2324 75.5817 53.9234 75.7582 53.415 75.9277C52.9691 76.0772 52.4651 76.166 51.903 76.1942ZM52.5089 74.9689C52.7541 74.9567 52.9955 74.9128 53.2332 74.8373C53.4038 74.7737 53.5297 74.708 53.6111 74.6404C53.6966 74.5726 53.8053 74.4569 53.9369 74.2936L53.9565 74.0511C53.9723 73.9444 53.979 73.8233 53.9764 73.6878C53.9633 73.4258 53.9006 73.1895 53.7884 72.9791C53.5694 72.5833 53.1091 72.403 52.4075 72.4381C52.2934 72.4438 52.1797 72.458 52.0664 72.4806C52.0599 72.6038 52.0594 72.7204 52.0649 72.8303C52.0683 72.8979 52.0763 72.9738 52.089 73.0579L52.0756 74.5648L52.121 74.963C52.2528 74.9733 52.3822 74.9753 52.5089 74.9689ZM62.4667 75.6901C61.7144 75.7278 60.9515 75.5965 60.178 75.2964C59.9276 75.203 59.6509 75.0495 59.3478 74.8359C58.6848 74.3734 58.2799 73.8195 58.1332 73.1744C58.1116 73.0822 58.0819 72.9969 58.0441 72.9183C57.8953 72.6546 57.7881 72.1642 57.7225 71.4472C57.7138 71.3586 57.7073 71.27 57.7028 71.1812C57.6577 70.281 57.8295 69.4822 58.2182 68.7847C58.6068 68.0831 59.3045 67.5058 60.3114 67.0528C60.7129 66.8632 61.0764 66.7602 61.4018 66.7439L61.618 66.7458C61.8166 66.7358 61.9949 66.6993 62.1527 66.6363C62.2616 66.6097 62.3688 66.5937 62.4745 66.5884C62.5801 66.5831 62.7326 66.5819 62.9319 66.5846C63.131 66.5831 63.3431 66.5894 63.5684 66.6035C63.7935 66.6134 63.9554 66.6328 64.0543 66.6618C64.1042 66.8118 64.1409 66.9943 64.1644 67.2092C64.1684 67.2895 64.1737 67.4375 64.1803 67.6533C64.1867 67.8648 64.1344 68.0475 64.0235 68.2014C63.9983 68.2069 63.9667 68.2106 63.9287 68.2125C63.8357 68.2172 63.6975 68.2071 63.5141 68.1824C63.083 68.1193 62.6857 68.0968 62.3222 68.1151C62.0432 68.129 61.7578 68.1815 61.4657 68.2724L61.441 68.2863C61.157 68.3684 60.8869 68.4751 60.6308 68.6066C60.3043 68.7713 60.0721 69.0414 59.9342 69.4169C59.864 69.6238 59.8046 69.7475 59.7558 69.7881L59.7618 69.9086C59.7703 70.0776 59.7679 70.2833 59.7546 70.5254C59.7434 70.7251 59.7394 70.8991 59.7426 71.0472C59.7853 71.4772 59.8855 71.8684 60.0429 72.2206C60.0968 72.3662 60.1441 72.5058 60.1847 72.6394C60.3079 72.7306 60.4141 72.8207 60.5033 72.9094C60.5967 72.9979 60.6919 73.08 60.7889 73.1557C60.8857 73.2271 61.0116 73.2864 61.1665 73.3338C61.4161 73.4102 61.8523 73.4498 62.4753 73.4525C62.5727 73.4518 62.6597 73.4538 62.7362 73.4585C63.0207 73.4696 63.2583 73.4768 63.4491 73.4799C63.6949 73.4803 63.8755 73.4903 63.9908 73.51C64.106 73.5254 64.1821 73.5639 64.2191 73.6256C64.2559 73.6831 64.282 73.7814 64.2974 73.9204C64.3156 74.1144 64.3428 74.3186 64.379 74.5328C64.4094 74.7177 64.4311 74.8967 64.444 75.0698C64.4455 75.0994 64.4469 75.1269 64.4482 75.1522C64.452 75.2283 64.4463 75.2837 64.4311 75.3183C64.3588 75.3982 64.2577 75.452 64.1277 75.4797C63.9975 75.5032 63.8648 75.5183 63.7296 75.5251C63.5986 75.5317 63.4805 75.5439 63.3755 75.5619C63.074 75.6321 62.771 75.6748 62.4667 75.6901ZM68.6158 75.4899C68.4721 75.4971 68.3044 75.4907 68.1127 75.4706C67.9213 75.4548 67.8007 75.4164 67.7511 75.3553C67.7257 75.2718 67.7057 75.0843 67.6911 74.7926C67.6659 74.2897 67.6508 73.7778 67.6459 73.2569C67.6237 72.0546 67.6362 71.374 67.6833 71.2148C67.6571 71.1144 67.6395 70.9734 67.6303 70.7916L67.6094 70.2461L67.5998 69.9288C67.5962 69.857 67.5876 69.7705 67.5741 69.6695C67.5525 69.4926 67.5372 69.3133 67.5281 69.1316C67.5185 68.9414 67.5283 68.799 67.5575 68.7043C67.5175 68.5834 67.4929 68.43 67.4836 68.244L67.4842 68.1296C67.4821 68.0873 67.478 68.0473 67.4718 68.0095C67.1996 67.9892 66.8691 67.9888 66.4803 68.0083C66.0957 68.0276 65.7345 68.0499 65.3968 68.0753C65.1944 68.094 65.0277 68.1066 64.8966 68.1131C64.7656 68.1197 64.6872 68.1194 64.6614 68.1122C64.6124 67.8943 64.5769 67.6525 64.5551 67.3866C64.5412 67.1077 64.5592 66.8759 64.6093 66.6912C65.0325 66.5979 65.6109 66.5138 66.3444 66.4389L71.626 66.1869C71.667 66.3289 71.6965 66.5795 71.7146 66.9388C71.7228 67.1036 71.7261 67.2115 71.7244 67.2624C71.72 67.3432 71.6963 67.4206 71.6534 67.4948C71.6298 67.5299 71.6026 67.58 71.572 67.6451C71.4146 67.6318 71.114 67.6362 70.6702 67.6585C69.7573 67.7042 69.2276 67.7456 69.0811 67.7826L69.1812 69.1441L69.2459 69.6747L69.3569 72.5228C69.3628 72.8106 69.3557 73.133 69.3354 73.4899C69.3063 73.7541 69.2988 74.0278 69.313 74.3109L69.3486 74.7668C69.3562 74.9189 69.3574 75.0693 69.3521 75.2178C69.2712 75.3787 69.0258 75.4694 68.6158 75.4899ZM73.6645 69.5676C74.7934 69.4348 75.3515 69.0297 75.3387 68.3524C75.3057 67.9473 75.1046 67.6544 74.7354 67.4738C74.6014 67.4212 74.4084 67.3758 74.1565 67.3376C73.9046 67.2993 73.7174 67.2833 73.5948 67.2894L73.6447 68.1577C73.6678 68.6183 73.6744 69.0883 73.6645 69.5676ZM73.2072 75.1517L73.1248 75.1558C72.9135 75.1664 72.7218 75.1464 72.5498 75.0957C72.4354 74.504 72.3606 73.8574 72.3254 73.1558C72.2993 72.6359 72.2949 72.0832 72.3122 71.4976C72.3235 70.8784 72.3173 70.3321 72.2936 69.8588L72.2104 68.8333L72.2009 68.6431C72.1736 68.0979 72.1903 67.7984 72.2512 67.7445C72.24 67.69 72.2319 67.6141 72.2271 67.5169C72.2237 67.4493 72.2204 67.3414 72.2172 67.1932C72.2182 67.0449 72.2219 66.8646 72.2282 66.6525C72.2388 66.4401 72.2525 66.2911 72.2694 66.2055C72.4006 66.1184 72.6353 66.0664 72.9734 66.0495C73.451 66.0255 73.9715 66.0545 74.5349 66.1364C74.9958 66.2023 75.3267 66.2959 75.5277 66.4172C75.8166 66.6018 75.9876 66.7161 76.0406 66.7601C76.147 66.8522 76.2895 67.076 76.4683 67.4314C76.5594 67.6429 76.6128 67.9051 76.6285 68.2178C76.6292 68.2305 76.6317 68.3236 76.6362 68.4971C76.6406 68.6706 76.5922 68.8467 76.491 69.0255C76.4611 69.2728 76.3564 69.5513 76.177 69.8611C75.9976 70.171 75.8033 70.3926 75.5938 70.5259C75.0332 70.8379 74.4268 71.0378 73.7744 71.1256C73.7487 71.2879 73.7267 71.5686 73.7086 71.9678C73.6694 72.7918 73.6615 73.4383 73.6851 73.9075L73.7016 74.11C73.7075 74.2284 73.7104 74.3278 73.7102 74.4083L73.7149 74.5034C73.7232 74.6682 73.7587 74.8275 73.8215 74.9811C73.6607 75.0697 73.4559 75.1265 73.2072 75.1517ZM82.917 74.7286L82.5125 74.6472C82.4789 74.4836 82.4522 74.2053 82.4325 73.8122L82.4033 73.229C82.3992 73.1487 82.3906 73.0601 82.3772 72.9633L82.3363 72.5268C82.3293 72.4721 82.3078 72.0855 82.2718 71.367C82.2682 71.1257 82.26 70.8782 82.2473 70.6246C82.2089 69.8596 82.1299 69.0437 82.0102 68.1769L81.9807 67.7144C81.9495 67.0931 81.9519 66.4638 81.9877 65.8264C82.136 65.7427 82.2821 65.6973 82.4258 65.6901C82.5735 65.6784 82.6537 65.6723 82.6664 65.6716C82.9284 65.6585 83.127 65.6909 83.2623 65.7689C83.342 65.9217 83.4231 66.8222 83.5058 68.4705C83.5479 69.3116 83.5842 70.1614 83.6145 71.02L83.6387 71.629C83.6376 71.6926 83.6368 71.7604 83.6362 71.8325C83.6355 71.9045 83.6277 71.96 83.6127 71.9989C83.621 72.1637 83.6345 72.3495 83.6534 72.5562C83.6764 72.7626 83.6924 72.9546 83.7013 73.1321C83.7081 73.2674 83.7123 73.3943 83.714 73.5128C83.7136 73.5891 83.7161 73.6801 83.7214 73.7857L83.7299 73.9569C83.7475 74.3077 83.7456 74.5239 83.7243 74.6055C83.5956 74.6585 83.4763 74.6878 83.3664 74.6933C83.3284 74.6952 83.2924 74.6949 83.2583 74.6924C83.2286 74.6896 83.1989 74.689 83.1693 74.6905C83.089 74.6945 83.0049 74.7072 82.917 74.7286ZM78.4811 74.8619C78.1556 74.8782 77.8269 74.8714 77.4949 74.8415C77.427 74.4169 77.357 73.484 77.2847 72.0428C77.2116 70.5847 77.1919 69.6832 77.2254 69.3383C77.177 69.1331 77.1472 68.9185 77.1359 68.6945C77.1222 68.4198 77.1254 68.1463 77.1457 67.8741C77.1511 67.7298 77.1505 67.59 77.1437 67.4548C77.1369 67.3195 77.1237 67.1825 77.104 67.0436C77.0884 66.9004 77.0774 66.7653 77.071 66.6385C77.0587 66.3934 77.0705 66.164 77.1064 65.9503L78.0076 65.9242L78.1531 65.9106C78.2926 65.9036 78.4142 65.9208 78.518 65.9622C78.6258 65.9992 78.6857 66.1381 78.6978 66.379C78.7086 66.5946 78.7112 66.8169 78.7058 67.046L78.7131 67.5731C78.7318 68.0298 78.7275 68.494 78.7003 68.9656C78.6879 69.2247 78.6797 69.4836 78.6757 69.7423C78.9515 69.7496 79.282 69.7924 79.6672 69.8705C80.0525 69.9487 80.3627 70.0517 80.5979 70.1798C80.7613 70.2267 80.8935 70.2857 80.9945 70.3569C81.0953 70.4239 81.1982 70.531 81.303 70.6783C81.4296 70.8372 81.5317 71.0143 81.6093 71.2095C81.6344 71.2888 81.6652 71.4377 81.7016 71.6562C81.7441 71.9125 81.7703 72.14 81.7803 72.3386C81.7892 72.5161 81.7732 72.6207 81.7324 72.6524C81.7388 72.7792 81.6988 72.9529 81.6124 73.1733C81.526 73.3937 81.4175 73.5962 81.2869 73.7807C81.1603 73.9607 81.038 74.0558 80.9199 74.066C80.8104 74.2494 80.5015 74.4259 79.9931 74.5955C79.5472 74.7449 79.0432 74.8338 78.4811 74.8619ZM79.087 73.6367C79.3321 73.6244 79.5736 73.5805 79.8113 73.5051C79.9818 73.4414 80.1078 73.3758 80.1891 73.3082C80.2747 73.2403 80.3833 73.1247 80.5149 72.9613L80.5345 72.7188C80.5504 72.6121 80.557 72.491 80.5545 72.3556C80.5413 72.0935 80.4787 71.8573 80.3664 71.6468C80.1474 71.251 79.6871 71.0707 78.9856 71.1059C78.8714 71.1116 78.7577 71.1258 78.6445 71.1484C78.6379 71.2716 78.6374 71.3882 78.6429 71.4981C78.6463 71.5657 78.6544 71.6415 78.6671 71.7256L78.6536 73.2326L78.699 73.6307C78.8309 73.6411 78.9602 73.6431 79.087 73.6367ZM85.7925 74.5209C85.6742 74.5268 85.5132 74.5285 85.3097 74.526C85.1703 74.533 85.0816 74.5396 85.0438 74.5457C84.9724 74.5577 84.9007 74.5656 84.8289 74.5692C84.7655 74.5724 84.6995 74.5672 84.6311 74.5537C84.5668 74.5399 84.5254 74.4742 84.5068 74.3565C84.5433 74.1555 84.5606 73.9513 84.5587 73.7438L84.5701 73.4636C84.5597 73.2565 84.5475 73.0558 84.5335 72.8616C84.5056 72.4732 84.4819 72.0846 84.4624 71.6957C84.4207 70.8631 84.3997 70.0231 84.3996 69.1757C84.4033 68.2349 84.3878 67.4179 84.353 66.7248C84.3304 66.2725 84.2987 65.8949 84.2581 65.5919L84.3577 65.5487C84.3915 65.547 84.4125 65.5439 84.4207 65.5392C84.429 65.5346 84.4352 65.5321 84.4394 65.5319C84.4386 65.515 84.4847 65.5042 84.5776 65.4996C84.7425 65.4913 84.8479 65.4818 84.894 65.471C84.9443 65.46 84.9927 65.4534 85.0392 65.451C85.1068 65.4476 85.1878 65.4584 85.2823 65.4833L85.3977 65.503L85.5435 65.4957C85.6027 65.4927 85.6685 65.4957 85.741 65.5048L85.7394 65.7273C85.7004 66.1318 85.6929 66.575 85.7171 67.0568L85.7634 67.7282C85.7795 68.0494 85.7842 68.3542 85.7775 68.6427C85.7407 69.6826 85.7202 70.2048 85.7162 70.2092C85.7162 70.2092 85.7144 70.2157 85.7108 70.2286C85.7356 70.2994 85.7503 70.3812 85.7549 70.4742C85.7625 70.6264 85.7515 71.0824 85.7218 71.8423C85.7556 71.7559 86.0376 70.9579 86.5679 69.4484C86.8687 68.6028 87.0494 68.151 87.1101 68.0928C87.1369 67.9517 87.1862 67.7946 87.258 67.6215C87.3104 67.4833 87.3731 67.2958 87.4459 67.0591C87.5289 66.7711 87.6025 66.5894 87.6665 66.5142L87.6652 66.4888C87.6616 66.417 87.6852 66.295 87.7359 66.123C87.7899 65.9339 87.836 65.8383 87.874 65.8364C87.9232 65.5501 88.045 65.402 88.2395 65.3923L88.2712 65.3907C88.4987 65.3666 88.7901 65.3456 89.1451 65.3278C89.3057 65.3198 89.4073 65.3189 89.45 65.3253L89.4736 65.9215C89.4972 65.9712 89.5216 66.2454 89.5466 66.7441C89.5536 66.8836 89.561 67.0739 89.5688 67.315C89.5767 67.5561 89.5805 67.8017 89.5803 68.0516C89.5842 68.2972 89.5826 68.435 89.5756 68.465L89.6144 68.9842C89.6831 69.5104 89.7331 70.0841 89.7642 70.7054C89.7953 71.3267 89.8159 71.9062 89.8259 72.4438L89.8551 73.027C89.8848 73.6187 89.8729 74.0155 89.8195 74.2173C89.769 74.2241 89.7187 74.2351 89.6686 74.2503C89.6225 74.2611 89.5363 74.2739 89.4099 74.2887C89.2834 74.2993 89.161 74.3097 89.0429 74.3198C88.9414 74.3249 88.848 74.3211 88.7626 74.3084C88.6344 74.2852 88.5665 74.1996 88.5591 74.0517L88.5575 74.02C88.5615 73.7613 88.5423 72.828 88.4998 71.2201C88.462 69.9593 88.444 69.009 88.4459 68.3691C88.3616 68.547 88.2443 68.8283 88.0941 69.213C87.7109 70.1897 87.4836 70.8537 87.4122 71.2047C87.4019 71.2518 87.3418 71.4476 87.2319 71.7921C87.0885 72.2272 86.9911 72.4821 86.9398 72.5567C86.5973 73.417 86.4218 73.8877 86.4131 73.9686C86.3656 74.0345 86.3349 74.0996 86.3212 74.1639C86.276 74.2763 86.2271 74.3571 86.1745 74.4064C86.1438 74.4715 86.0165 74.5096 85.7925 74.5209ZM86.9981 64.8444C86.5712 64.8658 86.1114 64.7808 85.6188 64.5894C85.5894 64.5103 85.5726 64.4286 85.5684 64.344C85.5625 64.2257 85.565 64.1493 85.576 64.1149C85.5527 64.0736 85.5351 63.9326 85.523 63.6917C85.5156 63.5438 85.5309 63.4688 85.5689 63.4669L85.5946 63.472C85.9378 63.6412 86.2552 63.7185 86.5469 63.7039L86.6797 63.6909L87.0211 63.6547C87.431 63.6342 87.7991 63.5395 88.1254 63.3706C88.3592 63.5538 88.5129 63.7897 88.5867 64.0783C88.1574 64.5575 87.6278 64.8128 86.9981 64.8444ZM44.0207 86.0724C45.1496 85.9395 45.7076 85.5344 45.6949 84.8571C45.6618 84.452 45.4607 84.1592 45.0915 83.9785C44.9575 83.9259 44.7646 83.8805 44.5127 83.8423C44.2608 83.8041 44.0736 83.788 43.951 83.7942L44.0009 84.6624C44.024 85.1231 44.0306 85.5931 44.0207 86.0724ZM43.5633 91.6565L43.4809 91.6606C43.2696 91.6712 43.0779 91.6511 42.9059 91.6004C42.7915 91.0087 42.7167 90.3621 42.6816 89.6605C42.6555 89.1406 42.6511 88.5879 42.6683 88.0023C42.6797 87.3832 42.6735 86.8369 42.6498 86.3635L42.5666 85.3381L42.557 85.1479C42.5297 84.6027 42.5465 84.3031 42.6073 84.2492C42.5961 84.1947 42.5881 84.1188 42.5832 84.0216C42.5798 83.954 42.5765 83.8461 42.5733 83.698C42.5744 83.5496 42.5781 83.3694 42.5844 83.1572C42.5949 82.9448 42.6086 82.7958 42.6255 82.7102C42.7567 82.6232 42.9914 82.5712 43.3295 82.5542C43.8071 82.5303 44.3276 82.5593 44.891 82.6412C45.3519 82.7071 45.6829 82.8006 45.8839 82.9219C46.1728 83.1066 46.3437 83.2209 46.3968 83.2648C46.5031 83.3569 46.6457 83.5807 46.8245 83.9361C46.9156 84.1477 46.969 84.4098 46.9847 84.7226C46.9853 84.7352 46.9878 84.8283 46.9923 85.0018C46.9968 85.1753 46.9484 85.3515 46.8472 85.5303C46.8172 85.7775 46.7125 86.0561 46.5332 86.3659C46.3538 86.6757 46.1594 86.8973 45.95 87.0307C45.3894 87.3427 44.7829 87.5425 44.1306 87.6303C44.1048 87.7926 44.0829 88.0734 44.0647 88.4726C44.0255 89.2965 44.0177 89.9431 44.0412 90.4122L44.0577 90.6148C44.0636 90.7331 44.0665 90.8325 44.0663 90.9131L44.0711 91.0081C44.0793 91.173 44.1149 91.3322 44.1776 91.4858C44.0168 91.5744 43.8121 91.6313 43.5633 91.6565ZM50.9559 91.2859L50.7404 91.2967C50.5671 91.3054 50.2328 91.3137 49.7374 91.3215L49.7368 91.3089L49.1285 91.3457L48.6914 91.374C48.3786 91.3897 48.0969 91.3911 47.8463 91.3782C47.8199 91.1889 47.7805 90.7841 47.7282 90.1638C47.6269 88.9868 47.5535 87.946 47.5082 87.0416C47.4495 85.8708 47.452 85.2034 47.5158 85.0391C47.4746 84.8929 47.4455 84.6507 47.4286 84.3126C47.3989 83.7209 47.3922 83.1217 47.4084 82.515C47.5132 82.4081 47.9396 82.3358 48.6877 82.2983C49.0005 82.2827 49.3347 82.2723 49.6903 82.2671C49.8429 82.268 50.0037 82.2641 50.1728 82.2557C50.3165 82.2485 50.4684 82.2366 50.6286 82.2201C50.7928 82.1992 50.9531 82.1848 51.1095 82.1769C51.549 82.1549 51.9509 82.1835 52.315 82.2627C52.3704 82.4379 52.4042 82.648 52.4165 82.8932C52.422 83.0031 52.4187 83.1049 52.4064 83.1987C52.3844 83.3524 52.3206 83.4318 52.215 83.4371L50.9087 83.4963L49.6084 83.5487C49.1984 83.5693 48.9239 83.5873 48.7849 83.6027L48.8027 84.0849L48.8227 84.4843L48.8364 84.884C48.8369 85.2314 48.8451 85.5657 48.8612 85.8869C48.868 86.0222 48.8778 86.1318 48.8904 86.2159C48.9558 86.2508 49.3477 86.2502 50.0662 86.2142C50.5057 86.1922 50.933 86.1792 51.348 86.1754C51.7631 86.1715 52.0528 86.2036 52.2172 86.2716C52.2986 86.543 52.3437 86.7653 52.3524 86.9386C52.3619 87.1288 52.3261 87.2598 52.2449 87.3316C52.111 87.4485 51.7524 87.5216 51.1691 87.5508L50.8582 87.56L50.1738 87.6007L48.9908 87.7108L49.037 89.647C49.4337 89.6991 50.211 89.6962 51.3691 89.6381C52.1975 89.5966 52.6424 89.5976 52.7039 89.6411C52.7794 89.7941 52.8203 89.9764 52.8267 90.1879C52.8375 90.4035 52.8282 90.5989 52.7988 90.774C52.7737 90.949 52.705 91.0584 52.5928 91.1022C52.5013 91.1364 52.3964 91.1565 52.2781 91.1624L51.9928 91.1767L50.9559 91.2859ZM55.1156 91.338C54.4817 91.3697 53.8736 91.3261 53.2914 91.207C53.2797 91.144 53.2677 91.0302 53.2552 90.8656C53.2545 90.8529 53.2579 90.8358 53.2653 90.8142C53.2683 90.7887 53.2715 90.7694 53.2751 90.7565C53.2785 90.7394 53.2801 90.7287 53.2799 90.7245L53.2726 90.7058C53.2586 90.6811 53.2495 90.6265 53.2453 90.5419C53.2383 90.4025 53.2434 90.2497 53.2605 90.0836C53.2708 89.9517 53.2938 89.8616 53.3295 89.8132C53.7643 89.9482 54.2301 90.0286 54.7272 90.0545C54.7739 90.0564 54.8186 90.0606 54.8613 90.0669C55.1334 90.0871 55.371 90.0922 55.5738 90.082C55.9584 90.0627 56.2327 89.9558 56.3967 89.7611C56.4768 89.6681 56.5439 89.5694 56.5979 89.465C56.6563 89.3604 56.7193 89.2662 56.7872 89.1823L56.8055 88.9144C56.8237 88.7694 56.8283 88.6082 56.8194 88.4307C56.7897 87.839 56.4745 87.4247 55.8737 87.1879L55.6651 87.0839C55.5127 87.0026 55.3378 86.9372 55.1404 86.8878C54.831 86.8016 54.5786 86.7528 54.3831 86.7414C54.5048 86.4642 54.6157 86.2256 54.7159 86.0256C54.8203 85.8255 54.9287 85.623 55.0414 85.4183C55.1582 85.2133 55.2621 85.047 55.3532 84.9196L56.2006 83.1865L55.4589 83.2237C54.9855 83.2474 54.616 83.2723 54.3504 83.2983L54.1288 83.3158C54.0696 83.3188 53.8955 83.3105 53.6064 83.2911L53.3642 83.2778C53.2249 83.1196 53.1427 82.9585 53.1175 82.7945C53.0924 82.6305 53.0781 82.5147 53.0747 82.4471C53.0671 82.2949 53.0797 82.1672 53.1127 82.0638C53.2342 82.0365 53.4661 82.0143 53.8085 81.9972C54.502 81.9709 55.154 81.9594 55.7643 81.9627L55.9028 81.9367C56.2468 81.8686 56.5351 81.8287 56.7675 81.8171C56.9239 81.8092 57.0516 81.8198 57.1505 81.8487C58.0253 81.8049 58.4639 81.8062 58.4663 81.8527L58.4666 81.859C58.2988 82.1471 58.1454 82.4259 58.0064 82.6956C57.9483 82.8044 57.7209 83.212 57.3241 83.9183L56.5071 85.3702C56.4217 85.527 56.3579 85.6489 56.3157 85.7357C56.407 85.782 56.4873 85.8203 56.5566 85.8507C56.7392 85.9433 57.0314 86.1511 57.4331 86.4742C57.601 86.6098 57.7097 86.7082 57.7594 86.7692C57.8953 86.9446 58.0045 87.1383 58.0872 87.3502C58.1172 87.4419 58.153 87.6054 58.1944 87.8406C58.2422 88.1178 58.2717 88.3685 58.2829 88.5925C58.2925 88.7827 58.277 88.8957 58.2364 88.9317C58.2391 89.0713 58.1957 89.2621 58.1062 89.5038C58.0166 89.7456 57.9047 89.9652 57.7706 90.1626C57.6406 90.3598 57.5124 90.4636 57.3858 90.4742C57.2675 90.6496 57.0425 90.8113 56.711 90.9593C56.3794 91.1073 56.1088 91.2034 55.8992 91.2478C55.6642 91.2935 55.403 91.3236 55.1156 91.338ZM60.7772 91.0478L60.4665 91.0634L60.2586 90.9721L60.3343 90.4535L60.2984 89.7371C60.2933 89.6357 60.6625 89.4795 61.4062 89.2685C61.6642 89.0056 61.7857 88.7262 61.7709 88.4303C61.7427 87.8682 60.8234 85.9271 59.013 82.607C58.856 82.1785 58.7746 81.9071 58.7689 81.793L58.9666 81.6814L59.9937 81.6299C60.2196 81.6567 60.7485 82.6577 61.5806 84.6329C61.6947 84.6271 61.9934 85.0931 62.4769 86.0307L62.5783 86.0256C62.7558 86.0167 63.2059 84.7251 63.9285 82.1509C63.9067 81.7156 64.2671 81.4242 65.0096 81.2768C65.4961 81.3456 65.7422 81.4371 65.7479 81.5512C64.17 86.9267 63.0839 89.8581 62.4898 90.3455C62.0285 90.7796 61.4576 91.0137 60.7772 91.0478ZM65.5397 90.7011C65.5101 90.7025 65.4803 90.6998 65.4503 90.6928C65.4205 90.6901 65.393 90.6893 65.3676 90.6906C65.3549 90.6913 65.3425 90.6961 65.3302 90.7052L65.3425 90.444C65.3529 90.3121 65.3454 89.9947 65.3202 89.4918C65.3282 89.3982 65.3483 89.3336 65.3804 89.2981C65.4506 89.2607 65.5911 89.2325 65.802 89.2134L66.029 89.1766C66.2521 89.1485 66.482 89.0014 66.7187 88.7353C66.7337 88.6964 66.7547 88.6508 66.7817 88.5986C67.1268 88.0432 67.2898 87.1114 67.2708 85.8031C67.2652 85.1847 67.2873 84.6519 67.3369 84.2045C67.3865 83.7571 67.4244 83.4989 67.4506 83.4298C67.4165 83.173 67.3934 82.9242 67.3814 82.6833C67.3651 82.3578 67.3684 82.0441 67.3914 81.7421L67.4002 81.4112L67.7172 81.3953C67.7553 81.3934 67.7973 81.3871 67.8434 81.3763C67.8894 81.3655 67.9399 81.3587 67.9949 81.356L68.0707 81.3458C68.3031 81.3342 68.5991 81.3215 68.9585 81.3077C69.3178 81.2897 69.6264 81.2763 69.8844 81.2676L70.4297 81.2403L70.7019 81.2203C70.8118 81.2148 70.9074 81.2185 70.9885 81.2313C71.0737 81.2398 71.1733 81.2412 71.2874 81.2354C71.4474 82.7358 71.5655 84.2468 71.6417 85.7683L71.6799 86.5291C71.7002 86.8501 71.7321 87.2743 71.7754 87.8018C71.8298 88.4642 71.8673 89.0005 71.8879 89.4104C71.9042 89.7359 71.9282 90.0037 71.9599 90.214L70.5081 90.2868L70.4567 89.3869C70.4501 89.2558 70.4323 89.0279 70.4033 88.7031C70.3343 87.9185 70.2968 87.4649 70.2906 87.3423C70.2849 87.2282 70.2836 87.1181 70.2868 87.012C70.292 86.8634 70.2908 86.711 70.2829 86.5546L70.2655 86.333C70.2566 86.1555 70.2581 85.9754 70.2701 85.7926C70.2822 85.6098 70.2843 85.4402 70.2764 85.2838L69.9883 82.7051L69.9816 82.6991L69.8925 82.6972C69.71 82.6894 69.5532 82.6888 69.4221 82.6954L69.3461 82.6992C69.2072 82.7189 69.0281 82.7384 68.8088 82.7579C68.7906 83.1571 68.7775 83.359 68.7692 83.3637L68.6987 84.8735C68.6798 85.4253 68.6385 85.9972 68.575 86.5894C68.5444 86.7392 68.5146 86.9483 68.4857 87.2167C68.4481 87.7355 68.3628 88.2313 68.2297 88.704C67.9953 89.3513 67.7153 89.8103 67.3899 90.0808C67.2196 90.2334 67.039 90.3505 66.8482 90.4321C66.6614 90.5092 66.5279 90.5498 66.4476 90.5539C66.3444 90.6099 66.0734 90.6552 65.6345 90.69C65.5922 90.6921 65.5606 90.6958 65.5397 90.7011ZM73.7305 90.1507C73.405 90.167 73.0742 90.1603 72.738 90.1305C72.6707 89.7186 72.6001 88.7752 72.5262 87.3002C72.4516 85.8124 72.4314 84.9025 72.4656 84.5703C72.4128 84.3611 72.3807 84.1445 72.3695 83.9205C72.3581 83.6922 72.3633 83.4166 72.3852 83.0934L72.3963 82.8069C72.3874 82.6294 72.3717 82.4437 72.3493 82.2499C72.3254 82.1113 72.3102 81.9765 72.3036 81.8455C72.2911 81.5961 72.3049 81.3645 72.3451 81.1506L73.1768 81.1344C73.2145 81.124 73.2819 81.1164 73.3791 81.1115C73.5355 81.1037 73.6676 81.1204 73.7756 81.1616C73.8834 81.1985 73.9433 81.3375 73.9554 81.5784C73.9666 81.8024 73.9695 82.0289 73.9641 82.258C73.9603 82.4361 73.9607 82.6141 73.9654 82.7918C73.9883 83.2483 73.9841 83.7145 73.9529 84.1907C73.9407 84.454 73.9327 84.7171 73.9289 84.98C74.2131 84.9869 74.548 85.0315 74.9334 85.1139C75.3229 85.1918 75.6374 85.2947 75.8768 85.4225C76.0402 85.4694 76.1724 85.5285 76.2734 85.5997C76.3744 85.6709 76.4795 85.78 76.5885 85.9271C76.7153 86.0902 76.8174 86.2673 76.8948 86.4583C76.9202 86.5418 76.9512 86.6949 76.9877 86.9176C77.0286 87.1402 77.0549 87.3698 77.0668 87.6064C77.0754 87.7797 77.0595 87.8843 77.0189 87.9203C77.0253 88.0471 76.9833 88.2229 76.8928 88.4477C76.8064 88.6682 76.6979 88.8706 76.5674 89.0551C76.4408 89.2352 76.3185 89.3303 76.2003 89.3405C76.0826 89.5286 75.7696 89.7074 75.2612 89.8769C74.8155 90.0306 74.3053 90.1219 73.7305 90.1507ZM74.3484 88.9121C74.5936 88.8998 74.8371 88.8559 75.0791 88.7802C75.2496 88.7165 75.3777 88.6508 75.4632 88.583C75.5486 88.5109 75.6272 88.4307 75.6991 88.3423L75.7951 88.2295C75.7953 88.149 75.7997 88.0682 75.8084 87.9873C75.8242 87.8806 75.8307 87.7574 75.828 87.6177C75.8148 87.3556 75.7499 87.1174 75.6333 86.9029C75.4143 86.5071 74.9498 86.327 74.2397 86.3626C74.1256 86.3683 74.0139 86.3803 73.9047 86.3985C73.8895 86.5179 73.8846 86.6325 73.8901 86.7424C73.8935 86.81 73.906 86.8899 73.9276 86.982L73.9148 88.5017L73.9541 88.9065C74.086 88.9168 74.2174 88.9187 74.3484 88.9121ZM81.2359 89.8761C81.0922 89.8834 80.9245 89.8769 80.7329 89.8569C80.5414 89.8411 80.4208 89.8026 80.3712 89.7415C80.3458 89.6581 80.3258 89.4705 80.3112 89.1789C80.286 88.6759 80.2709 88.164 80.266 87.6431C80.2439 86.4409 80.2563 85.7602 80.3034 85.6011C80.2772 85.5007 80.2596 85.3596 80.2505 85.1779L80.2295 84.6324L80.2199 84.3151C80.2163 84.2432 80.2078 84.1568 80.1942 84.0558C80.1726 83.8789 80.1573 83.6996 80.1482 83.5178C80.1386 83.3277 80.1485 83.1852 80.1776 83.0905C80.1377 82.9697 80.113 82.8163 80.1037 82.6303L80.1043 82.5159C80.1022 82.4736 80.0981 82.4335 80.0919 82.3957C79.8197 82.3755 79.4892 82.3751 79.1004 82.3946C78.7158 82.4139 78.3546 82.4362 78.0169 82.4616C77.8145 82.4802 77.6478 82.4928 77.5167 82.4994C77.3857 82.5059 77.3073 82.5056 77.2815 82.4985C77.2325 82.2806 77.1971 82.0387 77.1753 81.7729C77.1613 81.4939 77.1793 81.2621 77.2294 81.0774C77.6527 80.9842 78.231 80.9001 78.9645 80.8252L84.2461 80.5732C84.2872 80.7152 84.3167 80.9658 84.3347 81.325C84.3429 81.4899 84.3462 81.5978 84.3445 81.6487C84.3401 81.7294 84.3165 81.8069 84.2736 81.881C84.2499 81.9161 84.2227 81.9662 84.1921 82.0313C84.0347 82.018 83.7341 82.0225 83.2903 82.0447C82.3774 82.0905 81.8477 82.1319 81.7012 82.1689L81.8013 83.5303L81.866 84.0609L81.977 86.9091C81.9829 87.1969 81.9758 87.5193 81.9556 87.8762C81.9264 88.1403 81.919 88.414 81.9331 88.6972L81.9687 89.153C81.9763 89.3052 81.9775 89.4555 81.9723 89.6041C81.8913 89.7649 81.6459 89.8556 81.2359 89.8761ZM86.9312 85.6947L88.3821 85.6029C88.4328 85.6003 88.4577 85.5906 88.4569 85.5737L88.4423 85.5363C88.2503 84.9188 88.1292 84.4461 88.0788 84.1182C87.9968 83.6647 87.8914 83.3797 87.7627 83.2633L87.6483 83.644C87.515 84.0278 87.4275 84.3118 87.3859 84.4961L87.2332 84.8724C87.0665 85.2663 86.9659 85.5404 86.9312 85.6947ZM85.7937 89.6286L85.7557 89.6305C85.6754 89.6346 85.4611 89.6283 85.1128 89.6119C84.735 89.5969 84.5243 89.5779 84.4808 89.5546C84.4619 89.5174 84.4513 89.4735 84.4487 89.4227C84.4405 89.2579 84.5225 88.9085 84.6949 88.3744C84.7572 88.1806 84.8005 88.0302 84.8248 87.923C84.848 87.7948 84.8858 87.6191 84.9382 87.3962C85.0751 86.83 85.2053 86.4697 85.3289 86.3152C85.3287 86.2262 85.3512 86.0832 85.3964 85.886C85.4874 85.5043 85.5868 85.1625 85.6945 84.8605C85.8678 84.3434 86.1405 83.6136 86.5127 82.6713C86.9488 81.5648 87.2223 80.9769 87.3332 80.9078C87.413 80.6411 87.5242 80.4491 87.6666 80.3318C87.8336 80.4505 88.0129 80.7742 88.2046 81.3027C88.2784 81.5066 88.3201 81.6613 88.3296 81.7667C88.4192 81.8639 88.5369 82.0995 88.6828 82.4736C88.7712 82.7149 88.8567 82.8991 88.9393 83.0263C88.9886 83.1637 89.0689 83.3715 89.1803 83.6498L89.9914 85.7574C90.786 87.8318 91.1871 88.943 91.1945 89.091L91.1948 89.0973C91.1268 89.177 91.0571 89.225 90.9859 89.2412C90.9441 89.2518 90.8978 89.2584 90.8471 89.2609C90.8175 89.2624 90.7815 89.2621 90.739 89.26C90.7005 89.2534 90.6559 89.2514 90.6052 89.254L90.3649 89.2787C90.2977 89.2906 90.2346 89.298 90.1754 89.3009C90.0571 89.3069 89.9441 89.2935 89.8365 89.2607C89.6922 89.0858 89.4675 88.5335 89.1624 87.6039C89.0269 87.1828 88.9091 86.8624 88.8092 86.6429C88.7206 86.6515 88.6323 86.6644 88.5442 86.6816C88.4603 86.6985 88.3634 86.7097 88.2535 86.7152L88.1838 86.7187C88.1032 86.7185 87.9975 86.7217 87.8665 86.7283C87.503 86.7465 87.0632 86.8066 86.5472 86.9088C86.3915 87.2683 86.2017 87.9197 85.9778 88.8631L85.7937 89.6286ZM94.6898 89.2018C94.5461 89.209 94.3784 89.2026 94.1867 89.1825C93.9953 89.1667 93.8747 89.1282 93.825 89.0672C93.7996 88.9837 93.7797 88.7961 93.765 88.5045C93.7398 88.0016 93.7248 87.4896 93.7198 86.9687C93.6977 85.7665 93.7102 85.0858 93.7573 84.9267C93.7311 84.8263 93.7134 84.6853 93.7043 84.5035L93.6833 83.958L93.6738 83.6407C93.6702 83.5688 93.6616 83.4824 93.6481 83.3814C93.6265 83.2045 93.6111 83.0252 93.602 82.8435C93.5925 82.6533 93.6023 82.5108 93.6315 82.4162C93.5915 82.2953 93.5669 82.1419 93.5575 81.9559L93.5582 81.8415C93.556 81.7992 93.5519 81.7592 93.5458 81.7213C93.2736 81.7011 92.9431 81.7007 92.5543 81.7202C92.1696 81.7395 91.8085 81.7618 91.4708 81.7872C91.2684 81.8058 91.1016 81.8184 90.9706 81.825C90.8396 81.8316 90.7612 81.8313 90.7354 81.8241C90.6863 81.6062 90.6509 81.3644 90.6291 81.0985C90.6151 80.8196 90.6332 80.5877 90.6832 80.403C91.1065 80.3098 91.6849 80.2257 92.4184 80.1508L97.7 79.8988C97.741 80.0408 97.7705 80.2914 97.7885 80.6507C97.7968 80.8155 97.8001 80.9234 97.7984 80.9743C97.794 81.055 97.7703 81.1325 97.7274 81.2067C97.7037 81.2418 97.6766 81.2918 97.646 81.3569C97.4885 81.3436 97.1879 81.3481 96.7441 81.3704C95.8312 81.4161 95.3015 81.4575 95.1551 81.4945L95.2551 82.8559L95.3199 83.3866L95.4308 86.2347C95.4368 86.5225 95.4296 86.8449 95.4094 87.2018C95.3803 87.466 95.3728 87.7396 95.387 88.0228L95.4226 88.4786C95.4302 88.6308 95.4314 88.7811 95.4261 88.9297C95.3452 89.0905 95.0997 89.1812 94.6898 89.2018Z" fill="#20305B"/>
</svg>
