<svg width="138" height="138" viewBox="0 0 138 138" fill="none" xmlns="http://www.w3.org/2000/svg">
<path d="M74.9056 137.554C111.238 137.554 137.485 111.941 137.485 74.2864C137.485 36.6315 111.238 0.0689697 74.9056 0.0689697C38.5735 0.0689697 9.15527e-05 28.7231 9.15527e-05 66.378C9.15527e-05 104.033 38.5735 137.554 74.9056 137.554Z" fill="#F0D1C0"/>
<path d="M39.7898 39.7521C48.7113 33.3736 55.0124 51.3809 52.8535 58.381C51.6674 60.2927 48.8099 64.4502 46.8684 65.7872C44.4415 67.4585 32.0436 66.3189 27.8806 62.1475C23.7176 57.9761 30.8683 46.1306 39.7898 39.7521Z" fill="white"/>
<path d="M48.2931 60.9865C46.4821 63.0009 38.0645 61.7972 35.8952 59.8469C33.7259 57.8966 35.5554 54.099 37.3664 52.0846C39.1774 50.0703 43.2793 48.764 45.4486 50.7143C47.618 52.6646 50.1041 58.9722 48.2931 60.9865Z" fill="#F2C9C9"/>
<path d="M110.094 45.6777C117.161 54.0637 99.7121 61.7767 92.5625 60.1812C90.5626 59.1509 86.1911 56.6331 84.7039 54.804C82.8449 52.5178 82.9951 40.0685 86.8222 35.5869C90.6494 31.1054 103.026 37.2916 110.094 45.6777Z" fill="white"/>
<path d="M89.6031 55.8429C87.4511 54.1978 87.9816 45.7111 89.7533 43.3936C91.5249 41.0761 95.456 42.5978 97.608 44.2429C99.76 45.888 101.388 49.8731 99.6166 52.1906C97.845 54.5081 91.7551 57.488 89.6031 55.8429Z" fill="#F2C9C9"/>
<path d="M106.413 77.3873C106.413 91.7646 89.9998 103.42 72.0802 103.42C54.1607 103.42 39.634 91.7646 39.634 77.3873C39.634 63.01 46.0478 51.3549 72.0802 51.3549C96.2262 51.3549 106.413 63.01 106.413 77.3873Z" fill="white"/>
<path d="M56.5919 77.7647C58.101 73.9919 63.4023 69.4645 73.1923 69.4645C96.6031 69.4645 90.5666 90.9696 87.171 94.3651C83.7755 97.7606 73.1923 100.779 62.2511 95.4969C51.31 90.215 55.0828 81.5375 56.5919 77.7647Z" fill="#F2C9C9"/>
<circle cx="60.4998" cy="66.5" r="2.5" fill="#20305B"/>
<circle cx="86.5" cy="65.5" r="2.5" fill="#20305B"/>
<path d="M66.0435 92.1014C72.08 93.9878 77.3619 95.1197 83.0211 90.5923" stroke="#EB433C" stroke-width="4" stroke-linecap="round"/>
<path d="M77.739 70.2191C77.739 71.4693 75.8415 73.2373 73.9662 73.2373C72.0909 73.2373 70.1934 71.4693 70.1934 70.2191C70.1934 68.9689 72.0909 68.71 73.9662 68.71C75.8415 68.71 77.739 68.9689 77.739 70.2191Z" fill="#20305B"/>
</svg>
