<svg width="138" height="139" viewBox="0 0 138 139" fill="none" xmlns="http://www.w3.org/2000/svg">
<path d="M74.9056 0.584198C111.238 0.584198 137.485 26.1966 137.485 63.8515C137.485 101.506 111.238 138.069 74.9056 138.069C38.5735 138.069 9.15527e-05 109.415 9.15527e-05 71.7599C9.15527e-05 34.105 38.5735 0.584198 74.9056 0.584198Z" fill="#F0D1C0"/>
<path d="M46.2319 65.0375C52.0444 63.6153 59.3712 55.3175 59.0266 39.0312C58.9844 36.9392 59.2547 35.8435 61.1582 34.5377C76.0228 30.9006 77.9484 52.099 75.9181 58.4503L86.5514 55.8486C102.314 51.9918 104.414 64.4626 107.373 76.5592C110.208 88.1436 104.475 96.9518 93.6669 99.5963L74.9855 104.167C68.7177 105.701 61.5863 103.388 55.3817 102.433" fill="white"/>
<rect x="31.821" y="62.9819" width="14.2196" height="50.4773" rx="7" transform="rotate(-13.7489 31.821 62.9819)" fill="#EB433C"/>
<rect x="35.5334" y="66.7627" width="8.33052" height="8.33052" rx="4.16526" transform="rotate(-13.7489 35.5334 66.7627)" fill="white"/>
</svg>
