<svg width="138" height="139" viewBox="0 0 138 139" fill="none" xmlns="http://www.w3.org/2000/svg">
<path d="M74.9056 0.55368C111.238 0.55368 137.485 26.1661 137.485 63.821C137.485 101.476 111.238 138.038 74.9056 138.038C38.5735 138.038 9.15527e-05 109.384 9.15527e-05 71.7294C9.15527e-05 34.0745 38.5735 0.55368 74.9056 0.55368Z" fill="#F0D1C0"/>
<path d="M68.4138 36C85.5909 36 98 48.109 98 65.9115C98 83.714 85.5909 101 68.4138 101C51.2367 101 33 87.4529 33 69.6504C33 51.848 51.2367 36 68.4138 36Z" fill="white"/>
<path d="M80.5 53.5L61.7992 81.5511C61.1172 82.5742 59.6823 82.7454 58.7787 81.9115L44 68.2727" stroke="#20305B" stroke-width="6" stroke-linecap="round" stroke-linejoin="round"/>
<path d="M87 62C89.99 62 105.4 62 110 62" stroke="#EB433C" stroke-width="6" stroke-linecap="round"/>
<path d="M83 73C86 73 100.538 73 107 73" stroke="#EB433C" stroke-width="6" stroke-linecap="round"/>
<path d="M102 83C99 83 83.5385 83 78 83" stroke="#EB433C" stroke-width="6" stroke-linecap="round"/>
</svg>
