<svg width="106" height="52" viewBox="0 0 106 52" fill="none" xmlns="http://www.w3.org/2000/svg">
<path d="M2.84304 12.8567C2.90144 8.65737 6.19704 5.21812 10.39 4.9807L94.0011 0.246493C98.4965 -0.00804848 102.316 3.49603 102.45 7.99672L103.431 41.118C103.564 45.6089 99.9742 49.3287 95.4815 49.3548L10.4872 49.8503C6.00724 49.8764 2.37907 46.2188 2.44137 41.7392L2.84304 12.8567Z" fill="#284795"/>
<path d="M19.0793 36.3581C18.5123 36.3502 18.1318 36.3238 17.9377 36.2787C17.8112 36.2516 17.7318 36.1743 17.6997 36.0469C17.6677 35.9195 17.6533 35.7331 17.6567 35.4876L17.6659 34.8275C17.5842 34.6148 17.5555 33.6368 17.5798 31.8934C17.5863 31.4195 17.632 29.9643 17.7166 27.5277C17.7783 26.1404 17.9102 23.6495 18.1126 20.055C18.085 19.606 18.0732 19.2334 18.0773 18.9372C18.0861 18.311 18.1797 17.9652 18.3584 17.9C18.4775 17.8593 18.6174 17.8401 18.7782 17.8423L19.3364 17.8755C19.3872 17.8762 19.476 17.8774 19.603 17.8792C19.7385 17.8726 19.8571 17.8658 19.9587 17.8588C20.0689 17.8518 20.1536 17.8488 20.2128 17.8496C20.4244 17.8525 20.5341 17.8752 20.542 17.9177C20.6352 17.9105 20.7412 17.8908 20.8602 17.8586C21.2329 17.8384 21.6054 17.8309 21.9778 17.8361C22.4602 17.8428 22.9423 17.8706 23.424 17.9197C24.0158 17.9702 24.9631 18.0215 26.2659 18.0734L26.2788 18.0609L26.5963 18.0526C27.9419 18.0714 28.7326 18.1247 28.9684 18.2126C28.8194 19.1839 28.7416 19.9108 28.7349 20.3932L28.743 20.7234C28.7369 21.1634 28.7007 21.9417 28.6343 23.058C28.5912 24.3356 28.5615 25.5582 28.5452 26.7261C28.5316 27.7078 28.5269 28.6557 28.5311 29.5699C28.5348 30.518 28.5297 31.4955 28.5157 32.5026C28.4987 33.7212 28.4685 34.982 28.425 36.2849C28.0342 36.3895 27.5384 36.4376 26.9375 36.4293C26.4974 36.4232 26.1553 36.3719 25.9112 36.2754C25.7236 35.7649 25.6273 35.0822 25.6223 34.2272C25.6174 33.3638 25.6189 32.6485 25.6267 32.0815C25.6347 31.5061 25.6468 30.9434 25.6629 30.3934C25.6791 29.835 25.6901 29.3527 25.6957 28.9465L25.7033 28.4006C25.7102 27.9098 25.8084 25.7146 25.9981 21.8152L25.9901 21.4723C25.9915 21.3707 25.9968 21.2946 26.006 21.244C26.0152 21.1933 26.02 21.1511 26.0205 21.1172C26.0216 21.0326 25.9842 20.9855 25.9082 20.976L25.616 20.9846C25.5567 20.9923 25.4847 20.9955 25.4 20.9943C24.6969 21.0353 23.9895 21.0847 23.2777 21.1425C21.8203 21.2492 21.0239 21.3016 20.8885 21.2998C20.7531 21.2979 20.6683 21.3094 20.6341 21.3343C20.6 21.3508 20.5824 21.4013 20.5812 21.4859L20.5925 21.5877L20.59 21.7654C20.6162 22.3159 20.6516 23.4253 20.6961 25.0934L20.7128 25.7157C20.7052 26.2658 20.6888 26.8369 20.6636 27.4291C20.6394 27.9535 20.6237 28.4739 20.6165 28.9901C20.6058 29.7602 20.6165 30.5094 20.6487 31.2378C20.6771 31.636 20.6883 32.0425 20.6826 32.4572C20.6784 32.7534 20.6658 33.0537 20.6446 33.3581C20.6235 33.6625 20.6108 33.9628 20.6067 34.259C20.6017 34.6229 20.6093 34.987 20.6296 35.3512L20.6391 35.5799C20.6342 35.9353 20.5084 36.1537 20.2618 36.2349C20.0236 36.3247 19.6294 36.3657 19.0793 36.3581ZM37.1736 33.4991C39.2385 33.5278 40.4365 32.5922 40.7676 30.6923C40.8054 30.4135 40.8563 30.1011 40.9203 29.7549C41.0949 28.767 41.1851 28.0657 41.1908 27.6511C41.2253 25.1715 40.4444 22.8964 38.848 20.8258C38.6962 20.7899 38.5656 20.7415 38.4564 20.6807C38.2885 20.5853 38.1072 20.5362 37.9125 20.5335C37.7602 20.5314 37.5565 20.5709 37.3015 20.652C36.5531 20.9039 36.0677 21.113 35.8453 21.2792C35.2619 21.8467 34.7926 22.7247 34.4375 23.9132C34.0824 25.1018 33.8992 26.098 33.888 26.902L33.881 28.3239C33.8704 29.0855 33.8349 29.8087 33.7746 30.4935C33.85 30.5538 34.0066 30.8565 34.2445 31.4015C34.5144 32.0739 34.7451 32.53 34.9364 32.7697C35.27 33.1298 35.8677 33.3624 36.7296 33.4675C36.8817 33.4866 37.0297 33.4971 37.1736 33.4991ZM35.9223 36.7447C34.2128 36.7209 32.9271 36.0513 32.0651 34.7358C31.7836 34.2833 31.4931 33.564 31.1936 32.5779C30.8942 31.5919 30.6749 30.6197 30.5359 29.6613C30.4823 29.2543 30.4576 28.8984 30.4618 28.5937C30.4675 28.1875 30.5268 27.8794 30.6398 27.6694C30.6165 27.5167 30.6063 27.3388 30.6091 27.1357C30.6153 26.6872 30.7007 26.0239 30.8653 25.1459C31.0299 24.2679 31.2882 23.3446 31.6402 22.3761C32.0007 21.4077 32.3733 20.7908 32.7579 20.5253C32.9606 19.9441 33.5568 19.3768 34.5463 18.8234C35.536 18.2616 36.4843 17.9405 37.3911 17.86L38.09 17.8189C38.3442 17.797 38.5644 17.7874 38.7506 17.79C38.9282 17.8009 39.1222 17.846 39.3327 17.9251C39.8379 18.1183 40.3588 18.3964 40.8955 18.7594C41.6249 19.2604 42.0341 19.6597 42.1231 19.9572C42.4497 20.2072 42.7233 20.6216 42.9438 21.2002C43.1729 21.7705 43.36 22.3148 43.5051 22.8332C43.6504 23.343 43.7605 23.6451 43.8353 23.7392C43.9055 24.1719 43.9884 24.6005 44.0841 25.025C44.3003 25.9083 44.4062 26.8155 44.4017 27.7465C44.3829 27.8817 44.3555 28.0294 44.3194 28.1897C44.2834 28.3416 44.2563 28.4682 44.2379 28.5695C44.2356 28.7387 44.2466 28.8616 44.2709 28.9382C44.3038 29.0063 44.3276 29.1209 44.3423 29.282C44.3292 29.6119 44.2612 29.9368 44.1383 30.2567C44.0765 30.4421 44.0231 30.6233 43.9784 30.8005C43.7879 31.712 43.4027 32.6292 42.8228 33.5522C42.2513 34.4754 41.5437 35.1427 40.7 35.5542C40.0332 36.0274 39.1356 36.3619 38.0071 36.5578C37.2519 36.6912 36.557 36.7535 35.9223 36.7447ZM55.3749 36.6343C53.8685 36.6134 52.3626 36.2539 50.8572 35.5558C50.3693 35.3374 49.8366 34.9956 49.259 34.5305C47.9949 33.5226 47.2577 32.3654 47.0473 31.059C47.0161 30.8723 46.9677 30.6982 46.9022 30.5364C46.639 29.991 46.4877 28.9986 46.4485 27.5591C46.4425 27.3813 46.4407 27.2035 46.4432 27.0258C46.4683 25.2232 46.9134 23.6508 47.7785 22.3086C48.6437 20.9578 50.1101 19.8948 52.1777 19.1194C53.0033 18.7923 53.7419 18.6333 54.3936 18.6424L54.8248 18.6738C55.2225 18.6793 55.583 18.6293 55.9061 18.5237C56.1267 18.4845 56.3428 18.4663 56.5544 18.4693C56.7659 18.4722 57.0704 18.4892 57.4678 18.5201C57.8653 18.5425 58.288 18.5823 58.7358 18.6393C59.1837 18.6878 59.5046 18.7473 59.6983 18.8177C59.7787 19.1236 59.8285 19.4924 59.8479 19.9244C59.8457 20.0852 59.8373 20.3813 59.8229 20.8128C59.8085 21.2358 59.6808 21.5938 59.4397 21.8867C59.3889 21.8944 59.3253 21.8978 59.2492 21.8967C59.063 21.8941 58.7884 21.8565 58.4255 21.7837C57.5731 21.6026 56.783 21.5069 56.0552 21.4968C55.4967 21.489 54.9201 21.5572 54.3256 21.7013L54.2745 21.726C53.6971 21.8534 53.1445 22.0319 52.6165 22.2616C51.9438 22.5485 51.4458 23.0579 51.1224 23.7898C50.956 24.1937 50.8215 24.4331 50.7189 24.5079L50.7155 24.749C50.7108 25.0876 50.6797 25.4976 50.6222 25.9793C50.5744 26.3765 50.5442 26.7231 50.5316 27.0192C50.5619 27.883 50.7117 28.6765 50.9809 29.3997C51.0699 29.6972 51.1464 29.9818 51.2103 30.2535C51.4445 30.4515 51.645 30.6447 51.8117 30.8332C51.9868 31.0219 52.1663 31.1979 52.3503 31.3613C52.5343 31.5162 52.7779 31.6508 53.0811 31.765C53.5694 31.9496 54.4352 32.0844 55.6782 32.1694C55.8728 32.1805 56.0461 32.1956 56.1982 32.2147C56.7645 32.2733 57.2378 32.318 57.6183 32.3487C58.1088 32.3809 58.4679 32.424 58.6957 32.4779C58.9236 32.5234 59.0705 32.6101 59.1365 32.738C59.2025 32.8574 59.2421 33.0569 59.2551 33.3364C59.2666 33.7259 59.2948 34.1368 59.3395 34.5691C59.3767 34.9421 59.3971 35.3021 59.4007 35.6492C59.3999 35.7084 59.3991 35.7634 59.3984 35.8142C59.3963 35.9665 59.3778 36.0763 59.343 36.1436C59.1886 36.2938 58.9799 36.3882 58.717 36.4269C58.4542 36.4571 58.1874 36.4703 57.9165 36.4665C57.6542 36.4629 57.4171 36.4723 57.2051 36.4947C56.5943 36.5963 55.9842 36.6428 55.3749 36.6343ZM60.9689 37.0041C60.9097 37.0033 60.8506 36.994 60.7916 36.9763C60.7324 36.967 60.6775 36.962 60.6267 36.9613C60.6013 36.9609 60.5758 36.969 60.5502 36.9856L60.6082 36.4659C60.6457 36.204 60.6715 35.5695 60.6855 34.5625C60.7135 34.3766 60.7618 34.2503 60.8304 34.1836C60.9752 34.1179 61.2593 34.0795 61.6827 34.0685L62.1404 34.024C62.5894 33.9964 63.067 33.7322 63.5734 33.2314C63.6083 33.1557 63.6561 33.0675 63.7167 32.9668C64.4764 31.9024 64.921 30.0633 65.0504 27.4496C65.1184 26.2148 65.2305 25.154 65.3867 24.2675C65.5429 23.3809 65.6516 22.8703 65.7127 22.7357C65.6776 22.2189 65.6634 21.7193 65.6701 21.2369C65.6792 20.5853 65.7259 19.9596 65.8105 19.3598L65.8704 18.7004L66.5051 18.7092C66.5813 18.7103 66.666 18.703 66.7594 18.6874C66.8527 18.6717 66.9544 18.6647 67.0644 18.6662L67.2169 18.6557C67.6823 18.6621 68.2747 18.6746 68.9939 18.6931C69.7132 18.7031 70.3309 18.7159 70.847 18.7315L71.9387 18.7467L72.4847 18.7416C72.7048 18.7447 72.895 18.7642 73.0553 18.8003C73.2242 18.8281 73.4229 18.8435 73.6514 18.8467C73.7787 21.8618 73.8212 24.8926 73.7788 27.9392L73.7577 29.4625C73.7572 30.1058 73.7665 30.9566 73.7856 32.0149C73.8095 33.3441 73.8157 34.4192 73.8043 35.2401C73.7952 35.8917 73.8089 36.4294 73.8453 36.8531L70.9384 36.8127L70.9508 35.0099C70.9544 34.7476 70.9481 34.2904 70.9317 33.6384C70.8944 32.0636 70.8774 31.1534 70.8808 30.908C70.884 30.6795 70.8955 30.4596 70.9154 30.2482C70.9449 29.9524 70.9618 29.6479 70.9662 29.3348L70.9597 28.8903C70.9646 28.5349 70.9908 28.1755 71.0382 27.8122C71.0855 27.4489 71.1114 27.1107 71.1158 26.7976L70.8704 21.614L70.8579 21.6011L70.6804 21.5859C70.3169 21.547 70.0041 21.5257 69.7417 21.5221L69.5894 21.52C69.3098 21.5415 68.9498 21.5576 68.5095 21.5684C68.4223 22.3629 68.3701 22.7642 68.3531 22.7724L68.0193 25.7769C67.9109 26.8757 67.7554 28.012 67.5529 29.1858C67.4726 29.4809 67.3865 29.8944 67.2944 30.4264C67.1531 31.4571 66.9194 32.4357 66.5934 33.3623C66.0426 34.6243 65.4251 35.5044 64.741 36.0028C64.3816 36.2856 64.0062 36.4962 63.615 36.6346C63.2322 36.7648 62.9605 36.8287 62.7997 36.8265C62.5867 36.9251 62.04 36.9809 61.1595 36.9941C61.0749 36.9929 61.0114 36.9963 60.9689 37.0041ZM82.6672 37.0139L82.2356 37.0079C81.8886 37.0031 81.2203 36.9768 80.2306 36.9292L80.231 36.9038L79.0122 36.8996L78.1361 36.9001C77.5099 36.8914 76.9474 36.8582 76.4488 36.8004C76.4203 36.4191 76.3935 35.6062 76.3685 34.3616C76.3167 31.9993 76.3034 29.9127 76.3286 28.1016C76.3612 25.7575 76.4517 24.4256 76.6 24.106C76.5364 23.8089 76.5093 23.3218 76.5187 22.6448C76.5352 21.46 76.5984 20.2632 76.7083 19.0543C76.9312 18.8542 77.7916 18.7646 79.2895 18.7855C79.9157 18.7942 80.5841 18.8162 81.2946 18.8514C81.599 18.8726 81.9205 18.8855 82.259 18.8902C82.5467 18.8942 82.8515 18.89 83.1733 18.8776C83.5037 18.8568 83.8255 18.8485 84.1386 18.8529C85.0187 18.8651 85.8171 18.9736 86.5337 19.1782C86.6219 19.535 86.6625 19.9587 86.6557 20.4496C86.6527 20.6696 86.6329 20.8725 86.5965 21.0582C86.533 21.362 86.3955 21.5125 86.1839 21.5095L83.5691 21.4605L80.9672 21.3989C80.1463 21.3875 79.5961 21.3883 79.3166 21.4013L79.2905 22.3659L79.2793 23.1656L79.2555 23.9652C79.212 24.6586 79.1858 25.327 79.1769 25.9701C79.1731 26.2409 79.1785 26.4611 79.1931 26.6306C79.319 26.7085 80.1012 26.7575 81.5399 26.7775C82.42 26.7897 83.2745 26.8185 84.1034 26.8639C84.9323 26.9093 85.5064 27.0104 85.8259 27.1672C85.9537 27.7192 86.0151 28.1686 86.0103 28.5156C86.005 28.8964 85.9168 29.1534 85.7456 29.2864C85.4633 29.5026 84.7382 29.6025 83.5704 29.5863L82.9485 29.5649L81.5774 29.5585L79.2022 29.6271L79.0468 33.4974C79.8318 33.6522 81.3837 33.7457 83.7025 33.778C85.3612 33.801 86.2491 33.8599 86.3663 33.9547C86.4974 34.2697 86.5557 34.6387 86.5414 35.0617C86.5354 35.4933 86.4919 35.8821 86.4109 36.228C86.3384 36.574 86.1873 36.7835 85.9578 36.8565C85.7708 36.9131 85.5588 36.9398 85.3218 36.9365L84.7506 36.9286L82.6672 37.0139Z" fill="white"/>
</svg>
