<svg width="1527" height="615" viewBox="0 0 1527 615" fill="none" xmlns="http://www.w3.org/2000/svg">
<path fill-rule="evenodd" clip-rule="evenodd" d="M1441.17 56.2337C1436.92 59.7265 1439.94 68.7493 1440.56 74.4203C1439.57 122.056 1367.39 -4.23931 1422.01 17.6984L1427.72 16.3148L1433.11 13.9568C1463.3 -36.5632 1482.29 107.659 1452.68 70.3354C1449.73 65.448 1446.68 56.4371 1441.17 56.2337L1441.17 56.2337Z" fill="#FFF9F4"/>
<path fill-rule="evenodd" clip-rule="evenodd" d="M84.8399 593.75C86.5759 596.261 83.5889 600.609 82.395 603.538C75.6498 629.077 133.393 572.777 100.937 576.136L98.1017 574.527L95.5904 572.448C87.2061 540.914 55.0784 614.885 76.5582 599.511C78.8717 597.355 81.8758 593.019 84.8399 593.75L84.8399 593.75Z" fill="#FFF9F4"/>
<path fill-rule="evenodd" clip-rule="evenodd" d="M316.002 108.24C318.871 110.635 316.768 116.741 316.316 120.587C316.705 152.922 366.431 67.6275 329.236 82.198L325.366 81.2256L321.723 79.5938C301.525 45.13 287.796 142.902 308.114 117.744C310.139 114.444 312.266 108.346 316.002 108.24L316.002 108.24Z" fill="#FFF9F4"/>
<path fill-rule="evenodd" clip-rule="evenodd" d="M30.1987 345.199C27.6322 346.355 24.1858 342.922 21.7284 341.352C-0.31236 330.983 41.1392 392.726 43.4949 362.73L45.4266 360.427L47.7301 358.495C77.7263 356.139 15.9834 314.688 26.352 336.728C27.9225 339.186 31.3554 342.632 30.1987 345.199L30.1987 345.199Z" fill="#FFF9F4"/>
<path fill-rule="evenodd" clip-rule="evenodd" d="M50.8063 173.228C55.354 178.793 49.166 189.559 46.9173 196.657C35.9124 257.858 160.776 114.846 85.2517 128.857L78.2952 125.616L72.0099 121.212C46.3811 48.8003 -15.039 228.441 32.4608 188.31C37.4824 182.814 43.7127 172.071 50.8062 173.228L50.8063 173.228Z" fill="#FFF9F4"/>
<path fill-rule="evenodd" clip-rule="evenodd" d="M1412.2 567.915C1410.46 570.426 1413.45 574.774 1414.64 577.703C1421.39 603.241 1363.65 546.942 1396.1 550.301L1398.94 548.692L1401.45 546.613C1409.83 515.079 1441.96 589.05 1420.48 573.676C1418.17 571.52 1415.16 567.183 1412.2 567.915L1412.2 567.915Z" fill="#FFF9F4"/>
<path fill-rule="evenodd" clip-rule="evenodd" d="M1480.43 352.992C1484.17 356.795 1480.33 365.177 1479.15 370.578C1475.21 416.573 1557.72 302.311 1502.85 317.835L1497.49 315.915L1492.54 313.089C1468.64 261.314 1435.53 398.313 1467.9 365.397C1471.23 360.99 1475.1 352.623 1480.43 352.992L1480.43 352.992Z" fill="#FFF9F4"/>
<path fill-rule="evenodd" clip-rule="evenodd" d="M1253.81 222.228C1258.35 227.793 1252.17 238.559 1249.92 245.657C1238.91 306.858 1363.78 163.846 1288.25 177.857L1281.3 174.616L1275.01 170.212C1249.38 97.8003 1187.96 277.441 1235.46 237.31C1240.48 231.814 1246.71 221.071 1253.81 222.228L1253.81 222.228Z" fill="#FFF9F4"/>
</svg>
