<svg width="756" height="241" viewBox="0 0 756 241" fill="none" xmlns="http://www.w3.org/2000/svg">
<path fill-rule="evenodd" clip-rule="evenodd" d="M277.175 56.2337C272.918 59.7265 275.939 68.7493 276.556 74.4203C275.573 122.056 203.392 -4.23931 258.006 17.6984L263.722 16.3148L269.109 13.9568C299.303 -36.5632 318.292 107.659 288.676 70.3354C285.735 65.448 282.678 56.4371 277.175 56.2337L277.175 56.2337Z" fill="#FFDDF6"/>
<path fill-rule="evenodd" clip-rule="evenodd" d="M729.246 53.1806C726.316 55.7635 728.685 62.083 729.265 66.0872C729.768 99.8772 675.423 12.1744 714.688 26.3487L718.704 25.224L722.463 23.4168C742.593 -13.1535 759.685 88.5962 737.753 62.8865C735.545 59.4962 733.152 53.1861 729.246 53.1806L729.246 53.1806Z" fill="#FEE6D9"/>
<path d="M209 221.491C209 234.019 197.663 241 185.33 241C172.998 241 163 230.843 163 218.315C163 205.786 179.25 192 191.583 192C203.915 192 209 208.962 209 221.491Z" fill="#FCEFE8"/>
<path fill-rule="evenodd" clip-rule="evenodd" d="M25.002 101.24C27.8708 103.636 25.7678 109.742 25.3163 113.587C25.7052 145.923 75.4308 60.628 38.2365 75.1985L34.3656 74.2261L30.7233 72.5943C10.5252 38.1305 -3.20364 135.903 17.1139 110.744C19.1388 107.444 21.2658 101.346 25.002 101.24L25.002 101.24Z" fill="#F3D78D"/>
<path d="M470.619 117.444C471.044 117.214 471.481 117.149 471.929 117.25C472.377 117.321 472.717 117.524 472.949 117.859C473.212 118.166 473.248 118.557 473.057 119.032C473.121 118.854 473.043 118.972 472.823 119.387C472.634 119.772 472.382 120.277 472.067 120.899C471.782 121.523 471.513 122.116 471.259 122.68C471.036 123.215 470.894 123.527 470.832 123.616L470.829 123.751C471.308 123.762 471.59 123.919 471.673 124.221C471.786 124.494 471.824 124.81 471.785 125.169C471.424 125.22 471.166 125.319 471.013 125.465C470.86 125.582 470.663 125.652 470.423 125.676C470.333 125.674 470.227 125.717 470.104 125.804C469.982 125.891 469.905 125.994 469.872 126.113C469.84 126.203 469.741 126.56 469.576 127.187C469.442 127.784 469.276 128.44 469.079 129.155C468.913 129.842 468.766 130.363 468.637 130.72C468.571 130.959 468.447 131.151 468.263 131.297C468.08 131.412 467.959 131.484 467.898 131.513C467.304 131.259 466.902 131.099 466.694 131.034C466.516 130.94 466.339 130.816 466.163 130.661C466.137 130.481 466.142 130.271 466.178 130.032C466.214 129.762 466.297 129.449 466.425 129.092C466.586 128.646 466.716 128.229 466.815 127.841C466.945 127.424 467.079 126.842 467.217 126.095C467.098 126.032 466.843 126.026 466.452 126.077C466.091 126.098 465.7 126.134 465.279 126.184C464.858 126.234 464.496 126.285 464.195 126.338C463.924 126.392 463.803 126.404 463.834 126.375C463.683 126.431 463.397 126.469 462.976 126.489C462.586 126.48 462.182 126.455 461.763 126.415C461.374 126.346 461.091 126.279 460.912 126.215L460.639 126.344C460.602 126.643 460.456 127.089 460.202 127.684C459.948 128.248 459.816 128.785 459.803 129.295C459.764 129.684 459.695 130.072 459.596 130.46C459.496 130.848 459.427 131.251 459.387 131.67C459.341 132.329 459.151 132.73 458.818 132.872C458.514 133.015 458.052 132.899 457.431 132.524C457.283 132.43 457.136 132.322 456.988 132.198C456.871 132.076 456.74 131.937 456.593 131.784L457.396 128.337C457.525 127.92 457.64 127.533 457.738 127.175C457.838 126.787 457.951 126.415 458.08 126.058C458.336 125.404 458.577 124.734 458.803 124.049C459.059 123.365 459.345 122.727 459.659 122.134C459.659 122.134 459.707 121.985 459.805 121.687C459.932 121.36 460.076 121.004 460.235 120.617C460.395 120.201 460.523 119.874 460.619 119.636C460.714 119.398 460.73 119.354 460.667 119.502C460.761 119.325 460.904 118.983 461.096 118.477C461.289 117.942 461.466 117.436 461.628 116.96C461.82 116.454 461.916 116.186 461.917 116.156C461.981 115.978 462.074 115.86 462.195 115.803C462.317 115.716 462.468 115.674 462.648 115.678C463.159 115.661 463.576 115.791 463.899 116.068C464.224 116.316 464.396 116.62 464.418 116.981C464.384 117.16 464.365 117.325 464.361 117.475C464.358 117.625 464.325 117.744 464.263 117.832L461.787 123.49L461.779 123.85C462.074 124.037 462.508 124.078 463.081 123.971C463.684 123.835 464.136 123.771 464.436 123.778C464.587 123.752 464.932 123.73 465.473 123.713C466.043 123.697 466.584 123.694 467.094 123.707C467.633 123.719 467.918 123.741 467.947 123.772C468.299 122.88 468.618 122.047 468.907 121.274C469.196 120.471 469.591 119.655 470.091 118.827C470.122 118.767 470.187 118.574 470.284 118.246C470.412 117.919 470.524 117.652 470.619 117.444ZM482.877 132.14C482.234 132.665 481.492 132.962 480.65 133.032C479.838 133.103 479.046 132.964 478.274 132.615C477.503 132.237 476.871 131.682 476.379 130.95C475.884 130.278 475.572 129.52 475.442 128.677C475.313 127.803 475.325 126.678 475.478 125.302C475.596 124.134 475.998 122.973 476.686 121.819C477.374 120.635 478.195 119.59 479.146 118.682C480.128 117.775 481.088 117.153 482.027 116.815C482.484 116.526 482.862 116.4 483.161 116.437C483.491 116.445 483.985 116.487 484.644 116.562C485.331 116.669 485.838 116.816 486.163 117.004C486.519 117.192 486.798 117.439 487.001 117.744C487.44 118.204 487.729 118.661 487.869 119.115C488.009 119.538 488.074 119.96 488.064 120.38C487.928 121.037 487.459 121.836 486.656 122.777C485.884 123.689 484.876 124.43 483.632 125.001C482.968 125.195 482.246 125.268 481.467 125.219C480.687 125.171 480.047 124.96 479.546 124.588C478.982 124.335 478.606 124.371 478.418 124.696C478.231 124.992 478.048 125.738 477.87 126.934C477.723 128.071 477.793 128.913 478.08 129.46C478.367 129.977 478.765 130.286 479.273 130.388C479.87 130.523 480.333 130.624 480.661 130.692C481.02 130.73 481.458 130.606 481.975 130.318C482.462 130.029 482.766 129.871 482.887 129.844C483.008 129.787 483.1 129.729 483.161 129.671C483.253 129.583 483.453 129.393 483.76 129.1C483.975 128.895 484.143 128.749 484.265 128.662C484.388 128.545 484.525 128.488 484.675 128.492C484.824 128.495 484.958 128.573 485.074 128.726C485.191 128.849 485.309 128.942 485.427 129.005C485.727 129.012 485.783 129.193 485.595 129.549C485.436 129.905 485.111 130.332 484.619 130.831C484.127 131.299 483.547 131.736 482.877 132.14ZM483.059 122.601C483.393 122.459 483.743 122.258 484.109 121.996C484.476 121.705 484.783 121.397 485.031 121.073C485.31 120.719 485.452 120.423 485.458 120.183C485.468 119.763 485.281 119.413 484.897 119.134C484.515 118.825 483.931 118.766 483.146 118.957C482.814 119.04 482.434 119.256 482.005 119.605C481.578 119.925 481.164 120.291 480.764 120.701C480.394 121.113 480.085 121.48 479.837 121.804C479.62 122.129 479.54 122.323 479.598 122.384C479.685 122.536 479.937 122.662 480.355 122.762C480.773 122.832 481.238 122.858 481.748 122.84C482.289 122.823 482.726 122.743 483.059 122.601ZM504.295 133.19C503.636 133.174 503.141 133.133 502.813 133.065C502.485 132.997 502.232 132.901 502.055 132.777C501.878 132.652 501.672 132.482 501.437 132.267C501.322 132.024 501.178 131.765 501.005 131.491C500.831 131.217 500.686 131.018 500.569 130.896C500.46 130.443 500.414 129.857 500.431 129.137C500.478 128.418 500.587 127.64 500.756 126.804C500.956 125.968 501.215 125.194 501.532 124.482C501.658 124.245 501.768 124.007 501.864 123.769C501.96 123.532 502.008 123.413 502.008 123.413C502.011 123.263 502.2 122.907 502.573 122.346C502.977 121.785 503.411 121.196 503.876 120.576C504.37 119.958 504.771 119.517 505.077 119.255C505.293 119.02 505.614 118.772 506.04 118.512C506.497 118.253 506.891 118.068 507.224 117.955C507.557 117.843 507.889 117.746 508.221 117.664C508.583 117.583 508.989 117.547 509.439 117.558C509.859 117.568 510.247 117.667 510.602 117.856C510.958 118.044 511.295 118.367 511.615 118.825C512.142 119.378 512.429 119.925 512.476 120.466C512.554 120.978 512.526 121.503 512.393 122.04C512.229 122.636 512.023 123.096 511.775 123.42C511.528 123.715 511.255 123.843 510.956 123.806C510.657 123.769 510.317 123.536 509.937 123.106C509.823 122.864 509.768 122.667 509.771 122.517C509.775 122.337 509.841 122.084 509.969 121.757C510.099 121.34 510.11 120.905 510 120.452C509.891 120 509.701 119.77 509.432 119.764C509.042 119.754 508.603 119.924 508.114 120.272C507.656 120.591 507.181 121 506.689 121.499C506.474 121.734 506.165 122.101 505.763 122.602C505.392 123.073 505.019 123.605 504.645 124.196C504.271 124.757 503.958 125.305 503.705 125.839C503.352 126.821 503.063 127.609 502.839 128.204C502.644 128.799 502.547 129.097 502.547 129.097C502.545 129.217 502.572 129.338 502.629 129.459C502.717 129.551 502.759 129.657 502.756 129.777C502.748 130.137 502.951 130.427 503.366 130.647C503.691 130.865 504.078 130.994 504.527 131.035C504.977 131.046 505.535 130.909 506.202 130.625C506.688 130.396 507.145 130.092 507.574 129.712C508.033 129.333 508.506 128.999 508.993 128.711C509.328 128.509 509.588 128.335 509.771 128.189C509.985 128.044 510.09 128.032 510.087 128.151C510.084 128.271 510.128 128.333 510.218 128.335C510.308 128.337 510.414 128.279 510.537 128.162C510.723 127.927 510.921 127.781 511.132 127.726C511.345 127.641 511.525 127.616 511.674 127.649C511.854 127.653 511.943 127.701 511.941 127.791C511.875 128.059 511.929 128.285 512.105 128.47C512.102 128.59 512.053 128.753 511.958 128.961C511.894 129.14 511.8 129.288 511.678 129.405C511.523 129.611 511.292 129.846 510.986 130.108C510.709 130.372 510.449 130.606 510.204 130.81C509.96 130.984 509.837 131.071 509.837 131.071C509.718 131.039 509.598 131.066 509.475 131.153C509.383 131.241 509.276 131.343 509.153 131.46C508.908 131.664 508.679 131.824 508.466 131.939C508.254 132.024 508.088 132.065 507.968 132.062C507.756 132.177 507.589 132.248 507.468 132.275C507.377 132.303 507.331 132.377 507.328 132.497C507.021 132.79 506.641 132.991 506.188 133.1C505.766 133.18 505.135 133.21 504.295 133.19ZM517.036 132.323C516.711 132.105 516.418 131.828 516.156 131.492C515.894 131.126 515.77 130.673 515.783 130.133C515.79 129.833 515.862 129.324 515.999 128.607C516.136 127.89 516.321 127.085 516.552 126.19C516.783 125.295 517.013 124.46 517.242 123.686C517.555 123.153 517.822 122.619 518.045 122.084C518.268 121.549 518.381 121.222 518.384 121.102C518.452 120.744 518.537 120.325 518.639 119.848C518.77 119.371 518.9 118.939 519.03 118.552C519.159 118.165 519.254 117.942 519.315 117.883C519.469 117.737 519.651 117.651 519.862 117.626C520.073 117.571 520.282 117.606 520.489 117.731C520.727 117.827 520.903 118.026 521.015 118.329C521.337 118.697 521.491 119.135 521.479 119.645C521.468 120.125 521.286 120.841 520.933 121.793C520.649 122.386 520.362 123.085 520.073 123.888C519.784 124.691 519.526 125.435 519.299 126.12C519.104 126.776 518.988 127.223 518.952 127.462L518.046 127.711C518.567 127.243 519.059 126.76 519.521 126.261C519.984 125.731 520.324 125.319 520.541 125.025C521.067 124.347 521.516 123.787 521.886 123.346C522.287 122.875 522.796 122.317 523.411 121.672C524.028 120.996 524.623 120.59 525.196 120.454C525.8 120.288 526.267 120.209 526.597 120.217C527.254 120.353 527.771 120.71 528.147 121.29C528.554 121.839 528.805 122.656 528.899 123.738C528.889 124.158 528.832 124.652 528.728 125.22C528.655 125.788 528.618 126.072 528.618 126.072C528.618 126.072 528.866 125.763 529.36 125.145C529.885 124.527 530.577 123.853 531.434 123.123C532.014 122.717 532.575 122.49 533.116 122.443C533.658 122.366 534.133 122.557 534.543 123.017C535.312 123.456 535.807 124.113 536.026 124.988C536.246 125.834 536.28 126.915 536.129 128.232C536.02 129.009 535.991 129.594 536.042 129.985C536.094 130.346 536.175 130.708 536.286 131.071C536.523 131.197 536.562 131.453 536.403 131.839C536.245 132.195 536.06 132.371 535.85 132.366C535.55 132.359 535.207 132.291 534.82 132.162C534.463 132.033 534.138 131.83 533.844 131.553C533.581 131.247 533.456 130.839 533.468 130.329L533.535 127.54C533.55 126.88 533.533 126.339 533.483 125.918C533.463 125.497 533.394 125.241 533.276 125.148C532.951 124.96 532.466 125.143 531.823 125.698C531.18 126.253 530.487 127.002 529.744 127.944C529.001 128.887 528.303 129.861 527.649 130.865C527.057 131.782 526.684 132.313 526.53 132.459C526.408 132.576 526.184 132.526 525.859 132.308C525.204 132.083 524.791 131.788 524.62 131.423C524.479 131.03 524.474 130.595 524.606 130.118C524.768 129.611 524.964 128.926 525.195 128.061C525.455 127.197 525.7 126.363 525.93 125.558C526.16 124.723 526.309 124.127 526.377 123.768C526.263 123.525 526.055 123.445 525.753 123.528C525.482 123.582 525.193 123.71 524.889 123.913C524.523 124.144 524.077 124.584 523.552 125.231C523.026 125.879 522.483 126.631 521.923 127.488C521.549 128.049 521.161 128.61 520.757 129.171C520.354 129.701 519.983 130.173 519.643 130.585C519.303 130.997 519.011 131.305 518.766 131.509C518.33 132.159 518.037 132.512 517.885 132.568C517.734 132.625 517.451 132.543 517.036 132.323ZM537.598 145.101C537.478 145.098 537.328 145.095 537.148 145.091C536.968 145.116 536.806 144.992 536.662 144.719C536.546 144.566 536.476 144.339 536.453 144.039C536.46 143.739 536.548 143.201 536.717 142.425C536.879 141.918 537.011 141.411 537.113 140.904C537.214 140.426 537.268 140.067 537.274 139.827C537.277 139.707 537.312 139.468 537.381 139.109C537.479 138.782 537.529 138.543 537.533 138.393C537.689 138.157 537.816 137.829 537.916 137.412C538.016 136.994 538.07 136.62 538.078 136.29C538.087 135.93 538.275 135.605 538.642 135.313C538.647 135.073 538.699 134.775 538.798 134.417C538.927 134.06 538.992 133.821 538.995 133.701C539.095 133.284 539.308 132.553 539.632 131.511C539.988 130.439 540.407 129.234 540.889 127.895C541.401 126.557 541.897 125.248 542.378 123.969C542.858 122.69 543.289 121.605 543.671 120.714C544.051 119.883 544.308 119.169 544.442 118.572C544.607 117.946 544.693 117.482 544.7 117.183C544.703 117.063 544.735 116.973 544.796 116.915C544.859 116.826 544.997 116.664 545.213 116.43C545.52 116.137 545.777 116.053 545.984 116.178C546.221 116.303 546.502 116.49 546.826 116.738C547.057 117.134 547.214 117.467 547.298 117.74C547.411 118.012 547.4 118.477 547.264 119.134C547.254 119.584 547.169 119.972 547.012 120.298C546.854 120.625 546.713 120.876 546.588 121.054C546.465 121.201 546.433 121.26 546.494 121.231C547.737 120.691 548.824 120.417 549.755 120.409C550.716 120.372 551.507 120.556 552.127 120.96C552.778 121.336 553.261 121.858 553.575 122.525C553.89 123.193 554.036 123.962 554.016 124.831C554.007 125.191 553.922 125.624 553.76 126.131C553.598 126.607 553.393 127.052 553.143 127.466C552.923 127.851 552.722 128.132 552.537 128.307C552.417 128.304 552.295 128.407 552.17 128.614C552.046 128.791 551.921 128.998 551.795 129.235C551.548 129.529 551.15 129.865 550.601 130.242C550.082 130.589 549.565 130.877 549.05 131.105C548.535 131.303 548.159 131.354 547.921 131.258C547.921 131.258 547.875 131.272 547.785 131.3C547.725 131.299 547.693 131.373 547.689 131.523C547.688 131.583 547.445 131.712 546.96 131.911C546.476 132.079 545.917 132.246 545.283 132.411C544.649 132.546 544.093 132.607 543.613 132.596C542.983 132.581 542.536 132.45 542.272 132.204C542.21 132.263 542.133 132.351 542.04 132.469C541.977 132.587 541.945 132.691 541.943 132.781C541.939 132.961 541.855 133.304 541.693 133.811C541.562 134.288 541.401 134.749 541.21 135.195C541.02 135.64 540.849 135.861 540.699 135.858C540.699 135.858 540.668 135.902 540.606 135.99C540.544 136.079 540.571 136.2 540.687 136.352C540.687 136.352 540.669 136.517 540.631 136.846C540.622 137.206 540.54 137.504 540.384 137.741C540.379 137.981 540.325 138.339 540.224 138.817C540.122 139.295 540.009 139.652 539.883 139.889C539.874 140.249 539.806 140.593 539.678 140.92C539.58 141.277 539.471 141.455 539.351 141.452C539.23 141.479 539.151 141.657 539.113 141.987C539.074 142.346 539.053 142.6 539.05 142.75C539.002 143.499 538.838 144.081 538.558 144.494C538.278 144.907 537.958 145.11 537.598 145.101ZM543.4 130.205C543.64 130.211 544.137 130.118 544.892 129.926C545.646 129.734 546.417 129.497 547.204 129.216C548.022 128.905 548.63 128.589 549.027 128.269C549.824 127.597 550.442 126.832 550.883 125.972C551.354 125.083 551.344 124.228 550.854 123.406C550.624 122.98 550.193 122.805 549.561 122.88C548.93 122.925 548.234 123.148 547.474 123.55C546.714 123.952 545.997 124.46 545.322 125.075C544.953 125.456 544.612 125.928 544.298 126.491C543.985 127.053 543.716 127.617 543.493 128.182C543.299 128.747 543.183 129.225 543.144 129.614C543.104 130.003 543.19 130.2 543.4 130.205ZM560 134.247C559.759 134.301 559.443 134.323 559.053 134.314C558.664 134.275 558.32 134.222 558.022 134.155C557.754 134.058 557.621 133.965 557.623 133.875C557.627 133.725 557.553 133.648 557.404 133.645C557.404 133.645 557.33 133.583 557.183 133.459C557.066 133.337 556.874 133.212 556.607 133.086C556.347 132.659 556.222 132.206 556.234 131.726C556.246 131.216 556.4 130.425 556.696 129.352C556.803 128.604 557.109 127.741 557.612 126.763C558.147 125.755 558.786 124.735 559.531 123.702C560.276 122.67 561.048 121.743 561.848 120.922C562.677 120.101 563.427 119.504 564.096 119.13C564.526 118.72 565.041 118.507 565.642 118.492C566.242 118.476 566.809 118.624 567.342 118.937C567.638 119.094 567.932 119.341 568.224 119.678C568.516 120.015 568.793 120.382 569.053 120.778C569.314 121.175 569.529 121.57 569.7 121.964C569.782 122.296 569.82 122.597 569.814 122.867C569.838 123.108 569.831 123.408 569.792 123.767C569.784 124.127 569.726 124.665 569.619 125.383C569.456 125.919 569.305 126.576 569.167 127.353C569.058 128.131 568.997 128.804 568.983 129.374C568.91 129.943 568.96 130.349 569.135 130.593C569.339 130.838 569.638 130.86 570.033 130.66C570.397 130.488 570.744 130.421 571.073 130.459C571.403 130.467 571.656 130.563 571.832 130.747C572.037 130.932 572.136 131.205 572.127 131.565C572.119 131.925 571.93 132.295 571.561 132.676C571.222 133.028 570.795 133.333 570.278 133.591C569.793 133.82 569.325 133.929 568.875 133.918C568.545 133.91 568.235 133.708 567.944 133.311C567.655 132.884 567.396 132.382 567.17 131.807C566.974 131.202 566.793 130.627 566.626 130.083L566.381 129.042L564.402 130.84C564.002 131.251 563.603 131.632 563.205 131.982C562.837 132.304 562.606 132.538 562.513 132.686C562.356 132.952 562.065 133.216 561.639 133.475C561.242 133.736 560.696 133.993 560 134.247ZM560.198 131.596C560.715 131.308 561.31 130.887 561.984 130.333C562.658 129.749 563.318 129.119 563.964 128.444C564.611 127.74 565.152 127.092 565.586 126.502C566.112 125.825 566.517 125.189 566.802 124.596C567.086 124.002 567.294 123.437 567.427 122.9C567.315 122.568 567.128 122.218 566.867 121.852C566.606 121.455 566.371 121.24 566.162 121.205C565.502 121.189 564.788 121.592 564.018 122.414C563.279 123.207 562.553 124.075 561.84 125.018C561.717 125.165 561.546 125.401 561.328 125.726C561.11 126.051 560.893 126.361 560.676 126.656C560.489 126.921 560.365 127.098 560.303 127.187C560.21 127.305 560.022 127.645 559.739 128.209C559.486 128.743 559.233 129.292 558.979 129.856C558.726 130.39 558.598 130.747 558.594 130.927C558.589 131.107 558.6 131.302 558.625 131.513C558.68 131.724 558.826 131.863 559.065 131.929C559.303 131.994 559.681 131.883 560.198 131.596ZM576.617 134.642C576.11 134.48 575.637 134.199 575.196 133.798C574.786 133.398 574.542 132.943 574.464 132.431C574.439 132.22 574.383 132.038 574.297 131.886C574.241 131.705 574.231 131.51 574.266 131.3C574.43 130.704 574.609 130.123 574.802 129.558C574.997 128.962 575.19 128.382 575.384 127.816C575.608 127.221 575.847 126.642 576.101 126.078C576.384 125.514 576.682 124.966 576.995 124.434C577.026 124.374 577.058 124.3 577.09 124.211C577.122 124.121 577.154 124.047 577.186 123.988C577.348 123.452 577.54 122.946 577.762 122.471C577.984 121.966 578.251 121.463 578.563 120.96C578.719 120.724 578.877 120.367 579.039 119.891C579.2 119.415 579.342 119.118 579.465 119.001C579.743 118.677 580.016 118.564 580.283 118.66C580.551 118.757 580.801 118.973 581.033 119.308C581.266 119.614 581.453 119.948 581.594 120.312C581.766 120.676 581.879 120.964 581.934 121.175C581.47 121.764 580.987 122.518 580.485 123.436C580.013 124.355 579.539 125.334 579.064 126.373C578.59 127.382 578.161 128.392 577.777 129.404C577.393 130.385 577.103 131.248 576.905 131.994C577.139 132.239 577.511 132.368 578.021 132.38C578.532 132.362 578.938 132.297 579.241 132.184C579.752 132.166 580.338 132.105 581.001 132.001C581.694 131.868 582.28 131.836 582.759 131.908C582.884 131.671 582.92 131.432 582.866 131.19C582.842 130.92 582.893 130.681 583.018 130.474C583.298 130.06 583.517 129.66 583.677 129.274C583.836 128.888 583.981 128.456 584.113 127.979C584.177 127.77 584.307 127.368 584.501 126.773C584.696 126.177 584.906 125.522 585.133 124.807C585.39 124.093 585.615 123.468 585.808 122.933C586.032 122.368 586.19 122.027 586.283 121.909C586.405 121.822 586.527 121.75 586.648 121.693C586.799 121.636 586.935 121.594 587.056 121.567C587.412 121.726 587.634 121.851 587.722 121.943C587.81 122.035 587.882 122.157 587.939 122.308C588.026 122.431 588.17 122.659 588.372 122.994C588.367 123.204 588.377 123.444 588.4 123.715C588.425 123.956 588.404 124.195 588.338 124.434C588.277 124.462 588.167 124.67 588.008 125.056C587.849 125.442 587.673 125.888 587.481 126.394C587.32 126.87 587.159 127.316 586.999 127.733C586.87 128.12 586.804 128.358 586.802 128.448C586.522 128.862 586.301 129.336 586.138 129.873C586.006 130.38 585.8 130.84 585.52 131.253C585.489 131.313 585.472 131.387 585.47 131.477C585.468 131.537 585.452 131.597 585.42 131.656C585.812 131.605 586.188 131.554 586.549 131.503C586.941 131.422 587.318 131.356 587.679 131.305C588.071 131.254 588.446 131.248 588.805 131.287C589.111 131.054 589.356 130.82 589.542 130.584C589.728 130.318 589.826 129.991 589.836 129.601C589.898 129.512 590.04 129.215 590.262 128.711C590.484 128.206 590.722 127.641 590.977 127.017C591.233 126.363 591.457 125.783 591.649 125.278C591.841 124.772 591.938 124.474 591.94 124.384C592.219 124.031 592.408 123.645 592.508 123.228C592.639 122.781 592.769 122.348 592.899 121.931C593.05 121.875 593.217 121.819 593.398 121.763C593.58 121.678 593.732 121.591 593.854 121.504C594.536 121.85 595.065 122.328 595.441 122.937C595.466 123.118 595.477 123.313 595.472 123.523C595.468 123.703 595.478 123.883 595.504 124.064C595.254 124.478 595.034 124.908 594.843 125.354C594.653 125.769 594.477 126.23 594.315 126.737C594.151 127.303 593.91 128.002 593.59 128.835C593.301 129.638 592.981 130.441 592.632 131.243C592.283 132.045 591.951 132.742 591.637 133.335C591.605 133.424 591.558 133.513 591.496 133.601C591.464 133.691 591.416 133.78 591.354 133.868C591.292 133.957 591.215 134.06 591.122 134.178C591.03 134.265 590.908 134.323 590.758 134.349C590.456 134.402 590.173 134.35 589.906 134.194C589.671 134.008 589.435 133.837 589.198 133.682C589.109 133.65 588.943 133.691 588.7 133.805C588.458 133.889 588.291 133.96 588.2 134.018C587.721 133.947 587.407 133.939 587.255 133.996C587.134 134.053 586.893 134.077 586.533 134.068C585.933 134.054 585.167 134.096 584.235 134.194C583.332 134.292 582.399 134.405 581.436 134.532C580.413 134.628 579.451 134.71 578.549 134.778C577.678 134.818 577.034 134.772 576.617 134.642ZM599.829 135.465C599.62 135.4 599.337 135.334 598.978 135.265C598.62 135.196 598.292 135.084 597.996 134.927C597.73 134.74 597.601 134.512 597.607 134.242C597.613 134.002 597.633 133.793 597.667 133.613C597.732 133.405 597.856 133.228 598.04 133.082C598.071 133.023 598.087 132.978 598.088 132.948C598.089 132.918 598.105 132.889 598.135 132.859C598.139 132.709 598.112 132.574 598.055 132.452C597.998 132.331 598.001 132.181 598.066 132.002C598.193 131.675 598.29 131.408 598.355 131.199C598.45 130.961 598.503 130.662 598.511 130.302C598.513 130.242 598.514 130.183 598.515 130.123C598.518 130.033 598.534 129.958 598.566 129.899C598.821 129.245 599.032 128.574 599.199 127.888C599.365 127.202 599.606 126.547 599.921 125.925C600.299 125.154 600.788 124.145 601.388 122.899C601.989 121.623 602.497 120.45 602.913 119.379C603.04 119.052 603.18 118.845 603.332 118.759C603.515 118.643 603.711 118.603 603.92 118.638C604.28 118.677 604.635 118.895 604.985 119.293C605.336 119.662 605.599 119.983 605.772 120.258C605.459 120.82 605.083 121.486 604.645 122.256C604.237 122.997 603.844 123.723 603.467 124.434C603.121 125.116 602.867 125.68 602.707 126.126C603.126 126.166 603.621 126.178 604.191 126.162C604.793 126.116 605.377 126.13 605.946 126.203C606.604 126.279 607.189 126.293 607.7 126.245C608.212 126.197 608.783 126.136 609.415 126.061C609.576 125.615 609.738 125.108 609.902 124.542C610.095 123.976 610.289 123.396 610.483 122.8C610.707 122.206 610.976 121.657 611.288 121.154C611.6 120.651 611.984 120.27 612.44 120.011C612.682 119.957 612.861 119.961 612.98 120.024C613.099 120.057 613.262 120.151 613.468 120.306C613.851 120.615 614.13 120.862 614.306 121.046C614.512 121.201 614.583 121.383 614.518 121.591C614.453 121.8 614.25 122.14 613.909 122.612C613.691 122.937 613.532 123.323 613.431 123.771C613.331 124.189 613.157 124.545 612.91 124.839C612.849 124.897 612.723 125.164 612.531 125.64C612.34 126.116 612.116 126.695 611.86 127.379C611.603 128.064 611.347 128.748 611.09 129.432C610.834 130.116 610.61 130.711 610.418 131.216C610.256 131.723 610.174 132.021 610.171 132.111C610.132 132.5 610.063 132.903 609.963 133.321C609.863 133.709 609.809 134.113 609.799 134.532C609.793 134.772 609.714 134.951 609.561 135.067C609.439 135.154 609.273 135.195 609.063 135.19C608.763 135.183 608.435 135.1 608.078 134.942C607.722 134.783 607.455 134.642 607.278 134.517C607.16 134.425 607.059 134.272 606.974 134.06C606.919 133.849 606.878 133.668 606.852 133.517C607.05 132.771 607.277 132.072 607.532 131.418C607.819 130.734 608.075 130.035 608.302 129.32C608.365 129.202 608.398 129.083 608.401 128.963C608.404 128.843 608.377 128.722 608.319 128.601C607.333 128.427 606.329 128.373 605.307 128.439C604.286 128.504 603.279 128.556 602.288 128.592C602.134 128.738 601.946 129.094 601.722 129.659C601.53 130.194 601.351 130.76 601.187 131.356C601.023 131.923 600.893 132.355 600.796 132.653C600.821 132.863 600.784 133.162 600.684 133.55C600.585 133.938 600.456 134.325 600.297 134.711C600.138 135.068 599.982 135.319 599.829 135.465ZM620.192 136.716C619.802 136.736 619.488 136.699 619.25 136.603C619.013 136.477 618.717 136.305 618.362 136.087C617.714 135.561 617.232 135.04 616.914 134.522C616.627 133.975 616.504 133.447 616.546 132.938C616.613 132.669 616.619 132.429 616.564 132.218C616.539 132.007 616.526 131.902 616.526 131.902C616.35 131.748 616.292 131.656 616.353 131.628C616.414 131.569 616.461 131.48 616.494 131.361C616.735 131.307 616.769 131.142 616.596 130.868C616.511 130.626 616.569 130.087 616.769 129.252C617 128.387 617.289 127.584 617.637 126.842C617.795 126.516 618.015 126.086 618.298 125.552C618.61 125.02 618.953 124.488 619.326 123.956C619.699 123.395 620.04 122.953 620.348 122.63C621.026 121.896 621.624 121.355 622.142 121.007C622.691 120.63 623.298 120.33 623.964 120.106C624.57 119.88 625.008 119.755 625.278 119.732C625.549 119.708 625.92 119.897 626.39 120.298C627.105 120.526 627.638 120.838 627.988 121.237C628.37 121.606 628.656 122.183 628.847 122.968C629.066 123.843 629.117 124.88 628.998 126.077C628.91 127.245 628.364 128.748 627.36 130.584C626.763 131.741 626.172 132.612 625.588 133.198C625.034 133.785 624.359 134.399 623.563 135.04C622.982 135.507 622.448 135.869 621.962 136.127C621.476 136.386 620.886 136.582 620.192 136.716ZM623.919 131.448C624.54 130.562 625.025 129.749 625.372 129.007C625.751 128.235 626.059 127.268 626.297 126.103C626.365 125.774 626.389 125.37 626.371 124.889C626.353 124.379 626.289 123.912 626.179 123.489C626.099 123.067 625.969 122.839 625.79 122.805C625.404 122.646 624.969 122.635 624.486 122.774C624.003 122.882 623.469 123.23 622.885 123.816C622.361 124.404 621.88 125.067 621.443 125.807C621.035 126.548 620.655 127.364 620.304 128.256C619.953 129.148 619.615 130.1 619.291 131.112C618.964 132.245 618.958 133.115 619.273 133.723C619.619 134.331 620.2 134.495 621.017 134.214C621.835 133.904 622.802 132.982 623.919 131.448Z" fill="#4782CD"/>
<path d="M505.373 177.295C505.056 177.013 504.732 176.627 504.402 176.136C504.07 175.615 503.794 175.015 503.573 174.337C503.499 174.101 503.449 173.773 503.424 173.354C503.429 172.933 503.411 172.634 503.37 172.456C503.293 172.671 503.157 172.904 502.961 173.156C502.794 173.377 502.625 173.567 502.455 173.728C502.342 173.855 502.087 174.11 501.689 174.495C501.29 174.849 500.887 175.144 500.48 175.379C499.529 176.067 498.726 176.46 498.071 176.56C497.446 176.657 496.827 176.364 496.215 175.679C495.713 175.318 495.342 174.905 495.104 174.438C494.896 173.97 494.856 173.311 494.986 172.462C494.983 171.41 495.072 170.383 495.252 169.38C495.431 168.348 495.844 166.971 496.493 165.249C497.048 163.983 497.473 163.056 497.769 162.468C498.062 161.849 498.25 161.477 498.333 161.352C498.773 161.175 499.148 161.168 499.459 161.33C499.767 161.461 499.964 161.735 500.049 162.151C500.246 162.44 500.247 162.95 500.05 163.683C499.884 164.415 499.562 165.321 499.086 166.401C498.728 167.444 498.399 168.486 498.101 169.525C497.832 170.563 497.69 171.443 497.673 172.166C497.656 172.888 497.862 173.311 498.29 173.436C498.568 173.57 499.03 173.497 499.674 173.218C500.349 172.937 501.077 172.293 501.858 171.284C502.669 170.274 503.42 168.771 504.112 166.776C504.316 166.163 504.464 165.628 504.557 165.172C504.648 164.686 504.692 164.157 504.688 163.586C504.606 163.23 504.603 162.915 504.676 162.64C504.778 162.334 505.002 162.065 505.349 161.834C505.46 161.677 505.617 161.532 505.819 161.4C506.02 161.237 506.155 161.229 506.224 161.376L506.94 161.288C507.058 161.25 507.137 161.321 507.178 161.499C507.246 161.645 507.359 161.773 507.516 161.884C507.862 162.134 507.987 162.713 507.891 163.62C507.795 164.527 507.451 165.81 506.859 167.468C506.363 168.73 506.029 169.682 505.857 170.323C505.715 170.963 505.647 171.583 505.653 172.184C505.685 172.723 505.821 173.226 506.059 173.692C506.297 174.159 506.653 174.573 507.125 174.936C507.467 175.126 507.661 175.355 507.707 175.622C507.783 175.888 507.817 176.202 507.809 176.563C507.765 176.836 507.599 177.071 507.31 177.269C507.049 177.435 506.739 177.529 506.38 177.55C506.021 177.572 505.685 177.486 505.373 177.295ZM533.68 159.687C534.085 159.423 534.515 159.322 534.97 159.385C535.422 159.418 535.778 159.592 536.038 159.907C536.325 160.19 536.393 160.577 536.242 161.067C536.292 160.883 536.224 161.008 536.039 161.439C535.883 161.84 535.674 162.363 535.412 163.01C535.18 163.655 534.961 164.269 534.756 164.852C534.579 165.404 534.463 165.726 534.408 165.82L534.416 165.954C534.895 165.926 535.189 166.059 535.296 166.353C535.432 166.615 535.496 166.927 535.488 167.288C535.132 167.369 534.884 167.489 534.743 167.648C534.6 167.777 534.41 167.863 534.172 167.908C534.083 167.913 533.98 167.964 533.866 168.061C533.752 168.158 533.683 168.267 533.66 168.389C533.636 168.481 533.567 168.845 533.455 169.483C533.371 170.089 533.261 170.757 533.124 171.487C533.016 172.184 532.912 172.716 532.814 173.083C532.769 173.326 532.66 173.528 532.49 173.688C532.317 173.819 532.202 173.901 532.144 173.934C531.531 173.731 531.117 173.605 530.904 173.558C530.719 173.479 530.532 173.37 530.344 173.231C530.303 173.053 530.29 172.843 530.306 172.602C530.32 172.331 530.376 172.012 530.474 171.645C530.597 171.187 530.692 170.761 530.758 170.366C530.853 169.939 530.938 169.348 531.013 168.593C530.889 168.54 530.635 168.555 530.249 168.638C529.891 168.69 529.505 168.758 529.089 168.843C528.673 168.928 528.318 169.009 528.022 169.087C527.756 169.163 527.637 169.185 527.665 169.153C527.519 169.222 527.237 169.284 526.82 169.339C526.43 169.363 526.025 169.372 525.604 169.367C525.211 169.33 524.923 169.288 524.74 169.238L524.479 169.389C524.467 169.691 524.359 170.148 524.155 170.761C523.949 171.344 523.862 171.891 523.892 172.4C523.886 172.791 523.849 173.184 523.783 173.578C523.716 173.973 523.68 174.381 523.675 174.802C523.685 175.463 523.529 175.878 523.209 176.047C522.919 176.215 522.448 176.138 521.798 175.816C521.643 175.735 521.487 175.639 521.33 175.528C521.203 175.416 521.06 175.289 520.901 175.148L521.413 171.646C521.508 171.22 521.589 170.824 521.657 170.46C521.724 170.065 521.806 169.684 521.905 169.318C522.105 168.645 522.289 167.958 522.458 167.256C522.656 166.553 522.887 165.893 523.15 165.276C523.15 165.276 523.186 165.124 523.258 164.819C523.358 164.482 523.472 164.115 523.598 163.717C523.723 163.289 523.823 162.952 523.898 162.707C523.974 162.462 523.986 162.416 523.935 162.57C524.014 162.385 524.128 162.032 524.278 161.512C524.425 160.962 524.559 160.443 524.68 159.955C524.83 159.436 524.903 159.161 524.901 159.131C524.951 158.947 525.033 158.822 525.149 158.755C525.264 158.658 525.411 158.604 525.591 158.594C526.098 158.533 526.524 158.628 526.87 158.878C527.214 159.098 527.411 159.386 527.463 159.744C527.443 159.925 527.438 160.091 527.447 160.241C527.456 160.39 527.434 160.512 527.379 160.605L525.385 166.45L525.406 166.809C525.716 166.971 526.152 166.975 526.714 166.821C527.304 166.636 527.749 166.534 528.048 166.516C528.196 166.477 528.539 166.426 529.076 166.364C529.643 166.3 530.181 166.253 530.69 166.223C531.23 166.19 531.515 166.188 531.547 166.216C531.822 165.298 532.072 164.442 532.294 163.647C532.516 162.822 532.841 161.976 533.27 161.109C533.296 161.048 533.344 160.849 533.414 160.515C533.514 160.178 533.603 159.902 533.68 159.687ZM543.632 175.231C542.314 175.309 541.206 174.88 540.309 173.942C539.409 172.974 538.93 171.74 538.87 170.241C538.865 169.159 539.006 167.994 539.292 166.745C539.606 165.464 540.043 164.235 540.604 163.06C541.163 161.854 541.791 160.795 542.488 159.881C543.184 158.968 543.926 158.308 544.713 157.9C545.004 157.732 545.311 157.594 545.635 157.484C545.989 157.373 546.346 157.306 546.705 157.285C547.034 157.265 547.382 157.304 547.749 157.403C548.114 157.471 548.419 157.558 548.666 157.663C549.188 157.843 549.592 158.074 549.88 158.357C550.167 158.64 550.435 159.09 550.682 159.707C550.806 160.27 550.875 160.672 550.889 160.911C550.904 161.151 550.85 161.515 550.729 162.003C550.434 163.102 550.026 164.059 549.503 164.871C548.981 165.684 548.257 166.388 547.331 166.985C547.1 167.149 546.823 167.286 546.499 167.395C546.203 167.473 545.89 167.522 545.561 167.542C544.962 167.577 544.372 167.508 543.79 167.332C543.237 167.125 542.782 166.806 542.426 166.377L542.09 166.036L541.976 166.404C541.725 167.23 541.531 167.993 541.392 168.693C541.284 169.39 541.246 170.024 541.28 170.593C541.302 170.952 541.352 171.295 541.432 171.62C541.542 171.944 541.678 172.222 541.842 172.452C541.973 172.625 542.176 172.748 542.451 172.822C542.754 172.864 543.07 172.875 543.399 172.855C543.609 172.843 543.819 172.83 544.028 172.818C544.266 172.773 544.487 172.7 544.691 172.598C545.19 172.387 545.582 172.169 545.869 171.941C546.186 171.712 546.502 171.467 546.817 171.208L546.991 171.107L546.946 171.11C547.295 170.909 547.599 170.71 547.857 170.515C548.146 170.317 548.291 170.218 548.291 170.218C548.41 170.211 548.526 170.129 548.636 169.972C548.869 169.838 549.171 169.865 549.543 170.053C549.945 170.239 550.156 170.497 550.175 170.827C550.154 170.978 550.034 171.226 549.814 171.57C549.592 171.883 549.34 172.184 549.057 172.471C548.803 172.757 548.587 172.92 548.41 172.961C548.381 172.993 548.28 173.059 548.106 173.16C547.93 173.23 547.814 173.297 547.757 173.361L547.802 173.358C547.554 173.733 547.295 173.929 547.026 173.945L546.667 173.967C546.559 174.184 546.184 174.447 545.542 174.756C544.897 175.035 544.261 175.193 543.632 175.231ZM545.062 165.227C545.601 165.195 546.056 165.017 546.427 164.695C546.827 164.34 547.165 163.959 547.441 163.552C547.991 162.708 548.289 161.908 548.334 161.154C548.407 160.369 548.285 159.835 547.968 159.553C547.783 159.474 547.615 159.439 547.466 159.448C547.344 159.425 547.092 159.486 546.71 159.629C546.444 159.705 546.083 159.952 545.627 160.37C545.172 160.788 544.718 161.251 544.268 161.758C543.847 162.264 543.527 162.689 543.307 163.033L542.78 164.011C543.014 163.907 543.236 163.849 543.446 163.836C543.683 163.792 543.819 163.799 543.853 163.857C543.869 164.127 543.929 164.378 544.033 164.613C544.165 164.815 544.31 164.972 544.467 165.082C544.654 165.192 544.852 165.24 545.062 165.227ZM563.55 165.022C563.288 166.18 563.145 167.301 563.12 168.384C563.124 169.466 563.286 170.418 563.606 171.24C563.954 172.031 564.501 172.629 565.246 173.035C565.588 173.225 565.943 173.384 566.312 173.513C566.678 173.611 567.055 173.633 567.443 173.58C567.841 173.706 568.254 173.577 568.682 173.19C569.138 172.772 569.64 172.126 570.189 171.252C570.766 170.346 571.375 169.227 572.016 167.897C572.138 167.409 572.259 166.935 572.382 166.477C572.533 165.987 572.669 165.498 572.79 165.01C572.996 164.427 573.133 163.953 573.201 163.588C573.27 163.223 573.286 162.742 573.25 162.143C573.246 162.083 573.243 162.023 573.239 161.963C573.266 161.901 573.277 161.841 573.273 161.781C573.31 161.388 573.38 161.053 573.484 160.776C573.616 160.468 573.594 160.109 573.419 159.698C573.496 159.483 573.492 159.153 573.405 158.707C573.346 158.23 573.244 157.77 573.097 157.328C572.979 156.854 572.868 156.515 572.766 156.311C572.737 155.832 572.634 155.372 572.458 154.932C572.281 154.492 572.105 154.067 571.931 153.656C571.805 153.574 571.754 153.472 571.777 153.35C571.8 153.228 571.778 153.11 571.711 152.993C571.411 152.5 571.001 151.939 570.483 151.309C569.962 150.649 569.568 150.086 569.3 149.621C569.412 149.494 569.558 149.411 569.736 149.37C569.943 149.327 570.151 149.285 570.359 149.242C570.565 149.17 570.741 149.099 570.887 149.03C571.178 148.863 571.638 148.775 572.269 148.767C572.898 148.73 573.53 148.752 574.166 148.834C574.801 148.886 575.272 148.978 575.581 149.11C575.734 149.161 575.885 149.182 576.035 149.173C576.185 149.164 576.32 149.171 576.442 149.194C576.643 149.032 576.761 148.754 576.798 148.361C576.863 147.937 576.919 147.618 576.966 147.404C576.608 146.945 576.331 146.586 576.135 146.327C575.939 146.068 575.511 145.944 574.851 145.953C574.489 145.945 574.128 145.936 573.767 145.928C573.406 145.919 573.048 145.956 572.692 146.037C572.512 146.048 572.156 146.129 571.624 146.281C571.121 146.402 570.618 146.537 570.116 146.687C569.614 146.838 569.275 146.948 569.099 147.019C568.689 147.194 568.28 147.398 567.873 147.633C567.495 147.836 567.101 148.025 566.69 148.2C566.396 148.307 566.242 148.497 566.228 148.768C566.215 149.04 566.275 149.291 566.409 149.524C566.605 149.783 566.83 150.04 567.086 150.295C567.34 150.52 567.58 150.761 567.806 151.018C568.031 151.275 568.345 151.737 568.745 152.404C569.174 153.04 569.544 153.694 569.854 154.367C570.165 155.039 570.271 155.559 570.173 155.925C569.84 155.885 569.539 155.873 569.269 155.889C569.028 155.874 568.744 155.906 568.418 155.985C567.783 156.414 567.148 157.098 566.513 158.038C565.878 158.977 565.297 160.064 564.769 161.298C564.27 162.5 563.864 163.741 563.55 165.022ZM565.852 168.085C565.899 167.361 566.056 166.48 566.325 165.442C566.591 164.374 566.921 163.348 567.312 162.363C567.732 161.346 568.182 160.568 568.66 160.028C568.886 159.774 569.148 159.383 569.447 158.854C569.746 158.325 569.901 157.91 569.913 157.609C570.389 158.031 570.669 158.691 570.753 159.587C570.865 160.452 570.859 161.354 570.734 162.293C570.638 163.201 570.486 163.916 570.277 164.439C570.2 164.654 570.124 164.899 570.05 165.174C570.005 165.417 569.959 165.661 569.914 165.904C569.536 166.618 569.227 167.237 568.988 167.762C568.779 168.286 568.54 168.811 568.271 169.338C568 169.835 567.602 170.46 567.076 171.213C566.917 171.072 566.759 170.946 566.602 170.835C566.444 170.695 566.286 170.569 566.129 170.458C565.975 169.896 565.877 169.511 565.834 169.304C565.82 169.064 565.826 168.658 565.852 168.085ZM580.078 172.644C579.691 172.697 579.375 172.686 579.13 172.61C578.883 172.505 578.574 172.358 578.202 172.17C577.512 171.7 576.988 171.221 576.628 170.731C576.296 170.21 576.13 169.694 576.13 169.183C576.173 168.91 576.159 168.671 576.087 168.465C576.044 168.257 576.023 168.153 576.023 168.153C575.834 168.014 575.769 167.928 575.827 167.894C575.883 167.831 575.923 167.738 575.946 167.616C576.182 167.542 576.202 167.376 576.006 167.117C575.902 166.883 575.914 166.341 576.044 165.492C576.202 164.611 576.423 163.786 576.707 163.018C576.837 162.679 577.021 162.233 577.258 161.677C577.525 161.12 577.823 160.562 578.15 160.001C578.475 159.411 578.777 158.942 579.057 158.594C579.671 157.806 580.222 157.217 580.71 156.828C581.225 156.406 581.805 156.056 582.45 155.777C583.035 155.501 583.461 155.341 583.728 155.294C583.996 155.248 584.381 155.406 584.884 155.766C585.615 155.933 586.172 156.2 586.555 156.568C586.965 156.904 587.299 157.455 587.555 158.221C587.847 159.075 587.983 160.104 587.965 161.307C587.975 162.479 587.557 164.021 586.709 165.935C586.21 167.137 585.694 168.055 585.161 168.688C584.658 169.319 584.037 169.987 583.298 170.693C582.757 171.206 582.256 171.612 581.793 171.91C581.33 172.208 580.758 172.453 580.078 172.644ZM583.352 167.083C583.897 166.149 584.312 165.297 584.597 164.529C584.909 163.729 585.136 162.739 585.275 161.558C585.316 161.225 585.306 160.82 585.248 160.343C585.187 159.835 585.085 159.376 584.94 158.964C584.825 158.55 584.677 158.333 584.495 158.314C584.097 158.188 583.663 158.214 583.193 158.392C582.721 158.541 582.218 158.931 581.685 159.564C581.212 160.194 580.788 160.895 580.413 161.669C580.069 162.441 579.759 163.286 579.483 164.204C579.207 165.122 578.95 166.099 578.712 167.135C578.48 168.291 578.547 169.159 578.913 169.738C579.308 170.315 579.901 170.43 580.691 170.082C581.48 169.705 582.367 168.705 583.352 167.083ZM589.669 170.943C589.44 171.137 589.099 171.202 588.644 171.139C588.19 171.076 587.825 171.008 587.55 170.934C587.483 170.818 587.415 170.687 587.346 170.541C587.277 170.394 587.224 170.262 587.187 170.144C587.148 169.996 587.109 169.849 587.07 169.701C587.061 169.551 587.023 169.418 586.956 169.302C587.041 169.206 587.11 169.112 587.165 169.019C587.249 168.923 587.335 168.843 587.421 168.778C587.571 168.769 587.735 168.759 587.915 168.748C588.095 168.738 588.259 168.728 588.409 168.719C588.555 168.65 588.67 168.553 588.752 168.428C588.863 168.271 589.008 168.187 589.188 168.176C589.822 167.718 590.426 167.02 591.001 166.084C591.606 165.146 592.175 164.106 592.708 162.962C593.27 161.816 593.76 160.705 594.176 159.628C594.621 158.52 594.986 157.596 595.273 156.858C595.269 156.798 595.266 156.753 595.265 156.723C595.263 156.693 595.246 156.664 595.214 156.636C595.008 156.708 594.787 156.781 594.551 156.856C594.314 156.9 594.078 156.974 593.843 157.078C593.815 157.11 593.772 157.143 593.714 157.176C593.656 157.21 593.613 157.242 593.585 157.274C593.271 157.563 592.842 157.664 592.295 157.577C591.779 157.487 591.405 157.254 591.172 156.878C591.105 156.761 591.038 156.66 590.973 156.574C590.908 156.488 590.827 156.387 590.73 156.273C590.833 155.996 590.998 155.731 591.223 155.477C591.476 155.191 591.751 155.01 592.047 154.932C592.845 154.704 593.63 154.522 594.404 154.385C595.205 154.217 596.012 154.139 596.824 154.15C597.636 154.162 598.44 154.294 599.237 154.547C599.388 154.568 599.525 154.59 599.646 154.612C599.768 154.635 599.891 154.688 600.017 154.77C600.203 154.88 600.391 155.004 600.58 155.143C600.768 155.281 600.942 155.421 601.101 155.562C601.321 155.729 601.498 155.914 601.63 156.117C601.762 156.319 601.851 156.554 601.897 156.822C601.975 157.118 602.024 157.43 602.044 157.76C602.093 158.087 602.098 158.418 602.058 158.751C601.953 159.508 601.767 160.421 601.501 161.489C601.262 162.525 601.045 163.424 600.851 164.187C600.561 165.377 600.309 166.444 600.095 167.388C599.88 168.303 599.678 169.201 599.49 170.084C599.108 170.227 598.733 170.235 598.365 170.107C597.996 169.978 597.669 169.773 597.381 169.489C597.236 169.077 597.153 168.691 597.132 168.332C597.108 167.943 597.19 167.547 597.376 167.145C597.561 166.714 597.678 166.166 597.729 165.501C597.779 164.837 597.942 164.301 598.218 163.894C598.271 163.771 598.295 163.664 598.289 163.574C598.279 163.395 598.318 163.047 598.407 162.53C598.527 162.012 598.657 161.434 598.799 160.794C598.939 160.124 599.067 159.501 599.183 158.923C599.329 158.343 599.423 157.902 599.465 157.599C599.514 157.415 599.504 157.251 599.435 157.104C599.396 156.956 599.371 156.793 599.36 156.613C599.114 156.508 598.764 156.438 598.311 156.405C597.888 156.37 597.613 156.537 597.485 156.906C597.458 156.967 597.433 157.044 597.408 157.136C597.412 157.195 597.4 157.256 597.374 157.318C597.179 158.081 596.893 158.819 596.515 159.533C596.167 160.245 595.864 161.21 595.606 162.428C595.536 162.762 595.42 163.085 595.258 163.395C595.125 163.674 595.008 163.981 594.908 164.318C594.91 164.348 594.896 164.379 594.868 164.41C594.87 164.44 594.857 164.471 594.829 164.503C594.83 164.533 594.817 164.564 594.789 164.595C594.596 164.877 594.418 165.174 594.256 165.484C594.123 165.762 593.975 166.057 593.813 166.367C593.354 167.236 592.727 168.055 591.932 168.824C591.166 169.591 590.412 170.297 589.669 170.943ZM603.731 167.667C603.665 167.07 603.698 166.361 603.829 165.542C603.99 164.721 604.197 163.912 604.45 163.116C604.703 162.319 604.935 161.674 605.146 161.181C605.154 160.819 605.24 160.499 605.404 160.218C605.597 159.936 605.744 159.627 605.844 159.29C605.918 159.016 606.101 158.569 606.395 157.95C606.687 157.302 607.008 156.651 607.36 155.999C607.712 155.347 607.999 154.879 608.223 154.595C608.261 154.232 608.378 153.924 608.573 153.672C608.767 153.39 608.945 153.109 609.109 152.829C609.355 152.934 609.556 153.012 609.709 153.063C609.862 153.114 610.051 153.253 610.275 153.48C610.437 153.681 610.613 153.866 610.804 154.035C611.022 154.172 611.186 154.403 611.296 154.727C611.312 154.996 611.223 155.272 611.03 155.554C610.865 155.804 610.699 156.055 610.534 156.305C610.256 156.682 610.048 156.98 609.911 157.199C609.802 157.386 609.666 157.619 609.502 157.899C609.367 158.148 609.136 158.552 608.809 159.113C608.962 159.164 609.131 159.229 609.316 159.308C609.499 159.357 609.666 159.377 609.816 159.368C610.083 159.322 610.34 159.337 610.585 159.412C610.83 159.488 611.075 159.578 611.322 159.684C611.567 159.759 611.811 159.82 612.054 159.865C612.421 159.964 612.81 160.181 613.22 160.517C613.661 160.851 614.059 161.218 614.413 161.618C614.768 162.017 614.998 162.349 615.104 162.613C615.203 162.758 615.34 163.035 615.514 163.445C615.717 163.824 615.769 164.181 615.669 164.518C615.646 164.639 615.624 164.776 615.603 164.927C615.582 165.079 615.576 165.23 615.585 165.379C615.174 166.035 614.844 166.551 614.596 166.926C614.348 167.302 613.907 167.719 613.273 168.177C612.319 168.806 611.357 169.299 610.386 169.658C609.446 170.014 608.481 170.207 607.491 170.237C607.341 170.246 607.194 170.299 607.05 170.398C606.933 170.465 606.797 170.443 606.64 170.333C606.041 170.368 605.582 170.231 605.263 169.919C604.944 169.608 604.607 169.252 604.252 168.853C603.993 168.538 603.819 168.142 603.731 167.667ZM606.254 167.651C606.797 167.678 607.289 167.619 607.731 167.472C608.203 167.324 608.661 167.191 609.105 167.075C609.609 166.954 610.136 166.727 610.687 166.394C611.236 166.03 611.722 165.611 612.144 165.134C612.595 164.627 612.881 164.129 613.002 163.641C613.077 163.396 613.076 163.125 612.998 162.829C612.92 162.533 612.773 162.332 612.556 162.225C612.244 162.033 611.932 161.841 611.62 161.65C611.308 161.458 610.943 161.39 610.526 161.445C610.438 161.48 610.333 161.486 610.212 161.463C610.118 161.409 610.026 161.369 609.934 161.345C609.691 161.299 609.449 161.284 609.21 161.298C609 161.31 608.777 161.354 608.541 161.428C608.277 161.534 608.028 161.639 607.794 161.743C607.56 161.847 607.469 162.093 607.523 162.481C607.526 162.541 607.458 162.65 607.317 162.809C607.26 162.872 607.144 163.18 606.966 163.731C606.819 164.281 606.673 164.861 606.529 165.471C606.386 166.08 606.277 166.522 606.203 166.797C606.18 166.919 606.173 167.055 606.182 167.204C606.219 167.322 606.243 167.471 606.254 167.651ZM629.227 169.477C629.044 169.428 628.861 169.393 628.68 169.374C628.497 169.325 628.313 169.276 628.13 169.227C627.977 169.176 627.794 169.142 627.583 169.124C627.258 168.723 627.108 168.221 627.132 167.619C627.154 166.986 627.251 166.334 627.421 165.663C627.621 164.99 627.807 164.332 627.979 163.691C628.181 163.048 628.284 162.501 628.287 162.05C628.249 161.932 628.203 161.904 628.146 161.968C628.088 162.001 628.061 162.048 628.065 162.108C627.869 162.36 627.58 162.543 627.196 162.656C626.812 162.769 626.457 162.865 626.131 162.945C625.568 163.069 625.005 163.208 624.443 163.362C623.881 163.515 623.335 163.683 622.805 163.865C622.712 163.811 622.603 163.742 622.477 163.66C622.382 163.575 622.288 163.506 622.194 163.451C621.985 163.464 621.817 163.669 621.69 164.067C621.564 164.466 621.458 164.953 621.372 165.529C621.285 166.075 621.196 166.606 621.107 167.123C621.046 167.607 620.976 167.957 620.899 168.172C620.424 168.26 620.08 168.296 619.869 168.279C619.687 168.259 619.337 168.19 618.819 168.071C618.56 167.756 618.407 167.45 618.359 167.152C618.341 166.852 618.366 166.52 618.434 166.156C618.543 165.458 618.629 164.897 618.694 164.472C618.789 164.046 618.951 163.495 619.181 162.82C619.311 162.482 619.427 162.159 619.529 161.852C619.659 161.514 619.713 161.15 619.689 160.761C619.911 160.447 620.056 160.108 620.124 159.743C620.193 159.378 620.276 159.013 620.374 158.646C620.78 157.39 621.098 156.424 621.328 155.749C621.586 155.042 621.763 154.491 621.86 154.094C621.956 153.698 622.01 153.334 622.02 153.003C622.025 152.582 622.267 152.357 622.746 152.328C623.045 152.31 623.367 152.411 623.711 152.631C624.053 152.821 624.323 153.075 624.523 153.394C624.722 153.713 624.758 154.056 624.63 154.424C624.554 154.669 624.428 155.068 624.25 155.619C624.101 156.139 623.925 156.721 623.724 157.364C623.55 157.975 623.374 158.557 623.197 159.108C623.048 159.628 622.92 160.012 622.815 160.258C622.792 160.38 622.738 160.488 622.654 160.584C622.568 160.649 622.529 160.756 622.538 160.906C622.757 161.043 623.105 161.082 623.582 161.024C624.087 160.933 624.441 160.822 624.644 160.69C625.093 160.663 625.527 160.637 625.947 160.612C626.396 160.585 626.845 160.558 627.294 160.531C627.759 160.774 628.128 161.158 628.4 161.682C628.575 161.101 628.815 160.335 629.119 159.385C629.421 158.405 629.709 157.441 629.983 156.493C630.257 155.545 630.409 154.83 630.44 154.347C630.484 154.074 630.59 153.827 630.757 153.607C630.924 153.387 631.109 153.21 631.311 153.078C631.743 153.262 632.158 153.418 632.556 153.544C632.983 153.639 633.273 153.967 633.426 154.529C633.413 154.8 633.369 155.074 633.295 155.348C633.22 155.593 633.144 155.838 633.069 156.083C632.821 156.97 632.504 157.95 632.118 159.025C631.73 160.07 631.373 161.144 631.048 162.245C630.752 163.315 630.556 164.318 630.462 165.255C630.467 165.345 630.41 165.649 630.291 166.167C630.202 166.683 630.097 167.186 629.976 167.674C629.884 168.16 629.825 168.419 629.797 168.451C629.809 168.66 629.761 168.859 629.652 169.046C629.541 169.202 629.399 169.346 629.227 169.477ZM638.935 168.715C638.546 168.739 638.227 168.683 637.979 168.547C637.76 168.41 637.478 168.217 637.132 167.967C636.528 167.402 636.089 166.857 635.817 166.332C635.544 165.778 635.437 165.243 635.496 164.729C635.572 164.484 635.588 164.257 635.546 164.05C635.531 163.81 635.524 163.69 635.524 163.69C635.365 163.549 635.315 163.462 635.373 163.429C635.429 163.365 635.484 163.272 635.537 163.148C635.716 163.138 635.766 162.969 635.687 162.644C635.613 162.408 635.701 161.876 635.952 161.05C636.203 160.223 636.532 159.437 636.938 158.692C637.1 158.382 637.346 157.976 637.677 157.475C638.006 156.945 638.365 156.427 638.756 155.923C639.175 155.387 639.555 154.959 639.896 154.638C640.607 153.964 641.238 153.461 641.789 153.127C642.34 152.794 642.941 152.532 643.591 152.343C644.24 152.154 644.685 152.052 644.925 152.038C645.194 152.022 645.568 152.24 646.046 152.692C646.752 152.95 647.268 153.28 647.593 153.681C647.947 154.081 648.194 154.682 648.332 155.485C648.475 156.378 648.462 157.416 648.293 158.598C648.151 159.749 647.533 161.213 646.437 162.992C645.753 164.115 645.112 164.965 644.516 165.541C643.917 166.088 643.199 166.642 642.361 167.203C641.757 167.66 641.207 168.008 640.711 168.248C640.212 168.459 639.621 168.614 638.935 168.715ZM642.963 163.696C643.633 162.844 644.156 162.047 644.533 161.303C644.939 160.557 645.303 159.619 645.626 158.487C645.726 158.151 645.777 157.742 645.778 157.261C645.778 156.75 645.735 156.287 645.65 155.871C645.593 155.424 645.473 155.176 645.29 155.126C644.918 154.938 644.48 154.904 643.976 155.025C643.471 155.115 642.934 155.433 642.366 155.978C641.484 156.812 640.733 157.834 640.115 159.043C639.494 160.222 638.898 161.565 638.327 163.072C637.942 164.177 637.89 165.051 638.169 165.696C638.476 166.309 639.043 166.5 639.871 166.27C640.727 166.009 641.757 165.15 642.963 163.696Z" fill="#4782CD"/>
</svg>
