<svg width="326" height="79" viewBox="0 0 326 79" fill="none" xmlns="http://www.w3.org/2000/svg">
<path d="M3.30826 25.5928C1.62824 17.4989 7.59581 9.90829 15.8424 9.64979L308.92 0.462913C316.827 0.215049 323.293 6.84766 322.837 14.7389L320.273 59.0912C319.871 66.0584 314.167 71.4845 307.18 71.5461L24.4831 74.0392C18.0476 74.096 12.435 69.5633 11.1249 63.2513L3.30826 25.5928Z" fill="#914BF1"/>
<path d="M322.322 21.7021C323.726 13.5792 317.518 6.13281 309.275 6.05241L15.7669 3.18968C7.85892 3.11255 1.61169 9.8776 2.31693 17.7545L6.34155 62.7059C6.9649 69.6681 12.845 74.9757 19.8345 74.8851L302.677 71.2194C309.118 71.1359 314.584 66.4725 315.681 60.125L322.322 21.7021Z" fill="url(#paint0_linear_2522_3387)"/>
<g filter="url(#filter0_d_2522_3387)">
<path d="M101.008 24.9092C101.155 21.4583 98.4712 18.5444 95.0199 18.4078L53.5238 16.7656C49.9289 16.6234 46.9585 19.5422 47.0379 23.1391L47.8316 59.1048C47.9092 62.6251 50.8822 65.3841 54.3984 65.1992L93.7269 63.1311C96.9395 62.9622 99.4973 60.3788 99.6342 57.1646L101.008 24.9092Z" fill="#FCEFE8"/>
<path d="M101.341 22.2032C101.776 19.5117 99.7134 17.0645 96.9872 17.036L50.8965 16.5543C48.2698 16.5269 46.1891 18.7652 46.4078 21.3829L46.7713 25.7323C46.9663 28.066 48.9338 29.8508 51.2753 29.8183L96.4799 29.1906C98.6442 29.1606 100.474 27.5801 100.819 25.4433L101.341 22.2032Z" fill="#EB433C"/>
<rect x="51.4784" y="13.8213" width="5.18367" height="9.71938" rx="2.59183" transform="rotate(-6.67602 51.4784 13.8213)" fill="white"/>
<rect width="5.18367" height="9.71938" rx="2.59183" transform="matrix(-0.993219 -0.116255 -0.116255 0.993219 93.2886 12.6482)" fill="white"/>
<g filter="url(#filter1_d_2522_3387)">
<path d="M73.943 48.0583L71.8344 48.164C70.3055 48.2406 69.4575 48.2795 69.2905 48.2806C69.0803 48.2911 68.8502 48.1937 68.6002 47.9883L68.6821 46.3606C68.7618 46.3566 68.7991 46.3039 68.794 46.2024L68.7913 46.1481C68.7895 46.1119 68.7944 46.0644 68.8059 46.0057C68.8175 45.947 68.8931 45.8597 69.0325 45.7437C69.1716 45.6205 69.3053 45.5339 69.4336 45.4839C69.6691 45.3995 70.0228 45.0657 70.4948 44.4827C71.24 43.5518 71.8669 42.6523 72.3754 41.7842C72.6899 41.2454 72.8931 40.9519 72.9851 40.9037C72.997 40.7069 73.1589 40.3865 73.4708 39.9422C73.5929 39.769 73.6972 39.604 73.7838 39.4471C74.5492 38.0503 74.9188 37.091 74.8927 36.5693C74.8339 36.2672 74.7611 36.0456 74.6741 35.9047C74.5868 35.7565 74.467 35.6136 74.3148 35.4759C74.2463 35.414 74.1737 35.3414 74.0969 35.258C73.8367 34.995 73.5544 34.8712 73.2501 34.8864C73.04 34.8969 72.8032 34.956 72.5398 35.0637C72.1065 35.2597 71.8258 35.5281 71.6975 35.8686C71.5766 36.2089 71.5029 36.623 71.4765 37.111L71.4684 37.1659C71.1756 37.2678 70.3735 37.3516 69.0619 37.4173C68.9742 37.4072 68.911 37.3776 68.8722 37.3287L68.8467 37.2537C68.9567 36.5509 69.2056 35.7175 69.5931 34.7537C69.9879 33.7896 70.4775 33.1221 71.0618 32.7514L72.9585 32.1115C73.0389 32.122 73.1554 32.1271 73.3079 32.1267C74.5977 32.062 75.5514 32.4646 76.1689 33.3344C76.6613 33.8836 76.9996 34.6186 77.1838 35.5392C77.232 35.7765 77.2621 36.0147 77.2741 36.2538C77.309 36.9494 77.196 37.667 76.9352 38.4065C76.6831 39.0294 76.1353 40.0557 75.2916 41.4854C74.4552 42.9149 73.635 44.2309 72.8308 45.4335C73.4677 45.387 74.0543 45.3504 74.5905 45.3235C75.1267 45.2966 75.4968 45.289 75.7008 45.3005C75.8609 45.307 76.0497 45.3048 76.2671 45.2939L76.4953 45.2825C77.0895 45.2527 77.4788 45.2659 77.6632 45.322C77.8252 45.6553 77.913 45.956 77.9264 46.2241L77.928 46.2567C77.9386 46.4669 77.983 46.7007 78.0613 46.9583L78.0038 47.7676C77.7737 47.8154 77.4087 47.8519 76.9087 47.8769L76.2017 47.9015C75.9767 47.9055 75.7337 47.914 75.4729 47.9271C75.3279 47.9344 75.1689 47.9496 74.9957 47.9728C74.8222 47.9888 74.6557 48.0008 74.4963 48.0088C74.4093 48.0131 74.3189 48.0213 74.2251 48.0332C74.1312 48.0452 74.0372 48.0536 73.943 48.0583Z" fill="#284795"/>
<path d="M62.2542 58.4659L62.1811 58.4695C62.0942 58.4739 62.0383 58.4715 62.0134 58.4622L61.9067 58.4205L61.5176 55.3541L61.293 55.3601C61.1539 55.3671 61.0308 55.382 60.9239 55.4048C60.7547 55.4377 60.6249 55.4564 60.5344 55.4609C60.3918 55.4681 60.2314 55.4674 60.0531 55.4589L59.6501 55.453C59.6533 55.7248 59.6585 55.9686 59.6659 56.1844C59.6812 56.63 59.6812 57.1513 59.6658 57.7483C59.6649 57.8006 59.666 57.8564 59.6689 57.9155L59.6979 58.2854C59.7035 58.3967 59.7015 58.4962 59.692 58.5838C59.6008 58.5745 59.4962 58.5727 59.3779 58.5787L59.1956 58.593C59.1056 58.608 59.0277 58.6171 58.9616 58.6204C58.9094 58.6231 58.8585 58.6169 58.809 58.6019C58.7415 58.5774 58.7016 58.4434 58.6894 58.2C58.6833 58.0782 58.6842 57.9213 58.692 57.7291C58.5351 55.99 58.449 55.0041 58.4339 54.7712C58.3865 54.1041 58.3497 53.5097 58.3236 52.988C58.2882 52.2819 58.2857 51.8845 58.3161 51.7958L58.2996 51.4671C58.2935 51.3454 58.307 51.2663 58.34 51.2297C58.3766 51.193 58.5566 51.1666 58.88 51.1504C59.0818 51.1403 59.2286 51.1486 59.3206 51.1754C59.4269 51.2084 59.4838 51.2997 59.4913 51.4493L59.4952 51.5275C59.4923 51.6776 59.4945 51.8274 59.502 51.977C59.5081 52.0987 59.5178 52.222 59.531 52.3469L59.5522 52.6649C59.5614 52.8492 59.5635 53.0304 59.5585 53.2085C59.5519 53.3553 59.5574 53.6026 59.5748 53.9504C59.583 54.1139 59.5948 54.2458 59.6103 54.3461C60.0326 54.3529 60.4524 54.3458 60.8698 54.3248C61.0576 54.3154 61.247 54.3024 61.4379 54.2859C61.4363 54.1849 61.4322 54.0682 61.4256 53.9361L61.3974 53.4772C61.3807 53.2828 61.3673 53.0865 61.3574 52.8882C61.3443 52.6273 61.3339 52.314 61.326 51.9483C61.3179 51.5791 61.3469 51.2882 61.413 51.0757C61.5048 51.0293 61.622 51.0025 61.7646 50.9953C61.9559 50.9857 62.1275 50.9998 62.2793 51.0375L62.4518 53.3302C62.5226 53.909 62.571 54.4575 62.597 54.9757C62.6089 55.2122 62.6142 55.4229 62.613 55.6078C62.6688 55.6782 62.7198 55.9651 62.766 56.4684C62.7857 56.7219 62.7986 56.9113 62.8049 57.0365C62.8089 57.1165 62.8076 57.1933 62.8008 57.2669C62.7975 57.3403 62.7961 57.417 62.7966 57.4972C62.8031 57.6259 62.8209 57.7732 62.8502 57.9391C62.8653 58.0325 62.8765 58.1174 62.8839 58.1937L62.9186 58.3646C62.8194 58.4044 62.598 58.4382 62.2542 58.4659ZM66.381 58.259L66.2036 58.2679C66.061 58.275 65.7859 58.2819 65.3782 58.2883L65.3777 58.2779L64.8771 58.3082L64.5174 58.3315C64.26 58.3444 64.0282 58.3456 63.8219 58.335C63.8002 58.1792 63.7678 57.846 63.7248 57.3356C63.6413 56.367 63.581 55.5105 63.5437 54.7661C63.4954 53.8027 63.4975 53.2534 63.55 53.1183C63.5161 52.9979 63.4921 52.7986 63.4782 52.5204C63.4538 52.0334 63.4482 51.5403 63.4616 51.041C63.5478 50.953 63.8987 50.8936 64.5144 50.8627C64.7718 50.8498 65.0468 50.8413 65.3395 50.8371C65.465 50.8377 65.5974 50.8346 65.7365 50.8276C65.8548 50.8217 65.9798 50.8119 66.1116 50.7984C66.2468 50.7811 66.3787 50.7693 66.5074 50.7628C66.8691 50.7447 67.1998 50.7682 67.4994 50.8334C67.545 50.9776 67.5729 51.1505 67.583 51.3522C67.5875 51.4427 67.5847 51.5265 67.5747 51.6037C67.5566 51.7301 67.5041 51.7955 67.4171 51.7999L66.3421 51.8486L65.272 51.8917C64.9347 51.9086 64.7088 51.9235 64.5943 51.9362L64.609 52.3329L64.6255 52.6616L64.6367 52.9906C64.6371 53.2765 64.6439 53.5516 64.6572 53.8159C64.6628 53.9272 64.6708 54.0175 64.6812 54.0867C64.7349 54.1154 65.0575 54.1149 65.6487 54.0853C66.0105 54.0672 66.3621 54.0565 66.7037 54.0533C67.0452 54.0502 67.2837 54.0766 67.419 54.1325C67.486 54.3558 67.523 54.5388 67.5302 54.6814C67.538 54.8379 67.5086 54.9457 67.4418 55.0049C67.3315 55.1011 67.0364 55.1612 66.5564 55.1852L66.3005 55.1928L65.7373 55.2263L64.7638 55.3169L64.8018 56.9103C65.1283 56.9532 65.768 56.9508 66.721 56.903C67.4027 56.8688 67.7689 56.8696 67.8195 56.9055C67.8816 57.0314 67.9153 57.1814 67.9205 57.3554C67.9294 57.5328 67.9218 57.6936 67.8976 57.8378C67.8769 57.9818 67.8204 58.0718 67.7281 58.1078C67.6528 58.136 67.5664 58.1525 67.469 58.1574L67.2343 58.1692L66.381 58.259ZM72.0024 56.7743L71.9862 56.2416C71.9823 56.1651 71.9665 55.9531 71.9386 55.6059C71.936 55.4839 71.9387 55.3635 71.9467 55.2446C71.9545 55.1221 71.9551 54.9966 71.9487 54.8679L71.9456 54.8053C71.9365 54.6244 71.9409 54.4341 71.9588 54.2345C71.9746 54.0628 71.9787 53.9022 71.9712 53.7527C71.9676 53.6796 71.9605 53.6085 71.9501 53.5393L71.79 51.701L71.7845 51.6961C71.641 51.6858 71.4858 51.6849 71.3188 51.6932L71.2562 51.6964L71.0744 51.7212C71.0661 52.0424 71.0569 52.2067 71.0468 52.2142L70.9888 53.4567C70.9732 53.9108 70.9374 54.3798 70.8815 54.8638C70.8598 54.987 70.837 55.159 70.8132 55.3798C70.7674 55.9958 70.6663 56.4838 70.51 56.8438L70.7865 56.83L70.7868 56.8352C70.9884 56.8216 71.1917 56.8097 71.3969 56.7994L72.0024 56.7743ZM73.0529 58.6359C72.9659 58.6403 72.8977 58.6367 72.8484 58.6252C72.7777 58.6079 72.7402 58.5539 72.7356 58.4635C72.7332 58.4148 72.7374 58.324 72.7481 58.1909L72.7716 57.9282L72.469 57.9434C72.3681 57.9484 72.2636 57.9502 72.1554 57.9486C72.11 57.9474 71.9654 57.9494 71.7216 57.9547C71.4607 57.9678 71.2276 57.9777 71.0222 57.9845C70.8205 57.9946 70.6989 58.0025 70.6573 58.008C70.5637 58.0197 70.4336 58.0315 70.2668 58.0433L69.6621 58.0841L69.6851 58.2294C69.7143 58.3953 69.731 58.52 69.7352 58.6034C69.7399 58.6974 69.7064 58.7583 69.6345 58.7863C69.5865 58.8027 69.5191 58.813 69.4321 58.8174L69.1655 58.8203L69.0301 58.8323L68.685 58.8339C68.665 58.7129 68.641 58.5816 68.613 58.44C68.5707 58.2225 68.548 58.0841 68.5451 58.025C68.4776 57.7913 68.4362 57.5231 68.4211 57.2205L68.4036 56.9756C68.4975 56.9709 68.5912 56.9627 68.6848 56.951C68.7437 56.9446 68.8045 56.9398 68.8671 56.9366L68.9923 56.9304C69.1149 56.8719 69.2372 56.7716 69.3591 56.6295C69.3714 56.5975 69.3887 56.5601 69.411 56.5171C69.6949 56.06 69.8291 55.2932 69.8134 54.2165C69.8054 53.7078 69.8218 53.2711 69.8628 52.9064C69.9071 52.5381 69.9401 52.3255 69.9616 52.2686C69.9333 52.0504 69.9138 51.8369 69.9034 51.6282C69.8905 51.3708 69.8919 51.1214 69.9077 50.8801L69.9202 50.6074L70.1811 50.5944C70.2124 50.5928 70.247 50.5876 70.2849 50.5787C70.3228 50.5698 70.3644 50.5643 70.4096 50.562L70.9368 50.5408C71.0968 50.5328 71.3631 50.5247 71.7358 50.5164L72.179 50.489C72.419 50.477 72.5724 50.4762 72.6392 50.4868C72.7093 50.4938 72.7913 50.4949 72.8852 50.4902C72.9407 51.1813 72.986 51.8764 73.0211 52.5755C73.0589 53.3303 73.0847 54.0874 73.0983 54.8469L73.1111 55.2071L73.1561 55.8953C73.1646 56.0657 73.1698 56.238 73.1716 56.4123L73.1747 56.4749C73.1787 56.5549 73.1879 56.6346 73.2024 56.7141L73.4791 56.7055L73.6672 56.7013C73.758 56.7037 73.8521 56.7025 73.9495 56.6976L73.9461 56.9436C73.951 57.2502 73.928 57.5216 73.8771 57.7577C73.8799 57.8134 73.8517 58.0868 73.7927 58.5779L73.4543 58.6105L73.1935 58.6236L73.0529 58.6359ZM77.598 57.6967L77.4207 57.7056C77.278 57.7128 77.0029 57.7196 76.5953 57.7261L76.5948 57.7157L76.0942 57.746L75.7344 57.7692C75.4771 57.7821 75.2452 57.7833 75.039 57.7727C75.0172 57.6169 74.9848 57.2838 74.9418 56.7734C74.8584 55.8047 74.798 54.9482 74.7607 54.2039C74.7124 53.2404 74.7145 52.6911 74.767 52.556C74.7331 52.4357 74.7092 52.2364 74.6952 51.9581C74.6708 51.4712 74.6653 50.9781 74.6786 50.4788C74.7648 50.3908 75.1158 50.3313 75.7314 50.3005C75.9888 50.2876 76.2638 50.279 76.5565 50.2748C76.6821 50.2755 76.8144 50.2723 76.9536 50.2654C77.0718 50.2594 77.1969 50.2497 77.3287 50.2361C77.4638 50.2189 77.5957 50.207 77.7244 50.2006C78.0861 50.1824 78.4168 50.206 78.7165 50.2711C78.7621 50.4153 78.7899 50.5883 78.8 50.79C78.8046 50.8804 78.8018 50.9642 78.7917 51.0415C78.7736 51.1679 78.7211 51.2333 78.6342 51.2376L77.5592 51.2863L76.4891 51.3295C76.1517 51.3464 75.9258 51.3612 75.8114 51.3739L75.826 51.7707L75.8425 52.0994L75.8538 52.4283C75.8542 52.7142 75.861 52.9893 75.8742 53.2537C75.8798 53.365 75.8878 53.4552 75.8983 53.5245C75.952 53.5531 76.2745 53.5527 76.8658 53.523C77.2275 53.5049 77.5792 53.4942 77.9207 53.4911C78.2623 53.4879 78.5007 53.5143 78.636 53.5703C78.703 53.7936 78.7401 53.9765 78.7472 54.1191C78.7551 54.2756 78.7256 54.3835 78.6588 54.4426C78.5486 54.5388 78.2535 54.5989 77.7735 54.623L77.5176 54.6306L76.9544 54.664L75.9808 54.7547L76.0189 56.348C76.3453 56.3909 76.985 56.3885 77.938 56.3407C78.6198 56.3066 78.9859 56.3074 79.0365 56.3432C79.0986 56.4691 79.1323 56.6191 79.1375 56.7932C79.1464 56.9706 79.1388 57.1314 79.1146 57.2755C79.094 57.4195 79.0375 57.5095 78.9451 57.5455C78.8698 57.5737 78.7835 57.5903 78.6861 57.5951L78.4513 57.6069L77.598 57.6967ZM79.9779 57.6978C79.9535 57.699 79.929 57.6967 79.9043 57.691C79.8798 57.6887 79.8571 57.6881 79.8362 57.6892C79.8258 57.6897 79.8156 57.6937 79.8055 57.7012L79.8156 57.4862C79.8241 57.3777 79.818 57.1165 79.7973 56.7026C79.8039 56.6255 79.8204 56.5724 79.8468 56.5432C79.9045 56.5124 80.0202 56.4892 80.1937 56.4735L80.3805 56.4432C80.5642 56.4201 80.7534 56.299 80.9481 56.08C80.9604 56.048 80.9777 56.0105 81 55.9676C81.2839 55.5105 81.4181 54.7436 81.4025 53.667C81.3979 53.1581 81.416 52.7196 81.4568 52.3514C81.4977 51.9833 81.5289 51.7708 81.5504 51.7139C81.5224 51.5026 81.5034 51.2978 81.4935 51.0996C81.48 50.8317 81.4828 50.5736 81.5017 50.3251L81.509 50.0527L81.7699 50.0396C81.8012 50.0381 81.8358 50.0328 81.8737 50.024C81.9116 50.0151 81.9531 50.0095 81.9984 50.0073L82.0607 49.9989C82.252 49.9893 82.4956 49.9788 82.7914 49.9675C83.087 49.9527 83.341 49.9417 83.5534 49.9345L84.002 49.9121L84.2261 49.8956C84.3166 49.8911 84.3952 49.8941 84.4619 49.9047C84.532 49.9116 84.614 49.9128 84.7079 49.9081C84.8396 51.1428 84.9368 52.3862 84.9995 53.6384L85.0309 54.2644C85.0476 54.5286 85.0739 54.8777 85.1096 55.3118C85.1543 55.857 85.1852 56.2983 85.2021 56.6357C85.2155 56.9035 85.2353 57.1239 85.2614 57.2969L84.0666 57.3568L84.0243 56.6162C84.0189 56.5084 84.0042 56.3209 83.9804 56.0536C83.9236 55.4078 83.8927 55.0345 83.8876 54.9337C83.8829 54.8398 83.8819 54.7492 83.8845 54.6619C83.8888 54.5396 83.8877 54.4141 83.8813 54.2854L83.8669 54.1031C83.8596 53.957 83.8609 53.8088 83.8708 53.6583C83.8807 53.5079 83.8824 53.3683 83.8759 53.2396L83.6388 51.1175L83.6333 51.1126L83.56 51.111C83.4098 51.1046 83.2807 51.1041 83.1729 51.1095L83.1103 51.1127C82.996 51.1288 82.8487 51.1449 82.6681 51.161C82.6532 51.4895 82.6424 51.6557 82.6356 51.6595L82.5776 52.902C82.562 53.3561 82.528 53.8267 82.4758 54.314C82.4506 54.4374 82.4261 54.6094 82.4023 54.8303C82.3714 55.2573 82.3011 55.6653 82.1916 56.0543C81.9987 56.587 81.7683 56.9647 81.5005 57.1873C81.3603 57.3129 81.2117 57.4093 81.0547 57.4764C80.901 57.5399 80.7911 57.5733 80.725 57.5766C80.6401 57.6227 80.4171 57.6601 80.0559 57.6886C80.0211 57.6904 79.9951 57.6934 79.9779 57.6978ZM86.5352 57.2488C86.483 57.2514 86.4287 57.2471 86.3724 57.236C86.3195 57.2247 86.2854 57.1706 86.2701 57.0738C86.3002 56.9084 86.3144 56.7403 86.3128 56.5695L86.3222 56.3389C86.3136 56.1685 86.3036 56.0034 86.2921 55.8435C86.2691 55.5239 86.2496 55.2041 86.2336 54.8841C86.1992 54.1989 86.182 53.5076 86.1819 52.8102C86.1849 52.036 86.1722 51.3637 86.1436 50.7932C86.1249 50.4211 86.0989 50.1103 86.0655 49.8609L86.1474 49.8254C86.1752 49.824 86.1925 49.8214 86.1993 49.8176C86.2061 49.8138 86.2112 49.8118 86.2147 49.8116C86.214 49.7977 86.2519 49.7888 86.3284 49.785C86.4641 49.7782 86.5508 49.7703 86.5887 49.7615C86.6301 49.7524 86.67 49.7469 86.7082 49.745C86.7639 49.7422 86.8306 49.7511 86.9083 49.7716L87.0033 49.7878L87.1233 49.7818C87.1719 49.7793 87.2261 49.7818 87.2858 49.7893L87.2845 49.9724C87.2524 50.3053 87.2462 50.67 87.2661 51.0665L87.3043 51.619C87.3175 51.8833 87.3214 52.1342 87.3158 52.3716L87.2698 53.6449C87.2702 53.6518 87.2687 53.6571 87.2654 53.6608C87.2654 53.6608 87.2639 53.6661 87.261 53.6767C87.2813 53.7349 87.2934 53.8023 87.2972 53.8788C87.3035 54.0041 87.2944 54.3794 87.27 55.0047C87.3009 54.9265 87.35 54.7915 87.4171 54.5999L87.9662 53.0346C88.2138 52.3388 88.3625 51.9669 88.4124 51.9191C88.4345 51.8029 88.4751 51.6736 88.5342 51.5312C88.5773 51.4174 88.6289 51.2632 88.6889 51.0684C88.7572 50.8313 88.8177 50.6819 88.8704 50.6199L88.8693 50.5991C88.8663 50.54 88.8857 50.4396 88.9274 50.298C88.9719 50.1424 89.0081 50.0639 89.0359 50.0625L89.0412 50.0622C89.0571 49.9638 89.0896 49.8802 89.1384 49.8115C89.1871 49.7393 89.2549 49.7011 89.3419 49.6967L89.368 49.6954C89.5553 49.6755 89.795 49.6583 90.0872 49.6436C90.2193 49.637 90.303 49.6363 90.3381 49.6415L90.3575 50.1322C90.377 50.1731 90.397 50.3987 90.4176 50.8091C90.4233 50.9239 90.4294 51.0805 90.4359 51.279C90.4423 51.4774 90.4455 51.6795 90.4453 51.8852C90.4485 52.0873 90.4472 52.2007 90.4415 52.2254L90.4734 52.6527C90.5299 53.0857 90.571 53.5578 90.5967 54.0691C90.6223 54.5804 90.6392 55.0573 90.6474 55.4997L90.6715 55.9797C90.6959 56.4666 90.6861 56.7931 90.6422 56.9592C90.6006 56.9648 90.5592 56.9738 90.518 56.9864C90.4801 56.9952 90.4074 57.0059 90.2999 57.0182L90.003 57.0436C89.9196 57.0477 89.8427 57.0446 89.7724 57.0342C89.6669 57.0151 89.611 56.9447 89.6049 56.8229L89.6036 56.7968C89.6069 56.584 89.5996 56.1589 89.5816 55.5217L89.5252 53.4586C89.5147 53.1104 89.5103 52.673 89.5118 52.1464C89.4424 52.2929 89.3459 52.5244 89.2223 52.8409C88.9069 53.6447 88.7199 54.1911 88.6611 54.48C88.6526 54.5188 88.6031 54.6799 88.5127 54.9634C88.3947 55.3215 88.3146 55.5312 88.2723 55.5926L88.1283 55.9555C87.9432 56.4355 87.8467 56.7018 87.8389 56.7545C87.7998 56.8088 87.7746 56.8624 87.7633 56.9152C87.7261 57.0078 87.6858 57.0743 87.6425 57.1148C87.6173 57.1684 87.5125 57.1998 87.3282 57.209C87.2308 57.2139 87.1297 57.2155 87.0251 57.2138L86.837 57.218C86.7848 57.2206 86.7431 57.2244 86.712 57.2294C86.6532 57.2394 86.5943 57.2458 86.5352 57.2488Z" fill="#284795"/>
</g>
</g>
<path d="M112.286 32.7914V21.5914H121.486V32.7914H119.646V23.3514H114.126V32.7914H112.286ZM124.284 31.7354C123.484 30.914 123.084 29.906 123.084 28.7114C123.084 27.5167 123.484 26.514 124.284 25.7034C125.094 24.882 126.081 24.4714 127.244 24.4714C128.406 24.4714 129.388 24.882 130.188 25.7034C130.998 26.514 131.404 27.5167 131.404 28.7114V29.2714H124.764C124.892 29.9434 125.185 30.4714 125.644 30.8554C126.102 31.2394 126.636 31.4314 127.244 31.4314C127.99 31.4314 128.588 31.2447 129.036 30.8714C129.238 30.722 129.414 30.5354 129.564 30.3114H131.324C131.1 30.834 130.817 31.2767 130.476 31.6394C129.601 32.514 128.524 32.9514 127.244 32.9514C126.081 32.9514 125.094 32.546 124.284 31.7354ZM124.844 27.9114H129.644C129.548 27.378 129.292 26.9247 128.876 26.5514C128.47 26.178 127.926 25.9914 127.244 25.9914C126.668 25.9914 126.156 26.1674 125.708 26.5194C125.26 26.8607 124.972 27.3247 124.844 27.9114ZM132.845 35.8314V24.6314H134.525V25.6714H134.605C134.797 25.4474 135.016 25.25 135.261 25.0794C135.837 24.674 136.472 24.4714 137.165 24.4714C138.264 24.4714 139.176 24.866 139.901 25.6554C140.637 26.434 141.005 27.4527 141.005 28.7114C141.005 29.97 140.637 30.994 139.901 31.7834C139.176 32.562 138.264 32.9514 137.165 32.9514C136.461 32.9514 135.826 32.754 135.261 32.3594C135.005 32.178 134.786 31.9754 134.605 31.7514H134.525V35.8314H132.845ZM135.149 26.7114C134.733 27.1807 134.525 27.8474 134.525 28.7114C134.525 29.5754 134.733 30.2474 135.149 30.7274C135.576 31.1967 136.141 31.4314 136.845 31.4314C137.592 31.4314 138.178 31.1967 138.605 30.7274C139.032 30.258 139.245 29.586 139.245 28.7114C139.245 27.8367 139.032 27.1647 138.605 26.6954C138.178 26.226 137.592 25.9914 136.845 25.9914C136.141 25.9914 135.576 26.2314 135.149 26.7114ZM142.439 32.7914V24.6314H146.519C147.297 24.6314 147.905 24.818 148.343 25.1914C148.78 25.5647 148.999 26.0447 148.999 26.6314C148.999 27.2607 148.785 27.746 148.359 28.0874C148.145 28.2474 147.932 28.3487 147.719 28.3914V28.4554C147.996 28.498 148.263 28.6047 148.519 28.7754C149.052 29.138 149.319 29.698 149.319 30.4554C149.319 31.1167 149.068 31.6714 148.567 32.1194C148.065 32.5674 147.409 32.7914 146.599 32.7914H142.439ZM144.119 27.8314H146.359C146.999 27.8314 147.319 27.538 147.319 26.9514C147.319 26.418 146.999 26.1514 146.359 26.1514H144.119V27.8314ZM144.119 31.2714H146.519C146.871 31.2714 147.143 31.1807 147.335 30.9994C147.537 30.8074 147.639 30.5514 147.639 30.2314C147.639 29.9434 147.537 29.714 147.335 29.5434C147.143 29.362 146.871 29.2714 146.519 29.2714H144.119V31.2714ZM158.205 32.7914V24.6314H159.885V32.7914H158.205ZM150.845 32.7914V24.6314H152.525V27.3514H154.205C155.144 27.3514 155.896 27.6074 156.461 28.1194C157.037 28.6314 157.325 29.282 157.325 30.0714C157.325 30.8607 157.037 31.5114 156.461 32.0234C155.896 32.5354 155.144 32.7914 154.205 32.7914H150.845ZM152.525 31.2714H154.205C154.642 31.2714 154.978 31.1647 155.213 30.9514C155.448 30.738 155.565 30.4447 155.565 30.0714C155.565 29.698 155.448 29.4047 155.213 29.1914C154.978 28.978 154.642 28.8714 154.205 28.8714H152.525V31.2714ZM162.518 31.7354C161.718 30.914 161.318 29.906 161.318 28.7114C161.318 27.5167 161.718 26.514 162.518 25.7034C163.329 24.882 164.315 24.4714 165.478 24.4714C166.641 24.4714 167.622 24.882 168.422 25.7034C169.233 26.514 169.638 27.5167 169.638 28.7114V29.2714H162.998C163.126 29.9434 163.419 30.4714 163.878 30.8554C164.337 31.2394 164.87 31.4314 165.478 31.4314C166.225 31.4314 166.822 31.2447 167.27 30.8714C167.473 30.722 167.649 30.5354 167.798 30.3114H169.558C169.334 30.834 169.051 31.2767 168.71 31.6394C167.835 32.514 166.758 32.9514 165.478 32.9514C164.315 32.9514 163.329 32.546 162.518 31.7354ZM163.078 27.9114H167.878C167.782 27.378 167.526 26.9247 167.11 26.5514C166.705 26.178 166.161 25.9914 165.478 25.9914C164.902 25.9914 164.39 26.1674 163.942 26.5194C163.494 26.8607 163.206 27.3247 163.078 27.9114ZM175.564 35.8314V24.6314H177.244V25.6714H177.324C177.516 25.4474 177.734 25.25 177.98 25.0794C178.556 24.674 179.19 24.4714 179.884 24.4714C180.982 24.4714 181.894 24.866 182.62 25.6554C183.356 26.434 183.724 27.4527 183.724 28.7114C183.724 29.97 183.356 30.994 182.62 31.7834C181.894 32.562 180.982 32.9514 179.884 32.9514C179.18 32.9514 178.545 32.754 177.98 32.3594C177.724 32.178 177.505 31.9754 177.324 31.7514H177.244V35.8314H175.564ZM177.868 26.7114C177.452 27.1807 177.244 27.8474 177.244 28.7114C177.244 29.5754 177.452 30.2474 177.868 30.7274C178.294 31.1967 178.86 31.4314 179.564 31.4314C180.31 31.4314 180.897 31.1967 181.324 30.7274C181.75 30.258 181.964 29.586 181.964 28.7114C181.964 27.8367 181.75 27.1647 181.324 26.6954C180.897 26.226 180.31 25.9914 179.564 25.9914C178.86 25.9914 178.294 26.2314 177.868 26.7114ZM185.877 31.7354C185.077 30.914 184.677 29.906 184.677 28.7114C184.677 27.5167 185.077 26.514 185.877 25.7034C186.688 24.882 187.675 24.4714 188.837 24.4714C190 24.4714 190.981 24.882 191.781 25.7034C192.592 26.514 192.997 27.5167 192.997 28.7114V29.2714H186.357C186.485 29.9434 186.779 30.4714 187.237 30.8554C187.696 31.2394 188.229 31.4314 188.837 31.4314C189.584 31.4314 190.181 31.2447 190.629 30.8714C190.832 30.722 191.008 30.5354 191.157 30.3114H192.917C192.693 30.834 192.411 31.2767 192.069 31.6394C191.195 32.514 190.117 32.9514 188.837 32.9514C187.675 32.9514 186.688 32.546 185.877 31.7354ZM186.437 27.9114H191.237C191.141 27.378 190.885 26.9247 190.469 26.5514C190.064 26.178 189.52 25.9914 188.837 25.9914C188.261 25.9914 187.749 26.1674 187.301 26.5194C186.853 26.8607 186.565 27.3247 186.437 27.9114ZM193.799 30.1514H195.479C195.521 30.3647 195.623 30.578 195.783 30.7914C196.124 31.218 196.663 31.4314 197.399 31.4314C197.975 31.4314 198.396 31.3354 198.663 31.1434C198.94 30.9514 199.079 30.7007 199.079 30.3914C199.079 30.082 198.94 29.8314 198.663 29.6394C198.396 29.4474 197.975 29.3514 197.399 29.3514H196.519V27.9114H197.399C198.412 27.9114 198.919 27.5914 198.919 26.9514C198.919 26.6847 198.785 26.4607 198.519 26.2794C198.252 26.0874 197.852 25.9914 197.319 25.9914C196.753 25.9914 196.305 26.1674 195.975 26.5194C195.857 26.658 195.772 26.8287 195.719 27.0314H194.039C194.156 26.5407 194.348 26.114 194.615 25.7514C195.233 24.898 196.161 24.4714 197.399 24.4714C198.423 24.4714 199.212 24.6847 199.767 25.1114C200.321 25.538 200.599 26.0714 200.599 26.7114C200.599 27.3194 200.359 27.7887 199.879 28.1194C199.687 28.2687 199.447 28.386 199.159 28.4714V28.5354C199.447 28.5994 199.713 28.7114 199.959 28.8714C200.492 29.234 200.759 29.7674 200.759 30.4714C200.759 31.186 200.465 31.778 199.879 32.2474C199.303 32.7167 198.476 32.9514 197.399 32.9514C195.969 32.9514 194.951 32.4874 194.343 31.5594C194.055 31.122 193.873 30.6527 193.799 30.1514ZM201.482 24.6314H203.242L205.002 31.1914H205.882L207.802 24.6314H209.562L206.202 35.8314H204.442L205.402 32.7914H203.722L201.482 24.6314ZM209.324 32.7914L211.564 24.6314H215.164L217.404 32.7914H215.644L213.884 26.1514H212.844L211.084 32.7914H209.324ZM218.439 32.7914V24.6314H220.119V27.3514H222.119C223.057 27.3514 223.809 27.6074 224.375 28.1194C224.951 28.6314 225.239 29.282 225.239 30.0714C225.239 30.8607 224.951 31.5114 224.375 32.0234C223.809 32.5354 223.057 32.7914 222.119 32.7914H218.439ZM220.119 31.2714H222.119C222.556 31.2714 222.892 31.1647 223.127 30.9514C223.361 30.738 223.479 30.4447 223.479 30.0714C223.479 29.698 223.361 29.4047 223.127 29.1914C222.892 28.978 222.556 28.8714 222.119 28.8714H220.119V31.2714ZM225.324 26.1514V24.6314H232.444V26.1514H229.724V32.7914H228.044V26.1514H225.324ZM234.094 31.7834C233.368 30.994 233.006 29.97 233.006 28.7114C233.006 27.4527 233.368 26.434 234.094 25.6554C234.83 24.866 235.747 24.4714 236.846 24.4714C237.539 24.4714 238.174 24.674 238.75 25.0794C238.995 25.25 239.214 25.4474 239.406 25.6714H239.486V24.6314H241.166V32.7914H239.486V31.6714H239.406C239.246 31.8954 239.027 32.1087 238.75 32.3114C238.174 32.738 237.539 32.9514 236.846 32.9514C235.747 32.9514 234.83 32.562 234.094 31.7834ZM235.406 26.6954C234.979 27.1647 234.766 27.8367 234.766 28.7114C234.766 29.586 234.979 30.258 235.406 30.7274C235.832 31.1967 236.419 31.4314 237.166 31.4314C237.87 31.4314 238.43 31.1967 238.846 30.7274C239.272 30.2474 239.486 29.5754 239.486 28.7114C239.486 27.8474 239.272 27.1807 238.846 26.7114C238.43 26.2314 237.87 25.9914 237.166 25.9914C236.419 25.9914 235.832 26.226 235.406 26.6954ZM242.199 26.1514V24.6314H249.319V26.1514H246.599V32.7914H244.919V26.1514H242.199ZM257.721 32.7914V24.6314H259.401V32.7914H257.721ZM250.361 32.7914V24.6314H252.041V27.3514H253.721C254.659 27.3514 255.411 27.6074 255.977 28.1194C256.553 28.6314 256.841 29.282 256.841 30.0714C256.841 30.8607 256.553 31.5114 255.977 32.0234C255.411 32.5354 254.659 32.7914 253.721 32.7914H250.361ZM252.041 31.2714H253.721C254.158 31.2714 254.494 31.1647 254.729 30.9514C254.963 30.738 255.081 30.4447 255.081 30.0714C255.081 29.698 254.963 29.4047 254.729 29.1914C254.494 28.978 254.158 28.8714 253.721 28.8714H252.041V31.2714ZM111.326 45.6314H113.086L114.846 52.1914H115.726L117.646 45.6314H119.406L116.046 56.8314H114.286L115.246 53.7914H113.566L111.326 45.6314ZM119.402 53.7914L122.442 49.3914L119.642 45.6314H121.562L123.882 48.8314H124.922V45.6314H126.602V48.8314H127.642L129.962 45.6314H131.882L129.082 49.3914L132.122 53.7914H130.122L127.722 50.3514H126.602V53.7914H124.922V50.3514H123.802L121.402 53.7914H119.402ZM133.565 52.7354C132.765 51.914 132.365 50.906 132.365 49.7114C132.365 48.5167 132.765 47.514 133.565 46.7034C134.376 45.882 135.362 45.4714 136.525 45.4714C137.688 45.4714 138.669 45.882 139.469 46.7034C140.28 47.514 140.685 48.5167 140.685 49.7114V50.2714H134.045C134.173 50.9434 134.466 51.4714 134.925 51.8554C135.384 52.2394 135.917 52.4314 136.525 52.4314C137.272 52.4314 137.869 52.2447 138.317 51.8714C138.52 51.722 138.696 51.5354 138.845 51.3114H140.605C140.381 51.834 140.098 52.2767 139.757 52.6394C138.882 53.514 137.805 53.9514 136.525 53.9514C135.362 53.9514 134.376 53.546 133.565 52.7354ZM134.125 48.9114H138.925C138.829 48.378 138.573 47.9247 138.157 47.5514C137.752 47.178 137.208 46.9914 136.525 46.9914C135.949 46.9914 135.437 47.1674 134.989 47.5194C134.541 47.8607 134.253 48.3247 134.125 48.9114Z" fill="#20305B"/>
<path d="M146.291 48.6714V45.6314H148.531V48.5114C148.531 49.3647 148.984 49.7914 149.891 49.7914C150.328 49.7914 150.749 49.7167 151.155 49.5674C151.315 49.5034 151.453 49.4287 151.571 49.3434V45.6314H153.811V53.7914H151.571V51.1514C151.421 51.2687 151.245 51.3647 151.043 51.4394C150.584 51.6207 150.067 51.7114 149.491 51.7114C148.499 51.7114 147.715 51.4394 147.139 50.8954C146.573 50.3514 146.291 49.61 146.291 48.6714ZM156.361 52.7834C155.519 51.9407 155.097 50.9167 155.097 49.7114C155.097 48.506 155.519 47.4874 156.361 46.6554C157.215 45.8127 158.26 45.3914 159.497 45.3914C160.756 45.3914 161.791 45.8074 162.601 46.6394C163.412 47.4714 163.817 48.4954 163.817 49.7114V50.1914H157.417C157.503 50.7247 157.743 51.178 158.137 51.5514C158.532 51.9247 158.985 52.1114 159.497 52.1114C160.063 52.1114 160.548 51.9514 160.953 51.6314C161.113 51.4927 161.241 51.3327 161.337 51.1514H163.737C163.556 51.6954 163.289 52.1754 162.937 52.5914C162.084 53.5514 160.937 54.0314 159.497 54.0314C158.26 54.0314 157.215 53.6154 156.361 52.7834ZM157.497 48.8314H161.417C161.332 48.4047 161.113 48.0474 160.761 47.7594C160.42 47.4607 159.999 47.3114 159.497 47.3114C158.996 47.3114 158.569 47.4554 158.217 47.7434C157.865 48.0314 157.625 48.394 157.497 48.8314ZM165.171 56.8314V45.6314H167.411V46.6714H167.491C167.662 46.4474 167.87 46.234 168.115 46.0314C168.691 45.6047 169.336 45.3914 170.051 45.3914C171.118 45.3914 172.008 45.7914 172.723 46.5914C173.448 47.3807 173.811 48.4207 173.811 49.7114C173.811 51.002 173.448 52.0474 172.723 52.8474C172.008 53.6367 171.118 54.0314 170.051 54.0314C169.336 54.0314 168.691 53.818 168.115 53.3914C167.87 53.1887 167.662 52.9754 167.491 52.7514H167.411V56.8314H165.171ZM167.987 47.9514C167.603 48.3674 167.411 48.954 167.411 49.7114C167.411 50.4687 167.603 51.0607 167.987 51.4874C168.371 51.9034 168.872 52.1114 169.491 52.1114C170.078 52.1114 170.558 51.898 170.931 51.4714C171.304 51.0447 171.491 50.458 171.491 49.7114C171.491 48.9647 171.304 48.378 170.931 47.9514C170.558 47.5247 170.078 47.3114 169.491 47.3114C168.872 47.3114 168.371 47.5247 167.987 47.9514ZM175.955 52.7834C175.112 51.9407 174.691 50.9167 174.691 49.7114C174.691 48.506 175.112 47.4874 175.955 46.6554C176.808 45.8127 177.854 45.3914 179.091 45.3914C180.35 45.3914 181.384 45.8074 182.195 46.6394C183.006 47.4714 183.411 48.4954 183.411 49.7114V50.1914H177.011C177.096 50.7247 177.336 51.178 177.731 51.5514C178.126 51.9247 178.579 52.1114 179.091 52.1114C179.656 52.1114 180.142 51.9514 180.547 51.6314C180.707 51.4927 180.835 51.3327 180.931 51.1514H183.331C183.15 51.6954 182.883 52.1754 182.531 52.5914C181.678 53.5514 180.531 54.0314 179.091 54.0314C177.854 54.0314 176.808 53.6154 175.955 52.7834ZM177.091 48.8314H181.011C180.926 48.4047 180.707 48.0474 180.355 47.7594C180.014 47.4607 179.592 47.3114 179.091 47.3114C178.59 47.3114 178.163 47.4554 177.811 47.7434C177.459 48.0314 177.219 48.394 177.091 48.8314ZM184.205 51.1514H186.445C186.509 51.3647 186.61 51.5407 186.749 51.6794C187.069 52.0207 187.528 52.1914 188.125 52.1914C188.584 52.1914 188.925 52.1114 189.149 51.9514C189.373 51.7914 189.485 51.578 189.485 51.3114C189.485 51.0127 189.384 50.794 189.181 50.6554C188.978 50.506 188.626 50.4314 188.125 50.4314H187.085V48.8314H188.045C188.898 48.8314 189.325 48.538 189.325 47.9514C189.325 47.7274 189.208 47.5407 188.973 47.3914C188.749 47.2314 188.413 47.1514 187.965 47.1514C187.442 47.1514 187.064 47.3007 186.829 47.5994C186.712 47.738 186.637 47.882 186.605 48.0314H184.365C184.493 47.5514 184.712 47.114 185.021 46.7194C185.736 45.834 186.77 45.3914 188.125 45.3914C189.224 45.3914 190.072 45.6154 190.669 46.0634C191.266 46.5114 191.565 47.0607 191.565 47.7114C191.565 48.3194 191.325 48.778 190.845 49.0874C190.653 49.226 190.413 49.3274 190.125 49.3914V49.4714C190.434 49.5567 190.701 49.6794 190.925 49.8394C191.458 50.2447 191.725 50.7887 191.725 51.4714C191.725 52.2074 191.426 52.8207 190.829 53.3114C190.232 53.7914 189.33 54.0314 188.125 54.0314C186.664 54.0314 185.57 53.5514 184.845 52.5914C184.536 52.1647 184.322 51.6847 184.205 51.1514ZM197.242 53.7914V51.5514L201.002 49.0714C201.898 48.474 202.522 47.9674 202.874 47.5514C203.226 47.1247 203.402 46.6447 203.402 46.1114C203.402 45.6207 203.247 45.2314 202.938 44.9434C202.628 44.6554 202.196 44.5114 201.642 44.5114C200.906 44.5114 200.356 44.778 199.994 45.3114C199.834 45.5567 199.722 45.8234 199.658 46.1114H197.162C197.268 45.4074 197.503 44.7674 197.866 44.1914C198.676 42.9114 199.935 42.2714 201.642 42.2714C202.932 42.2714 203.972 42.634 204.762 43.3594C205.562 44.074 205.962 44.9647 205.962 46.0314C205.962 46.6927 205.839 47.274 205.594 47.7754C205.359 48.266 205.039 48.698 204.634 49.0714C204.239 49.434 203.658 49.8767 202.89 50.3994L201.642 51.2314L200.842 51.5514V51.6314L201.882 51.5514H205.962V53.7914H197.242ZM211.968 53.7914V45.6314H214.208V48.6714H217.648V45.6314H219.888V53.7914H217.648V50.5914H214.208V53.7914H211.968ZM222.44 52.7834C221.597 51.9407 221.176 50.9167 221.176 49.7114C221.176 48.506 221.597 47.4874 222.44 46.6554C223.293 45.8127 224.338 45.3914 225.576 45.3914C226.834 45.3914 227.869 45.8074 228.68 46.6394C229.49 47.4714 229.896 48.4954 229.896 49.7114V50.1914H223.496C223.581 50.7247 223.821 51.178 224.216 51.5514C224.61 51.9247 225.064 52.1114 225.576 52.1114C226.141 52.1114 226.626 51.9514 227.032 51.6314C227.192 51.4927 227.32 51.3327 227.416 51.1514H229.816C229.634 51.6954 229.368 52.1754 229.016 52.5914C228.162 53.5514 227.016 54.0314 225.576 54.0314C224.338 54.0314 223.293 53.6154 222.44 52.7834ZM223.576 48.8314H227.496C227.41 48.4047 227.192 48.0474 226.84 47.7594C226.498 47.4607 226.077 47.3114 225.576 47.3114C225.074 47.3114 224.648 47.4554 224.296 47.7434C223.944 48.0314 223.704 48.394 223.576 48.8314ZM230.449 55.4714V51.8714H231.329L233.009 45.6314H237.329L239.009 51.8714H239.889V55.4714H237.809V53.7914H232.529V55.4714H230.449ZM233.569 51.8714H236.769L235.569 47.5514H234.769L233.569 51.8714ZM241.627 52.7834C240.784 51.9407 240.363 50.9167 240.363 49.7114C240.363 48.506 240.784 47.4874 241.627 46.6554C242.48 45.8127 243.526 45.3914 244.763 45.3914C246.022 45.3914 247.056 45.8074 247.867 46.6394C248.678 47.4714 249.083 48.4954 249.083 49.7114V50.1914H242.683C242.768 50.7247 243.008 51.178 243.403 51.5514C243.798 51.9247 244.251 52.1114 244.763 52.1114C245.328 52.1114 245.814 51.9514 246.219 51.6314C246.379 51.4927 246.507 51.3327 246.603 51.1514H249.003C248.822 51.6954 248.555 52.1754 248.203 52.5914C247.35 53.5514 246.203 54.0314 244.763 54.0314C243.526 54.0314 242.48 53.6154 241.627 52.7834ZM242.763 48.8314H246.683C246.598 48.4047 246.379 48.0474 246.027 47.7594C245.686 47.4607 245.264 47.3114 244.763 47.3114C244.262 47.3114 243.835 47.4554 243.483 47.7434C243.131 48.0314 242.891 48.394 242.763 48.8314ZM249.557 53.7914L251.717 45.6314H256.037L258.197 53.7914H255.957L254.277 47.5514H253.477L251.797 53.7914H249.557ZM259.077 53.7914V45.6314H261.317V49.1514L261.237 50.5914H261.397L264.677 45.6314H267.077V53.7914H264.837V50.2714L264.917 48.8314H264.757L261.477 53.7914H259.077Z" fill="#914BF1"/>
<defs>
<filter id="filter0_d_2522_3387" x="42.8259" y="12.3291" width="62.1395" height="60.0111" filterUnits="userSpaceOnUse" color-interpolation-filters="sRGB">
<feFlood flood-opacity="0" result="BackgroundImageFix"/>
<feColorMatrix in="SourceAlpha" type="matrix" values="0 0 0 0 0 0 0 0 0 0 0 0 0 0 0 0 0 0 127 0" result="hardAlpha"/>
<feOffset dy="3.5661"/>
<feGaussianBlur stdDeviation="1.78305"/>
<feComposite in2="hardAlpha" operator="out"/>
<feColorMatrix type="matrix" values="0 0 0 0 0 0 0 0 0 0 0 0 0 0 0 0 0 0 0.1 0"/>
<feBlend mode="normal" in2="BackgroundImageFix" result="effect1_dropShadow_2522_3387"/>
<feBlend mode="normal" in="SourceGraphic" in2="effect1_dropShadow_2522_3387" result="shape"/>
</filter>
<filter id="filter1_d_2522_3387" x="58.2325" y="31.8936" width="32.5485" height="28.3561" filterUnits="userSpaceOnUse" color-interpolation-filters="sRGB">
<feFlood flood-opacity="0" result="BackgroundImageFix"/>
<feColorMatrix in="SourceAlpha" type="matrix" values="0 0 0 0 0 0 0 0 0 0 0 0 0 0 0 0 0 0 127 0" result="hardAlpha"/>
<feOffset dy="0.891525"/>
<feComposite in2="hardAlpha" operator="out"/>
<feColorMatrix type="matrix" values="0 0 0 0 1 0 0 0 0 1 0 0 0 0 1 0 0 0 1 0"/>
<feBlend mode="normal" in2="BackgroundImageFix" result="effect1_dropShadow_2522_3387"/>
<feBlend mode="normal" in="SourceGraphic" in2="effect1_dropShadow_2522_3387" result="shape"/>
</filter>
<linearGradient id="paint0_linear_2522_3387" x1="317.861" y1="50.2957" x2="1.41738" y2="30.2176" gradientUnits="userSpaceOnUse">
<stop stop-color="#FFC848"/>
<stop offset="0.839038" stop-color="#FFD748"/>
<stop offset="1" stop-color="#FFC848"/>
</linearGradient>
</defs>
</svg>
