<svg width="265" height="79" viewBox="0 0 265 79" fill="none" xmlns="http://www.w3.org/2000/svg">
<path d="M2.61503 25.1018C1.27255 17.1468 7.22647 9.82321 15.2881 9.51348L248.356 0.55904C256.184 0.258269 262.593 6.72111 262.227 14.5468L260.156 58.8231C259.825 65.9029 254.028 71.4948 246.941 71.5705L22.3103 73.9706C15.7297 74.0409 10.0761 69.313 8.98096 62.8238L2.61503 25.1018Z" fill="#914BF1"/>
<path d="M261.765 21.6681C262.896 13.6802 256.75 6.51697 248.683 6.42095L15.4605 3.645C7.62674 3.55176 1.39102 10.1821 1.96426 17.9954L5.20752 62.2013C5.72614 69.2698 11.6694 74.7061 18.756 74.594L243.372 71.0415C249.952 70.9375 255.478 66.0614 256.401 59.5455L261.765 21.6681Z" fill="url(#paint0_linear_2509_2595)"/>
<g filter="url(#filter0_d_2509_2595)">
<path d="M76.412 22.5759C76.559 19.1251 73.875 16.2111 70.4237 16.0745L28.9277 14.4324C25.3327 14.2901 22.3624 17.209 22.4417 20.8059L23.2354 56.7716C23.3131 60.2918 26.286 63.0509 29.8023 62.866L69.1307 60.7979C72.3434 60.6289 74.9011 58.0455 75.0381 54.8314L76.412 22.5759Z" fill="#FCEFE8"/>
<path d="M76.7451 19.87C77.1793 17.1785 75.1171 14.7312 72.391 14.7027L26.3003 14.2211C23.6736 14.1936 21.5928 16.432 21.8116 19.0497L22.175 23.3991C22.37 25.7327 24.3375 27.5176 26.6791 27.4851L71.8836 26.8574C74.0479 26.8273 75.8778 25.2469 76.2225 23.11L76.7451 19.87Z" fill="#EB433C"/>
<rect x="26.8822" y="11.488" width="5.18367" height="9.71938" rx="2.59183" transform="rotate(-6.67602 26.8822 11.488)" fill="white"/>
<rect width="5.18367" height="9.71938" rx="2.59183" transform="matrix(-0.993219 -0.116255 -0.116255 0.993219 68.6924 10.3149)" fill="white"/>
<g filter="url(#filter1_d_2509_2595)">
<path d="M49.3468 45.725L47.2382 45.8307C45.7093 45.9074 44.8613 45.9462 44.6943 45.9473C44.4841 45.9579 44.2541 45.8604 44.004 45.655L44.0859 44.0274C44.1656 44.0234 44.2029 43.9706 44.1978 43.8692L44.1951 43.8148C44.1933 43.7786 44.1982 43.7312 44.2098 43.6725C44.2213 43.6138 44.2969 43.5264 44.4364 43.4105C44.5755 43.2873 44.7091 43.2007 44.8374 43.1507C45.0729 43.0662 45.4266 42.7325 45.8987 42.1495C46.6438 41.2186 47.2707 40.3191 47.7793 39.4509C48.0937 38.9121 48.2969 38.6186 48.3889 38.5704C48.4008 38.3737 48.5628 38.0532 48.8746 37.609C48.9967 37.4358 49.101 37.2707 49.1876 37.1138C49.953 35.717 50.3226 34.7578 50.2965 34.2361C50.2377 33.9339 50.1649 33.7124 50.0779 33.5714C49.9906 33.4233 49.8708 33.2803 49.7186 33.1427C49.6502 33.0807 49.5775 33.0081 49.5007 32.9248C49.2405 32.6618 48.9583 32.5379 48.6539 32.5532C48.4438 32.5637 48.207 32.6228 47.9436 32.7304C47.5103 32.9265 47.2296 33.1948 47.1014 33.5354C46.9804 33.8756 46.9067 34.2897 46.8803 34.7778L46.8722 34.8327C46.5794 34.9345 45.7773 35.0183 44.4657 35.0841C44.3781 35.0739 44.3148 35.0444 44.2761 34.9955L44.2505 34.9205C44.3606 34.2176 44.6094 33.3843 44.9969 32.4205C45.3917 31.4563 45.8813 30.7889 46.4657 30.4182L48.3623 29.7783C48.4427 29.7888 48.5592 29.7938 48.7117 29.7934C50.0015 29.7288 50.9552 30.1314 51.5727 31.0012C52.0651 31.5504 52.4034 32.2853 52.5876 33.2059C52.6358 33.4432 52.6659 33.6814 52.6779 33.9206C52.7128 34.6162 52.5998 35.3338 52.339 36.0733C52.087 36.6961 51.5391 37.7224 50.6954 39.1522C49.8591 40.5816 49.0388 41.8976 48.2346 43.1002C48.8715 43.0538 49.4581 43.0171 49.9943 42.9902C50.5305 42.9634 50.9006 42.9557 51.1046 42.9673C51.2648 42.9738 51.4535 42.9716 51.6709 42.9607L51.8992 42.9492C52.4933 42.9195 52.8826 42.9326 53.0671 42.9888C53.2291 43.3221 53.3168 43.6228 53.3302 43.8909L53.3318 43.9235C53.3424 44.1336 53.3868 44.3675 53.4651 44.6251L53.4076 45.4343C53.1775 45.4822 52.8125 45.5186 52.3125 45.5437L51.6055 45.5682C51.3805 45.5722 51.1375 45.5808 50.8767 45.5939C50.7318 45.6011 50.5727 45.6164 50.3995 45.6396C50.226 45.6555 50.0595 45.6675 49.9001 45.6755C49.8131 45.6799 49.7227 45.688 49.6289 45.7C49.5351 45.712 49.441 45.7203 49.3468 45.725Z" fill="#284795"/>
<path d="M37.658 56.1326L37.585 56.1363C37.498 56.1406 37.4421 56.1382 37.4172 56.129L37.3105 56.0873L36.9215 53.0209L36.6968 53.0269C36.5577 53.0339 36.4347 53.0488 36.3277 53.0715C36.1585 53.1044 36.0287 53.1232 35.9383 53.1277C35.7957 53.1348 35.6352 53.1342 35.457 53.1257L35.0539 53.1197C35.0571 53.3915 35.0624 53.6353 35.0697 53.8512C35.085 54.2967 35.085 54.818 35.0696 55.415C35.0688 55.4674 35.0698 55.5231 35.0728 55.5823L35.1018 55.9522C35.1074 56.0635 35.1054 56.1629 35.0958 56.2506C35.0047 56.2412 34.9 56.2395 34.7817 56.2454L34.5994 56.2598C34.5095 56.2747 34.4315 56.2839 34.3654 56.2872C34.3132 56.2898 34.2624 56.2836 34.2128 56.2687C34.1453 56.2442 34.1055 56.1102 34.0933 55.8667C34.0872 55.745 34.088 55.588 34.0958 55.3959C33.9389 53.6568 33.8529 52.6708 33.8377 52.438C33.7903 51.7709 33.7536 51.1764 33.7274 50.6547C33.692 49.9487 33.6895 49.5513 33.72 49.4626L33.7035 49.1339C33.6974 49.0122 33.7108 48.933 33.7439 48.8965C33.7804 48.8598 33.9604 48.8333 34.2839 48.8171C34.4856 48.807 34.6325 48.8153 34.7245 48.8421C34.8307 48.8751 34.8876 48.9664 34.8951 49.116L34.899 49.1943C34.8961 49.3443 34.8984 49.4942 34.9059 49.6437C34.912 49.7655 34.9216 49.8888 34.9349 50.0136L34.956 50.3316C34.9653 50.516 34.9674 50.6972 34.9624 50.8753C34.9558 51.022 34.9612 51.2693 34.9786 51.6171C34.9868 51.7806 34.9987 51.9125 35.0142 52.0129C35.4364 52.0196 35.8562 52.0125 36.2736 51.9916C36.4614 51.9822 36.6508 51.9692 36.8418 51.9526C36.8402 51.8516 36.8361 51.735 36.8295 51.6028L36.8012 51.144C36.7845 50.9495 36.7712 50.7532 36.7612 50.5549C36.7482 50.2941 36.7377 49.9808 36.7298 49.6151C36.7218 49.2459 36.7508 48.955 36.8168 48.7425C36.9087 48.696 37.0259 48.6692 37.1685 48.6621C37.3598 48.6525 37.5313 48.6665 37.6832 48.7043L37.8556 50.997C37.9265 51.5757 37.9749 52.1242 38.0009 52.6425C38.0127 52.879 38.018 53.0897 38.0168 53.2746C38.0727 53.345 38.1237 53.6318 38.1698 54.1351C38.1895 54.3887 38.2025 54.5781 38.2088 54.7033C38.2128 54.7833 38.2114 54.8601 38.2046 54.9336C38.2013 55.007 38.1999 55.0838 38.2005 55.164C38.2069 55.2927 38.2248 55.44 38.254 55.6059C38.2691 55.6992 38.2804 55.7841 38.2877 55.8605L38.3224 56.0313C38.2233 56.0712 38.0018 56.1049 37.658 56.1326ZM41.7848 55.9258L41.6074 55.9346C41.4648 55.9418 41.1897 55.9486 40.7821 55.9551L40.7815 55.9447L40.281 55.975L39.9212 55.9982C39.6638 56.0111 39.432 56.0123 39.2258 56.0017C39.204 55.8459 39.1716 55.5128 39.1286 55.0024C39.0452 54.0337 38.9848 53.1772 38.9475 52.4329C38.8992 51.4694 38.9013 50.9201 38.9538 50.785C38.9199 50.6647 38.896 50.4654 38.882 50.1871C38.8576 49.7002 38.8521 49.2071 38.8654 48.7078C38.9516 48.6198 39.3026 48.5603 39.9182 48.5295C40.1756 48.5166 40.4506 48.508 40.7433 48.5038C40.8689 48.5045 41.0012 48.5013 41.1403 48.4944C41.2586 48.4884 41.3836 48.4787 41.5155 48.4651C41.6506 48.4479 41.7825 48.436 41.9112 48.4296C42.2729 48.4114 42.6036 48.435 42.9033 48.5001C42.9488 48.6443 42.9767 48.8173 42.9868 49.019C42.9913 49.1094 42.9886 49.1932 42.9785 49.2705C42.9604 49.3969 42.9079 49.4623 42.821 49.4667L41.7459 49.5153L40.6759 49.5585C40.3385 49.5754 40.1126 49.5902 39.9982 49.6029L40.0128 49.9997L40.0293 50.3284L40.0406 50.6573C40.0409 50.9432 40.0478 51.2183 40.061 51.4827C40.0666 51.594 40.0746 51.6842 40.085 51.7535C40.1388 51.7821 40.4613 51.7817 41.0526 51.752C41.4143 51.7339 41.766 51.7233 42.1075 51.7201C42.4491 51.7169 42.6875 51.7433 42.8228 51.7993C42.8898 52.0226 42.9269 52.2055 42.934 52.3481C42.9418 52.5047 42.9124 52.6125 42.8456 52.6716C42.7354 52.7678 42.4403 52.8279 41.9603 52.852L41.7044 52.8596L41.1412 52.893L40.1676 52.9837L40.2057 54.577C40.5321 54.6199 41.1718 54.6175 42.1248 54.5697C42.8065 54.5356 43.1727 54.5364 43.2233 54.5722C43.2854 54.6981 43.3191 54.8481 43.3243 55.0222C43.3332 55.1996 43.3256 55.3604 43.3014 55.5045C43.2808 55.6485 43.2242 55.7385 43.1319 55.7745C43.0566 55.8027 42.9703 55.8193 42.8729 55.8241L42.6381 55.8359L41.7848 55.9258ZM47.4062 54.441L47.39 53.9083C47.3862 53.8318 47.3703 53.6199 47.3424 53.2726C47.3398 53.1507 47.3425 53.0303 47.3505 52.9113C47.3583 52.7889 47.359 52.6633 47.3525 52.5346L47.3494 52.472C47.3403 52.2911 47.3447 52.1009 47.3626 51.9012C47.3784 51.7296 47.3826 51.569 47.3751 51.4194C47.3714 51.3464 47.3644 51.2753 47.3539 51.206L47.1938 49.3678L47.1883 49.3628C47.0448 49.3526 46.8896 49.3516 46.7227 49.36L46.6601 49.3631L46.4782 49.3879C46.4699 49.7091 46.4607 49.8735 46.4507 49.881L46.3926 51.1235C46.377 51.5775 46.3413 52.0466 46.2853 52.5306C46.2636 52.6537 46.2409 52.8257 46.2171 53.0466C46.1712 53.6626 46.0702 54.1506 45.9139 54.5106L46.1904 54.4967L46.1906 54.5019C46.3922 54.4883 46.5956 54.4764 46.8008 54.4661L47.4062 54.441ZM48.4567 56.3027C48.3698 56.307 48.3016 56.3035 48.2522 56.292C48.1816 56.2746 48.144 56.2207 48.1395 56.1303C48.137 56.0816 48.1412 55.9907 48.152 55.8577L48.1754 55.595L47.8728 55.6101C47.7719 55.6152 47.6674 55.6169 47.5593 55.6154C47.5139 55.6142 47.3693 55.6162 47.1254 55.6214C46.8646 55.6345 46.6315 55.6445 46.4261 55.6513C46.2243 55.6614 46.1027 55.6692 46.0611 55.6748C45.9676 55.6865 45.8374 55.6982 45.6706 55.7101L45.0659 55.7508L45.0889 55.8961C45.1182 56.062 45.1349 56.1867 45.139 56.2702C45.1438 56.3641 45.1102 56.4251 45.0384 56.4531C44.9904 56.4694 44.9229 56.4798 44.836 56.4841L44.5694 56.487L44.434 56.4991L44.0888 56.5007C44.0688 56.3796 44.0448 56.2483 44.0168 56.1068C43.9745 55.8892 43.9519 55.7509 43.9489 55.6918C43.8814 55.458 43.8401 55.1899 43.8249 54.8873L43.8074 54.6423C43.9013 54.6376 43.995 54.6294 44.0886 54.6178C44.1476 54.6113 44.2083 54.6065 44.2709 54.6034L44.3962 54.5971C44.5188 54.5387 44.641 54.4384 44.7629 54.2963C44.7752 54.2643 44.7925 54.2268 44.8148 54.1839C45.0987 53.7268 45.2329 52.9599 45.2173 51.8833C45.2092 51.3746 45.2257 50.9379 45.2667 50.5732C45.311 50.2048 45.3439 49.9922 45.3655 49.9354C45.3371 49.7171 45.3177 49.5036 45.3072 49.295C45.2943 49.0376 45.2958 48.7882 45.3116 48.5468L45.324 48.2742L45.5849 48.2611C45.6162 48.2595 45.6508 48.2543 45.6887 48.2455C45.7266 48.2366 45.7682 48.231 45.8134 48.2287L46.3406 48.2075C46.5006 48.1995 46.767 48.1914 47.1396 48.1832L47.5828 48.1557C47.8228 48.1437 47.9762 48.143 48.043 48.1536C48.1131 48.1605 48.1951 48.1617 48.289 48.157C48.3446 48.8481 48.3899 49.5432 48.4249 50.2423C48.4627 50.997 48.4885 51.7541 48.5022 52.5136L48.515 52.8739L48.5599 53.562C48.5685 53.7324 48.5736 53.9048 48.5754 54.079L48.5785 54.1416C48.5825 54.2216 48.5918 54.3014 48.6062 54.3809L48.883 54.3722L49.0711 54.368C49.1618 54.3704 49.2559 54.3692 49.3533 54.3643L49.35 54.6103C49.3549 54.9169 49.3319 55.1883 49.2809 55.4245C49.2837 55.4801 49.2556 55.7535 49.1965 56.2446L48.8582 56.2773L48.5973 56.2904L48.4567 56.3027ZM53.0019 55.3635L52.8245 55.3724C52.6819 55.3795 52.4068 55.3864 51.9991 55.3928L51.9986 55.3824L51.498 55.4127L51.1383 55.436C50.8809 55.4489 50.6491 55.4501 50.4428 55.4395C50.4211 55.2836 50.3887 54.9505 50.3457 54.4401C50.2622 53.4715 50.2019 52.615 50.1646 51.8706C50.1163 50.9072 50.1184 50.3579 50.1709 50.2228C50.1369 50.1024 50.113 49.9031 50.0991 49.6249C50.0746 49.1379 50.0691 48.6448 50.0824 48.1455C50.1687 48.0575 50.5196 47.9981 51.1353 47.9672C51.3926 47.9543 51.6677 47.9458 51.9604 47.9415C52.0859 47.9422 52.2183 47.9391 52.3574 47.9321C52.4757 47.9262 52.6007 47.9164 52.7325 47.9028C52.8676 47.8856 52.9995 47.8738 53.1282 47.8673C53.49 47.8492 53.8207 47.8727 54.1203 47.9379C54.1659 48.0821 54.1937 48.255 54.2039 48.4567C54.2084 48.5472 54.2056 48.631 54.1955 48.7082C54.1775 48.8346 54.125 48.9 54.038 48.9044L52.963 48.953L51.8929 48.9962C51.5556 49.0131 51.3296 49.0279 51.2152 49.0407L51.2299 49.4374L51.2463 49.7661L51.2576 50.0951C51.258 50.381 51.2648 50.6561 51.2781 50.9204C51.2836 51.0317 51.2916 51.122 51.3021 51.1912C51.3558 51.2199 51.6783 51.2194 52.2696 51.1898C52.6314 51.1716 52.983 51.161 53.3246 51.1578C53.6661 51.1546 53.9045 51.1811 54.0399 51.237C54.1068 51.4603 54.1439 51.6433 54.1511 51.7859C54.1589 51.9424 54.1294 52.0502 54.0627 52.1094C53.9524 52.2055 53.6573 52.2657 53.1773 52.2897L52.9214 52.2973L52.3582 52.3308L51.3847 52.4214L51.4227 54.0148C51.7491 54.0577 52.3889 54.0553 53.3419 54.0075C54.0236 53.9733 54.3898 53.9741 54.4404 54.01C54.5025 54.1359 54.5361 54.2859 54.5414 54.4599C54.5503 54.6373 54.5426 54.7981 54.5185 54.9423C54.4978 55.0863 54.4413 55.1763 54.349 55.2123C54.2737 55.2405 54.1873 55.257 54.0899 55.2619L53.8551 55.2737L53.0019 55.3635ZM55.3817 55.3645C55.3574 55.3657 55.3329 55.3635 55.3082 55.3577C55.2836 55.3555 55.2609 55.3549 55.2401 55.3559C55.2296 55.3564 55.2194 55.3604 55.2093 55.3679L55.2194 55.153C55.228 55.0444 55.2218 54.7832 55.2011 54.3693C55.2077 54.2923 55.2242 54.2392 55.2506 54.2099C55.3084 54.1792 55.424 54.1559 55.5976 54.1402L55.7843 54.11C55.968 54.0868 56.1572 53.9657 56.3519 53.7468C56.3643 53.7148 56.3816 53.6773 56.4038 53.6343C56.6878 53.1773 56.8219 52.4104 56.8063 51.3337C56.8017 50.8249 56.8199 50.3864 56.8607 50.0182C56.9015 49.65 56.9327 49.4375 56.9542 49.3806C56.9262 49.1693 56.9072 48.9646 56.8973 48.7663C56.8839 48.4985 56.8866 48.2403 56.9056 47.9918L56.9128 47.7195L57.1737 47.7064C57.205 47.7048 57.2396 47.6996 57.2775 47.6907C57.3154 47.6818 57.357 47.6763 57.4022 47.674L57.4645 47.6656C57.6558 47.6561 57.8994 47.6456 58.1952 47.6343C58.4909 47.6194 58.7449 47.6084 58.9572 47.6013L59.4059 47.5788L59.63 47.5623C59.7204 47.5578 59.799 47.5608 59.8658 47.5714C59.9359 47.5784 60.0179 47.5795 60.1118 47.5748C60.2434 48.8095 60.3406 50.053 60.4034 51.3051L60.4347 51.9312C60.4515 52.1953 60.4777 52.5445 60.5134 52.9785C60.5582 53.5237 60.589 53.965 60.6059 54.3024C60.6193 54.5702 60.6391 54.7906 60.6652 54.9637L59.4705 55.0236L59.4281 54.283C59.4227 54.1752 59.4081 53.9876 59.3842 53.7203C59.3274 53.0746 59.2965 52.7013 59.2915 52.6004C59.2868 52.5065 59.2857 52.4159 59.2883 52.3286C59.2926 52.2064 59.2916 52.0809 59.2851 51.9522L59.2708 51.7698C59.2634 51.6238 59.2647 51.4755 59.2746 51.3251C59.2845 51.1746 59.2862 51.0351 59.2798 50.9064L59.0426 48.7843L59.0372 48.7793L58.9639 48.7778C58.8136 48.7714 58.6846 48.7709 58.5767 48.7763L58.5141 48.7794C58.3999 48.7956 58.2525 48.8117 58.072 48.8277C58.0571 49.1562 58.0462 49.3224 58.0394 49.3262L57.9814 50.5687C57.9658 51.0228 57.9319 51.4935 57.8796 51.9808C57.8544 52.1041 57.8299 52.2762 57.8061 52.4971C57.7752 52.924 57.705 53.332 57.5955 53.7211C57.4025 54.2538 57.1721 54.6314 56.9043 54.8541C56.7642 54.9796 56.6156 55.076 56.4585 55.1432C56.3048 55.2067 56.1949 55.2401 56.1288 55.2434C56.044 55.2895 55.8209 55.3268 55.4597 55.3554C55.4249 55.3571 55.3989 55.3602 55.3817 55.3645ZM61.939 54.9155C61.8868 54.9181 61.8326 54.9139 61.7762 54.9028C61.7233 54.8915 61.6893 54.8374 61.6739 54.7405C61.704 54.5751 61.7182 54.407 61.7167 54.2363L61.726 54.0057C61.7175 53.8352 61.7075 53.6701 61.696 53.5103C61.673 53.1906 61.6534 52.8708 61.6374 52.5508C61.6031 51.8656 61.5858 51.1744 61.5858 50.477C61.5888 49.7027 61.576 49.0304 61.5474 48.46C61.5288 48.0878 61.5027 47.7771 61.4693 47.5277L61.5512 47.4922C61.579 47.4908 61.5963 47.4882 61.6031 47.4844C61.6099 47.4805 61.615 47.4785 61.6185 47.4784C61.6178 47.4644 61.6557 47.4556 61.7322 47.4517C61.8679 47.4449 61.9547 47.4371 61.9926 47.4282C62.034 47.4192 62.0738 47.4137 62.1121 47.4118C62.1677 47.409 62.2344 47.4178 62.3121 47.4384L62.4071 47.4545L62.5271 47.4485C62.5758 47.4461 62.63 47.4486 62.6896 47.456L62.6883 47.6392C62.6562 47.972 62.6501 48.3367 62.6699 48.7332L62.7081 49.2857C62.7213 49.5501 62.7252 49.8009 62.7197 50.0383L62.6737 51.3116C62.674 51.3186 62.6725 51.3239 62.6692 51.3275C62.6692 51.3275 62.6677 51.3328 62.6648 51.3434C62.6851 51.4017 62.6972 51.4691 62.7011 51.5456C62.7074 51.6708 62.6983 52.0461 62.6738 52.6715C62.7048 52.5932 62.7538 52.4583 62.8209 52.2666L63.3701 50.7014C63.6176 50.0055 63.7664 49.6337 63.8163 49.5859C63.8384 49.4697 63.8789 49.3404 63.9381 49.1979C63.9812 49.0842 64.0327 48.9299 64.0927 48.7351C64.161 48.4981 64.2215 48.3486 64.2742 48.2867L64.2731 48.2658C64.2702 48.2067 64.2896 48.1064 64.3313 47.9648C64.3758 47.8091 64.4119 47.7306 64.4398 47.7292L64.445 47.7289C64.461 47.6305 64.4934 47.5469 64.5423 47.4782C64.5909 47.4061 64.6588 47.3678 64.7457 47.3634L64.7718 47.3621C64.9591 47.3423 65.1988 47.325 65.491 47.3104C65.6232 47.3038 65.7068 47.3031 65.742 47.3083L65.7613 47.799C65.7808 47.8398 65.8008 48.0655 65.8214 48.4759C65.8272 48.5907 65.8333 48.7473 65.8397 48.9457C65.8462 49.1441 65.8493 49.3462 65.8492 49.5519C65.8523 49.754 65.851 49.8674 65.8453 49.8921L65.8772 50.3194C65.9338 50.7524 65.9749 51.2246 66.0005 51.7359C66.0261 52.2472 66.0431 52.724 66.0513 53.1664L66.0753 53.6464C66.0998 54.1334 66.09 54.4599 66.046 54.626C66.0044 54.6315 65.963 54.6406 65.9218 54.6531C65.8839 54.662 65.8112 54.6726 65.7037 54.685L65.4069 54.7103C65.3234 54.7145 65.2465 54.7114 65.1763 54.7009C65.0707 54.6818 65.0149 54.6114 65.0088 54.4897L65.0075 54.4636C65.0107 54.2507 65.0034 53.8257 64.9854 53.1885L64.9291 51.1253C64.9186 50.7772 64.9141 50.3398 64.9156 49.8132C64.8462 49.9596 64.7497 50.1911 64.6261 50.5076C64.3107 51.3115 64.1237 51.8578 64.0649 52.1467C64.0564 52.1855 64.007 52.3466 63.9166 52.6301C63.7985 52.9882 63.7184 53.198 63.6761 53.2593L63.5322 53.6222C63.347 54.1022 63.2505 54.3686 63.2427 54.4213C63.2036 54.4755 63.1784 54.5291 63.1671 54.582C63.1299 54.6745 63.0896 54.741 63.0463 54.7816C63.0211 54.8351 62.9164 54.8665 62.732 54.8758C62.6346 54.8807 62.5336 54.8822 62.4289 54.8805L62.2408 54.8847C62.1886 54.8873 62.147 54.8911 62.1159 54.8962C62.0571 54.9061 61.9981 54.9126 61.939 54.9155Z" fill="#284795"/>
</g>
</g>
<path d="M87.6051 34.4106V23.2106H96.8051V34.4106H94.9651V24.9706H89.4451V34.4106H87.6051ZM99.6026 33.3546C98.8026 32.5333 98.4026 31.5253 98.4026 30.3306C98.4026 29.136 98.8026 28.1333 99.6026 27.3226C100.413 26.5013 101.4 26.0906 102.563 26.0906C103.725 26.0906 104.707 26.5013 105.507 27.3226C106.317 28.1333 106.723 29.136 106.723 30.3306V30.8906H100.083C100.211 31.5626 100.504 32.0906 100.963 32.4746C101.421 32.8586 101.955 33.0506 102.563 33.0506C103.309 33.0506 103.907 32.864 104.355 32.4906C104.557 32.3413 104.733 32.1546 104.883 31.9306H106.643C106.419 32.4533 106.136 32.896 105.795 33.2586C104.92 34.1333 103.843 34.5706 102.563 34.5706C101.4 34.5706 100.413 34.1653 99.6026 33.3546ZM100.163 29.5306H104.963C104.867 28.9973 104.611 28.544 104.195 28.1706C103.789 27.7973 103.245 27.6106 102.563 27.6106C101.987 27.6106 101.475 27.7866 101.027 28.1386C100.579 28.48 100.291 28.944 100.163 29.5306ZM108.164 37.4506V26.2506H109.844V27.2906H109.924C110.116 27.0666 110.335 26.8693 110.58 26.6986C111.156 26.2933 111.791 26.0906 112.484 26.0906C113.583 26.0906 114.495 26.4853 115.22 27.2746C115.956 28.0533 116.324 29.072 116.324 30.3306C116.324 31.5893 115.956 32.6133 115.22 33.4026C114.495 34.1813 113.583 34.5706 112.484 34.5706C111.78 34.5706 111.145 34.3733 110.58 33.9786C110.324 33.7973 110.105 33.5946 109.924 33.3706H109.844V37.4506H108.164ZM110.468 28.3306C110.052 28.8 109.844 29.4666 109.844 30.3306C109.844 31.1946 110.052 31.8666 110.468 32.3466C110.895 32.816 111.46 33.0506 112.164 33.0506C112.911 33.0506 113.497 32.816 113.924 32.3466C114.351 31.8773 114.564 31.2053 114.564 30.3306C114.564 29.456 114.351 28.784 113.924 28.3146C113.497 27.8453 112.911 27.6106 112.164 27.6106C111.46 27.6106 110.895 27.8506 110.468 28.3306ZM117.758 34.4106V26.2506H121.838C122.616 26.2506 123.224 26.4373 123.662 26.8106C124.099 27.184 124.318 27.664 124.318 28.2506C124.318 28.88 124.104 29.3653 123.678 29.7066C123.464 29.8666 123.251 29.968 123.038 30.0106V30.0746C123.315 30.1173 123.582 30.224 123.838 30.3946C124.371 30.7573 124.638 31.3173 124.638 32.0746C124.638 32.736 124.387 33.2906 123.886 33.7386C123.384 34.1866 122.728 34.4106 121.918 34.4106H117.758ZM119.438 29.4506H121.678C122.318 29.4506 122.638 29.1573 122.638 28.5706C122.638 28.0373 122.318 27.7706 121.678 27.7706H119.438V29.4506ZM119.438 32.8906H121.838C122.19 32.8906 122.462 32.8 122.654 32.6186C122.856 32.4266 122.958 32.1706 122.958 31.8506C122.958 31.5626 122.856 31.3333 122.654 31.1626C122.462 30.9813 122.19 30.8906 121.838 30.8906H119.438V32.8906ZM133.524 34.4106V26.2506H135.204V34.4106H133.524ZM126.164 34.4106V26.2506H127.844V28.9706H129.524C130.463 28.9706 131.215 29.2266 131.78 29.7386C132.356 30.2506 132.644 30.9013 132.644 31.6906C132.644 32.48 132.356 33.1306 131.78 33.6426C131.215 34.1546 130.463 34.4106 129.524 34.4106H126.164ZM127.844 32.8906H129.524C129.961 32.8906 130.297 32.784 130.532 32.5706C130.767 32.3573 130.884 32.064 130.884 31.6906C130.884 31.3173 130.767 31.024 130.532 30.8106C130.297 30.5973 129.961 30.4906 129.524 30.4906H127.844V32.8906ZM137.837 33.3546C137.037 32.5333 136.637 31.5253 136.637 30.3306C136.637 29.136 137.037 28.1333 137.837 27.3226C138.648 26.5013 139.634 26.0906 140.797 26.0906C141.96 26.0906 142.941 26.5013 143.741 27.3226C144.552 28.1333 144.957 29.136 144.957 30.3306V30.8906H138.317C138.445 31.5626 138.738 32.0906 139.197 32.4746C139.656 32.8586 140.189 33.0506 140.797 33.0506C141.544 33.0506 142.141 32.864 142.589 32.4906C142.792 32.3413 142.968 32.1546 143.117 31.9306H144.877C144.653 32.4533 144.37 32.896 144.029 33.2586C143.154 34.1333 142.077 34.5706 140.797 34.5706C139.634 34.5706 138.648 34.1653 137.837 33.3546ZM138.397 29.5306H143.197C143.101 28.9973 142.845 28.544 142.429 28.1706C142.024 27.7973 141.48 27.6106 140.797 27.6106C140.221 27.6106 139.709 27.7866 139.261 28.1386C138.813 28.48 138.525 28.944 138.397 29.5306ZM150.883 37.4506V26.2506H152.563V27.2906H152.643C152.835 27.0666 153.053 26.8693 153.299 26.6986C153.875 26.2933 154.509 26.0906 155.203 26.0906C156.301 26.0906 157.213 26.4853 157.939 27.2746C158.675 28.0533 159.043 29.072 159.043 30.3306C159.043 31.5893 158.675 32.6133 157.939 33.4026C157.213 34.1813 156.301 34.5706 155.203 34.5706C154.499 34.5706 153.864 34.3733 153.299 33.9786C153.043 33.7973 152.824 33.5946 152.643 33.3706H152.563V37.4506H150.883ZM153.187 28.3306C152.771 28.8 152.563 29.4666 152.563 30.3306C152.563 31.1946 152.771 31.8666 153.187 32.3466C153.613 32.816 154.179 33.0506 154.883 33.0506C155.629 33.0506 156.216 32.816 156.643 32.3466C157.069 31.8773 157.283 31.2053 157.283 30.3306C157.283 29.456 157.069 28.784 156.643 28.3146C156.216 27.8453 155.629 27.6106 154.883 27.6106C154.179 27.6106 153.613 27.8506 153.187 28.3306ZM161.196 33.3546C160.396 32.5333 159.996 31.5253 159.996 30.3306C159.996 29.136 160.396 28.1333 161.196 27.3226C162.007 26.5013 162.994 26.0906 164.156 26.0906C165.319 26.0906 166.3 26.5013 167.1 27.3226C167.911 28.1333 168.316 29.136 168.316 30.3306V30.8906H161.676C161.804 31.5626 162.098 32.0906 162.556 32.4746C163.015 32.8586 163.548 33.0506 164.156 33.0506C164.903 33.0506 165.5 32.864 165.948 32.4906C166.151 32.3413 166.327 32.1546 166.476 31.9306H168.236C168.012 32.4533 167.73 32.896 167.388 33.2586C166.514 34.1333 165.436 34.5706 164.156 34.5706C162.994 34.5706 162.007 34.1653 161.196 33.3546ZM161.756 29.5306H166.556C166.46 28.9973 166.204 28.544 165.788 28.1706C165.383 27.7973 164.839 27.6106 164.156 27.6106C163.58 27.6106 163.068 27.7866 162.62 28.1386C162.172 28.48 161.884 28.944 161.756 29.5306ZM169.118 31.7706H170.798C170.84 31.984 170.942 32.1973 171.102 32.4106C171.443 32.8373 171.982 33.0506 172.718 33.0506C173.294 33.0506 173.715 32.9546 173.982 32.7626C174.259 32.5706 174.398 32.32 174.398 32.0106C174.398 31.7013 174.259 31.4506 173.982 31.2586C173.715 31.0666 173.294 30.9706 172.718 30.9706H171.838V29.5306H172.718C173.731 29.5306 174.238 29.2106 174.238 28.5706C174.238 28.304 174.104 28.08 173.838 27.8986C173.571 27.7066 173.171 27.6106 172.638 27.6106C172.072 27.6106 171.624 27.7866 171.294 28.1386C171.176 28.2773 171.091 28.448 171.038 28.6506H169.358C169.475 28.16 169.667 27.7333 169.934 27.3706C170.552 26.5173 171.48 26.0906 172.718 26.0906C173.742 26.0906 174.531 26.304 175.086 26.7306C175.64 27.1573 175.918 27.6906 175.918 28.3306C175.918 28.9386 175.678 29.408 175.198 29.7386C175.006 29.888 174.766 30.0053 174.478 30.0906V30.1546C174.766 30.2186 175.032 30.3306 175.278 30.4906C175.811 30.8533 176.078 31.3866 176.078 32.0906C176.078 32.8053 175.784 33.3973 175.198 33.8666C174.622 34.336 173.795 34.5706 172.718 34.5706C171.288 34.5706 170.27 34.1066 169.662 33.1786C169.374 32.7413 169.192 32.272 169.118 31.7706ZM176.801 26.2506H178.561L180.321 32.8106H181.201L183.121 26.2506H184.881L181.521 37.4506H179.761L180.721 34.4106H179.041L176.801 26.2506ZM184.643 34.4106L186.883 26.2506H190.483L192.723 34.4106H190.963L189.203 27.7706H188.163L186.403 34.4106H184.643ZM193.758 34.4106V26.2506H195.438V28.9706H197.438C198.376 28.9706 199.128 29.2266 199.694 29.7386C200.27 30.2506 200.558 30.9013 200.558 31.6906C200.558 32.48 200.27 33.1306 199.694 33.6426C199.128 34.1546 198.376 34.4106 197.438 34.4106H193.758ZM195.438 32.8906H197.438C197.875 32.8906 198.211 32.784 198.446 32.5706C198.68 32.3573 198.798 32.064 198.798 31.6906C198.798 31.3173 198.68 31.024 198.446 30.8106C198.211 30.5973 197.875 30.4906 197.438 30.4906H195.438V32.8906ZM200.643 27.7706V26.2506H207.763V27.7706H205.043V34.4106H203.363V27.7706H200.643ZM209.413 33.4026C208.687 32.6133 208.325 31.5893 208.325 30.3306C208.325 29.072 208.687 28.0533 209.413 27.2746C210.149 26.4853 211.066 26.0906 212.165 26.0906C212.858 26.0906 213.493 26.2933 214.069 26.6986C214.314 26.8693 214.533 27.0666 214.725 27.2906H214.805V26.2506H216.485V34.4106H214.805V33.2906H214.725C214.565 33.5146 214.346 33.728 214.069 33.9306C213.493 34.3573 212.858 34.5706 212.165 34.5706C211.066 34.5706 210.149 34.1813 209.413 33.4026ZM210.725 28.3146C210.298 28.784 210.085 29.456 210.085 30.3306C210.085 31.2053 210.298 31.8773 210.725 32.3466C211.151 32.816 211.738 33.0506 212.485 33.0506C213.189 33.0506 213.749 32.816 214.165 32.3466C214.591 31.8666 214.805 31.1946 214.805 30.3306C214.805 29.4666 214.591 28.8 214.165 28.3306C213.749 27.8506 213.189 27.6106 212.485 27.6106C211.738 27.6106 211.151 27.8453 210.725 28.3146ZM217.518 27.7706V26.2506H224.638V27.7706H221.918V34.4106H220.238V27.7706H217.518ZM233.04 34.4106V26.2506H234.72V34.4106H233.04ZM225.68 34.4106V26.2506H227.36V28.9706H229.04C229.978 28.9706 230.73 29.2266 231.296 29.7386C231.872 30.2506 232.16 30.9013 232.16 31.6906C232.16 32.48 231.872 33.1306 231.296 33.6426C230.73 34.1546 229.978 34.4106 229.04 34.4106H225.68ZM227.36 32.8906H229.04C229.477 32.8906 229.813 32.784 230.048 32.5706C230.282 32.3573 230.4 32.064 230.4 31.6906C230.4 31.3173 230.282 31.024 230.048 30.8106C229.813 30.5973 229.477 30.4906 229.04 30.4906H227.36V32.8906ZM86.6451 47.2506H88.4051L90.1651 53.8106H91.0451L92.9651 47.2506H94.7251L91.3651 58.4506H89.6051L90.5651 55.4106H88.8851L86.6451 47.2506ZM94.7214 55.4106L97.7614 51.0106L94.9614 47.2506H96.8814L99.2014 50.4506H100.241V47.2506H101.921V50.4506H102.961L105.281 47.2506H107.201L104.401 51.0106L107.441 55.4106H105.441L103.041 51.9706H101.921V55.4106H100.241V51.9706H99.1214L96.7214 55.4106H94.7214ZM108.884 54.3546C108.084 53.5333 107.684 52.5253 107.684 51.3306C107.684 50.136 108.084 49.1333 108.884 48.3226C109.695 47.5013 110.681 47.0906 111.844 47.0906C113.007 47.0906 113.988 47.5013 114.788 48.3226C115.599 49.1333 116.004 50.136 116.004 51.3306V51.8906H109.364C109.492 52.5626 109.785 53.0906 110.244 53.4746C110.703 53.8586 111.236 54.0506 111.844 54.0506C112.591 54.0506 113.188 53.864 113.636 53.4906C113.839 53.3413 114.015 53.1546 114.164 52.9306H115.924C115.7 53.4533 115.417 53.896 115.076 54.2586C114.201 55.1333 113.124 55.5706 111.844 55.5706C110.681 55.5706 109.695 55.1653 108.884 54.3546ZM109.444 50.5306H114.244C114.148 49.9973 113.892 49.544 113.476 49.1706C113.071 48.7973 112.527 48.6106 111.844 48.6106C111.268 48.6106 110.756 48.7866 110.308 49.1386C109.86 49.48 109.572 49.944 109.444 50.5306Z" fill="#20305B"/>
<path d="M121.61 50.2906V47.2506H123.85V50.1306C123.85 50.984 124.303 51.4106 125.21 51.4106C125.647 51.4106 126.068 51.336 126.474 51.1866C126.634 51.1226 126.772 51.048 126.89 50.9626V47.2506H129.13V55.4106H126.89V52.7706C126.74 52.888 126.564 52.984 126.362 53.0586C125.903 53.24 125.386 53.3306 124.81 53.3306C123.818 53.3306 123.034 53.0586 122.458 52.5146C121.892 51.9706 121.61 51.2293 121.61 50.2906ZM131.68 54.4026C130.838 53.56 130.416 52.536 130.416 51.3306C130.416 50.1253 130.838 49.1066 131.68 48.2746C132.534 47.432 133.579 47.0106 134.816 47.0106C136.075 47.0106 137.11 47.4266 137.92 48.2586C138.731 49.0906 139.136 50.1146 139.136 51.3306V51.8106H132.736C132.822 52.344 133.062 52.7973 133.456 53.1706C133.851 53.544 134.304 53.7306 134.816 53.7306C135.382 53.7306 135.867 53.5706 136.272 53.2506C136.432 53.112 136.56 52.952 136.656 52.7706H139.056C138.875 53.3146 138.608 53.7946 138.256 54.2106C137.403 55.1706 136.256 55.6506 134.816 55.6506C133.579 55.6506 132.534 55.2346 131.68 54.4026ZM132.816 50.4506H136.736C136.651 50.024 136.432 49.6666 136.08 49.3786C135.739 49.08 135.318 48.9306 134.816 48.9306C134.315 48.9306 133.888 49.0746 133.536 49.3626C133.184 49.6506 132.944 50.0133 132.816 50.4506ZM140.49 58.4506V47.2506H142.73V48.2906H142.81C142.981 48.0666 143.189 47.8533 143.434 47.6506C144.01 47.224 144.655 47.0106 145.37 47.0106C146.437 47.0106 147.327 47.4106 148.042 48.2106C148.767 49 149.13 50.04 149.13 51.3306C149.13 52.6213 148.767 53.6666 148.042 54.4666C147.327 55.256 146.437 55.6506 145.37 55.6506C144.655 55.6506 144.01 55.4373 143.434 55.0106C143.189 54.808 142.981 54.5946 142.81 54.3706H142.73V58.4506H140.49ZM143.306 49.5706C142.922 49.9866 142.73 50.5733 142.73 51.3306C142.73 52.088 142.922 52.68 143.306 53.1066C143.69 53.5226 144.191 53.7306 144.81 53.7306C145.397 53.7306 145.877 53.5173 146.25 53.0906C146.623 52.664 146.81 52.0773 146.81 51.3306C146.81 50.584 146.623 49.9973 146.25 49.5706C145.877 49.144 145.397 48.9306 144.81 48.9306C144.191 48.9306 143.69 49.144 143.306 49.5706ZM151.274 54.4026C150.431 53.56 150.01 52.536 150.01 51.3306C150.01 50.1253 150.431 49.1066 151.274 48.2746C152.127 47.432 153.173 47.0106 154.41 47.0106C155.669 47.0106 156.703 47.4266 157.514 48.2586C158.325 49.0906 158.73 50.1146 158.73 51.3306V51.8106H152.33C152.415 52.344 152.655 52.7973 153.05 53.1706C153.445 53.544 153.898 53.7306 154.41 53.7306C154.975 53.7306 155.461 53.5706 155.866 53.2506C156.026 53.112 156.154 52.952 156.25 52.7706H158.65C158.469 53.3146 158.202 53.7946 157.85 54.2106C156.997 55.1706 155.85 55.6506 154.41 55.6506C153.173 55.6506 152.127 55.2346 151.274 54.4026ZM152.41 50.4506H156.33C156.245 50.024 156.026 49.6666 155.674 49.3786C155.333 49.08 154.911 48.9306 154.41 48.9306C153.909 48.9306 153.482 49.0746 153.13 49.3626C152.778 49.6506 152.538 50.0133 152.41 50.4506ZM159.524 52.7706H161.764C161.828 52.984 161.929 53.16 162.068 53.2986C162.388 53.64 162.847 53.8106 163.444 53.8106C163.903 53.8106 164.244 53.7306 164.468 53.5706C164.692 53.4106 164.804 53.1973 164.804 52.9306C164.804 52.632 164.703 52.4133 164.5 52.2746C164.297 52.1253 163.945 52.0506 163.444 52.0506H162.404V50.4506H163.364C164.217 50.4506 164.644 50.1573 164.644 49.5706C164.644 49.3466 164.527 49.16 164.292 49.0106C164.068 48.8506 163.732 48.7706 163.284 48.7706C162.761 48.7706 162.383 48.92 162.148 49.2186C162.031 49.3573 161.956 49.5013 161.924 49.6506H159.684C159.812 49.1706 160.031 48.7333 160.34 48.3386C161.055 47.4533 162.089 47.0106 163.444 47.0106C164.543 47.0106 165.391 47.2346 165.988 47.6826C166.585 48.1306 166.884 48.68 166.884 49.3306C166.884 49.9386 166.644 50.3973 166.164 50.7066C165.972 50.8453 165.732 50.9466 165.444 51.0106V51.0906C165.753 51.176 166.02 51.2986 166.244 51.4586C166.777 51.864 167.044 52.408 167.044 53.0906C167.044 53.8266 166.745 54.44 166.148 54.9306C165.551 55.4106 164.649 55.6506 163.444 55.6506C161.983 55.6506 160.889 55.1706 160.164 54.2106C159.855 53.784 159.641 53.304 159.524 52.7706ZM172.561 55.4106V53.1706L176.321 50.6906C177.217 50.0933 177.841 49.5866 178.193 49.1706C178.545 48.744 178.721 48.264 178.721 47.7306C178.721 47.24 178.566 46.8506 178.257 46.5626C177.947 46.2746 177.515 46.1306 176.961 46.1306C176.225 46.1306 175.675 46.3973 175.313 46.9306C175.153 47.176 175.041 47.4426 174.977 47.7306H172.481C172.587 47.0266 172.822 46.3866 173.185 45.8106C173.995 44.5306 175.254 43.8906 176.961 43.8906C178.251 43.8906 179.291 44.2533 180.081 44.9786C180.881 45.6933 181.281 46.584 181.281 47.6506C181.281 48.312 181.158 48.8933 180.913 49.3946C180.678 49.8853 180.358 50.3173 179.953 50.6906C179.558 51.0533 178.977 51.496 178.209 52.0186L176.961 52.8506L176.161 53.1706V53.2506L177.201 53.1706H181.281V55.4106H172.561ZM187.287 55.4106V47.2506H189.527V50.2906H192.967V47.2506H195.207V55.4106H192.967V52.2106H189.527V55.4106H187.287ZM197.759 54.4026C196.916 53.56 196.495 52.536 196.495 51.3306C196.495 50.1253 196.916 49.1066 197.759 48.2746C198.612 47.432 199.657 47.0106 200.895 47.0106C202.153 47.0106 203.188 47.4266 203.999 48.2586C204.809 49.0906 205.215 50.1146 205.215 51.3306V51.8106H198.815C198.9 52.344 199.14 52.7973 199.535 53.1706C199.929 53.544 200.383 53.7306 200.895 53.7306C201.46 53.7306 201.945 53.5706 202.351 53.2506C202.511 53.112 202.639 52.952 202.735 52.7706H205.135C204.953 53.3146 204.687 53.7946 204.335 54.2106C203.481 55.1706 202.335 55.6506 200.895 55.6506C199.657 55.6506 198.612 55.2346 197.759 54.4026ZM198.895 50.4506H202.815C202.729 50.024 202.511 49.6666 202.159 49.3786C201.817 49.08 201.396 48.9306 200.895 48.9306C200.393 48.9306 199.967 49.0746 199.615 49.3626C199.263 49.6506 199.023 50.0133 198.895 50.4506ZM205.768 57.0906V53.4906H206.648L208.328 47.2506H212.648L214.328 53.4906H215.208V57.0906H213.128V55.4106H207.848V57.0906H205.768ZM208.888 53.4906H212.088L210.888 49.1706H210.088L208.888 53.4906ZM216.946 54.4026C216.103 53.56 215.682 52.536 215.682 51.3306C215.682 50.1253 216.103 49.1066 216.946 48.2746C217.799 47.432 218.845 47.0106 220.082 47.0106C221.341 47.0106 222.375 47.4266 223.186 48.2586C223.997 49.0906 224.402 50.1146 224.402 51.3306V51.8106H218.002C218.087 52.344 218.327 52.7973 218.722 53.1706C219.117 53.544 219.57 53.7306 220.082 53.7306C220.647 53.7306 221.133 53.5706 221.538 53.2506C221.698 53.112 221.826 52.952 221.922 52.7706H224.322C224.141 53.3146 223.874 53.7946 223.522 54.2106C222.669 55.1706 221.522 55.6506 220.082 55.6506C218.845 55.6506 217.799 55.2346 216.946 54.4026ZM218.082 50.4506H222.002C221.917 50.024 221.698 49.6666 221.346 49.3786C221.005 49.08 220.583 48.9306 220.082 48.9306C219.581 48.9306 219.154 49.0746 218.802 49.3626C218.45 49.6506 218.21 50.0133 218.082 50.4506ZM224.876 55.4106L227.036 47.2506H231.356L233.516 55.4106H231.276L229.596 49.1706H228.796L227.116 55.4106H224.876ZM234.396 55.4106V47.2506H236.636V50.7706L236.556 52.2106H236.716L239.996 47.2506H242.396V55.4106H240.156V51.8906L240.236 50.4506H240.076L236.796 55.4106H234.396Z" fill="#914BF1"/>
<defs>
<filter id="filter0_d_2509_2595" x="18.2297" y="9.99585" width="62.1395" height="60.0111" filterUnits="userSpaceOnUse" color-interpolation-filters="sRGB">
<feFlood flood-opacity="0" result="BackgroundImageFix"/>
<feColorMatrix in="SourceAlpha" type="matrix" values="0 0 0 0 0 0 0 0 0 0 0 0 0 0 0 0 0 0 127 0" result="hardAlpha"/>
<feOffset dy="3.5661"/>
<feGaussianBlur stdDeviation="1.78305"/>
<feComposite in2="hardAlpha" operator="out"/>
<feColorMatrix type="matrix" values="0 0 0 0 0 0 0 0 0 0 0 0 0 0 0 0 0 0 0.1 0"/>
<feBlend mode="normal" in2="BackgroundImageFix" result="effect1_dropShadow_2509_2595"/>
<feBlend mode="normal" in="SourceGraphic" in2="effect1_dropShadow_2509_2595" result="shape"/>
</filter>
<filter id="filter1_d_2509_2595" x="33.6364" y="29.5603" width="32.5485" height="28.3561" filterUnits="userSpaceOnUse" color-interpolation-filters="sRGB">
<feFlood flood-opacity="0" result="BackgroundImageFix"/>
<feColorMatrix in="SourceAlpha" type="matrix" values="0 0 0 0 0 0 0 0 0 0 0 0 0 0 0 0 0 0 127 0" result="hardAlpha"/>
<feOffset dy="0.891525"/>
<feComposite in2="hardAlpha" operator="out"/>
<feColorMatrix type="matrix" values="0 0 0 0 1 0 0 0 0 1 0 0 0 0 1 0 0 0 1 0"/>
<feBlend mode="normal" in2="BackgroundImageFix" result="effect1_dropShadow_2509_2595"/>
<feBlend mode="normal" in="SourceGraphic" in2="effect1_dropShadow_2509_2595" result="shape"/>
</filter>
<linearGradient id="paint0_linear_2509_2595" x1="258.104" y1="50.2768" x2="0.898715" y2="36.9039" gradientUnits="userSpaceOnUse">
<stop stop-color="#FFC848"/>
<stop offset="0.839038" stop-color="#FFD748"/>
<stop offset="1" stop-color="#FFC848"/>
</linearGradient>
</defs>
</svg>
