<svg xmlns="http://www.w3.org/2000/svg" width="150" height="88" fill="none"><path fill="#FFCB06" d="M78.127 47.19a33.701 33.701 0 005.26-8.978A37.429 37.429 0 0085.66 28.1a42.21 42.21 0 00-.216-10.137 28.903 28.903 0 00-3.102-9.604 17.722 17.722 0 00-3.033-4.103 12.1 12.1 0 00-4.393-2.9 8.882 8.882 0 00-5.785-.124 10.734 10.734 0 00-4.864 3.458 17.351 17.351 0 00-1.627 2.32 25.94 25.94 0 00-1.172 2.45 19.85 19.85 0 00-.848 2.468l-.395 1.289-.275 1.237a49.781 49.781 0 00-.994 9.606 33.494 33.494 0 001.144 9.369 31.01 31.01 0 003.557 8.213l.557.928.636.868c.413.572.843 1.169 1.257 1.712a40.118 40.118 0 002.757 3.108c.566.57 1.163 1.112 1.76 1.654-.575.472-1.134.862-1.764 1.348a32.674 32.674 0 01-7.749 4.067 27.588 27.588 0 01-8.227 1.532 35.473 35.473 0 01-15.48-3.537c-4.521-2.19-8.715-5-12.46-8.347a85.394 85.394 0 01-9.534-9.95 90.524 90.524 0 01-7.094-9.785A54.196 54.196 0 011.412 9.028C.484 4.882.455 2.408.22 2.5a5.321 5.321 0 00-.14 1.769A32.61 32.61 0 00.508 9.28 51.016 51.016 0 006.8 26.157a89.458 89.458 0 006.913 10.257 86.562 86.562 0 009.495 10.488 55.68 55.68 0 0012.837 9.035 37.759 37.759 0 0016.674 4.15 30.52 30.52 0 009.252-1.546 35.688 35.688 0 008.748-4.431 29.926 29.926 0 002.701-2.051 51.555 51.555 0 007.851 4.927 83.733 83.733 0 0023.371 7.607 111.095 111.095 0 0017.8 1.675 92.063 92.063 0 0019.71-1.713l2.007-.48-1.424 1.362c-1.491 1.506-2.849 3.043-4.127 4.52a67.874 67.874 0 00-6.038 8.409c-3.07 5.054-4.249 8.515-3.826 8.729.423.214 2.449-2.743 5.896-7.216 1.758-2.231 3.864-4.854 6.394-7.58a99.55 99.55 0 014.065-4.177c.737-.697 1.48-1.406 2.245-2.102.386-.353.751-.644 1.285-1.2a4.63 4.63 0 001.324-2.634 3.96 3.96 0 00-.14-1.598 4.804 4.804 0 00-.538-1.145 8.748 8.748 0 00-1.209-1.426c-.699-.707-1.412-1.392-2.095-2.074a345.206 345.206 0 00-4.042-3.851 150.96 150.96 0 00-7.166-6.14c-4.157-3.31-7.029-5.09-7.371-4.68-.343.409 1.866 2.943 5.566 6.808l6.549 6.71a1013.51 1013.51 0 013.859 3.957c.665.688 1.353 1.388 2.041 2.089a.19.19 0 00.068.04c-.808.033-1.949.117-3.573.303-6.328.66-12.692.903-19.051.728a119.855 119.855 0 01-17.116-1.887 81.983 81.983 0 01-22.194-7.307 49.757 49.757 0 01-6.602-4.069c.423-.469.845-.938 1.245-1.42l-.057-.033zM72.2 44.635a34.994 34.994 0 01-2.48-2.721c-.377-.476-.735-.986-1.11-1.492l-.55-.757-.487-.812a25.686 25.686 0 01-3.097-7.037 28.812 28.812 0 01-1.04-8.08c-.015-2.898.257-5.79.813-8.633l.223-1.07.291-1.03c.188-.682.413-1.352.674-2.008.234-.67.555-1.197.872-1.879.324-.565.695-1.102 1.109-1.605a5.097 5.097 0 015.898-1.965 11.194 11.194 0 015.46 5.231 24.965 24.965 0 012.741 8.182 38.11 38.11 0 01.289 9.117 32.688 32.688 0 01-1.873 8.947 29.39 29.39 0 01-4.553 7.885 32.068 32.068 0 01-1.275 1.525 56.269 56.269 0 01-1.986-1.815"/></svg>