<svg width="64" height="65" viewBox="0 0 64 65" fill="none" xmlns="http://www.w3.org/2000/svg">
<path d="M34.869 0.870117C51.7818 0.870117 64 12.7929 64 30.3214C64 47.85 51.7818 64.8701 34.869 64.8701C17.9561 64.8701 0 51.5315 0 34.0029C0 16.4743 17.9561 0.870117 34.869 0.870117Z" fill="#7BC35A"/>
<g filter="url(#filter0_d_2514_4120)">
<path d="M15.7181 17.1016C20.7302 13.5181 24.2702 23.6346 23.0573 27.5673C22.3909 28.6412 20.7856 30.9769 19.6949 31.7281C18.3315 32.667 11.3663 32.0268 9.02752 29.6833C6.68873 27.3398 10.706 20.685 15.7181 17.1016Z" fill="#F48C6B"/>
<path d="M20.4954 29.031C19.4779 30.1627 14.7489 29.4865 13.5302 28.3908C12.3115 27.2951 13.3393 25.1616 14.3567 24.0299C15.3742 22.8982 17.6786 22.1644 18.8973 23.2601C20.1161 24.3558 21.5128 27.8993 20.4954 29.031Z" fill="white"/>
<path d="M55.2148 20.4306C59.1854 25.1419 49.3825 29.475 45.3658 28.5787C44.2423 27.9999 41.7863 26.5853 40.9508 25.5578C39.9065 24.2734 39.9908 17.2794 42.1409 14.7616C44.291 12.2439 51.2442 15.7193 55.2148 20.4306Z" fill="#F48C6B"/>
<path d="M43.7028 26.1414C42.4939 25.2172 42.7919 20.4494 43.7872 19.1474C44.7825 17.8454 46.991 18.7003 48.2 19.6246C49.409 20.5488 50.3238 22.7876 49.3284 24.0896C48.3331 25.3915 44.9118 27.0656 43.7028 26.1414Z" fill="white"/>
<path d="M53.1468 38.2451C53.1468 46.3223 43.926 52.8701 33.8588 52.8701C23.7916 52.8701 15.6305 46.3223 15.6305 38.2451C15.6305 30.168 19.2338 23.6201 33.8588 23.6201C47.424 23.6201 53.1468 30.168 53.1468 38.2451Z" fill="#F48C6B"/>
<path d="M25.1577 38.457C26.0056 36.3374 28.9838 33.7939 34.4838 33.7939C47.636 33.7939 44.2447 45.8755 42.3371 47.7831C40.4295 49.6907 34.4838 51.3863 28.3371 48.4189C22.1903 45.4516 24.3099 40.5766 25.1577 38.457Z" fill="white"/>
<circle cx="27.4999" cy="32.9462" r="0.847826" fill="black"/>
<circle cx="41.913" cy="32.0983" r="0.847826" fill="black"/>
<path d="M30.4674 46.5114C33.8587 47.5712 36.8261 48.2071 40.0054 45.6636" stroke="black" stroke-width="2" stroke-linecap="round"/>
<path d="M37.038 34.2179C37.038 34.9203 35.972 35.9136 34.9184 35.9136C33.8649 35.9136 32.7989 34.9203 32.7989 34.2179C32.7989 33.5156 33.8649 33.3701 34.9184 33.3701C35.972 33.3701 37.038 33.5156 37.038 34.2179Z" fill="black"/>
</g>
<defs>
<filter id="filter0_d_2514_4120" x="5.81493" y="13.9175" width="52.8575" height="44.0109" filterUnits="userSpaceOnUse" color-interpolation-filters="sRGB">
<feFlood flood-opacity="0" result="BackgroundImageFix"/>
<feColorMatrix in="SourceAlpha" type="matrix" values="0 0 0 0 0 0 0 0 0 0 0 0 0 0 0 0 0 0 127 0" result="hardAlpha"/>
<feOffset dy="2.52914"/>
<feGaussianBlur stdDeviation="1.26457"/>
<feComposite in2="hardAlpha" operator="out"/>
<feColorMatrix type="matrix" values="0 0 0 0 0.407595 0 0 0 0 0.708511 0 0 0 0 0.269675 0 0 0 1 0"/>
<feBlend mode="normal" in2="BackgroundImageFix" result="effect1_dropShadow_2514_4120"/>
<feBlend mode="normal" in="SourceGraphic" in2="effect1_dropShadow_2514_4120" result="shape"/>
</filter>
</defs>
</svg>
