<svg width="63" height="47" viewBox="0 0 63 47" fill="none" xmlns="http://www.w3.org/2000/svg">
<path d="M1.73682 38.0101C1.88318 42.4406 5.60421 45.9073 10.0339 45.7403L53.686 44.094C57.9839 43.932 61.3845 40.4007 61.3845 36.0997L61.3844 16.1224C61.3844 11.9794 58.2213 8.52185 54.0946 8.15405L9.59732 4.18808C4.81213 3.76159 0.732845 7.61909 0.891465 12.4206L1.73682 38.0101Z" fill="#EB433C"/>
<path d="M24.4886 31.5258L24.5058 30.2308C24.5046 30.0446 24.4887 29.5284 24.4579 28.6822C24.4645 28.386 24.4838 28.0938 24.5159 27.8059C24.5478 27.5094 24.5628 27.2046 24.5609 26.8915L24.5599 26.7392C24.5571 26.2991 24.5881 25.8376 24.6527 25.3548C24.7093 24.9397 24.7365 24.5502 24.7342 24.1863C24.7331 24.0085 24.7235 23.8351 24.7055 23.6659L24.5122 19.1856L24.4994 19.173C24.1521 19.1329 23.7754 19.1141 23.3691 19.1167L23.2168 19.1176L22.7727 19.1585C22.7184 19.9375 22.6786 20.3356 22.6533 20.3526L22.3803 23.3632C22.2942 24.464 22.1575 25.599 21.9702 26.7682C21.9044 27.0649 21.8308 27.4801 21.7495 28.0138C21.5728 29.5045 21.2755 30.6786 20.8577 31.5361L21.5306 31.5318L21.5306 31.5445C22.0215 31.533 22.5165 31.5256 23.0159 31.5225L24.4886 31.5258ZM26.8411 36.1576C26.6295 36.1589 26.4644 36.143 26.3457 36.1099C26.1761 36.0602 26.0906 35.9253 26.0892 35.7053C26.0885 35.5868 26.1083 35.3666 26.1485 35.0447L26.2334 34.4094L25.4971 34.4141C25.2516 34.4156 24.9977 34.4088 24.7352 34.3935C24.6251 34.3857 24.2738 34.3752 23.6813 34.3621C23.0465 34.3661 22.4795 34.3654 21.9801 34.3601C21.4892 34.3632 21.193 34.3693 21.0915 34.3784C20.8631 34.3968 20.5458 34.4115 20.1396 34.4225L18.6671 34.4572L18.7075 34.8124C18.7608 35.2184 18.7881 35.5229 18.7894 35.726C18.7909 35.9545 18.7029 36.0989 18.5255 36.1593C18.4073 36.1939 18.2423 36.2119 18.0308 36.2132L17.3832 36.1919L17.0532 36.2067L16.215 36.1739C16.1793 35.8779 16.135 35.5566 16.082 35.2099C16.0025 34.6772 15.9622 34.3389 15.9613 34.195C15.8223 33.6204 15.7504 32.9649 15.7458 32.2286L15.7293 31.632C15.9578 31.6305 16.1863 31.6206 16.4147 31.6022C16.5585 31.5929 16.7066 31.5877 16.8589 31.5867L17.1636 31.5848C17.4675 31.4559 17.775 31.2255 18.086 30.8934C18.1194 30.817 18.1654 30.7279 18.224 30.626C18.962 29.5464 19.3692 27.6987 19.4458 25.083C19.4803 23.847 19.5667 22.7885 19.7051 21.9074C19.8518 21.0178 19.9543 20.5051 20.0127 20.3693C19.967 19.8364 19.9426 19.316 19.9394 18.8082C19.9354 18.1819 19.9655 17.5766 20.0295 16.9922L20.0888 16.3317L20.7235 16.3276C20.7997 16.3272 20.8843 16.3182 20.9773 16.3007C21.0703 16.2831 21.1718 16.274 21.2818 16.2733L22.5641 16.2779C22.9534 16.2755 23.6009 16.2841 24.5067 16.3037L25.5857 16.2842C26.1696 16.2805 26.5421 16.2951 26.7032 16.328C26.8726 16.3523 27.0715 16.3637 27.3001 16.3623C27.3615 18.0462 27.3976 19.7387 27.4083 21.4398C27.4199 23.2764 27.4019 25.1173 27.3543 26.9627L27.3472 27.8388L27.3832 29.5143C27.3858 29.9291 27.38 30.348 27.3657 30.7713L27.3667 30.9237C27.3679 31.1183 27.3818 31.3129 27.4084 31.5074L28.0814 31.5158L28.5385 31.5256C28.7586 31.5412 28.9872 31.5482 29.2242 31.5467L29.1898 32.1436C29.1692 32.8885 29.0844 33.545 28.9357 34.113C28.9365 34.2484 28.8391 34.9092 28.6435 36.0954L27.8186 36.1387L27.1838 36.1427L26.8411 36.1576ZM37.6663 31.4807C39.7314 31.4676 40.9102 30.508 41.2029 28.6018C41.235 28.3223 41.2795 28.0089 41.3366 27.6615C41.4911 26.6703 41.5671 25.9673 41.5645 25.5526C41.5488 23.0728 40.722 20.814 39.0841 18.7761C38.9315 18.7433 38.8001 18.6975 38.6897 18.639C38.5198 18.547 38.3376 18.5016 38.1429 18.5028C37.9906 18.5038 37.7877 18.5474 37.5343 18.6336C36.7912 18.9007 36.3102 19.1195 36.0912 19.2902C35.5193 19.8693 35.0679 20.7566 34.7369 21.9521C34.4059 23.1476 34.2429 24.1473 34.248 24.9514L34.2697 26.3731C34.2745 27.1348 34.2537 27.8586 34.2072 28.5445C34.2838 28.6032 34.4465 28.9027 34.6953 29.4428C34.9789 30.1096 35.2187 30.5609 35.4149 30.7966C35.7556 31.15 36.358 31.3704 37.2218 31.4581C37.3743 31.474 37.5224 31.4816 37.6663 31.4807ZM36.4809 34.7509C34.7713 34.7617 33.4723 34.1182 32.5838 32.8204C32.2932 32.3737 31.9883 31.6604 31.6689 30.6807C31.3496 29.7009 31.1107 28.7333 30.9523 27.7779C30.8905 27.372 30.8587 27.0168 30.8567 26.7121C30.8542 26.3058 30.9072 25.9966 31.0159 25.7843C30.9896 25.6321 30.9757 25.4545 30.9745 25.2513C30.9716 24.8028 31.0436 24.1379 31.1904 23.2568C31.3372 22.3756 31.5767 21.4473 31.9091 20.4719C32.25 19.4964 32.61 18.8721 32.9891 18.5988C33.1801 18.0136 33.7646 17.4344 34.7428 16.8612C35.7209 16.2794 36.6625 15.9392 37.5675 15.8404L38.2654 15.7852C38.5191 15.7582 38.7391 15.7441 38.9253 15.7429C39.1031 15.7502 39.298 15.7913 39.5101 15.8662C40.019 16.0492 40.5455 16.3167 41.0894 16.6687C41.8288 17.1549 42.246 17.5459 42.341 17.8415C42.6726 18.0848 42.9545 18.4935 43.1866 19.0676C43.4272 19.6332 43.6252 20.1736 43.7808 20.6889C43.9364 21.1957 44.0526 21.4955 44.1293 21.5881C44.2082 22.0192 44.2998 22.4461 44.404 22.8686C44.6381 23.7473 44.7623 24.6522 44.7766 25.5831C44.7606 25.7186 44.7361 25.8669 44.7033 26.0279C44.6704 26.1805 44.6458 26.3076 44.6295 26.4092C44.6306 26.5785 44.644 26.7011 44.6699 26.7771C44.7042 26.8446 44.7303 26.9587 44.7483 27.1194C44.7419 27.4496 44.6805 27.7758 44.564 28.0982C44.5059 28.2847 44.4563 28.467 44.4151 28.645C44.2432 29.5602 43.8766 30.485 43.3154 31.4196C42.7627 32.3541 42.0688 33.0356 41.2336 33.464C40.5765 33.9506 39.6858 34.3033 38.5615 34.5219C37.8092 34.6706 37.1156 34.7469 36.4809 34.7509Z" fill="white"/>
</svg>
