<svg xmlns="http://www.w3.org/2000/svg" width="317" height="203" fill="none"><path fill="#fff" d="M81.701 108h-.136c-.163 0-.267-.01-.313-.029l-.195-.088-.44-5.762-.42-.01c-.26 0-.491.017-.693.049a5.548 5.548 0 01-.733.069c-.266 0-.566-.017-.898-.049l-.752-.049c-.02.508-.032.963-.039 1.367a49.234 49.234 0 01-.146 2.92c-.007.098-.01.202-.01.312l.02.694c0 .208-.014.394-.04.556a3.897 3.897 0 00-.586-.039l-.341.01c-.17.02-.316.029-.44.029a.848.848 0 01-.283-.048c-.124-.052-.186-.306-.186-.762 0-.228.017-.521.05-.879-.131-3.262-.2-5.111-.206-5.547a162.43 162.43 0 01-.039-3.34c0-1.321.033-2.063.098-2.226v-.615c0-.228.032-.375.097-.44.072-.065.41-.098 1.016-.098.377 0 .651.03.82.088.196.072.293.248.293.528v.146a12.084 12.084 0 00-.01 1.533l.01.596c0 .345-.013.684-.039 1.016-.026.273-.039.735-.039 1.386 0 .306.01.554.03.743.787.052 1.572.078 2.353.078a29.3 29.3 0 001.064-.02c.007-.189.01-.407.01-.654l-.01-.86a30.91 30.91 0 01-.02-1.103c0-.488.01-1.074.03-1.758.02-.69.101-1.23.244-1.621a1.64 1.64 0 01.664-.117c.358 0 .677.042.957.127l.108 4.297c.078 1.087.117 2.116.117 3.086 0 .442-.01.836-.03 1.181.098.137.167.677.206 1.621.013.476.02.83.02 1.065 0 .15-.01.293-.03.429a8.4 8.4 0 00-.03.43c0 .241.02.518.06.83.019.176.032.336.038.479l.05.322c-.19.065-.606.107-1.25.127zm7.5-2.217c1.589 0 2.5-.732 2.735-2.197.026-.215.061-.456.107-.723.124-.761.185-1.302.185-1.621 0-1.907-.624-3.649-1.874-5.224a1.18 1.18 0 01-.303-.108.857.857 0 00-.42-.107c-.117 0-.274.032-.469.097-.573.202-.944.368-1.113.498-.443.443-.794 1.124-1.055 2.041-.26.918-.39 1.687-.39 2.305l.01 1.094c0 .586-.02 1.142-.06 1.67.06.045.183.277.372.693.215.514.397.863.547 1.045.26.274.722.446 1.386.518.118.013.232.019.342.019zm-.928 2.51c-1.315 0-2.31-.501-2.988-1.504-.221-.345-.452-.895-.693-1.65a15.239 15.239 0 01-.537-2.237 5.769 5.769 0 01-.069-.82c0-.312.043-.55.127-.713a2.526 2.526 0 01-.029-.41c0-.345.059-.856.176-1.533.117-.677.306-1.39.566-2.139.267-.749.547-1.227.84-1.435.15-.45.602-.892 1.357-1.329.756-.442 1.482-.7 2.178-.771l.537-.04c.196-.019.365-.028.508-.028.137.006.287.039.45.097.39.143.794.352 1.21.625.567.378.886.68.957.908.254.19.469.505.645.948.182.436.332.853.449 1.25.117.39.205.621.264.693.058.332.127.66.205.986.176.677.267 1.374.273 2.09a4.202 4.202 0 01-.058.342 5.89 5.89 0 00-.059.293c0 .13.01.225.03.283a.87.87 0 01.058.264 2.337 2.337 0 01-.147.752 5.862 5.862 0 00-.117.42c-.137.703-.423 1.413-.86 2.129-.429.716-.966 1.237-1.61 1.562-.508.371-1.195.638-2.061.801a8.555 8.555 0 01-1.602.166zm18.594-.01c-.15 0-.303-.01-.459-.029a3.505 3.505 0 00-.342-.02 4.259 4.259 0 01-.732-.058c-.143-.033-.234-.104-.273-.215a2.46 2.46 0 01-.059-.557v-.058c0-.352-.055-.886-.166-1.602a40.65 40.65 0 01-.322-2.529c-.091-.97-.183-1.664-.274-2.08-.247.442-.677 1.959-1.289 4.551-.364 1.529-.586 2.373-.664 2.529l-.381.068a6.304 6.304 0 01-.459-1.133l-.185-.527a5.458 5.458 0 01-.283-.84 6.22 6.22 0 00-.254-.849c-.157-.372-.358-1.101-.606-2.188a12.76 12.76 0 00-.137-.586 23.18 23.18 0 01-.097-.459 2.366 2.366 0 00-.078-.215c-.013-.026-.03-.039-.05-.039a.066.066 0 01-.048-.019l-.654 2.09c-.17.501-.33 1.025-.479 1.572l-.136.508a18.578 18.578 0 00-.4 1.621c-.073.423-.16.687-.265.791-.084.084-.244.127-.478.127a3.96 3.96 0 01-.86-.078 1.327 1.327 0 01-.449-.225v-.146c0-.274.043-.746.127-1.417.085-.677.186-1.373.303-2.089.124-.723.234-1.172.332-1.348a.507.507 0 01-.02-.156c0-.111.02-.277.06-.498.077-.495.191-.948.34-1.358.06-.345.164-.781.313-1.308.19-.73.284-1.172.284-1.328.045-.072.133-.352.263-.84a37.7 37.7 0 01.723-2.237c.293-.807.596-1.315.908-1.523.273.345.44.745.498 1.201.046.234.111.472.195.713.573 1.667 1.104 3.695 1.592 6.084l.078.352c.15-.17.277-.476.381-.918.13-.528.811-2.08 2.041-4.659.436-.918.746-1.533.928-1.845.189-.32.365-.479.527-.479.065 0 .134.016.205.049.02.02.052.325.098.918.143 1.823.3 2.904.469 3.242a2.948 2.948 0 00-.039.518c0 .403.058 1.077.176 2.021.058.417.097.762.117 1.035l.234 3.76c.098.228.147.853.147 1.875 0 .391-.02.632-.059.723-.078.071-.192.107-.342.107zm6.973-.283h-.332c-.267 0-.781-.013-1.543-.039v-.02l-.938.01-.673.01c-.482 0-.915-.02-1.299-.059a43.445 43.445 0 01-.088-1.875 136.49 136.49 0 01-.098-4.814c0-1.803.055-2.829.166-3.076-.052-.228-.078-.603-.078-1.123 0-.912.036-1.833.107-2.764.17-.156.831-.234 1.983-.234.482 0 .996.01 1.543.029a13.416 13.416 0 001.445 0c.254-.02.501-.03.742-.03.677 0 1.293.076 1.846.225a3.876 3.876 0 01.068 1.446c-.045.234-.149.351-.312.351l-2.012-.01-2.002-.02c-.631 0-1.054.007-1.269.02l-.01.742v.616l-.01.615a31.753 31.753 0 00-.039 1.543c0 .208.007.378.02.508.097.058.7.088 1.806.088.677 0 1.335.013 1.973.039.638.026 1.081.097 1.328.215.104.423.156.768.156 1.035 0 .293-.065.491-.195.595-.215.17-.771.254-1.67.254l-.478-.009-1.055.009-1.826.078-.078 2.979c.605.111 1.8.166 3.584.166 1.276 0 1.959.036 2.05.107.105.241.153.525.147.85 0 .332-.029.632-.088.898-.052.267-.166.43-.342.489a1.625 1.625 0 01-.488.068h-.44l-1.601.088zm7.5-8.545c1.745-.117 2.633-.697 2.666-1.738-.02-.625-.306-1.09-.86-1.397-.201-.09-.494-.175-.878-.254-.385-.078-.671-.117-.86-.117l.01 1.338c0 .71-.026 1.432-.078 2.168zM120.207 108h-.127c-.325 0-.618-.046-.879-.137a21.438 21.438 0 01-.195-2.998c0-.801.036-1.65.107-2.549.065-.95.098-1.79.098-2.52l-.049-1.581v-.293c0-.84.049-1.299.147-1.377a2.434 2.434 0 01-.02-.352c0-.104.003-.27.01-.498.013-.228.032-.504.058-.83.033-.325.066-.553.098-.683.208-.124.573-.186 1.094-.186.736 0 1.533.085 2.392.254.704.137 1.205.306 1.504.508.43.306.684.495.762.566.156.15.358.505.605 1.065.124.332.186.739.186 1.22l-.01.43a1.555 1.555 0 01-.263.8c-.065.378-.248.798-.547 1.261-.3.462-.616.787-.948.976a7.843 7.843 0 01-2.841.781c-.052.248-.108.678-.166 1.289-.124 1.264-.186 2.256-.186 2.979l.01.313c0 .182-.003.335-.01.458v.147c0 .254.042.501.127.742-.254.124-.573.195-.957.215zm18.76.225l-.684-.157a5.77 5.77 0 01-.039-.781c0-.377.01-.853.029-1.426l-.019-.859-.02-.479c.007-.527.033-1.549.078-3.066l.01-1.445-.01-1.573-.224.303c-.443.619-.772 1.032-.986 1.24l-.704-.312a2.474 2.474 0 00-.4-.342c-.156-.091-.322-.257-.498-.498.052-.156.234-.443.547-.86.169-.22.303-.413.4-.576.228-.358.531-.758.908-1.2.202-.242.381-.466.538-.675.006-.097.097-.27.273-.517.078-.11.153-.225.225-.342l.166-.244c.26-.124.501-.189.722-.195.228-.013.365-.02.41-.02.326 0 .59.059.791.176.027.059.049.286.069.684.019.39.032.784.039 1.181.013.397.019.72.019.967 0 .885-.022 1.442-.068 1.67l.039 1.348c.02.696.029 1.246.029 1.65 0 .417-.009.918-.029 1.504 0 .104-.01.241-.029.41a.946.946 0 01-.059.264v.263l.02 1.202c0 .319-.01.612-.03.878a6.912 6.912 0 00-.029.694c0 .514-.029.849-.088 1.006a1.945 1.945 0 01-.625.117 1.73 1.73 0 01-.185-.01 1.926 1.926 0 00-.196-.01c-.123 0-.253.01-.39.03zm13.32-8.077c.521-.071 1.035-.296 1.543-.673.514-.378.785-.915.811-1.612a2.151 2.151 0 00-.254-.879 1.55 1.55 0 00-.596-.644 2.942 2.942 0 00-.723-.205 3.758 3.758 0 00-.693-.088l.01 1.289c0 .957-.033 1.895-.098 2.812zm.625 6.426c.716 0 1.234-.14 1.553-.42.137-.117.254-.241.351-.371l.235-.254a3.73 3.73 0 01.039-.381c.032-.162.049-.351.049-.566a2.663 2.663 0 00-.342-1.27 1.784 1.784 0 00-.947-.839c-.411-.144-.756-.215-1.036-.215-.149 0-.302.013-.459.039v.049a4.218 4.218 0 00-.029.468c0 .092.01.206.029.342l-.214 2.715.048.635c.248.045.489.068.723.068zm-1.211 1.807c-.364 0-.752-.029-1.162-.088-.039-.319-.078-.934-.117-1.846a84.566 84.566 0 01-.068-3.486c0-.846.016-1.589.048-2.227 0-.364-.006-.722-.019-1.074 0-.058-.003-.114-.01-.166v-.146c-.006-.28-.01-.694-.01-1.24 0-.867.052-1.345.157-1.436a4.748 4.748 0 01-.01-.361c0-.105.003-.274.01-.508.013-.241.032-.528.058-.86a9.2 9.2 0 01.088-.712c.221-.144.605-.215 1.152-.215l.498.01c.306.006.759.074 1.358.205.605.123 1.041.29 1.308.498.385.312.616.51.694.595.15.157.332.521.547 1.094.11.325.166.716.166 1.172 0 .052-.007.221-.02.508-.006.286-.091.57-.254.85a3.722 3.722 0 01-.371 1.142c-.189.39-.42.683-.693.879.13.058.244.12.342.185l.488.176c.045.072.13.166.254.283.358.358.618.769.781 1.231.033.136.072.377.117.722.059.398.088.759.088 1.084 0 .267-.032.427-.098.479-.006.202-.084.472-.234.81-.15.339-.332.645-.547.918-.208.274-.4.414-.576.42-.117.163-.316.31-.596.44a6.71 6.71 0 01-1.67.508c-.651.104-1.217.156-1.699.156zm15.772-8.926c1.744-.117 2.633-.697 2.666-1.738-.02-.625-.306-1.09-.86-1.397-.202-.09-.494-.175-.879-.254-.384-.078-.67-.117-.859-.117l.01 1.338c0 .71-.026 1.432-.078 2.168zM166.34 108h-.127a2.65 2.65 0 01-.879-.137 21.438 21.438 0 01-.195-2.998c0-.801.035-1.65.107-2.549.065-.95.098-1.79.098-2.52l-.049-1.581v-.293c0-.84.049-1.299.146-1.377a2.46 2.46 0 01-.019-.352c0-.104.003-.27.01-.498.013-.228.032-.504.058-.83.033-.325.065-.553.098-.683.208-.124.573-.186 1.094-.186.735 0 1.533.085 2.392.254.703.137 1.205.306 1.504.508.43.306.684.495.762.566.156.15.358.505.605 1.065.124.332.186.739.186 1.22l-.01.43a1.547 1.547 0 01-.264.8c-.065.378-.247.798-.546 1.261-.3.462-.616.787-.948.976a7.842 7.842 0 01-2.842.781c-.052.248-.107.678-.166 1.289-.123 1.264-.185 2.256-.185 2.979l.01.313c0 .182-.004.335-.01.458v.147c0 .254.042.501.127.742-.254.124-.573.195-.957.215zm12.187 0h-.332c-.267 0-.781-.013-1.543-.039v-.02l-.937.01-.674.01c-.482 0-.915-.02-1.299-.059a45.242 45.242 0 01-.088-1.875 136.276 136.276 0 01-.097-4.814c0-1.803.055-2.829.166-3.076-.052-.228-.078-.603-.078-1.123 0-.912.035-1.833.107-2.764.169-.156.83-.234 1.982-.234.482 0 .996.01 1.543.029a13.453 13.453 0 001.446 0c.254-.02.501-.03.742-.03a7.07 7.07 0 011.846.225c.071.274.107.6.107.977 0 .17-.013.325-.039.469-.046.234-.15.351-.313.351l-2.011-.01-2.002-.02c-.632 0-1.055.007-1.27.02l-.01.742v.616l-.009.615a31.753 31.753 0 00-.039 1.543c0 .208.006.378.019.508.098.058.7.088 1.807.088.677 0 1.334.013 1.972.039.638.026 1.081.097 1.329.215.104.423.156.768.156 1.035 0 .293-.065.491-.196.595-.214.17-.771.254-1.669.254l-.479-.009-1.055.009-1.826.078-.078 2.979c.606.111 1.8.166 3.584.166 1.276 0 1.96.036 2.051.107.104.241.153.525.146.85 0 .332-.029.632-.088.898-.052.267-.166.43-.341.489a1.632 1.632 0 01-.489.068h-.439l-1.602.088zm6.846 0c-.182 0-.43-.01-.742-.029a5.45 5.45 0 00-.41.009c-.111.013-.222.02-.332.02-.098 0-.199-.013-.303-.039-.098-.026-.156-.13-.176-.313.072-.306.114-.618.127-.937l.039-.43c0-.319-.003-.628-.01-.927a76.576 76.576 0 01.079-5.674c.078-1.446.117-2.702.117-3.77 0-.697-.02-1.28-.059-1.748l.156-.059a.29.29 0 00.098-.01.075.075 0 01.029-.009c0-.026.072-.04.215-.04.254 0 .417-.006.488-.019a1.38 1.38 0 01.225-.02c.104 0 .228.024.371.07l.176.038h.225c.091 0 .192.01.302.03l-.019.341a14.07 14.07 0 00-.137 2.041l.02 1.035c0 .495-.017.964-.049 1.407a130.665 130.665 0 01-.215 2.402l-.01.029c.033.111.049.238.049.381 0 .235-.052.935-.156 2.1.058-.13.553-1.335 1.484-3.613.527-1.276.84-1.957.938-2.041a3.78 3.78 0 01.263-.713c.091-.209.202-.492.332-.85.15-.436.277-.71.381-.82v-.04c0-.11.046-.296.137-.556.098-.286.176-.43.234-.43.098-.436.296-.654.596-.654h.049c.351-.02.801-.03 1.347-.03.248 0 .404.007.469.02l-.01.918c.033.078.049.502.049 1.27 0 .215-.003.508-.01.879-.006.37-.019.748-.039 1.133-.013.377-.026.589-.039.634l.02.801c.065.814.098 1.699.098 2.656 0 .957-.013 1.849-.04 2.676v.899c0 .911-.048 1.52-.146 1.826a1.36 1.36 0 00-.234.039 4.272 4.272 0 01-.401.039l-.566.019c-.156 0-.3-.013-.43-.039-.195-.045-.293-.182-.293-.41v-.049c.026-.397.069-1.832.127-4.306.039-1.94.085-3.402.137-4.385-.143.267-.345.69-.606 1.269-.664 1.472-1.064 2.474-1.201 3.008-.019.072-.127.368-.322.889-.254.658-.423 1.042-.508 1.152-.592 1.296-.898 2.006-.918 2.129a.814.814 0 00-.156.293c-.078.169-.16.29-.244.362-.052.097-.251.146-.596.146zm2.598-14.775c-.658 0-1.358-.166-2.1-.498a1.26 1.26 0 01-.059-.381c0-.183.01-.3.03-.352-.033-.065-.049-.283-.049-.654 0-.228.029-.342.088-.342l.039.01c.514.286.996.43 1.445.43l.205-.01.528-.03a4.1 4.1 0 001.718-.351c.345.3.564.674.655 1.123-.697.703-1.53 1.055-2.5 1.055zm10.586 14.941c-.222 0-.479-.023-.772-.068-.293-.039-.475-.108-.547-.205-.032-.131-.049-.42-.049-.87 0-.774.017-1.562.049-2.363.059-1.849.13-2.894.215-3.135a3.423 3.423 0 01-.049-.654l.01-.84.01-.488c0-.11-.007-.244-.02-.4a11.98 11.98 0 01-.029-.83c0-.294.026-.512.078-.655a2.738 2.738 0 01-.078-.713l.01-.175a1.57 1.57 0 00-.01-.186 12.549 12.549 0 00-1.523-.078c-.593 0-1.15.006-1.67.02-.313.012-.57.019-.772.019-.202 0-.322-.007-.361-.02a8.055 8.055 0 01-.108-1.123c0-.43.046-.784.137-1.064.658-.11 1.553-.195 2.686-.254l8.134.02c.053.22.079.608.079 1.162 0 .253-.004.42-.01.498a.8.8 0 01-.127.351 1.803 1.803 0 00-.137.225c-.241-.033-.703-.049-1.387-.049-1.406 0-2.223.023-2.451.068l.049 2.1.059.82-.049 4.385a19.17 19.17 0 01-.108 1.484 7.925 7.925 0 00-.097 1.26l.019.703c0 .235-.009.466-.029.694-.137.241-.521.361-1.152.361zm6.875-.166c-.098 0-.199-.013-.303-.039-.098-.026-.156-.13-.176-.313.072-.306.114-.618.127-.937l.039-.43c0-.319-.003-.628-.01-.927a76.576 76.576 0 01.079-5.674c.078-1.446.117-2.702.117-3.77 0-.697-.02-1.28-.059-1.748l.156-.059a.29.29 0 00.098-.01.075.075 0 01.029-.009c0-.026.072-.04.215-.04.254 0 .417-.006.488-.019a1.38 1.38 0 01.225-.02c.104 0 .228.024.371.07l.176.038h.225c.091 0 .192.01.302.03l-.019.341a14.07 14.07 0 00-.137 2.041l.02 1.035c0 .495-.017.964-.049 1.407l-.205 2.373a.04.04 0 01-.01.029l-.01.029c.033.111.049.238.049.381 0 .235-.052.935-.156 2.1.065-.143.169-.391.312-.742l1.172-2.871c.527-1.276.84-1.957.938-2.041a3.78 3.78 0 01.263-.713c.091-.209.202-.492.332-.85.15-.436.277-.71.381-.82v-.04c0-.11.046-.296.137-.556.097-.286.172-.43.224-.43h.01c.039-.182.108-.335.205-.459a.465.465 0 01.391-.195h.049c.351-.02.801-.03 1.347-.03.248 0 .404.007.469.02l-.01.918c.033.078.049.502.049 1.27 0 .215-.003.508-.01.879-.006.37-.019.748-.039 1.133-.013.377-.026.589-.039.634l.02.801c.065.814.097 1.699.097 2.656 0 .957-.013 1.849-.039 2.676v.899c0 .911-.048 1.52-.146 1.826a1.36 1.36 0 00-.234.039 4.373 4.373 0 01-.411.039l-.556.019c-.156 0-.3-.013-.43-.039-.195-.045-.293-.182-.293-.41v-.049c.026-.397.052-1.191.078-2.382l.088-3.858c.013-.651.046-1.468.098-2.451-.143.267-.345.69-.606 1.269-.664 1.472-1.064 2.474-1.201 3.008-.019.072-.127.368-.322.889-.254.658-.423 1.042-.508 1.152l-.303.664c-.39.879-.595 1.368-.615 1.465a.814.814 0 00-.156.293c-.078.169-.16.29-.244.362-.052.097-.251.146-.596.146a8.53 8.53 0 01-.566-.02l-.352-.009c-.098 0-.176.003-.234.009-.111.013-.222.02-.332.02zm16.523 0h-.137c-.162 0-.267-.01-.312-.029l-.195-.088-.44-5.762-.42-.01c-.26 0-.491.017-.693.049a5.545 5.545 0 01-.733.069c-.267 0-.566-.017-.898-.049l-.752-.049c-.02.508-.033.963-.039 1.367a49.021 49.021 0 01-.147 2.92 5.116 5.116 0 00-.009.312l.019.694c0 .208-.013.394-.039.556a3.891 3.891 0 00-.586-.039l-.342.01c-.169.02-.315.029-.439.029a.845.845 0 01-.283-.048c-.124-.052-.186-.306-.186-.762 0-.228.016-.521.049-.879-.13-3.262-.199-5.111-.205-5.547a162.43 162.43 0 01-.039-3.34c0-1.321.032-2.063.098-2.226v-.615c0-.228.032-.375.097-.44.072-.065.41-.098 1.016-.098.377 0 .651.03.82.088.195.072.293.248.293.528v.146a12.402 12.402 0 00-.01 1.533l.01.596c0 .345-.013.684-.039 1.016-.026.273-.039.735-.039 1.386 0 .306.01.554.029.743.788.052 1.573.078 2.354.078.351 0 .706-.007 1.064-.02.007-.189.01-.407.01-.654l-.01-.86a30.977 30.977 0 01-.019-1.103c0-.488.009-1.074.029-1.758.02-.69.101-1.23.244-1.621a1.64 1.64 0 01.664-.117c.358 0 .677.042.957.127l.108 4.297c.078 1.087.117 2.116.117 3.086 0 .442-.01.836-.029 1.181.097.137.166.677.205 1.621.013.476.019.83.019 1.065 0 .15-.01.293-.029.429-.013.137-.023.28-.029.43 0 .241.019.518.058.83.02.176.033.336.039.479l.049.322c-.189.065-.605.107-1.25.127zm4.541 0c-.351-.013-.644-.02-.879-.02h-.303c-.188 0-.338-.003-.449-.009a.924.924 0 01-.058-.264c0-.059.003-.098.009-.117a.639.639 0 00.039-.264c0-.13-.009-.247-.029-.351a5.166 5.166 0 01-.029-.293c0-.28.023-.528.068-.743a3.83 3.83 0 00.069-.722 86.131 86.131 0 01-.079-3.36c0-1.022.007-1.868.02-2.539.033-1.634.075-2.52.127-2.656a7.753 7.753 0 01-.117-1.328c0-.26.013-.514.039-.762a10.4 10.4 0 00.029-.478c.182 0 .358-.013.527-.04.176-.032.437-.051.782-.058.41-.006 1.175-.01 2.295-.01 1.634.02 2.643.101 3.027.245.02.123.029.26.029.41 0 .123-.006.257-.019.4-.013.137-.02.273-.02.41-.039.456-.299.713-.781.772a5.543 5.543 0 01-.742.049c-.261 0-.528-.014-.801-.04a7.197 7.197 0 00-.85-.048c-.39.039-.778.058-1.162.058l-.068 2.969c-.02.182-.029.387-.029.615 0 .293.016.625.048.996.033.41.049.778.049 1.104 0 .13-.032 1.178-.097 3.144l.019 1.436c.013.247.02.459.02.635 0 .175-.01.345-.03.507-.013.163-.074.267-.185.313-.085.026-.241.039-.469.039zm11.973 0h-.332c-.267 0-.782-.013-1.543-.039v-.02l-.938.01-.674.01c-.481 0-.914-.02-1.298-.059a43.445 43.445 0 01-.088-1.875 136.49 136.49 0 01-.098-4.814c0-1.803.055-2.829.166-3.076-.052-.228-.078-.603-.078-1.123 0-.912.036-1.833.107-2.764.17-.156.83-.234 1.983-.234.482 0 .996.01 1.543.029a13.416 13.416 0 001.445 0c.254-.02.501-.03.742-.03.677 0 1.293.076 1.846.225a3.876 3.876 0 01.068 1.446c-.045.234-.149.351-.312.351l-2.012-.01-2.002-.02c-.631 0-1.055.007-1.269.02l-.01.742v.616l-.01.615a31.753 31.753 0 00-.039 1.543c0 .208.007.378.02.508.097.058.699.088 1.806.088.677 0 1.335.013 1.973.039.638.026 1.081.097 1.328.215.104.423.156.768.156 1.035 0 .293-.065.491-.195.595-.215.17-.772.254-1.67.254l-.479-.009-1.054.009-1.826.078-.079 2.979c.606.111 1.801.166 3.584.166 1.277 0 1.96.036 2.051.107.104.241.153.525.147.85 0 .332-.03.632-.088.898-.052.267-.166.43-.342.489a1.625 1.625 0 01-.488.068h-.44l-1.601.088zM64.141 139.139h-9.874l-6.048-10.027-1.965 2.044v7.983H38v-25.228h8.254v8.142l7.078-8.142h9.681l-9.077 9.409 10.205 15.819zm11.052-9.359c0-1.154-.27-2.2-.812-3.126-.542-.927-1.378-1.393-2.52-1.393-1.02 0-1.791.466-2.31 1.399-.518.938-.777 1.978-.777 3.12 0 1.225.277 2.385.83 3.466.548 1.088 1.396 1.632 2.533 1.632 1.095 0 1.879-.526 2.35-1.584.471-1.058.706-2.229.706-3.514zm5.725 5.684c-1.95 2.892-5.293 4.245-8.75 4.245-3.564 0-6.998-1.342-8.99-4.349-1.827-2.759-2.06-7.257-.521-10.2 1.183-2.266 3.353-3.903 5.841-4.568a12.912 12.912 0 018.337.489c2.46 1.011 4.29 3.091 5.087 5.563.87 2.7.56 6.501-1.004 8.82zm63.968-7.535c-.258-1.201-.683-2.034-1.269-2.498-.591-.471-1.337-.703-2.25-.703-.884 0-1.584.225-2.101.682-.517.451-.907 1.29-1.177 2.519h6.797zm7.061 3.563h-13.786c0 .568.097 1.066.292 1.501.593 1.32 1.667 2.212 3.204 2.212 1.128 0 2.43-.454 2.672-1.68h7.061c-.268 1.739-1.378 3.274-2.807 4.282-1.441 1.014-3.212 1.579-4.96 1.779-2.242.275-4.835.2-6.912-.666-2.415-1.004-4.219-2.86-5.201-5.255a10.272 10.272 0 01-.04-7.277c.907-2.441 2.774-4.329 5.196-5.33 2.944-1.213 7.067-1.13 9.914.289 2.526 1.255 4.249 3.395 4.965 6.095.354 1.359.488 2.66.402 4.05zm19.777 4.007c-1.356 2.586-3.861 4.201-6.881 4.201-2.169 0-3.596-.705-5.061-2.21v7.911h-7.356v-24.582h6.513v2.741c1.413-2.815 4.909-3.838 7.73-3.128 3.074.767 5.144 3.351 5.88 6.255.689 2.7.45 6.4-.825 8.812zm-5.991-5.977c0-.777-.257-1.625-.779-2.539-.521-.913-1.277-1.37-2.262-1.37-.978 0-1.734.427-2.261 1.287-.527.854-.791 1.726-.791 2.622 0 1.097.205 2.123.615 3.072.416.949 1.225 1.424 2.437 1.424 1.184 0 1.981-.493 2.409-1.477.387-.95.632-1.99.632-3.019zm23.018 9.406c-2.858 1.001-6.743 1.154-9.588-.03-1.792-.745-3.38-2.003-4.383-3.676a10.243 10.243 0 01-1.49-5.341c0-1.255.264-2.488.708-3.658 1.028-2.633 2.805-4.143 5.372-5.19 2.937-1.198 7.3-1.154 10.089.364 2.658 1.446 4.049 3.438 4.414 6.374h-7.526c-.133-.903-.387-1.462-.759-1.938-1.054-1.349-3.441-.69-4.202.642-.972 1.699-1.132 4.21-.518 6.072.405 1.228 1.739 2.269 3.034 2.269 1.837 0 2.218-1.237 2.698-2.774h7.273c-.076 3.074-1.914 5.762-5.122 6.886zm18.539-6.993a3.12 3.12 0 00-.092-.834c-.505.28-1.293.523-2.364.73-.816.149-1.683.332-2.413.731-1.034.512-.978 1.978-.073 2.57 1.046.629 2.8.577 3.68-.304.837-.798 1.262-1.76 1.262-2.893zm8.183 7.204h-7.528l-.287-1.941c-.549.71-1.775 1.294-3.013 1.771a10.49 10.49 0 01-1.859.533c-.635.112-1.31.171-2.014.171-1.27 0-2.431-.223-3.484-.669-1.052-.446-1.847-1.143-2.397-2.081-.492-1.032-.738-2.076-.738-3.143 0-1.348.628-2.46 1.492-3.457.492-.569.974-.888 1.843-1.222.412-.158.819-.296 1.219-.411.395-.113.77-.222 1.127-.275l3.083-.463c1.309-.197 2.575-.367 3.134-.552.344-.114.75-.486.95-.72.201-.234.171-.481.171-.733 0-.346-.166-.633-.503-.868-.338-.234-.818-.351-1.442-.351-.749 0-1.681.111-2.133.334-.451.223-.743.668-.881 1.331h-6.974c.235-1.202.192-1.904.533-2.638.34-.732.876-1.36 1.608-1.882.732-.521 1.737-.927 3.026-1.196.622-.13 1.362-.22 2.202-.287a35.362 35.362 0 012.826-.106c2.534 0 4.432.302 5.698.903 1.263.601 2.086 1.085 2.471 1.987.382.897.64 2.064.761 3.494v9.686c0 .997.371 1.736 1.109 2.216v.569zm20.459 0h-7.262v-6.847h-5.379v6.847h-7.193l-.007-18.035.007-.275h7.193v6.135h5.297v-6.135h7.344l-.007 17.982.007.328zm20.181-12.914h-6.254v12.914h-7.285v-12.914h-6.307v-5.396h19.846v5.396zm23.591 7.054c0 1.609-.767 3.022-1.997 4.03-1.62 1.339-3.859 1.83-5.915 1.83H260.55v-12.914h-4.2v-5.396h11.209v6.426h3.835c2.134 0 4.501.418 6.193 1.82 1.272 1.053 2.117 2.527 2.117 4.204zm-7.241.019c0-1.157-.64-1.642-1.741-1.774-.223 0-.665-.018-1.32-.047a51.586 51.586 0 00-1.843-.04v3.536l1.821.035c.497.01.906-.01 1.222-.035 1.119-.083 1.861-.387 1.861-1.675zm-175.968 5.841h-3.53l-3.857-12.232.596 4.794v7.438h-6.441v-18.416h8.26l3.207 10.172 3.207-10.172h8.261v18.416h-6.441v-7.438l.596-4.794-3.858 12.232zm24.122 0h-3.53l-3.857-12.232.595 4.794v7.438h-6.441v-18.416h8.261l3.207 10.172 3.207-10.172h8.261v18.416h-6.442v-7.438l.596-4.794-3.857 12.232zm91.805 53.938c-31.967 3.877-64.343 4.012-96.519 1.735-1.668-.121-1.686-2.184 0-2.063 31.893 2.241 64.097 2.141 95.817-1.678 1.659-.2 2.378 1.792.702 1.992v.014z"/><path fill="#fff" d="M207.327 191.814c-25.514 12.792-61.053 11.757-89.702 7.852-27.984-3.833-55.203-13.049-76.135-28.319-20.12-14.677-34.5-34.743-37.652-56.281-1.49-10.58-.065-21.288 4.18-31.4 4.244-10.112 11.209-19.392 20.424-27.215 5.25-4.456 11.238-8.34 17.805-11.55A88.358 88.358 0 0157.3 40.453a65.834 65.834 0 015.623-1.642c3.116-.714 5.23-.128 4.556-3.212-1.651-6.832-5.102-13.32-10.132-19.048-5.03-5.729-11.53-10.574-19.082-14.225a1.152 1.152 0 01-.536-.504.832.832 0 01-.047-.654c.075-.216.236-.408.461-.547.225-.139.5-.217.787-.223 15.807-1.358 31.784.774 46.127 6.154 6.37 2.392 12.321 5.418 17.705 9.002 6.898 4.611 12.603 10.136 21.405 12.606 7.026 1.97 14.58 2.363 21.943 3.184a443.295 443.295 0 0127.173 3.92 451.483 451.483 0 0150 11.9c25.324 7.51 51.877 16.675 69.446 33.465 17.833 17.055 19.947 40.041 9.759 60.165-23.327 46.066-90.796 57.623-147.621 57.109-30.618-.278-62.128-3.027-90.04-13.563-26.881-10.13-48.295-27.191-57.153-49.75C2.316 121.027.147 105.8.002 91.609c-.119-12.364 6.05-22.459 18.133-30.375 6.57-4.284 14.024-7.703 21.47-10.987 7.781-3.44 16.967-6.496 23.582-11.293 9.167-6.668-1.959-15.477-7.973-20.852C49.327 12.778 42.847 7.876 35.85 3.453c-.911-.585-.119-1.748.911-1.763 17.757-.275 35.395 2.33 51.804 7.653 15.838 5.24 29.114 14.12 44.651 19.731 17.113 6.154 36.359 7.853 54.529 11.172 17.55 3.234 34.991 7.039 51.576 12.628 27.993 9.423 54.775 24.579 68.58 46.437 13.058 20.702 13.076 47.829-6.616 66.104-20.256 18.768-56.214 23.258-85.401 27.198-1.659.229-2.369-1.763-.702-1.991 25.843-3.491 55.951-7.246 76.709-20.817 24.913-16.297 27.792-45.351 14.944-67.474-12.758-21.944-38.91-37.242-66.375-46.837-15.764-5.504-32.431-9.28-49.207-12.464-16.512-3.148-33.625-4.918-49.754-9.194-16.539-4.39-30.071-12.85-45.298-19.275C78.05 6.88 57.21 3.54 36.688 3.761l.911-1.757c10.835 6.76 22.344 15.284 29.215 24.843 6.215 8.652-.574 13.513-9.942 18.003-13.25 6.354-28.048 11.28-39.566 19.625C4.586 73.805 1.851 85.02 3.082 98.298c2.305 25.113 8.055 49.549 32.194 67.688 22.78 17.133 53.6 25.143 84.363 28.134 57.071 5.532 131.701 2.334 168.743-37.521 16.867-18.147 24.057-43.296 11.045-64.17-12.585-20.18-40.241-31.652-65.61-39.826a467.898 467.898 0 00-48.742-12.95c-17.806-3.676-35.83-5.203-53.827-7.916-7.229-.952-14.015-3.369-19.683-7.01-6.588-4.284-12.247-9.188-19.6-12.807C76.134 4.175 57.431.842 38.884 2.46c.218-.642.437-1.278.665-1.92C50.557 5.856 59.36 13.558 64.89 22.713c2.479 4.134 4.793 8.895 5.468 13.464.455 3.362-1.376 3.462-5.13 4.283-29.425 6.668-50.857 28.226-57.281 51.12-6.379 22.637 2.733 46.23 19.947 64.619 17.75 18.946 43.885 31.724 72.498 38.185 17.252 3.828 35.125 5.66 53.053 5.439 18.224-.164 36.96-1.97 52.597-9.815 1.43-.714 2.733 1.063 1.33 1.777l-.046.029z"/></svg>