<svg xmlns="http://www.w3.org/2000/svg" width="44" height="46" fill="none"><path fill="url(#a)" d="M44 23.523C44 35.648 32.579 46 20.429 46 8.279 46 0 35.648 0 23.523S13.516 0 25.667 0C37.817 0 44 11.398 44 23.523z"/><path fill="#FF276C" d="M27.112 17.25c-.582 0-1.16-.003-1.733-.01-.469-.007-.982-.01-1.541-.01l-.521.02h-4.554c-.468-.02-.816-.031-1.042-.031-.318 0-.65-.004-.997-.01-.34-.014-.646-.021-.918-.021-2.175 0-3.485-.025-3.93-.073l-.352-.604a1.17 1.17 0 00.08-.395.952.952 0 00-.012-.146.632.632 0 01-.023-.166c0-.201.08-.385.238-.551a9.984 9.984 0 011.076-.052l.94.01c.272 0 .537-.007.794-.02.853-.022 1.854-.032 3.002-.032 1.26 0 3.236.024 5.925.073.317-.02.819-.031 1.506-.031h.555c.982.007 2.032.02 3.15.041 1.125.014 2.103.038 2.934.073.838.028 1.314.052 1.427.073.272.187.408.44.408.76 0 .027-.011.138-.034.332-.023.194-.17.402-.442.624-1.994.098-3.972.146-5.936.146zm0 12.545c-.582 0-1.16.004-1.733.01-.469.008-.982.011-1.541.011l-.521-.02h-4.554c-.468.02-.816.03-1.042.03-.318 0-.65.004-.997.011-.34.014-.646.02-.918.02-2.175 0-3.485.025-3.93.074l-.352.603c.053.146.08.277.08.395a.953.953 0 01-.012.146.63.63 0 00-.023.166c0 .201.08.385.238.552.317.034.676.052 1.076.052l.94-.01c.272 0 .537.006.794.02.853.021 1.854.031 3.002.031 1.26 0 3.236-.024 5.925-.072.317.02.819.03 1.506.03h.555c.982-.006 2.032-.02 3.15-.04a101.26 101.26 0 002.934-.074c.838-.027 1.314-.052 1.427-.073a.877.877 0 00.408-.759c0-.028-.011-.139-.034-.333-.023-.194-.17-.402-.442-.624a122.022 122.022 0 00-5.936-.146zm-9.176-7.318c.581 0 1.16.004 1.733.01a91.3 91.3 0 001.54.011l.522-.02h4.554c.468.02.816.03 1.042.03.317 0 .65.004.997.01.34.015.646.022.918.022 2.175 0 3.485.024 3.93.073l.352.603c-.053.145-.08.277-.08.395 0 .049.004.097.012.146.015.055.023.11.023.166 0 .201-.08.385-.238.552-.318.034-.676.052-1.077.052l-.94-.01c-.272 0-.536.006-.793.02-.853.02-1.854.031-3.002.031-1.261 0-3.236-.024-5.925-.073-.317.021-.82.032-1.506.032h-.555c-.982-.007-2.032-.021-3.15-.042a101.584 101.584 0 01-2.934-.073c-.838-.028-1.314-.052-1.427-.073a.877.877 0 01-.408-.76c0-.027.011-.138.034-.332.023-.194.17-.402.442-.624a122.11 122.11 0 015.936-.146z"/><defs><radialGradient id="a" cx="0" cy="0" r="1" gradientTransform="matrix(0 23 -22 0 22 23)" gradientUnits="userSpaceOnUse"><stop offset=".634" stop-color="#fff"/><stop offset="1" stop-color="#FFD9F7"/></radialGradient></defs></svg>