<svg width="704" height="76" viewBox="0 0 704 76" fill="none" xmlns="http://www.w3.org/2000/svg">
<path d="M696.51 62.8521C695.556 70.3616 689.156 75.9835 681.587 75.9616L33.3703 74.0835C26.7645 74.0644 20.9488 69.7261 19.0481 63.3996L5.83706 19.4282C2.93516 9.76948 10.2007 0.0564701 20.2857 0.112302L687.069 3.8037C696.07 3.85353 703.001 11.7644 701.866 20.6939L696.51 62.8521Z" fill="#DE358A"/>
<path d="M268.155 44V30H279.655V44H277.355V32.2H270.455V44H268.155ZM283.152 42.68C282.152 41.6533 281.652 40.3933 281.652 38.9C281.652 37.4067 282.152 36.1533 283.152 35.14C284.165 34.1133 285.399 33.6 286.852 33.6C288.305 33.6 289.532 34.1133 290.532 35.14C291.545 36.1533 292.052 37.4067 292.052 38.9V39.6H283.752C283.912 40.44 284.279 41.1 284.852 41.58C285.425 42.06 286.092 42.3 286.852 42.3C287.785 42.3 288.532 42.0667 289.092 41.6C289.345 41.4133 289.565 41.18 289.752 40.9H291.952C291.672 41.5533 291.319 42.1067 290.892 42.56C289.799 43.6533 288.452 44.2 286.852 44.2C285.399 44.2 284.165 43.6933 283.152 42.68ZM283.852 37.9H289.852C289.732 37.2333 289.412 36.6667 288.892 36.2C288.385 35.7333 287.705 35.5 286.852 35.5C286.132 35.5 285.492 35.72 284.932 36.16C284.372 36.5867 284.012 37.1667 283.852 37.9ZM293.854 47.8V33.8H295.954V35.1H296.054C296.294 34.82 296.567 34.5733 296.874 34.36C297.594 33.8533 298.387 33.6 299.254 33.6C300.627 33.6 301.767 34.0933 302.674 35.08C303.594 36.0533 304.054 37.3267 304.054 38.9C304.054 40.4733 303.594 41.7533 302.674 42.74C301.767 43.7133 300.627 44.2 299.254 44.2C298.374 44.2 297.58 43.9533 296.874 43.46C296.554 43.2333 296.28 42.98 296.054 42.7H295.954V47.8H293.854ZM296.734 36.4C296.214 36.9867 295.954 37.82 295.954 38.9C295.954 39.98 296.214 40.82 296.734 41.42C297.267 42.0067 297.974 42.3 298.854 42.3C299.787 42.3 300.52 42.0067 301.054 41.42C301.587 40.8333 301.854 39.9933 301.854 38.9C301.854 37.8067 301.587 36.9667 301.054 36.38C300.52 35.7933 299.787 35.5 298.854 35.5C297.974 35.5 297.267 35.8 296.734 36.4ZM306.746 42.68C305.746 41.6533 305.246 40.3933 305.246 38.9C305.246 37.4067 305.746 36.1533 306.746 35.14C307.759 34.1133 308.992 33.6 310.446 33.6C311.899 33.6 313.126 34.1133 314.126 35.14C315.139 36.1533 315.646 37.4067 315.646 38.9V39.6H307.346C307.506 40.44 307.872 41.1 308.446 41.58C309.019 42.06 309.686 42.3 310.446 42.3C311.379 42.3 312.126 42.0667 312.686 41.6C312.939 41.4133 313.159 41.18 313.346 40.9H315.546C315.266 41.5533 314.912 42.1067 314.486 42.56C313.392 43.6533 312.046 44.2 310.446 44.2C308.992 44.2 307.759 43.6933 306.746 42.68ZM307.446 37.9H313.446C313.326 37.2333 313.006 36.6667 312.486 36.2C311.979 35.7333 311.299 35.5 310.446 35.5C309.726 35.5 309.086 35.72 308.526 36.16C307.966 36.5867 307.606 37.1667 307.446 37.9ZM316.647 40.7H318.747C318.801 40.9667 318.927 41.2333 319.127 41.5C319.554 42.0333 320.227 42.3 321.147 42.3C321.867 42.3 322.394 42.18 322.727 41.94C323.074 41.7 323.247 41.3867 323.247 41C323.247 40.6133 323.074 40.3 322.727 40.06C322.394 39.82 321.867 39.7 321.147 39.7H320.047V37.9H321.147C322.414 37.9 323.047 37.5 323.047 36.7C323.047 36.3667 322.881 36.0867 322.547 35.86C322.214 35.62 321.714 35.5 321.047 35.5C320.341 35.5 319.781 35.72 319.367 36.16C319.221 36.3333 319.114 36.5467 319.047 36.8H316.947C317.094 36.1867 317.334 35.6533 317.667 35.2C318.441 34.1333 319.601 33.6 321.147 33.6C322.427 33.6 323.414 33.8667 324.107 34.4C324.801 34.9333 325.147 35.6 325.147 36.4C325.147 37.16 324.847 37.7467 324.247 38.16C324.007 38.3467 323.707 38.4933 323.347 38.6V38.68C323.707 38.76 324.041 38.9 324.347 39.1C325.014 39.5533 325.347 40.22 325.347 41.1C325.347 41.9933 324.981 42.7333 324.247 43.32C323.527 43.9067 322.494 44.2 321.147 44.2C319.361 44.2 318.087 43.62 317.327 42.46C316.967 41.9133 316.741 41.3267 316.647 40.7ZM327.252 44V33.8H332.352C333.325 33.8 334.085 34.0333 334.632 34.5C335.179 34.9667 335.452 35.5667 335.452 36.3C335.452 37.0867 335.185 37.6933 334.652 38.12C334.385 38.32 334.119 38.4467 333.852 38.5V38.58C334.199 38.6333 334.532 38.7667 334.852 38.98C335.519 39.4333 335.852 40.1333 335.852 41.08C335.852 41.9067 335.539 42.6 334.912 43.16C334.285 43.72 333.465 44 332.452 44H327.252ZM329.352 37.8H332.152C332.952 37.8 333.352 37.4333 333.352 36.7C333.352 36.0333 332.952 35.7 332.152 35.7H329.352V37.8ZM329.352 42.1H332.352C332.792 42.1 333.132 41.9867 333.372 41.76C333.625 41.52 333.752 41.2 333.752 40.8C333.752 40.44 333.625 40.1533 333.372 39.94C333.132 39.7133 332.792 39.6 332.352 39.6H329.352V42.1ZM338.68 42.68C337.666 41.6533 337.16 40.3933 337.16 38.9C337.16 37.4067 337.666 36.1533 338.68 35.14C339.706 34.1133 340.966 33.6 342.46 33.6C343.953 33.6 345.206 34.1133 346.22 35.14C347.246 36.1533 347.76 37.4067 347.76 38.9C347.76 40.3933 347.246 41.6533 346.22 42.68C345.206 43.6933 343.953 44.2 342.46 44.2C340.966 44.2 339.706 43.6933 338.68 42.68ZM340.22 36.44C339.646 37.0533 339.36 37.8733 339.36 38.9C339.36 39.9267 339.646 40.7533 340.22 41.38C340.793 41.9933 341.54 42.3 342.46 42.3C343.38 42.3 344.126 41.9933 344.7 41.38C345.273 40.7533 345.56 39.9267 345.56 38.9C345.56 37.8733 345.273 37.0533 344.7 36.44C344.126 35.8133 343.38 35.5 342.46 35.5C341.54 35.5 340.793 35.8133 340.22 36.44ZM349.557 44V33.8H351.657V37.9H356.657V33.8H358.757V44H356.657V39.8H351.657V44H349.557ZM361.158 44V33.8H363.258V40.6L363.238 40.8H363.438L368.058 33.8H370.358V44H368.258V37.2L368.278 37H368.078L363.458 44H361.158ZM371.66 35.7V33.8H380.56V35.7H377.16V44H375.06V35.7H371.66ZM382.761 42.68C381.761 41.6533 381.261 40.3933 381.261 38.9C381.261 37.4067 381.761 36.1533 382.761 35.14C383.775 34.1133 385.008 33.6 386.461 33.6C387.915 33.6 389.141 34.1133 390.141 35.14C391.155 36.1533 391.661 37.4067 391.661 38.9V39.6H383.361C383.521 40.44 383.888 41.1 384.461 41.58C385.035 42.06 385.701 42.3 386.461 42.3C387.395 42.3 388.141 42.0667 388.701 41.6C388.955 41.4133 389.175 41.18 389.361 40.9H391.561C391.281 41.5533 390.928 42.1067 390.501 42.56C389.408 43.6533 388.061 44.2 386.461 44.2C385.008 44.2 383.775 43.6933 382.761 42.68ZM383.461 37.9H389.461C389.341 37.2333 389.021 36.6667 388.501 36.2C387.995 35.7333 387.315 35.5 386.461 35.5C385.741 35.5 385.101 35.72 384.541 36.16C383.981 36.5867 383.621 37.1667 383.461 37.9ZM399.068 44V33.8H402.068L404.768 39.9H405.168L407.868 33.8H410.868V44H408.768V36.8L408.788 36.6H408.688L406.168 42.2H403.768L401.248 36.6H401.148L401.168 36.8V44H399.068ZM413.268 44V33.8H415.368V37.9H420.368V33.8H422.468V44H420.368V39.8H415.368V44H413.268ZM425.769 42.68C424.769 41.6533 424.269 40.3933 424.269 38.9C424.269 37.4067 424.769 36.1533 425.769 35.14C426.783 34.1133 428.016 33.6 429.469 33.6C430.923 33.6 432.149 34.1133 433.149 35.14C434.163 36.1533 434.669 37.4067 434.669 38.9V39.6H426.369C426.529 40.44 426.896 41.1 427.469 41.58C428.043 42.06 428.709 42.3 429.469 42.3C430.403 42.3 431.149 42.0667 431.709 41.6C431.963 41.4133 432.183 41.18 432.369 40.9H434.569C434.289 41.5533 433.936 42.1067 433.509 42.56C432.416 43.6533 431.069 44.2 429.469 44.2C428.016 44.2 426.783 43.6933 425.769 42.68ZM426.469 37.9H432.469C432.349 37.2333 432.029 36.6667 431.509 36.2C431.003 35.7333 430.323 35.5 429.469 35.5C428.749 35.5 428.109 35.72 427.549 36.16C426.989 36.5867 426.629 37.1667 426.469 37.9Z" fill="white"/>
</svg>
