<svg xmlns="http://www.w3.org/2000/svg" width="66" height="36" fill="none"><path fill="#DE358A" d="M16.049 32.608l-8.166-5.724 6.672-5.093-.696-4.287-6.543 7.01 1.03-22.442L0 .836l2.19 35 4.636-.504.207-4.413 5.332 4.665 3.684-2.976zm1.416-15.911l1.88 16.416 5.462-1.412.052-16.542-7.394 1.538zm6.08-7.54c0 1.009-.327 1.866-.98 2.572-.652.706-1.433 1.06-2.343 1.06-.91 0-1.692-.354-2.344-1.06-.653-.706-.98-1.563-.98-2.572 0-.992.327-1.84.98-2.547.652-.706 1.434-1.059 2.344-1.059.91 0 1.691.353 2.344 1.06.652.705.979 1.554.979 2.546zM35.678 29.28c-1.82-.32-2.456-1.984-1.906-4.993.257-1.463.781-2.538 1.571-3.228.704-.639 1.494-.882 2.37-.731 1.803.32 2.439 1.984 1.906 4.993-.275 1.462-.798 2.547-1.571 3.253-.704.622-1.494.857-2.37.706zm5.1-25.09l-.36 12.986c-2.233-.572-4.062-.807-5.487-.706-2.628.219-4.809 1.202-6.543 2.95-1.718 1.765-2.482 3.791-2.293 6.077.189 2.27 1.28 4.136 3.272 5.598 1.992 1.463 4.302 2.093 6.93 1.892a11.2 11.2 0 002.524-.505l-.13 1.21 6.312 2.144 2.782-32.201-7.007.555zm24.885 21.938c-.258-.824-.919-1.656-1.984-2.497-.652-.52-1.752-1.252-3.297-2.194-1.923-1.16-2.945-1.89-3.066-2.193-.017-.404.052-.673.206-.807.395-.353 1.246-.328 2.55.075l1.598.58 1.082.404.386-.605 2.757-4.186-.696-.505c-1.168-.857-3.091-1.37-5.77-1.538-2.387-.134-4.25.009-5.59.429-2.508.773-3.959 2.16-4.354 4.16l-.051.454c-.12 1.21.215 2.38 1.005 3.506.79 1.126 1.923 2.05 3.4 2.773l.824.404c3.486 1.63 5.255 2.774 5.307 3.43.034 0-.035.058-.206.176-.24.168-.567.32-.98.454-1.047.386-2.335.361-3.863-.076-1.511-.437-2.525-1.067-3.04-1.891l-.953-1.513-1.777 5.068.309.404c1.133 1.479 3.323 2.395 6.569 2.748 3.245.353 5.804-.042 7.676-1.185 1.048-.639 1.734-1.462 2.06-2.471.344-1.026.31-2.16-.102-3.404z"/></svg>