<svg width="1331" height="485" fill="none" xmlns="http://www.w3.org/2000/svg"><path d="M774 118.609c63-39.5 322-113.5 367.5 10M801 366.268c-79.371 39.328-405.676 113.006-463-9.956" stroke="#FCEFE8" stroke-width="28"/><path d="M1005.5 366.312c-63 39.5-322 113.5-367.5-10M8 108.609c63-39.5 322-113.5 367.5 10" stroke="#FCEFE8" stroke-width="28"/><path d="M281 299.812c0 65.446-68.054 146.5-133.5 146.5S16 402.758 16 337.312s66.054-128 131.5-128 133.5 25.054 133.5 90.5zm356.662-162.44C614.549 76.143 522.255 24.346 461.026 47.459c-61.228 23.113-107.644 87.189-84.531 148.417 23.113 61.229 107.003 96.424 168.231 73.311 61.229-23.113 116.049-70.587 92.936-131.815zm660.688 144.169c-23.11-61.228-132.53-106.56-210.23-77.23-77.7 29.33-140.739 99.681-117.626 160.909 23.113 61.229 123.626 90.149 201.326 60.819 77.7-29.33 149.64-83.269 126.53-144.498z" fill="#FCEFE8"/></svg>