<svg width="670" height="11" viewBox="0 0 670 11" fill="none" xmlns="http://www.w3.org/2000/svg">
<path d="M2 9L12.2491 3.47333C12.5454 3.31358 12.9021 3.31358 13.1984 3.47333L22.9728 8.74406C23.2691 8.90381 23.6258 8.90381 23.9221 8.74406L33.6966 3.47333C33.9928 3.31358 34.3496 3.31358 34.6458 3.47333L44.4203 8.74406C44.7165 8.90381 45.0733 8.90381 45.3695 8.74406L55.144 3.47333C55.4403 3.31358 55.797 3.31358 56.0933 3.47333L65.8677 8.74406C66.164 8.90381 66.5207 8.90381 66.817 8.74406L76.5915 3.47333C76.8877 3.31358 77.2445 3.31358 77.5407 3.47333L87.3152 8.74406C87.6115 8.90381 87.9682 8.90381 88.2645 8.74406L98.0389 3.47333C98.3352 3.31358 98.6919 3.31358 98.9882 3.47333L108.763 8.74406C109.059 8.90381 109.416 8.90381 109.712 8.74406L119.486 3.47333C119.783 3.31358 120.139 3.31358 120.436 3.47333L130.21 8.74406C130.506 8.90381 130.863 8.90381 131.159 8.74406L140.934 3.47333C141.23 3.31358 141.587 3.31358 141.883 3.47333L151.658 8.74406C151.954 8.90381 152.311 8.90381 152.607 8.74406L162.381 3.47333C162.678 3.31358 163.034 3.31358 163.331 3.47333L173.105 8.74406C173.401 8.90381 173.758 8.90381 174.054 8.74406L183.829 3.47333C184.125 3.31358 184.482 3.31358 184.778 3.47333L194.552 8.74406C194.849 8.90381 195.205 8.90381 195.502 8.74406L205.276 3.47333C205.572 3.31358 205.929 3.31358 206.225 3.47333L216 8.74406C216.296 8.90381 216.653 8.90381 216.949 8.74406L226.724 3.47333C227.02 3.31358 227.377 3.31358 227.673 3.47333L237.447 8.74406C237.744 8.90381 238.1 8.90381 238.397 8.74406L248.171 3.47333C248.467 3.31358 248.824 3.31358 249.12 3.47333L258.895 8.74406C259.191 8.90381 259.548 8.90381 259.844 8.74406L269.619 3.47333C269.915 3.31358 270.272 3.31358 270.568 3.47333L280.342 8.74406C280.639 8.90381 280.995 8.90381 281.292 8.74406L291.066 3.47333C291.362 3.31358 291.719 3.31358 292.015 3.47333L301.79 8.74406C302.086 8.90381 302.443 8.90381 302.739 8.74406L312.513 3.47333C312.81 3.31358 313.166 3.31358 313.463 3.47333L323.237 8.74406C323.533 8.90381 323.89 8.90381 324.186 8.74406L333.961 3.47333C334.257 3.31358 334.614 3.31358 334.91 3.47333L344.685 8.74406C344.981 8.90381 345.338 8.90381 345.634 8.74406L355.408 3.47333C355.705 3.31358 356.061 3.31358 356.358 3.47333L366.132 8.74406C366.428 8.90381 366.785 8.90381 367.081 8.74406L376.856 3.47333C377.152 3.31358 377.509 3.31358 377.805 3.47333L387.58 8.74406C387.876 8.90381 388.233 8.90381 388.529 8.74406L398.303 3.47333C398.6 3.31358 398.956 3.31358 399.253 3.47333L409.027 8.74406C409.323 8.90381 409.68 8.90381 409.976 8.74406L422.008 2.25594C422.305 2.09618 422.661 2.09618 422.958 2.25594L434.99 8.74406C435.286 8.90381 435.643 8.90381 435.939 8.74406L447.971 2.25594C448.267 2.09618 448.624 2.09618 448.92 2.25594L460.952 8.74406C461.249 8.90381 461.605 8.90381 461.902 8.74406L473.934 2.25594C474.23 2.09618 474.587 2.09618 474.883 2.25594L486.915 8.74406C487.211 8.90381 487.568 8.90381 487.864 8.74406L499.897 2.25594C500.193 2.09618 500.55 2.09618 500.846 2.25594L512.878 8.74406C513.174 8.90381 513.531 8.90381 513.827 8.74406L523.602 3.47333C523.898 3.31358 524.255 3.31358 524.551 3.47333L534.325 8.74406C534.622 8.90381 534.978 8.90381 535.275 8.74406L545.049 3.47333C545.345 3.31358 545.702 3.31358 545.998 3.47333L555.773 8.74406C556.069 8.90381 556.426 8.90381 556.722 8.74406L566.497 3.47333C566.793 3.31358 567.15 3.31358 567.446 3.47333L577.22 8.74406C577.517 8.90381 577.873 8.90381 578.17 8.74406L587.944 3.47333C588.24 3.31358 588.597 3.31358 588.893 3.47333L598.668 8.74406C598.964 8.90381 599.321 8.90381 599.617 8.74406L609.391 3.47333C609.688 3.31358 610.044 3.31358 610.341 3.47333L620.115 8.74406C620.411 8.90381 620.768 8.90381 621.064 8.74406L630.839 3.47333C631.135 3.31358 631.492 3.31358 631.788 3.47333L641.563 8.74406C641.859 8.90381 642.216 8.90381 642.512 8.74406L654.544 2.25594C654.84 2.09618 655.197 2.09618 655.493 2.25594L668 9" stroke="#FFCB06" stroke-width="4" stroke-linecap="round"/>
</svg>
