<svg width="1657" height="1188" viewBox="0 0 1657 1188" fill="none" xmlns="http://www.w3.org/2000/svg">
<path d="M1700.31 1131.33C1601.86 1083.9 1393.79 855.568 1660.97 764" stroke="#FFFCF9" stroke-width="28"/>
<path d="M1700.5 577.501C1586 525 1558.04 282.739 1678.67 273.051" stroke="#FFFCF9" stroke-width="28"/>
<path d="M-10.2868 516.031C55.4654 452.777 156.563 227.842 -87.0001 242.548" stroke="#FFFCF9" stroke-width="28"/>
<path d="M-15.1682 1051.5C106.832 1149 94.0264 711.428 -15.1682 650" stroke="#FFFCF9" stroke-width="28"/>
<path fill-rule="evenodd" clip-rule="evenodd" d="M1432.42 109.447C1426.94 109.998 1424.46 119.184 1421.83 124.248C1394.63 163.369 1404.47 18.2347 1437.8 66.7445L1443.32 68.7573L1449.11 69.7768C1502.23 44.43 1438.18 175.036 1434.19 127.558C1434.44 121.859 1436.89 112.664 1432.42 109.447L1432.42 109.447Z" fill="#FFDDF6"/>
<path fill-rule="evenodd" clip-rule="evenodd" d="M221.191 299.048C225.722 298.31 229.701 305.171 232.909 308.681C263.247 334.313 224.018 219.576 207.649 265.825L203.634 268.638L199.191 270.708C150.954 261.76 230.704 353.101 223.675 314.012C222.239 309.479 218.287 302.602 221.191 299.048L221.191 299.048Z" fill="#FFF2D7"/>
<path fill-rule="evenodd" clip-rule="evenodd" d="M337.919 47.2311C341.462 50.1896 338.865 57.7313 338.307 62.4807C338.787 102.419 400.204 -2.92998 354.265 15.0663L349.484 13.8653L344.985 11.8498C320.038 -30.7169 303.082 90.0429 328.176 58.9692C330.677 54.8934 333.304 47.3619 337.919 47.2311L337.919 47.2311Z" fill="#EDDFF5"/>
<path fill-rule="evenodd" clip-rule="evenodd" d="M1491.82 623.815C1485.85 628.718 1490.09 641.383 1490.95 649.343C1489.58 716.207 1388.26 538.931 1464.92 569.724L1472.94 567.782L1480.5 564.472C1522.88 493.559 1549.54 695.999 1507.97 643.609C1503.84 636.749 1499.55 624.1 1491.82 623.815L1491.82 623.815Z" fill="#FFF2D7"/>
<path fill-rule="evenodd" clip-rule="evenodd" d="M1390.49 1160.19C1393.04 1163.31 1389.57 1169.35 1388.31 1173.33C1382.14 1207.65 1452.17 1127.45 1409.81 1135.31L1405.91 1133.49L1402.38 1131.02C1388.01 1090.41 1353.57 1191.15 1380.2 1168.65C1383.02 1165.57 1386.51 1159.54 1390.49 1160.19L1390.49 1160.19Z" fill="#EDDFF5"/>
<path fill-rule="evenodd" clip-rule="evenodd" d="M229.352 905.896C231.712 903.96 230.037 898.957 229.695 895.813C230.24 869.404 270.257 939.422 239.979 927.26L236.811 928.027L233.824 929.334C217.084 957.342 206.557 877.386 222.976 898.078C224.607 900.788 226.301 905.783 229.352 905.896L229.352 905.896Z" fill="#FBF0D3"/>
</svg>
