<svg width="52" height="53" viewBox="0 0 52 53" fill="none" xmlns="http://www.w3.org/2000/svg">
<path d="M23.6688 52.8701C9.92717 52.8701 -0.00012207 43.1829 -0.00012207 28.9409C-0.00012207 14.6989 9.92717 0.870117 23.6688 0.870117C37.4105 0.870117 51.9999 11.7078 51.9999 25.9498C51.9999 40.1917 37.4105 52.8701 23.6688 52.8701Z" fill="white"/>
<path d="M22.9792 25.5501V13.6701H28.0192V25.5501L27.1192 30.9501H23.8792L22.9792 25.5501ZM23.4472 38.5821C22.8952 38.0301 22.6192 37.3461 22.6192 36.5301C22.6192 35.7141 22.8952 35.0301 23.4472 34.4781C23.9992 33.9261 24.6832 33.6501 25.4992 33.6501C26.3152 33.6501 26.9992 33.9261 27.5512 34.4781C28.1032 35.0301 28.3792 35.7141 28.3792 36.5301C28.3792 37.3461 28.1032 38.0301 27.5512 38.5821C26.9992 39.1341 26.3152 39.4101 25.4992 39.4101C24.6832 39.4101 23.9992 39.1341 23.4472 38.5821Z" fill="#4782CD"/>
</svg>
