<svg width="187" height="118" viewBox="0 0 187 118" fill="none" xmlns="http://www.w3.org/2000/svg">
<path d="M88.2552 117.87C57.3364 117.87 35 96.0739 35 64.0294C35 31.9849 57.3364 0.870117 88.2552 0.870117C119.174 0.870117 152 25.2549 152 57.2993C152 89.3438 119.174 117.87 88.2552 117.87Z" fill="white"/>
<path d="M161.784 58.813C161.784 58.813 169.791 66.2746 169.791 73.1243C169.791 79.974 170.384 87.6523 169.156 87.6523C167.927 87.6523 156.665 79.4619 152.365 75.3667C148.065 71.2718 154.72 50.5518 161.784 58.813Z" fill="url(#paint0_linear_2514_3180)"/>
<path d="M169.156 88.7633C168.769 88.7633 167.862 88.7633 161.258 83.9424C158.157 81.679 153.991 78.449 151.6 76.1714C149.024 73.7183 149.663 67.3238 151.571 62.5527C153.294 58.2459 155.782 55.7754 158.397 55.7754C159.875 55.7754 161.285 56.5385 162.588 58.044C163.325 58.7408 170.902 66.0771 170.902 73.1242C170.902 74.8784 170.94 76.6782 170.978 78.4186C171.12 85.004 171.089 87.3915 170.177 88.3239C169.9 88.6072 169.537 88.7633 169.156 88.7633ZM158.397 57.9965C156.787 57.9965 154.961 60.0586 153.634 63.3775C151.834 67.8769 151.599 73.1041 153.131 74.5631C157.031 78.2771 165.97 84.784 168.674 86.2669C168.895 84.7999 168.82 81.3369 168.758 78.4671C168.72 76.7148 168.68 74.9033 168.68 73.1248C168.68 66.8437 161.104 59.6971 161.027 59.6257C160.997 59.5973 160.968 59.5666 160.94 59.5353C160.067 58.514 159.212 57.9965 158.397 57.9965Z" fill="#58595B"/>
<path d="M171.817 63.2088C171.817 63.2088 174.377 65.436 176.629 70.8619C178.882 76.2879 179.496 86.4235 178.37 85.8093C177.243 85.1952 170.589 79.9738 166.084 72.7047C161.58 65.436 157.894 53.3035 171.817 63.2088Z" fill="url(#paint1_linear_2514_3180)"/>
<path d="M178.464 86.9468C178.249 86.9468 178.033 86.8906 177.838 86.7846C176.505 86.0574 169.684 80.6224 165.14 73.29C162.941 69.7414 159.676 62.9147 161.389 59.8378C161.918 58.8883 162.873 58.3652 164.079 58.3652C165.994 58.3652 168.735 59.6536 172.461 62.3041C172.49 62.3254 172.519 62.3477 172.546 62.3713C172.659 62.4692 175.329 64.8337 177.655 70.4364C179.583 75.0831 180.721 84.5945 179.557 86.3388C179.299 86.7255 178.901 86.9468 178.464 86.9468ZM164.08 60.586C163.515 60.586 163.394 60.8021 163.33 60.9181C162.498 62.4126 164.191 67.5426 167.028 72.1202C170.553 77.8085 175.526 82.2952 177.813 84.0679C177.895 81.4097 177.195 75.1202 175.604 71.2877C173.634 66.5431 171.416 64.3546 171.119 64.0748C166.842 61.0409 164.874 60.586 164.08 60.586Z" fill="#58595B"/>
<path d="M149.609 55.953C151.269 57.6048 155.552 62.0774 155.552 70.8975C155.552 79.7176 155.552 87.2777 151.966 88.8284C148.379 90.3792 140.726 85.7528 134.523 70.7295C130.165 60.1745 145.439 51.8054 149.609 55.953Z" fill="url(#paint2_linear_2514_3180)"/>
<path d="M150.501 90.5513C146.289 90.5513 139.309 85.557 133.497 71.4819C131.647 67.0032 133.103 63.3063 134.65 60.9941C137.283 57.0569 142.37 54.0879 146.481 54.0879C148.114 54.0879 149.467 54.5744 150.391 55.4945C151.942 57.0369 156.662 61.731 156.662 71.226C156.662 80.7853 156.662 88.3357 152.406 90.1756C151.83 90.4254 151.189 90.5513 150.501 90.5513ZM146.481 56.3087C143.519 56.3087 138.975 58.523 136.496 62.2289C135.25 64.0914 134.074 67.0614 135.549 70.6345C140.57 82.7932 146.819 88.3306 150.501 88.3306C150.884 88.3306 151.229 88.2656 151.525 88.1377C154.441 86.8764 154.441 79.2743 154.441 71.226C154.441 62.6544 150.214 58.4503 148.826 57.0688C148.194 56.4405 147.202 56.3087 146.481 56.3087Z" fill="#58595B"/>
<path d="M15.5556 63.2088C15.5556 63.2088 12.9963 65.436 10.7438 70.8619C8.49141 76.2882 7.87725 86.4235 9.00347 85.8093C10.1297 85.1952 16.7843 79.9738 21.2891 72.7047C25.7933 65.436 29.4789 53.3035 15.5556 63.2088Z" fill="white"/>
<path d="M8.90914 86.9468C8.9085 86.9468 8.90818 86.9468 8.90785 86.9468C8.47106 86.9465 8.07304 86.7245 7.81523 86.3378C6.65186 84.5932 7.78971 75.0818 9.71811 70.4364C12.0436 64.834 14.714 62.4692 14.8265 62.3713C14.8536 62.3477 14.8824 62.3251 14.9118 62.3041C18.6374 59.6536 21.3793 58.3652 23.2934 58.3652C24.4995 58.3652 25.4548 58.8883 25.9836 59.8378C27.6966 62.9147 24.4316 69.7411 22.2325 73.29C17.6882 80.6227 10.8679 86.0577 9.53493 86.7846C9.34044 86.8906 9.12399 86.9468 8.90914 86.9468ZM16.2535 64.0751C15.9669 64.3446 13.7432 66.5321 11.7693 71.2877C10.1785 75.1199 9.47839 81.4097 9.56077 84.0679C11.8478 82.2956 16.8195 77.8091 20.3451 72.1202C23.182 67.5426 24.8758 62.4126 24.0436 60.9181C23.979 60.8021 23.8588 60.586 23.2938 60.586C22.4993 60.586 20.5302 61.0409 16.2535 64.0751Z" fill="#58595B"/>
<path d="M25.5885 58.813C25.5885 58.813 17.5819 66.2746 17.5819 73.1243C17.5819 79.974 16.9887 87.6523 18.217 87.6523C19.4457 87.6523 30.7072 79.4619 35.0072 75.3667C39.3076 71.2718 32.6527 50.5518 25.5885 58.813Z" fill="url(#paint3_linear_2514_3180)"/>
<path d="M18.2174 88.7634C17.8359 88.7634 17.4734 88.6074 17.1962 88.3244C16.2838 87.392 16.2525 85.0049 16.3953 78.4198C16.4331 76.6791 16.4719 74.8792 16.4719 73.1247C16.4719 66.0782 24.0485 58.7416 24.7854 58.0445C26.0883 56.539 27.4979 55.7759 28.9765 55.7759C31.5911 55.7759 34.0791 58.2461 35.802 62.5532C37.7107 67.3246 38.3494 73.7191 35.7739 76.1718C33.3819 78.4498 29.2166 81.6798 26.1158 83.9429C19.5113 88.7634 18.6044 88.7634 18.2174 88.7634ZM28.9762 57.9967C28.1614 57.9967 27.3056 58.5145 26.4327 59.5351C26.4056 59.5668 26.3765 59.5971 26.3461 59.6256C26.2696 59.697 18.6926 66.8436 18.6926 73.1247C18.6926 74.9032 18.6532 76.7152 18.6154 78.4679C18.5534 81.3377 18.4781 84.8 18.6984 86.2671C21.4028 84.7842 30.3422 78.2776 34.2419 74.5633C35.7742 73.104 35.5394 67.8771 33.7395 63.378C32.4117 60.0588 30.5867 57.9967 28.9762 57.9967Z" fill="#58595B"/>
<path d="M37.764 56.2826C36.1034 57.9344 31.8212 62.407 31.8212 71.2271C31.8212 80.0472 31.8212 87.6073 35.4072 89.158C38.9933 90.7088 46.6465 86.0824 52.8497 71.0591C57.2079 60.5041 41.9339 52.135 37.764 56.2826Z" fill="url(#paint4_linear_2514_3180)"/>
<path d="M36.8727 90.552C36.8724 90.552 36.8727 90.552 36.8724 90.552C36.1839 90.552 35.5429 90.4257 34.9669 90.1766C30.7111 88.3367 30.7111 80.7863 30.7111 71.227C30.7111 61.7314 35.4305 57.0375 36.9812 55.4955C37.9062 54.5751 39.2585 54.0889 40.8923 54.0889C45.003 54.0889 50.0894 57.0579 52.7231 60.9951C54.2699 63.3073 55.726 67.0039 53.8764 71.4829C48.0648 85.5574 41.0842 90.552 36.8727 90.552ZM40.892 56.3093C40.1709 56.3093 39.1787 56.4411 38.5471 57.0698C37.1583 58.4513 32.9316 62.655 32.9316 71.227C32.9316 79.2753 32.9316 86.8771 35.8479 88.1387C36.1438 88.2663 36.4886 88.3316 36.872 88.3316C40.5537 88.3319 46.8028 82.7942 51.8233 70.6355C53.2985 67.0623 52.1228 64.0924 50.8767 62.2299C48.3982 58.524 43.8535 56.3093 40.892 56.3093Z" fill="#58595B"/>
<path d="M114.312 59.1846C114.312 53.3994 93.6865 53.3994 93.6865 59.1846C93.6865 69.1871 95.3587 84.823 103.999 84.823C112.639 84.8227 114.312 69.1871 114.312 59.1846Z" fill="url(#paint5_linear_2514_3180)"/>
<path d="M103.999 85.9324C93.6891 85.9324 92.5761 67.2264 92.5761 59.1836C92.5761 55.4192 98.3132 53.7344 103.999 53.7344C109.685 53.7344 115.422 55.4192 115.422 59.1836C115.422 67.2264 114.309 85.9324 103.999 85.9324ZM103.999 55.9551C98.9251 55.9551 94.7972 57.4031 94.7972 59.1836C94.7972 64.9374 95.4608 83.7113 103.999 83.7113C112.538 83.7113 113.201 64.9377 113.201 59.1836C113.201 57.4035 109.073 55.9551 103.999 55.9551Z" fill="#58595B"/>
<path d="M135.051 60.5818C135.051 54.4435 114.312 54.4435 114.312 60.5818C114.312 71.1952 118.689 87.7854 126.685 87.7854C134.098 87.7854 135.051 71.1952 135.051 60.5818Z" fill="url(#paint6_linear_2514_3180)"/>
<path d="M126.685 89.2245C122.584 89.2245 119.049 85.6507 116.463 78.8888C114.451 73.6296 113.201 66.7405 113.201 60.9107C113.201 56.9632 118.967 55.1963 124.681 55.1963C130.395 55.1963 136.161 56.9632 136.161 60.9107C136.161 79.9627 133.061 89.2245 126.685 89.2245ZM124.681 57.4171C119.489 57.4171 115.422 58.9516 115.422 60.9107C115.422 71.5497 119.81 87.0037 126.685 87.0037C131.363 87.0037 133.94 77.7371 133.94 60.9107C133.94 58.9516 129.873 57.4171 124.681 57.4171Z" fill="#58595B"/>
<path d="M73.0612 59.1846C73.0612 53.3994 93.6865 53.3994 93.6865 59.1846C93.6865 69.1871 92.0143 84.823 83.3738 84.823C74.7337 84.8227 73.0612 69.1871 73.0612 59.1846Z" fill="url(#paint7_linear_2514_3180)"/>
<path d="M83.3739 85.9324C73.0638 85.9324 71.9508 67.2264 71.9508 59.1836C71.9508 55.4192 77.6879 53.7344 83.3739 53.7344C89.0599 53.7344 94.7969 55.4192 94.7969 59.1836C94.7969 67.2264 93.6839 85.9324 83.3739 85.9324ZM83.3739 55.9551C78.2997 55.9551 74.1716 57.4031 74.1716 59.1836C74.1716 64.9374 74.8352 83.7113 83.3739 83.7113C91.9126 83.7113 92.5761 64.9377 92.5761 59.1836C92.5761 57.4035 88.448 55.9551 83.3739 55.9551Z" fill="#58595B"/>
<path d="M52.3224 60.9099C52.3224 54.7716 73.0611 54.7716 73.0611 60.9099C73.0611 71.5233 68.6845 88.1135 60.6879 88.1135C53.2745 88.1135 52.3224 71.5233 52.3224 60.9099Z" fill="url(#paint8_linear_2514_3180)"/>
<path d="M60.688 89.2238C54.3119 89.2238 51.212 79.9621 51.212 60.9097C51.212 56.9622 56.9778 55.1953 62.692 55.1953C68.4061 55.1953 74.1716 56.9622 74.1716 60.9097C74.1716 66.7398 72.9219 73.6286 70.9105 78.8879C68.3243 85.6497 64.7896 89.2238 60.688 89.2238ZM62.692 57.4164C57.4999 57.4164 53.4328 58.951 53.4328 60.9101C53.4328 77.7365 56.0093 87.003 60.688 87.003C67.5632 87.003 71.9508 71.549 71.9508 60.9101C71.9508 58.951 67.8837 57.4164 62.692 57.4164Z" fill="#58595B"/>
<path d="M173.175 53.0594C173.175 53.0594 178.626 46.7806 182.252 43.9431C185.878 41.1056 186.272 44.8625 185.641 48.5013C185.011 52.14 183.75 59.7066 182.095 66.4064C180.439 73.1062 176.577 78.3053 171.375 73.3804C166.173 68.4556 164.762 61.6346 173.175 53.0594Z" fill="white"/>
<path d="M175.352 76.4359C173.783 76.4359 172.188 75.679 170.611 74.1864C167.653 71.3851 166.121 68.2746 166.06 64.9408C165.985 60.9005 168.104 56.6496 172.358 52.3056C172.796 51.8029 177.981 45.8756 181.568 43.0684C182.627 42.2391 183.545 41.8359 184.373 41.8359C185.073 41.8359 185.681 42.1193 186.132 42.6549C187.262 43.9982 187.084 46.6787 186.735 48.6908L186.575 49.619C185.922 53.4086 184.706 60.4615 183.172 66.6725C181.639 72.8773 178.789 76.4359 175.352 76.4359ZM184.373 44.0567C184.265 44.0567 183.838 44.1116 182.936 44.8175C179.435 47.5572 174.067 53.7252 174.013 53.7872C173.998 53.8043 173.983 53.8208 173.967 53.837C170.13 57.748 168.217 61.4701 168.28 64.8998C168.33 67.6155 169.629 70.1972 172.138 72.5736C173.289 73.6627 174.37 74.2152 175.352 74.2152C177.615 74.2152 179.786 71.1208 181.016 66.1397C182.531 60.006 183.738 53.0038 184.386 49.2416L184.547 48.3112C185.042 45.4559 184.618 44.1966 184.406 44.058C184.406 44.058 184.395 44.0567 184.373 44.0567Z" fill="#58595B"/>
<path d="M151.741 50.0572C151.741 50.0572 158.855 39.7549 162.036 36.3468C165.217 32.9385 170.557 31.0072 172.488 34.8701C174.419 38.7327 173.624 57.8189 171.124 64.4082C168.625 70.9976 163.513 76.0232 157.946 71.8631C152.379 67.7026 144.401 61.4955 151.741 50.0572Z" fill="white"/>
<path d="M162.049 74.4904C160.429 74.4904 158.824 73.906 157.281 72.7523C154.61 70.7561 150.953 68.0226 149.013 64.191C146.771 59.763 147.375 54.8058 150.807 49.4578C150.814 49.4474 150.821 49.4368 150.828 49.4264C151.12 49.0029 158.024 39.0178 161.225 35.5894C163.47 33.1829 166.524 31.6279 169.003 31.6279C171.006 31.6279 172.596 32.603 173.481 34.3734C175.6 38.6107 174.762 57.9486 172.163 64.8019C169.862 70.8685 166.081 74.4904 162.049 74.4904ZM152.666 50.6728C146.321 60.5742 151.857 65.9259 158.611 70.9735C159.761 71.8335 160.918 72.2696 162.049 72.2696C165.666 72.2696 168.573 68.0051 170.086 64.0143C172.612 57.3548 173.207 38.7907 171.495 35.3665C170.984 34.3449 170.169 33.8487 169.003 33.8487C167.139 33.8487 164.665 35.1571 162.848 37.1043C159.814 40.3553 152.979 50.2208 152.666 50.6728Z" fill="#58595B"/>
<path d="M152.505 63.0087C152.505 70.9759 126.926 70.9759 126.926 63.0087C126.926 49.2331 132.026 32.0562 139.715 32.0562C150.431 32.0562 152.505 49.2331 152.505 63.0087Z" fill="white"/>
<path d="M139.716 70.0946C132.797 70.0946 125.816 67.9039 125.816 63.0087C125.816 55.8734 127.154 48.0119 129.397 41.9799C132.08 34.7612 135.648 30.9458 139.716 30.9458C145.056 30.9458 148.917 34.6782 151.19 42.039C152.8 47.2514 153.616 54.3066 153.616 63.0087C153.616 67.9035 146.635 70.0946 139.716 70.0946ZM139.716 33.1669C133.138 33.1669 128.037 49.2085 128.037 63.0087C128.037 66.1687 134.054 67.8738 139.716 67.8738C145.377 67.8738 151.395 66.169 151.395 63.0087C151.395 49.395 149.369 33.1669 139.716 33.1669Z" fill="#58595B"/>
<path d="M13.8259 53.059C13.8259 53.059 8.37413 46.7801 4.74833 43.9426C1.12286 41.1051 0.728715 44.8621 1.35902 48.5008C1.98965 52.1395 3.25059 59.7061 4.90599 66.4059C6.5614 73.1057 10.4234 78.3048 15.6251 73.38C20.8268 68.4551 22.2383 61.6342 13.8259 53.059Z" fill="white"/>
<path d="M11.6481 76.4358C8.21097 76.4358 5.36086 72.8768 3.82758 66.672C2.29236 60.4568 1.07697 53.4016 0.423727 49.6111L0.264777 48.6903C-0.0838137 46.6782 -0.262148 43.9981 0.868592 42.6544C1.31927 42.1188 1.92729 41.8354 2.62673 41.8354C3.45476 41.8354 4.37259 42.2386 5.43226 43.068C9.01929 45.8748 14.2039 51.8024 14.6417 52.3051C18.8955 56.6491 21.0145 60.9 20.9402 64.9403C20.8788 68.2741 19.3471 71.3846 16.3885 74.1859C14.8119 75.6791 13.2169 76.4358 11.6481 76.4358ZM2.62705 44.0565C2.60121 44.0565 2.59087 44.0598 2.59087 44.0598C2.38411 44.1922 1.95798 45.4512 2.45357 48.3114L2.61284 49.2337C3.26124 52.9968 4.4679 60.0016 5.98438 66.1396C7.21495 71.1206 9.38533 74.215 11.6487 74.215C12.6305 74.215 13.7119 73.6625 14.8623 72.5735C17.3722 70.197 18.6703 67.6154 18.7204 64.8996C18.7837 61.4699 16.8705 57.7475 13.0334 53.8368C13.0176 53.8206 13.0024 53.8038 12.9875 53.7874C12.9336 53.7253 7.56322 47.5554 4.06406 44.8174C3.16173 44.1115 2.73593 44.0565 2.62705 44.0565Z" fill="#58595B"/>
<path d="M35.2589 50.0572C35.2589 50.0572 28.1456 39.7549 24.9644 36.3468C21.7831 32.9388 16.4437 31.0071 14.5124 34.8698C12.5811 38.7324 13.3762 57.8186 15.8758 64.4079C18.3754 70.9972 23.4876 76.0229 29.0544 71.8627C34.6212 67.7026 42.5994 61.4954 35.2589 50.0572Z" fill="white"/>
<path d="M24.9524 74.4904C24.9521 74.4904 24.9517 74.4904 24.9514 74.4904C20.9195 74.4898 17.1386 70.8678 14.8374 64.8019C12.2383 57.949 11.4003 38.6114 13.5193 34.3734C14.4045 32.603 15.9947 31.6279 17.997 31.6279C20.4766 31.6279 23.5302 33.1825 25.7762 35.5894C28.9762 39.0178 35.8802 49.0032 36.1726 49.4264C36.1797 49.4368 36.1864 49.4471 36.1932 49.4578C39.6255 54.8062 40.2293 59.763 37.9876 64.191C36.0475 68.0226 32.3897 70.7564 29.7189 72.7523C28.176 73.9053 26.5719 74.4904 24.9524 74.4904ZM17.997 33.8487C16.8311 33.8487 16.0163 34.3449 15.5055 35.3665C13.7933 38.791 14.388 57.3548 16.9138 64.0143C18.4274 68.0045 21.3337 72.269 24.9514 72.2696C24.9514 72.2696 24.9517 72.2696 24.9521 72.2696C26.0822 72.2696 27.2387 71.8335 28.3895 70.9735C35.1433 65.9259 40.6794 60.5749 34.3346 50.6731C34.0225 50.2221 27.1861 40.3547 24.1525 37.1043C22.3352 35.1571 19.8615 33.8487 17.997 33.8487Z" fill="#58595B"/>
<path d="M34.4949 63.0087C34.4949 70.9759 60.0741 70.9759 60.0741 63.0087C60.0741 49.2331 54.9739 32.0562 47.2845 32.0562C36.569 32.0562 34.4949 49.2331 34.4949 63.0087Z" fill="white"/>
<path d="M47.2848 70.0946C40.366 70.0946 33.3848 67.9039 33.3848 63.0087C33.3848 54.3066 34.2008 47.2514 35.8107 42.039C38.0838 34.6782 41.9445 30.9458 47.2848 30.9458C51.3525 30.9458 54.9208 34.7616 57.6039 41.9799C59.8463 48.0119 61.1848 55.8734 61.1848 63.0087C61.1848 67.9035 54.2036 70.0946 47.2848 70.0946ZM47.2848 33.1669C37.6318 33.1669 35.6055 49.395 35.6055 63.0087C35.6055 66.1687 41.623 67.8738 47.2848 67.8738C52.9466 67.8738 58.964 66.169 58.964 63.0087C58.964 49.2085 53.8621 33.1669 47.2848 33.1669Z" fill="#58595B"/>
<path d="M126.926 65.8378C126.926 73.8713 93.5001 73.8713 93.5001 65.8378C93.5001 51.9482 96.2103 30.2363 110.213 30.2363C124.216 30.2363 126.926 51.9482 126.926 65.8378Z" fill="white"/>
<path d="M110.213 72.9735C101.991 72.9735 92.3897 71.1049 92.3897 65.8382C92.3897 54.7999 94.1265 29.126 110.213 29.126C126.3 29.126 128.036 54.7999 128.036 65.8382C128.036 71.1049 118.435 72.9735 110.213 72.9735ZM110.213 31.3471C104.544 31.3471 100.319 35.3299 97.6573 43.1849C95.0066 51.0074 94.6105 60.7353 94.6105 65.8382C94.6105 68.594 101.464 70.7527 110.213 70.7527C118.962 70.7527 125.815 68.594 125.815 65.8382C125.815 60.7356 125.42 51.0074 122.768 43.1849C120.107 35.3299 115.882 31.3471 110.213 31.3471Z" fill="#58595B"/>
<path d="M60.0745 65.8378C60.0745 73.8713 93.5001 73.8713 93.5001 65.8378C93.5001 51.9482 90.7899 30.2363 76.7871 30.2363C62.7844 30.2363 60.0745 51.9482 60.0745 65.8378Z" fill="white"/>
<path d="M76.7874 72.9735C68.5653 72.9735 58.9641 71.1049 58.9641 65.8382C58.9641 54.7999 60.7005 29.126 76.7871 29.126C92.8736 29.126 94.6105 54.7999 94.6105 65.8382C94.6105 71.1049 85.0092 72.9735 76.7874 72.9735ZM76.7871 31.3471C71.1179 31.3471 66.8934 35.3299 64.2314 43.1849C61.5803 51.0074 61.1845 60.7353 61.1845 65.8382C61.1845 68.594 68.0378 70.7527 76.7871 70.7527C85.5361 70.7527 92.3894 68.594 92.3894 65.8382C92.3894 60.7353 91.9936 51.0074 89.3425 43.1849C86.6811 35.3299 82.4566 31.3471 76.7871 31.3471Z" fill="#58595B"/>
<defs>
<linearGradient id="paint0_linear_2514_3180" x1="158.106" y1="69.6185" x2="156.827" y2="79.9024" gradientUnits="userSpaceOnUse">
<stop stop-color="#DBDBDB"/>
<stop offset="1" stop-color="white"/>
</linearGradient>
<linearGradient id="paint1_linear_2514_3180" x1="168.359" y1="70.3848" x2="167.305" y2="79.2067" gradientUnits="userSpaceOnUse">
<stop stop-color="#DBDBDB"/>
<stop offset="1" stop-color="white"/>
</linearGradient>
<linearGradient id="paint2_linear_2514_3180" x1="141.928" y1="69.041" x2="140.55" y2="80.4986" gradientUnits="userSpaceOnUse">
<stop stop-color="#DBDBDB"/>
<stop offset="1" stop-color="white"/>
</linearGradient>
<linearGradient id="paint3_linear_2514_3180" x1="24" y1="75.3701" x2="23.0931" y2="79.8888" gradientUnits="userSpaceOnUse">
<stop stop-color="#DBDBDB"/>
<stop offset="1" stop-color="white"/>
</linearGradient>
<linearGradient id="paint4_linear_2514_3180" x1="40" y1="69.3706" x2="38.6224" y2="80.8282" gradientUnits="userSpaceOnUse">
<stop stop-color="#DBDBDB"/>
<stop offset="1" stop-color="white"/>
</linearGradient>
<linearGradient id="paint5_linear_2514_3180" x1="101.424" y1="67.2518" x2="100.305" y2="77.3026" gradientUnits="userSpaceOnUse">
<stop stop-color="#DBDBDB"/>
<stop offset="1" stop-color="white"/>
</linearGradient>
<linearGradient id="paint6_linear_2514_3180" x1="122.092" y1="69.1415" x2="120.841" y2="79.7911" gradientUnits="userSpaceOnUse">
<stop stop-color="#DBDBDB"/>
<stop offset="1" stop-color="white"/>
</linearGradient>
<linearGradient id="paint7_linear_2514_3180" x1="80.7983" y1="67.2518" x2="79.68" y2="77.3026" gradientUnits="userSpaceOnUse">
<stop stop-color="#DBDBDB"/>
<stop offset="1" stop-color="white"/>
</linearGradient>
<linearGradient id="paint8_linear_2514_3180" x1="60.102" y1="69.4696" x2="58.8516" y2="80.1193" gradientUnits="userSpaceOnUse">
<stop stop-color="#DBDBDB"/>
<stop offset="1" stop-color="white"/>
</linearGradient>
</defs>
</svg>
