<svg width="88" height="77" viewBox="0 0 88 77" fill="none" xmlns="http://www.w3.org/2000/svg">
<path d="M43.5487 76.0242C29.5 76.0242 11.5487 63.2877 11.5487 46.033C11.5487 28.7783 23.576 12.0242 40.2246 12.0242C56.8731 12.0242 74.5487 25.1544 74.5487 42.4091C74.5487 59.6638 60.1973 76.0242 43.5487 76.0242Z" fill="#FFCB06"/>
<path d="M36.1224 43.6037C35.2992 48.2407 31.8288 51.5022 28.3711 50.8883C24.9134 50.2745 22.7777 46.0178 23.601 41.3807C24.4242 36.7437 28.5992 32.82 32.0569 33.4338C35.5147 34.0477 36.9457 38.9666 36.1224 43.6037Z" fill="white"/>
<ellipse cx="29.8622" cy="42.4924" rx="2.89029" ry="3.87609" transform="rotate(10.067 29.8622 42.4924)" fill="#48528A"/>
<ellipse cx="27.857" cy="40.5617" rx="1.73417" ry="2.32566" transform="rotate(10.067 27.857 40.5617)" fill="white"/>
<path d="M31.743 32C29.9424 32.3689 24.8074 36.6105 24.8487 37.7278" stroke="#1A2644" stroke-width="3" stroke-linecap="round"/>
<path d="M51.3746 43.3824C52.1979 48.0195 55.6682 51.2809 59.126 50.6671C62.5837 50.0532 64.7193 45.7965 63.8961 41.1595C63.0729 36.5224 58.8978 32.5987 55.4401 33.2126C51.9824 33.8264 50.5514 38.7454 51.3746 43.3824Z" fill="white"/>
<ellipse cx="57.5352" cy="41.8036" rx="2.89029" ry="3.87609" transform="rotate(-5.11976 57.5352 41.8036)" fill="#48528A"/>
<ellipse cx="55.0943" cy="40.4656" rx="1.73417" ry="2.32566" transform="rotate(-5.11976 55.0943 40.4656)" fill="white"/>
<path d="M55.0273 31.6119C56.8599 31.4696 62.9659 34.1296 63.2345 35.2149" stroke="#1A2644" stroke-width="3" stroke-linecap="round"/>
<path d="M35.0002 64C40.0002 58.2266 48.0002 58.2265 52.0002 60.1509" stroke="#D95930" stroke-width="3" stroke-linecap="round"/>
<ellipse cx="24.5002" cy="56.5" rx="2.5" ry="1.5" fill="#F4B63F"/>
<ellipse cx="63.5002" cy="55.5" rx="2.5" ry="1.5" fill="#F4B63F"/>
<path d="M29.896 12.6263C13.0201 14.5161 14.3244 27.6458 14.9101 31.9325C22.4825 32.8941 27.6296 25.8973 29.2565 22.2788C36.8305 27.5514 55.2009 31.7131 64.4572 20.6339C73.7135 9.55465 61.2627 4.52871 54.3345 1.59379C53.1136 12.3653 46.7718 10.7365 29.896 12.6263Z" fill="#1A2644"/>
<path d="M70.9102 67.9497C76.3871 63.3229 79.1608 56.2218 79.7684 49" stroke="#FCEFE8" stroke-width="3" stroke-linecap="round" stroke-linejoin="round"/>
<path d="M16.3792 68.9497C10.9023 64.3229 8.12859 57.2218 7.521 50" stroke="#FCEFE8" stroke-width="3" stroke-linecap="round" stroke-linejoin="round"/>
<path d="M8.94086 68.6866C4.98514 65.3448 2.98178 60.216 2.54294 55" stroke="#FCEFE8" stroke-width="3" stroke-linecap="round" stroke-linejoin="round"/>
<path d="M79.7558 66.4341C83.0605 63.6423 84.7341 59.3576 85.1007 55" stroke="#FCEFE8" stroke-width="3" stroke-linecap="round" stroke-linejoin="round"/>
</svg>
