<svg width="360" height="906" fill="none" xmlns="http://www.w3.org/2000/svg"><mask id="a" style="mask-type:alpha" maskUnits="userSpaceOnUse" x="0" y="0" width="360" height="906"><rect y=".313" width="360" height="905" rx="15" fill="#FFF8F4"/></mask><g mask="url(#a)" fill-rule="evenodd" clip-rule="evenodd"><path d="M2.565 12.19c-6.552 2.953-15.35-5.811-21.624-9.82-56.268-26.47 49.553 131.153 55.567 54.576l4.932-5.88 5.88-4.932C123.898 40.12-33.726-65.702-7.256-9.434-3.246-3.16 5.518 5.638 2.564 12.19z" fill="#fff"/><path d="M298.582 30.36c-3.013.492-5.66-4.072-7.793-6.406-20.177-17.048 5.913 59.262 16.8 28.502l2.67-1.87 2.955-1.377c32.082 5.951-20.959-54.799-16.284-28.8.955 3.014 3.584 7.588 1.652 9.951z" fill="#FFF2D7"/><path d="M30.127 179.254c-2.336.541-4.647-2.898-6.44-4.617-16.7-12.313 7.713 46.14 14.647 21.466l1.996-1.604 2.244-1.233c25.454 2.998-19.273-41.86-14.258-21.727.905 2.313 3.203 5.761 1.811 7.715z" fill="#EDDFF5"/><path d="M348.333 128.625c-4.978 1.902-11.111-4.965-15.581-8.203-40.503-22.023 31.01 99.215 38.77 42.796l3.904-4.139 4.566-3.396c56.939-1.142-55.154-86.278-37.993-43.487 2.696 4.816 8.802 11.707 6.334 16.429z" fill="#FAEDE6"/></g><mask id="b" style="mask-type:alpha" maskUnits="userSpaceOnUse" x="0" y="0" width="360" height="466"><path fill="#D9D9D9" d="M0 .625h360v465H0z"/></mask><g mask="url(#b)" stroke="#FCEFE8" stroke-width="20"><path d="M216.757 196.9c38.311-9.594 152.552 5.888 105.809 93.421M45.008 392.097C-6.454 362.296-94.352 265.442 81.19 288.054m73.965 19.64c-38.092-24.653-101.997-106.773 29.923-91.498"/><path d="M243.158 256.986c38.092-24.653 101.998-106.773-29.923-91.498M24.119 345.008c-12.464-51.579 3.42-179.52 109.87-72.106"/></g></svg>