<svg width="1596" height="863" fill="none" xmlns="http://www.w3.org/2000/svg"><mask id="a" style="mask-type:alpha" maskUnits="userSpaceOnUse" x="669" y="0" width="927" height="863"><path fill="#D9D9D9" d="M669 .835h927v862H669z"/></mask><g mask="url(#a)"><path d="M1547 713.557c0 44.49-40.91 69.278-85.42 69.278-44.5 0-80.58-36.066-80.58-80.556 0-44.489 58.64-93.444 103.15-93.444 44.5 0 62.85 60.233 62.85 104.722z" fill="#FCEFE8"/><path d="M1201.53 398.613c71.02-17.783 282.79 10.915 196.14 173.181M892.344 822.392c-107.675-68.08-289.033-293.747 82.637-249.664m112.349 31.271c-70.61-45.701-189.076-197.931 55.47-169.615" stroke="#FCEFE8" stroke-width="28"/><path d="M1250.47 509.999c70.61-45.701 189.08-197.931-55.47-169.615M844.423 673.172c-23.105-95.616 6.341-332.788 203.677-133.668" stroke="#FCEFE8" stroke-width="28"/></g><path fill-rule="evenodd" clip-rule="evenodd" d="M788.175 68.069c-4.257 3.492-1.236 12.515-.619 18.186-.983 47.636-73.164-78.66-18.55-56.722l5.715-1.383 5.387-2.358c30.195-50.52 49.184 93.702 19.568 56.378-2.941-4.887-5.998-13.898-11.501-14.102z" fill="#FFDDF6"/><path fill-rule="evenodd" clip-rule="evenodd" d="M84.84 582.75c1.736 2.511-1.251 6.859-2.445 9.788-6.745 25.539 50.998-30.76 18.542-27.402l-2.835-1.609-2.512-2.079c-8.384-31.534-40.512 42.437-19.032 27.063 2.314-2.156 5.318-6.492 8.282-5.761z" fill="#FFF2D7"/><path fill-rule="evenodd" clip-rule="evenodd" d="M461.002 82.075c2.869 2.395.766 8.501.314 12.346.389 32.336 50.115-52.959 12.92-38.388l-3.871-.973-3.642-1.631c-20.198-34.464-33.927 63.308-13.609 38.15 2.025-3.3 4.152-9.398 7.888-9.504z" fill="#F3D78D"/><path fill-rule="evenodd" clip-rule="evenodd" d="M30.199 334.199c-2.567 1.156-6.013-2.277-8.47-3.847-22.041-10.369 19.41 51.374 21.766 21.378l1.932-2.303 2.303-1.932c29.996-2.356-31.747-43.807-21.378-21.767 1.57 2.458 5.003 5.904 3.847 8.471z" fill="#EDDFF5"/><path fill-rule="evenodd" clip-rule="evenodd" d="M1404.2 126.083c-1.74-2.511 1.25-6.859 2.44-9.787 6.75-25.54-50.99 30.76-18.54 27.401l2.84 1.61 2.51 2.078c8.38 31.534 40.51-42.436 19.03-27.063-2.31 2.156-5.32 6.493-8.28 5.761z" fill="#FFF2D7"/><path fill-rule="evenodd" clip-rule="evenodd" d="M1478.43 343.265c6.94-3.125 16.25 6.153 22.89 10.397 59.58 28.025-52.46-138.855-58.83-57.781l-5.22 6.226-6.22 5.221c-81.08 6.367 85.8 118.404 57.78 58.831-4.25-6.641-13.53-15.956-10.4-22.894z" fill="#EDDFF5"/><path fill-rule="evenodd" clip-rule="evenodd" d="M50.806 162.228c4.548 5.565-1.64 16.332-3.889 23.429-11.005 61.201 113.859-81.811 38.335-67.8l-6.957-3.241-6.285-4.404C46.38 37.8-15.04 217.442 32.46 177.31c5.022-5.496 11.253-16.238 18.346-15.082z" fill="#fff"/><path fill-rule="evenodd" clip-rule="evenodd" d="M599.282 779.163c-5.221 1.21-10.388-6.476-14.396-10.318-37.326-27.521 17.24 103.129 32.74 47.98l4.46-3.587 5.016-2.755c56.893 6.701-43.077-93.563-31.87-48.562 2.024 5.17 7.16 12.877 4.05 17.242z" fill="#EDDFF5"/><path d="M681.071 697.684l-.317-.183-.362-.059c-4.811-.784-8.952 2.493-12.163 5.867-1.673 1.758-3.259 3.725-4.721 5.563l-.472.594c-1.267 1.595-2.425 3.054-3.519 4.261-2.973 2.501-5.422 4.061-7.392 4.89-1.999.842-3.314.855-4.159.576-.798-.263-1.539-.909-2.146-2.237-.621-1.359-1.028-3.294-1.157-5.792-.521-10.07 3.549-26.903 10.106-42.925 3.261-7.97 7.102-15.649 11.217-22.091 4.136-6.472 8.463-11.56 12.654-14.492 4.154-2.906 7.846-3.506 11.162-1.785 3.526 1.83 7.233 6.558 10.532 15.878l.214.603.524.367 6.565 4.601.144.1.159.074 7.267 3.386.58.271.629-.117c9.721-1.803 15.669-.957 19.017 1.182 3.148 2.012 4.475 5.509 4.035 10.56-.444 5.094-2.686 11.386-6.224 18.204-3.521 6.785-8.251 13.95-13.522 20.759-10.598 13.69-23.14 25.631-32.122 30.215-2.228 1.137-4.106 1.752-5.594 1.894-1.454.138-2.383-.181-3.01-.74-.664-.592-1.311-1.738-1.581-3.889-.267-2.121-.14-5.022.539-8.848.498-1.55 1.182-3.282 1.93-5.175l.279-.708c.861-2.185 1.772-4.543 2.458-6.87 1.316-4.468 2.083-9.693-1.002-13.468l-.231-.283-.317-.183z" stroke="#fff" stroke-width="4"/><path d="M78.325 759.347l-.274.021-.263-.077c-2.314-.678-3.372-2.988-3.975-4.842-.323-.997-.573-2.052-.792-3.009l-.07-.307c-.187-.817-.352-1.54-.535-2.161-.649-1.425-1.252-2.378-1.78-2.972-.542-.611-.9-.731-1.053-.751-.115-.015-.333-.002-.704.308-.39.326-.846.903-1.325 1.784-1.945 3.576-3.442 10.544-3.86 17.743-.207 3.566-.144 7.116.24 10.241.386 3.154 1.086 5.755 2.075 7.508.974 1.724 2.066 2.392 3.29 2.353 1.402-.045 3.5-1.008 6.395-3.895l.34-.339.473-.079 3.308-.55.13-.022.132.002 3.353.034.48.005.388.283c3.304 2.408 5.525 3.037 6.917 2.866 1.216-.149 2.193-.977 2.89-2.83.708-1.885 1-4.563.897-7.738-.102-3.148-.586-6.665-1.338-10.157-1.52-7.049-4.07-13.704-6.542-16.938-.61-.797-1.147-1.297-1.584-1.559-.414-.249-.63-.228-.743-.196-.147.043-.483.217-.925.904-.43.668-.88 1.702-1.301 3.21-.085.641-.138 1.38-.196 2.216l-.023.316c-.07.979-.153 2.06-.32 3.095-.31 1.924-1 4.37-3.183 5.395l-.248.117-.274.021zm219-667l-.274.021-.263-.077c-2.314-.678-3.372-2.988-3.975-4.842-.324-.996-.573-2.052-.792-3.009l-.07-.307c-.187-.817-.352-1.54-.535-2.16-.649-1.426-1.252-2.379-1.78-2.973-.542-.611-.901-.731-1.053-.75-.115-.016-.333-.003-.704.307-.391.326-.846.903-1.325 1.784-1.945 3.576-3.442 10.544-3.86 17.743-.207 3.566-.144 7.116.239 10.241.387 3.154 1.087 5.755 2.076 7.508.974 1.724 2.066 2.392 3.29 2.353 1.402-.045 3.501-1.008 6.395-3.895l.34-.339.473-.079 3.308-.55.13-.022.132.002 3.353.034.48.005.388.283c3.304 2.408 5.525 3.037 6.917 2.866 1.216-.149 2.193-.977 2.889-2.83.709-1.885 1-4.563.898-7.738-.102-3.148-.586-6.665-1.339-10.157-1.519-7.049-4.07-13.704-6.541-16.938-.609-.797-1.147-1.297-1.584-1.56-.414-.248-.631-.228-.743-.195-.147.043-.483.217-.925.904-.43.668-.88 1.702-1.301 3.21-.086.641-.138 1.38-.196 2.216l-.023.316c-.069.98-.153 2.06-.32 3.095-.31 1.924-1.001 4.37-3.183 5.395l-.249.117-.273.02z" stroke="#fff" stroke-width="3"/></svg>