<svg width="767" height="713" fill="none" xmlns="http://www.w3.org/2000/svg"><mask id="a" style="mask-type:alpha" maskUnits="userSpaceOnUse" x="0" y="0" width="767" height="713"><path fill="#D9D9D9" d="M0 0h767v713H0z"/></mask><g mask="url(#a)"><path d="M511.501 358.382c153-125 345.499 105.5 184.5 184.5M265.78 591.536C155.639 545.722-40.475 410.619 321.481 469.11m110.369 30.71c-69.367-44.881-185.741-194.379 54.491-166.571" stroke="#FCEFE8" stroke-width="30"/><path d="M592.107 407.507c69.367-44.881 185.741-194.379-54.491-166.571M193.227 567.75c-22.697-93.9 6.23-326.814 200.079-131.269" stroke="#FCEFE8" stroke-width="30"/><path fill-rule="evenodd" clip-rule="evenodd" d="M59.983 114.357c-8.082 4.617-16.557-3.812-23.019-7.248-59.724-19.914 32.46 141.478 53.672 52.346l6.765-7.679 7.68-6.765c89.131-21.212-72.26-113.396-52.347-53.672 3.437 6.461 11.866 14.936 7.248 23.018z" fill="#fff"/><path fill-rule="evenodd" clip-rule="evenodd" d="M211.882 111.214c-3.12.723-6.208-3.872-8.604-6.168-22.311-16.45 10.304 61.643 19.569 28.679l2.666-2.144 2.999-1.647c34.006 4.006-25.749-55.925-19.05-29.027 1.21 3.091 4.28 7.697 2.42 10.307z" fill="#EDDFF5"/><path fill-rule="evenodd" clip-rule="evenodd" d="M660.778 82.647c-4.018.655-7.547-5.43-10.392-8.543-26.905-22.731 7.885 79.022 22.402 38.006l3.56-2.494 3.94-1.836c42.779 7.936-27.947-73.07-21.713-38.404 1.274 4.02 4.779 10.119 2.203 13.27z" fill="#FFF2D7"/><path fill-rule="evenodd" clip-rule="evenodd" d="M689.428 222.488c-4.341 1.659-9.689-4.33-13.587-7.154-35.321-19.205 27.042 86.52 33.809 37.32l3.405-3.609 3.981-2.962c49.653-.996-48.097-75.238-33.132-37.922 2.351 4.2 7.676 10.209 5.524 14.327z" fill="#FAEDE6"/></g></svg>