<svg width="18" height="18" viewBox="0 0 18 18" fill="none" xmlns="http://www.w3.org/2000/svg">
<g clip-path="url(#clip0_3102_220)">
<path d="M4.40012 4.00637C5.002 3.36527 5.73067 2.85637 6.5398 2.51207C7.34893 2.16777 8.22084 1.99557 9.10012 2.00637C10.0658 2.00257 11.0209 2.20717 11.9002 2.60637C12.7498 3.00577 13.4755 3.62777 14.0002 4.40637L3.00012 11.8064C2.60049 10.892 2.39614 9.90427 2.40012 8.90637C2.39985 7.07417 3.1179 5.31497 4.40012 4.00637ZM15.6002 9.10637C15.5575 10.9298 14.8457 12.6739 13.6002 14.0064C13.0207 14.6424 12.3079 15.1425 11.5127 15.4709C10.7174 15.7994 9.85948 15.9481 9.00012 15.9064C8.12084 15.9172 7.24893 15.7449 6.4398 15.4006C5.63066 15.0563 4.902 14.5475 4.30012 13.9064C4.00936 13.5931 3.74198 13.2588 3.50012 12.9064L15.8002 4.70637C15.1033 3.47677 14.1054 2.44447 12.9002 1.70637C11.7145 1.02657 10.3666 0.681074 9.00012 0.706374C7.92149 0.694674 6.85164 0.901273 5.85491 1.31377C4.85817 1.72617 3.95515 2.33597 3.20012 3.10637C1.78028 4.74397 0.999102 6.83897 1.00012 9.00637C0.996011 10.1014 1.19961 11.1872 1.60012 12.2064C2.00937 13.2199 2.62197 14.1388 3.40012 14.9064C4.14438 15.6412 5.02849 16.2193 6.00012 16.6064C6.95221 16.9975 7.97083 17.2012 9.00012 17.2064C10.0392 17.2117 11.069 17.0111 12.0302 16.6164C12.9913 16.2216 13.8648 15.6404 14.6002 14.9064C16.1225 13.349 17.0132 11.2825 17.1002 9.10637H15.6002Z" fill="#006495"/>
</g>
<defs>
<clipPath id="clip0_3102_220">
<rect width="18" height="17" fill="white" transform="translate(6.10352e-05 0.705078)"/>
</clipPath>
</defs>
</svg>
