<svg width="150" height="87" viewBox="0 0 150 87" fill="none" xmlns="http://www.w3.org/2000/svg">
<path d="M78.1273 47.0258C80.3348 44.3233 82.1092 41.2943 83.387 38.0471C84.6098 34.7982 85.3747 31.3951 85.6597 27.9354C85.9954 24.5599 85.9231 21.1562 85.4441 17.798C84.9813 14.4394 83.9311 11.1884 82.3417 8.19373C81.534 6.68722 80.5126 5.30548 79.3092 4.09144C78.0753 2.81376 76.5753 1.82338 74.9156 1.19064C73.0552 0.50493 71.0188 0.461452 69.1309 1.06712C67.2155 1.73681 65.5291 2.93568 64.2673 4.52475C63.662 5.25287 63.1173 6.02932 62.6387 6.84628C62.2058 7.64163 61.8149 8.4591 61.4675 9.29532C61.1313 10.0988 60.8479 10.9234 60.6189 11.7637L60.2236 13.0526L59.9492 14.2899C59.3072 17.452 58.9741 20.669 58.9547 23.8956C58.8921 27.057 59.2775 30.2113 60.0994 33.2647C60.8816 36.1599 62.0797 38.9264 63.6562 41.4776L64.2127 42.4057L64.8493 43.2739C65.2623 43.8461 65.6915 44.4429 66.1063 44.9858C66.9708 46.0689 67.8909 47.1065 68.8628 48.0944C69.429 48.664 70.0263 49.2061 70.6236 49.7482C70.0479 50.2198 69.4888 50.6101 68.8592 51.0962C66.4702 52.7933 63.8638 54.1613 61.11 55.1635C58.4616 56.0892 55.6874 56.6055 52.8833 56.6946C47.5221 56.7006 42.2293 55.4914 37.4027 53.1578C32.8815 50.9678 28.6876 48.1584 24.9421 44.8106C21.5015 41.7564 18.3134 38.4292 15.4089 34.8615C12.8291 31.7613 10.4591 28.4923 8.31459 25.0765C5.14462 20.0848 2.8129 14.6081 1.41187 8.86331C0.483507 4.71661 0.455406 2.24267 0.220327 2.33451C0.0744472 2.91216 0.0266182 3.51019 0.0788245 4.10368C0.0932479 5.78269 0.236706 7.45811 0.507927 9.11514C1.58769 15.0694 3.71818 20.7841 6.79982 25.9921C8.86473 29.5665 11.1746 32.9936 13.7128 36.2489C16.5863 39.9983 19.7618 43.5061 23.2077 46.7373C27.0386 50.34 31.3607 53.3819 36.0449 55.7722C41.2102 58.4185 46.9159 59.8386 52.719 59.9222C55.8642 59.8867 58.985 59.3651 61.9709 58.3761C65.0769 57.3087 68.0208 55.8176 70.719 53.9449C71.6575 53.3129 72.5594 52.6281 73.4203 51.8938C75.8841 53.7686 78.5116 55.4177 81.2712 56.821C88.645 60.4924 96.5202 63.0557 104.642 64.428C110.521 65.4635 116.474 66.0236 122.442 66.1027C129.055 66.2412 135.663 65.6669 142.152 64.3897L144.159 63.9097L142.735 65.2723C141.244 66.778 139.886 68.3152 138.608 69.7925C136.384 72.4373 134.366 75.2482 132.57 78.2007C129.5 83.2552 128.321 86.7162 128.744 86.93C129.167 87.1437 131.193 84.1867 134.64 79.714C136.398 77.4827 138.504 74.8602 141.034 72.1337C142.3 70.7557 143.656 69.3538 145.099 67.9571C145.836 67.2596 146.579 66.5507 147.344 65.855C147.73 65.5015 148.095 65.2114 148.629 64.6548C149.346 63.9446 149.81 63.0196 149.953 62.0207C150.016 61.4842 149.968 60.9404 149.813 60.423C149.685 60.0194 149.504 59.6345 149.275 59.2782C148.924 58.761 148.519 58.2828 148.066 57.8518C147.367 57.1447 146.654 56.4603 145.971 55.7777C144.581 54.4286 143.227 53.1466 141.929 51.9267C139.306 49.5325 136.897 47.5043 134.763 45.7869C130.606 42.4765 127.734 40.6972 127.392 41.1063C127.049 41.5155 129.258 44.0496 132.958 47.9153L139.507 54.6244C140.742 55.8837 142.028 57.2029 143.366 58.5821C144.031 59.2695 144.719 59.9701 145.407 60.6706C145.427 60.6885 145.45 60.702 145.475 60.71C144.667 60.7439 143.526 60.8285 141.902 61.0135C135.574 61.6733 129.21 61.9166 122.851 61.7419C117.108 61.5242 111.388 60.8936 105.735 59.8552C98.0261 58.4917 90.5521 56.0311 83.5408 52.5484C81.2378 51.3657 79.0306 50.0052 76.9393 48.4791C77.3618 48.01 77.7844 47.5409 78.1841 47.0587L78.1273 47.0258ZM72.2002 44.4686C71.3265 43.6057 70.4988 42.6974 69.7206 41.7474C69.343 41.2715 68.9851 40.7615 68.6093 40.2563L68.0602 39.4993L67.5733 38.6872C66.1935 36.51 65.1493 34.1376 64.4757 31.6496C63.7483 29.0192 63.3982 26.2989 63.4361 23.57C63.421 20.6724 63.6931 17.7804 64.2486 14.9365L64.4718 13.8668L64.7632 12.8366C64.951 12.1554 65.1759 11.4851 65.437 10.8286C65.6714 10.1598 65.9915 9.63161 66.3091 8.9502C66.6332 8.38509 67.004 7.84816 67.4179 7.34504C68.0466 6.41283 68.966 5.71466 70.0328 5.35923C71.0996 5.0038 72.2539 5.01106 73.3162 5.37988C75.688 6.43738 77.6184 8.28664 78.7767 10.6109C80.1581 13.1584 81.0855 15.927 81.5172 18.7926C81.9781 21.8092 82.075 24.8703 81.8058 27.9101C81.6034 30.9653 80.9729 33.977 79.9325 36.8567C78.8338 39.7056 77.2979 42.3659 75.38 44.7419C74.9719 45.2648 74.5411 45.7746 74.1054 46.2664C73.4398 45.685 72.7922 45.0987 72.1188 44.4519" fill="#FFCB06"/>
</svg>
