<svg width="16" height="14" viewBox="0 0 16 14" fill="none" xmlns="http://www.w3.org/2000/svg">
<path d="M9.83352 2.89632L9.83409 2.89633C10.2198 2.9012 10.608 2.90364 10.9987 2.90364C12.3186 2.90364 13.6487 2.86953 14.9888 2.80134L15.0567 2.79788L15.1084 2.75376C15.3028 2.58796 15.4498 2.39946 15.4736 2.18648C15.4879 2.05831 15.4976 1.96487 15.4976 1.93105C15.4976 1.64283 15.3752 1.40522 15.141 1.23666L15.1052 1.21088L15.0619 1.20257C15.0074 1.19211 14.8927 1.18379 14.7386 1.17558C14.5774 1.16699 14.356 1.15784 14.075 1.14812C13.5157 1.12373 12.8584 1.1067 12.1032 1.09697C11.3534 1.08239 10.649 1.07266 9.99 1.0678V1.06779H9.98852H9.61635C9.1611 1.06779 8.82156 1.07486 8.60132 1.08953C6.80293 1.05562 5.48011 1.03864 4.63386 1.03864C3.86304 1.03864 3.19036 1.04593 2.61602 1.06057L2.61602 1.06047L2.60984 1.06082C2.442 1.07029 2.26893 1.07506 2.0906 1.07508L1.46135 1.0678L1.46135 1.06779H1.45904C1.1849 1.06779 0.936597 1.08019 0.714789 1.10553L0.640251 1.11404L0.589702 1.16948C0.45412 1.31817 0.377988 1.49367 0.377988 1.69053C0.377988 1.74281 0.384319 1.79455 0.396596 1.84543C0.399394 1.86681 0.400774 1.88805 0.400774 1.90918C0.400774 1.96377 0.388924 2.03346 0.358681 2.12052L0.329276 2.20518L0.372881 2.28347L0.608334 2.7062L0.658336 2.79598L0.760436 2.8076C1.07334 2.84323 1.96601 2.8599 3.41862 2.8599C3.59746 2.8599 3.79962 2.86467 4.02531 2.8743L4.02531 2.87435L4.02966 2.87444C4.26384 2.87932 4.48803 2.88177 4.70222 2.88177C4.84925 2.88177 5.07833 2.88887 5.3917 2.90342L5.39169 2.90364H5.40098H8.45428V2.90381L8.46261 2.90346L8.80782 2.88906C9.18007 2.88908 9.52195 2.8915 9.83352 2.89632Z" fill="white" stroke="white" stroke-width="0.4"/>
<path d="M9.83352 11.3009L9.83409 11.3009C10.2198 11.2961 10.608 11.2936 10.9987 11.2936C12.3186 11.2936 13.6487 11.3277 14.9888 11.3959L15.0567 11.3994L15.1084 11.4435C15.3028 11.6093 15.4498 11.7978 15.4736 12.0108C15.4879 12.139 15.4976 12.2324 15.4976 12.2662C15.4976 12.5544 15.3752 12.7921 15.141 12.9606L15.1052 12.9864L15.0619 12.9947C15.0074 13.0052 14.8927 13.0135 14.7386 13.0217C14.5774 13.0303 14.356 13.0394 14.075 13.0492C13.5157 13.0735 12.8584 13.0906 12.1032 13.1003C11.3534 13.1149 10.649 13.1246 9.99 13.1295V13.1295H9.98852H9.61635C9.1611 13.1295 8.82156 13.1224 8.60132 13.1077C6.80293 13.1416 5.48011 13.1586 4.63386 13.1586C3.86304 13.1586 3.19036 13.1513 2.61602 13.1367L2.61602 13.1368L2.60984 13.1364C2.442 13.127 2.26893 13.1222 2.0906 13.1222L1.46135 13.1295L1.46135 13.1295H1.45904C1.1849 13.1295 0.936597 13.1171 0.714789 13.0917L0.640251 13.0832L0.589702 13.0278C0.45412 12.8791 0.377988 12.7036 0.377988 12.5067C0.377988 12.4545 0.384319 12.4027 0.396596 12.3518C0.399394 12.3305 0.400774 12.3092 0.400774 12.2881C0.400774 12.2335 0.388924 12.1638 0.358681 12.0767L0.329276 11.9921L0.372881 11.9138L0.608334 11.4911L0.658336 11.4013L0.760436 11.3897C1.07334 11.354 1.96601 11.3374 3.41862 11.3374C3.59746 11.3374 3.79962 11.3326 4.02531 11.323L4.02531 11.3229L4.02966 11.3228C4.26384 11.3179 4.48803 11.3155 4.70222 11.3155C4.84925 11.3155 5.07833 11.3084 5.3917 11.2938L5.39169 11.2936H5.40098H8.45428V11.2935L8.46261 11.2938L8.80782 11.3082C9.18007 11.3082 9.52195 11.3058 9.83352 11.3009Z" fill="white" stroke="white" stroke-width="0.4"/>
<path d="M6.0117 6.17345L6.01113 6.17344C5.62545 6.16857 5.23725 6.16614 4.84653 6.16614C3.52657 6.16614 2.19654 6.20024 0.856444 6.26843L0.788542 6.27189L0.736814 6.31601C0.542447 6.48181 0.395409 6.67031 0.371629 6.8833C0.357318 7.01146 0.347608 7.1049 0.347608 7.13872C0.347608 7.42694 0.47 7.66455 0.704206 7.83312L0.740014 7.85889L0.78334 7.8672C0.837843 7.87766 0.952523 7.88598 1.1066 7.89419C1.26777 7.90278 1.48917 7.91193 1.77023 7.92166C2.32947 7.94604 2.98681 7.96307 3.74198 7.9728C4.49183 7.98738 5.19625 7.99711 5.85522 8.00198V8.00198H5.8567H6.22886C6.68412 8.00198 7.02365 7.99491 7.2439 7.98024C9.04229 8.01415 10.3651 8.03113 11.2114 8.03113C11.9822 8.03113 12.6549 8.02384 13.2292 8.0092L13.2292 8.0093L13.2354 8.00895C13.4032 7.99948 13.5763 7.99471 13.7546 7.99469L14.3839 8.00197L14.3839 8.00198H14.3862C14.6603 8.00198 14.9086 7.98958 15.1304 7.96425L15.205 7.95573L15.2555 7.90029C15.3911 7.7516 15.4672 7.5761 15.4672 7.37924C15.4672 7.32696 15.4609 7.27522 15.4486 7.22434C15.4458 7.20296 15.4444 7.18173 15.4444 7.16059C15.4444 7.106 15.4563 7.03631 15.4865 6.94925L15.5159 6.8646L15.4723 6.7863L15.2369 6.36357L15.1869 6.2738L15.0848 6.26217C14.7719 6.22655 13.8792 6.20987 12.4266 6.20987C12.2478 6.20987 12.0456 6.2051 11.8199 6.19547L11.8199 6.19542L11.8156 6.19533C11.5814 6.19045 11.3572 6.188 11.143 6.188C10.996 6.188 10.7669 6.1809 10.4535 6.16635L10.4535 6.16614H10.4442H7.39094V6.16596L7.3826 6.16631L7.03739 6.18071C6.66515 6.18069 6.32327 6.17827 6.0117 6.17345Z" fill="white" stroke="white" stroke-width="0.4"/>
</svg>
