<svg width="16" height="16" viewBox="0 0 16 16" fill="none" xmlns="http://www.w3.org/2000/svg">
<path d="M5.64819 4.2585C6.03441 4.64472 6.41582 5.03074 6.79242 5.41656C7.09879 5.73215 7.43757 6.07553 7.80874 6.44671L8.16865 6.77899L11.1932 9.80358C11.4904 10.1284 11.7142 10.366 11.8647 10.5165C12.0753 10.7272 12.2937 10.9502 12.5199 11.1855C12.7364 11.4204 12.9349 11.6282 13.1155 11.8088C14.56 13.2533 15.4142 14.1397 15.6779 14.4679L15.5104 15.1018C15.3786 15.1635 15.2735 15.2334 15.1952 15.3117C15.1629 15.344 15.1332 15.3787 15.106 15.416C15.0792 15.4628 15.0473 15.5047 15.0105 15.5416C14.8769 15.6751 14.7022 15.7445 14.4863 15.7497C14.2526 15.5621 14.0029 15.3353 13.737 15.0695L13.1195 14.4381C12.9389 14.2575 12.7587 14.0866 12.579 13.9253C11.9984 13.3723 11.3269 12.7146 10.5644 11.9522C9.7268 11.1145 8.43128 9.78673 6.67787 7.96883C6.45339 7.77198 6.11293 7.44533 5.65648 6.98889L5.28782 6.62022C4.64036 5.96354 3.95237 5.25712 3.22384 4.50095C2.48569 3.74437 1.85226 3.07869 1.32355 2.50391C0.785209 1.92872 0.48533 1.5966 0.42391 1.50754C0.367697 1.20261 0.445526 0.94421 0.657395 0.732338C0.675819 0.713914 0.757036 0.647744 0.901048 0.533826C1.04506 0.419909 1.28104 0.379542 1.609 0.412725C2.99767 1.67244 4.34406 2.95437 5.64819 4.2585Z" fill="white"/>
<path d="M10.3536 4.2585C9.96742 4.64472 9.58601 5.03074 9.20941 5.41656C8.90304 5.73215 8.56426 6.07553 8.19309 6.44671L7.83318 6.77899L4.80862 9.80358C4.51145 10.1284 4.28763 10.366 4.13716 10.5165C3.92649 10.7272 3.7081 10.9502 3.48197 11.1855C3.26547 11.4204 3.06693 11.6282 2.88636 11.8088C1.4418 13.2533 0.587667 14.1397 0.323973 14.4679L0.491445 15.1018C0.623279 15.1635 0.728346 15.2334 0.806646 15.3117C0.838887 15.344 0.86862 15.3787 0.895845 15.416C0.92266 15.4628 0.954491 15.5047 0.991338 15.5416C1.12491 15.6751 1.29963 15.7445 1.5155 15.7497C1.7492 15.5621 1.99897 15.3353 2.26481 15.0695L2.88237 14.4381C3.06294 14.2575 3.2431 14.0866 3.42285 13.9253C4.00346 13.3723 4.67497 12.7146 5.43738 11.9522C6.27503 11.1145 7.57055 9.78673 9.32396 7.96883C9.54844 7.77198 9.8889 7.44533 10.3453 6.98889L10.714 6.62022C11.3615 5.96354 12.0495 5.25712 12.778 4.50095C13.5161 3.74437 14.1496 3.07869 14.6783 2.50391C15.2166 1.92872 15.5165 1.5966 15.5779 1.50754C15.6341 1.20261 15.5563 0.94421 15.3444 0.732338C15.326 0.713914 15.2448 0.647744 15.1008 0.533826C14.9568 0.419909 14.7208 0.379542 14.3928 0.412725C13.0042 1.67244 11.6578 2.95437 10.3536 4.2585Z" fill="white"/>
</svg>
