<svg width="16" height="12" viewBox="0 0 16 12" fill="none" xmlns="http://www.w3.org/2000/svg">
<path d="M9.9106 2.17152L9.91112 2.17152C10.2966 2.17598 10.6846 2.17821 11.0752 2.17821C12.3944 2.17821 13.7238 2.14701 15.0632 2.08462L15.1268 2.08166L15.177 2.04248C15.3692 1.89242 15.5233 1.71596 15.5486 1.5089C15.5562 1.44628 15.562 1.39623 15.566 1.35919C15.5693 1.32763 15.5728 1.29323 15.5728 1.27127C15.5728 0.994286 15.4434 0.771492 15.2095 0.6174L15.1749 0.594604L15.1341 0.587434C15.0809 0.578093 14.9675 0.570518 14.8131 0.562981C14.6521 0.555125 14.4309 0.546756 14.1499 0.53786C13.591 0.515557 12.934 0.499974 12.1791 0.49107C11.4295 0.477726 10.7254 0.468827 10.0666 0.464377V0.464372H10.0653H9.69324C9.23767 0.464372 8.89847 0.470854 8.67891 0.484273C6.8807 0.453238 5.55818 0.437695 4.71223 0.437695C3.94174 0.437695 3.26941 0.444373 2.69542 0.457757L2.69542 0.457677L2.68977 0.457969C2.52162 0.466657 2.34824 0.471024 2.16963 0.471041L1.54047 0.464383L1.54047 0.464372H1.53836C1.26479 0.464372 1.01721 0.475695 0.796223 0.498803L0.72551 0.506197L0.675332 0.556566C0.538461 0.693959 0.457569 0.860455 0.457569 1.05119C0.457569 1.10135 0.464132 1.15082 0.476737 1.19922C0.47916 1.21672 0.480348 1.23405 0.480348 1.25126C0.480348 1.2962 0.46965 1.35615 0.44021 1.43373L0.40552 1.52514L0.456344 1.60866L0.691727 1.99547L0.743257 2.08015L0.841851 2.09043C1.15349 2.1229 2.04471 2.13819 3.49735 2.13819C3.67643 2.13819 3.87878 2.14256 4.10458 2.15138L4.10458 2.15142L4.10857 2.15149C4.34257 2.15596 4.56658 2.1582 4.78057 2.1582C4.92797 2.1582 5.1573 2.16471 5.47063 2.17802L5.47062 2.17821H5.47912H8.53151V2.17835L8.53914 2.17806L8.8846 2.16487C9.25694 2.16488 9.59893 2.1671 9.9106 2.17152Z" fill="#FF276C" stroke="#FF276C" stroke-width="0.4"/>
<path d="M9.9106 9.82799L9.91112 9.82799C10.2966 9.82353 10.6846 9.82131 11.0752 9.82131C12.3944 9.82131 13.7238 9.8525 15.0632 9.91489L15.1268 9.91785L15.177 9.95703C15.3692 10.1071 15.5233 10.2836 15.5486 10.4906C15.5562 10.5532 15.562 10.6033 15.566 10.6403C15.5693 10.6719 15.5728 10.7063 15.5728 10.7282C15.5728 11.0052 15.4434 11.228 15.2095 11.3821L15.1749 11.4049L15.1341 11.4121C15.0809 11.4214 14.9675 11.429 14.8131 11.4365C14.6521 11.4444 14.4309 11.4528 14.1499 11.4617C13.591 11.484 12.934 11.4995 12.1791 11.5084C11.4295 11.5218 10.7254 11.5307 10.0666 11.5351V11.5351H10.0653H9.69324C9.23767 11.5351 8.89847 11.5287 8.67891 11.5152C6.8807 11.5463 5.55818 11.5618 4.71223 11.5618C3.94174 11.5618 3.26941 11.5551 2.69542 11.5418L2.69542 11.5418L2.68977 11.5415C2.52162 11.5329 2.34824 11.5285 2.16963 11.5285L1.54047 11.5351L1.54047 11.5351H1.53836C1.26479 11.5351 1.01721 11.5238 0.796223 11.5007L0.72551 11.4933L0.675332 11.4429C0.538461 11.3056 0.457569 11.1391 0.457569 10.9483C0.457569 10.8982 0.464132 10.8487 0.476737 10.8003C0.47916 10.7828 0.480348 10.7655 0.480348 10.7482C0.480348 10.7033 0.46965 10.6434 0.44021 10.5658L0.40552 10.4744L0.456344 10.3909L0.691727 10.004L0.743257 9.91936L0.841851 9.90908C1.15349 9.87661 2.04471 9.86132 3.49735 9.86132C3.67643 9.86132 3.87878 9.85695 4.10458 9.84814L4.10458 9.8481L4.10857 9.84802C4.34257 9.84355 4.56658 9.84131 4.78057 9.84131C4.92797 9.84131 5.1573 9.8348 5.47063 9.82149L5.47062 9.82131H5.47912H8.53151V9.82116L8.53914 9.82145L8.8846 9.83464C9.25694 9.83463 9.59893 9.83241 9.9106 9.82799Z" fill="#FF276C" stroke="#FF276C" stroke-width="0.4"/>
<path d="M6.0894 5.1361L6.08888 5.1361C5.70338 5.13164 5.31537 5.12941 4.92484 5.12941C3.60556 5.12941 2.27621 5.16061 0.936797 5.223L0.873204 5.22596L0.823024 5.26514C0.630823 5.4152 0.476705 5.59166 0.451448 5.79872C0.44381 5.86134 0.437975 5.91139 0.434022 5.94843C0.430653 5.97999 0.427197 6.01439 0.427197 6.03635C0.427197 6.31333 0.556607 6.53613 0.790522 6.69022L0.825128 6.71301L0.865942 6.72018C0.919118 6.72952 1.03246 6.7371 1.18692 6.74464C1.3479 6.75249 1.56914 6.76086 1.85011 6.76976C2.409 6.79206 3.06601 6.80764 3.82089 6.81655C4.57048 6.82989 5.27464 6.83879 5.93335 6.84324V6.84325H5.9347H6.30676C6.76233 6.84325 7.10153 6.83676 7.32109 6.82334C9.1193 6.85438 10.4418 6.86992 11.2878 6.86992C12.0583 6.86992 12.7306 6.86324 13.3046 6.84986L13.3046 6.84994L13.3102 6.84965C13.4784 6.84096 13.6518 6.83659 13.8304 6.83658L14.4595 6.84323L14.4595 6.84325H14.4616C14.7352 6.84325 14.9828 6.83192 15.2038 6.80881L15.2745 6.80142L15.3247 6.75105C15.4615 6.61366 15.5424 6.44716 15.5424 6.25643C15.5424 6.20627 15.5359 6.1568 15.5233 6.1084C15.5208 6.09089 15.5197 6.07357 15.5197 6.05636C15.5197 6.01142 15.5304 5.95146 15.5598 5.87389L15.5945 5.78248L15.5437 5.69896L15.3083 5.31215L15.2567 5.22746L15.1581 5.21719C14.8465 5.18471 13.9553 5.16943 12.5026 5.16943C12.3236 5.16943 12.1212 5.16506 11.8954 5.15624L11.8954 5.1562L11.8914 5.15613C11.6574 5.15166 11.4334 5.14942 11.2194 5.14942C11.072 5.14942 10.8427 5.14291 10.5294 5.12959L10.5294 5.12941H10.5209H7.46849V5.12927L7.46086 5.12956L7.1154 5.14275C6.74306 5.14274 6.40107 5.14052 6.0894 5.1361Z" fill="#FF276C" stroke="#FF276C" stroke-width="0.4"/>
</svg>
