<svg width="16" height="12" viewBox="0 0 16 12" fill="none" xmlns="http://www.w3.org/2000/svg">
<path d="M11.0752 1.97821C10.6854 1.97821 10.2981 1.97598 9.91344 1.97154C9.59959 1.96709 9.25538 1.96487 8.88079 1.96487L8.53151 1.97821H5.47912C5.16528 1.96487 4.93243 1.9582 4.78057 1.9582C4.56796 1.9582 4.34524 1.95597 4.11238 1.95153C3.88459 1.94264 3.67958 1.93819 3.49735 1.93819C2.0395 1.93819 1.16124 1.92263 0.86258 1.89151L0.627197 1.50469C0.662631 1.41132 0.680348 1.32685 0.680348 1.25126C0.680348 1.22014 0.677817 1.18902 0.672755 1.15789C0.662631 1.12232 0.657569 1.08676 0.657569 1.05119C0.657569 0.922248 0.71072 0.804425 0.817022 0.697718C1.02963 0.675487 1.27007 0.664372 1.53836 0.664372L2.16858 0.671041C2.35081 0.671041 2.52798 0.666595 2.70009 0.657703C3.27209 0.644365 3.94281 0.637695 4.71223 0.637695C5.55759 0.637695 6.8813 0.653257 8.68337 0.68438C8.89597 0.671041 9.2326 0.664372 9.69324 0.664372H10.0653C10.7234 0.668818 11.427 0.677711 12.1761 0.691049C12.9304 0.699941 13.5859 0.715503 14.1427 0.737733C14.7046 0.755518 15.0235 0.771079 15.0995 0.784418C15.2817 0.904463 15.3728 1.06675 15.3728 1.27127C15.3728 1.28905 15.3652 1.36019 15.35 1.48468C15.3348 1.60918 15.2361 1.74256 15.0539 1.88484C13.7175 1.94708 12.3913 1.97821 11.0752 1.97821Z" fill="white"/>
<path d="M11.0752 1.97821C10.6854 1.97821 10.2981 1.97598 9.91344 1.97154C9.59959 1.96709 9.25538 1.96487 8.88079 1.96487L8.53151 1.97821H5.47912C5.16528 1.96487 4.93243 1.9582 4.78057 1.9582C4.56796 1.9582 4.34524 1.95597 4.11238 1.95153C3.88459 1.94264 3.67958 1.93819 3.49735 1.93819C2.0395 1.93819 1.16124 1.92263 0.86258 1.89151L0.627197 1.50469C0.662631 1.41132 0.680348 1.32685 0.680348 1.25126C0.680348 1.22014 0.677817 1.18902 0.672755 1.15789C0.662631 1.12232 0.657569 1.08676 0.657569 1.05119C0.657569 0.922248 0.71072 0.804425 0.817022 0.697718C1.02963 0.675487 1.27007 0.664372 1.53836 0.664372L2.16858 0.671041C2.35081 0.671041 2.52798 0.666595 2.70009 0.657703C3.27209 0.644365 3.94281 0.637695 4.71223 0.637695C5.55759 0.637695 6.8813 0.653257 8.68337 0.68438C8.89597 0.671041 9.2326 0.664372 9.69324 0.664372H10.0653C10.7234 0.668818 11.427 0.677711 12.1761 0.691049C12.9304 0.699941 13.5859 0.715503 14.1427 0.737733C14.7046 0.755518 15.0235 0.771079 15.0995 0.784418C15.2817 0.904463 15.3728 1.06675 15.3728 1.27127C15.3728 1.28905 15.3652 1.36019 15.35 1.48468C15.3348 1.60918 15.2361 1.74256 15.0539 1.88484C13.7175 1.94708 12.3913 1.97821 11.0752 1.97821Z" stroke="white"/>
<path d="M11.0752 10.0213C10.6854 10.0213 10.2981 10.0235 9.91344 10.028C9.59959 10.0324 9.25538 10.0346 8.88079 10.0346L8.53151 10.0213H5.47912C5.16528 10.0346 4.93243 10.0413 4.78057 10.0413C4.56796 10.0413 4.34524 10.0435 4.11238 10.048C3.88459 10.0569 3.67958 10.0613 3.49735 10.0613C2.0395 10.0613 1.16124 10.0769 0.86258 10.108L0.627197 10.4948C0.662631 10.5882 0.680348 10.6727 0.680348 10.7482C0.680348 10.7794 0.677817 10.8105 0.672755 10.8416C0.662631 10.8772 0.657569 10.9128 0.657569 10.9483C0.657569 11.0773 0.71072 11.1951 0.817022 11.3018C1.02963 11.324 1.27007 11.3351 1.53836 11.3351L2.16858 11.3285C2.35081 11.3285 2.52798 11.3329 2.70009 11.3418C3.27209 11.3551 3.94281 11.3618 4.71223 11.3618C5.55759 11.3618 6.8813 11.3463 8.68337 11.3151C8.89597 11.3285 9.2326 11.3351 9.69324 11.3351H10.0653C10.7234 11.3307 11.427 11.3218 12.1761 11.3085C12.9304 11.2996 13.5859 11.284 14.1427 11.2618C14.7046 11.244 15.0235 11.2284 15.0995 11.2151C15.2817 11.095 15.3728 10.9328 15.3728 10.7282C15.3728 10.7105 15.3652 10.6393 15.35 10.5148C15.3348 10.3903 15.2361 10.257 15.0539 10.1147C13.7175 10.0524 12.3913 10.0213 11.0752 10.0213Z" fill="white"/>
<path d="M11.0752 10.0213C10.6854 10.0213 10.2981 10.0235 9.91344 10.028C9.59959 10.0324 9.25538 10.0346 8.88079 10.0346L8.53151 10.0213H5.47912C5.16528 10.0346 4.93243 10.0413 4.78057 10.0413C4.56796 10.0413 4.34524 10.0435 4.11238 10.048C3.88459 10.0569 3.67958 10.0613 3.49735 10.0613C2.0395 10.0613 1.16124 10.0769 0.86258 10.108L0.627197 10.4948C0.662631 10.5882 0.680348 10.6727 0.680348 10.7482C0.680348 10.7794 0.677817 10.8105 0.672755 10.8416C0.662631 10.8772 0.657569 10.9128 0.657569 10.9483C0.657569 11.0773 0.71072 11.1951 0.817022 11.3018C1.02963 11.324 1.27007 11.3351 1.53836 11.3351L2.16858 11.3285C2.35081 11.3285 2.52798 11.3329 2.70009 11.3418C3.27209 11.3551 3.94281 11.3618 4.71223 11.3618C5.55759 11.3618 6.8813 11.3463 8.68337 11.3151C8.89597 11.3285 9.2326 11.3351 9.69324 11.3351H10.0653C10.7234 11.3307 11.427 11.3218 12.1761 11.3085C12.9304 11.2996 13.5859 11.284 14.1427 11.2618C14.7046 11.244 15.0235 11.2284 15.0995 11.2151C15.2817 11.095 15.3728 10.9328 15.3728 10.7282C15.3728 10.7105 15.3652 10.6393 15.35 10.5148C15.3348 10.3903 15.2361 10.257 15.0539 10.1147C13.7175 10.0524 12.3913 10.0213 11.0752 10.0213Z" stroke="white"/>
<path d="M4.92484 5.32941C5.31461 5.32941 5.70185 5.33164 6.08656 5.33608C6.40041 5.34053 6.74462 5.34275 7.11921 5.34275L7.46849 5.32941H10.5209C10.8347 5.34275 11.0676 5.34942 11.2194 5.34942C11.432 5.34942 11.6548 5.35164 11.8876 5.35609C12.1154 5.36498 12.3204 5.36943 12.5026 5.36943C13.9605 5.36943 14.8388 5.38499 15.1374 5.41611L15.3728 5.80293C15.3374 5.89629 15.3197 5.98077 15.3197 6.05636C15.3197 6.08748 15.3222 6.1186 15.3272 6.14972C15.3374 6.18529 15.3424 6.22086 15.3424 6.25643C15.3424 6.38537 15.2893 6.50319 15.183 6.6099C14.9704 6.63213 14.7299 6.64325 14.4616 6.64325L13.8314 6.63658C13.6492 6.63658 13.472 6.64102 13.2999 6.64991C12.7279 6.66325 12.0572 6.66992 11.2878 6.66992C10.4424 6.66992 9.1187 6.65436 7.31663 6.62324C7.10403 6.63658 6.7674 6.64325 6.30676 6.64325H5.9347C5.27664 6.6388 4.57303 6.62991 3.82385 6.61657C3.06961 6.60768 2.41408 6.59211 1.85726 6.56988C1.29538 6.5521 0.976476 6.53654 0.900545 6.5232C0.718313 6.40315 0.627197 6.24087 0.627197 6.03635C0.627197 6.01856 0.63479 5.94743 0.649977 5.82293C0.665162 5.69844 0.763871 5.56506 0.946103 5.42278C2.28247 5.36054 3.60872 5.32941 4.92484 5.32941Z" fill="white"/>
<path d="M4.92484 5.32941C5.31461 5.32941 5.70185 5.33164 6.08656 5.33608C6.40041 5.34053 6.74462 5.34275 7.11921 5.34275L7.46849 5.32941H10.5209C10.8347 5.34275 11.0676 5.34942 11.2194 5.34942C11.432 5.34942 11.6548 5.35164 11.8876 5.35609C12.1154 5.36498 12.3204 5.36943 12.5026 5.36943C13.9605 5.36943 14.8388 5.38499 15.1374 5.41611L15.3728 5.80293C15.3374 5.89629 15.3197 5.98077 15.3197 6.05636C15.3197 6.08748 15.3222 6.1186 15.3272 6.14972C15.3374 6.18529 15.3424 6.22086 15.3424 6.25643C15.3424 6.38537 15.2893 6.50319 15.183 6.6099C14.9704 6.63213 14.7299 6.64325 14.4616 6.64325L13.8314 6.63658C13.6492 6.63658 13.472 6.64102 13.2999 6.64991C12.7279 6.66325 12.0572 6.66992 11.2878 6.66992C10.4424 6.66992 9.1187 6.65436 7.31663 6.62324C7.10403 6.63658 6.7674 6.64325 6.30676 6.64325H5.9347C5.27664 6.6388 4.57303 6.62991 3.82385 6.61657C3.06961 6.60768 2.41408 6.59211 1.85726 6.56988C1.29538 6.5521 0.976476 6.53654 0.900545 6.5232C0.718313 6.40315 0.627197 6.24087 0.627197 6.03635C0.627197 6.01856 0.63479 5.94743 0.649977 5.82293C0.665162 5.69844 0.763871 5.56506 0.946103 5.42278C2.28247 5.36054 3.60872 5.32941 4.92484 5.32941Z" stroke="white"/>
</svg>
