<svg width="320" height="179" viewBox="0 0 320 179" fill="none" xmlns="http://www.w3.org/2000/svg">
<path fill-rule="evenodd" clip-rule="evenodd" d="M283.175 144.371C278.918 147.863 281.939 156.886 282.556 162.557C281.573 210.193 209.392 83.8977 264.006 105.835L269.722 104.452L275.109 102.094C305.303 51.5738 324.292 195.796 294.676 158.472C291.735 153.585 288.678 144.574 283.175 144.371L283.175 144.371Z" fill="#FFDDF6"/>
<path fill-rule="evenodd" clip-rule="evenodd" d="M21.8401 97.0529C23.576 99.564 20.589 103.912 19.3951 106.841C12.6499 132.379 70.3928 76.0802 37.9368 79.4391L35.1018 77.8296L32.5905 75.7508C24.2062 44.2171 -7.92146 118.188 13.5583 102.814C15.8718 100.658 18.8759 96.3215 21.8401 97.0529L21.8401 97.0529Z" fill="#FFF2D7"/>
<path fill-rule="evenodd" clip-rule="evenodd" d="M180.324 47.2306C183.867 50.1891 181.27 57.7309 180.712 62.4802C181.193 102.419 242.609 -2.93047 196.67 15.0658L191.889 13.8648L187.391 11.8493C162.443 -30.7174 145.487 90.0424 170.581 58.9687C173.082 54.8929 175.709 47.3614 180.324 47.2306L180.324 47.2306Z" fill="#EDDFF5"/>
</svg>
