<svg width="16" height="16" viewBox="0 0 16 16" fill="none" xmlns="http://www.w3.org/2000/svg">
<path d="M7.08608 5.6002L7.0857 5.59981C6.7556 5.26164 6.4213 4.9233 6.08279 4.5848C4.93935 3.44135 3.75889 2.31743 2.54144 1.21304L2.49268 1.16882L2.42719 1.16219C2.12595 1.13171 1.85248 1.1608 1.66352 1.31028C1.54401 1.40481 1.45972 1.47267 1.43298 1.49941C1.19916 1.73323 1.11279 2.02656 1.17341 2.3554L1.18117 2.39747L1.20546 2.43269C1.24148 2.48492 1.33105 2.58813 1.45876 2.72957C1.59102 2.87605 1.77512 3.07532 2.01067 3.32699C2.47477 3.8315 3.03011 4.41508 3.67646 5.07758C4.31423 5.73954 4.91662 6.35806 5.48363 6.93313L5.48363 6.93314L5.48462 6.93413L5.80721 7.25672C6.20283 7.65234 6.50251 7.94022 6.70415 8.11756C8.2356 9.70529 9.36832 10.8662 10.1017 11.5996C10.7696 12.2675 11.3584 12.8442 11.8679 13.3294L11.8679 13.3295L11.8723 13.3335C12.0265 13.4718 12.1812 13.6187 12.3366 13.774L12.8762 14.3257L12.8762 14.3257L12.8777 14.3272C13.1142 14.5638 13.3382 14.7673 13.5496 14.937L13.6066 14.9827L13.6796 14.981C13.9119 14.9753 14.1164 14.8987 14.2749 14.7403C14.3171 14.698 14.3535 14.6509 14.3842 14.5993C14.4004 14.5779 14.4178 14.5578 14.4365 14.5392C14.4843 14.4914 14.555 14.4423 14.6555 14.3953L14.7403 14.3557L14.7642 14.2652L14.9108 13.7105L14.9366 13.6129L14.8733 13.5341C14.634 13.2364 13.8769 12.4514 12.6167 11.1913C12.461 11.0356 12.2892 10.8558 12.1012 10.6518L12.1012 10.6518L12.0983 10.6488C11.8996 10.442 11.7076 10.2459 11.5223 10.0605C11.3939 9.93216 11.2005 9.72695 10.9409 9.44314L10.941 9.44301L10.9347 9.43673L8.28822 6.79022L8.28833 6.79011L8.28246 6.78469L7.97047 6.49666C7.64737 6.17353 7.35258 5.87472 7.08608 5.6002ZM5.94137 4.72622C6.27932 5.06416 6.61305 5.40193 6.94258 5.73951L2.15728 3.19095C1.68624 2.68767 1.42384 2.39706 1.3701 2.31914C1.32091 2.05232 1.38901 1.82622 1.5744 1.64083C1.59052 1.62471 1.66158 1.56681 1.7876 1.46714C1.91361 1.36746 2.12009 1.33214 2.40706 1.36117C3.62215 2.46342 4.80026 3.5851 5.94137 4.72622Z" fill="white" stroke="white" stroke-width="0.4"/>
<path d="M8.91386 5.6002L8.91424 5.59981C9.24434 5.26164 9.57864 4.9233 9.91715 4.5848C11.0606 3.44135 12.241 2.31743 13.4585 1.21304L13.5073 1.16882L13.5727 1.16219C13.874 1.13171 14.1475 1.1608 14.3364 1.31028C14.4559 1.40481 14.5402 1.47267 14.567 1.49941C14.8008 1.73323 14.8871 2.02656 14.8265 2.3554L14.8188 2.39747L14.7945 2.43269C14.7585 2.48492 14.6689 2.58813 14.5412 2.72957C14.4089 2.87605 14.2248 3.07532 13.9893 3.32699C13.5252 3.8315 12.9698 4.41508 12.3235 5.07758C11.6857 5.73954 11.0833 6.35806 10.5163 6.93313L10.5163 6.93314L10.5153 6.93413L10.1927 7.25672C9.79711 7.65234 9.49743 7.94022 9.29579 8.11756C7.76434 9.70529 6.63161 10.8662 5.89823 11.5996C5.23033 12.2675 4.64155 12.8442 4.13202 13.3294L4.13208 13.3295L4.12767 13.3335C3.97347 13.4718 3.8187 13.6187 3.66336 13.774L3.12376 14.3257L3.12377 14.3257L3.12221 14.3272C2.88569 14.5638 2.66171 14.7673 2.45036 14.937L2.39338 14.9827L2.32032 14.981C2.088 14.9753 1.88352 14.8987 1.72507 14.7403C1.68284 14.698 1.64644 14.6509 1.61579 14.5993C1.59956 14.5779 1.58212 14.5578 1.56347 14.5392C1.51567 14.4914 1.44493 14.4423 1.34441 14.3953L1.25962 14.3557L1.23572 14.2652L1.08918 13.7105L1.06339 13.6129L1.12664 13.5341C1.36592 13.2364 2.12308 12.4514 3.38323 11.1913C3.5389 11.0356 3.71071 10.8558 3.89874 10.6518L3.89871 10.6518L3.9016 10.6488C4.10029 10.442 4.29232 10.2459 4.47768 10.0605C4.60605 9.93216 4.79942 9.72695 5.05908 9.44314L5.05893 9.44301L5.06522 9.43673L7.71172 6.79022L7.71161 6.79011L7.71748 6.78469L8.02947 6.49666C8.35257 6.17353 8.64736 5.87472 8.91386 5.6002ZM10.0586 4.72622C9.72062 5.06416 9.38689 5.40193 9.05736 5.73951L13.8427 3.19095C14.3137 2.68767 14.5761 2.39706 14.6298 2.31914C14.679 2.05232 14.6109 1.82622 14.4255 1.64083C14.4094 1.62471 14.3384 1.56681 14.2123 1.46714C14.0863 1.36746 13.8798 1.33214 13.5929 1.36117C12.3778 2.46342 11.1997 3.5851 10.0586 4.72622Z" fill="white" stroke="white" stroke-width="0.4"/>
</svg>
