<svg width="1609" height="627" viewBox="0 0 1609 627" fill="none" xmlns="http://www.w3.org/2000/svg">
<path fill-rule="evenodd" clip-rule="evenodd" d="M58.9416 33.5246C60.7651 36.1624 57.6275 40.7297 56.3733 43.8059C49.288 70.6328 109.943 11.4943 75.8502 15.0225L72.8722 13.3318L70.2342 11.1482C61.4271 -21.9759 27.6791 55.7253 50.2422 39.5761C52.6724 37.3113 55.828 32.7563 58.9416 33.5246L58.9416 33.5246Z" fill="#EDDFF5"/>
<path d="M1609 455.509C1609 442.981 1597.42 436 1584.82 436C1572.21 436 1562 446.157 1562 458.685C1562 471.214 1578.6 485 1591.2 485C1603.8 485 1609 468.038 1609 455.509Z" fill="#F5E6DD"/>
<path fill-rule="evenodd" clip-rule="evenodd" d="M179.524 576.239C175.448 579.583 178.341 588.222 178.931 593.652C177.991 639.26 108.882 518.34 161.171 539.344L166.643 538.019L171.801 535.762C200.71 487.392 218.891 625.476 190.536 589.741C187.72 585.061 184.793 576.434 179.524 576.239L179.524 576.239Z" fill="#FEE6D9"/>
<path fill-rule="evenodd" clip-rule="evenodd" d="M32.4376 408.613C36.1597 411.72 33.4312 419.642 32.8454 424.631C33.3499 466.584 97.8642 355.922 49.6082 374.826L44.5861 373.564L39.8605 371.447C13.6553 326.733 -4.15648 453.583 22.2036 420.943C24.8306 416.661 27.5903 408.75 32.4376 408.613L32.4376 408.613Z" fill="#FFF2D7"/>
<path fill-rule="evenodd" clip-rule="evenodd" d="M952.326 597.363C948.653 600.376 951.26 608.161 951.792 613.054C950.944 654.155 888.666 545.186 935.787 564.114L940.719 562.92L945.366 560.886C971.418 517.297 987.802 641.733 962.25 609.53C959.712 605.313 957.075 597.538 952.326 597.363L952.326 597.363Z" fill="#FFDDF6"/>
<path fill-rule="evenodd" clip-rule="evenodd" d="M726.844 556.537C728.342 558.703 725.764 562.455 724.734 564.981C718.915 587.017 768.736 538.441 740.732 541.339L738.286 539.951L736.119 538.157C728.885 510.949 701.165 574.772 719.698 561.507C721.694 559.647 724.286 555.906 726.844 556.537L726.844 556.537Z" fill="#FFF2D7"/>
<path fill-rule="evenodd" clip-rule="evenodd" d="M1310.64 582.549C1313.7 585.102 1311.46 591.609 1310.98 595.707C1311.39 630.166 1364.38 539.27 1324.75 554.797L1320.62 553.761L1316.74 552.022C1295.22 515.295 1280.59 619.487 1302.24 592.677C1304.4 589.16 1306.66 582.662 1310.64 582.549L1310.64 582.549Z" fill="#EDDFF5"/>
</svg>
