<svg xmlns="http://www.w3.org/2000/svg" width="25" height="46" fill="none"><path fill="#FC5B23" d="M16.438 1.371l7.547 9.499a1.348 1.348 0 01-.236 1.875 1.315 1.315 0 01-1.86-.243l-7.531-9.518a1.343 1.343 0 01-.177-.94 1.33 1.33 0 01.494-.815 1.31 1.31 0 011.763.142zM5.89 15.379l11.106 1.49a1.356 1.356 0 011.294 1.366 1.313 1.313 0 01-1.354 1.283L5.84 18.04a1.392 1.392 0 01-1.306-1.38 1.331 1.331 0 011.354-1.282zM1.368 29.766l10.977-2.253a1.356 1.356 0 011.672.864 1.314 1.314 0 01-.856 1.658L2.2 32.294a1.392 1.392 0 01-1.689-.871 1.331 1.331 0 01.857-1.658zm8.987 12.908l8.62-7.213a1.339 1.339 0 011.883.016 1.348 1.348 0 01-.016 1.865l-8.567 7.214a1.374 1.374 0 01-1.882-.016 1.314 1.314 0 01.016-1.865h-.054z"/></svg>