<svg width="625" height="411" viewBox="0 0 625 411" fill="none" xmlns="http://www.w3.org/2000/svg"><path opacity=".2" d="M359.299 73.307a28 28 0 0131.818 8.526L400.7 93.68a27.998 27.998 0 0022.273 10.386l15.236-.274a28 28 0 0126.983 18.894l4.954 14.411a27.997 27.997 0 0017.377 17.377l14.411 4.954a27.997 27.997 0 0118.893 26.983l-.274 15.235a28.001 28.001 0 0010.386 22.273l11.848 9.584a28 28 0 018.525 31.817l-5.468 14.224a27.998 27.998 0 002.142 24.482l7.855 13.057a28 28 0 01-2.871 32.815l-10.003 11.495a28 28 0 00-6.361 23.738l2.916 14.957a28 28 0 01-13.921 29.854l-13.332 7.38a28.001 28.001 0 00-14.096 20.131l-2.376 15.052a28 28 0 01-23.292 23.292l-15.052 2.376a28.001 28.001 0 00-20.131 14.096l-7.38 13.332a28 28 0 01-29.854 13.921l-14.957-2.916a28 28 0 00-23.738 6.361l-11.495 10.003a28 28 0 01-32.815 2.871l-13.058-7.855a27.996 27.996 0 00-24.481-2.142l-14.224 5.468a27.997 27.997 0 01-31.817-8.525l-9.584-11.848a28.001 28.001 0 00-22.273-10.386l-15.236.274a27.997 27.997 0 01-26.982-18.893l-4.954-14.411a28 28 0 00-17.377-17.377l-14.411-4.954a28 28 0 01-18.894-26.983l.274-15.235a28 28 0 00-10.386-22.273l-11.847-9.584a28 28 0 01-8.526-31.817l5.469-14.224a28 28 0 00-2.142-24.482l-7.855-13.057a28 28 0 012.87-32.815l10.004-11.495a28 28 0 006.36-23.738l-2.915-14.957a28 28 0 0113.92-29.854l13.333-7.38a28.002 28.002 0 0014.095-20.131l2.376-15.052a28.002 28.002 0 0123.292-23.293l15.052-2.375a28.002 28.002 0 0020.131-14.096l7.381-13.332a28 28 0 0129.854-13.921l14.957 2.916a28 28 0 0023.738-6.361l11.495-10.003a28 28 0 0132.814-2.871l13.058 7.855a28 28 0 0024.482 2.142l14.223-5.469z" fill="#FF276C"/><path d="M295.84 69.29a28 28 0 0132.94 0l12.323 8.963a28 28 0 0024.202 4.267l14.646-4.208a28 28 0 0130.954 11.267l8.514 12.637a27.998 27.998 0 0021.283 12.288l15.202 1.055a27.999 27.999 0 0125.233 21.173l3.679 14.788a28.002 28.002 0 0015.797 18.826l13.924 6.19a28 28 0 0116.47 28.527l-1.601 15.154a28.006 28.006 0 008.405 23.094l10.968 10.579a28.001 28.001 0 015.72 32.44l-6.688 13.692a28.001 28.001 0 000 24.576l6.688 13.692a28.001 28.001 0 01-5.72 32.44l-10.968 10.58a28.002 28.002 0 00-8.405 23.093l1.601 15.154a28 28 0 01-16.47 28.527l-13.924 6.19a28.002 28.002 0 00-15.797 18.826l-3.679 14.788a27.999 27.999 0 01-25.233 21.173l-15.202 1.055a28.001 28.001 0 00-21.283 12.288l-8.514 12.638a28.002 28.002 0 01-30.954 11.266l-14.646-4.208a28 28 0 00-24.202 4.267l-12.323 8.964a28.002 28.002 0 01-32.94 0l-12.323-8.964a28 28 0 00-24.202-4.267l-14.646 4.208a28.002 28.002 0 01-30.954-11.266l-8.514-12.638a28.001 28.001 0 00-21.283-12.288l-15.202-1.055a27.999 27.999 0 01-25.233-21.173l-3.679-14.788a28 28 0 00-15.797-18.826l-13.924-6.19a28 28 0 01-16.47-28.527l1.601-15.154a27.999 27.999 0 00-8.405-23.093L75.84 370.73a28 28 0 01-5.72-32.44l6.688-13.692a28.001 28.001 0 000-24.576l-6.687-13.692a28 28 0 015.72-32.44l10.967-10.579a28.002 28.002 0 008.405-23.094l-1.6-15.154a28 28 0 0116.469-28.527l13.924-6.19a28 28 0 0015.797-18.826l3.679-14.788a27.999 27.999 0 0125.233-21.173l15.202-1.055a27.998 27.998 0 0021.283-12.288l8.514-12.637a28 28 0 0130.954-11.267l14.646 4.208a28 28 0 0024.202-4.267l12.323-8.963z" fill="url(#paint0_linear_1745_335)"/><defs><linearGradient id="paint0_linear_1745_335" x1="154.31" y1="121.81" x2="428.81" y2="374.31" gradientUnits="userSpaceOnUse"><stop stop-color="#FF276C" stop-opacity=".23"/><stop offset="1" stop-color="#9904F4" stop-opacity=".31"/></linearGradient></defs></svg>