<svg width="446" height="59" viewBox="0 0 446 59" fill="none" xmlns="http://www.w3.org/2000/svg">
<path d="M48.1488 46.7586H29.9616L18.8227 28.2896L15.2035 32.0552V46.7586H0V0.29248H15.2035V15.2895L28.2395 0.29248H46.0708L29.3521 17.6233L48.1488 46.7586ZM68.5054 29.5204C68.5054 27.3957 68.0068 25.4691 67.0085 23.7628C66.0107 22.0564 64.4702 21.1977 62.3659 21.1977C60.489 21.1977 59.0682 22.0564 58.1136 23.7739C57.1589 25.502 56.6817 27.4179 56.6817 29.5204C56.6817 31.7773 57.1914 33.913 58.2114 35.9057C59.22 37.9091 60.7819 38.9108 62.8755 38.9108C64.8935 38.9108 66.336 37.942 67.2039 35.9936C68.0718 34.0453 68.5054 31.8874 68.5054 29.5204ZM79.0501 39.9894C75.4577 45.3165 69.3003 47.8093 62.9317 47.8093C56.3686 47.8093 50.0429 45.3375 46.3748 39.7986C43.0102 34.7174 42.5797 26.4322 45.414 21.0108C47.5944 16.8383 51.5909 13.8225 56.1732 12.5971C61.2204 11.1963 66.6832 11.4991 71.5289 13.4979C76.0603 15.3599 79.4313 19.1908 80.8991 23.7448C82.5018 28.7171 81.9299 35.7184 79.0501 39.9894ZM196.87 26.1118C196.394 23.8989 195.612 22.365 194.533 21.5101C193.444 20.6426 192.07 20.2151 190.389 20.2151C188.76 20.2151 187.47 20.6303 186.519 21.4722C185.567 22.3023 184.848 23.8488 184.351 26.1118H196.87ZM209.876 32.6742H184.482C184.482 33.7203 184.662 34.6383 185.022 35.4381C186.114 37.8709 188.091 39.513 190.922 39.513C193 39.513 195.398 38.6761 195.845 36.4184H208.85C208.357 39.622 206.312 42.4486 203.68 44.306C201.024 46.174 197.764 47.2147 194.544 47.5822C190.415 48.0895 185.637 47.9515 181.813 46.3549C177.365 44.5059 174.042 41.0875 172.234 36.6761C170.572 32.3764 170.549 27.6072 172.16 23.273C173.83 18.7768 177.269 15.2995 181.729 13.4555C187.152 11.2226 194.745 11.374 199.99 13.9888C204.643 16.3004 207.816 20.2411 209.136 25.2149C209.787 27.7169 210.034 30.1141 209.876 32.6742H209.876ZM246.303 40.054C243.804 44.8168 239.19 47.7917 233.628 47.7917C229.633 47.7917 227.005 46.4933 224.306 43.7225V58.2925H210.758V13.0154H222.754V18.0637C225.356 12.8789 231.796 10.9951 236.992 12.3031C242.653 13.7151 246.465 18.4747 247.822 23.8243C249.091 28.7966 248.651 35.6121 246.303 40.054ZM235.268 29.0451C235.268 27.614 234.793 26.0518 233.833 24.3692C232.872 22.6869 231.48 21.8458 229.667 21.8458C227.865 21.8458 226.473 22.6322 225.502 24.2162C224.53 25.7895 224.045 27.3953 224.045 29.0451C224.045 31.0665 224.423 32.9564 225.178 34.7044C225.944 36.4524 227.433 37.3265 229.667 37.3265C231.847 37.3265 233.315 36.4196 234.102 34.6062C234.816 32.8558 235.268 30.9419 235.268 29.0451ZM277.664 46.3702C272.399 48.2138 265.244 48.4967 260.003 46.3159C256.703 44.9429 253.778 42.626 251.93 39.5451C250.125 36.5863 249.186 33.1774 249.186 29.7073C249.186 27.3961 249.673 25.1251 250.49 22.9687C252.383 18.1199 255.657 15.3377 260.384 13.4104C265.794 11.2043 273.83 11.2846 278.967 14.0798C283.862 16.7439 286.425 20.4128 287.098 25.8198H273.235C272.992 24.1566 272.522 23.1285 271.837 22.2514C269.895 19.7655 265.5 20.9802 264.098 23.4332C262.308 26.5634 262.012 31.1869 263.144 34.618C263.89 36.8795 266.347 38.7969 268.733 38.7969C272.116 38.7969 272.818 36.519 273.702 33.6874H287.098C286.958 39.349 283.573 44.3002 277.664 46.3702ZM311.81 33.4901C311.81 32.8619 311.753 32.3462 311.64 31.9535C310.71 32.4693 309.259 32.9182 307.286 33.2993C305.784 33.5738 304.186 33.9095 302.843 34.6455C300.938 35.5872 301.041 38.2876 302.706 39.3784C304.633 40.5377 307.865 40.4421 309.486 38.8179C311.028 37.3482 311.81 35.5765 311.81 33.4901ZM326.883 46.7586H313.015L312.488 43.1846C311.477 44.491 309.218 45.5673 306.937 46.4455C305.826 46.8737 304.683 47.2125 303.513 47.4281C302.344 47.6334 301.1 47.7416 299.805 47.7416C297.465 47.7416 295.326 47.3314 293.388 46.5105C291.449 45.6896 289.985 44.4046 288.973 42.6768C288.067 40.7762 287.614 38.8539 287.614 36.8887C287.614 34.4047 288.771 32.3565 290.361 30.5205C291.267 29.4733 292.155 28.8849 293.756 28.2697C294.515 27.9784 295.265 27.7253 296.001 27.5139C296.729 27.3043 297.42 27.1048 298.076 27.0061L303.756 26.1531C306.166 25.7911 308.497 25.4787 309.528 25.138C310.162 24.9281 310.909 24.243 311.278 23.811C311.647 23.3793 311.593 22.9255 311.593 22.4613C311.593 21.824 311.287 21.2948 310.666 20.8632C310.044 20.4311 309.159 20.2151 308.011 20.2151C306.63 20.2151 304.914 20.4204 304.082 20.8307C303.25 21.2409 302.712 22.0618 302.46 23.2818H289.614C290.046 21.0681 289.968 19.7758 290.596 18.4239C291.222 17.0762 292.208 15.9188 293.556 14.9576C294.905 13.9968 296.757 13.2498 299.13 12.7546C300.276 12.5157 301.638 12.349 303.187 12.2255C304.746 12.1009 306.474 12.0313 308.391 12.0313C313.059 12.0313 316.555 12.5864 318.886 13.694C321.212 14.8001 322.729 15.6913 323.437 17.3533C324.141 19.0066 324.617 21.1545 324.839 23.7896V41.6292C324.839 43.4652 325.523 44.8259 326.883 45.7114V46.7586V46.7586ZM364.565 46.7586H351.188V34.1474H341.281V46.7586H328.033L328.02 13.5415L328.033 13.0337H341.281V24.334H351.039V13.0337H364.565L364.553 46.1542L364.565 46.7586ZM401.736 22.9733H390.217V46.7586H376.799V22.9733H365.182V13.0337H401.736V22.9733ZM445.187 35.9665C445.187 38.9288 443.775 41.5314 441.508 43.3876C438.525 45.8544 434.4 46.7586 430.614 46.7586H409.907V22.9733H402.172V13.0337H422.818V24.8704H429.88C433.812 24.8704 438.171 25.6393 441.287 28.2216C443.63 30.1627 445.187 32.8776 445.187 35.9665ZM431.85 36.0009C431.85 33.8702 430.67 32.9763 428.644 32.7335C428.232 32.7335 427.418 32.6991 426.212 32.6474C425.006 32.5936 423.39 32.5721 422.818 32.5721V39.0855L426.172 39.1502C427.086 39.1694 427.84 39.131 428.423 39.0855C430.483 38.9326 431.85 38.3729 431.85 36.0009V36.0009ZM107.741 46.7582H101.239L94.1343 24.2292L95.2316 33.0596V46.7582H83.3678V12.8391H98.5832L104.49 31.5754L110.397 12.8391H125.612V46.7582H113.748V33.0596L114.845 24.2292L107.741 46.7582ZM152.17 46.7582H145.668L138.563 24.2292L139.66 33.0596V46.7582H127.796V12.8391H143.012L148.919 31.5754L154.825 12.8391H170.041V46.7582H158.177V33.0596L159.274 24.2292L152.17 46.7582Z" fill="white"/>
</svg>
