<svg
  width="643"
  height="12"
  viewBox="0 0 643 12"
  fill="none"
  xmlns="http://www.w3.org/2000/svg"
>
<path
    d="M2.5 9.29248L12.2824 3.78599C12.5869 3.61456 12.9589 3.61456 13.2634 3.78599L22.5552 9.01636C22.8598 9.18779 23.2317 9.18779 23.5363 9.01636L32.8281 3.78599C33.1327 3.61456 33.5046 3.61456 33.8092 3.78599L43.101 9.01636C43.4055 9.18779 43.7775 9.18779 44.0821 9.01636L53.3739 3.78599C53.6784 3.61456 54.0504 3.61456 54.3549 3.78599L63.6468 9.01636C63.9513 9.18779 64.3233 9.18779 64.6278 9.01636L73.9196 3.78599C74.2242 3.61456 74.5961 3.61456 74.9007 3.78599L84.1925 9.01636C84.4971 9.18779 84.869 9.18779 85.1736 9.01636L94.4654 3.78599C94.77 3.61456 95.1419 3.61456 95.4465 3.78599L104.738 9.01636C105.043 9.18779 105.415 9.18779 105.719 9.01636L115.011 3.78599C115.316 3.61456 115.688 3.61456 115.992 3.78599L125.284 9.01636C125.589 9.18779 125.961 9.18779 126.265 9.01636L135.557 3.78599C135.861 3.61456 136.233 3.61456 136.538 3.78599L145.83 9.01636C146.134 9.18779 146.506 9.18779 146.811 9.01636L156.103 3.78599C156.407 3.61456 156.779 3.61456 157.084 3.78599L166.376 9.01636C166.68 9.18779 167.052 9.18779 167.357 9.01636L176.648 3.78599C176.953 3.61456 177.325 3.61456 177.63 3.78599L186.921 9.01636C187.226 9.18779 187.598 9.18779 187.902 9.01636L197.194 3.78599C197.499 3.61456 197.871 3.61456 198.175 3.78599L207.467 9.01636C207.772 9.18779 208.144 9.18779 208.448 9.01636L217.74 3.78599C218.045 3.61456 218.416 3.61456 218.721 3.78599L228.013 9.01636C228.317 9.18779 228.689 9.18779 228.994 9.01636L238.286 3.78599C238.59 3.61456 238.962 3.61456 239.267 3.78599L248.559 9.01636C248.863 9.18779 249.235 9.18779 249.54 9.01636L258.832 3.78599C259.136 3.61456 259.508 3.61456 259.813 3.78599L269.104 9.01636C269.409 9.18779 269.781 9.18779 270.085 9.01636L279.377 3.78599C279.682 3.61456 280.054 3.61456 280.358 3.78599L289.65 9.01636C289.955 9.18779 290.327 9.18779 290.631 9.01636L299.923 3.78599C300.228 3.61456 300.6 3.61456 300.904 3.78599L310.196 9.01636C310.5 9.18779 310.872 9.18779 311.177 9.01636L320.469 3.78599C320.773 3.61456 321.145 3.61456 321.45 3.78599L330.742 9.01636C331.046 9.18779 331.418 9.18779 331.723 9.01636L341.015 3.78599C341.319 3.61456 341.691 3.61456 341.996 3.78599L351.287 9.01636C351.592 9.18779 351.964 9.18779 352.268 9.01636L361.56 3.78599C361.865 3.61456 362.237 3.61456 362.541 3.78599L371.833 9.01636C372.138 9.18779 372.51 9.18779 372.814 9.01636L382.106 3.78599C382.411 3.61456 382.783 3.61456 383.087 3.78599L392.379 9.01636C392.684 9.18779 393.055 9.18779 393.36 9.01636L404.815 2.5686C405.119 2.39717 405.491 2.39717 405.796 2.5686L417.25 9.01636C417.555 9.18779 417.927 9.18779 418.231 9.01636L429.686 2.5686C429.99 2.39717 430.362 2.39717 430.667 2.5686L442.121 9.01636C442.426 9.18779 442.798 9.18779 443.102 9.01636L454.557 2.5686C454.861 2.39717 455.233 2.39717 455.538 2.5686L466.993 9.01636C467.297 9.18779 467.669 9.18779 467.974 9.01636L479.428 2.5686C479.733 2.39717 480.105 2.39717 480.409 2.5686L491.864 9.01636C492.168 9.18779 492.54 9.18779 492.845 9.01636L502.137 3.78599C502.441 3.61456 502.813 3.61456 503.118 3.78599L512.409 9.01636C512.714 9.18779 513.086 9.18779 513.391 9.01636L522.682 3.78599C522.987 3.61456 523.359 3.61456 523.663 3.78599L532.955 9.01636C533.26 9.18779 533.632 9.18779 533.936 9.01636L543.228 3.78599C543.533 3.61456 543.905 3.61456 544.209 3.78599L553.501 9.01636C553.806 9.18779 554.177 9.18779 554.482 9.01636L563.774 3.78599C564.078 3.61456 564.45 3.61456 564.755 3.78599L574.047 9.01636C574.351 9.18779 574.723 9.18779 575.028 9.01636L584.32 3.78599C584.624 3.61456 584.996 3.61456 585.301 3.78599L594.593 9.01636C594.897 9.18779 595.269 9.18779 595.574 9.01636L604.865 3.78599C605.17 3.61456 605.542 3.61456 605.846 3.78599L615.138 9.01636C615.443 9.18779 615.815 9.18779 616.119 9.01636L627.574 2.5686C627.878 2.39717 628.25 2.39717 628.555 2.5686L640.5 9.29248"
    stroke="#FFCB06"
    stroke-width="4"
    stroke-linecap="round"
  />
</svg>
