<svg width="194" height="46" viewBox="0 0 194 46" fill="none" xmlns="http://www.w3.org/2000/svg">
<path d="M52.06 20.4035V16.9235H53.02L54.7 10.5635H58.84L60.52 16.9235H61.48V20.4035H59.38V18.9635H54.16V20.4035H52.06ZM55.12 16.9235H58.42L57.28 12.6035H56.26L55.12 16.9235ZM63.2791 17.9075C62.3991 17.0355 61.9591 15.9875 61.9591 14.7635C61.9591 13.5395 62.3991 12.4955 63.2791 11.6315C64.1671 10.7595 65.2871 10.3235 66.6391 10.3235C67.9911 10.3235 69.1071 10.7595 69.9871 11.6315C70.8751 12.4955 71.3191 13.5395 71.3191 14.7635C71.3191 15.9875 70.8751 17.0355 69.9871 17.9075C69.1071 18.7715 67.9911 19.2035 66.6391 19.2035C65.2871 19.2035 64.1671 18.7715 63.2791 17.9075ZM64.9471 13.0235C64.5151 13.4635 64.2991 14.0435 64.2991 14.7635C64.2991 15.4835 64.5151 16.0635 64.9471 16.5035C65.3791 16.9435 65.9431 17.1635 66.6391 17.1635C67.3351 17.1635 67.8991 16.9435 68.3311 16.5035C68.7631 16.0635 68.9791 15.4835 68.9791 14.7635C68.9791 14.0435 68.7631 13.4635 68.3311 13.0235C67.8991 12.5835 67.3351 12.3635 66.6391 12.3635C65.9431 12.3635 65.3791 12.5835 64.9471 13.0235ZM72.5144 18.9635V10.5635H74.7344V13.6835H75.6944L77.7344 10.5635H80.2544L77.6144 14.5235L80.4344 18.9635H77.9144L75.8144 15.7235H74.7344V18.9635H72.5144ZM80.5497 12.6035V10.5635H88.0497V12.6035H85.4097V18.9635H83.1897V12.6035H80.5497ZM89.9041 17.9075C89.0241 17.0355 88.5841 15.9875 88.5841 14.7635C88.5841 13.5395 89.0241 12.4955 89.9041 11.6315C90.7921 10.7595 91.9121 10.3235 93.2641 10.3235C94.6161 10.3235 95.7321 10.7595 96.6121 11.6315C97.5001 12.4955 97.9441 13.5395 97.9441 14.7635C97.9441 15.9875 97.5001 17.0355 96.6121 17.9075C95.7321 18.7715 94.6161 19.2035 93.2641 19.2035C91.9121 19.2035 90.7921 18.7715 89.9041 17.9075ZM91.5721 13.0235C91.1401 13.4635 90.9241 14.0435 90.9241 14.7635C90.9241 15.4835 91.1401 16.0635 91.5721 16.5035C92.0041 16.9435 92.5681 17.1635 93.2641 17.1635C93.9601 17.1635 94.5241 16.9435 94.9561 16.5035C95.3881 16.0635 95.6041 15.4835 95.6041 14.7635C95.6041 14.0435 95.3881 13.4635 94.9561 13.0235C94.5241 12.5835 93.9601 12.3635 93.2641 12.3635C92.5681 12.3635 92.0041 12.5835 91.5721 13.0235ZM99.1394 18.9635V10.5635H103.219C104.251 10.5635 105.087 10.8595 105.727 11.4515C106.375 12.0355 106.699 12.7595 106.699 13.6235C106.699 14.4875 106.375 15.2155 105.727 15.8075C105.087 16.3915 104.251 16.6835 103.219 16.6835H101.359V18.9635H99.1394ZM101.359 14.6435H103.159C103.575 14.6435 103.887 14.5515 104.095 14.3675C104.311 14.1835 104.419 13.9355 104.419 13.6235C104.419 13.3115 104.311 13.0635 104.095 12.8795C103.887 12.6955 103.575 12.6035 103.159 12.6035H101.359V14.6435ZM109.691 18.9635L111.911 10.5635H115.991L118.211 18.9635H115.991L114.311 12.6035H113.591L111.911 18.9635H109.691ZM118.991 18.9635V10.5635H125.471V12.6035H121.211V13.8635H124.631V15.6635H121.211V16.9235H125.471V18.9635H118.991ZM126.725 18.9635V10.5635H131.225C132.089 10.5635 132.765 10.7635 133.253 11.1635C133.741 11.5635 133.985 12.0635 133.985 12.6635C133.985 13.2635 133.765 13.7355 133.325 14.0795C133.117 14.2235 132.897 14.3315 132.665 14.4035V14.4635C132.969 14.5515 133.237 14.6755 133.469 14.8355C134.013 15.2115 134.285 15.7675 134.285 16.5035C134.285 17.2235 134.009 17.8155 133.457 18.2795C132.905 18.7355 132.121 18.9635 131.105 18.9635H126.725ZM128.945 13.8035H130.745C131.041 13.8035 131.265 13.7395 131.417 13.6115C131.569 13.4755 131.645 13.2995 131.645 13.0835C131.645 12.8675 131.569 12.6955 131.417 12.5675C131.265 12.4315 131.041 12.3635 130.745 12.3635H128.945V13.8035ZM128.945 17.1635H130.865C131.241 17.1635 131.525 17.0875 131.717 16.9355C131.909 16.7835 132.005 16.5795 132.005 16.3235C132.005 16.0675 131.909 15.8635 131.717 15.7115C131.525 15.5595 131.241 15.4835 130.865 15.4835H128.945V17.1635ZM135.491 18.9635V10.5635H137.711V14.7035L137.531 15.7835H137.651L140.711 10.5635H143.291V18.9635H141.071V14.8235L141.251 13.7435H141.131L138.071 18.9635H135.491ZM144.854 18.9635V10.5635H147.074V13.6835H150.314V10.5635H152.534V18.9635H150.314V15.7235H147.074V18.9635H144.854Z" fill="#284795"/>
<path d="M52.06 37.5229V34.0429H53.02L54.7 27.6829H58.84L60.52 34.0429H61.48V37.5229H59.38V36.0829H54.16V37.5229H52.06ZM55.12 34.0429H58.42L57.28 29.7229H56.26L55.12 34.0429ZM62.3191 36.0829V27.6829H68.7991V29.7229H64.5391V30.9829H67.9591V32.7829H64.5391V34.0429H68.7991V36.0829H62.3191ZM69.3934 29.7229V27.6829H76.8934V29.7229H74.2534V36.0829H72.0334V29.7229H69.3934ZM78.7358 35.0629C77.8638 34.2149 77.4278 33.1549 77.4278 31.8829C77.4278 30.6109 77.8638 29.5549 78.7358 28.7149C79.6158 27.8669 80.7398 27.4429 82.1078 27.4429C83.6198 27.4429 84.8078 27.9949 85.6718 29.0989C86.0558 29.6029 86.3278 30.1509 86.4878 30.7429H84.2078C84.0878 30.4949 83.9398 30.2869 83.7638 30.1189C83.3398 29.6949 82.7878 29.4829 82.1078 29.4829C81.4118 29.4829 80.8478 29.7029 80.4158 30.1429C79.9838 30.5829 79.7678 31.1629 79.7678 31.8829C79.7678 32.6029 79.9838 33.1829 80.4158 33.6229C80.8478 34.0629 81.4118 34.2829 82.1078 34.2829C82.8598 34.2829 83.4438 34.0429 83.8598 33.5629C84.0518 33.3469 84.1878 33.1069 84.2678 32.8429H86.5478C86.3718 33.4909 86.0878 34.0709 85.6958 34.5829C84.8398 35.7429 83.6438 36.3229 82.1078 36.3229C80.7398 36.3229 79.6158 35.9029 78.7358 35.0629ZM87.6902 36.0829V27.6829H89.9102V30.8029H90.8702L92.9102 27.6829H95.4302L92.7902 31.6429L95.6102 36.0829H93.0902L90.9902 32.8429H89.9102V36.0829H87.6902ZM96.865 35.0269C95.985 34.1549 95.545 33.1069 95.545 31.8829C95.545 30.6589 95.985 29.6149 96.865 28.7509C97.753 27.8789 98.873 27.4429 100.225 27.4429C101.577 27.4429 102.693 27.8789 103.573 28.7509C104.461 29.6149 104.905 30.6589 104.905 31.8829C104.905 33.1069 104.461 34.1549 103.573 35.0269C102.693 35.8909 101.577 36.3229 100.225 36.3229C98.873 36.3229 97.753 35.8909 96.865 35.0269ZM98.533 30.1429C98.101 30.5829 97.885 31.1629 97.885 31.8829C97.885 32.6029 98.101 33.1829 98.533 33.6229C98.965 34.0629 99.529 34.2829 100.225 34.2829C100.921 34.2829 101.485 34.0629 101.917 33.6229C102.349 33.1829 102.565 32.6029 102.565 31.8829C102.565 31.1629 102.349 30.5829 101.917 30.1429C101.485 29.7029 100.921 29.4829 100.225 29.4829C99.529 29.4829 98.965 29.7029 98.533 30.1429ZM106.1 36.0829V27.6829H112.58V29.7229H108.32V30.9829H111.74V32.7829H108.32V34.0429H112.58V36.0829H106.1ZM118.158 35.0269C117.278 34.1549 116.838 33.1069 116.838 31.8829C116.838 30.6589 117.278 29.6149 118.158 28.7509C119.046 27.8789 120.166 27.4429 121.518 27.4429C122.87 27.4429 123.986 27.8789 124.866 28.7509C125.754 29.6149 126.198 30.6589 126.198 31.8829C126.198 33.1069 125.754 34.1549 124.866 35.0269C123.986 35.8909 122.87 36.3229 121.518 36.3229C120.166 36.3229 119.046 35.8909 118.158 35.0269ZM119.826 30.1429C119.394 30.5829 119.178 31.1629 119.178 31.8829C119.178 32.6029 119.394 33.1829 119.826 33.6229C120.258 34.0629 120.822 34.2829 121.518 34.2829C122.214 34.2829 122.778 34.0629 123.21 33.6229C123.642 33.1829 123.858 32.6029 123.858 31.8829C123.858 31.1629 123.642 30.5829 123.21 30.1429C122.778 29.7029 122.214 29.4829 121.518 29.4829C120.822 29.4829 120.258 29.7029 119.826 30.1429ZM126.733 29.7229V27.6829H134.233V29.7229H131.593V36.0829H129.373V29.7229H126.733ZM134.044 37.5229V34.0429H135.004L136.684 27.6829H140.824L142.504 34.0429H143.464V37.5229H141.364V36.0829H136.144V37.5229H134.044ZM137.104 34.0429H140.404L139.264 29.7229H138.244L137.104 34.0429ZM144.303 36.0829V27.6829H150.783V29.7229H146.523V30.9829H149.943V32.7829H146.523V34.0429H150.783V36.0829H144.303ZM151.258 36.0829L153.478 27.6829H157.558L159.778 36.0829H157.558L155.878 29.7229H155.158L153.478 36.0829H151.258ZM160.557 36.0829V27.6829H167.037V29.7229H162.777V30.9829H166.197V32.7829H162.777V34.0429H167.037V36.0829H160.557ZM168.292 36.0829V27.6829H170.512V30.8029H173.752V27.6829H175.972V36.0829H173.752V32.8429H170.512V36.0829H168.292ZM177.526 36.0829V27.6829H179.746V31.8229L179.566 32.9029H179.686L182.746 27.6829H185.326V36.0829H183.106V31.9429L183.286 30.8629H183.166L180.106 36.0829H177.526ZM186.889 36.0829V27.6829H193.369V29.7229H189.109V30.9829H192.529V32.7829H189.109V34.0429H193.369V36.0829H186.889Z" fill="#DE358A"/>
<ellipse cx="23.1912" cy="23.2057" rx="20.8363" ry="20.8237" fill="#26325E"/>
<circle cx="23" cy="23" r="23" fill="url(#paint0_radial_3124_3988)"/>
<path d="M16.7984 28.2366C16.5855 27.6786 16.5019 27.1433 16.5309 26.5948C16.5873 25.5298 16.842 24.5192 17.4271 23.6153C18.0755 22.6133 18.9951 21.9832 20.1585 21.724C20.488 21.6505 20.8314 21.5997 21.1674 21.6052C21.6224 21.6128 22.0228 21.7826 22.2678 22.2041C22.4501 22.518 22.5001 22.8616 22.4673 23.2157C22.3642 24.3266 21.6904 25.0687 20.8413 25.6896C20.4224 25.9959 19.957 26.2197 19.4635 26.3775C19.3271 26.4211 19.2552 26.4827 19.2779 26.621C19.3123 26.8304 19.3335 27.047 19.4064 27.2435C19.4806 27.4438 19.6404 27.5522 19.8812 27.5595C20.3547 27.5736 20.7807 27.4303 21.1972 27.2321C21.8506 26.9213 22.3127 26.3992 22.7376 25.837C22.8876 25.6384 22.8678 25.3934 22.8922 25.1661C22.9771 24.3749 23.0473 23.582 23.1224 22.7897C23.1654 22.3354 23.2161 21.8817 23.2448 21.4264C23.255 21.2638 23.3026 21.1766 23.4663 21.1437C24.228 20.9906 24.9884 20.8313 25.7497 20.6762C25.7951 20.667 25.8441 20.675 25.9278 20.675C25.9123 20.8781 25.9007 21.0669 25.8828 21.2553C25.8486 21.6127 25.8109 21.9697 25.7742 22.3269C25.677 23.2729 25.5769 24.2187 25.4838 25.1651C25.4592 25.4163 25.4473 25.6696 25.4448 25.922C25.442 26.1916 25.574 26.2755 25.8442 26.2073C26.3449 26.0811 26.6577 25.7299 26.9124 25.3157C27.241 24.7815 27.469 24.2038 27.5828 23.5871C27.6689 23.12 27.7335 22.6487 27.8003 22.1783C27.8163 22.0656 27.8027 21.9487 27.8027 21.8079C27.6999 21.8186 27.6215 21.8108 27.5557 21.8361C27.0156 22.0436 26.4408 21.3808 26.6055 20.8058C26.6983 20.4819 26.922 20.2771 27.2221 20.1514C27.5112 20.0304 27.8105 19.9493 28.1281 20.0171C28.6346 20.1252 28.8717 20.4897 28.9728 20.954C29.1881 21.9416 29.1044 22.9227 28.8861 23.901C28.6891 24.7832 28.3653 25.6061 27.8276 26.3398C27.1142 27.3133 26.1655 27.8911 24.9727 28.0894C24.5659 28.157 24.1769 28.1304 23.7931 28.0059C23.4354 27.8897 23.1788 27.645 23.0045 27.3134C22.9736 27.2543 22.9432 27.1951 22.8981 27.1084C22.7946 27.2213 22.7004 27.3142 22.6173 27.4162C22.1486 27.9922 21.5479 28.3916 20.9116 28.7626C19.9545 29.3206 18.8966 29.546 17.838 29.7768C17.2597 29.9028 16.6759 30.0085 16.0905 30.0953C15.6203 30.1649 15.1446 30.2159 14.67 30.2299C14.3474 30.2395 14.1412 30.3405 13.9516 30.6152C13.5272 31.23 13.0716 31.8252 12.5996 32.4047C12.0377 33.0948 11.3372 33.6114 10.5061 33.9453C7.57108 35.1678 4.27316 34.2103 4.75586 31.2208C5.17106 29.4946 6.26315 28.3843 7.912 27.8042C8.9465 27.4402 10.0207 27.3724 11.1082 27.4738C11.1857 27.4811 11.2637 27.4842 11.3415 27.4867C11.6809 27.4982 11.7006 27.4839 11.7242 27.1396C11.7348 26.9845 11.731 26.8281 11.7258 26.6726C11.712 26.2647 11.6938 25.857 11.6775 25.4491C11.6365 24.4196 11.6005 23.3898 11.5523 22.3606C11.5352 21.9924 11.4945 21.6249 11.4543 21.2581C11.4277 21.0154 11.4197 21.0143 11.1633 21.0125C10.7641 21.0096 10.3627 21.0352 9.96592 21.0034C9.05822 20.9309 8.30106 20.581 7.90647 19.7032C7.63489 19.0991 7.70399 18.4896 7.99066 17.9012C8.01174 17.8579 8.04261 17.8189 8.07244 17.7806C8.28252 17.5102 8.53061 17.4547 8.8061 17.6514C9.05857 17.8317 9.28627 18.0463 9.52883 18.241C9.87078 18.5154 10.242 18.7099 10.7018 18.6759C11.0514 18.65 11.1496 18.5792 11.1988 18.2374C11.2873 17.6225 11.3488 17.0034 11.4506 16.3909C11.6518 15.1808 11.9776 14.0155 12.8104 13.0623C13.4098 12.3762 14.1568 11.9332 15.0694 11.856C15.8404 11.7908 16.4893 12.108 16.9402 12.7317C17.7923 13.9101 17.8639 15.1708 17.2384 16.4752C16.9538 17.0685 16.5102 17.552 16.1121 18.066C15.7492 18.5347 15.3674 18.9889 15.0121 19.4632C14.8025 19.7429 14.6159 20.0503 14.5889 20.4087C14.5695 20.6672 14.5966 20.9309 14.6208 21.1907C14.6894 21.9251 14.7577 22.6597 14.8439 23.3921C14.9134 23.9817 14.9782 24.5702 14.9457 25.1646C14.9166 25.6979 14.8857 26.231 14.8466 26.7636C14.8159 27.1797 14.7718 27.5949 14.7329 28.0103C14.7235 28.1112 14.7512 28.1812 14.8641 28.1973C14.9217 28.2055 14.9778 28.2347 15.0347 28.235C15.6073 28.2377 16.18 28.2366 16.7984 28.2366ZM11.3186 29.9216C10.6748 29.7869 10.0386 29.7145 9.40006 29.7971C9.0975 29.8363 8.80334 29.9532 8.51091 30.0516C8.32767 30.1133 8.15606 30.2084 7.9773 30.2843C7.54459 30.468 7.24652 30.7964 7.03851 31.2013C6.75553 31.752 7.0726 32.3467 7.67935 32.4653C8.30187 32.5868 8.88419 32.4595 9.42125 32.1623C10.2829 31.6857 10.8742 30.9519 11.2889 30.0692C11.3082 30.0286 11.3077 29.979 11.3186 29.9216ZM14.2379 16.907C14.393 16.7029 14.5313 16.5301 14.6599 16.3503C15.0119 15.858 15.3252 15.3434 15.4882 14.7543C15.5838 14.4088 15.5827 14.0632 15.4152 13.7331C15.3045 13.515 15.144 13.4672 14.9395 13.6086C14.8542 13.6676 14.7724 13.7483 14.7216 13.8376C14.6262 14.0057 14.5244 14.1798 14.4791 14.3646C14.3706 14.8062 14.2716 15.2526 14.2102 15.7027C14.1583 16.0838 14.0884 16.4738 14.2379 16.907ZM19.2994 25.325C19.3225 25.3355 19.3314 25.3435 19.3388 25.3422C19.367 25.3374 19.3968 25.3343 19.4223 25.3224C19.988 25.057 20.4031 24.6338 20.6802 24.0806C20.8633 23.715 20.91 23.3208 20.8181 22.9199C20.7712 22.7156 20.6923 22.6835 20.5028 22.7649C20.2998 22.8521 20.1545 23.0059 20.0335 23.1862C19.5972 23.8356 19.4243 24.5732 19.2994 25.325Z" fill="white"/>
<path d="M36.7038 18.4316C36.7038 18.5607 36.7038 18.6461 36.7038 18.7642C36.774 18.7191 36.8284 18.6909 36.8752 18.6532C37.4027 18.2272 38.0239 18.0097 38.6827 17.9961C39.6556 17.9762 40.272 18.4247 40.3744 19.4875C40.4381 20.1491 40.3351 20.806 40.2382 21.4606C40.1826 21.8351 40.1053 22.2123 40.1073 22.5879C40.1103 23.1309 40.2171 23.2782 40.7698 23.1191C40.9679 23.0622 41.1456 22.9341 41.3297 22.8399C41.5043 23.6591 41.0332 24.5088 40.2378 24.86C39.8603 25.0267 39.4666 25.1134 39.0475 25.099C38.1882 25.0694 37.6941 24.424 37.6357 23.7316C37.5883 23.1705 37.6216 22.607 37.7094 22.0452C37.7871 21.5476 37.817 21.042 37.8532 20.5388C37.8627 20.4071 37.8305 20.2678 37.7946 20.1383C37.7103 19.8339 37.5408 19.7604 37.2444 19.8854C36.9778 19.9978 36.819 20.2117 36.69 20.4599C36.4775 20.8685 36.4499 21.3153 36.4048 21.7594C36.3097 22.696 36.2127 23.6324 36.1204 24.5692C36.0919 24.8592 36.0797 25.1506 36.0534 25.4408C36.03 25.6987 35.9904 25.737 35.7455 25.7881C35.0144 25.9407 34.2835 26.0947 33.552 26.2461C33.5068 26.2554 33.4579 26.2474 33.3742 26.2474C33.3855 26.1082 33.396 25.9799 33.4094 25.8138C33.3125 25.8777 33.239 25.9177 33.1749 25.9694C32.5993 26.4348 31.9375 26.7111 31.2075 26.7792C30.3756 26.8566 29.6424 26.4959 29.4376 25.5071C29.3476 25.0723 29.3597 24.6411 29.4291 24.2045C29.5235 23.6106 29.6005 23.0141 29.6821 22.4183C29.701 22.2804 29.7471 22.1915 29.9053 22.1607C30.4294 22.0586 30.95 21.9393 31.4725 21.8295C31.7555 21.77 32.0397 21.716 32.3556 21.6532C32.3556 21.7853 32.3678 21.8903 32.3536 21.9916C32.2651 22.6259 32.1676 23.259 32.0797 23.8933C32.0492 24.1137 32.0213 24.3365 32.0215 24.5583C32.0217 24.8197 32.1061 24.8865 32.3662 24.8621C32.7607 24.8251 33.0537 24.6118 33.2877 24.3068C33.5074 24.0205 33.6129 23.6886 33.6502 23.3357C33.7296 22.5828 33.8053 21.8294 33.8747 21.0756C33.9254 20.5247 33.9626 19.9725 34.0081 19.4212C34.0161 19.3247 34.0429 19.2296 34.0484 19.1333C34.0567 18.985 34.1516 18.9394 34.276 18.9142C34.99 18.7695 35.7035 18.6229 36.4173 18.478C36.5014 18.4611 36.5869 18.4505 36.7038 18.4316Z" fill="white"/>
<path d="M29.2081 15.8045C29.123 15.7429 29.0053 15.6921 29.0095 15.6544C29.0224 15.5378 29.0499 15.3853 29.1306 15.3233C29.2309 15.2463 29.2648 15.1765 29.2699 15.0635C29.2741 14.967 29.3102 14.8709 29.3075 14.7753C29.3012 14.553 29.4091 14.449 29.6176 14.3944C29.8969 14.3212 30.169 14.2204 30.4874 14.1177C30.455 14.4398 30.4268 14.7223 30.3969 15.0202C30.5278 15.0019 30.6301 14.9875 30.731 14.9735C30.7992 15.259 30.7715 15.3377 30.5366 15.4204C30.4007 15.4683 30.3586 15.5625 30.3457 15.6832C30.3158 15.9631 30.291 16.2437 30.265 16.5241C30.247 16.7173 30.2239 16.9105 30.2151 17.1043C30.2052 17.3237 30.3066 17.385 30.503 17.2862C30.6786 17.1978 30.7495 17.0569 30.7374 16.8577C30.7058 16.3384 30.8318 15.8534 31.1017 15.4104C31.4363 14.8616 31.9519 14.592 32.5741 14.537C32.8836 14.5096 33.1431 14.6459 33.2867 14.9453C33.3283 15.0318 33.3676 15.1194 33.4065 15.2034C33.7622 15.1493 33.7987 15.1099 33.8302 14.8009C33.846 14.6466 33.8507 14.483 33.9076 14.3428C33.9796 14.1654 34.1847 14.2491 34.325 14.197C34.4961 14.1334 34.6825 14.1056 34.8648 14.0822C34.92 14.0751 34.9837 14.1339 35.0633 14.172C35.1992 14.1032 35.3668 14.0069 35.5432 13.9318C35.7674 13.8362 35.9657 13.9093 36.1279 14.074C36.2451 14.1929 36.2609 14.436 36.1797 14.5963C36.0971 14.7593 35.7881 14.9651 35.6288 14.9178C35.5016 14.88 35.3965 14.7685 35.2614 14.6758C35.0075 14.751 34.9601 14.8114 34.9346 15.0962C34.881 15.6958 34.8227 16.2949 34.7686 16.8945C34.7595 16.9953 34.7523 17.1003 34.6346 17.1266C34.3065 17.1998 33.9765 17.2642 33.6079 17.3402C33.6599 16.7417 33.708 16.1863 33.7563 15.629C33.4472 15.6657 33.4372 15.6775 33.4241 15.9821C33.3958 16.64 33.1252 17.1728 32.5537 17.5088C32.0578 17.8002 31.5324 17.8676 30.9508 17.5158C30.9226 17.5599 30.8906 17.6326 30.8388 17.6862C30.647 17.8841 30.4268 18.0365 30.1575 18.1193C29.673 18.2681 29.4488 18.21 29.1146 17.812C29.0329 17.8939 28.9535 17.9753 28.8722 18.0547C28.4248 18.4916 27.8929 18.7089 27.2634 18.6763C26.9028 18.6577 26.6091 18.4251 26.5338 18.0723C26.4812 17.8262 26.4249 17.5766 26.5053 17.3229C26.5159 17.2895 26.5068 17.2499 26.5068 17.2119C26.2805 17.1907 26.2935 17.3381 26.2909 17.4757C26.2831 17.886 26.1636 18.2616 25.9191 18.5908C25.5114 19.1398 24.9595 19.3555 24.2865 19.2648C23.8387 19.2044 23.6533 18.9011 23.6161 18.5613C23.5308 17.7824 23.7026 17.0667 24.3216 16.5254C24.6884 16.2046 25.1222 16.0526 25.6151 16.1014C25.8963 16.1292 26.0738 16.292 26.1767 16.5466C26.2054 16.6176 26.2343 16.6885 26.2625 16.7581C26.5201 16.7167 26.6914 16.597 26.8157 16.3689C27.0886 15.8682 27.5327 15.5809 28.0884 15.488C28.2721 15.4573 28.4762 15.4813 28.6586 15.5282C28.8497 15.5773 28.981 15.8338 28.9706 16.0413C28.96 16.2536 28.8248 16.4236 28.6136 16.4901C28.371 16.5665 28.2637 16.4797 28.2661 16.2287C28.2668 16.1525 28.2191 16.0758 28.1937 15.9994C28.1136 16.0431 27.9986 16.0672 27.9603 16.1347C27.8655 16.3019 27.7821 16.4834 27.737 16.6695C27.6548 17.0083 27.5831 17.3539 27.6874 17.7041C27.7422 17.8884 27.7922 17.9278 27.9783 17.9082C28.4634 17.8573 28.7943 17.5737 29.051 17.184C29.0715 17.1529 29.0835 17.1122 29.0874 17.0748C29.129 16.6791 29.1685 16.2831 29.2076 15.8871C29.2114 15.8493 29.2081 15.8111 29.2081 15.8045ZM31.8942 16.427C31.9028 16.5168 31.9013 16.6252 31.9252 16.7278C31.9893 17.0019 32.1869 17.0609 32.3819 16.8521C32.4773 16.7499 32.5375 16.6092 32.5928 16.4772C32.6371 16.3713 32.6438 16.2503 32.6786 16.1396C32.7197 16.0088 32.7183 15.9024 32.6044 15.7996C32.4651 15.6739 32.4591 15.5124 32.537 15.3461C32.5575 15.3023 32.5896 15.2589 32.5926 15.2137C32.5954 15.1717 32.5765 15.1184 32.5481 15.088C32.5313 15.07 32.4633 15.0717 32.4422 15.0908C32.3433 15.1804 32.2226 15.2641 32.1647 15.3778C32.0009 15.6993 31.9162 16.0475 31.8942 16.427ZM24.7743 17.9654C24.7743 18.0529 24.7555 18.146 24.7793 18.2265C24.8074 18.321 24.8543 18.4522 24.9266 18.4799C25.0047 18.51 25.1282 18.4517 25.2194 18.407C25.2737 18.3802 25.3232 18.311 25.3424 18.2506C25.4184 18.0112 25.4845 17.7686 25.5467 17.5251C25.5566 17.4865 25.5422 17.4202 25.514 17.3968C25.3001 17.2199 25.3104 17.0206 25.4322 16.7987C25.4505 16.7653 25.4494 16.6946 25.4267 16.6723C25.3995 16.6456 25.3213 16.6295 25.2968 16.6488C25.2006 16.7246 25.09 16.8013 25.0334 16.9044C24.8531 17.2321 24.7605 17.5876 24.7743 17.9654Z" fill="white"/>
<path d="M20.452 16.4656C19.9178 16.8928 19.8253 17.3301 20.0932 18.0488C19.8241 18.1081 19.5501 18.1714 19.3183 18.0053C19.0945 17.845 19.0633 17.58 19.1209 17.3172C19.1828 17.0347 19.3234 16.7879 19.526 16.5867C20.2649 15.8527 21.1525 15.4503 22.2013 15.5302C22.9076 15.5839 23.3072 15.9527 23.4773 16.6921C23.6832 17.5867 23.4979 18.4349 23.0066 19.2C22.7181 19.6491 22.3064 19.9583 21.7341 19.9558C21.6001 19.9552 21.4662 19.9187 21.3251 19.8978C20.9937 20.1914 20.5494 20.1338 20.121 20.2639C20.0584 19.8149 20.2036 19.4124 20.2167 19.0023C20.2299 18.5865 20.2898 18.1722 20.3293 17.7571C20.3685 17.3436 20.4078 16.9302 20.452 16.4656ZM21.5716 16.059C21.5898 16.1133 21.6085 16.1409 21.6062 16.1667C21.5632 16.6499 21.5184 17.133 21.4728 17.616C21.4263 18.1089 21.3739 18.6012 21.3333 19.0945C21.3144 19.3252 21.391 19.3791 21.6102 19.3051C21.8666 19.2184 22.0238 19.0255 22.1401 18.7919C22.2764 18.5183 22.3164 18.22 22.3794 17.9253C22.4802 17.4539 22.4175 16.9951 22.307 16.5402C22.2255 16.2041 21.9593 15.9881 21.6322 16.0011C21.2944 16.0144 20.9781 16.1263 20.6974 16.3336C20.9877 16.2426 21.2778 16.1513 21.5716 16.059Z" fill="white"/>
<path d="M32.6047 20.3019C32.6198 20.6696 32.4647 20.9748 32.1989 21.2017C31.7175 21.6125 31.1765 21.8038 30.5284 21.6082C29.9428 21.4316 29.494 20.7767 29.8024 20.0832C30.189 19.2135 31.4691 18.8089 32.2396 19.4822C32.4798 19.6923 32.6071 19.9633 32.6047 20.3019Z" fill="white"/>
<path d="M20.9234 40.498L20.235 40.5401L19.5987 30.1569C19.5634 29.5803 20.0687 29.1179 20.6399 29.2043L22.7219 29.519C23.1809 29.5883 23.5135 29.993 23.4926 30.4568L23.2732 35.3363L23.6771 34.8945C24.0294 34.5091 24.5806 34.5209 24.9296 34.8095C24.9858 34.4452 25.2615 34.1406 25.6379 34.0607L25.6553 34.057C25.4883 33.9655 25.3366 33.8437 25.2024 33.6956C24.8817 33.3412 24.7259 32.9066 24.7259 32.433C24.7259 31.9613 24.8838 31.5302 25.2024 31.1782C25.5219 30.8254 25.9412 30.6221 26.4277 30.6221C26.9142 30.6221 27.3335 30.8254 27.6529 31.1782C27.9716 31.5302 28.1294 31.9613 28.1294 32.433C28.1294 32.8914 27.9835 33.3134 27.6832 33.6613C28.1458 33.6922 28.5301 34.0783 28.5286 34.5697L28.5272 35.0352C29.1604 34.4323 29.9448 34.0952 30.8476 34.0185L30.8563 34.0178L30.8563 34.0178C31.1761 33.9947 31.529 34.0177 31.9093 34.078L31.9913 31.065C32.0039 30.6019 32.3633 30.2227 32.8251 30.1854L34.5084 30.0493C35.0672 30.0041 35.5328 30.4715 35.4855 31.0301L35.2612 33.6808C35.5728 33.3722 35.9816 33.147 36.4539 32.9981C36.9795 32.8301 37.6444 32.7899 38.4042 32.8336L38.4087 32.8339V32.8339C39.2608 32.8885 40.0132 33.0581 40.5335 33.4472C40.5341 33.4476 40.5347 33.448 40.5353 33.4485L40.58 33.4816C40.9645 33.7662 41.0619 34.3005 40.8026 34.7025L40.0764 35.8285L40.056 35.8611C39.9804 35.9821 39.8801 36.0799 39.7651 36.1511C39.8928 36.2406 40.0026 36.3223 40.0931 36.396C40.4671 36.6977 40.7841 37.0608 40.9205 37.5001C41.0796 37.9931 41.1081 38.4957 40.9506 38.9782C40.7942 39.4687 40.4677 39.8483 40.0316 40.1199L20.9234 40.498ZM20.9234 40.498L20.235 40.5401C20.2667 41.0578 20.7252 41.4436 21.2407 41.3864L21.1645 40.7006L21.2407 41.3864L22.241 41.2753C22.6031 41.2351 22.8974 40.9848 23.0046 40.6517L23.4369 41.0378C23.771 41.3362 24.2729 41.3461 24.6185 41.0611L24.2076 40.5629L24.6185 41.0611L25.3781 40.4346L24.9391 39.9023L25.3781 40.4346C25.481 40.3498 25.5596 40.2483 25.6143 40.138C25.8261 40.4291 26.2034 40.5817 26.5804 40.4822L27.8386 40.15C28.1496 40.0679 28.3871 39.8301 28.4761 39.5335C28.5761 39.6281 28.6835 39.7185 28.7981 39.8043C29.5472 40.3658 30.419 40.6029 31.3756 40.528L31.3778 40.5278C31.4456 40.5223 31.5134 40.5149 31.581 40.5058C31.6764 40.6163 31.8009 40.7031 31.9465 40.7536L33.4824 41.2861C34.0416 41.48 34.6338 41.0952 34.6837 40.5054L34.7725 39.4559M20.9234 40.498L34.7725 39.4559M34.7725 39.4559L34.7775 39.4626C35.2968 40.1545 36.2053 40.4722 37.2532 40.5886C38.3242 40.7075 39.2797 40.5885 40.0312 40.1201L34.7725 39.4559ZM35.0587 36.5703C35.1729 36.7366 35.3033 36.8895 35.4482 37.0295C35.2383 37.126 35.0617 37.3042 34.9746 37.5577L34.9196 37.718L35.0214 36.5147C35.0336 36.5333 35.046 36.5519 35.0587 36.5703ZM25.1309 36.8864L25.3713 39.0291C25.3576 39.018 25.3434 39.0073 25.3289 38.9969L23.8236 37.9196L25.0253 36.983C25.0633 36.9533 25.0986 36.921 25.1309 36.8864ZM31.2323 37.2574L31.233 37.2532C31.2961 36.8876 31.4076 36.7216 31.4904 36.6478L31.4905 36.6479L31.5004 36.6388C31.5445 36.5979 31.5714 36.5877 31.58 36.585C31.5866 36.5829 31.6004 36.5792 31.6317 36.5846C31.6425 36.5866 31.6502 36.5886 31.6553 36.5903C31.6575 36.5946 31.6603 36.6008 31.6636 36.6094C31.6966 36.6977 31.7266 36.9152 31.6541 37.3358C31.587 37.6982 31.4764 37.8756 31.3884 37.9599C31.3479 37.9956 31.3226 38.0052 31.313 38.0081C31.3046 38.0107 31.2884 38.0144 31.2542 38.0085C31.2413 38.0061 31.2324 38.0037 31.2267 38.0018C31.2246 37.9977 31.222 37.9918 31.219 37.9837C31.1866 37.8971 31.1567 37.6802 31.2323 37.2574ZM31.6643 36.5938C31.6642 36.5938 31.6638 36.5936 31.663 36.5931L31.6643 36.5938ZM31.6514 36.5833C31.6508 36.5825 31.6505 36.5821 31.6505 36.5822L31.6514 36.5833ZM31.218 37.9982C31.218 37.9982 31.2185 37.9984 31.2193 37.999L31.218 37.9982ZM31.2305 38.0085C31.2311 38.0092 31.2313 38.0096 31.2313 38.0096L31.2305 38.0085Z" fill="#3C6CB8" stroke="url(#paint1_linear_3124_3988)" stroke-width="1.38003"/>
<mask id="mask0_3124_3988" style="mask-type:alpha" maskUnits="userSpaceOnUse" x="20" y="29" width="21" height="12">
<path d="M24.9391 39.9023C25.0492 39.8115 25.0433 39.6411 24.9273 39.558L22.9074 38.1125C22.7894 38.028 22.7858 37.8537 22.9003 37.7644L24.6011 36.4387C24.6635 36.3901 24.6945 36.3114 24.6821 36.2333L24.5612 35.4726C24.5327 35.2929 24.3091 35.2258 24.1863 35.3601L22.9027 36.7642C22.7656 36.9141 22.5162 36.8107 22.5253 36.6078L22.8033 30.4258C22.8083 30.3147 22.7287 30.2178 22.6187 30.2012L20.5368 29.8865C20.4 29.8659 20.279 29.9766 20.2874 30.1146L20.9237 40.4979C20.9313 40.6219 21.0411 40.7143 21.1645 40.7006L22.1648 40.5895C22.2711 40.5777 22.353 40.4903 22.3579 40.3835L22.3912 39.6539C22.3996 39.471 22.6165 39.3799 22.753 39.5018L23.8965 40.5232C23.9765 40.5946 24.0967 40.597 24.1795 40.5287L24.9391 39.9023Z" fill="white"/>
<path d="M25.7812 34.7357C25.6719 34.7589 25.598 34.8613 25.6105 34.9724L26.133 39.6292C26.1478 39.761 26.2761 39.8489 26.4043 39.815L27.6624 39.4829C27.7576 39.4578 27.8239 39.3719 27.8242 39.2735L27.8386 34.5676C27.839 34.4291 27.7116 34.3256 27.5762 34.3544L25.7812 34.7357ZM27.4394 32.433C27.4394 32.7465 27.3401 33.013 27.1414 33.2325C26.9427 33.4519 26.7048 33.5617 26.4277 33.5617C26.1506 33.5617 25.9127 33.4519 25.714 33.2325C25.5153 33.013 25.4159 32.7465 25.4159 32.433C25.4159 32.1247 25.5153 31.8608 25.714 31.6413C25.9127 31.4218 26.1506 31.3121 26.4277 31.3121C26.7048 31.3121 26.9427 31.4218 27.1414 31.6413C27.3401 31.8608 27.4394 32.1247 27.4394 32.433Z" fill="white"/>
<path d="M31.1334 38.6878C30.5792 38.5886 30.3857 38.0712 30.5531 37.1359C30.6315 36.6813 30.791 36.3468 31.0315 36.1326C31.2458 35.934 31.4864 35.8583 31.753 35.9053C32.302 36.0046 32.4955 36.5219 32.3334 37.4572C32.2497 37.9119 32.0903 38.2489 31.855 38.4684C31.6406 38.6617 31.4001 38.7349 31.1334 38.6878ZM32.8807 30.8731C32.7701 30.8821 32.684 30.9729 32.681 31.0838L32.584 34.652C32.5802 34.7919 32.4471 34.8915 32.3109 34.8599C31.7503 34.7302 31.282 34.6789 30.906 34.706C30.106 34.774 29.442 35.0797 28.9139 35.6231C28.391 36.1718 28.1584 36.8015 28.2159 37.5121C28.2734 38.2176 28.6054 38.7976 29.2119 39.2522C29.8184 39.7068 30.5217 39.9028 31.3217 39.8401C31.4979 39.8257 31.6741 39.7965 31.8503 39.7524C31.9642 39.724 32.0765 39.8149 32.0644 39.9317C32.0566 40.0066 32.1014 40.077 32.1725 40.1016L33.7085 40.6342C33.8424 40.6806 33.9842 40.5885 33.9961 40.4473L34.798 30.9719C34.8093 30.8382 34.6978 30.7263 34.564 30.7371L32.8807 30.8731Z" fill="white"/>
<path d="M40.2626 37.7081C40.1842 37.452 39.9828 37.1934 39.6587 36.9321C39.46 36.7701 39.1254 36.5428 38.6548 36.2502C38.1257 35.9244 37.8207 35.7074 37.7397 35.5992C37.7254 35.5801 37.7207 35.556 37.7207 35.5321C37.7207 35.4266 37.7418 35.3551 37.7842 35.3174C37.9045 35.2077 38.1633 35.2155 38.5607 35.3409L39.0469 35.5212L39.2095 35.5831C39.3064 35.62 39.416 35.5832 39.471 35.4953L39.494 35.4585L40.2228 34.3286C40.2849 34.2323 40.2615 34.1043 40.1695 34.0362L40.1214 34.0006C39.7659 33.7341 39.1803 33.5747 38.3646 33.5225C37.6378 33.4807 37.0705 33.5251 36.6627 33.6557C35.8993 33.8961 35.4575 34.3272 35.3372 34.949C35.332 34.9961 35.3268 35.0431 35.3215 35.0901C35.2849 35.4664 35.3869 35.8295 35.6274 36.1796C35.8679 36.5297 36.213 36.8171 36.6627 37.0418L36.9137 37.1672C37.8441 37.6116 38.3728 37.9394 38.4996 38.1509C38.5253 38.1936 38.5074 38.2595 38.4666 38.2881C38.3934 38.3404 38.294 38.3874 38.1685 38.4292C37.8496 38.5494 37.4574 38.5415 36.9921 38.4057C36.532 38.2698 36.2235 38.0739 36.0666 37.8178L36.0176 37.7384C35.9213 37.5823 35.6868 37.6084 35.6272 37.7819L35.2727 38.8141C35.2493 38.8822 35.2612 38.9575 35.3044 39.0151L35.3294 39.0484C35.6745 39.5082 36.3411 39.793 37.3293 39.9028C38.3175 40.0125 39.0966 39.8897 39.6665 39.5344C39.9855 39.3358 40.1946 39.0798 40.294 38.7662C40.3985 38.4475 40.3881 38.0948 40.2626 37.7081Z" fill="white"/>
</mask>
<g mask="url(#mask0_3124_3988)">
<path d="M25.1571 39.7225L22.6709 37.9432L24.7022 36.3599L24.4905 35.0274L22.4984 37.2064L22.8121 30.2304L20.271 29.8464L20.9376 40.7258L22.3494 40.569L22.4121 39.1973L24.0356 40.6474L25.1571 39.7225Z" fill="#FF53AA"/>
<path d="M25.5885 34.7766L26.161 39.8792L27.8237 39.4403L27.8394 34.2985L25.5885 34.7766ZM27.4394 32.433C27.4394 32.7465 27.3401 33.013 27.1414 33.2325C26.9427 33.4519 26.7048 33.5617 26.4277 33.5617C26.1506 33.5617 25.9127 33.4519 25.714 33.2325C25.5153 33.013 25.4159 32.7465 25.4159 32.433C25.4159 32.1247 25.5153 31.8608 25.714 31.6413C25.9127 31.4218 26.1506 31.3121 26.4277 31.3121C26.7048 31.3121 26.9427 31.4218 27.1414 31.6413C27.3401 31.8608 27.4394 32.1247 27.4394 32.433Z" fill="#FF53AA"/>
<path d="M31.1334 38.6878C30.5792 38.5886 30.3857 38.0712 30.5531 37.1359C30.6315 36.6813 30.791 36.3468 31.0315 36.1326C31.2458 35.934 31.4864 35.8583 31.753 35.9053C32.302 36.0046 32.4955 36.5219 32.3334 37.4572C32.2497 37.9119 32.0903 38.2489 31.855 38.4684C31.6406 38.6617 31.4001 38.7349 31.1334 38.6878ZM32.6863 30.8889L32.5765 34.9255C31.8968 34.7479 31.34 34.6747 30.906 34.706C30.106 34.774 29.442 35.0797 28.9139 35.6231C28.391 36.1718 28.1584 36.8015 28.2159 37.5121C28.2734 38.2176 28.6054 38.7976 29.2119 39.2522C29.8184 39.7068 30.5217 39.9028 31.3217 39.8401C31.5779 39.8192 31.8341 39.7669 32.0903 39.6833L32.051 40.0595L33.9726 40.7258L34.8196 30.7164L32.6863 30.8889Z" fill="#FF53AA"/>
<path d="M40.2626 37.7081C40.1842 37.452 39.9828 37.1934 39.6587 36.9321C39.46 36.7701 39.1254 36.5428 38.6548 36.2502C38.0692 35.8896 37.7581 35.6623 37.7215 35.5682C37.7162 35.4428 37.7372 35.3592 37.7842 35.3174C37.9045 35.2077 38.1633 35.2155 38.5607 35.3409L39.0469 35.5212L39.3763 35.6466L39.494 35.4585L40.3332 34.1574L40.1214 34.0006C39.7659 33.7341 39.1803 33.5747 38.3646 33.5225C37.6378 33.4807 37.0705 33.5251 36.6627 33.6557C35.8993 33.8961 35.4575 34.3272 35.3372 34.949C35.332 34.9961 35.3268 35.0431 35.3215 35.0901C35.2849 35.4664 35.3869 35.8295 35.6274 36.1796C35.8679 36.5297 36.213 36.8171 36.6627 37.0418L36.9137 37.1672C37.9751 37.6741 38.5136 38.0294 38.5293 38.2332C38.5398 38.2332 38.5188 38.2515 38.4666 38.2881C38.3934 38.3404 38.294 38.3874 38.1685 38.4292C37.8496 38.5494 37.4574 38.5415 36.9921 38.4057C36.532 38.2698 36.2235 38.0739 36.0666 37.8178L35.7764 37.3475L35.2353 38.923L35.3294 39.0484C35.6745 39.5082 36.3411 39.793 37.3293 39.9028C38.3175 40.0125 39.0966 39.8897 39.6665 39.5344C39.9855 39.3358 40.1946 39.0798 40.294 38.7662C40.3985 38.4475 40.3881 38.0948 40.2626 37.7081Z" fill="#FF53AA"/>
<rect x="18.8828" y="28.4386" width="6.14729" height="14.269" fill="#FBB41E"/>
<rect x="34.9453" y="32.7985" width="7.13879" height="8.52175" fill="#37D9D4"/>
<path d="M28.5001 35.474L31.6729 30.4204L32.4661 29.9249L35.1432 29.0331C35.2423 29.958 35.3415 32.0256 34.9449 32.8976C34.4491 33.9876 34.9449 38.843 34.9449 39.0412C34.9449 39.1998 35.4737 40.4945 35.7381 41.1221C34.9779 41.6506 33.3585 42.7274 32.9619 42.8066C32.4661 42.9057 28.6984 41.3203 28.5001 41.1221C28.3415 40.9636 28.1696 38.2815 28.1035 36.9603L28.5001 35.474Z" fill="#FF5A21"/>
</g>
<defs>
<radialGradient id="paint0_radial_3124_3988" cx="0" cy="0" r="1" gradientUnits="userSpaceOnUse" gradientTransform="translate(23 23) rotate(90) scale(23)">
<stop stop-color="#4782CD"/>
<stop offset="1" stop-color="#203785"/>
</radialGradient>
<linearGradient id="paint1_linear_3124_3988" x1="19.5066" y1="29.7416" x2="37.5788" y2="41.0773" gradientUnits="userSpaceOnUse">
<stop stop-color="#3A68B4"/>
<stop offset="0.425225" stop-color="#3158A5"/>
<stop offset="1" stop-color="#203785"/>
</linearGradient>
</defs>
</svg>
