<svg width="387" height="390" viewBox="0 0 387 390" fill="none" xmlns="http://www.w3.org/2000/svg"><ellipse cx="188.661" cy="377.147" rx="39.659" ry="12.35" fill="#213987" fill-opacity=".3"/><path d="M286.276 88.161c53.614 53.426 53.612 147.319-.002 200.745l-84.992 84.696c-12.634 12.59-22.326 1.834-34.96-10.756l-64.423-73.94c-53.613-53.426-53.613-139.909 0-193.335 53.614-53.426 130.764-60.836 184.377-7.41z" fill="#213987"/><ellipse cx="195.354" cy="185.623" rx="120.942" ry="120.519" fill="#26325E"/><ellipse cx="195.434" cy="185.537" rx="134.691" ry="134.22" fill="url(#paint0_radial_1526_725)"/><path d="M158.247 214.74c-1.236-3.229-1.721-6.328-1.553-9.502.328-6.163 1.806-12.013 5.202-17.244 3.764-5.799 9.101-9.446 15.854-10.946 1.912-.425 3.906-.72 5.856-.688 2.641.044 4.965 1.027 6.387 3.467 1.058 1.816 1.348 3.805 1.158 5.855-.598 6.429-4.509 10.724-9.438 14.317-2.431 1.773-5.133 3.068-7.997 3.981-.792.253-1.209.609-1.077 1.41.199 1.212.322 2.466.745 3.603.431 1.159 1.359 1.786 2.757 1.828 2.748.082 5.221-.747 7.638-1.894 3.793-1.799 6.475-4.821 8.941-8.074.871-1.15.756-2.568.898-3.884.492-4.579.9-9.168 1.335-13.753.25-2.629.545-5.255.711-7.89.06-.941.336-1.446 1.286-1.636 4.421-.886 8.835-1.808 13.254-2.706.263-.054.547-.007 1.033-.007-.09 1.175-.157 2.268-.261 3.358-.199 2.069-.417 4.135-.631 6.202-.564 5.476-1.145 10.949-1.685 16.426a50.086 50.086 0 00-.227 4.381c-.016 1.56.751 2.046 2.319 1.652 2.906-.731 4.722-2.764 6.2-5.161 1.908-3.091 3.231-6.435 3.891-10.004.5-2.704.875-5.431 1.263-8.154.093-.652.014-1.329.014-2.143-.597.062-1.052.016-1.434.163-3.135 1.201-6.471-2.635-5.515-5.963.539-1.875 1.837-3.06 3.579-3.787 1.678-.701 3.415-1.17 5.259-.778 2.94.626 4.316 2.735 4.903 5.423 1.249 5.716.764 11.394-.504 17.055-1.143 5.107-3.023 9.869-6.144 14.115-4.14 5.634-9.647 8.979-16.571 10.126-2.361.391-4.619.238-6.846-.483-2.077-.672-3.566-2.089-4.577-4.008-.18-.342-.357-.685-.618-1.186-.601.653-1.148 1.191-1.63 1.781-2.721 3.334-6.207 5.645-9.901 7.792-5.555 3.23-11.696 4.534-17.84 5.87a153.619 153.619 0 01-10.143 1.843c-2.729.403-5.49.698-8.245.78-1.873.055-3.069.64-4.171 2.229-2.462 3.559-5.107 7.003-7.847 10.358-3.261 3.993-7.327 6.983-12.151 8.916-17.036 7.075-36.179 1.533-33.377-15.769 2.41-9.99 8.75-16.416 18.32-19.773 6.004-2.107 12.24-2.499 18.552-1.912.45.042.902.06 1.353.074 1.971.067 2.085-.016 2.222-2.009.061-.897.039-1.803.009-2.703-.08-2.361-.186-4.72-.28-7.08-.238-5.959-.447-11.919-.726-17.875-.1-2.132-.336-4.259-.569-6.381-.155-1.405-.202-1.411-1.69-1.422-2.317-.016-4.647.131-6.95-.052-5.268-.42-9.663-2.445-11.953-7.526-1.577-3.496-1.176-7.023.488-10.429.123-.25.302-.476.475-.698 1.219-1.565 2.659-1.886 4.258-.747 1.466 1.043 2.787 2.285 4.195 3.412 1.985 1.588 4.14 2.714 6.809 2.517 2.029-.15 2.599-.56 2.884-2.538.514-3.558.871-7.142 1.462-10.687 1.168-7.003 3.059-13.748 7.893-19.264 3.479-3.971 7.815-6.535 13.112-6.982 4.475-.377 8.242 1.459 10.859 5.068 4.946 6.821 5.361 14.117 1.731 21.666-1.652 3.434-4.227 6.232-6.538 9.207-2.106 2.713-4.322 5.342-6.385 8.086-1.216 1.619-2.299 3.399-2.456 5.472-.113 1.497.045 3.023.185 4.526.398 4.251.794 8.502 1.295 12.741.403 3.412.78 6.819.591 10.259a492.916 492.916 0 01-.575 9.254c-.178 2.409-.434 4.812-.66 7.216-.055.583.106.988.761 1.082.334.047.66.216.99.218 3.324.015 6.648.009 10.238.009zm-31.807 9.752c-3.737-.779-7.43-1.198-11.136-.72-1.756.226-3.464.903-5.161 1.473-1.064.357-2.06.907-3.097 1.346-2.512 1.063-4.242 2.964-5.449 5.308-1.643 3.187.197 6.629 3.719 7.315 3.614.703 6.994-.033 10.111-1.753 5.001-2.759 8.433-7.006 10.841-12.114.111-.235.109-.523.172-.855zm16.944-75.322c.901-1.182 1.704-2.182 2.45-3.223 2.043-2.849 3.862-5.827 4.808-9.236.555-2 .548-4-.424-5.911-.642-1.262-1.574-1.539-2.761-.721-.495.342-.97.809-1.265 1.326-.553.973-1.144 1.981-1.408 3.05-.629 2.556-1.204 5.14-1.56 7.744-.302 2.206-.707 4.463.16 6.971zm29.379 48.719c.135.061.186.107.229.1.164-.028.337-.046.485-.115 3.283-1.536 5.693-3.985 7.301-7.187 1.063-2.116 1.334-4.397.8-6.717-.272-1.183-.73-1.369-1.829-.898-1.179.505-2.022 1.395-2.725 2.438-2.532 3.759-3.535 8.028-4.261 12.379zm101.023-39.898v1.925c.408-.261.723-.424.995-.643 3.061-2.466 6.667-3.724 10.491-3.803 5.647-.115 9.225 2.481 9.82 8.632.369 3.829-.228 7.631-.791 11.419-.322 2.168-.772 4.351-.76 6.525.018 3.142.637 3.995 3.846 3.074 1.149-.33 2.181-1.071 3.249-1.616 1.014 4.741-1.72 9.659-6.337 11.692-2.192.964-4.477 1.466-6.909 1.383-4.988-.172-7.856-3.907-8.195-7.914-.275-3.248-.082-6.509.428-9.76.451-2.88.624-5.807.835-8.719.055-.762-.132-1.568-.341-2.318-.489-1.761-1.473-2.187-3.193-1.464-1.548.651-2.47 1.889-3.218 3.325-1.234 2.365-1.394 4.951-1.656 7.522-.552 5.42-1.115 10.84-1.65 16.262-.166 1.678-.237 3.365-.389 5.044-.136 1.492-.366 1.714-1.787 2.01-4.244.883-8.486 1.775-12.732 2.651-.263.054-.546.007-1.032.007l.204-2.51c-.563.37-.989.602-1.361.901-3.341 2.694-7.183 4.293-11.42 4.687-4.828.448-9.084-1.64-10.273-7.362-.523-2.517-.452-5.013-.049-7.539.548-3.437.995-6.89 1.469-10.338.109-.798.377-1.313 1.295-1.491 3.042-.591 6.064-1.281 9.097-1.917 1.642-.344 3.291-.657 5.125-1.02 0 .764.071 1.372-.011 1.958-.514 3.672-1.08 7.336-1.59 11.007-.177 1.275-.339 2.565-.338 3.848.001 1.513.491 1.9 2.001 1.759 2.289-.214 3.99-1.449 5.349-3.214 1.275-1.657 1.887-3.578 2.103-5.621a971.2 971.2 0 001.304-13.08c.294-3.189.51-6.384.774-9.575.046-.558.202-1.109.234-1.666.048-.858.599-1.122 1.321-1.268 4.144-.837 8.286-1.686 12.429-2.525.488-.098.984-.159 1.663-.268z" fill="#fff"/><path d="M230.275 142.791c-.494-.356-1.177-.651-1.153-.869.075-.675.234-1.557.703-1.916.582-.446.779-.85.808-1.504.025-.558.234-1.114.219-1.668-.037-1.286.589-1.888 1.8-2.204 1.621-.424 3.2-1.007 5.048-1.602l-.525 5.224 1.939-.271c.396 1.653.235 2.108-1.128 2.587-.789.277-1.033.822-1.108 1.521-.174 1.62-.318 3.244-.469 4.866-.104 1.119-.238 2.237-.289 3.359-.058 1.269.531 1.624 1.671 1.052 1.019-.511 1.431-1.327 1.361-2.479-.184-3.006.547-5.813 2.114-8.377 1.942-3.176 4.935-4.737 8.546-5.055 1.797-.159 3.303.63 4.137 2.363.241.501.469 1.008.695 1.494 2.064-.313 2.276-.541 2.459-2.329.092-.894.119-1.84.45-2.652.417-1.026 1.608-.542 2.422-.844.993-.368 2.075-.529 3.134-.664.32-.041.69.299 1.151.52.789-.399 1.762-.956 2.786-1.391 1.301-.553 2.452-.13 3.394.824.68.688.772 2.095.3 3.022-.479.943-2.273 2.135-3.197 1.861-.738-.219-1.348-.864-2.133-1.401-1.473.435-1.749.785-1.896 2.433-.312 3.471-.65 6.938-.964 10.408-.053.584-.095 1.191-.778 1.344-1.904.424-3.82.796-5.959 1.236l.861-9.904c-1.794.213-1.852.281-1.928 2.044-.164 3.807-1.735 6.891-5.052 8.836-2.879 1.686-5.928 2.076-9.304.04-.163.255-.349.676-.65.986-1.113 1.146-2.391 2.028-3.954 2.507-2.813.861-4.114.525-6.054-1.779-.474.475-.935.946-1.407 1.405-2.597 2.528-5.684 3.786-9.338 3.598-2.093-.108-3.798-1.454-4.235-3.496-.305-1.424-.632-2.869-.165-4.337.061-.194.008-.423.008-.643-1.313-.122-1.238.731-1.253 1.527-.045 2.375-.739 4.548-2.158 6.454-2.367 3.177-5.569 4.426-9.476 3.901-2.6-.35-3.675-2.105-3.891-4.072-.495-4.508.502-8.65 4.095-11.783 2.129-1.856 4.646-2.736 7.508-2.454 1.632.161 2.662 1.103 3.259 2.577l.498 1.224c1.495-.239 2.49-.932 3.211-2.253 1.584-2.898 4.162-4.56 7.388-5.098 1.066-.178 2.25-.039 3.309.233 1.109.284 1.872 1.768 1.811 2.969-.061 1.229-.846 2.213-2.072 2.598-1.408.442-2.031-.06-2.017-1.513.004-.441-.273-.885-.42-1.327-.465.253-1.133.392-1.355.783-.55.968-1.034 2.018-1.296 3.095-.477 1.961-.893 3.961-.288 5.988.318 1.067.608 1.294 1.688 1.181 2.816-.294 4.737-1.936 6.227-4.191.119-.18.189-.415.211-.632.242-2.29.471-4.582.698-6.874.022-.219.003-.44.003-.478zm15.591 3.603c.05.519.041 1.147.18 1.74.372 1.587 1.519 1.928 2.651.72.553-.592.903-1.406 1.224-2.17.257-.613.296-1.313.498-1.954.238-.756.23-1.373-.431-1.968-.809-.727-.843-1.662-.391-2.624.119-.254.305-.505.322-.766a1.06 1.06 0 00-.258-.728c-.097-.104-.492-.095-.614.016-.574.519-1.275 1.003-1.611 1.662-.951 1.86-1.442 3.875-1.57 6.072zm-41.326 8.903c0 .507-.11 1.046.028 1.511.163.547.435 1.307.855 1.467.454.174 1.17-.163 1.7-.422.315-.155.602-.556.714-.905.441-1.386.825-2.79 1.186-4.199.057-.224-.026-.607-.19-.743-1.242-1.024-1.182-2.177-.475-3.461.106-.193.1-.602-.032-.732-.158-.154-.612-.247-.754-.136-.558.439-1.2.883-1.529 1.479-1.046 1.897-1.584 3.955-1.503 6.141z" fill="#fff"/><path d="M179.451 146.616c-3.101 2.472-3.638 5.003-2.083 9.162-1.562.343-3.153.71-4.498-.252-1.299-.928-1.48-2.461-1.146-3.982.359-1.635 1.176-3.063 2.352-4.228 4.289-4.248 9.44-6.577 15.528-6.115 4.1.312 6.419 2.446 7.407 6.725 1.195 5.178.119 10.087-2.733 14.515-1.674 2.599-4.064 4.389-7.385 4.374-.779-.003-1.555-.215-2.374-.336-1.924 1.7-4.503 1.366-6.99 2.119-.363-2.599.48-4.928.556-7.301.077-2.407.424-4.805.654-7.207l.712-7.474zm6.498-2.354c.106.314.214.474.201.623-.25 2.797-.51 5.593-.774 8.388-.27 2.853-.575 5.702-.81 8.557-.11 1.336.335 1.647 1.607 1.219 1.488-.502 2.401-1.618 3.076-2.97.791-1.583 1.024-3.31 1.389-5.016.585-2.728.221-5.383-.42-8.016-.474-1.945-2.019-3.195-3.917-3.12-1.961.077-3.797.725-5.426 1.924l5.074-1.589zm64.045 24.556c.087 2.128-.812 3.895-2.355 5.208-2.795 2.378-5.935 3.485-9.697 2.353-3.399-1.023-6.004-4.813-4.214-8.826 2.244-5.034 9.674-7.376 14.147-3.478 1.394 1.215 2.133 2.784 2.119 4.743z" fill="#fff"/><path d="M290.915 266.903c2.731 1.694 4.673 3.009 5.827 3.947 1.881 1.512 3.05 3.009 3.505 4.491.728 2.238.789 4.279.182 6.124m-9.514-14.562l-19.771 15.244a.447.447 0 00.066.416l.403.535c2.003 2.662 5.872 4.31 11.608 4.945 5.736.635 10.258-.076 13.566-2.132 1.851-1.149 3.065-2.631 3.642-4.446m-9.514-14.562c-3.268-2.006-5.063-3.299-5.386-3.88a.3.3 0 01-.034-.141c-.019-.685.103-1.144.366-1.377l5.054 5.398zm9.514 14.562l1.356.431a.019.019 0 01-.002.007m-1.354-.438l1.352.445.002-.007m-.179-6.992c-.576-1.861-1.984-3.573-3.968-5.168-1.228-.998-3.236-2.353-5.971-4.049l-.006-.004c-1.622-.995-2.854-1.799-3.71-2.416a13.021 13.021 0 01-.959-.747l-.013-.013c.102-.02.259-.036.492-.029.56.017 1.361.166 2.439.503l2.778 1.027.011.004 1.557.591a1.871 1.871 0 002.25-.755l.482-.769 4.637-7.168a1.872 1.872 0 00-.46-2.522l-.884-.652-.003-.003c-2.403-1.794-6.146-2.738-10.955-3.045h-.009c-4.287-.246-7.78.002-10.39.835-4.771 1.499-7.836 4.317-8.661 8.571l-.011.056-.006.057v.002l-.001.001v.008l-.001.002v.006l-.001.002v.008l-.001.001v.007l-.001.001v.008l-.001.002v.008l-.001.002v.006l-.001.001v.008l-.001.002v.008l-.001.002v.006l-.001.002v.008l-.001.001v.007l-.001.001v.008l-.001.002v.008l-.001.001v.007l-.001.001v.008l-.001.002v.008l-.001.001v.007l-.001.001v.008l-.001.002v.006l-.001.002v.008l-.001.001v.008l-.001.002v.006l-.001.002v.008l-.001.002v.006l-.001.002v.008l-.001.001v.008l-.001.002v.006l-.001.002v.008l-.001.001v.008l-.001.002v.006l-.001.002v.008l-.001.001v.007l-.001.001v.008l-.001.002v.008l-.001.001v.007l-.001.001v.008l-.001.002v.008l-.001.002v.006l-.001.002v.008l-.001.001v.006l-.001.002v.008l-.001.002v.008l-.001.001v.007l-.001.001v.008l-.001.002v.008l-.001.001v.007l-.001.001v.008l-.001.002v.006l-.001.002v.008l-.001.001v.008l-.001.002v.006l-.001.002v.008l-.001.002v.008l-.001.001v.006l-.001.002v.008l-.001.002v.006l-.001.002v.008l-.001.001v.008l-.001.002v.006l-.001.002v.008l-.001.001v.008l-.001.002v.006l-.001.002v.008l-.001.001v.007l-.001.001v.008l-.001.002v.008l-.001.002v.006l-.001.002v.007l-.001.002v.008l-.001.002v.006l-.001.002v.008l-.001.001v.007l-.001.001v.008l-.001.002v.008l-.001.001v.007l-.001.001v.008l-.001.002v.008l-.001.001v.007l-.001.001v.008l-.001.002v.006l-.001.002v.008l-.001.001v.008l-.001.002v.006l-.001.002v.008l-.001.002v.008l-.001.001v.007l-.001.001v.008l-.001.002v.006l-.001.002v.008l-.001.001v.007l-.001.009-.001.01c-.249 2.554.458 4.985 2.02 7.251 1.556 2.259 3.76 4.069 6.546 5.457l1.457.726.011.005.012.006c2.742 1.306 4.84 2.419 6.316 3.34.703.439 1.242.82 1.633 1.144a8.886 8.886 0 01-.503.184l-.026.008-.025.01c-1.464.55-3.403.565-5.929-.17-2.524-.743-3.916-1.735-4.559-2.781l-.002-.004-1.187-1.918c-.831-1.342-2.847-1.117-3.361.375l-2.756 8a1.873 1.873 0 00.274 1.734l.404.536c2.362 3.139 6.731 4.855 12.588 5.503 5.906.654 10.791-.048 14.474-2.337 2.093-1.299 3.55-3.036 4.245-5.217m-.179-6.992l-.004-.011-1.353.441 1.36-.418-.003-.012zm0 0c.797 2.457.896 4.808.179 6.992m-56.493-9.622l.001-.009c.424-2.447 1.25-4.035 2.32-4.985l.01-.009.011-.01c.946-.874 1.901-1.147 2.972-.96 1.106.201 1.767.756 2.15 1.775.429 1.145.521 2.945.068 5.555-.453 2.446-1.279 4.064-2.337 5.053-.94.842-1.898 1.109-2.979.919-1.126-.202-1.791-.761-2.171-1.775-.428-1.141-.514-2.94-.045-5.554zm.545-15.734l-.009.001h-.009c-4.961.42-9.142 2.327-12.462 5.733h0l-.009.01c-1.829 1.914-3.11 4.009-3.824 6.273l.037-12.397a1.871 1.871 0 00-2.259-1.837l-12.124 2.568a1.871 1.871 0 00-1.472 2.04l3.22 28.613a1.87 1.87 0 002.336 1.6l8.816-2.321a1.87 1.87 0 001.395-1.804l.023-7.533c.934 3.117 2.872 5.767 5.759 7.925 3.814 2.85 8.243 4.069 13.208 3.681l.005-.001a20.317 20.317 0 002.73-.411 1.868 1.868 0 001.259 1.724l10.273 3.552a1.871 1.871 0 002.476-1.61l4.823-56.829a1.871 1.871 0 00-2.015-2.024l-11.454.923a1.871 1.871 0 00-1.72 1.815l-.579 21.197c-3.267-.744-6.086-1.056-8.424-.888zm-32.915 28.954l-12.4-8.848 10.073-7.828a1.87 1.87 0 00.699-1.772l-1.041-6.535c-.246-1.546-2.169-2.124-3.227-.97l-8.289 9.041 1.626-36.058a1.872 1.872 0 00-1.59-1.935l-13.803-2.08a1.872 1.872 0 00-2.147 1.965l3.807 61.943a1.872 1.872 0 002.074 1.745l7.346-.813a1.872 1.872 0 001.663-1.775l.21-4.571 6.905 6.15a1.87 1.87 0 002.433.048l5.762-4.738a1.872 1.872 0 00-.101-2.969zm12.22-35.106c1.406-1.548 2.099-3.438 2.099-5.584 0-2.123-.698-3.995-2.099-5.539-1.403-1.545-3.157-2.371-5.196-2.371-2.039 0-3.794.826-5.197 2.371-1.401 1.544-2.099 3.416-2.099 5.539 0 2.146.694 4.036 2.099 5.584 1.403 1.545 3.158 2.372 5.197 2.372s3.793-.827 5.196-2.372z" fill="#3C6CB8" stroke="url(#paint1_linear_1526_725)" stroke-width="2.846"/><mask id="mask0_1526_725" style="mask-type:alpha" maskUnits="userSpaceOnUse" x="184" y="229" width="117" height="64"><path d="M212.117 287.371a.448.448 0 00-.024-.711l-13.465-9.609a.448.448 0 01-.015-.718l11.106-8.632a.447.447 0 00.168-.424l-1.041-6.535a.448.448 0 00-.773-.232l-10.103 11.019a.448.448 0 01-.778-.323l1.747-38.739a.447.447 0 00-.381-.463l-13.802-2.081a.449.449 0 00-.514.471l3.807 61.942a.447.447 0 00.496.418l7.346-.813a.448.448 0 00.398-.425l.304-6.616a.448.448 0 01.745-.314l8.435 7.511a.447.447 0 00.582.012l5.762-4.738zm3.354-29.08a.447.447 0 00-.353.488l3.22 28.613a.449.449 0 00.559.383l8.817-2.321a.45.45 0 00.334-.432l.088-28.86a.447.447 0 00-.541-.439l-12.124 2.568zm10.345-13.48c0 1.815-.576 3.357-1.73 4.627-1.153 1.27-2.534 1.905-4.142 1.905-1.609 0-2.99-.635-4.143-1.905-1.153-1.27-1.73-2.812-1.73-4.627 0-1.784.577-3.312 1.73-4.582s2.534-1.905 4.143-1.905c1.608 0 2.989.635 4.142 1.905 1.154 1.27 1.73 2.798 1.73 4.582zm21.442 36.2c-3.217-.574-4.34-3.568-3.369-8.982.455-2.631 1.381-4.566 2.777-5.806 1.244-1.149 2.64-1.588 4.188-1.316 3.187.575 4.31 3.569 3.369 8.982-.486 2.631-1.411 4.582-2.777 5.852-1.244 1.119-2.64 1.543-4.188 1.27zm9.414-45.169a.449.449 0 00-.412.434l-.611 22.397a.451.451 0 01-.562.424c-3.698-.927-6.748-1.303-9.149-1.13-4.644.393-8.498 2.162-11.563 5.307-3.035 3.176-4.386 6.82-4.052 10.933.334 4.083 2.261 7.44 5.782 10.071 3.52 2.631 7.602 3.765 12.245 3.402a19.235 19.235 0 003.802-.705.46.46 0 01.588.484l-.119 1.137a.447.447 0 00.299.47l10.273 3.552a.449.449 0 00.593-.386l4.823-56.829a.448.448 0 00-.483-.484l-11.454.923zm43.575 39.499c-.455-1.482-1.624-2.979-3.505-4.491-1.154-.938-3.096-2.253-5.827-3.947-3.268-2.006-5.063-3.299-5.386-3.88a.3.3 0 01-.034-.141c-.019-.685.103-1.144.366-1.377.698-.635 2.201-.59 4.507.136l2.823 1.043 1.568.596c.2.076.425 0 .539-.181l.488-.778 4.642-7.176a.45.45 0 00-.11-.604l-.891-.657c-2.063-1.543-5.462-2.465-10.197-2.767-4.218-.242-7.511.015-9.878.771-4.431 1.391-6.996 3.886-7.694 7.485l-.091.816c-.212 2.178.38 4.28 1.776 6.306s3.399 3.69 6.009 4.99l1.456.726c5.528 2.632 8.612 4.558 9.254 5.778.109.207.03.517-.161.653l-.079.056c-.425.302-1.002.574-1.73.816-1.851.696-4.127.651-6.828-.136-2.671-.786-4.462-1.92-5.372-3.402l-1.187-1.919a.448.448 0 00-.805.09l-2.756 8a.447.447 0 00.066.416l.403.535c2.003 2.662 5.872 4.31 11.608 4.945 5.736.635 10.258-.076 13.566-2.132 1.851-1.149 3.065-2.631 3.642-4.446.607-1.845.546-3.886-.182-6.124z" fill="#fff"/></mask><g mask="url(#mask0_1526_725)"><path d="M212.569 286.999l-14.431-10.297 11.791-9.164-1.229-7.712-11.563 12.612 1.821-40.374-14.75-2.223 3.869 62.965 8.195-.907.364-7.939 9.423 8.392 6.51-5.353zm2.504-28.624l3.323 29.532 9.651-2.541.091-29.758-13.065 2.767zm10.743-13.564c0 1.815-.576 3.357-1.73 4.627-1.153 1.27-2.534 1.905-4.142 1.905-1.609 0-2.99-.635-4.143-1.905-1.153-1.27-1.73-2.812-1.73-4.627 0-1.784.577-3.312 1.73-4.582s2.534-1.905 4.143-1.905c1.608 0 2.989.635 4.142 1.905 1.154 1.27 1.73 2.798 1.73 4.582zm21.442 36.2c-3.217-.574-4.34-3.568-3.369-8.982.455-2.631 1.381-4.566 2.777-5.806 1.244-1.149 2.64-1.588 4.188-1.316 3.187.575 4.31 3.569 3.369 8.982-.486 2.631-1.411 4.582-2.777 5.852-1.244 1.119-2.64 1.543-4.188 1.27zm9.013-45.137l-.637 23.363c-3.945-1.029-7.177-1.452-9.696-1.27-4.644.393-8.498 2.162-11.563 5.307-3.035 3.176-4.386 6.82-4.052 10.933.334 4.083 2.261 7.44 5.782 10.071 3.52 2.631 7.602 3.765 12.245 3.402a19.502 19.502 0 004.462-.907l-.228 2.177 11.153 3.856 4.917-57.93-12.383.998zm43.976 39.467c-.455-1.482-1.624-2.979-3.505-4.491-1.154-.938-3.096-2.253-5.827-3.947-3.4-2.087-5.205-3.402-5.418-3.946-.03-.726.091-1.21.364-1.452.698-.635 2.201-.59 4.507.136l2.823 1.043 1.912.726.683-1.089 4.871-7.53-1.23-.907c-2.063-1.543-5.462-2.465-10.197-2.767-4.218-.242-7.511.015-9.878.771-4.431 1.391-6.996 3.886-7.694 7.485l-.091.816c-.212 2.178.38 4.28 1.776 6.306s3.399 3.69 6.009 4.99l1.456.726c6.161 2.933 9.287 4.99 9.378 6.169.061 0-.061.106-.364.318-.425.302-1.002.574-1.73.816-1.851.696-4.127.651-6.828-.136-2.671-.786-4.462-1.92-5.372-3.402l-1.685-2.722-3.141 9.118.547.726c2.003 2.662 5.872 4.31 11.608 4.945 5.736.635 10.258-.076 13.566-2.132 1.851-1.149 3.065-2.631 3.642-4.446.607-1.845.546-3.886-.182-6.124z" fill="#FF53AA"/><path fill="#FBB41E" d="M176.151 221.694h35.681v82.583h-35.681z"/><path fill="#37D9D4" d="M269.384 246.93h41.436v49.32h-41.436z"/><path d="M231.974 262.412l18.416-29.248 4.604-2.868 15.539-5.161c.575 5.352 1.151 17.319-1.151 22.366-2.878 6.308 0 34.409 0 35.556 0 .918 3.069 8.412 4.604 12.044-4.413 3.058-13.812 9.29-16.114 9.749-2.878.574-24.747-8.602-25.898-9.749-.921-.918-1.918-16.44-2.302-24.087l2.302-8.602z" fill="#FF5A21"/></g><defs><radialGradient id="paint0_radial_1526_725" cx="0" cy="0" r="1" gradientUnits="userSpaceOnUse" gradientTransform="matrix(0 134.22 -134.691 0 195.437 185.626)"><stop stop-color="#4782CD"/><stop offset="1" stop-color="#203785"/></radialGradient><linearGradient id="paint1_linear_1526_725" x1="179.771" y1="229.235" x2="284.497" y2="295.114" gradientUnits="userSpaceOnUse"><stop stop-color="#3A68B4"/><stop offset=".425" stop-color="#3158A5"/><stop offset="1" stop-color="#203785"/></linearGradient></defs></svg>