<svg width="54" height="54" viewBox="0 0 54 54" fill="none" xmlns="http://www.w3.org/2000/svg"><ellipse cx="26.064" cy="52.288" rx="5.479" ry="1.712" fill="#E8E8E8"/><path d="M39.55 12.222c7.407 7.407 7.407 20.425 0 27.831L27.808 51.797c-1.745 1.745-3.084.254-4.83-1.492l-8.9-10.25c-7.407-7.407-7.407-19.397 0-26.804s18.065-8.434 25.472-1.028z" fill="#EB433C"/><path d="M37.494 30.664a.897.897 0 01-.834-.568l-4.13-10.458a1 1 0 00-1.799-.129l-2.427 4.248a1 1 0 01-1.738-.002l-2.415-4.242a1 1 0 00-1.798.126l-4.145 10.458a.898.898 0 01-.835.567.898.898 0 00-.897.898v.084c0 .543.44.982.982.982h5.785c.542 0 .982-.44.982-.982v-.501a.48.48 0 00-.48-.481.48.48 0 01-.455-.639l.225-.648a.969.969 0 011.743-.185l1.321 2.172a1 1 0 001.709 0l1.321-2.172a.969.969 0 011.743.185l.225.648a.48.48 0 01-.454.639.48.48 0 00-.48.48v.502a.98.98 0 00.981.982h5.785c.543 0 .983-.44.983-.982v-.085a.897.897 0 00-.898-.897z" fill="#fff"/></svg>