<svg width="125" height="126" viewBox="0 0 125 126" fill="none" xmlns="http://www.w3.org/2000/svg"><ellipse cx="60.48" cy="121.331" rx="12.714" ry="3.973" fill="#CFCFCF"/><path d="M91.774 28.362c17.188 17.187 17.187 47.393 0 64.58L64.527 120.19c-4.05 4.05-7.157.59-11.208-3.461L32.667 92.942c-17.188-17.187-17.188-45.01 0-62.197 17.187-17.187 41.92-19.57 59.107-2.383z" fill="#EB433C"/><path d="M86.566 71.155a1.44 1.44 0 01-1.34-.911L74.808 43.866c-.444-1.124-1.99-1.235-2.59-.186L64.91 56.467a1.44 1.44 0 01-2.502-.002l-7.274-12.78c-.598-1.05-2.146-.942-2.591.182L42.089 70.245a1.44 1.44 0 01-1.34.91h-1.08a1.44 1.44 0 00-1.44 1.44v1.678c0 .796.645 1.44 1.44 1.44h15.103a1.44 1.44 0 001.44-1.44v-2.002c0-.616-.5-1.116-1.116-1.116a1.116 1.116 0 01-1.054-1.482l1.085-3.122c.4-1.15 1.958-1.316 2.591-.275l4.709 7.74a1.44 1.44 0 002.46 0l4.71-7.74c.632-1.04 2.19-.875 2.59.275l1.085 3.122a1.116 1.116 0 01-1.054 1.482c-.616 0-1.116.5-1.116 1.116v2.002c0 .796.645 1.44 1.44 1.44h15.103a1.44 1.44 0 001.44-1.44v-1.678a1.44 1.44 0 00-1.44-1.44h-1.08z" fill="#fff"/><path d="M40.617 33.13c-4.768 4.768-7.11 6.516-11.125 15.098" stroke="#fff" stroke-width="5.761" stroke-linecap="round"/></svg>