<svg width="88" height="89" viewBox="0 0 88 89" fill="none" xmlns="http://www.w3.org/2000/svg">
<ellipse cx="42.4752" cy="85.8791" rx="8.92879" ry="2.79025" fill="black" fill-opacity="0.3"/>
<path d="M64.4521 20.588C76.5226 32.6585 76.5221 53.8717 64.4516 65.9423L45.3165 85.0776C42.4721 87.9221 40.2901 85.492 37.4457 82.6476L22.9415 65.9423C10.871 53.8717 10.871 34.3326 22.9415 22.2621C35.0121 10.1916 52.3815 8.51743 64.4521 20.588Z" fill="#EB433C"/>
<path d="M60.7868 50.6406C60.3763 50.6406 60.0075 50.3898 59.8567 50.008L52.5285 31.4535C52.2204 30.6733 51.1464 30.5964 50.7302 31.3246L45.5762 40.3429C45.1919 41.0153 44.222 41.0145 43.8389 40.3414L38.7084 31.3278C38.2933 30.5985 37.2188 30.674 36.9096 31.454L29.5561 50.009C29.4051 50.3903 29.0365 50.6406 28.6265 50.6406H27.8486C27.2963 50.6406 26.8486 51.0883 26.8486 51.6406V52.8421C26.8486 53.3944 27.2963 53.8421 27.8486 53.8421H38.4775C39.0298 53.8421 39.4775 53.3944 39.4775 52.8421V51.4243C39.4775 50.9915 39.1267 50.6406 38.6939 50.6406C38.1547 50.6406 37.7766 50.1089 37.9537 49.5996L38.7238 47.3845C39.0015 46.5859 40.0833 46.4709 40.5227 47.1932L43.8519 52.6662C44.2414 53.3067 45.171 53.3067 45.5606 52.6662L48.8897 47.1932C49.3291 46.4709 50.411 46.5859 50.6886 47.3845L51.4587 49.5996C51.6358 50.1089 51.2577 50.6406 50.7185 50.6406C50.2857 50.6406 49.9349 50.9915 49.9349 51.4243V52.8421C49.9349 53.3944 50.3826 53.8421 50.9349 53.8421H61.5638C62.1161 53.8421 62.5638 53.3944 62.5638 52.8421V51.6406C62.5638 51.0883 62.1161 50.6406 61.5638 50.6406H60.7868Z" fill="white"/>
</svg>
