<svg width="28" height="14" viewBox="0 0 28 14" fill="none" xmlns="http://www.w3.org/2000/svg">
<path d="M6.53243 13.1298C6.79691 12.9209 6.78319 12.5156 6.5052 12.325L4.30113 10.8144C4.01842 10.6206 4.01005 10.2063 4.28471 10.0013L6.21012 8.56399C6.35999 8.45211 6.43489 8.26596 6.40428 8.08146L6.33343 7.6545C6.26595 7.24788 5.76311 7.09296 5.4785 7.3911L4.41674 8.50336C4.09735 8.83795 3.53393 8.59672 3.55563 8.13466L3.89311 0.947523C3.90519 0.690387 3.72006 0.466105 3.46529 0.429228L1.10996 0.0882924C0.795621 0.0427913 0.519073 0.298092 0.539353 0.615061L1.36246 13.4796C1.38061 13.7634 1.63152 13.9749 1.91431 13.9449L2.86653 13.8436C3.11174 13.8175 3.30132 13.6166 3.31308 13.3702L3.32825 13.0528C3.34808 12.6375 3.83671 12.4264 4.15269 12.6967L5.24602 13.6319C5.42752 13.7872 5.69349 13.7924 5.88093 13.6444L6.53243 13.1298Z" fill="#284795"/>
<path d="M8.09536 6.25275C7.84071 6.30456 7.66819 6.5428 7.69843 6.8009L8.34789 12.3443C8.38304 12.6444 8.67418 12.8449 8.96705 12.7709L10.2721 12.4409C10.4935 12.385 10.6489 12.1861 10.6496 11.9578L10.6675 6.34305C10.6685 6.02621 10.3783 5.78833 10.0678 5.8515L8.09536 6.25275ZM10.132 3.32853C10.132 3.73199 9.99849 4.07493 9.73152 4.35735C9.46455 4.63977 9.14489 4.78098 8.77254 4.78098C8.40019 4.78098 8.08053 4.63977 7.81356 4.35735C7.54659 4.07493 7.4131 3.73199 7.4131 3.32853C7.4131 2.9318 7.54659 2.59222 7.81356 2.3098C8.08053 2.02738 8.40019 1.88617 8.77254 1.88617C9.14489 1.88617 9.46455 2.02738 9.73152 2.3098C9.99849 2.59222 10.132 2.9318 10.132 3.32853Z" fill="#284795"/>
<path d="M15.0955 11.3775C14.3508 11.2498 14.0909 10.5841 14.3157 9.3804C14.421 8.79539 14.6353 8.36503 14.9585 8.08934C15.2465 7.83381 15.5697 7.73631 15.928 7.79683C16.6657 7.92459 16.9256 8.5903 16.7079 9.79395C16.5954 10.379 16.3812 10.8127 16.065 11.0951C15.777 11.3439 15.4538 11.438 15.0955 11.3775ZM17.6305 1.30678C17.3755 1.32652 17.1766 1.53547 17.1693 1.7911L17.0522 5.9141C17.0431 6.23348 16.7409 6.46134 16.4276 6.39902C15.7841 6.27106 15.2382 6.22258 14.7899 6.2536C13.715 6.34102 12.8227 6.73439 12.1132 7.43372C11.4106 8.13977 11.098 8.95005 11.1753 9.86455C11.2525 10.7723 11.6987 11.5187 12.5136 12.1037C13.3286 12.6888 14.2735 12.9409 15.3484 12.8602C15.5904 12.8413 15.8323 12.8025 16.0743 12.7437C16.2203 12.7082 16.363 12.8257 16.3467 12.9752V12.9752C16.3361 13.0729 16.3951 13.1648 16.4883 13.1957L18.3104 13.8008C18.6166 13.9025 18.9376 13.6917 18.966 13.3703L19.9965 1.70768C20.0237 1.39986 19.768 1.14131 19.4599 1.16516L17.6305 1.30678Z" fill="#284795"/>
<path d="M27.362 10.1167C27.2567 9.78722 26.9862 9.45437 26.5506 9.11816C26.2836 8.9097 25.834 8.61719 25.2017 8.24063C24.5384 7.84949 24.1371 7.58021 23.9981 7.43279C23.9588 7.39117 23.9449 7.33383 23.9475 7.27667C23.9526 7.16266 23.9808 7.08388 24.0319 7.04035C24.1935 6.89914 24.5413 6.90922 25.0752 7.0706L25.7286 7.30259L25.8996 7.36494C26.0587 7.42294 26.2367 7.36367 26.3293 7.2219V7.2219L27.2621 5.83685C27.3704 5.67596 27.3306 5.45801 27.1724 5.34582V5.34582C26.6946 5.00288 25.9078 4.79779 24.8118 4.73055C23.8352 4.67675 23.073 4.73391 22.525 4.90202C21.4993 5.21134 20.9056 5.76609 20.744 6.56628C20.737 6.6268 20.73 6.68732 20.7229 6.74784C20.6738 7.23199 20.8108 7.69933 21.1339 8.14986C21.4571 8.60038 21.9208 8.97022 22.525 9.25937L22.8622 9.42075C24.1093 9.99109 24.8192 10.4123 24.9919 10.6845C25.0272 10.7401 25.0035 10.8264 24.9488 10.8631V10.8631C24.8504 10.9304 24.7169 10.9909 24.5483 11.0447C24.1198 11.1993 23.5929 11.1892 22.9676 11.0144C22.3493 10.8396 21.9348 10.5874 21.7241 10.2579V10.2579C21.5646 10.0104 21.1905 10.0532 21.0911 10.3304L20.6762 11.4871C20.6332 11.6072 20.6548 11.7411 20.7335 11.8415V11.8415C21.1972 12.4332 22.0929 12.7997 23.4207 12.9409C24.7486 13.0821 25.7954 12.9241 26.5611 12.4669C26.9897 12.2113 27.2707 11.8818 27.4042 11.4784C27.5447 11.0682 27.5307 10.6143 27.362 10.1167Z" fill="#284795"/>
</svg>
