<svg width="29" height="21" viewBox="0 0 29 21" fill="none" xmlns="http://www.w3.org/2000/svg">
<path d="M18.1436 3.43779L18.1441 3.43779C18.8493 3.44594 19.5592 3.45002 20.2736 3.45002C22.6867 3.45002 25.1182 3.39296 27.5682 3.27884L27.6318 3.27588L27.682 3.2367C28.0256 2.9684 28.2618 2.68108 28.2996 2.37057C28.3136 2.25622 28.3242 2.16552 28.3313 2.09892C28.3378 2.0378 28.3428 1.98493 28.3428 1.95558C28.3428 1.50863 28.1377 1.15097 27.7523 0.89711L27.7177 0.874314L27.6769 0.867144C27.5922 0.85226 27.3968 0.838681 27.1098 0.824678C26.8163 0.810356 26.4121 0.795058 25.8977 0.778772C24.876 0.737995 23.6742 0.709479 22.2925 0.693186C20.9203 0.668757 19.6314 0.652468 18.4258 0.644322V0.644318H18.4245H17.7432C16.9049 0.644318 16.2859 0.65634 15.8896 0.680846C12.5938 0.623946 10.1712 0.595471 8.62274 0.595471C7.21282 0.595471 5.98308 0.607691 4.93373 0.632161L4.93373 0.63208L4.92807 0.632373C4.61689 0.64845 4.29628 0.656512 3.96623 0.65653L2.81332 0.644329L2.81332 0.644318H2.81121C2.31468 0.644318 1.86728 0.664878 1.4696 0.706461L1.39889 0.713855L1.34871 0.764224C1.1235 0.990297 0.998435 1.25471 0.998435 1.55259C0.998435 1.63272 1.0093 1.71211 1.03044 1.79033C1.03693 1.83339 1.04014 1.87624 1.04014 1.91895C1.04014 2.02669 1.01472 2.15686 0.955835 2.31203L0.921145 2.40343L0.971969 2.48696L1.40297 3.19523L1.4545 3.27991L1.55309 3.29019C2.11293 3.34853 3.73403 3.37675 6.39823 3.37675C6.72876 3.37675 7.10148 3.38481 7.51659 3.40102L7.51658 3.40106L7.52057 3.40113C7.94809 3.4093 8.35719 3.41338 8.74787 3.41338C9.02147 3.41338 9.44432 3.42544 10.0185 3.44984L10.0185 3.45002H10.027H15.616V3.45016L15.6237 3.44987L16.2594 3.42559C16.9431 3.42561 17.5711 3.42968 18.1436 3.43779Z" fill="white" stroke="white" stroke-width="0.4"/>
<path d="M18.1436 17.7895L18.1441 17.7895C18.8493 17.7814 19.5592 17.7773 20.2736 17.7773C22.6867 17.7773 25.1182 17.8343 27.5682 17.9485L27.6318 17.9514L27.682 17.9906C28.0256 18.2589 28.2618 18.5462 28.2996 18.8567C28.3136 18.9711 28.3242 19.0618 28.3313 19.1284C28.3378 19.1895 28.3428 19.2424 28.3428 19.2717C28.3428 19.7187 28.1377 20.0763 27.7523 20.3302L27.7177 20.353L27.6769 20.3602C27.5922 20.375 27.3968 20.3886 27.1098 20.4026C26.8163 20.4169 26.4121 20.4322 25.8977 20.4485C24.876 20.4893 23.6742 20.5178 22.2925 20.5341C20.9203 20.5585 19.6314 20.5748 18.4258 20.583V20.583H18.4245H17.7432C16.9049 20.583 16.2859 20.571 15.8896 20.5464C12.5938 20.6033 10.1712 20.6318 8.62274 20.6318C7.21282 20.6318 5.98308 20.6196 4.93373 20.5951L4.93373 20.5952L4.92807 20.5949C4.61689 20.5788 4.29628 20.5708 3.96623 20.5708L2.81332 20.583L2.81332 20.583H2.81121C2.31468 20.583 1.86728 20.5624 1.4696 20.5208L1.39889 20.5134L1.34871 20.4631C1.1235 20.237 0.998435 19.9726 0.998435 19.6747C0.998435 19.5946 1.0093 19.5152 1.03044 19.437C1.03693 19.3939 1.04014 19.3511 1.04014 19.3083C1.04014 19.2006 1.01472 19.0704 0.955835 18.9153L0.921145 18.8239L0.971969 18.7403L1.40297 18.0321L1.4545 17.9474L1.55309 17.9371C2.11293 17.8788 3.73403 17.8505 6.39823 17.8505C6.72876 17.8505 7.10148 17.8425 7.51659 17.8263L7.51658 17.8262L7.52057 17.8262C7.94809 17.818 8.35719 17.8139 8.74787 17.8139C9.02147 17.8139 9.44432 17.8019 10.0185 17.7775L10.0185 17.7773H10.027H15.616V17.7771L15.6237 17.7774L16.2594 17.8017C16.9431 17.8017 17.5711 17.7976 18.1436 17.7895Z" fill="white" stroke="white" stroke-width="0.4"/>
<path d="M11.142 9.19863L11.1415 9.19862C10.4363 9.19047 9.72649 9.1864 9.01203 9.1864C6.59899 9.1864 4.16746 9.24346 1.71745 9.35758L1.65386 9.36054L1.60368 9.39972C1.26003 9.66802 1.02388 9.95533 0.986004 10.2658C0.972054 10.3802 0.961487 10.4709 0.954378 10.5375C0.947855 10.5986 0.942822 10.6515 0.942822 10.6808C0.942822 11.1278 1.14795 11.4854 1.53331 11.7393L1.56792 11.7621L1.60873 11.7693C1.69346 11.7842 1.88884 11.7977 2.17581 11.8117C2.46931 11.8261 2.87354 11.8414 3.38799 11.8576C4.40963 11.8984 5.61142 11.9269 6.99311 11.9432C8.3653 11.9677 9.65421 11.9839 10.8598 11.9921V11.9921H10.8612H11.5424C12.3807 11.9921 12.9997 11.9801 13.396 11.9556C16.6918 12.0125 19.1144 12.0409 20.6629 12.0409C22.0728 12.0409 23.3026 12.0287 24.3519 12.0043L24.3519 12.0043L24.3576 12.004C24.6688 11.988 24.9894 11.9799 25.3194 11.9799L26.4723 11.9921L26.4723 11.9921H26.4744C26.971 11.9921 27.4184 11.9715 27.816 11.93L27.8868 11.9226L27.9369 11.8722C28.1621 11.6461 28.2872 11.3817 28.2872 11.0838C28.2872 11.0037 28.2763 10.9243 28.2552 10.8461C28.2487 10.803 28.2455 10.7602 28.2455 10.7175C28.2455 10.6097 28.2709 10.4796 28.3298 10.3244L28.3645 10.233L28.3137 10.1495L27.8827 9.44118L27.8311 9.3565L27.7326 9.34623C27.1727 9.28789 25.5516 9.25967 22.8874 9.25967C22.5569 9.25967 22.1842 9.2516 21.7691 9.2354L21.7691 9.23536L21.7651 9.23528C21.3376 9.22712 20.9285 9.22303 20.5378 9.22303C20.2642 9.22303 19.8413 9.21098 19.2672 9.18658L19.2672 9.1864H19.2587H13.6696V9.18625L13.662 9.18654L13.0262 9.21082C12.3426 9.21081 11.7145 9.20674 11.142 9.19863Z" fill="white" stroke="white" stroke-width="0.4"/>
</svg>
