<svg width="22" height="22" viewBox="0 0 22 22" fill="none" xmlns="http://www.w3.org/2000/svg">
<path d="M12.3886 14.8898L12.3889 14.8901C12.8818 15.3946 13.3809 15.8994 13.8861 16.4046C15.5923 18.1108 17.352 19.7898 19.1652 21.4416L19.2122 21.4844L19.2754 21.4922C19.7081 21.5455 20.0783 21.5093 20.3246 21.3165C20.4153 21.2455 20.4869 21.1889 20.539 21.1468C20.5869 21.1082 20.6278 21.0744 20.6486 21.0536C20.9646 20.7376 21.0725 20.3396 20.9795 19.8876L20.9711 19.847L20.9473 19.8131C20.898 19.7427 20.7694 19.5949 20.5764 19.3821C20.379 19.1644 20.104 18.8678 19.7517 18.4925C19.0581 17.7413 18.2285 16.8713 17.263 15.8828C16.31 14.8952 15.4101 13.9723 14.5634 13.1141L14.5634 13.1141L14.5625 13.1131L14.0807 12.6314C13.488 12.0386 13.0418 11.6094 12.7442 11.3465C10.454 8.97578 8.76106 7.24262 7.66612 6.14768C6.66915 5.15071 5.79096 4.2898 5.03165 3.5651L5.03171 3.56504L5.0275 3.56125C4.79609 3.35258 4.56369 3.13158 4.33029 2.8982L3.52369 2.07435L3.5237 2.07434L3.5222 2.07284C3.1711 1.72174 2.84021 1.41993 2.5296 1.16813L2.47437 1.12336L2.40328 1.12349C2.08417 1.1241 1.80877 1.22263 1.59813 1.43327C1.54147 1.48993 1.49302 1.55374 1.45266 1.624C1.4268 1.65904 1.39878 1.69161 1.36858 1.72181C1.29239 1.798 1.18237 1.87206 1.03101 1.94015L0.941844 1.98025L0.918724 2.07525L0.722659 2.88084L0.699217 2.97715L0.761668 3.05414C1.11628 3.49125 2.24262 4.6575 4.12649 6.54137C4.36021 6.77509 4.61806 7.04435 4.90013 7.34933L4.9001 7.34936L4.90286 7.35223C5.19939 7.6603 5.48578 7.95247 5.76203 8.22872C5.9555 8.42219 6.24598 8.72971 6.63471 9.15295L6.63457 9.15307L6.64058 9.15908L10.5927 13.1112L10.5926 13.1113L10.5982 13.1165L11.0649 13.5488C11.5483 14.0322 11.9895 14.4792 12.3886 14.8898ZM14.0275 16.2631C13.5228 15.7585 13.0243 15.2542 12.532 14.7504L19.6053 18.6288C20.3098 19.3793 20.7026 19.8124 20.7836 19.9279C20.8641 20.3193 20.772 20.6474 20.5072 20.9122C20.4841 20.9352 20.3822 21.0175 20.2013 21.159C20.0205 21.3006 19.72 21.3454 19.2998 21.2937C17.489 19.644 15.7315 17.9672 14.0275 16.2631Z" fill="white" stroke="white" stroke-width="0.4"/>
<path d="M9.43883 14.8898L9.43847 14.8901C8.94558 15.3946 8.44653 15.8994 7.94133 16.4046C6.23505 18.1108 4.47536 19.7898 2.66224 21.4416L2.61518 21.4844L2.55199 21.4922C2.11928 21.5455 1.74914 21.5093 1.50279 21.3165C1.41207 21.2455 1.34046 21.1889 1.28835 21.1468C1.24051 21.1082 1.19957 21.0744 1.17881 21.0536C0.86277 20.7376 0.754917 20.3396 0.847903 19.8876L0.856253 19.847L0.880044 19.8131C0.92943 19.7427 1.05798 19.5949 1.251 19.3821C1.4484 19.1644 1.72342 18.8678 2.07568 18.4925C2.76925 17.7413 3.59888 16.8713 4.56436 15.8828C5.51738 14.8952 6.41725 13.9723 7.26398 13.1141L7.26398 13.1141L7.26493 13.1131L7.74665 12.6314C8.33943 12.0386 8.78562 11.6094 9.08319 11.3465C11.3734 8.97578 13.0663 7.24262 14.1613 6.14768C15.1582 5.15071 16.0364 4.2898 16.7957 3.5651L16.7957 3.56504L16.7999 3.56125C17.0313 3.35258 17.2637 3.13158 17.4971 2.8982L18.3037 2.07435L18.3037 2.07434L18.3052 2.07284C18.6563 1.72174 18.9872 1.41993 19.2978 1.16813L19.353 1.12336L19.4241 1.12349C19.7432 1.1241 20.0186 1.22263 20.2293 1.43327C20.2859 1.48993 20.3344 1.55374 20.3747 1.624C20.4006 1.65904 20.4286 1.69161 20.4588 1.72181C20.535 1.798 20.645 1.87206 20.7964 1.94015L20.8855 1.98025L20.9087 2.07525L21.1047 2.88084L21.1282 2.97715L21.0657 3.05414C20.7111 3.49125 19.5848 4.6575 17.7009 6.54137C17.4672 6.77509 17.2093 7.04435 16.9273 7.34933L16.9273 7.34936L16.9245 7.35223C16.628 7.6603 16.3416 7.95247 16.0654 8.22872C15.8719 8.42219 15.5814 8.72971 15.1927 9.15295L15.1928 9.15307L15.1868 9.15908L11.2347 13.1112L11.2348 13.1113L11.2292 13.1165L10.7625 13.5488C10.2791 14.0322 9.83792 14.4792 9.43883 14.8898ZM7.79991 16.2631C8.30457 15.7585 8.80308 15.2542 9.29542 14.7504L2.22207 18.6288C1.5176 19.3793 1.12484 19.8124 1.0438 19.9279C0.963284 20.3193 1.05543 20.6474 1.32023 20.9122C1.34326 20.9352 1.4452 21.0175 1.62605 21.159C1.80689 21.3006 2.1074 21.3454 2.52755 21.2937C4.33841 19.644 6.09586 17.9672 7.79991 16.2631Z" fill="white" stroke="white" stroke-width="0.4"/>
</svg>
