<svg width="22" height="22" viewBox="0 0 22 22" fill="none" xmlns="http://www.w3.org/2000/svg">
<path d="M7.76591 5.85544C8.29697 6.3865 8.82141 6.91727 9.33923 7.44777C9.7605 7.88171 10.2263 8.35386 10.7367 8.86423L11.2316 9.32111L15.3903 13.4799C15.7989 13.9265 16.1067 14.2533 16.3136 14.4602C16.6033 14.7499 16.9035 15.0565 17.2145 15.3801C17.5122 15.7031 17.7851 15.9888 18.0334 16.237C20.0197 18.2233 21.1941 19.4421 21.5567 19.8934L21.3264 20.765C21.1452 20.8498 21.0007 20.9459 20.893 21.0536C20.8487 21.0979 20.8078 21.1457 20.7704 21.197C20.7335 21.2614 20.6897 21.319 20.6391 21.3696C20.4554 21.5533 20.2152 21.6487 19.9184 21.6559C19.597 21.3979 19.2536 21.0861 18.8881 20.7206L18.0389 19.8524C17.7906 19.6041 17.5429 19.3691 17.2958 19.1472C16.4974 18.3869 15.5741 17.4826 14.5258 16.4342C13.374 15.2825 11.5927 13.4568 9.18173 10.9571C8.87307 10.6865 8.40493 10.2373 7.77732 9.60972L7.27041 9.1028C6.38016 8.19987 5.43417 7.22854 4.43244 6.18881C3.41748 5.14851 2.54651 4.2332 1.81953 3.44288C1.07932 2.65199 0.666985 2.19532 0.582533 2.07287C0.50524 1.65359 0.612254 1.29829 0.903575 1.00696C0.928907 0.981632 1.04058 0.890647 1.2386 0.734011C1.43661 0.577374 1.76109 0.521869 2.21203 0.567497C4.12145 2.29961 5.97275 4.06225 7.76591 5.85544Z" fill="white"/>
<path d="M14.2359 5.85544C13.7049 6.3865 13.1804 6.91727 12.6626 7.44777C12.2413 7.88171 11.7755 8.35386 11.2652 8.86423L10.7703 9.32111L6.61151 13.4799C6.2029 13.9265 5.89515 14.2533 5.68825 14.4602C5.39858 14.7499 5.09829 15.0565 4.78737 15.3801C4.48968 15.7031 4.21669 15.9888 3.96841 16.237C1.98213 18.2233 0.807699 19.4421 0.445119 19.8934L0.675394 20.765C0.856666 20.8498 1.00113 20.9459 1.10879 21.0536C1.15313 21.0979 1.19401 21.1457 1.23144 21.197C1.26831 21.2614 1.31208 21.319 1.36275 21.3696C1.5464 21.5533 1.78665 21.6487 2.08347 21.6559C2.4048 21.3979 2.74823 21.0861 3.11376 20.7206L3.96292 19.8524C4.2112 19.6041 4.45892 19.3691 4.70608 19.1472C5.50442 18.3869 6.42774 17.4826 7.47606 16.4342C8.62782 15.2825 10.4092 13.4568 12.8201 10.9571C13.1288 10.6865 13.5969 10.2373 14.2245 9.60972L14.7314 9.1028C15.6217 8.19987 16.5677 7.22854 17.5694 6.18881C18.5843 5.14851 19.4553 4.2332 20.1823 3.44288C20.9225 2.65199 21.3348 2.19532 21.4193 2.07287C21.4966 1.65359 21.3896 1.29829 21.0983 1.00696C21.0729 0.981632 20.9612 0.890647 20.7632 0.734011C20.5652 0.577374 20.2407 0.521869 19.7898 0.567497C17.8804 2.29961 16.0291 4.06225 14.2359 5.85544Z" fill="white"/>
</svg>
