<svg width="27" height="21" viewBox="0 0 27 21" fill="none" xmlns="http://www.w3.org/2000/svg">
<path fill-rule="evenodd" clip-rule="evenodd" d="M8.82027 7.48824C9.46636 5.39339 7.58069 0.0045227 4.91084 1.91336C2.241 3.82219 0.101057 7.36708 1.34689 8.61541C2.59272 9.86373 6.30292 10.2048 7.02918 9.70462C7.61019 9.3045 8.46533 8.06032 8.82027 7.48824ZM3.74526 7.92692C4.39445 8.51057 6.91351 8.87077 7.45547 8.26796C7.99744 7.66514 7.25342 5.77754 6.60423 5.19389C5.95504 4.61023 4.72751 5.00115 4.18554 5.60397C3.64358 6.20679 3.09607 7.34327 3.74526 7.92692Z" fill="#284795"/>
<path fill-rule="evenodd" clip-rule="evenodd" d="M20.7038 8.02698C22.8434 8.50444 28.0652 6.19625 25.9501 3.68664C23.8351 1.17703 20.1312 -0.674261 18.9859 0.666885C17.8406 2.00803 17.7957 5.7336 18.352 6.41779C18.797 6.96515 20.1053 7.71865 20.7038 8.02698ZM19.8629 3.00308C19.3327 3.69662 19.174 6.23634 19.818 6.72865C20.462 7.22097 22.2844 6.32922 22.8146 5.63567C23.3448 4.94213 22.8575 3.74957 22.2135 3.25725C21.5695 2.76494 20.3931 2.30953 19.8629 3.00308Z" fill="#284795"/>
<path fill-rule="evenodd" clip-rule="evenodd" d="M14.5741 20.9665C19.9367 20.9665 24.8485 17.4786 24.8485 13.1761C24.8485 8.87353 21.8 5.38562 14.5741 5.38562C6.78365 5.38562 4.86426 8.87353 4.86426 13.1761C4.86426 17.4786 9.21151 20.9665 14.5741 20.9665ZM14.9071 10.8051C11.9774 10.8051 10.3909 12.1599 9.93929 13.289L9.90924 13.3639C9.44111 14.5293 8.42908 17.0489 11.6329 18.5955C14.9071 20.1762 18.0743 19.273 19.0904 18.2568C20.1066 17.2407 21.913 10.8051 14.9071 10.8051ZM11.4999 9.00002C11.4999 9.5523 11.0522 10 10.4999 10C9.94762 10 9.4999 9.5523 9.4999 9.00002C9.4999 8.44773 9.94762 8.00002 10.4999 8.00002C11.0522 8.00002 11.4999 8.44773 11.4999 9.00002ZM17.4999 9.00002C18.0522 9.00002 18.4999 8.5523 18.4999 8.00002C18.4999 7.44773 18.0522 7.00002 17.4999 7.00002C16.9476 7.00002 16.4999 7.44773 16.4999 8.00002C16.4999 8.5523 16.9476 9.00002 17.4999 9.00002Z" fill="#284795"/>
<path fill-rule="evenodd" clip-rule="evenodd" d="M18.4448 16.1239C18.5317 16.2662 18.5141 16.4738 18.4054 16.5877C17.4462 17.5923 16.507 17.9778 15.5501 17.9991C14.605 18.02 13.6548 17.6846 12.6769 17.2845C12.5441 17.2302 12.47 17.0451 12.5115 16.8712C12.5531 16.6972 12.6944 16.6003 12.8273 16.6546C13.8035 17.054 14.6852 17.3582 15.5416 17.3392C16.3861 17.3205 17.2177 16.9864 18.0905 16.0723C18.1992 15.9585 18.3578 15.9815 18.4448 16.1239Z" fill="#284795"/>
<path d="M16.1062 12.5269C16.1062 12.9011 15.5384 13.4302 14.9772 13.4302C14.416 13.4302 13.8481 12.9011 13.8481 12.5269C13.8481 12.1528 14.416 12.0753 14.9772 12.0753C15.5384 12.0753 16.1062 12.1528 16.1062 12.5269Z" fill="#284795"/>
</svg>
