<svg width="73" height="95" viewBox="0 0 73 95" fill="none" xmlns="http://www.w3.org/2000/svg"><path d="M37.14 38.458C29.674 38.458 23 33.004 23 25.45l2.828-14.139C27.978 3.96 31.483 0 37.139 0c7.465 0 11.877 3.758 11.877 11.311l1.697 13.413c0 7.553-6.11 13.734-13.574 13.734z" fill="#7BC35A"/><path d="M29.66 43.404l5.914 4.753a3 3 0 003.482.198l6.415-4.053M33.18 56.231l4.273 2.626a3 3 0 003.479-.241l3.87-3.19" stroke="#7BC35A" stroke-width="3" stroke-linecap="round" stroke-linejoin="round"/><path d="M37.14 11.311v4.525" stroke="#fff" stroke-width="2" stroke-linecap="round" stroke-linejoin="round"/><path d="M4.034 80c-.397 0-.648-.007-.752-.02a4.067 4.067 0 01-.19-.459c-.059-.156-.127-.33-.205-.522a17.31 17.31 0 00-.357-.664 42.48 42.48 0 01-.58-1.084l-.02.4c.013.075.02.202.02.381 0 .31-.007.6-.02.874-.026.661-.054 1.017-.083 1.07a6.213 6.213 0 01-1.079-.005 11.93 11.93 0 01-.074-1.319c0-.09.012-.494.035-1.21.019-.433.029-1.133.029-2.1 0-.43.01-.762.03-.996.009-.114.014-.316.014-.606 0-.319.011-.538.034-.659l.371-.078c.081.013.16.02.234.02a.81.81 0 00.088-.005.878.878 0 01.098-.005c.1 0 .213.018.337.053.02.052.03.12.034.206l-.005.395c0 .081.005.148.015.2.003.072.005.147.005.225 0 .16-.007.335-.02.527-.01.156-.016.3-.02.43.017.03.027.071.03.127.01.088.015.309.015.664.153-.267.335-.641.546-1.123.186-.423.357-.783.513-1.08.114-.22.18-.37.2-.448l.025-.079c.02-.032.09-.052.21-.058.078 0 .15.01.215.03.029-.017.118-.029.268-.035.137 0 .31.01.518.03a.606.606 0 01-.083.278 2.472 2.472 0 01-.196.273 1.761 1.761 0 00-.16.259.943.943 0 01-.206.302 11.6 11.6 0 01-.41.972c-.335.707-.513 1.164-.532 1.372.032.059.16.326.38.801.238.508.364.794.377.86.035.035.18.323.434.864.257.537.392.846.405.927a7.16 7.16 0 01-.488.015zm2.461-4.272c.873-.06 1.317-.349 1.333-.87a.779.779 0 00-.43-.698 2.173 2.173 0 00-.439-.127 2.383 2.383 0 00-.43-.058l.005.669c0 .354-.013.716-.039 1.084zM5.93 80h-.064c-.163 0-.309-.023-.44-.068a10.703 10.703 0 01-.097-1.5c0-.4.018-.825.054-1.274.032-.475.049-.895.049-1.26l-.025-.79v-.147c0-.42.025-.65.073-.689a1.224 1.224 0 01-.01-.175c0-.052.002-.135.006-.25.006-.113.016-.252.029-.414.016-.163.032-.277.049-.342.104-.062.286-.093.547-.093.367 0 .766.042 1.196.127.351.068.602.153.752.254.215.153.342.247.38.283.079.075.18.252.303.532.062.166.093.37.093.61l-.005.215a.779.779 0 01-.132.4 1.736 1.736 0 01-.273.63c-.15.232-.308.395-.474.49a3.928 3.928 0 01-1.42.39 6.72 6.72 0 00-.083.644 16.217 16.217 0 00-.093 1.49l.005.156c0 .09-.002.167-.005.23v.073c0 .126.02.25.063.37A1.238 1.238 0 015.93 80zm4.682.195h-.239l-.156-.078.078-.395v-.552c0-.078.29-.184.87-.317.207-.192.312-.402.312-.63 0-.433-.632-1.96-1.895-4.58-.104-.336-.156-.547-.156-.635l.156-.078h.791c.173.029.54.818 1.104 2.368.087 0 .3.37.634 1.108h.079c.136 0 .532-.975 1.186-2.925 0-.335.288-.545.864-.63.371.072.557.152.557.24-1.42 4.069-2.367 6.28-2.842 6.63-.371.316-.819.474-1.343.474zm7.178-.112c-.11 0-.24-.011-.386-.034-.146-.02-.237-.054-.273-.103a2.324 2.324 0 01-.024-.434c0-.388.008-.781.024-1.182.03-.924.065-1.447.107-1.567a1.692 1.692 0 01-.024-.328l.005-.42.005-.243a2.47 2.47 0 00-.01-.2 5.804 5.804 0 01-.015-.416c0-.146.013-.255.04-.327a1.368 1.368 0 01-.04-.356l.005-.088a.83.83 0 00-.005-.093 6.285 6.285 0 00-.762-.04 33.55 33.55 0 00-1.22.02.89.89 0 01-.18-.01 4.076 4.076 0 01-.055-.56c0-.216.023-.393.069-.533.329-.055.776-.098 1.343-.127l4.067.01c.026.11.039.304.039.58 0 .128-.002.21-.005.25a.396.396 0 01-.063.176.895.895 0 00-.069.112 6.29 6.29 0 00-.693-.025c-.703 0-1.112.012-1.226.035l.025 1.05.03.41-.025 2.192a9.751 9.751 0 01-.054.742 3.958 3.958 0 00-.049.63l.01.352c0 .117-.005.232-.015.346-.068.12-.26.181-.576.181zM21.227 80a.624.624 0 01-.152-.02c-.049-.013-.078-.065-.088-.156.036-.153.057-.309.064-.468l.02-.215c0-.16-.002-.315-.006-.464a38.758 38.758 0 01.04-2.837c.039-.723.058-1.351.058-1.885 0-.348-.01-.64-.03-.874l.079-.03a.144.144 0 00.049-.004.037.037 0 01.014-.005c0-.013.036-.02.108-.02.127 0 .208-.003.244-.01a.684.684 0 01.112-.01.63.63 0 01.186.035l.088.02h.112a.84.84 0 01.151.014l-.01.171c-.045.31-.068.65-.068 1.02l.01.518c0 .248-.008.482-.024.703l-.103 1.187a.025.025 0 01-.005.015l-.005.014a.675.675 0 01.025.19c0 .118-.026.468-.078 1.05a14.5 14.5 0 00.156-.37l.586-1.436c.263-.638.42-.978.468-1.02.027-.108.07-.227.132-.357.046-.104.101-.246.166-.425.075-.218.139-.355.19-.41v-.02c0-.055.024-.148.07-.278.048-.143.085-.215.111-.215h.005a.552.552 0 01.103-.23.232.232 0 01.195-.097h.025c.175-.01.4-.015.673-.015.124 0 .202.004.235.01l-.005.46c.016.038.024.25.024.634a20.429 20.429 0 01-.025 1.006 2.808 2.808 0 01-.019.317l.01.4c.033.407.049.85.049 1.329 0 .478-.007.924-.02 1.338v.449c0 .456-.024.76-.073.913a.726.726 0 00-.117.02 2.166 2.166 0 01-.205.019l-.278.01c-.079 0-.15-.007-.215-.02-.098-.023-.147-.091-.147-.205v-.024c.013-.199.026-.596.04-1.192l.043-1.928c.007-.326.023-.734.05-1.226a10.34 10.34 0 00-.304.635c-.332.735-.532 1.237-.6 1.504-.01.035-.064.184-.161.444-.127.329-.212.52-.254.576l-.152.332c-.195.44-.297.684-.307.733a.402.402 0 00-.078.146.525.525 0 01-.122.18c-.026.05-.126.074-.298.074a4.27 4.27 0 01-.284-.01l-.175-.005a1.13 1.13 0 00-.117.005c-.056.007-.111.01-.166.01zm7.392.083c-.11 0-.24-.011-.386-.034-.146-.02-.237-.054-.273-.103a2.32 2.32 0 01-.024-.434c0-.388.008-.781.024-1.182.03-.924.065-1.447.107-1.567a1.692 1.692 0 01-.024-.328l.005-.42.005-.243c0-.056-.004-.123-.01-.2a5.804 5.804 0 01-.015-.416c0-.146.013-.255.04-.327a1.364 1.364 0 01-.04-.356l.005-.088a.83.83 0 00-.005-.093 6.285 6.285 0 00-.761-.04 33.564 33.564 0 00-1.221.02.892.892 0 01-.18-.01 4.061 4.061 0 01-.055-.56c0-.216.023-.393.069-.533.329-.055.776-.098 1.343-.127l4.067.01c.026.11.04.304.04.58 0 .128-.002.21-.006.25a.396.396 0 01-.063.176.908.908 0 00-.069.112 6.292 6.292 0 00-.693-.025c-.703 0-1.112.012-1.226.035l.025 1.05.03.41-.025 2.192a9.696 9.696 0 01-.054.742 3.958 3.958 0 00-.049.63l.01.352c0 .117-.005.232-.015.346-.068.12-.26.181-.576.181zM34.26 80h-.166c-.134 0-.39-.007-.772-.02v-.01l-.468.006-.337.005c-.241 0-.458-.01-.65-.03a67.998 67.998 0 01-.093-3.345c0-.901.028-1.414.083-1.538a2.826 2.826 0 01-.039-.561c0-.456.018-.916.054-1.382.085-.078.415-.117.991-.117.241 0 .498.005.772.014a6.715 6.715 0 00.722 0c.127-.01.251-.014.371-.014.34 0 .647.037.923.112a1.946 1.946 0 01.035.723c-.023.117-.075.176-.157.176l-1.005-.005-1.002-.01c-.315 0-.527.003-.634.01l-.005.37v.308l-.005.308c-.013.267-.02.524-.02.772 0 .104.004.188.01.253.049.03.35.044.904.044.338 0 .667.007.986.02.319.013.54.049.664.107.052.212.078.384.078.518 0 .146-.032.246-.098.298-.107.084-.385.127-.835.127l-.239-.005-.527.005-.913.039-.04 1.489c.303.055.9.083 1.793.083.638 0 .98.018 1.025.054.052.12.077.262.073.424a2.1 2.1 0 01-.044.45c-.026.133-.083.215-.17.244a.804.804 0 01-.245.034h-.22l-.8.044zm8.945 0c-.397 0-.648-.007-.752-.02a4.073 4.073 0 01-.19-.459 20.28 20.28 0 00-.205-.522 17.225 17.225 0 00-.357-.664 42.62 42.62 0 01-.58-1.084l-.02.4c.013.075.02.202.02.381 0 .31-.007.6-.02.874-.026.661-.054 1.017-.083 1.07a6.249 6.249 0 01-1.08-.005 12.16 12.16 0 01-.073-1.319c0-.09.012-.494.034-1.21.02-.433.03-1.133.03-2.1 0-.43.01-.762.029-.996.01-.114.015-.316.015-.606 0-.319.011-.538.034-.659l.371-.078c.081.013.16.02.234.02a.81.81 0 00.088-.005.88.88 0 01.098-.005c.1 0 .213.018.337.053.02.052.03.12.034.206l-.005.395c0 .081.005.148.015.2.003.072.005.147.005.225 0 .16-.007.335-.02.527-.01.156-.016.3-.02.43.017.03.027.071.03.127.01.088.014.309.014.664.154-.267.336-.641.547-1.123.186-.423.357-.783.513-1.08.114-.22.18-.37.2-.448l.025-.079c.02-.032.09-.052.21-.058.078 0 .15.01.215.03.029-.017.118-.029.268-.035.137 0 .31.01.518.03a.606.606 0 01-.083.278 2.465 2.465 0 01-.196.273 1.76 1.76 0 00-.16.259.944.944 0 01-.206.302c-.084.241-.221.565-.41.972-.335.707-.513 1.164-.532 1.372.032.059.16.326.38.801.238.508.364.794.377.86.035.035.18.323.434.864.257.537.392.846.405.927-.14.01-.302.015-.488.015zm3.355-1.108c.794 0 1.25-.367 1.367-1.099.013-.108.03-.228.053-.361.062-.381.093-.651.093-.81 0-.955-.312-1.826-.937-2.613a.587.587 0 01-.152-.054.429.429 0 00-.21-.054.786.786 0 00-.234.05c-.286.1-.472.183-.557.248-.22.222-.397.562-.527 1.02-.13.46-.195.844-.195 1.153l.005.547c0 .293-.01.571-.03.835.03.023.092.138.186.347.107.257.199.43.273.522.13.137.362.223.694.259.058.006.115.01.17.01zm-.464 1.255c-.658 0-1.156-.251-1.494-.753-.111-.172-.227-.447-.347-.825-.12-.377-.21-.75-.269-1.118a2.888 2.888 0 01-.034-.41.78.78 0 01.064-.356 1.27 1.27 0 01-.015-.206c0-.172.03-.428.088-.766.059-.339.153-.695.283-1.07.134-.374.273-.613.42-.717.075-.225.301-.446.679-.664.377-.222.74-.35 1.089-.386l.268-.02a2.62 2.62 0 01.254-.014.78.78 0 01.225.049c.195.071.397.175.605.312.283.189.443.34.479.454.127.095.234.252.322.474.091.218.166.426.224.625.06.195.103.31.132.347.03.166.064.33.103.493.088.338.133.687.137 1.045a2.283 2.283 0 01-.03.17 2.888 2.888 0 00-.029.147c0 .065.005.112.015.142a.42.42 0 01.029.131 1.168 1.168 0 01-.073.376 2.934 2.934 0 00-.059.21 3.239 3.239 0 01-.43 1.065c-.214.358-.483.618-.805.781-.254.186-.598.32-1.03.4-.29.056-.557.084-.801.084zm3.774-.035a.248.248 0 01-.068-.01.46.46 0 00-.064-.004c-.01 0-.02.003-.029.01l.02-.2c.013-.102.02-.346.02-.733.009-.072.027-.12.053-.147.055-.026.164-.042.327-.049l.176-.019c.172-.013.354-.117.547-.313.013-.029.03-.063.053-.102.287-.413.448-1.123.484-2.129.02-.475.057-.884.112-1.226.055-.341.094-.538.117-.59a7.046 7.046 0 01-.024-.577c0-.25.014-.491.044-.722l.02-.254h.243a.55.55 0 00.098-.01.658.658 0 01.117-.01l.059-.005c.179 0 .407.002.683.005.277 0 .515.002.713.005h.42l.21-.005c.085 0 .158.007.22.02.065.01.142.014.23.014.065 1.16.097 2.325.097 3.497v.586c.003.247.011.574.025.981.016.511.024.924.024 1.24 0 .25.008.458.024.62h-1.118l-.005-.693c0-.1-.005-.277-.014-.527a51.826 51.826 0 01-.035-1.05c0-.088.004-.173.01-.254.01-.114.015-.231.015-.352l-.005-.17c0-.137.008-.276.024-.416.017-.14.025-.27.025-.39l-.122-1.992-.005-.005-.069-.005a4 4 0 00-.36-.02h-.06c-.107.01-.245.018-.414.025a5.02 5.02 0 01-.054.464l-.113 1.157c-.035.423-.089.86-.16 1.313a5.51 5.51 0 00-.093.479 5.74 5.74 0 01-.254 1.133c-.205.488-.438.83-.698 1.025-.137.11-.28.194-.43.25-.147.051-.25.077-.313.077-.081.04-.291.064-.63.073a.4.4 0 00-.073.005zM58.214 80h-.166c-.134 0-.39-.007-.772-.02v-.01l-.468.006-.337.005c-.241 0-.458-.01-.65-.03a68.218 68.218 0 01-.093-3.345c0-.901.028-1.414.084-1.538a2.826 2.826 0 01-.04-.561c0-.456.018-.916.054-1.382.085-.078.415-.117.991-.117.241 0 .498.005.772.014a6.715 6.715 0 00.723 0c.127-.01.25-.014.37-.014.34 0 .647.037.923.112a1.946 1.946 0 01.035.723c-.023.117-.075.176-.157.176l-1.005-.005-1.001-.01c-.316 0-.528.003-.635.01l-.005.37v.308l-.005.308c-.013.267-.02.524-.02.772 0 .104.004.188.01.253.05.03.35.044.904.044.338 0 .667.007.986.02.319.013.54.049.664.107.052.212.078.384.078.518 0 .146-.032.246-.098.298-.107.084-.385.127-.834.127l-.24-.005-.527.005-.913.039-.04 1.489c.303.055.9.083 1.793.083.638 0 .98.018 1.025.054.052.12.077.262.073.424a2.1 2.1 0 01-.044.45c-.026.133-.083.215-.17.244a.804.804 0 01-.245.034h-.22l-.8.044zm5.928 0c-.58 0-1.16-.13-1.744-.39a2.895 2.895 0 01-.62-.386c-.491-.381-.78-.822-.869-1.324a.955.955 0 00-.058-.2c-.105-.208-.168-.589-.19-1.142a4.25 4.25 0 01-.006-.206c0-.693.163-1.3.489-1.82.325-.525.883-.941 1.674-1.25.316-.131.6-.196.85-.196l.166.01c.153 0 .291-.022.415-.064.085-.016.168-.024.249-.024.081 0 .199.005.352.014.153.007.315.02.488.04.172.016.296.037.371.063.032.117.054.259.063.425 0 .062-.001.176-.004.342a.666.666 0 01-.142.415.453.453 0 01-.073.004c-.072 0-.178-.013-.318-.039a4.724 4.724 0 00-.913-.097c-.215 0-.436.03-.664.088l-.02.01a3.464 3.464 0 00-.634.214 1.083 1.083 0 00-.566.596c-.062.156-.113.249-.152.278v.093c0 .13-.01.288-.03.474a5.338 5.338 0 00-.029.4c.017.332.079.636.186.913.036.114.067.223.093.327.091.075.17.148.234.22.069.072.139.138.21.2a.96.96 0 00.283.152c.19.068.523.115 1.001.141.075.003.142.008.2.015.219.02.401.034.547.044.19.01.328.024.416.044.087.016.144.049.17.097a.562.562 0 01.05.23c.006.15.019.308.038.474.016.143.026.281.03.415v.063a.3.3 0 01-.02.127.422.422 0 01-.24.112c-.1.013-.203.02-.307.02-.1 0-.192.005-.273.014a3.95 3.95 0 01-.703.064zm4.868-1.108c.794 0 1.25-.367 1.367-1.099.013-.108.03-.228.054-.361a5.86 5.86 0 00.092-.81c0-.955-.312-1.826-.937-2.613a.586.586 0 01-.151-.054.429.429 0 00-.21-.054.787.787 0 00-.235.05c-.286.1-.472.183-.556.248-.222.222-.397.562-.528 1.02-.13.46-.195.844-.195 1.153l.005.547c0 .293-.01.571-.03.835.03.023.092.138.186.347.108.257.199.43.273.522.13.137.362.223.694.259.058.006.115.01.17.01zm-.464 1.255c-.658 0-1.156-.251-1.494-.753-.11-.172-.227-.447-.347-.825-.12-.377-.21-.75-.269-1.118a2.888 2.888 0 01-.034-.41c0-.156.022-.275.064-.356a1.27 1.27 0 01-.015-.206c0-.172.03-.428.088-.766.059-.339.153-.695.283-1.07.134-.374.274-.613.42-.717.075-.225.301-.446.679-.664.377-.222.74-.35 1.089-.386l.268-.02a2.62 2.62 0 01.254-.014c.069.003.144.02.225.049.195.071.397.175.605.312.284.189.443.34.479.454.127.095.234.252.322.474.091.218.166.426.225.625.058.195.102.31.131.347.03.166.064.33.103.493a4.3 4.3 0 01.137 1.045 1.861 1.861 0 01-.03.17 2.888 2.888 0 00-.029.147c0 .065.005.112.015.142.013.026.023.07.03.131a1.166 1.166 0 01-.074.376 2.934 2.934 0 00-.059.21 3.24 3.24 0 01-.43 1.065c-.214.358-.483.618-.805.781-.254.186-.597.32-1.03.4-.29.056-.557.084-.801.084zM27.262 92.142c-.075 0-.152-.005-.23-.015a1.717 1.717 0 00-.17-.01 2.122 2.122 0 01-.367-.03c-.072-.015-.117-.051-.137-.106a1.263 1.263 0 01-.029-.279v-.03c0-.175-.028-.442-.083-.8a20.53 20.53 0 01-.161-1.265 9.78 9.78 0 00-.137-1.04c-.123.222-.338.98-.644 2.276-.183.765-.293 1.186-.332 1.264l-.19.035a3.141 3.141 0 01-.23-.567l-.093-.264a2.768 2.768 0 01-.142-.42 3.053 3.053 0 00-.127-.424c-.078-.186-.179-.55-.302-1.094a11.293 11.293 0 01-.117-.522 1.132 1.132 0 00-.04-.108c-.006-.013-.014-.02-.024-.02a.033.033 0 01-.024-.01l-.328 1.046a14.7 14.7 0 00-.239.786l-.068.254a9.279 9.279 0 00-.2.81c-.036.212-.08.344-.132.396-.043.042-.122.063-.24.063a1.99 1.99 0 01-.43-.039.656.656 0 01-.224-.112v-.073c0-.137.021-.373.064-.708.042-.339.093-.687.151-1.045.062-.361.117-.586.166-.674a.255.255 0 01-.01-.078c0-.055.01-.138.03-.25.039-.247.096-.473.17-.678.03-.172.082-.39.157-.654.094-.365.141-.586.141-.664.023-.036.067-.176.132-.42.098-.342.218-.715.362-1.118.146-.404.297-.658.454-.762.136.172.22.373.249.6.022.118.055.237.097.357.287.833.552 1.847.796 3.042l.04.176c.074-.085.138-.238.19-.46.065-.263.405-1.04 1.02-2.328.218-.46.373-.767.464-.923.095-.16.182-.24.264-.24a.25.25 0 01.102.025c.01.01.026.163.05.459.07.911.149 1.452.233 1.621a1.588 1.588 0 00-.019.259c0 .202.03.539.088 1.01.03.209.049.381.058.518l.118 1.88c.049.114.073.427.073.938 0 .195-.01.315-.03.36-.038.037-.095.055-.17.055zm5.268-.093l-.307-.078a4.832 4.832 0 01-.03-.645v-.449c0-.062-.003-.13-.01-.205l-.014-.337c-.003-.042-.005-.34-.005-.894.007-.185.01-.376.01-.57 0-.59-.03-1.22-.088-1.89l-.005-.357c0-.478.026-.962.078-1.45a.762.762 0 01.342-.088l.186-.005c.201 0 .353.033.454.098.055.12.083.815.083 2.085 0 .648-.005 1.302-.015 1.963l-.005.468-.01.157a.379.379 0 01-.024.126c0 .128.003.27.01.43a7.273 7.273 0 01.01.737 3.815 3.815 0 00-.005.21v.132c0 .27-.01.437-.03.498a.838.838 0 01-.361.05.474.474 0 00-.068-.006 1.06 1.06 0 00-.196.02zm-3.413-.069c-.25 0-.503-.017-.757-.053-.035-.329-.053-1.048-.053-2.158 0-1.124.02-1.817.058-2.08a2.752 2.752 0 01-.044-.499c0-.211.013-.421.04-.63a3.691 3.691 0 000-.64 5.26 5.26 0 01-.01-.312c0-.188.018-.364.053-.527l.694.015.112-.005c.107 0 .2.018.278.053.082.033.122.142.122.328 0 .166-.006.337-.02.512l-.014.406a10.82 10.82 0 01-.063 1.069c-.02.199-.036.397-.05.596.212.016.465.061.758.136.293.075.527.166.703.274.123.042.223.093.298.151.075.055.15.142.224.259.091.127.163.267.215.42.016.062.034.177.054.347.023.198.034.374.034.527 0 .137-.016.216-.049.24 0 .097-.037.229-.112.395a2.188 2.188 0 01-.274.454c-.104.133-.201.202-.293.205-.09.137-.335.26-.732.371a4.343 4.343 0 01-1.172.147zm.513-.918c.189 0 .376-.024.561-.073.134-.042.233-.088.298-.136a1.78 1.78 0 00.264-.254l.024-.186a1.69 1.69 0 00.03-.278 1.28 1.28 0 00-.117-.552c-.154-.313-.5-.469-1.04-.469a1.8 1.8 0 00-.264.02c-.01.094-.015.184-.015.268 0 .052.003.111.01.176l-.069 1.157.02.308c.1.013.2.02.298.02zM40.182 92h-5.713l-.157-.078c.053-1.058.079-1.85.079-2.378v-2.778c0-.219.026-.508.078-.87-.052-.055-.078-.266-.078-.634v-.24c0-.107.343-.213 1.03-.317.24.101.374.207.4.317-.107 2.96-.16 4.888-.16 5.787h1.108c0-.316.027-.791.083-1.426a123.995 123.995 0 01-.083-4.121c.175-.108.335-.161.478-.161h.713c.104.016.156.07.156.16v4.122l-.078.478c.052.085.078.217.078.396v.552c.241 0 .4.027.479.083a2.2 2.2 0 01.556-.083c.052-1.83.078-3.361.078-4.595 0-.28-.026-.73-.078-1.353a.569.569 0 01.235-.078c.742 0 1.113.106 1.113.318-.107 3.811-.161 6.06-.161 6.743 0 .104-.052.156-.156.156zm4.668 0c-.398 0-.648-.007-.752-.02a4.052 4.052 0 01-.19-.459 20.28 20.28 0 00-.206-.522 17.225 17.225 0 00-.356-.664 42.62 42.62 0 01-.581-1.084l-.02.4c.013.075.02.202.02.381 0 .31-.007.6-.02.874-.026.661-.054 1.017-.083 1.07a6.221 6.221 0 01-1.079-.005c-.049-.44-.073-.88-.073-1.319 0-.09.011-.494.034-1.21.02-.433.03-1.133.03-2.1 0-.43.009-.762.029-.996a8.3 8.3 0 00.014-.606c0-.319.012-.538.034-.659l.371-.078c.082.013.16.02.235.02a.81.81 0 00.088-.005.88.88 0 01.097-.005c.101 0 .214.018.337.053.02.052.031.12.034.206l-.004.395c0 .081.005.148.014.2a7.243 7.243 0 01-.015.752c-.01.156-.016.3-.019.43a.32.32 0 01.03.127c.01.088.014.309.014.664.153-.267.335-.641.547-1.123.185-.423.356-.783.513-1.08.114-.22.18-.37.2-.448l.024-.079c.02-.032.09-.052.21-.058.078 0 .15.01.215.03.03-.017.119-.029.268-.035.137 0 .31.01.518.03a.606.606 0 01-.083.278 2.465 2.465 0 01-.195.273 1.76 1.76 0 00-.161.259.944.944 0 01-.205.302c-.085.241-.222.565-.41.972-.336.707-.513 1.164-.533 1.372.033.059.16.326.381.801.238.508.363.794.376.86.036.035.18.323.435.864.257.537.392.846.405.927a7.16 7.16 0 01-.488.015zm1.391 0a.625.625 0 01-.151-.02c-.049-.013-.078-.065-.088-.156a2.44 2.44 0 00.063-.468l.02-.215c0-.16-.002-.315-.005-.464a38.878 38.878 0 01.039-2.837c.04-.723.059-1.351.059-1.885 0-.348-.01-.64-.03-.874l.079-.03a.144.144 0 00.048-.004.037.037 0 01.015-.005c0-.013.036-.02.108-.02.126 0 .208-.003.244-.01a.685.685 0 01.112-.01.63.63 0 01.186.035l.087.02h.113c.045 0 .096.004.151.014l-.01.171c-.045.31-.068.65-.068 1.02l.01.518c0 .248-.008.482-.025.703l-.102 1.187a.025.025 0 01-.005.015l-.005.014a.675.675 0 01.024.19c0 .118-.026.468-.078 1.05.033-.071.085-.195.157-.37l.585-1.436c.264-.638.42-.978.47-1.02.025-.108.07-.227.131-.357.046-.104.1-.246.166-.425.075-.218.138-.355.19-.41v-.02c0-.055.023-.148.069-.278.049-.143.086-.215.112-.215h.005a.55.55 0 01.102-.23.232.232 0 01.196-.097h.024c.176-.01.4-.015.674-.015.124 0 .202.004.235.01l-.005.46c.016.038.024.25.024.634a26.05 26.05 0 01-.024 1.006 2.767 2.767 0 01-.02.317l.01.4c.032.407.049.85.049 1.329 0 .478-.007.924-.02 1.338v.449c0 .456-.024.76-.073.913a.722.722 0 00-.117.02 2.17 2.17 0 01-.205.019l-.279.01a1.1 1.1 0 01-.215-.02c-.097-.023-.146-.091-.146-.205v-.024c.013-.199.026-.596.039-1.192l.044-1.928c.007-.326.023-.734.049-1.226a10.47 10.47 0 00-.303.635c-.332.735-.532 1.237-.6 1.504-.01.035-.064.184-.162.444-.127.329-.211.52-.254.576l-.15.332c-.196.44-.299.684-.309.733a.404.404 0 00-.078.146.523.523 0 01-.122.18c-.026.05-.125.074-.298.074a4.27 4.27 0 01-.283-.01l-.176-.005c-.048 0-.087.002-.117.005a1.31 1.31 0 01-.166.01z" fill="#7BC35A"/></svg>