<svg width="73" height="95" viewBox="0 0 73 95" fill="none" xmlns="http://www.w3.org/2000/svg">
<path d="M37.1391 38.4584C29.6746 38.4584 23 33.0037 23 25.4504L25.8278 11.3113C27.9779 3.95896 31.4835 0 37.1391 0C44.6037 0 49.016 3.75807 49.016 11.3113L50.7127 24.7237C50.7127 32.2769 44.6037 38.4584 37.1391 38.4584Z" fill="#7BC35A"/>
<path d="M29.6602 43.4037L35.5741 48.1571C36.5733 48.9602 37.9723 49.0397 39.056 48.355L45.4705 44.3023" stroke="#7BC35A" stroke-width="3" stroke-linecap="round" stroke-linejoin="round"/>
<path d="M33.1802 56.2314L37.4529 58.857C38.545 59.5281 39.9429 59.4311 40.932 58.6157L44.8013 55.4254" stroke="#7BC35A" stroke-width="3" stroke-linecap="round" stroke-linejoin="round"/>
<path d="M37.1392 11.3113V15.8358" stroke="white" stroke-width="2" stroke-linecap="round" stroke-linejoin="round"/>
<path d="M4.03418 80C3.63704 80 3.38639 79.9935 3.28223 79.9805C3.22689 79.873 3.16341 79.7201 3.0918 79.5215C3.0332 79.3652 2.96484 79.1911 2.88672 78.999C2.83138 78.8851 2.71257 78.6637 2.53027 78.335C2.30892 77.9346 2.11523 77.5732 1.94922 77.251L1.92969 77.6514C1.94271 77.7262 1.94922 77.8532 1.94922 78.0322C1.94922 78.3415 1.94271 78.6328 1.92969 78.9062C1.90365 79.5671 1.87598 79.9235 1.84668 79.9756C1.71647 79.9886 1.56836 79.9951 1.40234 79.9951C1.12565 79.9951 0.914062 79.987 0.767578 79.9707C0.71875 79.5312 0.694336 79.0918 0.694336 78.6523C0.694336 78.5612 0.705729 78.1576 0.728516 77.4414C0.748047 77.0085 0.757812 76.3086 0.757812 75.3418C0.757812 74.9121 0.767578 74.5801 0.787109 74.3457C0.796875 74.2318 0.801758 74.0299 0.801758 73.7402C0.801758 73.4212 0.813151 73.2015 0.835938 73.0811L1.20703 73.0029C1.28841 73.016 1.36654 73.0225 1.44141 73.0225C1.4707 73.0225 1.5 73.0208 1.5293 73.0176C1.55859 73.0143 1.59115 73.0127 1.62695 73.0127C1.72786 73.0127 1.84017 73.0306 1.96387 73.0664C1.9834 73.1185 1.99479 73.1868 1.99805 73.2715L1.99316 73.667C1.99316 73.7484 1.99805 73.8151 2.00781 73.8672C2.01107 73.9388 2.0127 74.0137 2.0127 74.0918C2.0127 74.2513 2.00618 74.4271 1.99316 74.6191C1.9834 74.7754 1.97689 74.9186 1.97363 75.0488C1.98991 75.0781 1.99967 75.1204 2.00293 75.1758C2.0127 75.2637 2.01758 75.485 2.01758 75.8398C2.17057 75.5729 2.35286 75.1986 2.56445 74.7168C2.75 74.2936 2.9209 73.9339 3.07715 73.6377C3.19108 73.4163 3.25781 73.2666 3.27734 73.1885L3.30176 73.1104C3.32129 73.0778 3.39128 73.0583 3.51172 73.0518C3.58984 73.0518 3.66146 73.0615 3.72656 73.0811C3.75586 73.0648 3.84538 73.0534 3.99512 73.0469C4.13184 73.0469 4.30436 73.0566 4.5127 73.0762C4.50618 73.1803 4.47852 73.2731 4.42969 73.3545C4.38086 73.4359 4.31576 73.527 4.23438 73.6279C4.16927 73.7158 4.11556 73.8021 4.07324 73.8867C4.01139 74.0202 3.94303 74.1211 3.86816 74.1895C3.78353 74.4303 3.64681 74.7542 3.45801 75.1611C3.12272 75.8675 2.94531 76.3249 2.92578 76.5332C2.95833 76.5918 3.08529 76.8587 3.30664 77.334C3.54427 77.8418 3.6696 78.1283 3.68262 78.1934C3.71842 78.2292 3.86328 78.5173 4.11719 79.0576C4.37435 79.5947 4.50944 79.904 4.52246 79.9854C4.38249 79.9951 4.21973 80 4.03418 80ZM6.49512 75.7275C7.36751 75.6689 7.81185 75.3792 7.82812 74.8584C7.81836 74.5459 7.67513 74.3132 7.39844 74.1602C7.29753 74.1146 7.15104 74.0723 6.95898 74.0332C6.76693 73.9941 6.6237 73.9746 6.5293 73.9746L6.53418 74.6436C6.53418 74.9984 6.52116 75.3597 6.49512 75.7275ZM5.92871 80H5.86523C5.70247 80 5.55599 79.9772 5.42578 79.9316C5.36068 79.4727 5.32812 78.973 5.32812 78.4326C5.32812 78.0322 5.34603 77.6074 5.38184 77.1582C5.41439 76.6829 5.43066 76.263 5.43066 75.8984L5.40625 75.1074V74.9609C5.40625 74.541 5.43066 74.3115 5.47949 74.2725C5.47298 74.2301 5.46973 74.1715 5.46973 74.0967C5.46973 74.0446 5.47135 73.9616 5.47461 73.8477C5.48112 73.7337 5.49089 73.5954 5.50391 73.4326C5.52018 73.2699 5.53646 73.1559 5.55273 73.0908C5.6569 73.029 5.83919 72.998 6.09961 72.998C6.46745 72.998 6.86621 73.0404 7.2959 73.125C7.64746 73.1934 7.89811 73.278 8.04785 73.3789C8.2627 73.5319 8.38965 73.6263 8.42871 73.6621C8.50684 73.737 8.60775 73.9144 8.73145 74.1943C8.79329 74.3604 8.82422 74.5638 8.82422 74.8047C8.82422 74.8145 8.82259 74.8861 8.81934 75.0195C8.81608 75.153 8.77214 75.2865 8.6875 75.4199C8.65495 75.6087 8.5638 75.8187 8.41406 76.0498C8.26432 76.2809 8.10645 76.4437 7.94043 76.5381C7.49772 76.7562 7.02409 76.8864 6.51953 76.9287C6.49349 77.0524 6.46582 77.2673 6.43652 77.5732C6.37467 78.2048 6.34375 78.7012 6.34375 79.0625L6.34863 79.2188C6.34863 79.3099 6.34701 79.3864 6.34375 79.4482V79.5215C6.34375 79.6484 6.36491 79.7721 6.40723 79.8926C6.28027 79.9544 6.12077 79.9902 5.92871 80ZM10.6113 80.1953H10.3721L10.2158 80.1172L10.2939 79.7217V79.1699C10.2939 79.0918 10.5837 78.986 11.1631 78.8525C11.3714 78.6605 11.4756 78.4505 11.4756 78.2227C11.4756 77.7897 10.8441 76.263 9.58105 73.6426C9.47689 73.3073 9.4248 73.0957 9.4248 73.0078L9.58105 72.9297H10.3721C10.5446 72.959 10.9124 73.7484 11.4756 75.2979C11.5635 75.2979 11.7751 75.6673 12.1104 76.4062H12.1885C12.3252 76.4062 12.7207 75.4313 13.375 73.4814C13.375 73.1462 13.6631 72.9362 14.2393 72.8516C14.6104 72.9232 14.7959 73.0029 14.7959 73.0908C13.3766 77.1598 12.4294 79.3701 11.9541 79.7217C11.583 80.0374 11.1354 80.1953 10.6113 80.1953ZM17.7891 80.083C17.6784 80.083 17.5498 80.0716 17.4033 80.0488C17.2568 80.0293 17.1657 79.9951 17.1299 79.9463C17.1136 79.8812 17.1055 79.7363 17.1055 79.5117C17.1055 79.1243 17.1136 78.7305 17.1299 78.3301C17.1592 77.4056 17.195 76.8831 17.2373 76.7627C17.221 76.6846 17.2129 76.5755 17.2129 76.4355L17.2178 76.0156L17.2227 75.7715C17.2227 75.7161 17.2194 75.6494 17.2129 75.5713C17.2031 75.4346 17.1982 75.2962 17.1982 75.1562C17.1982 75.0098 17.2113 74.9007 17.2373 74.8291C17.2113 74.7347 17.1982 74.6159 17.1982 74.4727L17.2031 74.3848C17.2031 74.3522 17.2015 74.3213 17.1982 74.292C16.9899 74.266 16.736 74.2529 16.4365 74.2529C16.1403 74.2529 15.862 74.2562 15.6016 74.2627C15.4453 74.2692 15.3167 74.2725 15.2158 74.2725C15.1149 74.2725 15.0547 74.2692 15.0352 74.2627C15.0059 74.0934 14.988 73.9062 14.9814 73.7012C14.9814 73.4863 15.0042 73.3089 15.0498 73.1689C15.3786 73.1136 15.8262 73.0713 16.3926 73.042L20.46 73.0518C20.486 73.1624 20.499 73.3561 20.499 73.6328C20.499 73.7598 20.4974 73.8428 20.4941 73.8818C20.4876 73.9437 20.4665 74.0023 20.4307 74.0576C20.4111 74.0837 20.3883 74.1211 20.3623 74.1699C20.2419 74.1536 20.0107 74.1455 19.6689 74.1455C18.9658 74.1455 18.5573 74.1569 18.4434 74.1797L18.4678 75.2295L18.4971 75.6396L18.4727 77.832C18.4661 78.0534 18.4482 78.3008 18.4189 78.5742C18.3864 78.776 18.3701 78.986 18.3701 79.2041L18.3799 79.5557C18.3799 79.6729 18.375 79.7884 18.3652 79.9023C18.2969 80.0228 18.1048 80.083 17.7891 80.083ZM21.2266 80C21.1777 80 21.1273 79.9935 21.0752 79.9805C21.0264 79.9674 20.9971 79.9154 20.9873 79.8242C21.0231 79.6712 21.0443 79.515 21.0508 79.3555L21.0703 79.1406C21.0703 78.9811 21.0687 78.8265 21.0654 78.6768C21.0589 78.3773 21.0557 78.0778 21.0557 77.7783C21.0557 77.137 21.0719 76.4909 21.1045 75.8398C21.1436 75.1172 21.1631 74.4889 21.1631 73.9551C21.1631 73.6068 21.1533 73.3154 21.1338 73.0811L21.2119 73.0518C21.238 73.0518 21.2542 73.0501 21.2607 73.0469C21.2673 73.0436 21.2721 73.042 21.2754 73.042C21.2754 73.029 21.3112 73.0225 21.3828 73.0225C21.5098 73.0225 21.5911 73.0192 21.627 73.0127C21.666 73.0062 21.7035 73.0029 21.7393 73.0029C21.7913 73.0029 21.8532 73.0143 21.9248 73.0371L22.0127 73.0566H22.125C22.1706 73.0566 22.221 73.0615 22.2764 73.0713L22.2666 73.2422C22.221 73.5514 22.1982 73.8916 22.1982 74.2627L22.208 74.7803C22.208 75.0277 22.1999 75.262 22.1836 75.4834L22.0811 76.6699C22.0811 76.6764 22.0794 76.6813 22.0762 76.6846C22.0762 76.6846 22.0745 76.6895 22.0713 76.6992C22.0876 76.7546 22.0957 76.818 22.0957 76.8896C22.0957 77.0068 22.0697 77.3568 22.0176 77.9395C22.0501 77.8678 22.1022 77.7441 22.1738 77.5684L22.7598 76.1328C23.0234 75.4948 23.1797 75.1546 23.2285 75.1123C23.2546 75.0049 23.2985 74.8861 23.3604 74.7559C23.4059 74.6517 23.4613 74.5101 23.5264 74.3311C23.6012 74.113 23.6647 73.9762 23.7168 73.9209V73.9014C23.7168 73.846 23.7396 73.7533 23.7852 73.623C23.834 73.4798 23.8714 73.4082 23.8975 73.4082H23.9023C23.9219 73.3171 23.9561 73.2406 24.0049 73.1787C24.0537 73.1136 24.1188 73.0811 24.2002 73.0811H24.2246C24.4004 73.0713 24.625 73.0664 24.8984 73.0664C25.0221 73.0664 25.1003 73.0697 25.1328 73.0762L25.1279 73.5352C25.1442 73.5742 25.1523 73.7858 25.1523 74.1699C25.1523 74.2773 25.1507 74.4238 25.1475 74.6094C25.1442 74.7949 25.1377 74.9837 25.1279 75.1758C25.1214 75.3646 25.1149 75.4704 25.1084 75.4932L25.1182 75.8936C25.1507 76.3005 25.167 76.7432 25.167 77.2217C25.167 77.7002 25.1605 78.1462 25.1475 78.5596V79.0088C25.1475 79.4645 25.123 79.7689 25.0742 79.9219C25.0352 79.9251 24.9961 79.9316 24.957 79.9414C24.9212 79.9479 24.8529 79.9544 24.752 79.9609L24.4736 79.9707C24.3955 79.9707 24.3239 79.9642 24.2588 79.9512C24.1611 79.9284 24.1123 79.86 24.1123 79.7461V79.7217C24.1253 79.5231 24.1383 79.126 24.1514 78.5303L24.1953 76.6016C24.2018 76.276 24.2181 75.8675 24.2441 75.376C24.1725 75.5094 24.0716 75.721 23.9414 76.0107C23.6094 76.7464 23.4092 77.2477 23.3408 77.5146C23.3311 77.5505 23.2773 77.6986 23.1797 77.959C23.0527 78.2878 22.9681 78.4798 22.9258 78.5352L22.7744 78.8672C22.5791 79.3066 22.4766 79.5508 22.4668 79.5996C22.4277 79.6484 22.4017 79.6973 22.3887 79.7461C22.3496 79.8307 22.3089 79.891 22.2666 79.9268C22.2406 79.9756 22.1413 80 21.9688 80C21.8776 80 21.7832 79.9967 21.6855 79.9902L21.5098 79.9854C21.4609 79.9854 21.4219 79.987 21.3926 79.9902C21.3372 79.9967 21.2819 80 21.2266 80ZM28.6191 80.083C28.5085 80.083 28.3799 80.0716 28.2334 80.0488C28.0869 80.0293 27.9958 79.9951 27.96 79.9463C27.9437 79.8812 27.9355 79.7363 27.9355 79.5117C27.9355 79.1243 27.9437 78.7305 27.96 78.3301C27.9893 77.4056 28.0251 76.8831 28.0674 76.7627C28.0511 76.6846 28.043 76.5755 28.043 76.4355L28.0479 76.0156L28.0527 75.7715C28.0527 75.7161 28.0495 75.6494 28.043 75.5713C28.0332 75.4346 28.0283 75.2962 28.0283 75.1562C28.0283 75.0098 28.0413 74.9007 28.0674 74.8291C28.0413 74.7347 28.0283 74.6159 28.0283 74.4727L28.0332 74.3848C28.0332 74.3522 28.0316 74.3213 28.0283 74.292C27.82 74.266 27.5661 74.2529 27.2666 74.2529C26.9704 74.2529 26.6921 74.2562 26.4316 74.2627C26.2754 74.2692 26.1468 74.2725 26.0459 74.2725C25.945 74.2725 25.8848 74.2692 25.8652 74.2627C25.8359 74.0934 25.818 73.9062 25.8115 73.7012C25.8115 73.4863 25.8343 73.3089 25.8799 73.1689C26.2087 73.1136 26.6562 73.0713 27.2227 73.042L31.29 73.0518C31.3161 73.1624 31.3291 73.3561 31.3291 73.6328C31.3291 73.7598 31.3275 73.8428 31.3242 73.8818C31.3177 73.9437 31.2965 74.0023 31.2607 74.0576C31.2412 74.0837 31.2184 74.1211 31.1924 74.1699C31.0719 74.1536 30.8408 74.1455 30.499 74.1455C29.7959 74.1455 29.3874 74.1569 29.2734 74.1797L29.2979 75.2295L29.3271 75.6396L29.3027 77.832C29.2962 78.0534 29.2783 78.3008 29.249 78.5742C29.2165 78.776 29.2002 78.986 29.2002 79.2041L29.21 79.5557C29.21 79.6729 29.2051 79.7884 29.1953 79.9023C29.127 80.0228 28.9349 80.083 28.6191 80.083ZM34.2588 80H34.0928C33.9593 80 33.7021 79.9935 33.3213 79.9805V79.9707L32.8525 79.9756L32.5156 79.9805C32.2747 79.9805 32.0583 79.9707 31.8662 79.9512C31.8532 79.8047 31.8385 79.4922 31.8223 79.0137C31.7897 78.1055 31.7734 77.3031 31.7734 76.6064C31.7734 75.7048 31.8011 75.1921 31.8564 75.0684C31.8304 74.9544 31.8174 74.7673 31.8174 74.5068C31.8174 74.0511 31.8353 73.5905 31.8711 73.125C31.9557 73.0469 32.2861 73.0078 32.8623 73.0078C33.1032 73.0078 33.3604 73.0127 33.6338 73.0225C33.751 73.029 33.8747 73.0322 34.0049 73.0322C34.1156 73.0322 34.2327 73.029 34.3564 73.0225C34.4834 73.0127 34.6071 73.0078 34.7275 73.0078C35.0661 73.0078 35.3737 73.0452 35.6504 73.1201C35.6862 73.2568 35.7041 73.4196 35.7041 73.6084C35.7041 73.693 35.6976 73.7712 35.6846 73.8428C35.6618 73.96 35.6097 74.0186 35.5283 74.0186L34.5225 74.0137L33.5215 74.0039C33.2057 74.0039 32.9941 74.0072 32.8867 74.0137L32.8818 74.3848V74.6924L32.877 75C32.8639 75.2669 32.8574 75.5241 32.8574 75.7715C32.8574 75.8757 32.8607 75.9603 32.8672 76.0254C32.916 76.0547 33.2171 76.0693 33.7705 76.0693C34.109 76.0693 34.4378 76.0758 34.7568 76.0889C35.0758 76.1019 35.2972 76.1377 35.4209 76.1963C35.473 76.4079 35.499 76.5804 35.499 76.7139C35.499 76.8604 35.4665 76.9596 35.4014 77.0117C35.2939 77.0964 35.0156 77.1387 34.5664 77.1387L34.3271 77.1338L33.7998 77.1387L32.8867 77.1777L32.8477 78.667C33.1504 78.7223 33.7477 78.75 34.6396 78.75C35.2777 78.75 35.6195 78.7679 35.665 78.8037C35.7171 78.9242 35.7415 79.0658 35.7383 79.2285C35.7383 79.3945 35.7236 79.5443 35.6943 79.6777C35.6683 79.8112 35.6113 79.8926 35.5234 79.9219C35.4518 79.9447 35.3704 79.9561 35.2793 79.9561H35.0596L34.2588 80ZM43.2041 80C42.807 80 42.5563 79.9935 42.4521 79.9805C42.3968 79.873 42.3333 79.7201 42.2617 79.5215C42.2031 79.3652 42.1348 79.1911 42.0566 78.999C42.0013 78.8851 41.8825 78.6637 41.7002 78.335C41.4788 77.9346 41.2852 77.5732 41.1191 77.251L41.0996 77.6514C41.1126 77.7262 41.1191 77.8532 41.1191 78.0322C41.1191 78.3415 41.1126 78.6328 41.0996 78.9062C41.0736 79.5671 41.0459 79.9235 41.0166 79.9756C40.8864 79.9886 40.7383 79.9951 40.5723 79.9951C40.2956 79.9951 40.084 79.987 39.9375 79.9707C39.8887 79.5312 39.8643 79.0918 39.8643 78.6523C39.8643 78.5612 39.8757 78.1576 39.8984 77.4414C39.918 77.0085 39.9277 76.3086 39.9277 75.3418C39.9277 74.9121 39.9375 74.5801 39.957 74.3457C39.9668 74.2318 39.9717 74.0299 39.9717 73.7402C39.9717 73.4212 39.9831 73.2015 40.0059 73.0811L40.377 73.0029C40.4583 73.016 40.5365 73.0225 40.6113 73.0225C40.6406 73.0225 40.6699 73.0208 40.6992 73.0176C40.7285 73.0143 40.7611 73.0127 40.7969 73.0127C40.8978 73.0127 41.0101 73.0306 41.1338 73.0664C41.1533 73.1185 41.1647 73.1868 41.168 73.2715L41.1631 73.667C41.1631 73.7484 41.168 73.8151 41.1777 73.8672C41.181 73.9388 41.1826 74.0137 41.1826 74.0918C41.1826 74.2513 41.1761 74.4271 41.1631 74.6191C41.1533 74.7754 41.1468 74.9186 41.1436 75.0488C41.1598 75.0781 41.1696 75.1204 41.1729 75.1758C41.1826 75.2637 41.1875 75.485 41.1875 75.8398C41.3405 75.5729 41.5228 75.1986 41.7344 74.7168C41.9199 74.2936 42.0908 73.9339 42.2471 73.6377C42.361 73.4163 42.4277 73.2666 42.4473 73.1885L42.4717 73.1104C42.4912 73.0778 42.5612 73.0583 42.6816 73.0518C42.7598 73.0518 42.8314 73.0615 42.8965 73.0811C42.9258 73.0648 43.0153 73.0534 43.165 73.0469C43.3018 73.0469 43.4743 73.0566 43.6826 73.0762C43.6761 73.1803 43.6484 73.2731 43.5996 73.3545C43.5508 73.4359 43.4857 73.527 43.4043 73.6279C43.3392 73.7158 43.2855 73.8021 43.2432 73.8867C43.1813 74.0202 43.113 74.1211 43.0381 74.1895C42.9535 74.4303 42.8167 74.7542 42.6279 75.1611C42.2926 75.8675 42.1152 76.3249 42.0957 76.5332C42.1283 76.5918 42.2552 76.8587 42.4766 77.334C42.7142 77.8418 42.8395 78.1283 42.8525 78.1934C42.8883 78.2292 43.0332 78.5173 43.2871 79.0576C43.5443 79.5947 43.6794 79.904 43.6924 79.9854C43.5524 79.9951 43.3896 80 43.2041 80ZM46.5586 78.8916C47.3529 78.8916 47.8086 78.5254 47.9258 77.793C47.9388 77.6855 47.9567 77.5651 47.9795 77.4316C48.0413 77.0508 48.0723 76.7806 48.0723 76.6211C48.0723 75.6673 47.7598 74.7965 47.1348 74.0088C47.0762 73.9958 47.0257 73.9779 46.9834 73.9551C46.9183 73.9193 46.8483 73.9014 46.7734 73.9014C46.7148 73.9014 46.6367 73.9176 46.5391 73.9502C46.2526 74.0511 46.0671 74.1341 45.9824 74.1992C45.7611 74.4206 45.5853 74.7607 45.4551 75.2197C45.3249 75.6787 45.2598 76.0628 45.2598 76.3721L45.2646 76.9189C45.2646 77.2119 45.2549 77.4902 45.2354 77.7539C45.2646 77.7767 45.3265 77.8923 45.4209 78.1006C45.5283 78.3577 45.6195 78.5319 45.6943 78.623C45.8245 78.7598 46.0557 78.846 46.3877 78.8818C46.4463 78.8883 46.5033 78.8916 46.5586 78.8916ZM46.0947 80.1465C45.4372 80.1465 44.9391 79.8958 44.6006 79.3945C44.4899 79.222 44.3743 78.9469 44.2539 78.5693C44.1335 78.1917 44.0439 77.819 43.9854 77.4512C43.9626 77.2949 43.9512 77.1582 43.9512 77.041C43.9512 76.8848 43.9723 76.766 44.0146 76.6846C44.0049 76.626 44 76.5576 44 76.4795C44 76.307 44.0293 76.0514 44.0879 75.7129C44.1465 75.3743 44.2409 75.0179 44.3711 74.6436C44.5046 74.2692 44.6445 74.0299 44.791 73.9258C44.8659 73.7012 45.0921 73.4798 45.4697 73.2617C45.8473 73.0404 46.2103 72.9118 46.5586 72.876L46.8271 72.8564C46.9248 72.8467 47.0094 72.8418 47.0811 72.8418C47.1494 72.8451 47.2243 72.8613 47.3057 72.8906C47.501 72.9622 47.7028 73.0664 47.9111 73.2031C48.1943 73.3919 48.3538 73.5433 48.3896 73.6572C48.5166 73.7516 48.624 73.9095 48.7119 74.1309C48.8031 74.349 48.8779 74.5573 48.9365 74.7559C48.9951 74.9512 49.0391 75.0667 49.0684 75.1025C49.0977 75.2686 49.1318 75.4329 49.1709 75.5957C49.2588 75.9342 49.3044 76.2826 49.3076 76.6406C49.3011 76.6927 49.2913 76.7497 49.2783 76.8115C49.2653 76.8701 49.2555 76.9189 49.249 76.958C49.249 77.0231 49.2539 77.0703 49.2637 77.0996C49.2767 77.1257 49.2865 77.1696 49.293 77.2314C49.2897 77.3584 49.2653 77.4837 49.2197 77.6074C49.1969 77.679 49.1774 77.749 49.1611 77.8174C49.0928 78.1689 48.9495 78.5238 48.7314 78.8818C48.5166 79.2399 48.248 79.5003 47.9258 79.6631C47.6719 79.8486 47.3285 79.9821 46.8955 80.0635C46.6058 80.1188 46.3389 80.1465 46.0947 80.1465ZM49.8691 80.1123C49.8464 80.1123 49.8236 80.109 49.8008 80.1025C49.778 80.0993 49.7568 80.0977 49.7373 80.0977C49.7275 80.0977 49.7178 80.1009 49.708 80.1074L49.7275 79.9072C49.7406 79.8063 49.7471 79.5622 49.7471 79.1748C49.7568 79.1032 49.7747 79.0544 49.8008 79.0283C49.8561 79.0023 49.9652 78.986 50.1279 78.9795L50.3037 78.96C50.4762 78.9469 50.6585 78.8428 50.8506 78.6475C50.8636 78.6182 50.8815 78.584 50.9043 78.5449C51.1908 78.1315 51.3519 77.4219 51.3877 76.416C51.4072 75.9408 51.4447 75.5322 51.5 75.1904C51.5553 74.8486 51.5944 74.6517 51.6172 74.5996C51.6009 74.401 51.5928 74.209 51.5928 74.0234C51.5928 73.7728 51.6074 73.5319 51.6367 73.3008L51.6562 73.0469H51.9004C51.9297 73.0469 51.9622 73.0436 51.998 73.0371C52.0339 73.0306 52.0729 73.0273 52.1152 73.0273L52.1738 73.0225C52.3529 73.0225 52.5807 73.0241 52.8574 73.0273C53.1341 73.0273 53.3717 73.029 53.5703 73.0322H53.9902L54.2002 73.0273C54.2848 73.0273 54.3581 73.0339 54.4199 73.0469C54.485 73.0566 54.5615 73.0615 54.6494 73.0615C54.7145 74.2204 54.7471 75.3857 54.7471 76.5576V77.1436C54.7503 77.391 54.7585 77.7181 54.7715 78.125C54.7878 78.6361 54.7959 79.0495 54.7959 79.3652C54.7959 79.6159 54.804 79.8226 54.8203 79.9854H53.7021L53.6973 79.292C53.6973 79.1911 53.6924 79.0153 53.6826 78.7646C53.6598 78.1592 53.6484 77.8092 53.6484 77.7148C53.6484 77.627 53.6517 77.5423 53.6582 77.4609C53.668 77.347 53.6729 77.2298 53.6729 77.1094L53.668 76.9385C53.668 76.8018 53.6761 76.6634 53.6924 76.5234C53.7087 76.3835 53.7168 76.2533 53.7168 76.1328L53.5947 74.1406L53.5898 74.1357L53.5215 74.1309C53.3815 74.1178 53.2611 74.1113 53.1602 74.1113H53.1016C52.9941 74.1211 52.8558 74.1292 52.6865 74.1357C52.6572 74.4417 52.6393 74.5964 52.6328 74.5996L52.5205 75.7568C52.4847 76.18 52.431 76.6178 52.3594 77.0703C52.3301 77.1842 52.2992 77.3438 52.2666 77.5488C52.2178 77.946 52.1331 78.3236 52.0127 78.6816C51.8076 79.1699 51.5749 79.5117 51.3145 79.707C51.1777 79.8177 51.0345 79.9007 50.8848 79.9561C50.7383 80.0081 50.6341 80.0342 50.5723 80.0342C50.4909 80.0732 50.2809 80.0977 49.9424 80.1074C49.9098 80.1074 49.8854 80.109 49.8691 80.1123ZM58.2139 80H58.0479C57.9144 80 57.6572 79.9935 57.2764 79.9805V79.9707L56.8076 79.9756L56.4707 79.9805C56.2298 79.9805 56.0133 79.9707 55.8213 79.9512C55.8083 79.8047 55.7936 79.4922 55.7773 79.0137C55.7448 78.1055 55.7285 77.3031 55.7285 76.6064C55.7285 75.7048 55.7562 75.1921 55.8115 75.0684C55.7855 74.9544 55.7725 74.7673 55.7725 74.5068C55.7725 74.0511 55.7904 73.5905 55.8262 73.125C55.9108 73.0469 56.2412 73.0078 56.8174 73.0078C57.0583 73.0078 57.3154 73.0127 57.5889 73.0225C57.7061 73.029 57.8298 73.0322 57.96 73.0322C58.0706 73.0322 58.1878 73.029 58.3115 73.0225C58.4385 73.0127 58.5622 73.0078 58.6826 73.0078C59.0212 73.0078 59.3288 73.0452 59.6055 73.1201C59.6413 73.2568 59.6592 73.4196 59.6592 73.6084C59.6592 73.693 59.6527 73.7712 59.6396 73.8428C59.6169 73.96 59.5648 74.0186 59.4834 74.0186L58.4775 74.0137L57.4766 74.0039C57.1608 74.0039 56.9492 74.0072 56.8418 74.0137L56.8369 74.3848V74.6924L56.832 75C56.819 75.2669 56.8125 75.5241 56.8125 75.7715C56.8125 75.8757 56.8158 75.9603 56.8223 76.0254C56.8711 76.0547 57.1722 76.0693 57.7256 76.0693C58.0641 76.0693 58.3929 76.0758 58.7119 76.0889C59.0309 76.1019 59.2523 76.1377 59.376 76.1963C59.4281 76.4079 59.4541 76.5804 59.4541 76.7139C59.4541 76.8604 59.4215 76.9596 59.3564 77.0117C59.249 77.0964 58.9707 77.1387 58.5215 77.1387L58.2822 77.1338L57.7549 77.1387L56.8418 77.1777L56.8027 78.667C57.1055 78.7223 57.7028 78.75 58.5947 78.75C59.2327 78.75 59.5745 78.7679 59.6201 78.8037C59.6722 78.9242 59.6966 79.0658 59.6934 79.2285C59.6934 79.3945 59.6787 79.5443 59.6494 79.6777C59.6234 79.8112 59.5664 79.8926 59.4785 79.9219C59.4069 79.9447 59.3255 79.9561 59.2344 79.9561H59.0146L58.2139 80ZM64.1416 80C63.5622 80 62.9811 79.8698 62.3984 79.6094C62.2096 79.528 62.0029 79.3994 61.7783 79.2236C61.2868 78.8428 60.9971 78.4017 60.9092 77.9004C60.8962 77.8288 60.8766 77.762 60.8506 77.7002C60.7464 77.4919 60.6829 77.111 60.6602 76.5576C60.6569 76.4893 60.6553 76.4209 60.6553 76.3525C60.6553 75.6592 60.818 75.0521 61.1436 74.5312C61.4691 74.0072 62.0273 73.5905 62.8184 73.2812C63.1341 73.151 63.4173 73.0859 63.668 73.0859L63.834 73.0957C63.987 73.0957 64.1253 73.0745 64.249 73.0322C64.3337 73.016 64.4167 73.0078 64.498 73.0078C64.5794 73.0078 64.6966 73.0127 64.8496 73.0225C65.0026 73.029 65.1654 73.042 65.3379 73.0615C65.5104 73.0778 65.6341 73.099 65.709 73.125C65.7415 73.2422 65.7627 73.3838 65.7725 73.5498C65.7725 73.6117 65.7708 73.7256 65.7676 73.8916C65.7643 74.0544 65.7171 74.1927 65.626 74.3066C65.6064 74.3099 65.582 74.3115 65.5527 74.3115C65.4811 74.3115 65.3753 74.2985 65.2354 74.2725C64.9066 74.2074 64.6022 74.1748 64.3223 74.1748C64.1074 74.1748 63.8861 74.2041 63.6582 74.2627L63.6387 74.2725C63.4173 74.3245 63.2057 74.3962 63.0039 74.4873C62.7467 74.6012 62.5579 74.7998 62.4375 75.083C62.3757 75.2393 62.3252 75.332 62.2861 75.3613V75.4541C62.2861 75.5843 62.2764 75.7422 62.2568 75.9277C62.2406 76.0807 62.2308 76.2142 62.2275 76.3281C62.2438 76.6602 62.3057 76.9645 62.4131 77.2412C62.4489 77.3551 62.4798 77.4642 62.5059 77.5684C62.597 77.6432 62.6751 77.7165 62.7402 77.7881C62.8086 77.8597 62.8786 77.9264 62.9502 77.9883C63.0218 78.0469 63.1162 78.0973 63.2334 78.1396C63.4222 78.208 63.7559 78.2552 64.2344 78.2812C64.3092 78.2845 64.376 78.2894 64.4346 78.2959C64.6527 78.3154 64.835 78.3301 64.9814 78.3398C65.1702 78.3496 65.3086 78.3643 65.3965 78.3838C65.4844 78.4001 65.5413 78.4326 65.5674 78.4814C65.5934 78.527 65.6097 78.6035 65.6162 78.7109C65.6227 78.8607 65.6357 79.0186 65.6553 79.1846C65.6715 79.3278 65.6813 79.4661 65.6846 79.5996C65.6846 79.6224 65.6846 79.6436 65.6846 79.6631C65.6846 79.7217 65.6781 79.764 65.665 79.79C65.6064 79.8486 65.5267 79.8861 65.4258 79.9023C65.3249 79.9154 65.2223 79.9219 65.1182 79.9219C65.0173 79.9219 64.9261 79.9268 64.8447 79.9365C64.6104 79.9788 64.376 80 64.1416 80ZM69.0098 78.8916C69.804 78.8916 70.2598 78.5254 70.377 77.793C70.39 77.6855 70.4079 77.5651 70.4307 77.4316C70.4925 77.0508 70.5234 76.7806 70.5234 76.6211C70.5234 75.6673 70.2109 74.7965 69.5859 74.0088C69.5273 73.9958 69.4769 73.9779 69.4346 73.9551C69.3695 73.9193 69.2995 73.9014 69.2246 73.9014C69.166 73.9014 69.0879 73.9176 68.9902 73.9502C68.7038 74.0511 68.5182 74.1341 68.4336 74.1992C68.2122 74.4206 68.0365 74.7607 67.9062 75.2197C67.776 75.6787 67.7109 76.0628 67.7109 76.3721L67.7158 76.9189C67.7158 77.2119 67.7061 77.4902 67.6865 77.7539C67.7158 77.7767 67.7777 77.8923 67.8721 78.1006C67.9795 78.3577 68.0706 78.5319 68.1455 78.623C68.2757 78.7598 68.5068 78.846 68.8389 78.8818C68.8975 78.8883 68.9544 78.8916 69.0098 78.8916ZM68.5459 80.1465C67.8883 80.1465 67.3903 79.8958 67.0518 79.3945C66.9411 79.222 66.8255 78.9469 66.7051 78.5693C66.5846 78.1917 66.4951 77.819 66.4365 77.4512C66.4137 77.2949 66.4023 77.1582 66.4023 77.041C66.4023 76.8848 66.4235 76.766 66.4658 76.6846C66.4561 76.626 66.4512 76.5576 66.4512 76.4795C66.4512 76.307 66.4805 76.0514 66.5391 75.7129C66.5977 75.3743 66.6921 75.0179 66.8223 74.6436C66.9557 74.2692 67.0957 74.0299 67.2422 73.9258C67.3171 73.7012 67.5433 73.4798 67.9209 73.2617C68.2985 73.0404 68.6615 72.9118 69.0098 72.876L69.2783 72.8564C69.376 72.8467 69.4606 72.8418 69.5322 72.8418C69.6006 72.8451 69.6755 72.8613 69.7568 72.8906C69.9521 72.9622 70.154 73.0664 70.3623 73.2031C70.6455 73.3919 70.805 73.5433 70.8408 73.6572C70.9678 73.7516 71.0752 73.9095 71.1631 74.1309C71.2542 74.349 71.3291 74.5573 71.3877 74.7559C71.4463 74.9512 71.4902 75.0667 71.5195 75.1025C71.5488 75.2686 71.583 75.4329 71.6221 75.5957C71.71 75.9342 71.7555 76.2826 71.7588 76.6406C71.7523 76.6927 71.7425 76.7497 71.7295 76.8115C71.7165 76.8701 71.7067 76.9189 71.7002 76.958C71.7002 77.0231 71.7051 77.0703 71.7148 77.0996C71.7279 77.1257 71.7376 77.1696 71.7441 77.2314C71.7409 77.3584 71.7165 77.4837 71.6709 77.6074C71.6481 77.679 71.6286 77.749 71.6123 77.8174C71.5439 78.1689 71.4007 78.5238 71.1826 78.8818C70.9678 79.2399 70.6992 79.5003 70.377 79.6631C70.123 79.8486 69.7796 79.9821 69.3467 80.0635C69.057 80.1188 68.79 80.1465 68.5459 80.1465ZM27.2617 92.1416C27.1868 92.1416 27.1104 92.1367 27.0322 92.127C26.9671 92.1204 26.9102 92.1172 26.8613 92.1172C26.6921 92.1139 26.57 92.1042 26.4951 92.0879C26.4235 92.0716 26.3779 92.0358 26.3584 91.9805C26.3421 91.9219 26.3324 91.8291 26.3291 91.7021V91.6729C26.3291 91.4971 26.3014 91.2301 26.2461 90.8721C26.1842 90.4912 26.1305 90.0697 26.085 89.6074C26.0394 89.1224 25.9938 88.7757 25.9482 88.5674C25.8245 88.7887 25.6097 89.5472 25.3037 90.8428C25.1214 91.6077 25.0107 92.0293 24.9717 92.1074L24.7812 92.1416C24.6966 91.9854 24.6201 91.7965 24.5518 91.5752L24.459 91.3115C24.4004 91.1748 24.3532 91.0348 24.3174 90.8916C24.2848 90.7451 24.2425 90.6035 24.1904 90.4668C24.1123 90.2812 24.0114 89.9167 23.8877 89.373C23.8649 89.2656 23.8421 89.168 23.8193 89.0801C23.7998 88.9922 23.7835 88.9157 23.7705 88.8506C23.751 88.792 23.738 88.7562 23.7314 88.7432C23.7249 88.7301 23.7168 88.7236 23.707 88.7236C23.6973 88.7236 23.6891 88.7204 23.6826 88.7139L23.3555 89.7588C23.2708 90.0094 23.1911 90.2715 23.1162 90.5449L23.0479 90.7988C22.9469 91.1569 22.8802 91.4271 22.8477 91.6094C22.8118 91.821 22.7679 91.9528 22.7158 92.0049C22.6735 92.0472 22.5938 92.0684 22.4766 92.0684C22.304 92.0684 22.1608 92.0553 22.0469 92.0293C21.9785 92.013 21.9036 91.9756 21.8223 91.917V91.8438C21.8223 91.707 21.8434 91.471 21.8857 91.1357C21.9281 90.7972 21.9785 90.4489 22.0371 90.0908C22.099 89.7295 22.1543 89.5049 22.2031 89.417C22.1966 89.3975 22.1934 89.3714 22.1934 89.3389C22.1934 89.2835 22.2031 89.2005 22.2227 89.0898C22.2617 88.8424 22.3187 88.6162 22.3936 88.4111C22.4229 88.2386 22.4749 88.0205 22.5498 87.7568C22.6442 87.3923 22.6914 87.1709 22.6914 87.0928C22.7142 87.057 22.7581 86.917 22.8232 86.6729C22.9209 86.3311 23.0413 85.9583 23.1846 85.5547C23.3311 85.151 23.4824 84.8971 23.6387 84.793C23.7754 84.9655 23.8584 85.1657 23.8877 85.3936C23.9105 85.5107 23.943 85.6296 23.9854 85.75C24.2718 86.5833 24.5371 87.5973 24.7812 88.792L24.8203 88.9678C24.8952 88.8831 24.9587 88.7301 25.0107 88.5088C25.0758 88.2451 25.416 87.4688 26.0312 86.1797C26.2493 85.7207 26.404 85.4131 26.4951 85.2568C26.5895 85.0973 26.6774 85.0176 26.7588 85.0176C26.7913 85.0176 26.8255 85.0257 26.8613 85.042C26.8711 85.0518 26.8874 85.2048 26.9102 85.501C26.9818 86.4124 27.0599 86.9528 27.1445 87.1221C27.1315 87.1937 27.125 87.2799 27.125 87.3809C27.125 87.5827 27.1543 87.9196 27.2129 88.3916C27.2422 88.5999 27.2617 88.7725 27.2715 88.9092L27.3887 90.7891C27.4375 90.903 27.4619 91.2155 27.4619 91.7266C27.4619 91.9219 27.4521 92.0423 27.4326 92.0879C27.3936 92.1237 27.3366 92.1416 27.2617 92.1416ZM32.5303 92.0488L32.2227 91.9707C32.2031 91.8438 32.1934 91.6289 32.1934 91.3262V90.877C32.1934 90.8151 32.1901 90.7467 32.1836 90.6719L32.1689 90.335C32.1657 90.2926 32.1641 89.9948 32.1641 89.4414C32.1706 89.2559 32.1738 89.0654 32.1738 88.8701C32.1738 88.2809 32.1445 87.651 32.0859 86.9805L32.0811 86.624C32.0811 86.1455 32.1071 85.6621 32.1592 85.1738C32.2764 85.1152 32.3903 85.0859 32.501 85.0859C32.6149 85.0827 32.6768 85.0811 32.6865 85.0811C32.8883 85.0811 33.0397 85.1136 33.1406 85.1787C33.196 85.2992 33.2236 85.9941 33.2236 87.2637C33.2236 87.9115 33.2188 88.5658 33.209 89.2266L33.2041 89.6953C33.2008 89.7441 33.1976 89.7962 33.1943 89.8516C33.1911 89.9069 33.1829 89.9492 33.1699 89.9785C33.1699 90.1055 33.1732 90.2487 33.1797 90.4082C33.1895 90.5677 33.1943 90.7158 33.1943 90.8525C33.1943 90.9567 33.1927 91.0544 33.1895 91.1455C33.1862 91.2041 33.1846 91.2741 33.1846 91.3555V91.4873C33.1846 91.7575 33.1748 91.9235 33.1553 91.9854C33.0544 92.0212 32.9616 92.0391 32.877 92.0391C32.8477 92.0391 32.82 92.0374 32.7939 92.0342C32.7712 92.0309 32.7484 92.0293 32.7256 92.0293C32.6637 92.0293 32.5986 92.0358 32.5303 92.0488ZM29.1172 91.9805C28.8665 91.9805 28.6143 91.9626 28.3604 91.9268C28.3245 91.598 28.3066 90.8786 28.3066 89.7686C28.3066 88.6455 28.3262 87.9521 28.3652 87.6885C28.3359 87.529 28.3213 87.363 28.3213 87.1904C28.3213 86.9788 28.3343 86.7689 28.3604 86.5605C28.3701 86.4499 28.375 86.3424 28.375 86.2383C28.375 86.1341 28.3701 86.0283 28.3604 85.9209C28.3538 85.8102 28.3506 85.7061 28.3506 85.6084C28.3506 85.4196 28.3685 85.2438 28.4043 85.0811L29.0977 85.0957L29.21 85.0908C29.3174 85.0908 29.4102 85.1087 29.4883 85.1445C29.5697 85.1771 29.6104 85.2861 29.6104 85.4717C29.6104 85.6377 29.6038 85.8086 29.5908 85.9844L29.5762 86.3896C29.5729 86.7412 29.5518 87.0977 29.5127 87.459C29.4932 87.6576 29.4769 87.8561 29.4639 88.0547C29.6755 88.071 29.9277 88.1165 30.2207 88.1914C30.5137 88.2663 30.748 88.3574 30.9238 88.4648C31.0475 88.5072 31.1468 88.5576 31.2217 88.6162C31.2965 88.6715 31.3714 88.7578 31.4463 88.875C31.5374 89.002 31.609 89.1419 31.6611 89.2949C31.6774 89.3568 31.6953 89.4723 31.7148 89.6416C31.7376 89.8402 31.749 90.016 31.749 90.1689C31.749 90.3057 31.7327 90.3854 31.7002 90.4082C31.7002 90.5059 31.6628 90.6377 31.5879 90.8037C31.513 90.9697 31.4219 91.1211 31.3145 91.2578C31.2103 91.3913 31.1126 91.4596 31.0215 91.4629C30.9303 91.5996 30.6862 91.7233 30.2891 91.834C29.9408 91.9316 29.5501 91.9805 29.1172 91.9805ZM29.6299 91.0625C29.8187 91.0625 30.0059 91.0381 30.1914 90.9893C30.3249 90.9469 30.4242 90.9014 30.4893 90.8525C30.5576 90.8037 30.6455 90.7191 30.7529 90.5986L30.7773 90.4131C30.7936 90.3317 30.8034 90.2389 30.8066 90.1348C30.8066 89.9329 30.7676 89.749 30.6895 89.583C30.5365 89.2705 30.1898 89.1143 29.6494 89.1143C29.5615 89.1143 29.4736 89.1208 29.3857 89.1338C29.376 89.2282 29.3711 89.3177 29.3711 89.4023C29.3711 89.4544 29.3743 89.513 29.3809 89.5781L29.3125 90.7354L29.332 91.043C29.4329 91.056 29.5322 91.0625 29.6299 91.0625ZM40.1816 92H34.4688L34.3125 91.9219C34.3646 90.8639 34.3906 90.0713 34.3906 89.5439V86.7656C34.3906 86.5475 34.4167 86.2578 34.4688 85.8965C34.4167 85.8411 34.3906 85.6296 34.3906 85.2617V85.0225C34.3906 84.915 34.734 84.8092 35.4209 84.7051C35.6618 84.806 35.7952 84.9118 35.8213 85.0225C35.7139 87.9814 35.6602 89.9102 35.6602 90.8086H36.7686C36.7686 90.4928 36.7962 90.0176 36.8516 89.3828C36.7962 87.7585 36.7686 86.3848 36.7686 85.2617C36.9443 85.1543 37.1038 85.1006 37.2471 85.1006H37.96C38.0641 85.1169 38.1162 85.1706 38.1162 85.2617V89.3828L38.0381 89.8613C38.0902 89.946 38.1162 90.0778 38.1162 90.2568V90.8086C38.3571 90.8086 38.5166 90.8363 38.5947 90.8916C38.8031 90.8363 38.9886 90.8086 39.1514 90.8086C39.2035 88.9792 39.2295 87.4476 39.2295 86.2139C39.2295 85.9339 39.2035 85.4831 39.1514 84.8613C39.2523 84.8092 39.3304 84.7832 39.3857 84.7832C40.1279 84.7832 40.499 84.889 40.499 85.1006C40.3916 88.9124 40.3379 91.1602 40.3379 91.8438C40.3379 91.9479 40.2858 92 40.1816 92ZM44.8496 92C44.4525 92 44.2018 91.9935 44.0977 91.9805C44.0423 91.873 43.9788 91.7201 43.9072 91.5215C43.8486 91.3652 43.7803 91.1911 43.7021 90.999C43.6468 90.8851 43.528 90.6637 43.3457 90.335C43.1243 89.9346 42.9307 89.5732 42.7646 89.251L42.7451 89.6514C42.7581 89.7262 42.7646 89.8532 42.7646 90.0322C42.7646 90.3415 42.7581 90.6328 42.7451 90.9062C42.7191 91.5671 42.6914 91.9235 42.6621 91.9756C42.5319 91.9886 42.3838 91.9951 42.2178 91.9951C41.9411 91.9951 41.7295 91.987 41.583 91.9707C41.5342 91.5312 41.5098 91.0918 41.5098 90.6523C41.5098 90.5612 41.5212 90.1576 41.5439 89.4414C41.5635 89.0085 41.5732 88.3086 41.5732 87.3418C41.5732 86.9121 41.583 86.5801 41.6025 86.3457C41.6123 86.2318 41.6172 86.0299 41.6172 85.7402C41.6172 85.4212 41.6286 85.2015 41.6514 85.0811L42.0225 85.0029C42.1038 85.016 42.182 85.0225 42.2568 85.0225C42.2861 85.0225 42.3154 85.0208 42.3447 85.0176C42.374 85.0143 42.4066 85.0127 42.4424 85.0127C42.5433 85.0127 42.6556 85.0306 42.7793 85.0664C42.7988 85.1185 42.8102 85.1868 42.8135 85.2715L42.8086 85.667C42.8086 85.7484 42.8135 85.8151 42.8232 85.8672C42.8265 85.9388 42.8281 86.0137 42.8281 86.0918C42.8281 86.2513 42.8216 86.4271 42.8086 86.6191C42.7988 86.7754 42.7923 86.9186 42.7891 87.0488C42.8053 87.0781 42.8151 87.1204 42.8184 87.1758C42.8281 87.2637 42.833 87.485 42.833 87.8398C42.986 87.5729 43.1683 87.1986 43.3799 86.7168C43.5654 86.2936 43.7363 85.9339 43.8926 85.6377C44.0065 85.4163 44.0732 85.2666 44.0928 85.1885L44.1172 85.1104C44.1367 85.0778 44.2067 85.0583 44.3271 85.0518C44.4053 85.0518 44.4769 85.0615 44.542 85.0811C44.5713 85.0648 44.6608 85.0534 44.8105 85.0469C44.9473 85.0469 45.1198 85.0566 45.3281 85.0762C45.3216 85.1803 45.2939 85.2731 45.2451 85.3545C45.1963 85.4359 45.1312 85.527 45.0498 85.6279C44.9847 85.7158 44.931 85.8021 44.8887 85.8867C44.8268 86.0202 44.7585 86.1211 44.6836 86.1895C44.599 86.4303 44.4622 86.7542 44.2734 87.1611C43.9382 87.8675 43.7607 88.3249 43.7412 88.5332C43.7738 88.5918 43.9007 88.8587 44.1221 89.334C44.3597 89.8418 44.485 90.1283 44.498 90.1934C44.5339 90.2292 44.6787 90.5173 44.9326 91.0576C45.1898 91.5947 45.3249 91.904 45.3379 91.9854C45.1979 91.9951 45.0352 92 44.8496 92ZM46.2412 92C46.1924 92 46.1419 91.9935 46.0898 91.9805C46.041 91.9674 46.0117 91.9154 46.002 91.8242C46.0378 91.6712 46.0589 91.515 46.0654 91.3555L46.085 91.1406C46.085 90.9811 46.0833 90.8265 46.0801 90.6768C46.0736 90.3773 46.0703 90.0778 46.0703 89.7783C46.0703 89.137 46.0866 88.4909 46.1191 87.8398C46.1582 87.1172 46.1777 86.4889 46.1777 85.9551C46.1777 85.6068 46.168 85.3154 46.1484 85.0811L46.2266 85.0518C46.2526 85.0518 46.2689 85.0501 46.2754 85.0469C46.2819 85.0436 46.2868 85.042 46.29 85.042C46.29 85.029 46.3258 85.0225 46.3975 85.0225C46.5244 85.0225 46.6058 85.0192 46.6416 85.0127C46.6807 85.0062 46.7181 85.0029 46.7539 85.0029C46.806 85.0029 46.8678 85.0143 46.9395 85.0371L47.0273 85.0566H47.1396C47.1852 85.0566 47.2357 85.0615 47.291 85.0713L47.2812 85.2422C47.2357 85.5514 47.2129 85.8916 47.2129 86.2627L47.2227 86.7803C47.2227 87.0277 47.2145 87.262 47.1982 87.4834L47.0957 88.6699C47.0957 88.6764 47.0941 88.6813 47.0908 88.6846C47.0908 88.6846 47.0892 88.6895 47.0859 88.6992C47.1022 88.7546 47.1104 88.818 47.1104 88.8896C47.1104 89.0068 47.0843 89.3568 47.0322 89.9395C47.0648 89.8678 47.1169 89.7441 47.1885 89.5684L47.7744 88.1328C48.0381 87.4948 48.1943 87.1546 48.2432 87.1123C48.2692 87.0049 48.3132 86.8861 48.375 86.7559C48.4206 86.6517 48.4759 86.5101 48.541 86.3311C48.6159 86.113 48.6794 85.9762 48.7314 85.9209V85.9014C48.7314 85.846 48.7542 85.7533 48.7998 85.623C48.8486 85.4798 48.8861 85.4082 48.9121 85.4082H48.917C48.9365 85.3171 48.9707 85.2406 49.0195 85.1787C49.0684 85.1136 49.1335 85.0811 49.2148 85.0811H49.2393C49.415 85.0713 49.6396 85.0664 49.9131 85.0664C50.0368 85.0664 50.1149 85.0697 50.1475 85.0762L50.1426 85.5352C50.1589 85.5742 50.167 85.7858 50.167 86.1699C50.167 86.2773 50.1654 86.4238 50.1621 86.6094C50.1589 86.7949 50.1523 86.9837 50.1426 87.1758C50.1361 87.3646 50.1296 87.4704 50.123 87.4932L50.1328 87.8936C50.1654 88.3005 50.1816 88.7432 50.1816 89.2217C50.1816 89.7002 50.1751 90.1462 50.1621 90.5596V91.0088C50.1621 91.4645 50.1377 91.7689 50.0889 91.9219C50.0498 91.9251 50.0107 91.9316 49.9717 91.9414C49.9359 91.9479 49.8675 91.9544 49.7666 91.9609L49.4883 91.9707C49.4102 91.9707 49.3385 91.9642 49.2734 91.9512C49.1758 91.9284 49.127 91.86 49.127 91.7461V91.7217C49.14 91.5231 49.153 91.126 49.166 90.5303L49.21 88.6016C49.2165 88.276 49.2327 87.8675 49.2588 87.376C49.1872 87.5094 49.0863 87.721 48.9561 88.0107C48.624 88.7464 48.4238 89.2477 48.3555 89.5146C48.3457 89.5505 48.292 89.6986 48.1943 89.959C48.0674 90.2878 47.9827 90.4798 47.9404 90.5352L47.7891 90.8672C47.5938 91.3066 47.4912 91.5508 47.4814 91.5996C47.4424 91.6484 47.4163 91.6973 47.4033 91.7461C47.3643 91.8307 47.3236 91.891 47.2812 91.9268C47.2552 91.9756 47.1559 92 46.9834 92C46.8923 92 46.7979 91.9967 46.7002 91.9902L46.5244 91.9854C46.4756 91.9854 46.4365 91.987 46.4072 91.9902C46.3519 91.9967 46.2965 92 46.2412 92Z" fill="#7BC35A"/>
</svg>
