<svg width="59" height="66" viewBox="0 0 59 66" fill="none" xmlns="http://www.w3.org/2000/svg">
<path d="M47 14.5L57 7.5" stroke="#F8DDC7" stroke-width="4" stroke-linecap="round"/>
<path d="M9.35128 16.3464L4.85037 4.99994" stroke="#F8DDC7" stroke-width="4" stroke-linecap="round"/>
<path fill-rule="evenodd" clip-rule="evenodd" d="M23.7414 0.697761C23.8731 0.282295 24.2588 0 24.6946 0H41.6601C42.3705 0 42.8544 0.720024 42.586 1.37779L34.1171 22.1333C33.8487 22.7911 34.3326 23.5111 35.043 23.5111H47.9312C48.7676 23.5111 49.2345 24.4768 48.7149 25.1323L20.4786 60.7523C19.7891 61.622 18.4075 60.8889 18.7412 59.8304L26.2935 35.8755C26.4967 35.2311 26.0155 34.5748 25.3398 34.5748H14.3661C13.6898 34.5748 13.2085 33.9173 13.4129 33.2726L23.7414 0.697761Z" fill="#FF276C"/>
<path d="M47.0104 45.4569C41.3278 50.231 31.6533 58.2932 26.4317 62.4453C25.9677 62.8142 26.5358 63.9005 27.101 63.722L51.0563 56.1572C51.3276 56.0715 51.4728 55.7769 51.3756 55.5095L47.7983 45.6721C47.6796 45.3456 47.2763 45.2335 47.0104 45.4569Z" fill="#7BC35A"/>
<path d="M15.8682 40.6822C14.8416 46.4872 13.1881 56.0524 12.3382 61.6183C12.2487 62.2043 11.0068 62.2552 10.8788 61.6765L6.56443 42.1744C6.50296 41.8966 6.68544 41.6235 6.96565 41.574L15.2885 40.1039C15.6305 40.0435 15.9287 40.3402 15.8682 40.6822Z" fill="#914BF1"/>
</svg>
