<svg width="180" height="81" viewBox="0 0 180 81" fill="none" xmlns="http://www.w3.org/2000/svg">
<path d="M171.293 52.3941C171.293 52.3941 173.959 54.7137 176.305 60.3647C178.65 66.016 179.29 76.5717 178.117 75.9321C176.944 75.2925 170.014 69.8544 165.322 62.2839C160.631 54.7134 156.792 42.0776 171.293 52.3941Z" fill="white"/>
<path d="M178.215 77.116C177.992 77.116 177.766 77.0575 177.563 76.9471C176.175 76.1897 169.071 70.5293 164.339 62.8928C162.048 59.197 158.648 52.0871 160.432 48.8826C160.983 47.8937 161.978 47.3486 163.234 47.3486C165.228 47.3486 168.083 48.6905 171.963 51.4509C171.994 51.4727 172.024 51.4963 172.052 51.5208C172.169 51.6228 174.951 54.0854 177.372 59.9205C179.381 64.7599 180.566 74.6659 179.354 76.4825C179.085 76.8855 178.67 77.116 178.215 77.116ZM163.234 49.6622C162.646 49.6622 162.521 49.8873 162.453 50.0081C161.587 51.5646 163.351 56.9074 166.305 61.6748C169.977 67.5987 175.155 72.2719 177.537 74.1178C177.623 71.3493 176.893 64.7989 175.237 60.8074C173.185 55.866 170.875 53.5868 170.565 53.2954C166.112 50.1356 164.061 49.6622 163.234 49.6622Z" fill="#58595B"/>
<path d="M160.844 47.8158C160.844 47.8158 169.183 55.5868 169.183 62.7206C169.183 69.8545 169.801 77.8513 168.521 77.8513C167.241 77.8513 155.513 69.3212 151.034 65.0564C146.556 60.7917 153.487 39.2119 160.844 47.8158Z" fill="white"/>
<path d="M168.521 79.007C168.118 79.007 167.173 79.007 160.296 73.9862C157.066 71.6289 152.728 68.2649 150.237 65.8928C147.554 63.338 148.22 56.6783 150.207 51.7093C152.002 47.2239 154.592 44.6509 157.316 44.6509C158.855 44.6509 160.323 45.4456 161.68 47.0136C162.448 47.7393 170.339 55.3799 170.339 62.7192C170.339 64.5463 170.38 66.4207 170.419 68.2333C170.567 75.0919 170.535 77.5787 169.584 78.5494C169.296 78.8445 168.918 79.007 168.521 79.007ZM157.316 46.9641C155.639 46.9641 153.738 49.1118 152.355 52.5683C150.48 57.2543 150.236 62.6981 151.832 64.2179C155.893 68.0859 165.203 74.8627 168.02 76.4071C168.249 74.8792 168.171 71.2726 168.106 68.2838C168.067 66.4588 168.026 64.5722 168.026 62.7199C168.026 56.1783 160.135 48.7353 160.055 48.6609C160.023 48.6313 159.993 48.5993 159.965 48.5667C159.056 47.5035 158.164 46.9641 157.316 46.9641Z" fill="#58595B"/>
<path d="M148.164 45.1791C149.893 46.8994 154.353 51.5575 154.353 60.7434C154.353 69.9294 154.353 77.8027 150.618 79.4181C146.883 81.0332 138.913 76.215 132.452 60.5685C127.913 49.5757 143.821 40.8595 148.164 45.1791Z" fill="white"/>
<path d="M149.093 80.8704C144.706 80.8704 137.436 75.6689 131.383 61.01C129.457 56.3455 130.973 52.4953 132.584 50.0872C135.327 45.9867 140.625 42.8945 144.906 42.8945C146.607 42.8945 148.015 43.4013 148.979 44.3595C150.594 45.9658 155.509 50.8547 155.509 60.7435C155.509 70.6993 155.509 78.5629 151.077 80.4791C150.477 80.7388 149.809 80.8704 149.093 80.8704ZM144.906 45.2071C141.821 45.2071 137.088 47.5136 134.507 51.3729C133.209 53.3126 131.984 56.4058 133.521 60.1271C138.749 72.7901 145.258 78.5572 149.092 78.5572C149.492 78.5572 149.851 78.4896 150.159 78.3563C153.196 77.0427 153.196 69.1256 153.196 60.7432C153.196 51.816 148.794 47.4375 147.348 45.9988C146.69 45.3447 145.657 45.2071 144.906 45.2071Z" fill="#58595B"/>
<path d="M8.54992 52.3931C8.54992 52.3931 5.88441 54.7127 3.53855 60.3637C1.19269 66.015 0.553064 76.5707 1.72599 75.9311C2.89892 75.2915 9.82951 69.8535 14.5212 62.2829C19.2123 54.7124 23.051 42.0766 8.54992 52.3931Z" fill="white"/>
<path d="M1.62806 77.1157C1.62772 77.1157 1.62705 77.1157 1.62671 77.1157C1.1718 77.1153 0.757274 76.8839 0.488772 76.4814C-0.723189 74.6645 0.462191 64.7585 2.47057 59.9205C4.89247 54.0857 7.67373 51.6228 7.79082 51.5208C7.81908 51.4963 7.84903 51.4727 7.87964 51.4509C11.7598 48.6905 14.6154 47.3486 16.609 47.3486C17.865 47.3486 18.86 47.8934 19.4108 48.8826C21.1947 52.0868 17.7944 59.1967 15.504 62.8928C10.7713 70.5296 3.66807 76.1901 2.27979 76.9471C2.0769 77.0575 1.85147 77.1157 1.62806 77.1157ZM9.277 53.2954C8.97855 53.576 6.66264 55.8542 4.60681 60.807C2.95004 64.7982 2.22091 71.3489 2.30671 74.1174C4.68857 72.2715 9.86649 67.599 13.5384 61.6745C16.4929 56.907 18.257 51.5642 17.3903 50.0077C17.323 49.887 17.1978 49.6619 16.6093 49.6619C15.7816 49.6619 13.7308 50.1353 9.277 53.2954Z" fill="#58595B"/>
<path d="M18.9993 47.8158C18.9993 47.8158 10.6606 55.5869 10.6606 62.7207C10.6606 69.8545 10.0428 77.8514 11.3221 77.8514C12.6017 77.8514 24.3303 69.3212 28.8087 65.0565C33.2871 60.791 26.3562 39.212 18.9993 47.8158Z" fill="white"/>
<path d="M11.322 79.0072C10.9247 79.0072 10.5472 78.8447 10.2585 78.5499C9.30828 77.5789 9.27564 75.0927 9.42436 68.2345C9.46372 66.4216 9.5041 64.5471 9.5041 62.7197C9.5041 55.381 17.395 47.7402 18.1625 47.0141C19.5194 45.4461 20.9874 44.6514 22.5275 44.6514C25.2505 44.6514 27.8413 47.224 29.6357 51.7098C31.6236 56.6788 32.2888 63.3385 29.6064 65.8933C27.1152 68.2658 22.7771 71.6298 19.5477 73.9867C12.6696 79.0072 11.7251 79.0072 11.322 79.0072ZM22.5271 46.9643C21.6786 46.9643 20.7872 47.5033 19.8778 48.5665C19.8498 48.5995 19.8192 48.6311 19.7876 48.6607C19.7079 48.7351 11.8167 56.1781 11.8167 62.7197C11.8167 64.572 11.7756 66.4593 11.7362 68.2846C11.6716 71.2734 11.5932 74.8794 11.8227 76.4073C14.6393 74.8629 23.9494 68.0864 28.0109 64.218C29.6068 62.6982 29.3622 57.2545 27.4877 52.5688C26.1055 49.1119 24.2044 46.9643 22.5271 46.9643Z" fill="#58595B"/>
<path d="M31.6797 45.1781C29.9502 46.8985 25.4904 51.5565 25.4904 60.7425C25.4904 69.9284 25.4904 77.8018 29.2252 79.4172C32.96 81.0322 40.9309 76.214 47.3911 60.5675C51.9301 49.5747 36.0222 40.8585 31.6797 45.1781Z" fill="white"/>
<path d="M30.7511 80.8701C30.7508 80.8701 30.7508 80.8701 30.7508 80.8701C30.0338 80.8701 29.3662 80.7385 28.7663 80.4791C24.334 78.5629 24.334 70.6993 24.334 60.7435C24.334 50.854 29.2491 45.9655 30.8642 44.3595C31.8275 43.4009 33.2359 42.8945 34.9375 42.8945C39.2187 42.8945 44.5161 45.9867 47.2589 50.0872C48.87 52.4953 50.3861 56.3452 48.4601 61.01C42.4074 75.6683 35.1373 80.8701 30.7511 80.8701ZM34.9375 45.2067C34.1865 45.2067 33.1532 45.344 32.4954 45.9988C31.0489 47.4375 26.6469 51.8157 26.6469 60.7432C26.6469 69.1253 26.6469 77.0424 29.6842 78.3563C29.9924 78.4896 30.3514 78.5572 30.7508 78.5572C34.5852 78.5575 41.0935 72.7901 46.3222 60.1271C47.8585 56.4058 46.6341 53.3126 45.3364 51.3729C42.7546 47.5132 38.0215 45.2067 34.9375 45.2067Z" fill="#58595B"/>
<path d="M111.402 48.2005C111.402 42.1754 89.9215 42.1754 89.9215 48.2005C89.9215 58.6182 91.6631 74.9023 100.662 74.9023C109.66 74.9023 111.402 58.6179 111.402 48.2005Z" fill="white"/>
<path d="M100.662 76.0589C89.9241 76.0589 88.765 56.577 88.765 48.2006C88.765 44.2801 94.74 42.5254 100.662 42.5254C106.584 42.5254 112.559 44.2801 112.559 48.2006C112.559 56.5767 111.4 76.0589 100.662 76.0589ZM100.662 44.8383C95.3773 44.8383 91.0782 46.3463 91.0782 48.2006C91.0782 54.1935 91.7693 73.7457 100.662 73.7457C109.555 73.7457 110.246 54.1935 110.246 48.2006C110.246 46.3463 105.946 44.8383 100.662 44.8383Z" fill="#58595B"/>
<path d="M133.001 49.9978C133.001 43.6049 111.402 43.6049 111.402 49.9978C111.402 61.0515 115.96 78.3298 124.289 78.3298C132.01 78.3298 133.001 61.0515 133.001 49.9978Z" fill="white"/>
<path d="M124.289 79.4865C120.017 79.4865 116.336 75.7644 113.642 68.7221C111.547 63.2448 110.246 56.0699 110.246 49.9983C110.246 45.887 116.251 44.0469 122.202 44.0469C128.152 44.0469 134.157 45.887 134.157 49.9983C134.158 69.8406 130.929 79.4865 124.289 79.4865ZM122.202 46.3598C116.795 46.3598 112.559 47.958 112.559 49.998C112.559 61.0782 117.128 77.1732 124.289 77.1732C129.161 77.1732 131.845 67.5223 131.845 49.998C131.845 47.958 127.609 46.3598 122.202 46.3598Z" fill="#58595B"/>
<path d="M68.4409 48.2005C68.4409 42.1754 89.9218 42.1754 89.9218 48.2005C89.9218 58.6182 88.1802 74.9023 79.1813 74.9023C70.1825 74.9023 68.4409 58.6179 68.4409 48.2005Z" fill="white"/>
<path d="M79.181 76.0589C68.4433 76.0589 67.2842 56.577 67.2842 48.2006C67.2842 44.2801 73.2592 42.5254 79.181 42.5254C85.1029 42.5254 91.0779 44.2801 91.0779 48.2006C91.0782 56.5767 89.9188 76.0589 79.181 76.0589ZM79.181 44.8383C73.8965 44.8383 69.5971 46.3463 69.5971 48.2006C69.5971 54.1935 70.2882 73.7457 79.181 73.7457C88.0739 73.7457 88.765 54.1935 88.765 48.2006C88.765 46.3463 84.4656 44.8383 79.181 44.8383Z" fill="#58595B"/>
<path d="M46.8418 49.9978C46.8418 43.6049 68.4407 43.6049 68.4407 49.9978C68.4407 61.0515 63.8826 78.3298 55.5543 78.3298C47.8337 78.3298 46.8418 61.0515 46.8418 49.9978Z" fill="url(#paint0_linear_2518_3277)"/>
<path d="M55.5543 79.4868C48.9137 79.4868 45.6853 69.8409 45.6853 49.9983C45.6853 45.887 51.6903 44.0469 57.6414 44.0469C63.5922 44.0469 69.5971 45.887 69.5971 49.9983C69.5971 56.0703 68.2957 63.2448 66.2008 68.7221C63.5074 75.7648 59.8261 79.4868 55.5543 79.4868ZM57.6414 46.3601C52.234 46.3601 47.9982 47.9583 47.9982 49.9983C47.9982 67.5226 50.6815 77.1736 55.5543 77.1736C62.7147 77.1736 67.2842 61.0786 67.2842 49.9983C67.2842 47.9583 63.0488 46.3601 57.6414 46.3601Z" fill="#58595B"/>
<path d="M148.465 32.774C148.465 32.774 149.887 20.1928 151.108 15.6081C152.329 11.023 156.232 6.61865 159.873 8.98705C163.514 11.3555 172.12 28.3391 173.072 35.3386C174.024 42.3382 171.841 49.3145 164.754 48.5443C157.668 47.7742 147.393 46.4582 148.465 32.774Z" fill="url(#paint1_linear_2518_3277)"/>
<path d="M164.586 49.6565C161.187 49.2871 156.53 48.781 152.897 46.4439C148.698 43.7431 146.823 39.1294 147.324 32.7308C147.325 32.7184 147.326 32.7056 147.328 32.6931C147.386 32.176 148.772 19.9773 150.001 15.365C150.863 12.1278 152.875 9.2177 155.125 7.95123C156.943 6.92836 158.863 6.96302 160.531 8.04881C164.526 10.6474 173.217 27.8709 174.207 35.1507C175.083 41.5947 173.422 46.6714 169.763 48.7312C169.762 48.7312 169.762 48.7316 169.762 48.7316C168.292 49.5586 166.55 49.8699 164.586 49.6565ZM152.215 15.8515C151.05 20.2239 149.668 32.286 149.605 32.8371C148.686 44.6775 156.326 46.4978 164.923 47.4325C166.388 47.5916 167.651 47.3797 168.676 46.8026L168.677 46.8023C171.96 44.954 172.514 39.766 171.937 35.5269C170.975 28.4526 162.442 12.0255 159.214 9.92563C158.251 9.29912 157.269 9.28432 156.21 9.87987C154.519 10.8321 152.913 13.2318 152.215 15.8515Z" fill="#58595B"/>
<path d="M151.18 40.6256C151.18 48.9232 124.539 48.9232 124.539 40.6256C124.539 26.2785 129.851 8.38916 137.86 8.38916C149.02 8.38916 151.18 26.2785 151.18 40.6256Z" fill="url(#paint2_linear_2518_3277)"/>
<path d="M137.86 48.0055C130.654 48.0055 123.383 45.7239 123.383 40.6258C123.383 33.1945 124.778 25.0069 127.113 18.7247C129.907 11.2066 133.623 7.23291 137.86 7.23291C143.422 7.23291 147.443 11.1201 149.81 18.7862C151.487 24.2148 152.337 31.5626 152.337 40.6258C152.336 45.7239 145.066 48.0055 137.86 48.0055ZM137.86 9.54613C131.01 9.54613 125.697 26.2532 125.697 40.6258C125.697 43.9168 131.963 45.6926 137.86 45.6926C143.756 45.6926 150.023 43.9171 150.023 40.6258C150.023 26.4473 147.913 9.54613 137.86 9.54613Z" fill="#58595B"/>
<path d="M32.4136 32.7743C32.4136 32.7743 30.9923 20.1931 29.7709 15.6084C28.5496 11.0236 24.6472 6.61859 21.0063 8.98699C17.3653 11.3554 8.7588 28.339 7.8066 35.3386C6.85439 42.3381 9.03841 49.3145 16.1244 48.5443C23.2105 47.7744 33.4856 46.4585 32.4136 32.7743Z" fill="url(#paint3_linear_2518_3277)"/>
<path d="M11.1171 48.7314C11.1167 48.7314 11.1164 48.7311 11.1161 48.7311C7.45664 46.6712 5.7955 41.5943 6.67166 35.1506C7.66189 27.8711 16.3529 10.6472 20.3474 8.04868C22.0163 6.96289 23.9359 6.92857 25.7535 7.9511C28.0041 9.21757 30.0159 12.1277 30.8779 15.3649C32.1067 19.9772 33.4929 32.1758 33.5511 32.693C33.5525 32.7058 33.5538 32.7182 33.5548 32.7307C34.0562 39.129 32.1814 43.7426 27.9822 46.4438C24.3484 48.7809 19.6927 49.287 16.293 49.6564C14.329 49.8697 12.5871 49.5585 11.1171 48.7314ZM24.668 9.87974C23.6098 9.28419 22.6277 9.29899 21.6647 9.9255C18.437 12.0254 9.90344 28.4525 8.94114 35.5267C8.36477 39.7656 8.91826 44.9539 12.2015 46.8021C12.2015 46.8021 12.2019 46.8025 12.2022 46.8025C13.2278 47.3795 14.4905 47.5915 15.9555 47.4323C24.5526 46.4976 32.1925 44.6777 31.2732 32.837C31.2103 32.2855 29.8281 20.2235 28.6636 15.8514C27.9661 13.2316 26.3601 10.8319 24.668 9.87974Z" fill="#58595B"/>
<path d="M28.275 40.6256C28.275 48.9232 54.9153 48.9232 54.9153 40.6256C54.9153 26.2785 49.6034 8.38916 41.5951 8.38916C30.4348 8.38916 28.275 26.2785 28.275 40.6256Z" fill="url(#paint4_linear_2518_3277)"/>
<path d="M41.5952 48.0055C34.3894 48.0055 27.1187 45.7239 27.1187 40.6258C27.1187 31.563 27.9686 24.2148 29.6452 18.7862C32.0126 11.1201 36.0334 7.23291 41.5952 7.23291C45.8317 7.23291 49.548 11.2066 52.3424 18.7247C54.6775 25.0069 56.0718 33.1945 56.0718 40.6258C56.0718 45.7239 48.801 48.0055 41.5952 48.0055ZM41.5952 9.54613C31.5419 9.54613 29.4315 26.4473 29.4315 40.6258C29.4315 43.9168 35.6986 45.6926 41.5952 45.6926C47.4918 45.6926 53.7589 43.9171 53.7589 40.6258C53.7589 26.2532 48.4454 9.54613 41.5952 9.54613Z" fill="#58595B"/>
<path d="M124.54 43.5733C124.54 51.9399 89.7277 51.9399 89.7277 43.5733C89.7277 29.1075 92.5503 6.49512 107.134 6.49512C121.717 6.49512 124.54 29.1072 124.54 43.5733Z" fill="white"/>
<path d="M107.134 51.0041C98.5704 51.0041 88.5709 49.058 88.5709 43.5729C88.5709 32.0767 90.3798 5.33789 107.134 5.33789C123.887 5.33789 125.696 32.0767 125.696 43.5729C125.696 49.058 115.697 51.0041 107.134 51.0041ZM107.134 7.65111C101.229 7.65111 96.8295 11.7991 94.057 19.98C91.2963 28.1269 90.8838 38.2583 90.8838 43.5729C90.8838 46.4429 98.0217 48.6912 107.134 48.6912C116.245 48.6912 123.383 46.4429 123.383 43.5729C123.383 38.2587 122.971 28.1269 120.21 19.98C117.438 11.7991 113.038 7.65111 107.134 7.65111Z" fill="#58595B"/>
<path d="M54.9153 43.5733C54.9153 51.9399 89.7274 51.9399 89.7274 43.5733C89.7274 29.1075 86.9047 6.49512 72.3212 6.49512C57.7376 6.49512 54.9153 29.1072 54.9153 43.5733Z" fill="white"/>
<path d="M72.3214 51.0041C63.7583 51.0041 53.7588 49.058 53.7588 43.5729C53.7588 32.0767 55.5676 5.33789 72.3214 5.33789C89.0752 5.33789 90.8841 32.0767 90.8841 43.5729C90.8841 49.058 80.8842 51.0041 72.3214 51.0041ZM72.3214 7.65111C66.4171 7.65111 62.0174 11.7991 59.2449 19.98C56.4838 28.1269 56.0717 38.2583 56.0717 43.5729C56.0717 46.4429 63.2092 48.6912 72.3214 48.6912C81.4333 48.6912 88.5709 46.4429 88.5709 43.5729C88.5709 38.2583 88.1587 28.1269 85.3976 19.98C82.6255 11.7991 78.2258 7.65111 72.3214 7.65111Z" fill="#58595B"/>
<path d="M35.9957 2.19011C30.4153 4.89633 20.867 10.2492 20.5841 18.3086C20.3014 26.3677 21.4323 30.8922 26.0984 32.1648C30.7646 33.4373 42.217 19.5812 42.217 11.3804C42.217 3.17966 38.5569 0.948204 35.9957 2.19011Z" fill="url(#paint5_linear_2518_3277)" stroke="#59585B" stroke-width="2.5" stroke-miterlimit="10" stroke-linejoin="round"/>
<path d="M142.629 2.19011C148.21 4.89633 157.758 10.2492 158.041 18.3086C158.324 26.3677 157.193 30.8922 152.527 32.1648C147.861 33.4373 136.408 19.5812 136.408 11.3804C136.408 3.17966 140.068 0.948204 142.629 2.19011Z" fill="url(#paint6_linear_2518_3277)" stroke="#59585B" stroke-width="2.5" stroke-miterlimit="10" stroke-linejoin="round"/>
<defs>
<linearGradient id="paint0_linear_2518_3277" x1="54.9441" y1="58.9126" x2="53.6419" y2="70.0039" gradientUnits="userSpaceOnUse">
<stop stop-color="#FAFAFA"/>
<stop offset="1" stop-color="white"/>
</linearGradient>
<linearGradient id="paint1_linear_2518_3277" x1="156.5" y1="32.3696" x2="159.71" y2="40.2846" gradientUnits="userSpaceOnUse">
<stop stop-color="#E0E0E0"/>
<stop offset="1" stop-color="white"/>
</linearGradient>
<linearGradient id="paint2_linear_2518_3277" x1="142.094" y1="32.3037" x2="134.918" y2="38.5348" gradientUnits="userSpaceOnUse">
<stop stop-color="#EEEEEE"/>
<stop offset="1" stop-color="white"/>
</linearGradient>
<linearGradient id="paint3_linear_2518_3277" x1="24" y1="33.3701" x2="16.6509" y2="39.0649" gradientUnits="userSpaceOnUse">
<stop stop-color="#E0E0E0"/>
<stop offset="1" stop-color="white"/>
</linearGradient>
<linearGradient id="paint4_linear_2518_3277" x1="38.5" y1="29.8701" x2="44" y2="38.8701" gradientUnits="userSpaceOnUse">
<stop stop-color="#EEEEEE"/>
<stop offset="1" stop-color="white"/>
</linearGradient>
<linearGradient id="paint5_linear_2518_3277" x1="31" y1="27.8701" x2="25.5861" y2="13.2649" gradientUnits="userSpaceOnUse">
<stop stop-color="#F1F1F1"/>
<stop offset="1" stop-color="white"/>
</linearGradient>
<linearGradient id="paint6_linear_2518_3277" x1="146.864" y1="27.8701" x2="141.451" y2="13.2649" gradientUnits="userSpaceOnUse">
<stop stop-color="#F1F1F1"/>
<stop offset="1" stop-color="white"/>
</linearGradient>
</defs>
</svg>
