<svg width="186" height="118" viewBox="0 0 186 118" fill="none" xmlns="http://www.w3.org/2000/svg">
<path d="M97.7448 0.870117C128.664 0.870117 151 22.6664 151 54.7108C151 86.7553 128.664 117.87 97.7448 117.87C66.8261 117.87 34 93.4854 34 61.4409C34 29.3965 66.8261 0.870117 97.7448 0.870117Z" fill="white"/>
<path d="M172.247 47.3122C172.247 47.3122 177.67 41.0813 181.276 38.2655C184.882 35.4498 185.274 39.1778 184.647 42.7889C184.02 46.3998 182.766 53.9086 181.119 60.5568C179.473 67.2051 175.632 72.3647 170.458 67.4776C165.283 62.5903 163.88 55.8217 172.247 47.3122Z" fill="url(#paint0_linear_2518_2788)"/>
<path d="M174.428 70.5061C173.151 70.5063 171.525 70.0025 169.698 68.2774C166.755 65.4977 165.232 62.4108 165.171 59.1027C165.097 55.0932 167.204 50.8748 171.435 46.564C171.871 46.0652 177.028 40.183 180.596 37.3976C182.171 36.1673 183.502 35.8615 184.552 36.4877C186.282 37.5207 186.151 40.5866 185.735 42.9767L185.577 43.8946C184.927 47.6554 183.718 54.6555 182.192 60.8207C180.9 66.0379 178.558 69.4983 175.768 70.3148C175.382 70.4277 174.932 70.5061 174.428 70.5061ZM183.393 38.3777C183.291 38.3777 182.863 38.4253 181.957 39.133C178.477 41.8504 173.135 47.973 173.081 48.0344C173.067 48.0512 173.051 48.0678 173.036 48.0837C169.22 51.9649 167.316 55.6584 167.379 59.062C167.429 61.7569 168.72 64.319 171.217 66.6769C172.65 68.031 173.972 68.5433 175.146 68.2001C177.103 67.6274 178.981 64.5973 180.047 60.2922C181.555 54.2036 182.755 47.254 183.4 43.5204L183.559 42.6005C184.052 39.762 183.628 38.5127 183.417 38.3789C183.417 38.3789 183.417 38.3789 183.417 38.3789C183.417 38.3789 183.409 38.3777 183.393 38.3777ZM172.247 47.3119H172.249H172.247Z" fill="#58595B"/>
<path d="M150.929 44.3329C150.929 44.3329 158.005 34.1095 161.168 30.7274C164.332 27.3452 169.643 25.4287 171.564 29.2617C173.485 33.0949 172.694 52.0349 170.208 58.5738C167.722 65.1127 162.637 70.1 157.1 65.9716C151.564 61.8432 143.628 55.6837 150.929 44.3329Z" fill="url(#paint1_linear_2518_2788)"/>
<path d="M161.194 68.5764C159.586 68.5764 157.97 67.9958 156.439 66.8542C153.783 64.8735 150.145 62.1609 148.215 58.3584C145.985 53.9643 146.586 49.0452 150 43.7377C150.007 43.7272 150.013 43.7169 150.02 43.7068C150.311 43.2867 157.178 33.3776 160.361 29.9754C162.457 27.7351 165.915 25.6674 168.922 26.1022C170.54 26.3356 171.795 27.2578 172.552 28.769C174.66 32.9744 173.827 52.1641 171.241 58.9646C169.348 63.9454 166.376 67.3496 163.089 68.3041C162.462 68.486 161.829 68.5764 161.194 68.5764ZM151.849 44.9439C145.538 54.77 151.044 60.0803 157.762 65.089C159.342 66.2669 160.926 66.6368 162.472 66.188C165.048 65.4398 167.555 62.4473 169.176 58.1828C170.278 55.2838 171.144 49.4101 171.436 42.8543C171.714 36.5997 171.369 31.3353 170.577 29.7546C170.145 28.8937 169.5 28.4125 168.606 28.2833C166.717 28.012 163.991 29.325 161.976 31.4793C158.959 34.7045 152.159 44.4961 151.849 44.9439Z" fill="#58595B"/>
<path d="M151.689 57.1854C151.689 65.0916 126.247 65.0916 126.247 57.1854C126.247 43.5153 131.32 26.4697 138.968 26.4697C149.626 26.4699 151.689 43.5153 151.689 57.1854Z" fill="url(#paint2_linear_2518_2788)"/>
<path d="M138.968 64.2164C135.493 64.2164 132.237 63.6599 129.798 62.6495C125.95 61.055 125.142 58.7976 125.142 57.1847C125.142 50.1039 126.474 42.3027 128.704 36.3166C129.916 33.0633 131.332 30.4772 132.914 28.6303C134.768 26.465 136.805 25.3672 138.968 25.3672C144.28 25.3672 148.119 29.071 150.381 36.3754C151.982 41.5479 152.793 48.5492 152.793 57.1848C152.793 58.7978 151.986 61.0553 148.137 62.6497C145.699 63.6599 142.442 64.2164 138.968 64.2164ZM138.968 27.571C136.013 27.571 133.027 31.0385 130.774 37.0845C128.631 42.838 127.351 50.3521 127.351 57.1847C127.351 60.3205 133.336 62.0125 138.968 62.0125C144.599 62.0125 150.584 60.3205 150.584 57.1847C150.584 48.7698 149.806 41.9873 148.27 37.0257C146.301 30.6637 143.258 27.571 138.968 27.571Z" fill="#58595B"/>
<path d="M13.7526 47.3112C13.7526 47.3112 8.32995 41.0803 4.72377 38.2646C1.1176 35.4488 0.725566 39.1768 1.35282 42.7879C1.97994 46.3988 3.23431 53.9076 4.88059 60.5558C6.52686 67.2041 10.3683 72.3637 15.5424 67.4766C20.7165 62.5893 22.1198 55.8207 13.7526 47.3112Z" fill="url(#paint3_linear_2518_2788)"/>
<path d="M11.5717 70.5058C11.0676 70.5059 10.6183 70.4274 10.2325 70.3145C7.44179 69.498 5.10027 66.0375 3.80849 60.8204C2.28137 54.6539 1.07237 47.6531 0.422881 43.892L0.264526 42.9763C-0.150642 40.5861 -0.282262 37.5204 1.4482 36.4873C2.49769 35.8609 3.82893 36.1669 5.40438 37.3971C8.97187 40.1827 14.1289 46.0649 14.5643 46.5636C18.7955 50.8743 20.9033 55.0928 20.829 59.1022C20.7677 62.4104 19.2445 65.4972 16.3016 68.2769C14.4752 70.0022 12.8485 70.5058 11.5717 70.5058ZM2.60849 38.3788C2.58805 38.3788 2.57816 38.3807 2.57751 38.3808C2.37211 38.5124 1.94795 39.7618 2.44088 42.6001L2.59962 43.5178C3.24448 47.2517 4.44461 54.2018 5.95258 60.2919C7.01865 64.597 8.89668 67.6271 10.8539 68.1998C12.0273 68.5432 13.3494 68.0308 14.7828 66.6766C17.2793 64.3187 18.5705 61.7566 18.6203 59.0617C18.6833 55.6581 16.7804 51.9643 12.964 48.0833C12.9484 48.0674 12.9332 48.0509 12.9185 48.0341C12.8649 47.9725 7.52315 41.8501 4.04294 39.1327C3.14885 38.4344 2.72096 38.3788 2.60849 38.3788Z" fill="#58595B"/>
<path d="M35.0707 44.3329C35.0707 44.3329 27.9954 34.1095 24.8315 30.7274C21.6675 27.3452 16.3566 25.4287 14.4356 29.2617C12.5147 33.0949 13.3057 52.0349 15.7917 58.5738C18.2777 65.1127 23.3626 70.1 28.8995 65.9716C34.4364 61.8432 42.372 55.6837 35.0707 44.3329Z" fill="url(#paint4_linear_2518_2788)"/>
<path d="M24.8058 68.5765C24.1711 68.5765 23.538 68.4862 22.9111 68.3041C19.6239 67.3496 16.6526 63.9455 14.759 58.9646C12.1735 52.1641 11.3402 32.9744 13.4478 28.769C14.2052 27.2578 15.4606 26.3357 17.0783 26.1023C20.0832 25.6673 23.5431 27.735 25.6391 29.9755C28.8219 33.3776 35.689 43.2867 35.9799 43.7068C35.987 43.717 35.9938 43.7272 36.0006 43.7377C39.4146 49.0453 40.015 53.9644 37.7852 58.3584C35.8553 62.1611 32.2174 64.8737 29.561 66.8542C28.0299 67.9957 26.4141 68.5765 24.8058 68.5765ZM17.9094 28.2478C17.7319 28.2478 17.5601 28.2596 17.3945 28.2834C16.4996 28.4126 15.855 28.8938 15.4235 29.7546C14.6314 31.3353 14.2861 36.5997 14.5644 42.8543C14.8562 49.4101 15.722 55.2838 16.8243 58.1829C18.4455 62.4473 20.9517 65.4399 23.5284 66.1882C25.0736 66.6363 26.6584 66.2669 28.2385 65.089C34.956 60.0803 40.4624 54.7701 34.1516 44.9438C33.8404 44.495 27.0412 34.7042 24.0242 31.4793C22.1856 29.5141 19.7553 28.2478 17.9094 28.2478Z" fill="#58595B"/>
<path d="M34.311 57.1854C34.311 65.0916 59.7533 65.0916 59.7533 57.1854C59.7533 43.5153 54.6804 26.4697 47.0321 26.4697C36.374 26.4699 34.311 43.5153 34.311 57.1854Z" fill="url(#paint5_linear_2518_2788)"/>
<path d="M47.0322 64.2165C43.5575 64.2165 40.3011 63.66 37.8628 62.6497C34.0143 61.0551 33.2065 58.7978 33.2065 57.1848C33.2065 48.5492 34.0183 41.5479 35.6193 36.3754C37.8804 29.071 41.7203 25.3672 47.0321 25.3672C49.1953 25.3672 51.2322 26.4652 53.0862 28.6303C54.6677 30.4772 56.084 33.0633 57.2961 36.3166C59.5263 42.3027 60.8578 50.1038 60.8578 57.1846C60.8578 58.7976 60.05 61.0551 56.2016 62.6495C53.7633 63.66 50.5069 64.2165 47.0322 64.2165ZM47.0322 27.5711C42.7421 27.5711 39.6994 30.6637 37.73 37.0258C36.1941 41.9874 35.4155 48.7699 35.4155 57.1848C35.4155 60.3206 41.4007 62.0126 47.0322 62.0126C52.6637 62.0126 58.6489 60.3206 58.6489 57.1848C58.6489 50.3522 57.3693 42.8381 55.2257 37.0846C52.9732 31.0388 49.9867 27.5711 47.0322 27.5711Z" fill="#58595B"/>
<path d="M126.247 59.9927C126.247 67.9645 93.0001 67.9645 93.0001 59.9927C93.0001 46.2091 95.6957 24.6636 109.623 24.6636C123.551 24.6636 126.247 46.2091 126.247 59.9927Z" fill="url(#paint6_linear_2518_2788)"/>
<path d="M109.623 67.0735C105.157 67.0735 100.979 66.524 97.8578 65.5262C92.93 63.9508 91.8956 61.6475 91.8956 59.9927C91.8956 53.6417 92.4416 44.4636 95.0428 36.8057C96.4003 32.8089 98.1907 29.6685 100.364 27.4715C102.931 24.877 106.046 23.5615 109.623 23.5615C113.201 23.5615 116.316 24.877 118.883 27.4713C121.056 29.6682 122.846 32.8087 124.204 36.8055C126.805 44.4635 127.351 53.6415 127.351 59.9925C127.351 61.6473 126.317 63.9506 121.389 65.526C118.268 66.524 114.09 67.0735 109.623 67.0735ZM109.623 25.7653C103.984 25.7653 99.7826 29.7177 97.1349 37.5127C94.4982 45.2751 94.1046 54.9287 94.1046 59.9925C94.1046 62.7273 100.921 64.8695 109.623 64.8695C118.326 64.8695 125.142 62.7273 125.142 59.9925C125.142 54.9289 124.749 45.2751 122.112 37.5127C119.464 29.7179 115.262 25.7653 109.623 25.7653Z" fill="#58595B"/>
<path d="M93.0001 59.9927C93.0001 67.9645 59.7535 67.9645 59.7535 59.9927C59.7535 46.2091 62.4491 24.6636 76.3768 24.6636C90.3044 24.6636 93.0001 46.2091 93.0001 59.9927Z" fill="url(#paint7_linear_2518_2788)"/>
<path d="M76.3762 67.0738C71.91 67.0738 67.7316 66.5243 64.6107 65.5265C59.6829 63.951 58.6484 61.6478 58.6484 59.993C58.6484 53.642 59.1945 44.4638 61.7956 36.8059C63.1532 32.8091 64.9436 29.6687 67.117 27.4717C69.6834 24.8775 72.7987 23.562 76.3761 23.562C79.9535 23.562 83.0688 24.8775 85.6353 27.4717C87.8086 29.6687 89.599 32.8091 90.9566 36.8059C93.5578 44.464 94.1038 53.642 94.1038 59.993C94.1038 61.6478 93.0695 63.951 88.1417 65.5265C85.021 66.5241 80.8424 67.0738 76.3762 67.0738ZM76.3762 25.7657C70.7373 25.7657 66.5356 29.7181 63.8878 37.5131C61.2511 45.2754 60.8574 54.9292 60.8574 59.9928C60.8574 62.7277 67.6742 64.8699 76.3762 64.8699C85.0784 64.8699 91.895 62.7277 91.895 59.9928C91.895 54.9292 91.5013 45.2753 88.8647 37.5131C86.217 29.7181 82.0153 25.7657 76.3762 25.7657Z" fill="#58595B"/>
<path d="M170.898 68.3981C170.898 68.3981 173.443 70.6082 175.684 75.9927C177.924 81.3773 178.535 91.4352 177.415 90.8257C176.294 90.216 169.676 85.0347 165.195 77.8214C160.714 70.6081 157.049 58.5684 170.898 68.3981Z" fill="white"/>
<path d="M177.508 91.9533C177.297 91.9533 177.084 91.9004 176.886 91.7927C175.56 91.0711 168.776 85.6777 164.256 78.4014C163.983 77.9617 157.607 67.5959 161.061 64.3632C162.843 62.6943 166.172 63.6912 171.538 67.4997C171.567 67.5205 171.596 67.5428 171.623 67.5664C171.735 67.6636 174.391 70.0103 176.704 75.5699C178.073 78.8606 178.654 83.1785 178.841 84.8822C179.469 90.6286 178.664 91.3512 178.361 91.6232C178.118 91.8412 177.816 91.9533 177.508 91.9533ZM163.23 65.7974C162.791 65.7974 162.616 65.9292 162.572 65.9702C161.567 66.9116 162.904 72.0398 166.134 77.2406C169.635 82.8765 174.57 87.3239 176.85 89.0885C176.881 88.1125 176.823 86.5743 176.588 84.6258C176.2 81.4137 175.498 78.4209 174.664 76.4149C172.705 71.7067 170.499 69.5349 170.203 69.2569C166.078 66.3365 164.116 65.7974 163.23 65.7974Z" fill="#58595B"/>
<path d="M160.918 64.0355C160.918 64.0355 168.882 71.4399 168.882 78.2371C168.882 85.0344 169.472 92.6541 168.25 92.6541C167.028 92.6541 155.827 84.5265 151.55 80.4626C147.273 76.3988 153.892 55.8376 160.918 64.0355Z" fill="white"/>
<path d="M168.25 93.7556C167.865 93.7556 166.963 93.7556 160.394 88.9719C157.31 86.7258 153.167 83.5205 150.788 81.2602C148.488 79.0742 148.889 73.9333 149.932 70.1951C151.024 66.2831 153.357 61.8451 156.63 61.1218C157.866 60.8487 159.748 61.0024 161.717 63.2721C162.45 63.9635 169.986 71.2439 169.986 78.2366C169.986 79.9775 170.025 81.7636 170.063 83.491C170.205 90.0254 170.173 92.3946 169.266 93.3197C168.99 93.6008 168.629 93.7556 168.25 93.7556ZM157.535 63.2267C157.392 63.2267 157.249 63.2423 157.108 63.2735C155.227 63.6892 153.198 66.7083 152.061 70.7863C150.956 74.7431 151.062 78.477 152.312 79.6642C156.19 83.3497 165.082 89.8067 167.772 91.2783C167.991 89.8225 167.916 86.3866 167.854 83.5388C167.817 81.7998 167.778 80.0016 167.778 78.2367C167.778 72.0037 160.241 64.9118 160.165 64.8408C160.135 64.8127 160.106 64.7826 160.079 64.7512C159.21 63.7377 158.357 63.2267 157.535 63.2267Z" fill="#58595B"/>
<path d="M148.808 61.5233C150.46 63.1626 154.719 67.6008 154.719 76.3533C154.719 85.1058 154.719 92.608 151.152 94.1469C147.585 95.6857 139.973 91.0947 133.803 76.1866C129.468 65.7126 144.661 57.4075 148.808 61.5233Z" fill="white"/>
<path d="M149.697 95.5312C148.843 95.5312 147.918 95.3353 146.954 94.9451C141.929 92.9101 136.763 86.2262 132.782 76.6069C131.601 73.7527 131.651 70.7703 132.928 67.9818C133.987 65.6683 135.903 63.5043 138.323 61.8882C140.258 60.5963 142.399 59.7292 144.353 59.4467C146.564 59.1271 148.423 59.5868 149.587 60.7419C151.13 62.2728 155.824 66.9314 155.824 76.353C155.824 85.839 155.824 93.3316 151.591 95.1581C151.014 95.407 150.377 95.5312 149.697 95.5312ZM145.696 61.5413C143.949 61.5413 141.669 62.3063 139.552 63.7197C135.873 66.1762 132.699 70.6307 134.824 75.7658C140.309 89.0183 146.131 92.2332 147.785 92.903C148.939 93.3701 149.979 93.4527 150.714 93.1354C153.615 91.8838 153.615 84.3399 153.615 76.3531C153.615 67.8477 149.411 63.6755 148.029 62.3043C147.51 61.7887 146.689 61.5413 145.696 61.5413Z" fill="#58595B"/>
<path d="M15.4731 68.3981C15.4731 68.3981 12.9273 70.6082 10.6871 75.9927C8.44686 81.3773 7.8358 91.4352 8.95598 90.8257C10.0762 90.216 16.6951 85.0347 21.1757 77.8214C25.6561 70.6081 29.322 58.5684 15.4731 68.3981Z" fill="white"/>
<path d="M8.86239 91.9531C8.55506 91.9531 8.25274 91.841 8.00994 91.6232C7.70673 91.3512 6.90133 90.6284 7.53012 84.8822C7.7165 83.1785 8.29786 78.8606 9.66702 75.5699C11.9801 70.0103 14.6362 67.6636 14.7481 67.5664C14.7753 67.5428 14.8035 67.5206 14.8328 67.4997C20.1987 63.6915 23.5281 62.6941 25.3102 64.3632C28.7633 67.596 22.3875 77.9617 22.1143 78.4014C17.5947 85.6776 10.8106 91.0711 9.48475 91.7926C9.28668 91.9003 9.07344 91.9531 8.86239 91.9531ZM16.1681 69.2566C15.8719 69.5346 13.6659 71.7065 11.707 76.4146C10.8724 78.4208 10.171 81.4136 9.78295 84.6256C9.54748 86.5739 9.48964 88.1122 9.52087 89.0883C11.8006 87.3236 16.7359 82.8764 20.2367 77.2403C23.4672 72.0395 24.8042 66.9114 23.7987 65.97C23.6668 65.8468 22.3339 64.8915 16.1681 69.2566Z" fill="#58595B"/>
<path d="M25.4524 64.0355C25.4524 64.0355 17.4888 71.4399 17.4888 78.2372C17.4888 85.0344 16.8986 92.6541 18.1206 92.6541C19.3426 92.6541 30.5439 84.5265 34.8208 80.4626C39.0976 76.3987 32.4787 55.8376 25.4524 64.0355Z" fill="white"/>
<path d="M18.1206 93.7556C17.7412 93.7556 17.3805 93.6008 17.105 93.3198C16.1975 92.3947 16.1661 90.0257 16.308 83.4911C16.3454 81.7638 16.3843 79.9778 16.3843 78.2367C16.3843 71.244 23.9203 63.9635 24.6534 63.2721C26.6223 61.0028 28.5043 60.8486 29.7402 61.1218C33.0137 61.8452 35.3466 66.283 36.4383 70.195C37.4813 73.9332 37.8831 79.0741 35.5826 81.2602C33.2037 83.5205 29.0605 86.7258 25.9764 88.9719C19.4075 93.7556 18.5057 93.7556 18.1206 93.7556ZM26.2055 64.8412C26.1086 64.9317 18.5933 72.0124 18.5933 78.2367C18.5933 80.0016 18.5542 81.7998 18.5164 83.5388C18.4546 86.3866 18.3799 89.8225 18.5992 91.2783C21.2893 89.8066 30.1804 83.3497 34.0592 79.6643C35.3088 78.4769 35.4145 74.7431 34.3103 70.7862C33.1723 66.7083 31.1438 63.6892 29.2624 63.2735C28.3119 63.0638 27.3123 63.5607 26.2919 64.7512C26.2647 64.7828 26.236 64.813 26.2055 64.8412ZM25.4524 64.0351H25.4537H25.4524Z" fill="#58595B"/>
<path d="M37.5627 61.5243C35.911 63.1635 31.6516 67.6017 31.6516 76.3542C31.6516 85.1068 31.6516 92.6089 35.2186 94.1478C38.7856 95.6867 46.3978 91.0956 52.5676 76.1875C56.9023 65.7136 41.7099 57.4085 37.5627 61.5243Z" fill="white"/>
<path d="M36.6736 95.5319C35.9933 95.5319 35.3571 95.4078 34.7802 95.1589C30.5471 93.3325 30.5471 85.8398 30.5471 76.3538C30.5471 66.932 35.2412 62.2735 36.7838 60.7427C37.9475 59.5878 39.8065 59.1283 42.018 59.4475C43.9713 59.73 46.1127 60.5971 48.0475 61.889C50.4676 63.5049 52.3835 65.6691 53.4428 67.9826C54.7193 70.7711 54.7696 73.7535 53.5885 76.6077C49.6076 86.227 44.4419 92.9109 39.4163 94.9459C38.4524 95.336 37.5281 95.5318 36.6736 95.5319ZM40.6745 61.5421C39.6816 61.5421 38.8613 61.7894 38.3416 62.305C36.9601 63.676 32.7561 67.8483 32.7561 76.3538C32.7561 84.3406 32.7561 91.8845 35.657 93.1361C36.3922 93.4531 37.4322 93.3706 38.5856 92.9037C40.2394 92.2339 46.0622 89.019 51.5468 75.7665C53.672 70.6315 50.4979 66.177 46.819 63.7204C44.7024 62.3072 42.4214 61.5421 40.6745 61.5421ZM37.5627 61.5238H37.564H37.5627Z" fill="#58595B"/>
<path d="M113.7 64.4023C113.7 58.6615 93.1852 58.6615 93.1852 64.4023C93.1852 74.3285 94.8486 89.8444 103.443 89.8444C112.037 89.8444 113.7 74.3285 113.7 64.4023Z" fill="white"/>
<path d="M103.443 90.9466C101.084 90.9466 99.0415 89.9474 97.3712 87.9767C96.0024 86.3619 94.8785 84.0662 94.0307 81.1533C92.4192 75.6163 92.0809 68.9881 92.0809 64.4027C92.0809 63.1264 92.7615 61.3511 96.0039 60.1413C97.9849 59.4021 100.627 58.9951 103.443 58.9951C106.259 58.9951 108.9 59.4021 110.881 60.1413C114.124 61.3512 114.804 63.1264 114.804 64.4027C114.804 68.9881 114.466 75.6163 112.855 81.1533C112.007 84.0662 110.883 86.3619 109.514 87.9767C107.844 89.9474 105.801 90.9466 103.443 90.9466ZM103.443 61.1988C98.3957 61.1988 94.2898 62.6361 94.2898 64.4025C94.2898 70.1125 94.9498 88.7427 103.443 88.7427C111.936 88.7427 112.596 70.1126 112.596 64.4025C112.596 63.2985 111.037 62.5521 110.108 62.2053C108.393 61.5657 105.964 61.1988 103.443 61.1988Z" fill="#58595B"/>
<path d="M134.328 66.1163C134.328 60.025 113.7 60.025 113.7 66.1163C113.7 76.6484 118.053 93.1117 126.007 93.1117C133.381 93.1118 134.328 76.6486 134.328 66.1163Z" fill="white"/>
<path d="M126.007 94.213C121.927 94.213 118.412 90.6665 115.839 83.9567C113.839 78.7376 112.596 71.9014 112.596 66.1158C112.596 62.1987 118.33 60.4453 124.014 60.4453C129.698 60.4453 135.432 62.1987 135.432 66.1158C135.432 73.4286 134.955 79.3757 134.013 83.7924C132.538 90.707 129.845 94.213 126.007 94.213ZM124.014 62.6491C118.85 62.6491 114.805 64.1718 114.805 66.1156C114.805 76.6732 119.169 92.0091 126.007 92.0091C130.66 92.0091 133.223 82.8133 133.223 66.1156C133.223 64.9522 131.851 64.1677 130.699 63.7144C128.98 63.0373 126.543 62.6491 124.014 62.6491Z" fill="#58595B"/>
<path d="M72.6706 64.4023C72.6706 58.6615 93.1852 58.6615 93.1852 64.4023C93.1852 74.3285 91.5219 89.8444 82.9279 89.8444C74.334 89.8444 72.6706 74.3285 72.6706 64.4023Z" fill="white"/>
<path d="M82.9281 90.9466C80.5696 90.9466 78.5268 89.9474 76.8565 87.9767C75.4878 86.3619 74.3638 84.0662 73.516 81.1533C71.9045 75.6163 71.5662 68.9881 71.5662 64.4027C71.5662 63.1264 72.2468 61.3511 75.4892 60.1413C77.4702 59.402 80.112 58.9951 82.9279 58.9951C85.744 58.9951 88.3858 59.4021 90.3668 60.1413C93.6092 61.3511 94.2898 63.1263 94.2898 64.4027C94.2898 68.9881 93.9515 75.6163 92.34 81.1533C91.4922 84.0662 90.3683 86.3619 88.9995 87.9767C87.3292 89.9474 85.2864 90.9466 82.9281 90.9466ZM82.9279 61.1988C77.881 61.1988 73.7751 62.6361 73.7751 64.4025C73.7751 70.1125 74.4351 88.7427 82.9279 88.7427C91.4208 88.7427 92.0808 70.1126 92.0808 64.4025C92.0808 63.2985 90.522 62.5521 89.5929 62.2053C87.8786 61.5657 85.4493 61.1988 82.9279 61.1988Z" fill="#58595B"/>
<path d="M52.043 66.1163C52.043 60.025 72.6707 60.025 72.6707 66.1163C72.6707 76.6484 68.3176 93.1117 60.3637 93.1117C52.9901 93.1118 52.043 76.6486 52.043 66.1163Z" fill="white"/>
<path d="M60.3636 94.2131C56.5261 94.2131 53.8325 90.7071 52.3579 83.7924C51.416 79.3758 50.9385 73.4287 50.9385 66.1158C50.9385 62.1987 56.6734 60.4453 62.3568 60.4453C68.0402 60.4453 73.7751 62.1987 73.7751 66.1158C73.7751 71.9013 72.5321 78.7376 70.5314 83.9566C67.9592 90.6665 64.4432 94.2131 60.3636 94.2131ZM62.3568 62.6492C57.1927 62.6492 53.1474 64.1719 53.1474 66.1158C53.1474 82.8134 55.7101 92.0092 60.3636 92.0092C67.202 92.0092 71.5661 76.6733 71.5661 66.1158C71.5661 64.9524 70.1934 64.1678 69.042 63.7145C67.3227 63.0374 64.8861 62.6492 62.3568 62.6492Z" fill="#58595B"/>
<defs>
<linearGradient id="paint0_linear_2518_2788" x1="175.583" y1="84.5593" x2="175.583" y2="42.4183" gradientUnits="userSpaceOnUse">
<stop stop-color="#231F20"/>
<stop offset="0.0757" stop-color="#535051"/>
<stop offset="0.1588" stop-color="#807E7F"/>
<stop offset="0.245" stop-color="#A7A6A6"/>
<stop offset="0.3331" stop-color="#C7C6C6"/>
<stop offset="0.4237" stop-color="#E0DFDF"/>
<stop offset="0.5178" stop-color="#F1F1F1"/>
<stop offset="0.6178" stop-color="#FCFCFC"/>
<stop offset="0.7334" stop-color="white"/>
</linearGradient>
<linearGradient id="paint1_linear_2518_2788" x1="160.313" y1="90.6496" x2="160.313" y2="40.1718" gradientUnits="userSpaceOnUse">
<stop stop-color="#231F20"/>
<stop offset="0.0464" stop-color="#3A3738"/>
<stop offset="0.1591" stop-color="#6E6B6C"/>
<stop offset="0.2736" stop-color="#9A9999"/>
<stop offset="0.3874" stop-color="#BFBEBE"/>
<stop offset="0.5007" stop-color="#DBDADA"/>
<stop offset="0.6133" stop-color="#EFEFEF"/>
<stop offset="0.7247" stop-color="#FBFBFB"/>
<stop offset="0.834" stop-color="white"/>
</linearGradient>
<linearGradient id="paint2_linear_2518_2788" x1="138.968" y1="76.1721" x2="138.968" y2="39.5268" gradientUnits="userSpaceOnUse">
<stop stop-color="#231F20"/>
<stop offset="0.061" stop-color="#504D4E"/>
<stop offset="0.1267" stop-color="#797677"/>
<stop offset="0.1982" stop-color="#9D9B9C"/>
<stop offset="0.2747" stop-color="#BCBABB"/>
<stop offset="0.3579" stop-color="#D4D4D4"/>
<stop offset="0.4502" stop-color="#E7E7E7"/>
<stop offset="0.5566" stop-color="#F5F5F5"/>
<stop offset="0.6898" stop-color="#FDFDFD"/>
<stop offset="0.9346" stop-color="white"/>
</linearGradient>
<linearGradient id="paint3_linear_2518_2788" x1="10.417" y1="84.5583" x2="10.417" y2="42.4173" gradientUnits="userSpaceOnUse">
<stop stop-color="#231F20"/>
<stop offset="0.0757" stop-color="#535051"/>
<stop offset="0.1588" stop-color="#807E7F"/>
<stop offset="0.245" stop-color="#A7A6A6"/>
<stop offset="0.3331" stop-color="#C7C6C6"/>
<stop offset="0.4237" stop-color="#E0DFDF"/>
<stop offset="0.5178" stop-color="#F1F1F1"/>
<stop offset="0.6178" stop-color="#FCFCFC"/>
<stop offset="0.7334" stop-color="white"/>
</linearGradient>
<linearGradient id="paint4_linear_2518_2788" x1="25.6868" y1="90.6496" x2="25.6868" y2="40.1718" gradientUnits="userSpaceOnUse">
<stop stop-color="#231F20"/>
<stop offset="0.0464" stop-color="#3A3738"/>
<stop offset="0.1591" stop-color="#6E6B6C"/>
<stop offset="0.2736" stop-color="#9A9999"/>
<stop offset="0.3874" stop-color="#BFBEBE"/>
<stop offset="0.5007" stop-color="#DBDADA"/>
<stop offset="0.6133" stop-color="#EFEFEF"/>
<stop offset="0.7247" stop-color="#FBFBFB"/>
<stop offset="0.834" stop-color="white"/>
</linearGradient>
<linearGradient id="paint5_linear_2518_2788" x1="47.0322" y1="76.1721" x2="47.0322" y2="39.5268" gradientUnits="userSpaceOnUse">
<stop stop-color="#231F20"/>
<stop offset="0.061" stop-color="#504D4E"/>
<stop offset="0.1267" stop-color="#797677"/>
<stop offset="0.1982" stop-color="#9D9B9C"/>
<stop offset="0.2747" stop-color="#BCBABB"/>
<stop offset="0.3579" stop-color="#D4D4D4"/>
<stop offset="0.4502" stop-color="#E7E7E7"/>
<stop offset="0.5566" stop-color="#F5F5F5"/>
<stop offset="0.6898" stop-color="#FDFDFD"/>
<stop offset="0.9346" stop-color="white"/>
</linearGradient>
<linearGradient id="paint6_linear_2518_2788" x1="109.623" y1="79.9073" x2="109.623" y2="49.5947" gradientUnits="userSpaceOnUse">
<stop stop-color="#231F20"/>
<stop offset="0.1474" stop-color="#5C595A"/>
<stop offset="0.2947" stop-color="#8E8C8C"/>
<stop offset="0.439" stop-color="#B7B5B6"/>
<stop offset="0.5788" stop-color="#D6D5D6"/>
<stop offset="0.7131" stop-color="#EDECEC"/>
<stop offset="0.8395" stop-color="#FAFAFA"/>
<stop offset="0.9497" stop-color="white"/>
</linearGradient>
<linearGradient id="paint7_linear_2518_2788" x1="76.3767" y1="79.9073" x2="76.3767" y2="49.5947" gradientUnits="userSpaceOnUse">
<stop stop-color="#231F20"/>
<stop offset="0.1474" stop-color="#5C595A"/>
<stop offset="0.2947" stop-color="#8E8C8C"/>
<stop offset="0.439" stop-color="#B7B5B6"/>
<stop offset="0.5788" stop-color="#D6D5D6"/>
<stop offset="0.7131" stop-color="#EDECEC"/>
<stop offset="0.8395" stop-color="#FAFAFA"/>
<stop offset="0.9497" stop-color="white"/>
</linearGradient>
</defs>
</svg>
