<svg width="117" height="90" viewBox="0 0 117 90" fill="none" xmlns="http://www.w3.org/2000/svg">
<path d="M21.9015 44.5574C23.2463 44.3606 25.0714 44.2623 27.3768 44.2623C34.6773 44.2623 40.1527 46.4262 43.803 50.7541C47.6453 54.8852 49.5665 60.0984 49.5665 66.3934C49.5665 73.082 47.3571 78.6885 42.9384 83.2131C38.7118 87.7377 32.8522 90 25.3596 90C17.6749 90 11.5271 87.8361 6.91626 83.5082C2.30542 78.9836 0 72.4918 0 64.0328C0 52.6229 3.36207 41.1147 10.0862 29.5082C16.8103 17.7049 25.0714 7.86884 34.8695 0L40.633 6.19671C28.1453 19.7705 21.9015 32.5574 21.9015 44.5574ZM89.335 44.5574C90.6798 44.3606 92.5049 44.2623 94.8103 44.2623C102.111 44.2623 107.586 46.4262 111.236 50.7541C115.079 54.8852 117 60.0984 117 66.3934C117 73.082 114.791 78.6885 110.372 83.2131C106.145 87.7377 100.286 90 92.7931 90C85.1084 90 78.9606 87.8361 74.3497 83.5082C69.7389 78.9836 67.4335 72.4918 67.4335 64.0328C67.4335 52.6229 70.7956 41.1147 77.5197 29.5082C84.2438 17.7049 92.5049 7.86884 102.303 0L108.067 6.19671C95.5788 19.7705 89.335 32.5574 89.335 44.5574Z" fill="#6C31A8"/>
</svg>
