<svg width="750" height="750" viewBox="0 0 750 750" fill="none" xmlns="http://www.w3.org/2000/svg">
<path opacity="0.2" d="M435.002 86.5144C446.335 82.1573 459.184 85.6003 466.82 95.0398L482.605 114.554C488.032 121.263 496.25 125.095 504.878 124.94L529.974 124.489C542.113 124.271 553.01 131.901 556.956 143.382L565.116 167.119C567.921 175.28 574.332 181.691 582.493 184.496L606.229 192.655C617.711 196.602 625.341 207.499 625.123 219.638L624.672 244.734C624.516 253.362 628.348 261.579 635.058 267.007L654.572 282.792C664.012 290.428 667.455 303.277 663.097 314.609L654.09 338.037C650.993 346.092 651.784 355.124 656.232 362.519L669.171 384.027C675.429 394.43 674.27 407.682 666.3 416.841L649.823 435.775C644.158 442.285 641.811 451.043 643.462 459.513L648.265 484.149C650.588 496.066 644.966 508.122 634.344 514.003L612.385 526.16C604.835 530.339 599.634 537.767 598.289 546.291L594.375 571.083C592.483 583.076 583.076 592.482 571.083 594.375L546.291 598.289C537.767 599.634 530.339 604.835 526.16 612.385L514.003 634.344C508.122 644.966 496.066 650.588 484.149 648.265L459.513 643.462C451.043 641.811 442.285 644.158 435.775 649.823L416.841 666.3C407.682 674.27 394.43 675.429 384.027 669.171L362.519 656.232C355.124 651.784 346.092 650.993 338.037 654.09L314.609 663.097C303.277 667.454 290.428 664.012 282.792 654.572L267.007 635.058C261.579 628.348 253.362 624.516 244.734 624.672L219.638 625.123C207.499 625.341 196.602 617.711 192.655 606.229L184.496 582.493C181.691 574.332 175.28 567.921 167.119 565.116L143.382 556.956C131.901 553.01 124.271 542.113 124.489 529.974L124.94 504.878C125.095 496.25 121.263 488.032 114.554 482.605L95.0398 466.82C85.6003 459.184 82.1573 446.335 86.5144 435.002L95.5216 411.575C98.6184 403.52 97.8282 394.487 93.3798 387.093L80.4411 365.585C74.1824 355.181 75.3418 341.93 83.3121 332.771L99.7888 313.836C105.454 307.327 107.801 298.568 106.149 290.098L101.347 265.463C99.0242 253.546 104.646 241.489 115.268 235.609L137.227 223.452C144.777 219.272 149.978 211.845 151.323 203.321L155.236 178.528C157.129 166.536 166.536 157.129 178.528 155.236L203.321 151.323C211.845 149.978 219.272 144.777 223.452 137.227L235.609 115.268C241.489 104.646 253.546 99.0242 265.463 101.347L290.098 106.149C298.569 107.8 307.327 105.454 313.836 99.7888L332.771 83.312C341.93 75.3418 355.181 74.1824 365.585 80.4411L387.093 93.3797C394.487 97.8282 403.52 98.6184 411.575 95.5216L435.002 86.5144Z" fill="#FF276C"/>
<path d="M358.336 80.7578C368.155 73.6161 381.457 73.6161 391.276 80.7578L411.574 95.5217C418.553 100.598 427.482 102.172 435.776 99.7892L459.9 92.858C471.569 89.5052 484.069 94.055 490.853 104.124L504.878 124.94C509.699 132.097 517.552 136.63 526.161 137.228L551.2 138.965C563.312 139.806 573.502 148.357 576.433 160.139L582.493 184.496C584.576 192.87 590.404 199.816 598.289 203.322L621.224 213.519C632.319 218.451 638.97 229.971 637.694 242.045L635.057 267.006C634.151 275.588 637.252 284.108 643.463 290.099L661.527 307.525C670.265 315.955 672.575 329.055 667.247 339.965L656.232 362.518C652.445 370.272 652.445 379.34 656.232 387.094L667.247 409.647C672.575 420.557 670.265 433.657 661.527 442.087L643.463 459.513C637.252 465.504 634.151 474.024 635.057 482.606L637.694 507.567C638.97 519.641 632.319 531.161 621.224 536.094L598.289 546.29C590.404 549.796 584.576 556.742 582.493 565.116L576.433 589.473C573.502 601.256 563.312 609.806 551.2 610.647L526.161 612.384C517.552 612.982 509.699 617.515 504.878 624.672L490.853 645.488C484.069 655.557 471.569 660.107 459.9 656.754L435.776 649.823C427.482 647.44 418.553 649.014 411.574 654.09L391.276 668.854C381.457 675.996 368.155 675.996 358.336 668.854L338.038 654.09C331.059 649.014 322.13 647.44 313.836 649.823L289.712 656.754C278.043 660.107 265.543 655.557 258.759 645.488L244.734 624.672C239.913 617.515 232.06 612.982 223.451 612.384L198.412 610.647C186.3 609.806 176.11 601.256 173.179 589.473L167.12 565.116C165.036 556.742 159.208 549.796 151.323 546.29L128.388 536.094C117.294 531.161 110.642 519.641 111.918 507.567L114.555 482.606C115.461 474.024 112.36 465.504 106.149 459.513L88.085 442.087C79.3469 433.657 77.0369 420.557 82.3651 409.647L93.3799 387.094C97.167 379.34 97.167 370.272 93.3799 362.518L82.3651 339.965C77.0369 329.055 79.3469 315.955 88.085 307.525L106.149 290.099C112.36 284.108 115.461 275.588 114.555 267.006L111.918 242.045C110.642 229.971 117.294 218.451 128.388 213.519L151.323 203.322C159.208 199.816 165.036 192.87 167.12 184.496L173.179 160.139C176.11 148.357 186.3 139.806 198.412 138.965L223.452 137.228C232.06 136.63 239.913 132.097 244.734 124.94L258.759 104.124C265.543 94.055 278.043 89.5052 289.712 92.858L313.836 99.7892C322.13 102.172 331.059 100.598 338.038 95.5217L358.336 80.7578Z" fill="url(#paint0_linear_2230_1267)"/>
<defs>
<linearGradient id="paint0_linear_2230_1267" x1="185.189" y1="146.185" x2="514.619" y2="449.213" gradientUnits="userSpaceOnUse">
<stop stop-color="#FF276C" stop-opacity="0.23"/>
<stop offset="1" stop-color="#9904F4" stop-opacity="0.31"/>
</linearGradient>
</defs>
</svg>
