<svg width="71" height="68" viewBox="0 0 71 68" fill="none" xmlns="http://www.w3.org/2000/svg">
<path d="M36.4197 3.563C36.4333 6.37553 36.4514 9.84751 36.4263 11.303C36.372 14.4485 36.6965 17.1285 38.7798 17.4433C42.3506 17.9787 45.1495 12.1829 50.8509 12.1829C56.5502 12.1829 60.465 18.4157 61.9904 22.9559C63.5182 27.4966 63.0953 35.2431 62.1481 38.607C61.2029 41.9686 59.7229 49.4498 49.5527 55.3948C44.7262 58.2139 36.2867 59.0892 31.5026 58.7944C26.7213 58.5021 20.8694 56.4474 17.5617 51.9453C14.252 47.4453 7.48392 48.8495 7.48392 53.797L7.50652 59.4331C7.51405 61.4049 5.92304 63 3.95218 63H3.65536C1.68668 63 0.0664357 61.4049 0.0308216 59.4336C-0.00533888 57.4493 -0.027437 55.251 0.0689911 53.7951C0.314073 50.1544 1.31552 46.1967 4.76234 42.3335C10.5671 35.824 14.7165 40.6866 17.3151 42.0904C19.9116 43.4947 22.1978 39.1272 27.6967 42.1512C27.6967 42.1512 29.123 35.5608 36.116 34.4468C36.116 34.4468 29.0059 31.4992 29.0059 13.7492C28.8753 12.3857 28.8823 7.16587 28.907 3.56584C28.92 1.59507 30.5336 0 32.5044 0H32.8373C34.8086 0 36.4102 1.59507 36.4192 3.56391L36.4197 3.563Z" fill="#F5C148"/>
<circle cx="47.0397" cy="46.942" r="4" transform="rotate(83.0726 47.0397 46.942)" fill="#4782CD"/>
<circle cx="38.8755" cy="50.8121" r="3.42857" transform="rotate(83.0726 38.8755 50.8121)" fill="#4782CD"/>
<circle cx="37.9106" cy="42.8705" r="2.28571" transform="rotate(83.0726 37.9106 42.8705)" fill="#4782CD"/>
<path d="M22 6C21.5 14 22 25 25.5 32" stroke="#7BC35A" stroke-width="4" stroke-linecap="round" stroke-linejoin="round"/>
<path d="M36.906 65.1099C46 65.1099 54.5001 60.5 61.0002 54" stroke="#7BC35A" stroke-width="4" stroke-linecap="round" stroke-linejoin="round"/>
<path d="M67.0944 37.8073C68.1966 34.6616 68.5173 31.3167 68.2393 28" stroke="#EB433C" stroke-width="4" stroke-linecap="round" stroke-linejoin="round"/>
</svg>
