<svg width="186" height="118" viewBox="0 0 186 118" fill="none" xmlns="http://www.w3.org/2000/svg">
<path d="M97.7448 0.870117C128.664 0.870117 151 22.6664 151 54.7108C151 86.7553 128.664 117.87 97.7448 117.87C66.8261 117.87 34 93.4854 34 61.4409C34 29.3965 66.8261 0.870117 97.7448 0.870117Z" fill="white"/>
<path d="M170.819 66.862C170.819 66.862 173.364 69.0761 175.603 74.4707C177.842 79.8653 178.453 89.9419 177.333 89.3311C176.214 88.7205 169.598 83.5294 165.119 76.3028C160.641 69.0761 156.976 57.0141 170.819 66.862Z" fill="white"/>
<path d="M177.427 90.4619C177.216 90.4619 177.002 90.409 176.805 90.3009C175.479 89.5781 168.698 84.1747 164.181 76.885C163.908 76.4444 157.535 66.0595 160.986 62.8207C162.768 61.1486 166.095 62.1475 171.459 65.9632L171.543 66.0299C171.655 66.1273 174.31 68.4783 176.622 74.0482C177.991 77.345 178.572 81.6709 178.758 83.3777C179.387 89.1347 178.582 89.8587 178.279 90.1312C178.036 90.3496 177.734 90.4619 177.427 90.4619ZM163.154 64.2576C162.716 64.2576 162.541 64.3897 162.497 64.4308C161.492 65.3739 162.828 70.5115 166.057 75.722C169.557 81.3684 174.49 85.8239 176.768 87.5919C176.8 86.6142 176.742 85.073 176.506 83.1209C176.118 79.9029 175.417 76.9045 174.583 74.8947C172.625 70.1775 170.42 68.0018 170.124 67.7235C166.001 64.7977 164.04 64.2576 163.154 64.2576Z" fill="#58595B"/>
<path d="M160.844 62.4907C160.844 62.4907 168.804 69.9088 168.804 76.7187C168.804 83.5285 169.394 91.1623 168.173 91.1623C166.951 91.1623 155.755 83.0196 151.48 78.9482C147.205 74.877 153.821 54.2777 160.844 62.4907Z" fill="white"/>
<path d="M168.173 92.2675C167.788 92.2675 166.886 92.2675 160.321 87.4748C157.238 85.2246 153.097 82.0133 150.719 79.7488C148.419 77.5587 148.821 72.4084 149.864 68.6633C150.955 64.744 153.287 60.2978 156.558 59.5731C157.794 59.2996 159.675 59.4535 161.643 61.7274C162.376 62.4201 169.908 69.714 169.908 76.7196C169.908 78.4638 169.947 80.2532 169.984 81.9838C170.126 88.5304 170.095 90.904 169.188 91.8308C168.912 92.1124 168.552 92.2675 168.173 92.2675ZM157.463 61.6819C157.32 61.6819 157.177 61.6976 157.036 61.7288C155.156 62.1453 153.128 65.17 151.991 69.2556C150.887 73.2197 150.992 76.9605 152.242 78.1499C156.119 81.8423 165.006 88.3114 167.694 89.7856C167.914 88.3272 167.839 84.8848 167.777 82.0317C167.739 80.2895 167.7 78.488 167.7 76.7197C167.7 70.4752 160.167 63.3701 160.091 63.299L160.046 63.2568L160.005 63.2092C159.137 62.1939 158.284 61.6819 157.463 61.6819Z" fill="#58595B"/>
<path d="M15.4658 66.862C15.4658 66.862 12.9212 69.0761 10.682 74.4707C8.44275 79.8652 7.83198 89.9418 8.95164 89.331C10.0713 88.7204 16.6872 83.5293 21.1657 76.3026C25.6441 69.0761 29.3084 57.0141 15.4658 66.862Z" fill="white"/>
<path d="M8.85824 90.4621C8.55105 90.4621 8.24888 90.3498 8.00618 90.1315C7.70311 89.8589 6.89808 89.1349 7.52646 83.378C7.71275 81.6712 8.29384 77.3453 9.66237 74.0485C11.9744 68.4784 14.6292 66.1276 14.7411 66.0302L14.8258 65.9635C20.1892 62.1479 23.5168 61.1493 25.2984 62.821C28.7499 66.0599 22.377 76.4447 22.104 76.8853C17.5864 84.175 10.8054 89.5784 9.48019 90.3012C9.28234 90.4091 9.06907 90.4621 8.85824 90.4621ZM16.1605 67.7235C15.8644 68.002 13.6595 70.1779 11.7015 74.8948C10.8672 76.9047 10.1662 79.903 9.77825 83.121C9.54288 85.0729 9.48507 86.6142 9.51629 87.592C11.7949 85.8241 16.728 81.3685 20.2272 75.722C23.4562 70.5116 24.7926 65.3739 23.7875 64.4308C23.6556 64.307 22.3234 63.3503 16.1605 67.7235Z" fill="#58595B"/>
<path d="M25.4406 62.4907C25.4406 62.4907 17.4805 69.9088 17.4805 76.7187C17.4805 83.5285 16.8907 91.1623 18.1121 91.1623C19.3335 91.1623 30.5297 83.0196 34.8046 78.9482C39.0795 74.8768 32.4637 54.2777 25.4406 62.4907Z" fill="white"/>
<path d="M18.1122 92.2674C17.733 92.2674 17.3725 92.1124 17.097 91.8309C16.19 90.904 16.1587 88.5306 16.3005 81.9838C16.338 80.2533 16.3768 78.464 16.3768 76.7197C16.3768 69.714 23.9093 62.42 24.642 61.7274C26.6099 59.4537 28.4911 59.2995 29.7264 59.5731C32.9985 60.2979 35.3303 64.7439 36.4213 68.6632C37.464 72.4083 37.8656 77.5587 35.566 79.7487C33.1882 82.0134 29.0469 85.2246 25.9643 87.4749C19.3984 92.2674 18.4971 92.2674 18.1122 92.2674ZM26.1936 63.2989C26.1175 63.37 18.5845 70.475 18.5845 76.7197C18.5845 78.4879 18.5454 80.2894 18.5078 82.0316C18.446 84.8847 18.3714 88.3271 18.5905 89.7855C21.2793 88.3111 30.1665 81.8422 34.0435 78.1499C35.2925 76.9603 35.3981 73.2196 34.2944 69.2553C33.157 65.1699 31.1294 62.1452 29.2489 61.7287C28.2988 61.5185 27.2997 62.0162 26.2796 63.2091L26.239 63.2567L26.1936 63.2989Z" fill="#58595B"/>
<path d="M37.5452 59.9755C35.8943 61.6178 31.6369 66.0643 31.6369 74.833C31.6369 83.6017 31.6369 91.1178 35.2022 92.6595C38.7676 94.2012 46.3763 89.6017 52.5433 74.666C56.8761 64.1726 41.6906 55.852 37.5452 59.9755Z" fill="white"/>
<path d="M36.6567 94.0463C35.9767 94.0463 35.341 93.922 34.7641 93.6726C30.533 91.8428 30.533 84.3363 30.533 74.8326C30.533 65.3934 35.225 60.7262 36.7667 59.1926C37.9299 58.0356 39.788 57.5749 41.9985 57.8952C43.9509 58.1781 46.0913 59.0468 48.0253 60.3411C50.4442 61.96 52.3593 64.1282 53.418 66.446C54.6939 69.2396 54.7443 72.2275 53.5637 75.087C49.5844 84.7241 44.4213 91.4204 39.398 93.4592C38.4347 93.85 37.5107 94.0462 36.6567 94.0463ZM40.6558 59.9935C39.6633 59.9935 38.8433 60.2412 38.3238 60.7579C36.9429 62.1314 32.7409 66.3113 32.7409 74.8326C32.7409 82.8342 32.7409 90.3921 35.6404 91.646C36.3753 91.964 37.415 91.8811 38.5676 91.4133C40.2207 90.7423 46.0407 87.5214 51.5229 74.2443C53.647 69.0999 50.4745 64.637 46.7973 62.176C44.6817 60.76 42.4019 59.9935 40.6558 59.9935Z" fill="#58595B"/>
<path d="M113.648 62.8595C113.648 57.108 93.1424 57.108 93.1424 62.8595C93.1424 72.8041 94.805 88.3487 103.395 88.3487C111.985 88.3487 113.648 72.8041 113.648 62.8595Z" fill="url(#paint0_linear_2514_3206)"/>
<path d="M103.395 89.4529C101.038 89.4529 98.9959 88.4518 97.3263 86.4775C95.9582 84.8598 94.8348 82.5598 93.9874 79.6413C92.3767 74.0943 92.0385 67.4537 92.0385 62.8598C92.0385 61.5812 92.7188 59.8026 95.9597 58.5907C97.9398 57.85 100.58 57.4424 103.395 57.4424C106.21 57.4424 108.85 57.8502 110.83 58.5907C114.071 59.8027 114.752 61.5812 114.752 62.8598C114.752 67.4537 114.413 74.0943 112.803 79.6415C111.955 82.5598 110.832 84.8598 109.464 86.4775C107.794 88.4518 105.752 89.4529 103.395 89.4529ZM103.395 59.65C98.3504 59.65 94.2464 61.0899 94.2464 62.8597C94.2464 68.5802 94.9061 87.2449 103.395 87.2449C111.884 87.2449 112.544 68.5803 112.544 62.8597C112.544 61.7536 110.986 61.0057 110.057 60.6584C108.343 60.0176 105.915 59.65 103.395 59.65Z" fill="#58595B"/>
<path d="M134.266 64.5761C134.266 58.4733 113.648 58.4733 113.648 64.5761C113.648 75.1277 117.999 91.6214 125.949 91.6214C133.319 91.6215 134.266 75.1278 134.266 64.5761Z" fill="url(#paint1_linear_2514_3206)"/>
<path d="M125.949 92.7249C121.871 92.7249 118.357 89.1718 115.786 82.4494C113.786 77.2207 112.544 70.3718 112.544 64.5755C112.544 60.6512 118.276 58.8945 123.957 58.8945C129.638 58.8945 135.37 60.6512 135.37 64.5755C135.37 71.9018 134.893 77.86 133.951 82.2848C132.477 89.2124 129.785 92.7249 125.949 92.7249ZM123.957 61.1025C118.795 61.1025 114.752 62.628 114.752 64.5755C114.752 75.1526 119.114 90.5169 125.949 90.5169C130.6 90.5169 133.162 81.3041 133.162 64.5755C133.162 63.4099 131.79 62.6239 130.639 62.1695C128.92 61.4914 126.485 61.1025 123.957 61.1025Z" fill="#58595B"/>
<path d="M172.168 47.6648C172.168 47.6648 177.588 41.4223 181.193 38.6013C184.798 35.7804 185.189 39.5153 184.562 43.1331C183.936 46.7508 182.682 54.2733 181.036 60.9339C179.391 67.5945 175.551 72.7637 170.379 67.8675C165.208 62.9712 163.805 56.1899 172.168 47.6648Z" fill="white"/>
<path d="M174.348 70.9018C173.072 70.9019 171.446 70.3973 169.62 68.6688C166.679 65.884 165.156 62.7915 165.095 59.4772C165.021 55.4603 167.127 51.2341 171.357 46.9154C171.792 46.4156 176.946 40.5225 180.512 37.7319C182.088 36.4994 183.418 36.1929 184.467 36.8204C186.196 37.8552 186.065 40.9268 185.65 43.3212L185.491 44.2409C184.842 48.0086 183.634 55.0217 182.108 61.1983C180.816 66.4252 178.476 69.892 175.687 70.71C175.301 70.8232 174.852 70.9018 174.348 70.9018ZM183.309 38.7138C183.206 38.7138 182.779 38.7615 181.873 39.4706C178.395 42.1928 173.055 48.3269 173.002 48.3885L172.956 48.4378C169.142 52.3262 167.239 56.0266 167.303 59.4365C167.352 62.1364 168.643 64.7032 171.138 67.0655C172.571 68.4222 173.892 68.9355 175.065 68.5915C177.022 68.0178 178.899 64.982 179.964 60.669C181.471 54.569 182.671 47.6066 183.315 43.8661L183.475 42.9444C183.967 40.1007 183.543 38.8491 183.333 38.715H183.333C183.332 38.715 183.324 38.7138 183.309 38.7138Z" fill="#58595B"/>
<path d="M150.86 44.6797C150.86 44.6797 157.932 34.4374 161.094 31.0489C164.257 27.6605 169.565 25.7405 171.485 29.5806C173.406 33.4207 172.615 52.396 170.13 58.947C167.645 65.4979 162.563 70.4945 157.028 66.3585C151.494 62.2225 143.562 56.0515 150.86 44.6797Z" fill="white"/>
<path d="M161.12 68.9681C159.512 68.9681 157.897 68.3863 156.367 67.2426C153.712 65.2583 150.076 62.5407 148.147 58.731C145.918 54.3289 146.518 49.4007 149.931 44.0833L149.951 44.0524C150.242 43.6315 157.106 33.7041 160.287 30.2956C162.382 28.051 165.839 25.9802 168.844 26.4152C170.461 26.649 171.716 27.5729 172.473 29.0869C174.579 33.3 173.747 52.5253 171.162 59.3384C169.27 64.3285 166.3 67.7389 163.014 68.6952C162.388 68.8775 161.754 68.9681 161.12 68.9681ZM151.779 45.2916C145.471 55.136 150.975 60.4562 157.689 65.4742C159.268 66.6542 160.852 67.0249 162.397 66.5753C164.972 65.8257 167.477 62.8276 169.098 58.5554C170.2 55.6508 171.065 49.7662 171.357 43.1983C171.635 36.9321 171.29 31.6579 170.498 30.0743C170.067 29.2119 169.422 28.7297 168.528 28.6003C166.64 28.3274 163.916 29.6441 161.901 31.8021C158.886 35.0332 152.09 44.8418 151.779 45.2916Z" fill="#58595B"/>
<path d="M13.7462 47.6648C13.7462 47.6648 8.32608 41.4223 4.72156 38.6013C1.11704 35.7804 0.725192 39.5153 1.35215 43.1331C1.97899 46.7508 3.23278 54.2733 4.8783 60.9339C6.52382 67.5945 10.3635 72.7637 15.5352 67.8675C20.7069 62.9712 22.1096 56.1899 13.7462 47.6648Z" fill="white"/>
<path d="M11.5663 70.902C11.0624 70.902 10.6132 70.8234 10.2277 70.7103C7.43821 69.8923 5.09789 66.4254 3.80658 61.1986C2.28029 55.0207 1.07184 48.007 0.422654 44.2389L0.264372 43.3215C-0.150605 40.9269 -0.282036 37.8554 1.44751 36.8206C2.49664 36.1927 3.82726 36.4995 5.40186 37.732C8.96797 40.5229 14.1232 46.4164 14.5577 46.9156C18.787 51.2343 20.8936 55.4605 20.8194 59.4773C20.7581 62.7916 19.2356 65.8841 16.294 68.669C14.4685 70.3973 12.8425 70.902 11.5663 70.902ZM2.60726 38.7155C2.58683 38.7155 2.57694 38.7173 2.57629 38.7175C2.37099 38.8493 1.94702 40.1009 2.43972 42.9446L2.59839 43.864C3.24283 47.6048 4.44253 54.5678 5.94981 60.6692C7.01539 64.9822 8.89255 68.018 10.8489 68.5917C12.0217 68.9358 13.3431 68.4223 14.7761 67.0658C17.2714 64.7034 18.5619 62.1366 18.6117 59.4367C18.6747 56.0268 16.7726 52.3262 12.958 48.438L12.9126 48.3887C12.859 48.3271 7.51966 42.193 4.04105 39.4708C3.14737 38.7712 2.71967 38.7155 2.60726 38.7155Z" fill="#58595B"/>
<path d="M35.0546 44.6802C35.0546 44.6802 27.9825 34.4379 24.8201 31.0494C21.6577 27.661 16.349 25.7409 14.429 29.5811C12.5089 33.4212 13.2995 52.3965 15.7844 58.9474C18.2692 65.4984 23.3519 70.495 28.8862 66.359C34.4206 62.2229 42.3526 56.052 35.0546 44.6802Z" fill="url(#paint2_linear_2514_3206)"/>
<path d="M24.7943 68.9683C24.1599 68.9683 23.527 68.8778 22.9004 68.6954C19.6148 67.7392 16.6449 64.3288 14.7521 59.3388C12.1679 52.5256 11.335 33.3002 13.4415 29.0871C14.1985 27.5733 15.4533 26.6493 17.0703 26.4154C20.0738 25.9816 23.5321 28.0513 25.6271 30.2958C28.8084 33.7044 35.6723 43.6317 35.9631 44.0526L35.9838 44.0836C39.3962 49.4009 39.9963 54.3291 37.7675 58.7312C35.8386 62.5409 32.2023 65.2587 29.5471 67.2429C28.017 68.3864 26.4019 68.9683 24.7943 68.9683ZM17.9012 28.565C17.7237 28.565 17.552 28.5766 17.3865 28.6005C16.492 28.7299 15.8476 29.2121 15.4164 30.0745C14.6246 31.6581 14.2796 36.9323 14.5577 43.1985C14.8494 49.7666 15.7148 55.651 16.8166 58.5557C18.437 62.8278 20.9421 65.8259 23.5176 66.5756C25.0619 67.0246 26.6461 66.6544 28.2255 65.4744C34.9399 60.4564 40.4438 55.1363 34.1359 45.2919C33.8247 44.8422 27.0287 35.0333 24.0132 31.8023C22.1754 29.8335 19.7461 28.565 17.9012 28.565Z" fill="#58595B"/>
<path d="M34.2952 57.5567C34.2952 65.4776 59.7258 65.4776 59.7258 57.5567C59.7258 43.8612 54.6552 26.7842 47.0104 26.7842C36.3571 26.7842 34.2952 43.8613 34.2952 57.5567Z" fill="white"/>
<path d="M47.0105 64.6008C43.5374 64.6008 40.2825 64.0435 37.8453 63.0312C33.9988 61.4337 33.1913 59.1722 33.1913 57.5562C33.1913 48.9047 34.0027 41.8904 35.603 36.7083C37.8631 29.3903 41.701 25.6797 47.0105 25.6797C49.1728 25.6797 51.2087 26.7796 53.0619 28.9489C54.6425 30.7992 56.0583 33.39 57.2698 36.6493C59.499 42.6466 60.8299 50.4622 60.8299 57.5561C60.8299 59.1721 60.0224 61.4338 56.1759 63.0311C53.7384 64.0435 50.4835 64.6008 47.0105 64.6008ZM47.0105 27.8877C42.7224 27.8877 39.681 30.986 37.7126 37.3599C36.1775 42.3307 35.3991 49.1258 35.3991 57.5562C35.3991 60.6978 41.3816 62.393 47.0105 62.393C52.6394 62.393 58.6219 60.6978 58.6219 57.5562C58.6219 50.711 57.3427 43.183 55.2002 37.4188C52.9487 31.3617 49.9637 27.8877 47.0105 27.8877Z" fill="#58595B"/>
<path d="M151.619 57.5557C151.619 65.4767 126.189 65.4767 126.189 57.5557C126.189 43.8602 131.259 26.7832 138.904 26.7832C149.557 26.7832 151.619 43.8603 151.619 57.5557Z" fill="url(#paint3_linear_2514_3206)"/>
<path d="M138.904 64.6007C135.431 64.6007 132.176 64.0434 129.739 63.0311C125.892 61.4336 125.084 59.1721 125.084 57.5561C125.084 50.4622 126.415 42.6466 128.644 36.6493C129.856 33.39 131.272 30.7992 132.852 28.9489C134.706 26.7796 136.742 25.6797 138.904 25.6797C144.213 25.6797 148.051 29.3903 150.311 36.7083C151.912 41.8904 152.723 48.9047 152.723 57.5562C152.723 59.1722 151.916 61.4339 148.069 63.0312C145.632 64.0434 142.377 64.6007 138.904 64.6007ZM138.904 27.8875C135.951 27.8875 132.966 31.3614 130.714 37.4187C128.571 43.1829 127.292 50.7109 127.292 57.5561C127.292 60.6977 133.275 62.3928 138.904 62.3928C144.533 62.3928 150.515 60.6977 150.515 57.5561C150.515 49.1256 149.737 42.3305 148.202 37.3598C146.233 30.986 143.192 27.8875 138.904 27.8875Z" fill="#58595B"/>
<path d="M126.188 60.3687C126.188 68.3553 92.9572 68.3553 92.9572 60.3687C92.9572 46.5596 95.6515 24.9741 109.573 24.9741C123.494 24.9741 126.188 46.5596 126.188 60.3687Z" fill="white"/>
<path d="M109.573 67.4626C105.109 67.4626 100.932 66.9121 97.8127 65.9125C92.8872 64.3341 91.8534 62.0267 91.8534 60.3688C91.8534 54.0062 92.3992 44.8109 94.9991 37.1388C96.3561 33.1346 98.1457 29.9884 100.318 27.7873C102.883 25.188 105.997 23.8701 109.573 23.8701C113.149 23.8701 116.263 25.188 118.828 27.7871C121 29.9881 122.79 33.1344 124.147 37.1386C126.747 44.8108 127.292 54.0059 127.292 60.3686C127.292 62.0264 126.258 64.3338 121.333 65.9123C118.214 66.9121 114.037 67.4626 109.573 67.4626ZM109.573 26.078C103.937 26.078 99.7367 30.0377 97.0902 37.8471C94.4546 45.6239 94.0613 55.2954 94.0613 60.3686C94.0613 63.1083 100.875 65.2545 109.573 65.2545C118.271 65.2545 125.085 63.1083 125.085 60.3686C125.085 55.2956 124.691 45.6239 122.056 37.8471C119.409 30.0379 115.209 26.078 109.573 26.078Z" fill="#58595B"/>
<path d="M92.9556 60.3687C92.9556 68.3553 59.7243 68.3553 59.7243 60.3687C59.7243 46.5596 62.4187 24.9741 76.34 24.9741C90.2612 24.9741 92.9556 46.5596 92.9556 60.3687Z" fill="url(#paint4_linear_2514_3206)"/>
<path d="M76.3399 67.4633C71.8758 67.4633 67.6993 66.9128 64.5798 65.9133C59.6543 64.3348 58.6204 62.0274 58.6204 60.3695C58.6204 54.0068 59.1661 44.8116 61.7662 37.1396C63.1231 33.1354 64.9127 29.9891 67.0851 27.7881C69.6503 25.189 72.7642 23.8711 76.3399 23.8711C79.9157 23.8711 83.0295 25.189 85.5948 27.7881C87.7672 29.9891 89.5568 33.1354 90.9137 37.1396C93.5137 44.8118 94.0595 54.0068 94.0595 60.3695C94.0595 62.0274 93.0255 64.3348 88.1 65.9133C84.9806 66.9127 80.8041 67.4633 76.3399 67.4633ZM76.3399 26.0787C70.7036 26.0787 66.5037 30.0384 63.8572 37.8479C61.2218 45.6245 60.8283 55.2962 60.8283 60.3693C60.8283 63.109 67.6419 65.2552 76.3401 65.2552C85.0381 65.2552 91.8517 63.109 91.8517 60.3693C91.8517 55.2963 91.4582 45.6245 88.8228 37.8479C86.1761 30.0386 81.9763 26.0787 76.3399 26.0787Z" fill="#58595B"/>
<path d="M72.6372 62.8595C72.6372 57.108 93.1425 57.108 93.1425 62.8595C93.1425 72.8041 91.4799 88.3487 82.8898 88.3487C74.2998 88.3487 72.6372 72.8041 72.6372 62.8595Z" fill="white" stroke="#58595B" stroke-width="2" stroke-miterlimit="10"/>
<path d="M52.0189 64.5756C52.0189 58.4729 72.6371 58.4729 72.6371 64.5756C72.6371 75.1272 68.286 91.6209 60.3358 91.6209C52.9655 91.621 52.0189 75.1273 52.0189 64.5756Z" fill="white" stroke="#58595B" stroke-width="2" stroke-miterlimit="10"/>
<path d="M148.74 59.975C145.829 57.0799 137.478 60.3191 134.259 66.1372C134.233 68.8955 134.132 71.9554 133.871 74.9703C140.015 89.6597 147.542 94.19 151.082 92.6591C154.648 91.1173 154.648 83.6012 154.648 74.8325C154.648 66.0639 150.391 61.6172 148.74 59.975Z" fill="white" stroke="#58595B" stroke-width="2" stroke-miterlimit="10"/>
<defs>
<linearGradient id="paint0_linear_2514_3206" x1="103.395" y1="88.3487" x2="103.395" y2="56.2284" gradientUnits="userSpaceOnUse">
<stop offset="0.0654" stop-color="white"/>
<stop offset="0.3102" stop-color="#FDFDFD"/>
<stop offset="0.4434" stop-color="#F5F5F5"/>
<stop offset="0.5498" stop-color="#E7E7E7"/>
<stop offset="0.6421" stop-color="#D4D4D4"/>
<stop offset="0.7253" stop-color="#BCBABB"/>
<stop offset="0.8018" stop-color="#9D9B9C"/>
<stop offset="0.8733" stop-color="#797677"/>
<stop offset="0.939" stop-color="#504D4E"/>
<stop offset="1" stop-color="#231F20"/>
</linearGradient>
<linearGradient id="paint1_linear_2514_3206" x1="123.957" y1="91.6215" x2="123.957" y2="53.0321" gradientUnits="userSpaceOnUse">
<stop offset="0.0654" stop-color="white"/>
<stop offset="0.3622" stop-color="#FDFDFD"/>
<stop offset="0.4948" stop-color="#F6F6F6"/>
<stop offset="0.5946" stop-color="#E9E9E9"/>
<stop offset="0.6781" stop-color="#D8D7D7"/>
<stop offset="0.7514" stop-color="#C1BFC0"/>
<stop offset="0.8175" stop-color="#A4A3A3"/>
<stop offset="0.8782" stop-color="#828081"/>
<stop offset="0.9348" stop-color="#5B5859"/>
<stop offset="0.986" stop-color="#302C2D"/>
<stop offset="1" stop-color="#231F20"/>
</linearGradient>
<linearGradient id="paint2_linear_2514_3206" x1="25.675" y1="81.242" x2="25.675" y2="34.3521" gradientUnits="userSpaceOnUse">
<stop stop-color="#231F20"/>
<stop offset="0.0624" stop-color="#514D4E"/>
<stop offset="0.1287" stop-color="#797777"/>
<stop offset="0.2009" stop-color="#9D9C9C"/>
<stop offset="0.2784" stop-color="#BCBBBB"/>
<stop offset="0.3625" stop-color="#D4D4D4"/>
<stop offset="0.456" stop-color="#E7E7E7"/>
<stop offset="0.5639" stop-color="#F5F5F5"/>
<stop offset="0.6994" stop-color="#FDFDFD"/>
<stop offset="0.9497" stop-color="white"/>
</linearGradient>
<linearGradient id="paint3_linear_2514_3206" x1="138.904" y1="76.5777" x2="138.904" y2="39.8645" gradientUnits="userSpaceOnUse">
<stop stop-color="#231F20"/>
<stop offset="0.061" stop-color="#504D4E"/>
<stop offset="0.1267" stop-color="#797677"/>
<stop offset="0.1982" stop-color="#9D9B9C"/>
<stop offset="0.2747" stop-color="#BCBABB"/>
<stop offset="0.3579" stop-color="#D4D4D4"/>
<stop offset="0.4502" stop-color="#E7E7E7"/>
<stop offset="0.5566" stop-color="#F5F5F5"/>
<stop offset="0.6898" stop-color="#FDFDFD"/>
<stop offset="0.9346" stop-color="white"/>
</linearGradient>
<linearGradient id="paint4_linear_2514_3206" x1="76.34" y1="79.3978" x2="76.34" y2="49.0291" gradientUnits="userSpaceOnUse">
<stop stop-color="#231F20"/>
<stop offset="0.1552" stop-color="#5C595A"/>
<stop offset="0.3103" stop-color="#8E8C8C"/>
<stop offset="0.4622" stop-color="#B7B5B6"/>
<stop offset="0.6095" stop-color="#D6D5D6"/>
<stop offset="0.7508" stop-color="#EDECEC"/>
<stop offset="0.8839" stop-color="#FAFAFA"/>
<stop offset="1" stop-color="white"/>
</linearGradient>
</defs>
</svg>
