<svg width="131" height="131" viewBox="0 0 131 131" fill="none" xmlns="http://www.w3.org/2000/svg">
<mask id="mask0_2272_1625" style="mask-type:alpha" maskUnits="userSpaceOnUse" x="0" y="0" width="131" height="131">
<rect width="131" height="131" fill="#D9D9D9"/>
</mask>
<g mask="url(#mask0_2272_1625)">
<path d="M20.956 21.7752C34.5646 12.0455 44.1762 39.5135 40.883 50.1913C39.0738 53.1073 34.715 59.4491 31.7535 61.4886C28.0516 64.0379 9.14011 62.2996 2.7899 55.9366C-3.5603 49.5737 7.34734 31.5048 20.956 21.7752Z" fill="#F48C6B"/>
<path d="M33.927 54.1665C31.1645 57.2391 18.3245 55.4031 15.0154 52.4281C11.7064 49.4532 14.4971 43.6603 17.2596 40.5877C20.0221 37.515 26.279 35.5224 29.5881 38.4974C32.8971 41.4724 36.6895 51.0938 33.927 54.1665Z" fill="#F2C9C9"/>
<path d="M128.196 30.8128C138.977 43.6047 112.36 55.3699 101.454 52.9362C98.4037 51.3646 91.7354 47.5239 89.4669 44.7339C86.6312 41.2465 86.8603 22.2566 92.6981 15.4206C98.536 8.58456 117.415 18.0209 128.196 30.8128Z" fill="#F48C6B"/>
<path d="M96.9395 46.3201C93.6569 43.8107 94.4661 30.8653 97.1685 27.3302C99.8709 23.7951 105.867 26.1164 109.15 28.6258C112.433 31.1352 114.916 37.2139 112.214 40.749C109.511 44.2841 100.222 48.8295 96.9395 46.3201Z" fill="#F2C9C9"/>
<path d="M122.581 79.1834C122.581 101.114 97.5451 118.893 70.211 118.893C42.8769 118.893 20.7183 101.114 20.7183 79.1834C20.7183 57.2526 30.5017 39.4741 70.211 39.4741C107.043 39.4741 122.581 57.2526 122.581 79.1834Z" fill="#F48C6B"/>
<path d="M46.586 79.7581C48.888 74.0031 56.9745 67.0972 71.9078 67.0972C107.618 67.0972 98.4102 99.9005 93.2308 105.08C88.0513 110.259 71.9078 114.863 55.2184 106.806C38.529 98.7495 44.284 85.5131 46.586 79.7581Z" fill="#F2C9C9"/>
<circle cx="52.9453" cy="64.7952" r="2.30199" fill="black"/>
<circle cx="92.0792" cy="62.4934" r="2.30199" fill="black"/>
<path d="M61.0027 101.627C70.2106 104.505 78.2676 106.231 86.9 99.3252" stroke="black" stroke-width="2" stroke-linecap="round"/>
<path d="M78.8427 68.2478C78.8427 70.1548 75.9483 72.8518 73.0877 72.8518C70.2272 72.8518 67.3328 70.1548 67.3328 68.2478C67.3328 66.3408 70.2272 65.9458 73.0877 65.9458C75.9483 65.9458 78.8427 66.3408 78.8427 68.2478Z" fill="black"/>
</g>
</svg>
