<svg width="131" height="131" viewBox="0 0 131 131" fill="none" xmlns="http://www.w3.org/2000/svg">
<mask id="mask0_2272_1726" style="mask-type:alpha" maskUnits="userSpaceOnUse" x="0" y="0" width="131" height="131">
<rect width="131" height="131" fill="#D9D9D9"/>
</mask>
<g mask="url(#mask0_2272_1726)">
<path d="M65.5204 120.025C43.3408 120.025 15 99.9168 15 72.6757C15 45.4347 33.9882 18.9839 60.2723 18.9839C86.5564 18.9839 114.462 39.7134 114.462 66.9545C114.462 94.1956 91.8045 120.025 65.5204 120.025Z" fill="#FFCB06"/>
<path d="M53.7959 68.8397C52.4962 76.1605 47.0173 81.3095 41.5584 80.3404C36.0995 79.3712 32.7278 72.6509 34.0275 65.3301C35.3271 58.0093 41.9185 51.8148 47.3774 52.7839C52.8363 53.7531 55.0956 61.5189 53.7959 68.8397Z" fill="white"/>
<ellipse cx="43.9122" cy="67.085" rx="4.56308" ry="6.11943" transform="rotate(10.067 43.9122 67.085)" fill="#48528A"/>
<ellipse cx="40.7468" cy="64.0371" rx="2.73785" ry="3.67166" transform="rotate(10.067 40.7468 64.0371)" fill="white"/>
<path d="M48.7467 49.1061C45.9362 48.3838 35.7146 50.8502 35.0001 52.4643" stroke="#1A2644" stroke-width="3" stroke-linecap="round"/>
<path d="M77.8756 68.4906C79.1752 75.8113 84.6541 80.9604 90.113 79.9913C95.572 79.0221 98.9437 72.3018 97.644 64.981C96.3443 57.6602 89.7529 51.4657 84.294 52.4348C78.8351 53.4039 76.5759 61.1698 77.8756 68.4906Z" fill="white"/>
<ellipse cx="87.6019" cy="65.9974" rx="4.56308" ry="6.11943" transform="rotate(-5.11976 87.6019 65.9974)" fill="#48528A"/>
<ellipse cx="83.7482" cy="63.8853" rx="2.73785" ry="3.67166" transform="rotate(-5.11976 83.7482 63.8853)" fill="white"/>
<path d="M83.9999 46.9659C86.8931 46.7412 96.533 50.9407 96.9571 52.6541" stroke="#1A2644" stroke-width="3" stroke-linecap="round"/>
<path d="M52.0242 93.1472C59.918 102.262 72.5481 102.262 78.8632 99.224" stroke="#D95930" stroke-width="3" stroke-linecap="round"/>
<ellipse cx="35.4472" cy="89.2007" rx="3.9469" ry="2.36814" fill="#FF276C"/>
<ellipse cx="97.0189" cy="87.6216" rx="3.9469" ry="2.36814" fill="#FF276C"/>
<path d="M43.9657 19.9339C17.3228 22.9174 19.382 43.6462 20.3066 50.4138C32.2617 51.9319 40.3876 40.8857 42.9562 35.1729C54.9137 43.4971 83.9162 50.0674 98.5297 32.576C113.143 15.0845 93.4863 7.14976 82.5483 2.51622C80.6209 19.5219 70.6086 16.9504 43.9657 19.9339Z" fill="#1A2644"/>
</g>
</svg>
