<svg width="183" height="186" viewBox="0 0 183 186" fill="none" xmlns="http://www.w3.org/2000/svg">
<path d="M82.5837 3.52879C87.9349 -0.3634 95.1847 -0.363399 100.536 3.52879V3.52879C104.339 6.29519 109.206 7.15329 113.726 5.85455V5.85455C120.086 4.0273 126.898 6.5069 130.596 11.9946V11.9946C133.223 15.895 137.503 18.3658 142.195 18.6913V18.6913C148.796 19.1494 154.35 23.8096 155.947 30.2308V30.2308C157.082 34.7948 160.259 38.5802 164.556 40.4909V40.4909C170.602 43.179 174.227 49.4576 173.532 56.0379V56.0379C173.038 60.715 174.728 65.3585 178.113 68.6238V68.6238C182.875 73.2178 184.134 80.3575 181.23 86.3032V86.3032C179.167 90.5292 179.167 95.4708 181.23 99.6968V99.6968C184.134 105.643 182.875 112.782 178.113 117.376V117.376C174.728 120.641 173.038 125.285 173.532 129.962V129.962C174.227 136.542 170.602 142.821 164.556 145.509V145.509C160.259 147.42 157.082 151.205 155.947 155.769V155.769C154.35 162.19 148.796 166.851 142.195 167.309V167.309C137.503 167.634 133.223 170.105 130.596 174.005V174.005C126.898 179.493 120.086 181.973 113.726 180.145V180.145C109.206 178.847 104.339 179.705 100.536 182.471V182.471C95.1847 186.363 87.9349 186.363 82.5837 182.471V182.471C78.7803 179.705 73.9138 178.847 69.3936 180.145V180.145C63.034 181.973 56.2213 179.493 52.5241 174.005V174.005C49.8962 170.105 45.6167 167.634 40.9249 167.309V167.309C34.3238 166.851 28.7701 162.19 27.1727 155.769V155.769C26.0374 151.205 22.861 147.42 18.5635 145.509V145.509C12.5172 142.821 8.89228 136.542 9.58742 129.962V129.962C10.0815 125.285 8.39138 120.641 5.00656 117.376V117.376C0.244278 112.782 -1.01465 105.643 1.88919 99.6968V99.6968C3.95311 95.4708 3.95311 90.5292 1.88919 86.3032V86.3032C-1.01465 80.3575 0.244278 73.2178 5.00656 68.6238V68.6238C8.39138 65.3585 10.0815 60.715 9.58742 56.0379V56.0379C8.89228 49.4576 12.5172 43.179 18.5635 40.4909V40.4909C22.861 38.5802 26.0374 34.7948 27.1727 30.2308V30.2308C28.7701 23.8095 34.3238 19.1494 40.9249 18.6913V18.6913C45.6167 18.3658 49.8962 15.895 52.5241 11.9946V11.9946C56.2213 6.5069 63.034 4.0273 69.3936 5.85455V5.85455C73.9138 7.15329 78.7803 6.29519 82.5837 3.52879V3.52879Z" fill="url(#paint0_linear_2170_1117)"/>
<defs>
<linearGradient id="paint0_linear_2170_1117" x1="32.0775" y1="21.2824" x2="135.419" y2="116.341" gradientUnits="userSpaceOnUse">
<stop stop-color="#FF276C" stop-opacity="0.23"/>
<stop offset="1" stop-color="#9904F4" stop-opacity="0.31"/>
</linearGradient>
</defs>
</svg>
