<svg width="1602" height="828" viewBox="0 0 1602 828" fill="none" xmlns="http://www.w3.org/2000/svg">
<g filter="url(#filter0_f_2270_1559)">
<path fill-rule="evenodd" clip-rule="evenodd" d="M852.633 357.173C856.28 360.166 853.692 367.896 853.164 372.755C854.005 413.567 915.847 305.363 869.056 324.158L864.16 322.973L859.544 320.952C833.675 277.669 817.406 401.232 842.779 369.255C845.299 365.068 847.918 357.348 852.633 357.173L852.633 357.173Z" fill="white" fill-opacity="0.5"/>
</g>
<path opacity="0.3" fill-rule="evenodd" clip-rule="evenodd" d="M548.808 807.766C554.468 812.41 550.452 824.407 549.632 831.947C550.938 895.281 646.907 727.364 574.295 756.531L566.696 754.692L559.534 751.557C519.388 684.387 494.141 876.139 533.517 826.516C537.428 820.017 541.492 808.037 548.808 807.766L548.808 807.766Z" fill="white"/>
<g filter="url(#filter1_f_2270_1559)">
<path fill-rule="evenodd" clip-rule="evenodd" d="M558.156 65.7574C564.142 70.6691 559.894 83.3579 559.027 91.333C560.408 158.322 661.916 -19.2853 585.113 11.5656L577.075 9.61983L569.5 6.30371C527.038 -64.742 500.334 138.076 541.982 85.5884C546.118 78.7152 550.417 66.0433 558.156 65.7574L558.156 65.7574Z" fill="white" fill-opacity="0.1"/>
</g>
<g filter="url(#filter2_f_2270_1559)">
<path fill-rule="evenodd" clip-rule="evenodd" d="M1309.96 541.615C1317.38 547.701 1312.12 563.422 1311.04 573.303C1312.75 656.301 1438.52 436.25 1343.36 474.473L1333.4 472.062L1324.02 467.954C1271.41 379.93 1238.32 631.216 1289.92 566.185C1295.05 557.67 1300.37 541.969 1309.96 541.615L1309.96 541.615Z" fill="white" fill-opacity="0.1"/>
</g>
<g filter="url(#filter3_f_2270_1559)">
<path fill-rule="evenodd" clip-rule="evenodd" d="M959.605 789.637C968.018 796.54 962.047 814.373 960.829 825.582C962.77 919.73 1105.43 670.116 997.49 713.475L986.195 710.74L975.548 706.08C915.871 606.231 878.341 891.275 936.873 817.508C942.687 807.848 948.728 790.039 959.605 789.637L959.605 789.637Z" fill="white" fill-opacity="0.1"/>
</g>
<g filter="url(#filter4_f_2270_1559)">
<path fill-rule="evenodd" clip-rule="evenodd" d="M118.625 807.081C124.612 811.993 120.363 824.682 119.496 832.657C120.878 899.646 222.385 722.038 145.582 752.889L137.545 750.944L129.969 747.627C87.5069 676.582 60.8032 879.4 102.451 826.912C106.587 820.039 110.886 807.367 118.625 807.081L118.625 807.081Z" fill="white" fill-opacity="0.1"/>
</g>
<g filter="url(#filter5_f_2270_1559)">
<path fill-rule="evenodd" clip-rule="evenodd" d="M72.8875 233.652C81.3397 240.586 75.3414 258.501 74.1172 269.761C76.0677 364.341 219.382 113.583 110.947 157.14L99.5992 154.393L88.9036 149.711C28.9529 49.4043 -8.74912 335.756 50.0519 261.65C55.8921 251.946 61.9609 234.055 72.8874 233.652L72.8875 233.652Z" fill="white" fill-opacity="0.1"/>
</g>
<g filter="url(#filter6_f_2270_1559)">
<path fill-rule="evenodd" clip-rule="evenodd" d="M897.767 196.367C909.1 205.665 901.057 229.685 899.416 244.782C902.031 371.594 1094.19 35.3801 948.797 93.7812L933.582 90.0979L919.241 83.8205C838.86 -50.6702 788.309 333.268 867.149 233.908C874.98 220.897 883.117 196.909 897.767 196.367L897.767 196.367Z" fill="white" fill-opacity="0.1"/>
</g>
<path fill-rule="evenodd" clip-rule="evenodd" d="M1538.7 106.867C1542.82 110.243 1539.9 118.965 1539.3 124.446C1540.25 170.493 1610.02 48.4109 1557.23 69.6168L1551.71 68.2793L1546.5 65.9999C1517.31 17.1653 1498.96 156.576 1527.58 120.498C1530.43 115.773 1533.38 107.063 1538.7 106.867Z" fill="white"/>
<path opacity="0.2" fill-rule="evenodd" clip-rule="evenodd" d="M1553.54 632.563C1558.12 636.325 1554.87 646.043 1554.2 652.15C1555.26 703.453 1633 567.434 1574.18 591.061L1568.03 589.571L1562.22 587.031C1529.71 532.622 1509.25 687.948 1541.15 647.751C1544.32 642.487 1547.61 632.782 1553.54 632.563L1553.54 632.563Z" fill="white"/>
<defs>
<filter id="filter0_f_2270_1559" x="820.067" y="301.647" width="76.4741" height="90.3838" filterUnits="userSpaceOnUse" color-interpolation-filters="sRGB">
<feFlood flood-opacity="0" result="BackgroundImageFix"/>
<feBlend mode="normal" in="SourceGraphic" in2="BackgroundImageFix" result="shape"/>
<feGaussianBlur stdDeviation="5" result="effect1_foregroundBlur_2270_1559"/>
</filter>
<filter id="filter1_f_2270_1559" x="510.115" y="-19.9692" width="114.697" height="137.528" filterUnits="userSpaceOnUse" color-interpolation-filters="sRGB">
<feFlood flood-opacity="0" result="BackgroundImageFix"/>
<feBlend mode="normal" in="SourceGraphic" in2="BackgroundImageFix" result="shape"/>
<feGaussianBlur stdDeviation="5.5" result="effect1_foregroundBlur_2270_1559"/>
</filter>
<filter id="filter2_f_2270_1559" x="1253.07" y="438.031" width="136.849" height="165.137" filterUnits="userSpaceOnUse" color-interpolation-filters="sRGB">
<feFlood flood-opacity="0" result="BackgroundImageFix"/>
<feBlend mode="normal" in="SourceGraphic" in2="BackgroundImageFix" result="shape"/>
<feGaussianBlur stdDeviation="5.5" result="effect1_foregroundBlur_2270_1559"/>
</filter>
<filter id="filter3_f_2270_1559" x="887.547" y="664.615" width="170.278" height="202.366" filterUnits="userSpaceOnUse" color-interpolation-filters="sRGB">
<feFlood flood-opacity="0" result="BackgroundImageFix"/>
<feBlend mode="normal" in="SourceGraphic" in2="BackgroundImageFix" result="shape"/>
<feGaussianBlur stdDeviation="10" result="effect1_foregroundBlur_2270_1559"/>
</filter>
<filter id="filter4_f_2270_1559" x="70.5841" y="721.354" width="114.697" height="137.528" filterUnits="userSpaceOnUse" color-interpolation-filters="sRGB">
<feFlood flood-opacity="0" result="BackgroundImageFix"/>
<feBlend mode="normal" in="SourceGraphic" in2="BackgroundImageFix" result="shape"/>
<feGaussianBlur stdDeviation="5.5" result="effect1_foregroundBlur_2270_1559"/>
</filter>
<filter id="filter5_f_2270_1559" x="9.59082" y="117.147" width="152.875" height="185.11" filterUnits="userSpaceOnUse" color-interpolation-filters="sRGB">
<feFlood flood-opacity="0" result="BackgroundImageFix"/>
<feBlend mode="normal" in="SourceGraphic" in2="BackgroundImageFix" result="shape"/>
<feGaussianBlur stdDeviation="5.5" result="effect1_foregroundBlur_2270_1559"/>
</filter>
<filter id="filter6_f_2270_1559" x="799.648" y="26.9082" width="231.477" height="274.697" filterUnits="userSpaceOnUse" color-interpolation-filters="sRGB">
<feFlood flood-opacity="0" result="BackgroundImageFix"/>
<feBlend mode="normal" in="SourceGraphic" in2="BackgroundImageFix" result="shape"/>
<feGaussianBlur stdDeviation="14" result="effect1_foregroundBlur_2270_1559"/>
</filter>
</defs>
</svg>
