<svg width="139" height="131" viewBox="0 0 139 131" fill="none" xmlns="http://www.w3.org/2000/svg">
<path d="M63.4483 2C27.7728 2 2 25.6592 2 60.4425C2 95.2258 27.7728 129 63.4483 129C99.1238 129 137 102.531 137 67.7478C137 32.9645 99.1238 2 63.4483 2Z" stroke="#FFF9F4" stroke-width="3" stroke-linecap="round" stroke-linejoin="round" stroke-dasharray="7 7"/>
<path d="M40.6741 71.6973C37.3701 65.5023 39.7138 57.802 45.9087 54.4981" stroke="#FFF9F4" stroke-width="3" stroke-linecap="round"/>
<path d="M35.7837 76.9983C28.5686 69.0243 29.1837 56.7112 37.1576 49.4961" stroke="#FFF9F4" stroke-width="3" stroke-linecap="round"/>
<path d="M97.4852 76.9018C101.676 71.986 100.742 64.3083 95.3997 59.7533" stroke="#FFF9F4" stroke-width="3" stroke-linecap="round"/>
<path d="M103.408 81.0722C110.533 73.0175 109.779 60.7121 101.725 53.5872" stroke="#FFF9F4" stroke-width="3" stroke-linecap="round"/>
<path fill-rule="evenodd" clip-rule="evenodd" d="M66.4224 41.7059C66.3806 42.2164 66.0491 42.6852 65.5522 42.8096C61.9992 43.6989 59.5703 45.424 57.7992 48.525C54.7068 53.9461 55.9349 63.5362 53.0489 69.2166C51.2202 72.8191 48.5905 74.6074 44.6482 76.0412C44.2679 76.1795 44.0008 76.5275 43.9758 76.9313L43.9163 77.8946C43.8823 78.4458 44.301 78.9202 44.8522 78.9543C60.155 79.8994 76.298 80.8964 92.1023 81.8725C92.6535 81.9065 93.1277 81.4872 93.1617 80.936L93.2418 79.6405C93.2667 79.2364 93.0462 78.8557 92.6766 78.6905C91.5763 78.1989 90.6166 77.8647 89.7503 77.27C83.3848 72.8905 83.8329 65.2368 83.7077 56.8739C83.6159 50.9039 80.8067 45.8283 76.4088 43.5385C75.9803 43.3155 75.7472 42.8336 75.7865 42.3521C76.2483 36.6868 66.8592 36.3723 66.4224 41.7059Z" fill="#F6D271"/>
<path fill-rule="evenodd" clip-rule="evenodd" d="M61.5598 84.4711C61.4516 84.9176 61.3822 85.3732 61.3527 85.8322C61.1128 89.7167 63.7381 93.0417 67.2211 93.2568C70.7042 93.4719 73.7186 90.498 73.9586 86.6108C73.9877 86.1518 73.9763 85.6912 73.9245 85.2347L61.5598 84.4711Z" fill="#F6D271"/>
</svg>
