<svg width="131" height="131" viewBox="0 0 131 131" fill="none" xmlns="http://www.w3.org/2000/svg">
<mask id="mask0_2272_1687" style="mask-type:alpha" maskUnits="userSpaceOnUse" x="0" y="0" width="131" height="131">
<rect width="131" height="131" fill="#D9D9D9"/>
</mask>
<g mask="url(#mask0_2272_1687)">
<path fill-rule="evenodd" clip-rule="evenodd" d="M58.7299 86.7489C58.7299 86.7489 58.7299 86.7489 58.73 86.7489C66.5723 89.4837 66.6009 102.826 68.4693 110.638C92.3266 171.632 133.278 -15.0072 73.4264 22.844C69.5357 25.3046 65.2036 27.1564 60.6151 27.5272C59.3604 27.6286 58.0995 27.6286 56.8448 27.5272C52.2563 27.1564 47.9242 25.3046 44.0334 22.8441C-15.8187 -15.0072 25.1331 171.632 48.9905 110.638C50.8583 102.826 50.8868 89.4837 58.7299 86.7489C58.7299 86.7489 58.7299 86.7489 58.7299 86.7489Z" fill="#FFCB06"/>
<path d="M55.4229 48.356C55.4229 58.0781 47.5416 65.9594 37.8196 65.9594C28.0975 65.9594 20.2162 58.0781 20.2162 48.356C20.2162 38.6339 29.6978 29.1523 39.4199 29.1523C49.1419 29.1523 55.4229 38.6339 55.4229 48.356Z" fill="url(#paint0_radial_2272_1687)"/>
<circle cx="37.8211" cy="48.3565" r="8.00153" fill="#48528A"/>
<circle cx="31.4205" cy="45.1544" r="4.80092" fill="white"/>
<path d="M100.075 44.356C100.075 54.0781 92.1935 61.9594 82.4714 61.9594C72.7493 61.9594 64.868 54.0781 64.868 44.356C64.868 34.6339 74.3496 25.1523 84.0717 25.1523C93.7938 25.1523 100.075 34.6339 100.075 44.356Z" fill="url(#paint1_radial_2272_1687)"/>
<circle cx="82.4696" cy="44.3565" r="8.00153" fill="#48528A"/>
<circle cx="76.0733" cy="41.1559" r="4.80092" fill="white"/>
<path d="M47.1565 76.627C53.8539 81.092 65.0163 77.7432 69.4813 74.3945" stroke="#FF276C" stroke-width="3" stroke-linecap="round"/>
<path d="M42.2588 16.6292C37.9447 16.6292 24.1394 23.9633 23.708 26.5518" stroke="#D95930" stroke-width="3" stroke-linecap="round"/>
<path d="M93.0229 17.7455C89.3521 15.4791 73.7524 14.4672 72.0255 16.4431" stroke="#D95930" stroke-width="3" stroke-linecap="round"/>
</g>
<defs>
<radialGradient id="paint0_radial_2272_1687" cx="0" cy="0" r="1" gradientUnits="userSpaceOnUse" gradientTransform="translate(37.8196 47.5559) rotate(90) scale(18.4035 17.6034)">
<stop offset="0.263763" stop-color="#FAFAFA"/>
<stop offset="1" stop-color="#F7F5F5"/>
</radialGradient>
<radialGradient id="paint1_radial_2272_1687" cx="0" cy="0" r="1" gradientUnits="userSpaceOnUse" gradientTransform="translate(82.4714 43.5559) rotate(90) scale(18.4035 17.6034)">
<stop offset="0.263763" stop-color="#FAFAFA"/>
<stop offset="1" stop-color="#F7F5F5"/>
</radialGradient>
</defs>
</svg>
