<svg width="139" height="131" viewBox="0 0 139 131" fill="none" xmlns="http://www.w3.org/2000/svg">
<path d="M75.5517 2C111.227 2 137 25.6592 137 60.4425C137 95.2258 111.227 129 75.5517 129C39.8762 129 2 102.531 2 67.7478C2 32.9645 39.8762 2 75.5517 2Z" stroke="#FFF9F4" stroke-width="3" stroke-linecap="round" stroke-linejoin="round" stroke-dasharray="7 7"/>
<path d="M58.0172 30.2232C58.2217 29.1364 59.7783 29.1364 59.9828 30.2232L63.9169 51.1327C63.9923 51.5334 64.3034 51.8482 64.7031 51.9283L85.1095 56.0195C86.1807 56.2343 86.1807 57.7657 85.1095 57.9805L64.7031 62.0717C64.3034 62.1518 63.9923 62.4666 63.9169 62.8673L59.9828 83.7768C59.7783 84.8636 58.2217 84.8636 58.0172 83.7768L54.0831 62.8673C54.0077 62.4666 53.6966 62.1518 53.2969 62.0717L32.8905 57.9805C31.8193 57.7657 31.8193 56.2343 32.8905 56.0195L53.2969 51.9283C53.6966 51.8482 54.0077 51.5334 54.0831 51.1327L58.0172 30.2232Z" fill="#F6D271"/>
<path d="M89.5159 71.4568C89.7137 70.3601 91.2863 70.3601 91.4841 71.4568L93.5517 82.9213C93.6241 83.3223 93.9324 83.6393 94.3311 83.7227L105.32 86.0212C106.381 86.243 106.381 87.757 105.32 87.9788L94.3311 90.2773C93.9324 90.3607 93.6241 90.6777 93.5517 91.0787L91.4841 102.543C91.2863 103.64 89.7137 103.64 89.5159 102.543L87.4483 91.0787C87.3759 90.6777 87.0676 90.3607 86.6689 90.2773L75.6797 87.9788C74.6194 87.757 74.6194 86.243 75.6797 86.0212L86.6689 83.7227C87.0676 83.6393 87.3759 83.3223 87.4483 82.9213L89.5159 71.4568Z" fill="#FFF9F4"/>
<path d="M96.5158 30.4729C96.7131 29.3755 98.2869 29.3755 98.4842 30.4729L99.4136 35.6411C99.4857 36.042 99.7939 36.3592 100.193 36.4428L105.334 37.5213C106.394 37.7436 106.394 39.2564 105.334 39.4787L100.193 40.5572C99.7939 40.6408 99.4857 40.958 99.4136 41.3589L98.4842 46.5271C98.2869 47.6245 96.7131 47.6245 96.5158 46.5271L95.5864 41.3589C95.5143 40.958 95.2061 40.6408 94.8074 40.5572L89.6658 39.4787C88.6062 39.2564 88.6062 37.7436 89.6658 37.5213L94.8074 36.4428C95.2061 36.3592 95.5143 36.042 95.5864 35.6411L96.5158 30.4729Z" fill="#FFF9F4"/>
</svg>
