<svg width="139" height="131" viewBox="0 0 139 131" fill="none" xmlns="http://www.w3.org/2000/svg">
<path d="M63.4483 2C27.7728 2 2 25.6592 2 60.4425C2 95.2258 27.7728 129 63.4483 129C99.1238 129 137 102.531 137 67.7478C137 32.9645 99.1238 2 63.4483 2Z" stroke="#FFF9F4" stroke-width="3" stroke-linecap="round" stroke-linejoin="round" stroke-dasharray="7 7"/>
<path d="M41.5386 41.677H39.8884C39.7379 41.1204 39.5057 40.5867 39.1989 40.0917L40.366 38.9805C40.5002 38.8517 40.5755 38.6777 40.5755 38.4962C40.5755 38.3148 40.5002 38.1408 40.366 38.012L39.0948 36.8013C38.9597 36.6734 38.7769 36.6015 38.5864 36.6015C38.3958 36.6015 38.213 36.6734 38.0779 36.8013L36.9107 37.9126C36.3909 37.6208 35.8308 37.3999 35.2466 37.2562V35.6846C35.2458 35.5032 35.1697 35.3295 35.035 35.2012C34.9003 35.073 34.7179 35.0007 34.5274 35H32.73C32.5395 35.0005 32.3569 35.0728 32.2222 35.201C32.0874 35.3293 32.0114 35.5031 32.0108 35.6846V37.2562C31.4262 37.3995 30.8656 37.6203 30.3456 37.9122L29.1795 36.8017C29.0444 36.6737 28.8616 36.6019 28.6711 36.6019C28.4805 36.6019 28.2977 36.6737 28.1626 36.8017L26.8914 38.0123C26.757 38.141 26.6816 38.3151 26.6816 38.4966C26.6816 38.6781 26.757 38.8522 26.8914 38.9809L28.0578 40.0921C27.7515 40.5871 27.5197 41.1206 27.3694 41.677H25.7192C25.5287 41.6777 25.3462 41.75 25.2114 41.8783C25.0767 42.0066 25.0007 42.1805 25 42.3619V44.0737C25.0006 44.2552 25.0766 44.4291 25.2113 44.5574C25.3461 44.6857 25.5286 44.7581 25.7192 44.7587H27.3698C27.5202 45.3152 27.7521 45.8489 28.0586 46.3439L26.8918 47.4551C26.7576 47.5839 26.6823 47.758 26.6823 47.9394C26.6823 48.1208 26.7576 48.2949 26.8918 48.4237L28.163 49.6343C28.2982 49.7621 28.4809 49.8338 28.6714 49.8338C28.8619 49.8338 29.0447 49.7621 29.1799 49.6343L30.3463 48.5235C30.866 48.8155 31.4264 49.0363 32.0108 49.1794V50.7511C32.0113 50.9325 32.0873 51.1064 32.2221 51.2347C32.3568 51.363 32.5395 51.4353 32.73 51.4356H34.5274C34.7179 51.4352 34.9005 51.3629 35.0353 51.2346C35.17 51.1064 35.246 50.9325 35.2466 50.7511V49.1794C35.8308 49.0358 36.391 48.8147 36.9107 48.5227L38.0779 49.6343C38.2131 49.7621 38.3959 49.8338 38.5864 49.8338C38.7769 49.8338 38.9596 49.7621 39.0948 49.6343L40.366 48.4237C40.5002 48.2949 40.5755 48.1208 40.5755 47.9394C40.5755 47.758 40.5002 47.5839 40.366 47.4551L39.1989 46.3435C39.5059 45.8488 39.7381 45.3153 39.8884 44.7587H41.5386C41.7291 44.7581 41.9117 44.6857 42.0464 44.5574C42.181 44.429 42.2569 44.2552 42.2574 44.0737V42.3619C42.2568 42.1805 42.1809 42.0067 42.0462 41.8784C41.9116 41.7501 41.7291 41.6777 41.5386 41.677ZM36.5051 44.3525L34.8202 45.9572H32.4373L30.7523 44.3525V42.0831L32.4369 40.4784H34.8198L36.5051 42.0831V44.3525Z" fill="white"/>
<path d="M112.539 83.677H110.888C110.738 83.1204 110.506 82.5867 110.199 82.0917L111.366 80.9805C111.5 80.8517 111.576 80.6777 111.576 80.4962C111.576 80.3148 111.5 80.1408 111.366 80.012L110.095 78.8013C109.96 78.6734 109.777 78.6015 109.586 78.6015C109.396 78.6015 109.213 78.6734 109.078 78.8013L107.911 79.9126C107.391 79.6208 106.831 79.3999 106.247 79.2562V77.6846C106.246 77.5032 106.17 77.3295 106.035 77.2012C105.9 77.073 105.718 77.0007 105.527 77H103.73C103.54 77.0005 103.357 77.0728 103.222 77.201C103.087 77.3293 103.011 77.5031 103.011 77.6846V79.2562C102.426 79.3995 101.866 79.6203 101.346 79.9122L100.18 78.8017C100.044 78.6737 99.8616 78.6019 99.6711 78.6019C99.4805 78.6019 99.2977 78.6737 99.1626 78.8017L97.8914 80.0123C97.757 80.141 97.6816 80.3151 97.6816 80.4966C97.6816 80.6781 97.757 80.8522 97.8914 80.9809L99.0578 82.0921C98.7515 82.5871 98.5197 83.1206 98.3694 83.677H96.7192C96.5287 83.6777 96.3462 83.75 96.2114 83.8783C96.0767 84.0066 96.0007 84.1805 96 84.3619V86.0737C96.0006 86.2552 96.0766 86.4291 96.2113 86.5574C96.3461 86.6857 96.5286 86.7581 96.7192 86.7587H98.3698C98.5202 87.3152 98.7521 87.8489 99.0586 88.3439L97.8918 89.4551C97.7576 89.5839 97.6823 89.758 97.6823 89.9394C97.6823 90.1208 97.7576 90.2949 97.8918 90.4237L99.163 91.6343C99.2982 91.7621 99.4809 91.8338 99.6714 91.8338C99.8619 91.8338 100.045 91.7621 100.18 91.6343L101.346 90.5235C101.866 90.8155 102.426 91.0363 103.011 91.1794V92.7511C103.011 92.9325 103.087 93.1064 103.222 93.2347C103.357 93.363 103.539 93.4353 103.73 93.4356H105.527C105.718 93.4352 105.901 93.3629 106.035 93.2346C106.17 93.1064 106.246 92.9325 106.247 92.7511V91.1794C106.831 91.0358 107.391 90.8147 107.911 90.5227L109.078 91.6343C109.213 91.7621 109.396 91.8338 109.586 91.8338C109.777 91.8338 109.96 91.7621 110.095 91.6343L111.366 90.4237C111.5 90.2949 111.576 90.1208 111.576 89.9394C111.576 89.758 111.5 89.5839 111.366 89.4551L110.199 88.3435C110.506 87.8488 110.738 87.3153 110.888 86.7587H112.539C112.729 86.7581 112.912 86.6857 113.046 86.5574C113.181 86.429 113.257 86.2552 113.257 86.0737V84.3619C113.257 84.1805 113.181 84.0067 113.046 83.8784C112.912 83.7501 112.729 83.6777 112.539 83.677ZM107.505 86.3525L105.82 87.9572H103.437L101.752 86.3525V84.0831L103.437 82.4784H105.82L107.505 84.0831V86.3525Z" fill="white"/>
<path d="M93.042 63.5251L88.0881 62.9784C87.8299 61.174 87.3187 59.4151 86.5697 57.7533L90.46 54.6374C90.9076 54.276 91.1942 53.7522 91.2573 53.1804C91.3204 52.6086 91.155 52.035 90.797 51.5846L87.4021 47.3475C87.041 46.8993 86.5173 46.6124 85.9452 46.5492C85.3732 46.4861 84.7995 46.652 84.3493 47.0105L80.459 50.1265C79.0002 49.0346 77.3955 48.1527 75.6918 47.5064L76.2386 42.5525C76.2992 41.9806 76.1314 41.4078 75.7716 40.959C75.4118 40.5102 74.8893 40.2217 74.3178 40.1565L68.9222 39.561C68.3501 39.4994 67.7769 39.6667 67.3278 40.0264C66.8787 40.386 66.5901 40.9088 66.5251 41.4805L65.9784 46.4344C64.1736 46.6922 62.414 47.2025 60.7513 47.9502L57.6373 44.0636C57.2762 43.6155 56.7524 43.3285 56.1804 43.2654C55.6084 43.2022 55.0346 43.3681 54.5845 43.7267L50.3473 47.1215C49.8992 47.4826 49.6123 48.0064 49.5491 48.5784C49.486 49.1504 49.6518 49.7242 50.0104 50.1743L53.1253 54.0634C52.0335 55.5219 51.1523 57.1268 50.5076 58.8308L45.5537 58.284C44.9816 58.223 44.4085 58.3907 43.9594 58.7505C43.5104 59.1103 43.2218 59.633 43.1565 60.2047L42.561 65.6003C42.4997 66.1725 42.6673 66.7457 43.0271 67.1948C43.387 67.644 43.9099 67.9325 44.4817 67.9975L49.4367 68.5443C49.6945 70.3484 50.2049 72.1073 50.9528 73.7692L47.0636 76.8852C46.616 77.2467 46.3294 77.7704 46.2663 78.3422C46.2032 78.914 46.3687 79.4876 46.7267 79.938L50.1215 84.1751C50.483 84.6227 51.0067 84.9093 51.5785 84.9724C52.1503 85.0355 52.724 84.8701 53.1743 84.5121L57.0622 81.397C58.5207 82.4898 60.126 83.3715 61.8307 84.0161L61.2839 88.9699C61.2223 89.5421 61.3898 90.1154 61.7498 90.5644C62.1097 91.0134 62.6328 91.3016 63.2047 91.366L68.6003 91.9615C69.1724 92.0231 69.7456 91.8558 70.1947 91.4961C70.6438 91.1365 70.9324 90.6137 70.9973 90.042L71.5441 85.0881C73.3479 84.829 75.1064 84.3178 76.768 83.5696L79.8851 87.46C80.2465 87.9076 80.7702 88.1942 81.3421 88.2573C81.9139 88.3204 82.4875 88.1549 82.9379 87.797L87.175 84.4021C87.6226 84.0407 87.9092 83.517 87.9723 82.9451C88.0354 82.3733 87.8699 81.7997 87.5119 81.3493L84.3949 77.4589C85.4888 76.0013 86.3713 74.3964 87.0161 72.6918L91.9699 73.2386C92.5421 73.2999 93.1152 73.1322 93.5641 72.7724C94.0131 72.4125 94.3013 71.8895 94.366 71.3178L94.9615 65.9222C95.0228 65.3502 94.8553 64.7771 94.4957 64.3281C94.1361 63.879 93.6136 63.5904 93.042 63.5251ZM77.0011 70.2908L71.3849 74.7905L64.2317 74.001L59.732 68.3849L60.5214 61.2317L66.1364 56.7318L73.2897 57.5213L77.7905 63.1376L77.0011 70.2908Z" fill="#F6D271"/>
</svg>
