<svg width="139" height="131" viewBox="0 0 139 131" fill="none" xmlns="http://www.w3.org/2000/svg">
<path d="M75.5517 2C111.227 2 137 25.6592 137 60.4425C137 95.2258 111.227 129 75.5517 129C39.8762 129 2 102.531 2 67.7478C2 32.9645 39.8762 2 75.5517 2Z" stroke="#FFF9F4" stroke-width="3" stroke-linecap="round" stroke-linejoin="round" stroke-dasharray="7 7"/>
<path fill-rule="evenodd" clip-rule="evenodd" d="M71.6044 77.6194C71.6044 77.6194 71.6044 77.6194 71.6044 77.6194C76.4686 79.308 76.4863 87.5469 77.6452 92.3706C92.4417 130.032 117.84 14.7981 80.7256 38.1551C78.3082 39.6765 75.6197 40.8216 72.7726 41.0507V41.0507C71.9951 41.1132 71.2138 41.1132 70.4363 41.0507V41.0507C67.5892 40.8216 64.9006 39.6765 62.4832 38.1551C25.3688 14.7981 50.767 130.032 65.5636 92.3706C66.7221 87.5469 66.7398 79.308 71.6044 77.6194C71.6044 77.6194 71.6044 77.6194 71.6044 77.6194V77.6194Z" fill="#F6D271"/>
<path d="M79.4286 50.8406L83.1534 55.3002C84.2298 56.5889 86.1543 56.7433 87.4224 55.6427L105.111 40.2902" stroke="white" stroke-width="4" stroke-linecap="round" stroke-linejoin="round"/>
</svg>
