<svg width="67" height="7" viewBox="0 0 67 7" fill="none" xmlns="http://www.w3.org/2000/svg">
<path d="M47.0312 6.87012C45.2767 6.87012 43.5335 6.85872 41.8018 6.83594C40.389 6.81315 38.8395 6.80176 37.1533 6.80176L35.5811 6.87012H21.8408C20.4281 6.80176 19.3799 6.76758 18.6963 6.76758C17.7393 6.76758 16.7367 6.75619 15.6885 6.7334C14.6631 6.68783 13.7402 6.66504 12.9199 6.66504C6.35742 6.66504 2.40397 6.58529 1.05957 6.42578L0 4.44336C0.159505 3.96484 0.239258 3.5319 0.239258 3.14453C0.239258 2.98503 0.227865 2.82552 0.205078 2.66602C0.159505 2.48372 0.136719 2.30143 0.136719 2.11914C0.136719 1.45833 0.375977 0.854492 0.854492 0.307617C1.81152 0.193685 2.89388 0.136719 4.10156 0.136719L6.93848 0.170898C7.75879 0.170898 8.55632 0.148112 9.33105 0.102539C11.9059 0.0341797 14.9251 0 18.3887 0C22.194 0 28.1527 0.0797526 36.2646 0.239258C37.2217 0.170898 38.737 0.136719 40.8105 0.136719H42.4854C45.4476 0.159505 48.6149 0.205078 51.9873 0.273438C55.3825 0.31901 58.3333 0.398763 60.8398 0.512695C63.3691 0.603841 64.8047 0.683594 65.1465 0.751953C65.9668 1.36719 66.377 2.19889 66.377 3.24707C66.377 3.33822 66.3428 3.7028 66.2744 4.34082C66.2061 4.97884 65.7617 5.66244 64.9414 6.3916C58.9258 6.71061 52.9557 6.87012 47.0312 6.87012Z" fill="#4782CD"/>
</svg>
