<svg width="1516" height="1097" viewBox="0 0 1516 1097" fill="none" xmlns="http://www.w3.org/2000/svg">
<path d="M754 1059.49C754 1072.02 742.663 1079 730.33 1079C717.998 1079 708 1068.84 708 1056.31C708 1043.79 724.25 1030 736.583 1030C748.915 1030 754 1046.96 754 1059.49Z" fill="#FCEFE8"/>
<path fill-rule="evenodd" clip-rule="evenodd" d="M1005.82 1052.33C1009.44 1057.56 1003.22 1066.62 1000.73 1072.72C986.677 1125.93 1106.98 1008.63 1039.36 1015.63L1033.46 1012.28L1028.22 1007.95C1010.75 942.246 943.817 1096.36 988.57 1064.33C993.39 1059.84 999.649 1050.81 1005.82 1052.33L1005.82 1052.33Z" fill="#FFF2D7"/>
<path fill-rule="evenodd" clip-rule="evenodd" d="M20.1985 743.199C17.632 744.355 14.1855 740.922 11.7282 739.352C-10.3126 728.983 31.139 790.726 33.4947 760.73L35.4264 758.426L37.7298 756.495C67.7261 754.139 5.9832 712.687 16.3518 734.728C17.9223 737.185 21.3552 740.632 20.1985 743.199L20.1985 743.199Z" fill="#EDDFF5"/>
<path fill-rule="evenodd" clip-rule="evenodd" d="M278.436 683.172C275.506 685.755 277.875 692.074 278.455 696.078C278.959 729.868 224.614 642.166 263.878 656.34L267.894 655.215L271.653 653.408C291.783 616.838 308.876 718.587 286.943 692.878C284.735 689.487 282.342 683.177 278.436 683.172L278.436 683.172Z" fill="#FEE6D9"/>
<path fill-rule="evenodd" clip-rule="evenodd" d="M1460.43 975.431C1467.37 972.305 1476.68 981.583 1483.32 985.827C1542.9 1013.85 1430.86 846.972 1424.49 928.046L1419.27 934.272L1413.05 939.493C1331.97 945.86 1498.85 1057.9 1470.83 998.324C1466.58 991.683 1457.3 982.368 1460.43 975.431L1460.43 975.431Z" fill="#EDDFF5"/>
<path fill-rule="evenodd" clip-rule="evenodd" d="M976.175 56.2338C971.918 59.7265 974.939 68.7493 975.556 74.4203C974.573 122.056 902.392 -4.23928 957.006 17.6985L962.722 16.3149L968.108 13.9568C998.303 -36.5631 1017.29 107.659 987.676 70.3355C984.735 65.448 981.678 56.4371 976.175 56.2338L976.175 56.2338Z" fill="#FFDDF6"/>
<path fill-rule="evenodd" clip-rule="evenodd" d="M724.002 101.24C726.871 103.636 724.768 109.742 724.316 113.587C724.705 145.923 774.431 60.6278 737.236 75.1983L733.366 74.2259L729.723 72.5941C709.525 38.1303 695.796 135.902 716.114 110.744C718.139 107.444 720.266 101.346 724.002 101.24L724.002 101.24Z" fill="#F3D78D"/>
</svg>
