<svg width="116" height="114" viewBox="0 0 116 114" fill="none" xmlns="http://www.w3.org/2000/svg">
<path d="M63.2 0.668945C93.8545 0.668945 116 21.72 116 52.6689C116 83.6179 93.8545 113.669 63.2 113.669C32.5455 113.669 0 90.1179 0 59.1689C0 28.22 32.5455 0.668945 63.2 0.668945Z" fill="#914BF1"/>
<path d="M81.1145 29.2805C92.1361 40.3021 89.9868 61.359 78.9652 72.3806L61.4929 89.8531C58.8957 92.4503 56.9034 90.2315 54.3061 87.6342L43 72.3806C31.9784 61.359 30.0408 43.5178 41.0624 32.4962C52.084 21.4746 70.0929 18.2589 81.1145 29.2805Z" fill="white"/>
<path d="M74 48.1689C74 55.3486 67.6797 62.6689 60.5 62.6689C53.3203 62.6689 47 57.8486 47 50.6689C47 43.4892 53.3203 36.6689 60.5 36.6689C67.6797 36.6689 74 40.9892 74 48.1689Z" fill="#914BF1"/>
</svg>
