<svg width="116" height="114" viewBox="0 0 116 114" fill="none" xmlns="http://www.w3.org/2000/svg">
<path d="M52.8 113.669C22.1455 113.669 0 92.6179 0 61.6689C0 30.72 22.1455 0.668945 52.8 0.668945C83.4545 0.668945 116 24.22 116 55.1689C116 86.1179 83.4545 113.669 52.8 113.669Z" fill="#EB433C"/>
<path d="M83.6906 70.0811C83.2797 70.0811 82.9106 69.8297 82.7601 69.4474L70.2261 37.6127C69.9184 36.8311 68.8425 36.7542 68.4267 37.484L58.8706 54.2572C58.4867 54.9311 57.5148 54.9303 57.132 54.2557L47.6173 37.4871C47.2026 36.7564 46.1262 36.8318 45.8175 37.6132L33.2403 69.4485C33.0895 69.8302 32.7207 70.0811 32.3103 70.0811H30C29.4477 70.0811 29 70.5288 29 71.0811V74.2964C29 74.8487 29.4477 75.2964 30 75.2964H48.5088C49.0611 75.2964 49.5088 74.8487 49.5088 74.2964V71.0811C49.5088 70.5288 49.0611 70.0811 48.5088 70.0811H47.8513C47.1638 70.0811 46.6813 69.4032 46.9065 68.7536L48.7193 63.5233C48.9965 62.7233 50.0802 62.6083 50.5192 63.3322L57.1449 74.2588C57.5342 74.9008 58.4658 74.9008 58.8551 74.2588L65.4808 63.3322C65.9198 62.6083 67.0035 62.7233 67.2807 63.5233L69.0935 68.7536C69.3187 69.4032 68.8362 70.0811 68.1487 70.0811H67.4912C66.9389 70.0811 66.4912 70.5288 66.4912 71.0811V74.2964C66.4912 74.8487 66.9389 75.2964 67.4912 75.2964H86C86.5523 75.2964 87 74.8487 87 74.2964V71.0811C87 70.5288 86.5523 70.0811 86 70.0811H83.6906Z" fill="white"/>
</svg>
