<svg width="111" height="114" viewBox="0 0 111 114" fill="none" xmlns="http://www.w3.org/2000/svg">
<path d="M59.2 113.669C89.8545 113.669 111 89.5187 111 58.5698C111 27.6208 77.8295 0.668945 47.175 0.668945C16.5205 0.668945 0 27.6208 0 58.5698C0 89.5187 28.5455 113.669 59.2 113.669Z" fill="#6FC448"/>
<path d="M51.7257 58.2473C47.5548 54.0766 44.4106 49.4069 42.3215 44.6695C41.8795 43.6678 42.1397 42.495 42.9133 41.7215L47.8026 39.3118C50.1946 36.9199 48.225 33.0308 46.136 30.9419L41.9508 26.757C39.1666 23.9729 34.6535 23.9729 31.8693 26.757L29.545 29.0811C26.9034 31.7226 24.4105 37.0662 25.1235 40.8447C26.8846 50.1592 35.3931 62.1148 44.1235 70.8447C52.8539 79.5746 61.3085 83.5838 70.6235 85.3447C74.4023 86.0577 78.2521 83.0682 80.8937 80.4267L83.2144 78.1061C85.9986 75.3221 85.9986 70.8092 83.2144 68.0252L79.0328 63.8439C76.9438 61.755 73.5571 61.755 71.4717 63.8439L68.1235 68.8447C67.35 69.6183 66.1357 68.0252 65.3044 67.6581C60.5667 65.5656 55.8967 62.418 51.7257 58.2473Z" fill="white"/>
</svg>
