<svg width="18" height="13" viewBox="0 0 18 13" fill="none" xmlns="http://www.w3.org/2000/svg">
<g clip-path="url(#clip0_3102_738)">
<path d="M14.6816 1.9166C14.8792 3.42081 14.5241 4.94667 13.6855 6.19656C12.8469 7.44644 11.5849 8.33073 10.1458 8.67692C8.70665 9.02311 7.19354 8.80639 5.90159 8.06903C4.60963 7.33167 3.63148 6.12654 3.15793 4.68872L6.10352e-05 5.61766C1.18624 9.43793 4.66977 12.205 8.78239 12.205C13.8731 12.205 18.0001 7.96711 18.0001 2.73949C18.0001 2.22947 17.9602 1.72027 17.881 1.2168L14.6816 1.9166Z" fill="#F3007A"/>
<path d="M8.22455 0.205078L7.83895 3.37238L4.77531 4.26339L7.59508 5.58946L7.49708 8.92397L9.69756 6.5064L12.6165 7.61919L11.1069 4.81495L13.056 2.24101L9.97498 2.88662L8.22455 0.205078Z" fill="#F3007A"/>
</g>
<defs>
<clipPath id="clip0_3102_738">
<rect width="18" height="12" fill="white" transform="translate(6.10352e-05 0.205078)"/>
</clipPath>
</defs>
</svg>
