<svg width="190" height="89" viewBox="0 0 190 89" fill="none" xmlns="http://www.w3.org/2000/svg"><path d="M1.858 6.97A7.311 7.311 0 019.162 0H132.13a7.311 7.311 0 017.301 7.69l-1.437 27.646a7.311 7.311 0 01-7.059 6.927L7.917 46.347C3.65 46.49.17 42.961.37 38.697L1.858 6.97z" fill="#7BC35A"/><path d="M25.59 32.187h-.162c-.193 0-.317-.012-.371-.035l-.232-.104-.522-6.846-.5-.011c-.309 0-.583.019-.823.058a6.63 6.63 0 01-.87.08c-.317 0-.673-.018-1.067-.057l-.894-.058a73.37 73.37 0 00-.046 1.624c-.016.99-.074 2.147-.174 3.47-.008.115-.012.24-.012.37l.023.824c0 .248-.015.468-.046.662a4.617 4.617 0 00-.696-.047l-.406.012a4.645 4.645 0 01-.523.035.995.995 0 01-.336-.058c-.147-.062-.22-.364-.22-.905 0-.271.019-.619.057-1.044-.154-3.876-.235-6.073-.243-6.59a192.28 192.28 0 01-.047-3.969c0-1.57.04-2.452.116-2.645v-.731c0-.27.04-.445.116-.522.086-.078.488-.116 1.207-.116.449 0 .774.034.975.104.232.085.348.294.348.627v.174a14.335 14.335 0 00-.012 1.821l.012.708c0 .41-.016.812-.047 1.207-.03.325-.046.874-.046 1.647 0 .364.012.658.035.882a42.36 42.36 0 002.796.093c.418 0 .84-.008 1.265-.023.008-.225.011-.484.011-.778l-.011-1.02c-.016-.434-.023-.87-.023-1.312 0-.58.011-1.276.034-2.088.024-.82.12-1.462.29-1.926.21-.093.472-.14.79-.14.425 0 .804.05 1.137.151l.127 5.106a51.15 51.15 0 01.14 3.666c0 .526-.012.994-.035 1.404.116.162.197.804.243 1.926.016.565.023.986.023 1.265 0 .177-.011.348-.034.51a9.874 9.874 0 00-.035.51c0 .287.023.616.07.987.023.209.038.398.046.568l.058.383c-.224.078-.72.128-1.485.151zm9.178 0h-.394c-.317 0-.928-.015-1.833-.046v-.024l-1.114.012-.8.012a15.38 15.38 0 01-1.544-.07c-.03-.348-.066-1.09-.104-2.228a161.935 161.935 0 01-.116-5.72c0-2.142.065-3.36.197-3.655-.062-.27-.093-.715-.093-1.334 0-1.083.043-2.177.128-3.284.2-.185.986-.278 2.355-.278.572 0 1.183.012 1.833.035a15.897 15.897 0 001.717 0c.302-.023.596-.035.882-.035.805 0 1.536.089 2.193.267.085.325.128.712.128 1.16 0 .201-.016.387-.047.557-.054.279-.178.418-.371.418l-2.39-.012-2.379-.023c-.75 0-1.253.008-1.508.023l-.012.882v.731l-.011.73a37.59 37.59 0 00-.047 1.834c0 .248.008.449.024.604.116.07.831.104 2.146.104.805 0 1.586.015 2.344.046.758.031 1.284.116 1.578.256.123.502.185.912.185 1.23 0 .348-.077.583-.232.707-.255.201-.916.302-1.984.302l-.568-.012-1.253.012-2.17.093-.093 3.538c.72.132 2.139.198 4.258.198 1.516 0 2.329.042 2.437.127.124.287.182.623.174 1.01 0 .394-.035.75-.105 1.067-.061.317-.197.51-.406.58a1.91 1.91 0 01-.58.082h-.522l-1.903.104zm20.943-3.91c-.054 1.044-.53 1.887-1.427 2.53-.89.634-1.81 1.02-2.762 1.16-.587.108-1.14.174-1.659.197a10.542 10.542 0 01-1.717-.058c-.062-.519-.104-1.543-.127-3.075a88.691 88.691 0 01-.024-2.019c0-.835.016-1.821.047-2.958.03-1.145.112-1.876.243-2.193-.015-.047-.023-.198-.023-.453s.004-.553.012-.893a1264.062 1264.062 0 01.046-1.903c0-.325-.011-.67-.035-1.033a8.204 8.204 0 01-.034-.742c0-.457.042-.882.127-1.277h.418a30.527 30.527 0 012.193-.023c.294.008.607.012.94.012h.765c.248 0 .507-.008.778-.023.278-.031.545-.047.8-.047.433 0 .84.043 1.218.128l.012 1.253c0 .077.004.147.012.209.008.085.011.166.011.244 0 .224-.035.394-.104.51-.077.147-.317.22-.72.22h-.057c-.41 0-.824-.015-1.242-.046a21.494 21.494 0 00-.986-.046h-.395c-.402 0-.808-.008-1.218-.024-.07 1.23-.147 2.46-.232 3.69-.023.449-.05.874-.081 1.276a10.23 10.23 0 011.624.244c.58.131 1.072.321 1.474.569a2.742 2.742 0 011.508 1.079c.224.309.398.645.522 1.009.039.155.081.418.128.789.046.371.073.73.081 1.079v.081c0 .302-.039.48-.116.534zm-5.523.94l.047.754c.247.039.49.058.73.058.395 0 .786-.054 1.172-.163.287-.092.51-.208.673-.348.163-.139.31-.29.441-.452.085-.108.178-.217.279-.325a7.88 7.88 0 01.058-.453 4.28 4.28 0 00.07-.672c-.024-1.006-.515-1.698-1.474-2.077a3.523 3.523 0 00-1.253-.232c-.21 0-.418.019-.627.058v.046a4.098 4.098 0 00-.035.464v.081c0 .109.012.248.035.418l-.116 2.843zm13.32.336c1.887 0 2.97-.87 3.249-2.61.03-.256.073-.542.127-.859.147-.905.22-1.547.22-1.926 0-2.266-.742-4.335-2.227-6.207a1.39 1.39 0 01-.36-.128 1.019 1.019 0 00-.499-.128 1.88 1.88 0 00-.556.116c-.681.24-1.122.437-1.323.592-.526.526-.944 1.334-1.253 2.425-.31 1.09-.464 2.003-.464 2.738l.011 1.3c0 .696-.023 1.357-.07 1.984.07.054.217.328.441.824.256.61.472 1.024.65 1.241.31.325.859.53 1.648.615.14.015.274.023.406.023zm-1.102 2.982c-1.563 0-2.746-.595-3.55-1.787-.264-.41-.538-1.063-.825-1.96a18.117 18.117 0 01-.638-2.658 6.856 6.856 0 01-.08-.974c0-.371.05-.654.15-.847a2.998 2.998 0 01-.035-.488c0-.41.07-1.017.209-1.821.14-.805.364-1.651.673-2.541.317-.89.65-1.458.998-1.706.178-.533.715-1.06 1.612-1.578.898-.526 1.76-.831 2.588-.916l.638-.047a6.21 6.21 0 01.603-.034c.163.007.34.046.534.116.464.17.944.417 1.439.742.673.449 1.052.808 1.137 1.08.302.224.557.599.766 1.125.216.518.394 1.013.533 1.485.14.464.244.739.314.824.07.394.15.785.243 1.171.21.805.317 1.633.325 2.483-.015.124-.039.26-.07.406a9.32 9.32 0 00-.07.349c0 .154.012.266.036.336.03.062.054.166.07.313-.008.302-.066.6-.175.894-.054.17-.1.336-.139.499-.162.835-.503 1.678-1.02 2.529-.511.85-1.15 1.47-1.915 1.856-.604.441-1.42.758-2.449.952-.688.131-1.322.197-1.902.197zm8.968-.081a.588.588 0 01-.162-.023 1.075 1.075 0 00-.15-.012.125.125 0 00-.07.023l.046-.476c.03-.24.046-.82.046-1.74.024-.17.066-.286.128-.348.132-.062.39-.1.777-.116l.418-.046c.41-.031.843-.279 1.3-.743.03-.07.073-.15.127-.244.68-.982 1.064-2.668 1.149-5.058.046-1.13.135-2.1.267-2.913.131-.812.224-1.28.278-1.403a16.757 16.757 0 01-.058-1.37c0-.595.035-1.168.105-1.717l.046-.603h.58c.07 0 .147-.008.232-.023a1.51 1.51 0 01.279-.024l.139-.011c.425 0 .967.004 1.624.011.658 0 1.222.004 1.694.012h.998l.499-.012c.201 0 .375.016.522.047.155.023.337.035.545.035.155 2.753.233 5.523.233 8.307V25.4c.007.588.027 1.366.058 2.333.038 1.214.058 2.196.058 2.947 0 .595.019 1.086.058 1.473h-2.657l-.012-1.647c0-.24-.012-.658-.035-1.253a123.73 123.73 0 01-.081-2.495c0-.209.008-.41.023-.603.023-.271.035-.55.035-.836l-.012-.406c0-.325.02-.653.058-.986a8 8 0 00.058-.928l-.29-4.734-.011-.012-.163-.011a9.439 9.439 0 00-.858-.047h-.14c-.255.024-.584.043-.986.058-.07.727-.112 1.095-.127 1.103l-.267 2.75a43.364 43.364 0 01-.383 3.12c-.07.271-.143.65-.22 1.137a13.727 13.727 0 01-.604 2.692c-.487 1.16-1.04 1.973-1.66 2.437-.324.263-.664.46-1.02.592-.348.123-.596.185-.743.185-.193.093-.692.151-1.496.174a.965.965 0 00-.175.012zm15.954-.255c-.596 0-1.199-.043-1.81-.128-.085-.758-.128-2.487-.128-5.186 0-2.723.047-4.386.14-4.99a6.084 6.084 0 01-.116-1.195c0-.417.034-.92.104-1.508l.046-.522c0-.325-.011-.665-.034-1.021a6.178 6.178 0 01-.047-.743c0-.456.047-.877.14-1.264l1.52.046a2.02 2.02 0 01.37-.023c.287 0 .527.042.72.128.193.077.29.336.29.777 0 .41-.015.824-.046 1.241a20.5 20.5 0 00-.047.975c0 .835-.05 1.686-.15 2.553-.047.48-.086.959-.117 1.438.519.039 1.126.151 1.822.337.704.178 1.269.394 1.694.65.294.1.53.22.708.36.178.138.36.347.545.626.217.31.387.642.51.998.04.154.082.437.128.846.054.41.081.832.081 1.265 0 .317-.038.507-.116.569 0 .232-.092.549-.278.951a5.195 5.195 0 01-.65 1.08c-.247.316-.48.479-.696.486-.232.333-.82.63-1.764.894-.827.24-1.767.36-2.819.36zm1.242-2.205a5.35 5.35 0 001.345-.174c.317-.1.557-.209.72-.325a3.3 3.3 0 00.452-.418l.186-.197c.008-.147.023-.294.046-.44a4.1 4.1 0 00.07-.674c0-.48-.097-.92-.29-1.322-.364-.743-1.195-1.114-2.495-1.114-.209 0-.413.012-.615.035a3.56 3.56 0 00-.058.626c0 .124.016.27.047.441l-.163 2.773.035.743c.24.03.48.046.72.046zm15.501 2.193h-.163c-.193 0-.317-.012-.371-.035l-.232-.104-.522-6.846-.499-.011c-.31 0-.584.019-.824.058a6.645 6.645 0 01-.87.08c-.317 0-.673-.018-1.068-.057l-.893-.058a73.988 73.988 0 00-.047 1.624c-.015.99-.073 2.147-.173 3.47-.008.115-.012.24-.012.37l.023.824c0 .248-.015.468-.046.662a4.618 4.618 0 00-.697-.047l-.406.012a4.642 4.642 0 01-.522.035.995.995 0 01-.336-.058c-.147-.062-.22-.364-.22-.905 0-.271.019-.619.057-1.044-.154-3.876-.236-6.073-.243-6.59a192.28 192.28 0 01-.047-3.969c0-1.57.039-2.452.116-2.645v-.731c0-.27.04-.445.116-.522.086-.078.488-.116 1.207-.116.449 0 .774.034.975.104.232.085.348.294.348.627v.174a14.335 14.335 0 00-.012 1.821l.012.708c0 .41-.016.812-.047 1.207-.03.325-.046.874-.046 1.647 0 .364.011.658.035.882a42.37 42.37 0 002.796.093c.418 0 .839-.008 1.265-.023.007-.225.011-.484.011-.778l-.011-1.02a35.52 35.52 0 01-.024-1.312c0-.58.012-1.276.035-2.088.023-.82.12-1.462.29-1.926.209-.093.472-.14.789-.14.426 0 .805.05 1.137.151l.128 5.106a51.16 51.16 0 01.139 3.666c0 .526-.011.994-.035 1.404.116.162.198.804.244 1.926.016.565.023.986.023 1.265 0 .177-.011.348-.035.51a9.679 9.679 0 00-.034.51c0 .287.023.616.069.987.023.209.039.398.047.568l.058.383c-.225.078-.72.128-1.485.151zm8.91-2.634c1.888 0 2.971-.87 3.249-2.61.031-.256.074-.542.128-.859.147-.905.22-1.547.22-1.926 0-2.266-.742-4.335-2.228-6.207a1.388 1.388 0 01-.359-.128 1.02 1.02 0 00-.499-.128c-.139 0-.325.039-.557.116-.681.24-1.122.437-1.323.592-.526.526-.943 1.334-1.253 2.425-.309 1.09-.464 2.003-.464 2.738l.012 1.3c0 .696-.024 1.357-.07 1.984.07.054.217.328.441.824.255.61.472 1.024.65 1.241.309.325.858.53 1.647.615.139.015.275.023.406.023zm-1.102 2.982c-1.562 0-2.746-.595-3.55-1.787-.263-.41-.538-1.063-.824-1.96a18.117 18.117 0 01-.638-2.658 6.88 6.88 0 01-.081-.974c0-.371.05-.654.15-.847a3.029 3.029 0 01-.034-.488c0-.41.069-1.017.208-1.821.14-.805.364-1.651.673-2.541.318-.89.65-1.458.998-1.706.178-.533.716-1.06 1.613-1.578.897-.526 1.76-.831 2.587-.916l.638-.047c.233-.023.434-.034.604-.034.162.007.34.046.534.116.464.17.943.417 1.438.742.673.449 1.052.808 1.137 1.08.302.224.557.599.766 1.125.217.518.395 1.013.534 1.485.139.464.243.739.313.824.07.394.151.785.244 1.171.209.805.317 1.633.325 2.483-.016.124-.039.26-.07.406-.031.14-.054.256-.07.349 0 .154.012.266.035.336.031.062.054.166.07.313a2.79 2.79 0 01-.174.894 6.61 6.61 0 00-.139.499c-.163.835-.503 1.678-1.022 2.529-.51.85-1.148 1.47-1.914 1.856-.603.441-1.419.758-2.448.952-.689.131-1.323.197-1.903.197z" fill="#fff"/><path d="M10.9 72.022a7.311 7.311 0 007.193 6.992l162.155 2.47c4.462.069 7.944-3.843 7.359-8.268l-3.646-27.583a7.311 7.311 0 00-7.277-6.353l-159.575.625a7.311 7.311 0 00-7.276 7.63L10.9 72.021z" fill="#914BF1"/><path d="M24.472 70.82c-.116 0-.236-.014-.36-.044-.116-.03-.187-.154-.211-.37.083-.364.13-.736.144-1.115l.043-.51a50.683 50.683 0 00-.019-1.103 92.234 92.234 0 01.05-6.742 84.51 84.51 0 00.111-4.479 25.725 25.725 0 00-.082-2.076l.185-.07a.34.34 0 00.116-.013.089.089 0 01.034-.012c0-.031.085-.047.255-.048.302-.002.495-.01.58-.027.093-.016.182-.024.267-.025.124 0 .271.026.442.079l.209.045.267-.002c.108 0 .228.01.36.033l-.021.406a16.697 16.697 0 00-.147 2.426l.03 1.23c.004.587-.011 1.144-.047 1.67l-.226 2.821c0 .016-.003.028-.011.035l-.011.035c.04.131.06.282.06.452.002.279-.054 1.11-.17 2.496.077-.17.199-.465.366-.884l1.371-3.42c.617-1.52.983-2.33 1.099-2.432.06-.256.163-.539.308-.849.106-.248.236-.585.388-1.012.174-.52.323-.845.446-.977v-.047c-.001-.131.052-.352.158-.662.114-.341.202-.512.264-.512h.011c.045-.217.125-.4.24-.547a.551.551 0 01.463-.235h.058c.418-.026.951-.041 1.6-.045.295-.002.48.004.558.02l-.005 1.09c.04.093.062.595.068 1.508.001.255 0 .603-.005 1.044-.005.441-.018.89-.038 1.346-.013.45-.027.7-.042.755l.03.951c.083.966.128 2.018.135 3.155a98.278 98.278 0 01-.026 3.18l.007 1.067c.007 1.083-.047 1.806-.16 2.17a1.752 1.752 0 00-.279.049 5.152 5.152 0 01-.487.05l-.66.027a2.603 2.603 0 01-.512-.043c-.232-.053-.35-.215-.35-.486l-.001-.058a81.29 81.29 0 00.075-2.831l.075-4.584c.01-.773.043-1.744.098-2.913-.168.319-.405.823-.71 1.513-.778 1.753-1.246 2.947-1.404 3.583-.023.085-.149.438-.377 1.058-.296.783-.495 1.24-.594 1.373l-.355.791c-.458 1.047-.698 1.629-.72 1.745a.958.958 0 00-.183.35c-.092.201-.188.345-.288.43-.061.117-.297.176-.707.179-.216.001-.44-.005-.672-.019l-.418-.009c-.116 0-.21.005-.279.013a3.388 3.388 0 01-.394.026zm26.593-.168l-.163.001c-.193.001-.317-.01-.371-.032l-.233-.103-.565-6.842-.5-.009a5.252 5.252 0 00-.823.063 6.63 6.63 0 01-.87.087c-.317.002-.672-.015-1.067-.051l-.894-.053c-.02.604-.031 1.145-.036 1.625-.01.99-.06 2.147-.152 3.47a6.21 6.21 0 00-.01.372l.029.823a4.26 4.26 0 01-.042.662 4.643 4.643 0 00-.697-.042l-.406.014c-.2.025-.375.037-.522.038a.993.993 0 01-.337-.056c-.147-.06-.222-.362-.226-.903-.001-.271.016-.62.052-1.045-.18-3.874-.274-6.07-.285-6.589-.04-1.485-.065-2.807-.072-3.967-.01-1.57.023-2.453.1-2.646l-.005-.731c-.002-.271.035-.445.112-.523.085-.078.487-.12 1.206-.124.449-.003.774.03.976.099.232.083.35.291.352.624v.174a14.339 14.339 0 000 1.822l.017.707c.002.41-.01.812-.04 1.207-.028.325-.04.874-.035 1.648.002.364.016.657.04.882.937.055 1.869.08 2.797.075.418-.003.84-.013 1.264-.032.007-.224.01-.483.007-.777l-.018-1.02a35.527 35.527 0 01-.031-1.312c-.004-.58.003-1.276.021-2.089.018-.82.111-1.462.278-1.927.208-.094.471-.142.788-.144.426-.003.805.045 1.138.143l.16 5.104a51.27 51.27 0 01.162 3.666c.004.526-.005.994-.025 1.404.117.162.202.803.255 1.924.02.565.03.986.032 1.265a3.61 3.61 0 01-.032.51c-.014.163-.025.333-.032.511.002.286.027.615.076.986.025.209.041.398.05.568l.06.383c-.223.079-.718.132-1.483.16zm9.177-.058l-.394.003c-.318.002-.929-.01-1.834-.035v-.023l-1.114.018-.8.017a15.363 15.363 0 01-1.544-.06 52.897 52.897 0 01-.118-2.227 161.87 161.87 0 01-.153-5.72c-.013-2.142.045-3.36.175-3.655-.064-.27-.098-.715-.102-1.334a42.77 42.77 0 01.107-3.284c.2-.187.985-.285 2.354-.294.572-.003 1.183.005 1.833.024a15.89 15.89 0 001.717-.011c.302-.025.596-.039.882-.04a8.397 8.397 0 012.194.252c.087.325.133.711.135 1.16a3.13 3.13 0 01-.042.557c-.053.279-.176.419-.37.42l-2.39.004-2.378-.009c-.75.005-1.253.016-1.508.033l-.006.882.005.731-.008.731a37.72 37.72 0 00-.034 1.834c.001.247.01.448.027.603.116.069.832.099 2.147.09.804-.005 1.585.006 2.344.032.758.026 1.285.108 1.58.245.126.502.19.912.193 1.229.002.348-.074.584-.228.71-.254.202-.915.307-1.982.314l-.569-.009-1.252.02-2.17.106-.07 3.54c.72.127 2.14.184 4.26.17 1.515-.01 2.328.028 2.437.112.125.286.185.622.18 1.009.002.394-.03.75-.098 1.068-.06.317-.194.511-.402.582-.17.056-.363.084-.58.085l-.522.004-1.902.116zm21.047-.133c-1.377.009-2.76-.292-4.148-.902-.45-.19-.943-.493-1.48-.907-1.173-.898-1.868-1.942-2.085-3.131a2.265 2.265 0 00-.142-.475c-.25-.494-.407-1.398-.47-2.712a10.29 10.29 0 01-.014-.488c-.01-1.647.367-3.092 1.133-4.335.765-1.25 2.086-2.248 3.96-2.995.749-.314 1.42-.473 2.016-.477l.395.021c.364-.002.692-.055.985-.157.201-.04.398-.06.592-.062.193-.001.472.009.835.03.364.013.75.041 1.161.085.41.036.704.085.883.145.079.278.131.614.157 1.009.001.147-.001.418-.006.812a1.582 1.582 0 01-.33.988 1.072 1.072 0 01-.175.013 4.503 4.503 0 01-.754-.088 11.218 11.218 0 00-2.172-.218 6.322 6.322 0 00-1.576.219l-.046.023c-.525.127-1.027.3-1.505.52-.61.275-1.055.75-1.337 1.424-.145.372-.263.594-.356.664l.002.22c.002.31-.02.685-.063 1.126a13.3 13.3 0 00-.064.952 6.92 6.92 0 00.455 2.167c.087.27.162.528.225.776.218.176.405.35.56.518.164.17.331.327.502.473.172.138.397.256.676.355.45.16 1.243.267 2.38.322.178.006.337.017.476.031.519.044.952.076 1.3.097.45.02.778.053.987.098.21.037.345.114.408.23.062.107.102.289.12.544.017.356.05.73.1 1.125.04.34.065.668.075.986l.001.15a.72.72 0 01-.044.302c-.139.14-.328.23-.567.27a5.69 5.69 0 01-.731.052c-.24.001-.456.014-.65.039a9.382 9.382 0 01-1.67.161zm11.801.123a6.058 6.058 0 01-.918-.076c-.348-.044-.565-.124-.65-.24-.04-.154-.062-.498-.065-1.031a68.26 68.26 0 01.04-2.809c.056-2.197.133-3.439.232-3.726a4.026 4.026 0 01-.063-.776l.005-.998.008-.58c0-.132-.01-.29-.026-.476a13.87 13.87 0 01-.041-.986c-.002-.348.027-.608.088-.778a3.25 3.25 0 01-.099-.846l.01-.21c0-.077-.004-.15-.012-.22a14.929 14.929 0 00-1.81-.081c-.705.004-1.366.016-1.985.036-.37.017-.676.027-.916.029-.24.001-.383-.006-.43-.02a9.654 9.654 0 01-.136-1.334c-.003-.51.049-.933.155-1.266.78-.136 1.843-.244 3.189-.322l9.665-.038c.063.263.097.723.101 1.38.002.302 0 .5-.008.592a.941.941 0 01-.148.419c-.046.062-.1.151-.16.268-.287-.037-.837-.053-1.649-.048-1.67.01-2.641.044-2.911.1l.073 2.494.076.974-.025 5.21a23.097 23.097 0 01-.116 1.764 9.4 9.4 0 00-.107 1.498l.029.835c.001.278-.009.553-.03.824-.16.287-.616.433-1.367.438zm10.643-10.417c2.072-.153 3.124-.848 3.155-2.085-.028-.743-.372-1.294-1.032-1.653-.24-.107-.589-.205-1.046-.295-.457-.09-.798-.134-1.022-.133l.022 1.59c.005.843-.021 1.701-.077 2.576zm-1.282 10.16l-.15.001a3.15 3.15 0 01-1.046-.156 25.512 25.512 0 01-.254-3.56c-.006-.951.03-1.961.108-3.029.07-1.13.103-2.128.097-2.994l-.07-1.88-.002-.347c-.006-.998.049-1.544.164-1.638-.016-.1-.025-.24-.026-.417a22.5 22.5 0 01.008-.592c.014-.27.035-.6.063-.986.037-.387.074-.658.111-.813.247-.149.68-.225 1.298-.229a14.78 14.78 0 012.845.284c.836.157 1.433.354 1.79.592.513.36.816.582.91.667.186.177.429.597.727 1.26.149.394.226.877.23 1.449l-.009.51a1.853 1.853 0 01-.307.954c-.075.45-.288.95-.64 1.5-.353.552-.725.941-1.118 1.168a9.34 9.34 0 01-3.371.95c-.06.294-.122.805-.187 1.532-.138 1.502-.204 2.682-.198 3.54l.013.372a9.81 9.81 0 01-.008.545l.001.174c.002.302.054.595.157.88-.301.15-.679.237-1.136.263zm11.884-6.99l2.657-.052c.092 0 .139-.016.139-.047l-.024-.07c-.301-1.142-.485-2.015-.55-2.618-.114-.835-.284-1.364-.509-1.586l-.24.686c-.274.69-.456 1.201-.547 1.535l-.309.674c-.336.707-.541 1.2-.617 1.478zm-2.392 7.093h-.069a18 18 0 01-1.173-.085c-.689-.058-1.072-.11-1.15-.155a.609.609 0 01-.048-.244c-.001-.301.176-.933.534-1.894.129-.35.22-.62.273-.814.053-.233.136-.55.249-.953.296-1.023.562-1.67.8-1.943.007-.162.06-.422.158-.778.197-.69.405-1.306.626-1.85.358-.93.914-2.24 1.67-3.931.884-1.986 1.431-3.038 1.639-3.155.167-.48.385-.822.655-1.025.295.23.597.835.905 1.816.118.378.182.664.191.857.155.185.352.624.588 1.319.142.448.284.791.424 1.03.079.255.209.64.391 1.158l1.312 3.913c1.285 3.852 1.929 5.913 1.93 6.184l.001.011c-.131.14-.262.223-.393.247a1.323 1.323 0 01-.256.024c-.054 0-.119-.003-.197-.01a1.137 1.137 0 00-.244-.022l-.44.026c-.124.017-.24.025-.348.026a1.805 1.805 0 01-.616-.1c-.249-.332-.616-1.358-1.098-3.08-.214-.78-.404-1.374-.569-1.783a5.183 5.183 0 00-.487.05 3.624 3.624 0 01-.533.037l-.128.001c-.147-.007-.34-.01-.58-.008-.665.004-1.473.08-2.423.224-.314.644-.712 1.819-1.197 3.524l-.397 1.383zm25.362-.323l-13.575.086-.372-.183c.108-2.515.158-4.399.15-5.652l-.042-6.602c-.003-.518.054-1.207.172-2.066-.124-.13-.189-.633-.195-1.507l-.003-.569c-.002-.255.813-.511 2.443-.77.574.237.893.486.956.749-.211 7.032-.309 11.616-.296 13.751l2.634-.017c-.005-.75.054-1.88.176-3.389-.156-3.859-.242-7.122-.259-9.79.416-.259.794-.389 1.134-.39l1.694-.012c.248.037.373.164.374.38l.062 9.793-.179 1.139c.125.2.189.513.192.938l.008 1.311c.573-.003.952.06 1.138.19a5.232 5.232 0 011.322-.205c.096-4.348.135-7.988.117-10.92-.005-.664-.073-1.735-.206-3.212.239-.125.424-.188.555-.19 1.764-.01 2.647.236 2.65.738-.198 9.06-.291 14.401-.281 16.026.001.247-.122.372-.369.373zm10.825-.068h-.163c-.193.002-.317-.009-.371-.032l-.233-.103-.565-6.842-.499-.008c-.31.002-.584.023-.824.063a6.634 6.634 0 01-.869.087c-.317.002-.673-.015-1.068-.051l-.894-.053a77.974 77.974 0 00-.036 1.625 58.54 58.54 0 01-.152 3.47c-.007.116-.01.24-.009.371l.028.824c.002.247-.012.468-.042.662a4.642 4.642 0 00-.696-.043l-.407.015a4.6 4.6 0 01-.521.038.992.992 0 01-.337-.056c-.148-.061-.223-.362-.226-.904-.002-.27.015-.619.051-1.044-.179-3.875-.274-6.07-.285-6.589a192.958 192.958 0 01-.072-3.968c-.01-1.57.023-2.452.1-2.646l-.005-.73c-.002-.271.036-.446.113-.523.084-.078.486-.12 1.206-.124.448-.003.773.03.975.098.232.084.35.292.352.624l.001.175a14.46 14.46 0 000 1.821l.016.708c.003.41-.01.812-.039 1.207-.029.325-.041.874-.036 1.648a8.7 8.7 0 00.041.881 42.37 42.37 0 002.796.075 35.12 35.12 0 001.265-.03c.006-.225.008-.484.007-.778l-.019-1.021c-.018-.433-.028-.87-.031-1.311-.004-.58.003-1.277.022-2.089.018-.82.11-1.462.277-1.928.209-.094.471-.142.789-.144.425-.003.804.045 1.138.144l.159 5.104a51.11 51.11 0 01.163 3.666c.003.525-.006.993-.026 1.404.117.161.202.803.256 1.924.019.565.029.986.031 1.265.001.177-.01.348-.032.51a9.788 9.788 0 00-.031.511c.002.286.027.615.076.986.024.209.041.398.05.568l.06.383c-.224.078-.719.132-1.484.16zm8.894-2.69c1.887-.012 2.965-.89 3.232-2.631.029-.256.07-.542.122-.86.141-.906.211-1.548.208-1.927-.014-2.266-.769-4.33-2.266-6.193-.14-.03-.26-.072-.361-.126a1.02 1.02 0 00-.5-.124c-.139 0-.324.04-.556.12-.679.244-1.119.444-1.319.6-.522.529-.935 1.34-1.237 2.432-.303 1.093-.452 2.007-.447 2.741l.02 1.3a26.8 26.8 0 01-.058 1.984c.07.054.219.328.447.821.259.61.478 1.022.657 1.238.312.322.862.524 1.652.604.139.015.274.022.406.02zm-1.084 2.989c-1.562.01-2.749-.579-3.561-1.765-.266-.408-.544-1.06-.836-1.955-.292-.896-.51-1.78-.655-2.653a6.836 6.836 0 01-.088-.974c-.002-.372.047-.654.146-.848a2.986 2.986 0 01-.038-.487c-.003-.41.063-1.018.197-1.823a16.07 16.07 0 01.657-2.545c.312-.892.641-1.463.987-1.712.175-.535.709-1.065 1.603-1.588.894-.532 1.754-.843 2.582-.933l.637-.05a6.1 6.1 0 01.603-.04c.163.007.341.045.535.113.465.167.946.412 1.443.734.676.444 1.057.801 1.144 1.072.303.222.561.595.773 1.12.22.517.401 1.01.543 1.482.142.463.248.737.319.822.072.394.155.784.251 1.17.214.803.327 1.63.34 2.48-.015.125-.037.26-.067.407-.03.14-.052.256-.067.349.001.154.013.267.037.336a.996.996 0 01.071.313 2.79 2.79 0 01-.168.894 6.58 6.58 0 00-.136.5c-.157.837-.492 1.682-1.005 2.536-.505.854-1.14 1.477-1.903 1.868-.6.445-1.415.767-2.442.967-.688.136-1.321.206-1.902.21zm12.591.256c-.302.002-.604-.108-.907-.33l-.059-.093a.79.79 0 01-.116-.115c-.024-.023-.059-.135-.107-.336a.59.59 0 00-.036-.139 2.195 2.195 0 01.005-1.056c.038-.108.138-.29.299-.547a1.608 1.608 0 011.111-.436c.085 0 .178.01.278.033.109.014.253.122.432.322.249.362.395.775.437 1.239-.007.17-.052.367-.136.592-.076.225-.179.38-.31.466a.128.128 0 01-.023.047.136.136 0 01-.023.035c0 .008-.008.015-.023.023a.624.624 0 00-.046.058c-.069.055-.162.11-.277.165l-.035.011c-.17.04-.325.06-.464.061zm.713-4.715a11.22 11.22 0 01-.836-.03c-.51.004-.871-.106-1.081-.329a170.76 170.76 0 01-.116-3.735c-.008-1.2.007-1.95.044-2.252a6.216 6.216 0 01-.148-1.333 17.56 17.56 0 01.037-1.404c.014-.248.021-.426.02-.534a9.755 9.755 0 00-.064-1.032 8.3 8.3 0 01-.064-.963 5.947 5.947 0 01.086-1.08l1.636.037.278-.014c.255-.001.476.04.662.124.194.076.3.338.319.787.003.549.002.966-.004 1.253-.013.332-.019.661-.017.986.009.224.014.453.016.685.004.61-.016 1.23-.058 1.856-.034.674-.05 1.347-.045 2.02a12.01 12.01 0 01-.072 1.543 7.43 7.43 0 00-.063.998c.001.225.014.445.039.662l-.036 1.613-.047.012a1.423 1.423 0 01-.486.13z" fill="#fff"/></svg>