<svg width="343" height="62" viewBox="0 0 343 62" fill="none" xmlns="http://www.w3.org/2000/svg"><path d="M2.033 13.99a8 8 0 017.991-7.625h134.549c4.582 0 8.227 3.84 7.99 8.415l-1.572 30.248a8 8 0 01-7.724 7.58L8.662 57.079c-4.667.154-8.475-3.706-8.256-8.37L2.033 13.99z" fill="#7BC35A"/><path d="M28.001 40.365h-.178c-.211 0-.347-.013-.406-.038l-.254-.114-.571-7.49-.546-.013c-.339 0-.64.02-.901.063a7.27 7.27 0 01-.953.089c-.347 0-.736-.021-1.168-.064l-.977-.063a74.11 74.11 0 00-.05 1.777 64.091 64.091 0 01-.191 3.796 6.099 6.099 0 00-.013.406l.025.902c0 .27-.017.512-.05.723a5.07 5.07 0 00-.762-.05l-.445.012c-.22.026-.41.038-.57.038-.128 0-.25-.02-.369-.063-.16-.068-.241-.398-.241-.99 0-.297.021-.677.063-1.143-.169-4.24-.258-6.644-.266-7.21a211.18 211.18 0 01-.051-4.343c0-1.718.042-2.683.127-2.894v-.8c0-.296.042-.487.127-.571.093-.085.533-.127 1.32-.127.491 0 .846.038 1.067.114.253.093.38.322.38.686v.19a15.674 15.674 0 00-.012 1.993l.012.775c0 .448-.017.888-.05 1.32-.034.355-.051.956-.051 1.803 0 .398.013.72.038.965a46.3 46.3 0 003.06.101c.457 0 .918-.008 1.383-.025.009-.246.013-.53.013-.85l-.013-1.118a40.25 40.25 0 01-.025-1.435c0-.634.013-1.396.038-2.285.025-.897.131-1.6.317-2.107.229-.102.517-.152.864-.152a4.3 4.3 0 011.244.165l.14 5.585a56.14 56.14 0 01.152 4.012c0 .576-.013 1.088-.038 1.536.127.178.216.88.266 2.108.017.617.026 1.079.026 1.383 0 .195-.013.381-.038.56-.017.177-.03.363-.038.558 0 .313.025.672.076 1.079.025.228.042.436.05.622l.064.419c-.245.084-.787.14-1.625.165zm10.042 0h-.432c-.347 0-1.015-.017-2.005-.05v-.026l-1.22.012-.875.013c-.627 0-1.19-.025-1.689-.076-.034-.381-.072-1.194-.114-2.438a177.13 177.13 0 01-.127-6.258c0-2.345.072-3.678.216-4-.068-.296-.102-.782-.102-1.46 0-1.184.047-2.382.14-3.592.22-.203 1.08-.305 2.577-.305.626 0 1.295.013 2.006.038a17.354 17.354 0 001.879 0c.33-.025.652-.038.965-.038.88 0 1.68.098 2.4.292.092.356.139.779.139 1.27 0 .22-.017.423-.051.609-.06.305-.195.457-.406.457l-2.616-.013-2.602-.025c-.821 0-1.371.009-1.65.025l-.013.965v.8l-.013.8c-.034.694-.05 1.363-.05 2.006 0 .27.008.49.025.66.127.076.91.114 2.348.114.88 0 1.735.017 2.565.05.83.035 1.405.128 1.727.28.135.55.203.999.203 1.346 0 .38-.085.639-.254.774-.28.22-1.003.33-2.171.33l-.622-.012-1.371.012-2.374.102-.102 3.872c.787.144 2.34.216 4.66.216 1.658 0 2.547.046 2.665.14.136.313.2.68.19 1.104 0 .432-.037.82-.114 1.168-.067.347-.215.559-.444.635a2.09 2.09 0 01-.635.089h-.571l-2.082.114zm22.915-4.279c-.06 1.143-.58 2.066-1.561 2.768-.974.694-1.981 1.117-3.022 1.27-.643.118-1.248.19-1.815.215-.178.009-.36.013-.546.013-.415 0-.86-.025-1.333-.076-.068-.567-.115-1.689-.14-3.364a97.385 97.385 0 01-.025-2.21c0-.913.017-1.992.05-3.237.034-1.252.123-2.052.267-2.399-.017-.05-.025-.216-.025-.495 0-.28.004-.605.012-.978a1005.353 1005.353 0 01.051-2.082c0-.355-.013-.732-.038-1.13a8.974 8.974 0 01-.038-.812c0-.5.047-.965.14-1.396h.457a33.123 33.123 0 011.548-.039c.297 0 .58.005.851.013.322.009.664.013 1.028.013h.838c.271 0 .555-.009.85-.026a7.93 7.93 0 01.877-.05c.474 0 .918.046 1.333.14l.013 1.37c0 .085.004.161.012.229.009.093.013.182.013.266 0 .246-.038.432-.114.559-.085.16-.347.241-.788.241h-.063c-.448 0-.901-.017-1.358-.05a23.598 23.598 0 00-1.08-.051h-.431c-.44 0-.885-.009-1.333-.026-.076 1.346-.16 2.692-.254 4.037a55.7 55.7 0 01-.089 1.397c.55.034 1.143.123 1.778.266.634.144 1.172.352 1.612.623a3.001 3.001 0 011.65 1.18c.246.339.436.707.571 1.105.043.169.09.457.14.863.05.406.08.8.089 1.18v.09c0 .33-.042.524-.127.584zm-6.043 1.029l.05.825c.272.042.538.064.8.064.432 0 .86-.06 1.283-.178.313-.102.558-.229.736-.381.178-.152.339-.318.483-.495.093-.119.194-.237.304-.356.017-.169.038-.334.064-.495.042-.22.068-.465.076-.736-.026-1.1-.563-1.858-1.612-2.273a3.856 3.856 0 00-1.371-.254c-.229 0-.458.022-.686.064v.05a4.48 4.48 0 00-.038.509v.088c0 .119.013.271.038.458l-.127 3.11zm14.574.368c2.065 0 3.25-.952 3.555-2.856.034-.28.08-.593.14-.94.16-.99.24-1.693.24-2.107 0-2.48-.812-4.744-2.437-6.792a1.528 1.528 0 01-.393-.14 1.115 1.115 0 00-.546-.14c-.153 0-.356.043-.61.127-.744.263-1.227.478-1.447.648-.575.575-1.032 1.46-1.37 2.653-.34 1.194-.509 2.192-.509 2.996l.013 1.422c0 .762-.025 1.485-.076 2.171.076.06.237.36.482.901.28.669.516 1.122.711 1.359.339.355.94.58 1.803.673.152.017.3.025.444.025zm-1.206 3.263c-1.71 0-3.004-.652-3.885-1.955-.287-.449-.588-1.164-.9-2.146a19.833 19.833 0 01-.7-2.907 7.517 7.517 0 01-.088-1.066c0-.407.055-.716.165-.927a3.28 3.28 0 01-.038-.534c0-.448.076-1.112.228-1.993.153-.88.398-1.807.737-2.78.347-.973.71-1.595 1.092-1.866.194-.584.782-1.16 1.764-1.727.982-.575 1.926-.91 2.831-1.003l.698-.05a6.62 6.62 0 01.66-.039c.178.009.373.051.585.128a7.762 7.762 0 011.574.812c.736.49 1.15.884 1.244 1.18.33.246.61.657.838 1.232.237.567.431 1.109.584 1.625.152.508.267.808.343.901.076.432.165.86.266 1.283.229.88.347 1.785.356 2.716a5.426 5.426 0 01-.076.445c-.034.152-.06.28-.077.38 0 .17.013.293.038.369.034.068.06.182.077.343-.009.33-.072.655-.19.977-.06.186-.11.368-.153.546-.178.914-.55 1.837-1.117 2.768-.559.93-1.257 1.608-2.095 2.03-.66.483-1.553.83-2.679 1.042-.753.144-1.447.216-2.082.216zm9.814-.09a.642.642 0 01-.178-.025 1.18 1.18 0 00-.165-.012.137.137 0 00-.076.025l.05-.52c.034-.263.051-.898.051-1.905.026-.186.072-.313.14-.38.144-.068.427-.11.85-.127l.458-.051c.448-.034.922-.305 1.421-.813.034-.076.08-.165.14-.266.745-1.075 1.164-2.92 1.257-5.535.05-1.236.148-2.298.292-3.187.144-.889.245-1.4.305-1.536a18.356 18.356 0 01-.064-1.498 15 15 0 01.114-1.88l.051-.66h.635c.076 0 .16-.008.254-.025.093-.017.194-.025.304-.025l.153-.013c.465 0 1.058.005 1.777.013.72 0 1.338.004 1.854.013h1.091l.546-.013c.22 0 .41.017.572.05.169.026.368.039.596.039.17 3.013.254 6.043.254 9.09v1.523c.009.643.03 1.494.064 2.552.042 1.329.063 2.404.063 3.224 0 .652.021 1.19.064 1.613h-2.907l-.013-1.803c0-.262-.013-.72-.038-1.371-.06-1.574-.09-2.484-.09-2.73 0-.228.01-.448.026-.66.026-.296.038-.6.038-.914l-.012-.444c0-.356.02-.715.063-1.08.042-.363.064-.702.064-1.015l-.318-5.18-.013-.012-.177-.013c-.364-.034-.677-.05-.94-.05h-.152c-.28.025-.639.046-1.08.063-.075.795-.122 1.197-.139 1.206l-.292 3.009a47.468 47.468 0 01-.419 3.415 14.1 14.1 0 00-.24 1.244 14.93 14.93 0 01-.661 2.945c-.533 1.27-1.138 2.158-1.816 2.666a3.953 3.953 0 01-1.117.648c-.38.135-.651.203-.812.203-.212.101-.758.165-1.638.19a.989.989 0 00-.19.013zm17.456-.279c-.652 0-1.312-.046-1.98-.14-.094-.829-.14-2.72-.14-5.674 0-2.98.05-4.799.152-5.459a6.648 6.648 0 01-.127-1.307c0-.458.038-1.008.114-1.65l.051-.572c0-.356-.013-.728-.038-1.117-.034-.28-.05-.55-.05-.813 0-.5.05-.96.151-1.384l1.664.051a2.17 2.17 0 01.406-.025c.313 0 .575.046.787.14.212.084.317.367.317.85 0 .448-.017.901-.05 1.358-.026.356-.043.711-.051 1.067 0 .914-.055 1.845-.165 2.793-.051.524-.093 1.05-.127 1.574.567.042 1.231.165 1.993.368.77.195 1.388.432 1.853.711.322.11.58.241.775.394.195.152.393.38.597.685.237.339.423.703.558 1.092.042.17.089.478.14.927.059.448.089.91.089 1.383 0 .348-.043.555-.127.623 0 .253-.102.6-.305 1.04a5.71 5.71 0 01-.711 1.181c-.271.347-.525.525-.762.533-.254.364-.897.69-1.93.978-.905.262-1.933.393-3.084.393zm1.358-2.412a5.86 5.86 0 001.473-.19c.347-.11.61-.228.787-.355.178-.136.343-.288.495-.458l.203-.215a4.67 4.67 0 01.05-.483 4.49 4.49 0 00.077-.736c0-.525-.106-1.007-.317-1.447-.398-.813-1.308-1.22-2.73-1.22-.228 0-.453.014-.673.039a3.892 3.892 0 00-.063.686c0 .135.017.296.05.482l-.177 3.034.038.813c.262.034.525.05.787.05zm16.961 2.4h-.178c-.211 0-.347-.013-.406-.038l-.254-.114-.571-7.49-.546-.013a5.7 5.7 0 00-.901.063c-.415.06-.732.089-.953.089-.347 0-.736-.021-1.167-.064l-.978-.063c-.025.66-.042 1.253-.051 1.777a64.143 64.143 0 01-.19 3.796 5.772 5.772 0 00-.013.406l.025.902a4.6 4.6 0 01-.05.723 5.07 5.07 0 00-.762-.05l-.444.012c-.22.026-.411.038-.572.038a1.07 1.07 0 01-.368-.063c-.161-.068-.241-.398-.241-.99 0-.297.021-.677.063-1.143-.169-4.24-.258-6.644-.266-7.21a209.938 209.938 0 01-.051-4.343c0-1.718.042-2.683.127-2.894v-.8c0-.296.042-.487.127-.571.093-.085.533-.127 1.32-.127.491 0 .847.038 1.067.114.254.093.381.322.381.686v.19a15.314 15.314 0 00-.013 1.993l.013.775c0 .448-.017.888-.051 1.32-.034.355-.051.956-.051 1.803 0 .398.013.72.038.965 1.024.067 2.044.101 3.06.101.457 0 .918-.008 1.383-.025.009-.246.013-.53.013-.85l-.013-1.118a40.021 40.021 0 01-.025-1.435c0-.634.013-1.396.038-2.285.026-.897.131-1.6.317-2.107.229-.102.517-.152.864-.152.465 0 .88.055 1.244.165l.14 5.585c.101 1.414.152 2.751.152 4.012 0 .576-.013 1.088-.038 1.536.127.178.216.88.266 2.108.017.617.026 1.079.026 1.383 0 .195-.013.381-.038.56-.017.177-.03.363-.038.558 0 .313.025.672.076 1.079.025.228.042.436.051.622l.063.419c-.245.084-.787.14-1.625.165zm9.75-2.882c2.065 0 3.25-.952 3.555-2.856.034-.28.08-.593.139-.94.161-.99.242-1.693.242-2.107 0-2.48-.813-4.744-2.438-6.792a1.528 1.528 0 01-.393-.14 1.12 1.12 0 00-.546-.14c-.153 0-.356.043-.61.127-.745.263-1.227.478-1.447.648-.575.575-1.033 1.46-1.371 2.653-.339 1.194-.508 2.192-.508 2.996l.013 1.422c0 .762-.026 1.485-.076 2.171.076.06.237.36.482.901.279.669.516 1.122.711 1.359.339.355.939.58 1.803.673.152.017.3.025.444.025zm-1.206 3.263c-1.71 0-3.005-.652-3.885-1.955-.288-.449-.588-1.164-.901-2.146a19.806 19.806 0 01-.698-2.907 7.403 7.403 0 01-.089-1.066c0-.407.055-.716.165-.927a3.214 3.214 0 01-.038-.534c0-.448.076-1.112.228-1.993.153-.88.398-1.807.737-2.78.347-.973.711-1.595 1.091-1.866.195-.584.783-1.16 1.765-1.727.982-.575 1.925-.91 2.831-1.003l.698-.05c.254-.026.474-.039.66-.039.178.009.373.051.584.128a7.772 7.772 0 011.575.812c.736.49 1.151.884 1.244 1.18.33.246.609.657.838 1.232.237.567.431 1.109.584 1.625.152.508.266.808.342.901.077.432.165.86.267 1.283.229.88.347 1.785.356 2.716a5.45 5.45 0 01-.077.445c-.033.152-.059.28-.076.38 0 .17.013.293.038.369.034.068.06.182.076.343a3.01 3.01 0 01-.19.977c-.059.186-.11.368-.152.546-.178.914-.55 1.837-1.118 2.768-.558.93-1.256 1.608-2.094 2.03-.66.483-1.553.83-2.679 1.042a11.15 11.15 0 01-2.082.216z" fill="#fff"/><path d="M146.836 43.191a8.001 8.001 0 007.871 7.651l177.426 2.703c4.884.075 8.693-4.206 8.053-9.047l-3.989-30.18a8 8 0 00-7.962-6.952l-174.604.683a8 8 0 00-7.961 8.348l1.166 26.794z" fill="#914BF1"/><path d="M161.68 40.658c-.127 0-.258-.015-.394-.048-.127-.033-.204-.168-.231-.405a6.44 6.44 0 00.157-1.22l.048-.559c-.003-.415-.01-.817-.021-1.206a101.488 101.488 0 01.055-7.377c.09-1.879.13-3.512.122-4.9a28.075 28.075 0 00-.091-2.272l.203-.078a.38.38 0 00.127-.013.091.091 0 01.038-.013c-.001-.034.092-.052.279-.053.33-.002.541-.012.634-.03a1.9 1.9 0 01.292-.027c.135 0 .296.028.483.086l.229.05.292-.002c.118 0 .25.011.394.035l-.023.445a18.34 18.34 0 00-.161 2.654l.034 1.346c.004.643-.013 1.253-.052 1.828l-.247 3.087c0 .017-.004.03-.013.038l-.012.038c.043.144.065.309.067.495.002.305-.06 1.215-.186 2.73.083-.186.217-.508.4-.967l1.5-3.742c.675-1.663 1.075-2.55 1.202-2.66.066-.28.178-.59.337-.93.116-.271.258-.64.424-1.107.191-.568.354-.925.489-1.07l-.001-.05c-.001-.144.057-.386.173-.725.125-.373.221-.56.289-.56h.013c.049-.238.136-.437.262-.599a.605.605 0 01.507-.257h.063a32.855 32.855 0 011.752-.05c.321-.001.525.006.609.022l-.005 1.194c.043.1.068.65.074 1.65.002.279 0 .66-.005 1.142-.006.483-.02.974-.042 1.473-.014.491-.029.766-.045.826l.031 1.04c.092 1.058.141 2.209.149 3.453.008 1.244-.001 2.404-.029 3.479l.008 1.168c.007 1.184-.051 1.976-.176 2.375a1.895 1.895 0 00-.304.052 5.661 5.661 0 01-.533.054l-.723.03a2.85 2.85 0 01-.559-.047c-.254-.057-.383-.234-.384-.53l-.001-.064c.031-.517.058-1.55.082-3.098l.083-5.016c.011-.846.047-1.908.107-3.187-.184.348-.443.9-.777 1.655-.851 1.919-1.364 3.225-1.537 3.92-.025.094-.162.48-.412 1.158-.324.857-.541 1.358-.65 1.502l-.388.866c-.501 1.146-.763 1.782-.788 1.91a1.045 1.045 0 00-.201.382c-.1.22-.205.378-.314.471-.067.128-.325.193-.773.196a11.04 11.04 0 01-.737-.021l-.457-.01a2.933 2.933 0 00-.305.015 3.676 3.676 0 01-.431.028zm29.097-.184l-.178.001c-.211.002-.347-.01-.406-.035l-.255-.113-.618-7.486-.546-.01a5.71 5.71 0 00-.901.07 7.292 7.292 0 01-.952.094c-.347.003-.736-.016-1.168-.056l-.978-.057a81.09 81.09 0 00-.04 1.778 63.884 63.884 0 01-.166 3.797 5.846 5.846 0 00-.01.406l.031.901c.002.271-.014.512-.046.724a5.071 5.071 0 00-.762-.046l-.445.016c-.22.026-.41.04-.571.041a1.118 1.118 0 01-.368-.06c-.161-.068-.244-.397-.248-.99a12.87 12.87 0 01.057-1.142c-.197-4.24-.301-6.643-.313-7.21-.044-1.624-.07-3.071-.078-4.34-.011-1.719.026-2.684.109-2.896l-.005-.8c-.002-.296.039-.487.123-.572.093-.085.533-.13 1.32-.135.49-.003.846.032 1.067.107.254.092.383.32.385.683l.001.19a15.927 15.927 0 000 1.994l.018.774c.002.449-.012.889-.043 1.32-.031.357-.045.957-.039 1.804.002.398.017.72.044.964a45.44 45.44 0 003.06.083c.457-.003.918-.015 1.384-.035.007-.245.009-.529.007-.85l-.02-1.117c-.02-.474-.031-.952-.034-1.435-.004-.634.004-1.396.023-2.285.02-.897.122-1.6.305-2.11.227-.102.515-.155.862-.157.465-.003.88.05 1.245.157l.175 5.585c.11 1.413.17 2.75.178 4.01.003.576-.006 1.088-.029 1.537.128.177.222.879.28 2.106.021.617.032 1.079.034 1.383a4.05 4.05 0 01-.034.56c-.016.177-.028.363-.035.558.002.313.03.673.083 1.079.027.228.045.435.055.621l.066.419c-.245.086-.786.145-1.624.175zm10.042-.063l-.432.002a67.19 67.19 0 01-2.006-.038v-.025l-1.219.02-.876.019a16.802 16.802 0 01-1.689-.066c-.036-.38-.079-1.193-.129-2.437-.1-2.36-.155-4.446-.167-6.258-.015-2.344.049-3.677.191-4-.07-.296-.107-.782-.111-1.46a47.313 47.313 0 01.117-3.593c.219-.204 1.077-.311 2.575-.32.626-.005 1.295.004 2.006.025a17.383 17.383 0 001.879-.012c.33-.028.652-.042.965-.044.88-.006 1.68.086 2.401.276.095.355.144.778.148 1.27a3.51 3.51 0 01-.047.609c-.058.305-.192.458-.404.46l-2.615.003-2.603-.009a33.78 33.78 0 00-1.65.036l-.006.965.005.8-.008.8a41.89 41.89 0 00-.038 2.006c.002.27.011.49.029.66.128.075.911.108 2.35.1.88-.006 1.735.005 2.564.034.83.028 1.406.118 1.729.268.139.55.209.998.211 1.345.003.38-.08.64-.249.776-.278.221-1 .336-2.168.343l-.623-.008-1.37.02-2.374.117-.077 3.873c.788.139 2.342.201 4.661.186 1.658-.01 2.547.031 2.666.123.138.313.204.68.198 1.104a5.51 5.51 0 01-.107 1.168c-.066.348-.212.56-.44.638-.186.06-.398.091-.635.093l-.571.003-2.081.128zm23.029-.146c-1.507.01-3.02-.32-4.539-.987-.492-.208-1.032-.54-1.618-.992-1.285-.983-2.045-2.125-2.282-3.427a2.463 2.463 0 00-.156-.52c-.274-.54-.445-1.528-.513-2.967a11.81 11.81 0 01-.017-.533c-.011-1.802.402-3.383 1.24-4.743.838-1.368 2.282-2.46 4.334-3.277.819-.344 1.554-.518 2.206-.522l.431.022a3.34 3.34 0 001.079-.171 3.41 3.41 0 01.647-.068c.211-.001.516.01.914.032.398.015.821.046 1.27.094.449.04.771.092.966.159.086.304.144.672.172 1.103.001.161-.001.457-.007.889-.006.423-.126.784-.362 1.081a1.18 1.18 0 01-.19.014 4.955 4.955 0 01-.826-.096 12.277 12.277 0 00-2.375-.239 6.918 6.918 0 00-1.725.24l-.051.025a9.007 9.007 0 00-1.647.57c-.667.3-1.154.819-1.463 1.557-.158.407-.288.65-.389.726l.002.242c.002.338-.021.749-.069 1.232-.039.398-.063.745-.069 1.04.048.864.213 1.654.497 2.372.095.295.177.578.247.849.238.193.442.382.613.567.179.185.362.358.549.517.187.152.433.281.739.39.492.174 1.36.291 2.605.351.194.007.368.019.52.035.568.047 1.042.082 1.423.105.491.022.851.058 1.08.107.229.041.377.125.446.252.068.118.112.316.13.596.02.389.056.799.11 1.23.044.372.072.732.083 1.079l.001.165c.001.152-.015.262-.049.33-.151.154-.358.252-.62.296a6.248 6.248 0 01-.8.056 6.01 6.01 0 00-.71.043c-.609.114-1.218.172-1.827.176zm12.912.134a6.645 6.645 0 01-1.004-.082c-.381-.048-.618-.136-.712-.262-.044-.17-.067-.546-.071-1.13a77.709 77.709 0 01.044-3.072c.061-2.404.146-3.763.254-4.077a4.345 4.345 0 01-.069-.85l.006-1.092.008-.635c0-.144-.01-.317-.028-.52a14.763 14.763 0 01-.045-1.08c-.003-.38.03-.664.096-.85a3.552 3.552 0 01-.107-.926l.011-.23a2.293 2.293 0 00-.014-.24 16.327 16.327 0 00-1.981-.09 87.25 87.25 0 00-2.171.04c-.406.02-.74.03-1.003.032-.262.001-.419-.006-.47-.023-.079-.44-.128-.926-.149-1.459-.003-.559.053-1.02.169-1.385.854-.15 2.017-.266 3.489-.352l10.576-.041c.069.287.106.79.111 1.51.002.33-.001.546-.009.647-.016.161-.07.314-.162.458-.05.068-.109.166-.176.293-.313-.04-.914-.057-1.803-.052-1.828.012-2.89.048-3.186.11l.081 2.728.083 1.066-.028 5.7c-.013.576-.056 1.22-.127 1.931-.082.526-.12 1.072-.117 1.639l.031.914c.002.304-.009.605-.032.901-.176.314-.674.474-1.495.48zm11.646-11.398c2.267-.166 3.418-.927 3.451-2.281-.03-.813-.406-1.415-1.128-1.808-.263-.117-.645-.225-1.145-.323-.5-.099-.873-.147-1.118-.146l.024 1.74c.005.922-.022 1.862-.084 2.818zm-1.403 11.118h-.165a3.438 3.438 0 01-1.143-.17 27.815 27.815 0 01-.279-3.895 41.946 41.946 0 01.119-3.315c.077-1.236.112-2.328.106-3.276l-.076-2.056-.003-.38c-.007-1.093.053-1.69.179-1.792a3.245 3.245 0 01-.028-.457c-.001-.135.002-.351.009-.647.015-.297.038-.657.069-1.08.04-.423.08-.72.121-.89.27-.162.744-.245 1.421-.25.956-.006 1.994.098 3.112.31.915.173 1.568.389 1.959.649.561.394.893.637.995.73.205.193.47.653.796 1.378.164.431.247.96.251 1.586l-.009.558c-.006.348-.118.695-.336 1.044-.082.491-.315 1.038-.701 1.642-.385.603-.793 1.029-1.223 1.277-1.147.574-2.377.92-3.688 1.039-.066.322-.134.881-.205 1.677-.151 1.643-.223 2.934-.217 3.874l.015.406c.002.237-.001.436-.009.596l.002.191c.002.33.059.651.171.964-.329.163-.743.258-1.243.287zm13.003-7.649l2.907-.056c.102 0 .152-.018.152-.052l-.026-.076c-.329-1.25-.53-2.206-.602-2.865-.124-.914-.31-1.492-.557-1.736l-.262.75c-.3.756-.499 1.316-.598 1.68l-.338.739c-.368.772-.593 1.311-.676 1.616zm-2.617 7.761h-.076c-.161.002-.588-.03-1.283-.093-.754-.063-1.173-.12-1.258-.17a.646.646 0 01-.052-.266c-.002-.33.192-1.021.583-2.073.142-.382.241-.679.299-.89a22.7 22.7 0 01.273-1.043c.323-1.12.615-1.828.875-2.126.008-.178.065-.462.173-.852.215-.755.444-1.429.685-2.023.392-1.018 1-2.452 1.827-4.302.968-2.173 1.566-3.324 1.793-3.452.183-.526.422-.9.717-1.122.323.252.653.914.99 1.987.129.414.199.727.209.938.171.202.385.683.644 1.443.155.49.31.866.464 1.127.086.28.229.701.427 1.267l1.436 4.282c1.406 4.215 2.11 6.47 2.112 6.766v.013c-.142.153-.286.243-.43.27a1.42 1.42 0 01-.279.026 2.67 2.67 0 01-.216-.01 1.233 1.233 0 00-.266-.025l-.483.029a3.078 3.078 0 01-.38.028 1.974 1.974 0 01-.674-.11c-.273-.363-.674-1.486-1.202-3.37-.234-.853-.441-1.503-.621-1.95a5.66 5.66 0 00-.533.053c-.169.027-.364.04-.584.042h-.14c-.161-.007-.372-.01-.635-.008-.727.005-1.611.087-2.651.245-.343.705-.779 1.99-1.309 3.855l-.435 1.514zm27.75-.353l-14.853.094-.407-.2c.118-2.752.172-4.813.164-6.185l-.046-7.223c-.003-.567.059-1.32.189-2.261-.136-.143-.208-.693-.214-1.65l-.004-.621c-.001-.28.89-.56 2.674-.842.628.258.977.531 1.046.818-.231 7.695-.339 12.71-.324 15.047l2.882-.019c-.005-.82.059-2.057.192-3.708-.17-4.222-.265-7.793-.283-10.713.455-.282.869-.425 1.241-.427l1.854-.012c.271.04.407.18.409.417l.067 10.714-.195 1.246c.137.219.207.561.21 1.027l.009 1.434c.626-.004 1.041.066 1.245.208.541-.147 1.023-.222 1.446-.225.106-4.757.148-8.74.128-11.947-.005-.728-.08-1.9-.226-3.515.262-.137.465-.206.609-.207 1.929-.012 2.896.256 2.899.807-.216 9.912-.319 15.757-.308 17.534.002.271-.133.407-.404.409zm11.845-.075l-.178.001c-.211.002-.347-.01-.406-.035l-.255-.113-.619-7.486-.545-.01a5.71 5.71 0 00-.901.07 7.292 7.292 0 01-.952.094c-.347.003-.736-.016-1.168-.056l-.978-.057a81.09 81.09 0 00-.04 1.778 63.88 63.88 0 01-.166 3.797 5.848 5.848 0 00-.01.406l.031.901a4.64 4.64 0 01-.047.724 5.053 5.053 0 00-.762-.046l-.444.016c-.22.026-.41.04-.571.041-.127.001-.25-.02-.368-.06-.162-.068-.244-.397-.248-.99-.002-.296.017-.677.056-1.142-.196-4.24-.3-6.643-.312-7.21-.044-1.624-.07-3.071-.078-4.341-.011-1.718.025-2.683.109-2.895l-.005-.8c-.002-.296.039-.487.123-.572.093-.085.532-.13 1.319-.135.491-.003.847.032 1.068.107.254.092.382.32.385.683l.001.19a15.313 15.313 0 000 1.994l.017.774c.003.449-.011.889-.042 1.32-.032.357-.045.957-.039 1.804.002.398.017.72.044.964a46.11 46.11 0 003.06.083c.457-.003.918-.015 1.384-.035.006-.245.009-.529.007-.85l-.02-1.117c-.02-.474-.031-.952-.034-1.435-.004-.634.004-1.396.023-2.285.02-.897.121-1.6.304-2.11.228-.102.516-.155.863-.157.465-.003.88.05 1.245.157l.175 5.585c.11 1.413.169 2.75.177 4.01a26.78 26.78 0 01-.028 1.537c.128.177.221.879.28 2.106.021.617.032 1.079.034 1.383a4.05 4.05 0 01-.034.56c-.016.177-.028.363-.035.558.002.313.03.673.083 1.078.027.229.045.436.055.622l.066.419c-.245.086-.786.144-1.624.175zm9.732-2.943c2.065-.013 3.243-.973 3.536-2.88.032-.279.077-.592.134-.94.154-.99.23-1.694.228-2.108-.016-2.48-.843-4.739-2.481-6.777a1.526 1.526 0 01-.394-.137 1.116 1.116 0 00-.547-.136c-.152 0-.355.044-.608.13-.744.268-1.225.487-1.444.657-.571.58-1.023 1.467-1.354 2.662-.331 1.196-.494 2.195-.489 3l.022 1.421c.005.762-.016 1.486-.063 2.171.077.06.24.359.489.899.283.667.523 1.118.719 1.354.341.353.943.573 1.807.661.152.016.301.024.445.023zm-1.186 3.27c-1.71.01-3.009-.633-3.897-1.93-.291-.447-.596-1.16-.915-2.14a19.825 19.825 0 01-.716-2.903 7.499 7.499 0 01-.096-1.066c-.003-.406.05-.715.159-.928a3.292 3.292 0 01-.041-.533c-.003-.448.069-1.113.216-1.994.146-.881.386-1.81.718-2.785.341-.976.701-1.6 1.08-1.873.191-.585.776-1.165 1.754-1.738.978-.581 1.92-.922 2.825-1.02l.698-.056c.253-.027.473-.04.659-.042.178.007.373.048.585.123.509.183 1.036.45 1.58.803.739.486 1.156.877 1.251 1.173.332.243.614.652.846 1.226.24.565.438 1.106.594 1.62.156.508.272.808.349.9.078.431.17.858.274 1.28.234.88.359 1.784.373 2.715a5.37 5.37 0 01-.074.445c-.032.152-.057.28-.073.381.001.17.014.292.04.368.034.068.061.182.078.343-.006.33-.067.656-.184.978a8.128 8.128 0 00-.149.547c-.172.915-.538 1.84-1.099 2.775-.553.934-1.247 1.616-2.082 2.044-.657.487-1.548.84-2.672 1.058-.753.149-1.446.225-2.081.229zm13.777.281c-.331.002-.661-.119-.993-.362l-.064-.101a.882.882 0 01-.128-.126c-.025-.025-.064-.148-.116-.367a.685.685 0 00-.039-.153 1.923 1.923 0 01-.067-.469c-.002-.296.022-.525.072-.686.041-.119.15-.318.326-.599a1.76 1.76 0 011.216-.477c.093 0 .195.011.305.036.118.016.276.134.472.352.273.397.433.848.478 1.356a2.146 2.146 0 01-.148.648c-.083.246-.196.416-.34.51a.125.125 0 01-.025.051.127.127 0 01-.025.038c0 .009-.008.018-.025.026a.645.645 0 00-.05.064c-.076.06-.177.12-.304.18l-.038.012a2.311 2.311 0 01-.507.067zm.779-5.16c-.253.002-.558-.008-.914-.032-.558.004-.953-.116-1.183-.36-.06-1.464-.102-2.827-.127-4.087-.008-1.312.008-2.133.048-2.464a6.788 6.788 0 01-.162-1.459c-.004-.617.01-1.13.041-1.536a10.7 10.7 0 00.022-.584 10.597 10.597 0 00-.071-1.13 9.236 9.236 0 01-.07-1.053 6.686 6.686 0 01.094-1.181l1.791.04.304-.015c.28-.002.521.043.725.135.212.083.328.37.348.86.004.602.002 1.059-.004 1.372-.015.364-.021.724-.019 1.08.01.245.016.494.018.748.004.669-.017 1.346-.064 2.032a38.784 38.784 0 00-.049 2.21c.004.676-.022 1.24-.078 1.688a8.027 8.027 0 00-.07 1.092c.002.246.016.487.043.724l-.04 1.765-.05.013a1.563 1.563 0 01-.533.143z" fill="#fff"/></svg>