<svg width="56" height="52" viewBox="0 0 56 52" fill="none" xmlns="http://www.w3.org/2000/svg"><path d="M55.5 28.5C55.5 42.86 42.36 52 28 52S.5 37.86.5 23.5 13.64 0 28 0s27.5 14.14 27.5 28.5z" fill="#fff" fill-opacity=".05"/><path fill-rule="evenodd" clip-rule="evenodd" d="M14.688 24.511c7.268-3.048 12.107-5.073 14.537-6.056 6.916-2.787 8.37-3.268 9.304-3.288.207 0 .664.04.976.28.25.2.311.462.353.662.042.2.083.622.042.943-.374 3.81-1.994 13.054-2.825 17.305-.353 1.805-1.038 2.407-1.703 2.467-1.453.12-2.554-.923-3.946-1.805-2.201-1.384-3.426-2.246-5.565-3.61-2.472-1.564-.873-2.426.54-3.83.373-.36 6.75-5.975 6.874-6.477.02-.06.02-.3-.125-.42-.145-.121-.353-.081-.52-.04-.228.04-3.717 2.285-10.508 6.717-.996.662-1.89.982-2.7.962-.892-.02-2.595-.48-3.883-.882-1.557-.481-2.803-.742-2.7-1.584.063-.441.686-.883 1.849-1.344z" fill="#fff"/></svg>