<svg width="74" height="70" viewBox="0 0 74 70" fill="none" xmlns="http://www.w3.org/2000/svg"><path d="M73.666 38.442c0 19.146-17.52 31.333-36.666 31.333-19.146 0-36.667-18.854-36.667-38S17.853.442 37 .442c19.145 0 36.666 18.854 36.666 38z" fill="#50A1DD"/><path fill-rule="evenodd" clip-rule="evenodd" d="M19.25 33.123c9.691-4.064 16.143-6.764 19.383-8.074 9.22-3.717 11.159-4.358 12.405-4.385.277 0 .886.053 1.301.374.333.268.416.615.471.883.055.267.11.828.055 1.256-.498 5.08-2.658 17.406-3.765 23.074-.471 2.407-1.385 3.209-2.27 3.29-1.94.16-3.407-1.23-5.262-2.407-2.935-1.845-4.569-2.995-7.42-4.813-3.296-2.085-1.164-3.235.719-5.107.498-.481 9-7.967 9.165-8.636.028-.08.028-.4-.166-.561-.194-.16-.47-.107-.692-.054-.305.054-4.956 3.048-14.011 8.957-1.33.883-2.52 1.31-3.6 1.284-1.19-.027-3.461-.642-5.178-1.177-2.077-.642-3.738-.99-3.6-2.112.084-.588.914-1.177 2.465-1.791z" fill="#fff"/></svg>