<svg xmlns="http://www.w3.org/2000/svg" width="35" height="45" fill="none"><path stroke="#F5F5F5" stroke-width="3" d="M16.325 17.512l-.274.021-.263-.077c-2.314-.677-3.372-2.988-3.975-4.842-.324-.997-.573-2.052-.792-3.009l-.07-.307c-.187-.817-.352-1.54-.535-2.16-.649-1.426-1.252-2.379-1.78-2.973-.542-.611-.9-.731-1.053-.75-.115-.016-.333-.003-.704.307-.39.326-.846.903-1.325 1.784C3.609 9.082 2.112 16.05 1.694 23.25c-.207 3.566-.144 7.116.24 10.241.386 3.154 1.086 5.755 2.075 7.508.974 1.724 2.066 2.393 3.29 2.353 1.402-.045 3.5-1.008 6.395-3.895l.34-.34.473-.078 3.308-.55.13-.022.132.002 3.353.034.48.005.388.283c3.304 2.408 5.525 3.037 6.917 2.866 1.216-.149 2.193-.977 2.89-2.83.708-1.885 1-4.563.897-7.738-.102-3.148-.586-6.665-1.339-10.157-1.52-7.049-4.07-13.704-6.541-16.938-.61-.797-1.148-1.297-1.584-1.56-.414-.248-.63-.227-.743-.195-.147.043-.483.217-.925.904-.43.668-.88 1.702-1.301 3.21-.085.641-.138 1.38-.196 2.216l-.023.316c-.07.98-.153 2.06-.32 3.095-.31 1.924-1 4.37-3.183 5.395l-.248.117-.274.021z"/></svg>