<svg width="100" height="114" fill="none" xmlns="http://www.w3.org/2000/svg"><path d="M39.07 70.849l-.316-.183-.362-.059c-4.81-.784-8.952 2.493-12.163 5.867-1.673 1.758-3.26 3.725-4.721 5.563l-.472.594c-1.267 1.595-2.425 3.054-3.519 4.26-2.973 2.502-5.422 4.062-7.392 4.891-1.999.842-3.314.855-4.159.576-.798-.263-1.539-.909-2.146-2.237-.62-1.36-1.028-3.294-1.157-5.792-.521-10.07 3.55-26.902 10.106-42.925 3.261-7.97 7.102-15.649 11.217-22.09C28.122 12.84 32.45 7.753 36.64 4.82c4.154-2.906 7.846-3.506 11.162-1.785 3.526 1.83 7.233 6.558 10.532 15.878l.213.603.525.367 6.565 4.6.144.101.16.074 7.266 3.386.58.27.63-.116c9.72-1.803 15.668-.957 19.016 1.182 3.148 2.012 4.475 5.509 4.035 10.56-.444 5.094-2.686 11.386-6.224 18.204-3.52 6.785-8.25 13.95-13.522 20.76-10.598 13.689-23.14 25.63-32.121 30.214-2.229 1.137-4.107 1.752-5.595 1.894-1.454.138-2.383-.181-3.01-.74-.664-.592-1.31-1.738-1.581-3.889-.267-2.121-.14-5.022.539-8.848.498-1.55 1.182-3.282 1.93-5.175l.28-.708c.86-2.185 1.77-4.543 2.457-6.87 1.316-4.468 2.083-9.693-1.002-13.468l-.231-.283-.317-.183z" stroke="#F5F5F5" stroke-width="4"/></svg>