<svg width="174" height="118" viewBox="0 0 174 118" fill="none" xmlns="http://www.w3.org/2000/svg">
<path d="M91.7448 0.870117C122.664 0.870117 145 22.6664 145 54.7108C145 86.7553 122.664 117.87 91.7448 117.87C60.8261 117.87 28 93.4854 28 61.4409C28 29.3965 60.8261 0.870117 91.7448 0.870117Z" fill="white"/>
<path d="M159.872 67.8089C159.872 67.8089 162.254 69.8765 164.349 74.9142C166.445 79.952 167.017 89.362 165.969 88.7916C164.921 88.2214 158.729 83.3737 154.537 76.6251C150.346 69.8764 146.917 58.6124 159.872 67.8089Z" fill="white"/>
<path d="M166.056 89.8468C165.859 89.8468 165.659 89.7974 165.474 89.6965C164.234 89.0215 157.887 83.9755 153.659 77.168C153.404 76.7566 147.439 67.0587 150.669 64.0342C152.337 62.4728 155.451 63.4054 160.471 66.9688L160.55 67.0311C160.655 67.122 163.14 69.3175 165.304 74.519C166.584 77.5977 167.128 81.6374 167.303 83.2313C167.891 88.6075 167.137 89.2835 166.854 89.538C166.627 89.742 166.344 89.8468 166.056 89.8468ZM152.699 65.376C152.288 65.376 152.124 65.4993 152.084 65.5377C151.143 66.4185 152.394 71.2162 155.416 76.082C158.691 81.3549 163.308 85.5157 165.44 87.1667C165.469 86.2536 165.415 84.8144 165.195 82.9915C164.832 79.9863 164.176 77.1863 163.395 75.3095C161.563 70.9043 159.499 68.8725 159.222 68.6126C155.363 65.8803 153.528 65.376 152.699 65.376Z" fill="#58595B"/>
<path d="M150.536 63.7268C150.536 63.7268 157.986 70.6541 157.986 77.0135C157.986 83.3729 158.539 90.5017 157.395 90.5017C156.252 90.5017 145.774 82.8976 141.773 79.0956C137.772 75.2936 143.964 56.057 150.536 63.7268Z" fill="white"/>
<path d="M157.395 91.5336C157.035 91.5336 156.192 91.5336 150.047 87.058C147.161 84.9566 143.285 81.9578 141.06 79.8431C138.908 77.7978 139.284 72.9882 140.26 69.4909C141.281 65.8308 143.463 61.6788 146.525 61.002C147.681 60.7466 149.442 60.8903 151.284 63.0139C151.97 63.6608 159.02 70.4721 159.02 77.0144C159.02 78.6432 159.056 80.3142 159.091 81.9303C159.224 88.0438 159.194 90.2604 158.346 91.1259C158.088 91.3888 157.75 91.5336 157.395 91.5336ZM147.372 62.9712C147.238 62.9712 147.105 62.9858 146.972 63.015C145.212 63.4039 143.315 66.2286 142.25 70.0438C141.217 73.7457 141.316 77.2391 142.485 78.3498C146.114 81.798 154.431 87.839 156.948 89.2158C157.153 87.8537 157.083 84.639 157.025 81.9747C156.99 80.3477 156.953 78.6654 156.953 77.0141C156.953 71.1826 149.903 64.5476 149.832 64.4812L149.789 64.4417L149.751 64.3974C148.939 63.4494 148.14 62.9712 147.372 62.9712Z" fill="#58595B"/>
<path d="M139.208 61.3764C140.753 62.9101 144.737 67.0624 144.737 75.251C144.737 83.4397 144.737 90.4586 141.401 91.8983C138.064 93.338 130.943 89.0428 125.171 75.0951C121.116 65.2958 135.328 57.5257 139.208 61.3764Z" fill="white"/>
<path d="M140.039 93.1943C139.24 93.1943 138.375 93.0111 137.473 92.6459C132.772 90.7421 127.94 84.4886 124.216 75.4892C123.111 72.8189 123.158 70.0286 124.352 67.4198C125.343 65.2553 127.135 63.2307 129.399 61.7188C131.209 60.5101 133.212 59.6988 135.04 59.4346C137.109 59.1353 138.848 59.5656 139.936 60.6462C141.379 62.0785 145.771 66.437 145.771 75.2516C145.771 84.1266 145.771 91.1364 141.81 92.8453C141.271 93.078 140.676 93.1943 140.039 93.1943ZM136.296 61.3942C134.662 61.3942 132.529 62.1098 130.548 63.4322C127.107 65.7305 124.138 69.898 126.126 74.7023C131.256 87.101 136.703 90.1088 138.251 90.7355C139.33 91.1724 140.303 91.2497 140.99 90.9529C143.704 89.7819 143.704 82.724 143.704 75.2517C143.704 67.2943 139.771 63.3908 138.479 62.108C137.993 61.6255 137.225 61.3942 136.296 61.3942Z" fill="#58595B"/>
<path d="M14.4747 67.8089C14.4747 67.8089 12.0932 69.8765 9.99745 74.9142C7.90174 79.952 7.33011 89.362 8.37802 88.7916C9.42594 88.2214 15.6178 83.3737 19.8094 76.6251C24.0008 69.8764 27.4302 58.6124 14.4747 67.8089Z" fill="white"/>
<path d="M8.29051 89.8466C8.00301 89.8466 7.7202 89.7417 7.49306 89.5379C7.20941 89.2833 6.45597 88.6072 7.04408 83.2312C7.21843 81.6373 7.76229 77.5975 9.04311 74.5188C11.207 69.3173 13.6917 67.1219 13.7964 67.0309L13.8757 66.9687C18.8953 63.4055 22.0097 62.4729 23.6771 64.034C26.9074 67.0586 20.9429 76.7565 20.6874 77.1679C16.4593 83.9754 10.1129 89.0214 8.87261 89.6964C8.68743 89.7971 8.48783 89.8466 8.29051 89.8466ZM15.1249 68.6122C14.8477 68.8723 12.7841 70.9043 10.9516 75.3091C10.1707 77.186 9.5147 79.986 9.15157 82.9911C8.93128 84.8139 8.87717 86.2531 8.90639 87.1664C11.039 85.5154 15.656 81.3546 18.9309 76.0816C21.9529 71.2158 23.2037 66.4181 22.263 65.5373C22.1396 65.4217 20.8928 64.5283 15.1249 68.6122Z" fill="#58595B"/>
<path d="M23.8103 63.7278C23.8103 63.7278 16.3603 70.6551 16.3603 77.0145C16.3603 83.3739 15.8083 90.5026 16.9514 90.5026C18.0946 90.5026 28.5732 82.8986 32.5742 79.0966C36.5751 75.2945 30.3833 56.058 23.8103 63.7278Z" fill="white"/>
<path d="M16.9515 91.5335C16.5966 91.5335 16.2592 91.3887 16.0014 91.1258C15.1525 90.2603 15.1233 88.0438 15.2559 81.9302C15.291 80.3141 15.3273 78.6432 15.3273 77.0143C15.3273 70.4721 22.3771 63.6606 23.0629 63.0138C24.9046 60.8905 26.6653 60.7466 27.8215 61.0019C30.8838 61.6787 33.0662 65.8306 34.0873 69.4907C35.0632 72.988 35.4391 77.7977 33.2868 79.8429C31.0614 81.9577 27.1855 84.9565 24.3004 87.0579C18.1553 91.5335 17.3118 91.5335 16.9515 91.5335ZM24.515 64.4814C24.4438 64.5477 17.3935 71.1827 17.3935 77.0143C17.3935 78.6655 17.357 80.3478 17.3218 81.9748C17.2639 84.6392 17.1941 87.8538 17.3992 89.2159C19.9156 87.8391 28.2333 81.7981 31.8618 78.35C33.0308 77.2391 33.1297 73.7459 32.0967 70.0439C31.0322 66.2287 29.1345 63.4041 27.3745 63.0151C26.4853 62.819 25.5502 63.2838 24.5955 64.3976L24.5575 64.442L24.515 64.4814Z" fill="#58595B"/>
<path d="M35.1392 61.3764C33.5941 62.9101 29.6095 67.0624 29.6095 75.251C29.6095 83.4397 29.6095 90.4586 32.9463 91.8983C36.2832 93.338 43.4043 89.0428 49.1761 75.0951C53.2313 65.2958 39.019 57.5257 35.1392 61.3764Z" fill="white"/>
<path d="M34.3077 93.1942C33.6712 93.1942 33.0763 93.0781 32.5364 92.8452C28.5764 91.1365 28.5764 84.1265 28.5764 75.2516C28.5764 66.4367 32.9677 62.0783 34.4106 60.6462C35.4993 59.5657 37.2383 59.1353 39.3071 59.4345C41.1344 59.6987 43.1377 60.51 44.9477 61.7187C47.2116 63.2305 49.0039 65.2552 49.9949 67.4197C51.189 70.0285 51.2361 72.8188 50.1312 75.4891C46.4069 84.4887 41.5746 90.742 36.8733 92.6459C35.9717 93.0109 35.1069 93.1941 34.3077 93.1942ZM38.0504 61.3941C37.1216 61.3941 36.3542 61.6254 35.8679 62.1079C34.5756 63.3905 30.6428 67.294 30.6428 75.2516C30.6428 82.7238 30.6428 89.7817 33.3565 90.9527C34.0443 91.2495 35.0173 91.1721 36.0961 90.7353C37.6433 90.1087 43.0903 87.1008 48.2212 74.7021C50.2091 69.898 47.24 65.7303 43.7984 63.432C41.8184 62.1099 39.6847 61.3941 38.0504 61.3941Z" fill="#58595B"/>
<path d="M105.358 64.0305C104.404 58.7445 85.5166 62.1387 86.4707 67.4247C88.1205 76.5643 92.2306 90.5755 100.143 89.1537C108.055 87.7318 107.008 73.1701 105.358 64.0305Z" fill="url(#paint0_linear_2514_3195)"/>
<path d="M99.0322 90.2848C97.3392 90.2848 95.733 89.6663 94.2425 88.4374C92.714 87.177 91.2977 85.2491 90.0329 82.7072C87.629 77.8756 86.2159 71.8284 85.4539 67.6064C85.2418 66.4312 85.5735 64.6841 88.3574 63.0337C90.0584 62.0254 92.4231 61.2134 95.0156 60.7475C97.6082 60.2813 100.108 60.2192 102.055 60.5721C105.241 61.1495 106.163 62.6716 106.375 63.8467C107.137 68.0689 107.927 74.2279 107.364 79.5927C107.067 82.4151 106.414 84.715 105.423 86.4283C104.212 88.5191 102.497 89.7771 100.326 90.1672C99.8897 90.2457 99.4581 90.2848 99.0322 90.2848ZM99.2761 62.411C98.0875 62.411 96.7624 62.5285 95.3818 62.7766C90.7352 63.6116 87.1939 65.6143 87.4875 67.2408C88.0919 70.5895 89.4668 76.9326 91.8837 81.7904C94.2472 86.5407 96.9649 88.6761 99.9596 88.1382C102.955 87.6 104.755 84.6525 105.309 79.3778C105.875 73.984 104.945 67.5609 104.341 64.2122C104.135 63.069 102.088 62.411 99.2761 62.411Z" fill="#58595B"/>
<path d="M127.581 70.1112C129.624 64.7891 111.604 57.9028 109.561 63.2248C106.029 72.4267 104.311 88.2638 111.259 90.9191C117.701 93.3807 124.049 79.313 127.581 70.1112Z" fill="url(#paint1_linear_2514_3195)"/>
<path d="M112.781 92.2388C112.145 92.2388 111.514 92.1198 110.89 91.8811C107.326 90.5192 105.444 86.2468 105.447 79.5258C105.449 74.298 106.656 67.9102 108.596 62.8556C109.91 59.4333 115.508 59.816 120.473 61.7133C125.438 63.6107 129.86 67.0571 128.546 70.4794C126.094 76.8684 123.682 81.9049 121.378 85.4493C118.443 89.9646 115.559 92.2388 112.781 92.2388ZM113.635 62.3321C112.003 62.3321 110.848 62.7517 110.526 63.5928C108.67 68.4283 107.515 74.5337 107.513 79.5266C107.511 82.8336 108.044 88.5858 111.629 89.9556C113.945 90.8411 116.641 88.9471 119.644 84.3273C121.87 80.9037 124.216 75.9964 126.616 69.7419C127.268 68.0435 124.245 65.3626 119.734 63.6387C117.457 62.7684 115.298 62.3321 113.635 62.3321Z" fill="#58595B"/>
<path d="M67.9822 65.5712C67.9822 60.2002 87.1733 60.2002 87.1733 65.5712C87.1733 74.8579 85.6173 89.3743 77.5778 89.3743C69.5382 89.3743 67.9822 74.8579 67.9822 65.5712Z" fill="url(#paint2_linear_2514_3195)"/>
<path d="M77.5777 90.4048C75.3714 90.4048 73.4605 89.4699 71.8978 87.6263C70.6175 86.1155 69.5659 83.9677 68.7729 81.2423C67.2653 76.0622 66.949 69.8609 66.949 65.5709C66.949 64.3769 67.5857 62.7159 70.6189 61.5841C72.4721 60.8924 74.9434 60.5117 77.5778 60.5117C80.2122 60.5117 82.6836 60.8925 84.5367 61.5841C87.57 62.7159 88.2067 64.3768 88.2067 65.5709C88.2067 69.8609 87.8902 76.0622 86.3827 81.2423C85.5896 83.9677 84.5382 86.1155 83.2577 87.6263C81.6949 89.4699 79.784 90.4048 77.5777 90.4048ZM77.5777 62.5734C72.8564 62.5734 69.0153 63.9181 69.0153 65.5708C69.0153 70.9129 69.6328 88.3429 77.5778 88.3429C85.5227 88.3429 86.1402 70.913 86.1402 65.5708C86.1402 64.5379 84.682 63.8394 83.8128 63.5151C82.2089 62.9167 79.9364 62.5734 77.5777 62.5734Z" fill="#58595B"/>
<path d="M45.9822 69.3323C44.274 63.8942 62.6875 58.1355 64.3958 63.5735C67.3495 72.9761 68.0807 88.889 60.9805 91.1096C54.3983 93.1681 48.936 78.7349 45.9822 69.3323Z" fill="url(#paint3_linear_2514_3195)"/>
<path d="M59.6942 92.3436C56.8132 92.3436 53.9698 89.8912 51.2205 85.0256C49.1413 81.3458 47.0472 76.1698 44.9962 69.6412C44.6243 68.4572 44.7133 66.6167 47.2489 64.5723C48.8108 63.3131 51.0658 62.1834 53.5986 61.3911C56.1314 60.5991 58.6293 60.2428 60.6321 60.3867C63.8838 60.6211 65.0096 62.0817 65.3815 63.2657C67.0041 68.4307 67.8117 74.8808 67.4894 80.0987C67.0749 86.8069 64.931 90.9548 61.2893 92.0939C60.7566 92.2604 60.2248 92.3436 59.6942 92.3436ZM46.9681 69.0244C51.6508 83.9311 56.5166 91.425 60.6714 90.1263C66.7758 88.2171 66.3706 73.3076 63.4098 63.8825C63.0836 62.8438 61.6382 62.5265 60.4832 62.4432C58.7586 62.3189 56.4745 62.6526 54.2168 63.3586C51.959 64.0648 49.8927 65.0916 48.5478 66.1759C47.6471 66.9022 46.6418 67.9859 46.9681 69.0244Z" fill="#58595B"/>
<path d="M161.135 48.0807C161.135 48.0807 166.208 42.2512 169.581 39.6168C172.955 36.9825 173.322 40.4704 172.735 43.8488C172.148 47.2271 170.975 54.2521 169.435 60.4721C167.894 66.692 164.301 71.5193 159.461 66.947C154.62 62.3745 153.307 56.0419 161.135 48.0807Z" fill="white"/>
<path d="M163.175 69.781C161.98 69.7812 160.459 69.3099 158.75 67.6957C155.997 65.0952 154.572 62.2073 154.515 59.1122C154.445 55.361 156.417 51.4144 160.375 47.3814C160.782 46.9146 165.607 41.4114 168.944 38.8054C170.418 37.6545 171.664 37.3683 172.645 37.9542C174.264 38.9206 174.141 41.789 173.753 44.0251L173.604 44.8839C172.996 48.4024 171.866 54.9515 170.437 60.7195C169.229 65.6007 167.038 68.8381 164.428 69.602C164.067 69.7076 163.646 69.781 163.175 69.781ZM171.561 39.7224C171.466 39.7224 171.066 39.7669 170.218 40.429C166.962 42.9712 161.965 48.6995 161.915 48.757L161.872 48.8031C158.302 52.4343 156.522 55.8899 156.581 59.0742C156.628 61.5955 157.835 63.9925 160.171 66.1985C161.512 67.4655 162.748 67.9447 163.846 67.6236C165.677 67.0878 167.434 64.2529 168.431 60.2251C169.842 54.5287 170.965 48.0268 171.568 44.5338L171.717 43.6731C172.178 41.0175 171.781 39.8487 171.584 39.7235H171.584C171.584 39.7235 171.576 39.7224 171.561 39.7224Z" fill="#58595B"/>
<path d="M141.192 45.2951C141.192 45.2951 147.811 35.7303 150.771 32.566C153.73 29.4017 158.699 27.6087 160.496 31.1948C162.293 34.7809 161.553 52.5009 159.227 58.6185C156.902 64.7362 152.145 69.4022 146.965 65.5398C141.785 61.6773 134.362 55.9146 141.192 45.2951Z" fill="white"/>
<path d="M150.795 67.9761C149.29 67.9761 147.779 67.4328 146.347 66.3648C143.862 64.5117 140.458 61.9738 138.653 58.4162C136.567 54.3053 137.129 49.7031 140.323 44.7375L140.342 44.7086C140.614 44.3155 147.038 35.0449 150.015 31.8618C151.976 29.7658 155.211 27.8313 158.024 28.2381C159.537 28.4565 160.712 29.3193 161.42 30.7331C163.392 34.6675 162.612 52.621 160.193 58.9834C158.422 63.6434 155.642 66.8282 152.567 67.7212C151.981 67.8915 151.388 67.9761 150.795 67.9761ZM142.052 45.8659C136.148 55.059 141.299 60.0272 147.584 64.7133C149.062 65.8153 150.544 66.1614 151.99 65.7416C154.4 65.0415 156.745 62.2418 158.261 58.2522C159.292 55.5397 160.102 50.0444 160.375 43.911C160.636 38.0593 160.313 33.134 159.572 31.6552C159.168 30.8498 158.565 30.3995 157.728 30.2787C155.961 30.0234 153.411 31.2533 151.526 33.2687C148.704 36.2859 142.343 45.4458 142.052 45.8659Z" fill="#58595B"/>
<path d="M141.941 54.1941C143.687 61.3828 120.557 66.9786 118.81 59.7899C115.79 47.3606 116.636 30.7465 123.589 29.0643C133.279 26.7201 138.92 41.7647 141.941 54.1941Z" fill="white"/>
<path d="M125.819 64.1644C124.906 64.1644 124.042 64.1028 123.246 63.9781C119.396 63.3747 118.162 61.4999 117.806 60.0333C116.241 53.5952 115.729 46.2093 116.434 40.2759C116.817 37.0513 117.533 34.3886 118.563 32.3613C119.77 29.9848 121.379 28.5386 123.346 28.0628C128.174 26.8944 132.484 29.4174 136.154 35.5618C138.752 39.9127 141.037 46.0999 142.945 53.9516C143.301 55.4182 143.066 57.6485 139.919 59.9446C137.925 61.3994 135.088 62.6215 131.929 63.3859C129.8 63.901 127.705 64.1644 125.819 64.1644ZM125.585 29.8507C125.011 29.8507 124.427 29.9229 123.833 30.0666C121.147 30.7164 119.198 34.5262 118.485 40.5188C117.808 46.2215 118.304 53.3351 119.814 59.5476C120.507 62.3987 126.322 62.6207 131.442 61.3823C136.562 60.1436 141.63 57.2888 140.937 54.4375C139.078 46.7865 136.871 40.7909 134.379 36.6174C131.67 32.0814 128.779 29.8507 125.585 29.8507Z" fill="#58595B"/>
<path d="M12.8653 48.0802C12.8653 48.0802 7.79253 42.2507 4.419 39.6164C1.04548 36.982 0.678741 40.4699 1.26552 43.8483C1.85219 47.2266 3.02563 54.2516 4.5657 60.4716C6.10577 66.6915 9.69933 71.5188 14.5397 66.9465C19.3799 62.3741 20.6927 56.0414 12.8653 48.0802Z" fill="white"/>
<path d="M10.825 69.7807C10.3535 69.7807 9.93308 69.7073 9.57224 69.6017C6.96153 68.8378 4.77119 65.6003 3.56264 60.7192C2.13415 54.95 1.00315 48.4003 0.395568 44.8815L0.24743 44.0247C-0.140954 41.7886 -0.263962 38.9203 1.35474 37.9539C2.33664 37.3677 3.582 37.654 5.05569 38.805C8.39326 41.4112 13.2181 46.9149 13.6248 47.3811C17.583 51.4141 19.5546 55.3607 19.4851 59.1118C19.4278 62.2068 18.0029 65.0948 15.2498 67.6954C13.5413 69.3095 12.0195 69.7807 10.825 69.7807ZM2.44017 39.7234C2.42105 39.7234 2.41179 39.7251 2.41119 39.7253C2.21905 39.8484 1.82225 41.0172 2.28338 43.6728L2.43188 44.5314C3.03501 48.0247 4.15784 54.5271 5.56852 60.2248C6.56581 64.2526 8.32268 67.0875 10.1536 67.6233C11.2513 67.9446 12.488 67.4651 13.8292 66.1984C16.1645 63.9922 17.3724 61.5952 17.419 59.0739C17.4779 55.8896 15.6977 52.4338 12.1276 48.8028L12.0851 48.7567C12.0349 48.6991 7.03776 42.9709 3.78208 40.4288C2.94567 39.7755 2.54538 39.7234 2.44017 39.7234Z" fill="#58595B"/>
<path d="M32.8081 45.2951C32.8081 45.2951 26.1892 35.7303 23.2295 32.566C20.2697 29.4017 15.3013 27.6087 13.5042 31.1948C11.7072 34.7809 12.4472 52.5009 14.7728 58.6185C17.0984 64.7362 21.8553 69.4022 27.035 65.5398C32.2147 61.6773 39.6384 55.9146 32.8081 45.2951Z" fill="url(#paint4_linear_2514_3195)"/>
<path d="M23.2053 67.9758C22.6116 67.9758 22.0193 67.8913 21.4328 67.721C18.3577 66.828 15.5782 63.6432 13.8067 58.9833C11.3881 52.6208 10.6086 34.6672 12.5801 30.7328C13.2886 29.3191 14.463 28.4562 15.9763 28.2379C18.7874 27.8322 22.0241 29.7654 23.9847 31.8615C26.9622 35.0446 33.3863 44.3153 33.6584 44.7083L33.6777 44.7372C36.8715 49.7028 37.4331 54.305 35.3472 58.4159C33.5419 61.9736 30.1386 64.5116 27.6536 66.3645C26.2215 67.4324 24.7099 67.9758 23.2053 67.9758ZM16.754 30.2452C16.5879 30.2452 16.4271 30.2561 16.2723 30.2784C15.4351 30.3993 14.832 30.8495 14.4285 31.6549C13.6874 33.1338 13.3644 38.0591 13.6248 43.9107C13.8977 50.0443 14.7077 55.5395 15.7389 58.252C17.2555 62.2415 19.6 65.0413 22.0105 65.7413C23.4558 66.1607 24.9385 65.815 26.4166 64.713C32.7008 60.027 37.8519 55.0588 31.9483 45.8656C31.6571 45.4457 25.2966 36.2857 22.4743 33.2684C20.7543 31.4299 18.4806 30.2452 16.754 30.2452Z" fill="#58595B"/>
<path d="M33.0259 55.4525C31.9398 62.7697 55.4839 66.2491 56.57 58.9321C58.4481 46.2806 56.0954 29.8116 49.0177 28.7656C39.1547 27.308 34.904 42.8011 33.0259 55.4525Z" fill="white"/>
<path d="M47.9405 64.0119C46.627 64.0119 45.2415 63.9082 43.8319 63.6998C40.6165 63.2246 37.6796 62.2643 35.5619 60.9959C32.2196 58.9939 31.7822 56.7941 32.0039 55.3014L33.0259 55.4525L32.0039 55.3014C33.1902 47.3094 34.9033 40.9409 37.0956 36.3728C40.1915 29.9219 44.2539 27.0198 49.1691 27.7457C51.1709 28.0416 52.9051 29.3363 54.3232 31.5936C55.5329 33.5193 56.4883 36.1062 57.1631 39.283C58.4045 45.128 58.5649 52.5299 57.5921 59.083C57.3705 60.5757 56.3129 62.5545 52.5325 63.5039C51.1873 63.8418 49.6229 64.0118 47.9405 64.0119ZM47.7371 29.7004C44.2758 29.7004 41.3955 32.1871 38.9594 37.2634C36.8564 41.6452 35.2041 47.8157 34.0479 55.6035C33.8136 57.1828 35.3203 58.4463 36.6256 59.2282C38.488 60.3438 41.225 61.2303 44.1348 61.6603C49.346 62.431 55.1173 61.683 55.548 58.7811C56.4867 52.4576 56.3348 45.3285 55.1416 39.7106C53.8877 33.8071 51.6006 30.1896 48.8664 29.7855C48.4832 29.7288 48.1067 29.7004 47.7371 29.7004Z" fill="#58595B"/>
<path d="M117.381 60.7163C117.001 68.1649 85.9397 66.5859 86.32 59.1373C86.9777 46.2585 90.524 26.255 103.536 26.9164C116.548 27.5779 118.039 47.8374 117.381 60.7163Z" fill="url(#paint5_linear_2514_3195)"/>
<path d="M104.024 66.6079C103.201 66.6079 102.362 66.5865 101.513 66.5434C97.3403 66.3313 93.4627 65.6194 90.5946 64.5389C86.0659 62.8328 85.2094 60.6317 85.2882 59.0854C85.5913 53.1513 86.5393 44.6015 89.3348 37.5697C90.7939 33.8998 92.6163 31.0504 94.7517 29.1008C97.2733 26.7987 100.244 25.7169 103.589 25.8876C106.931 26.0575 109.779 27.4344 112.053 29.9804C113.979 32.1363 115.502 35.1557 116.579 38.9546C118.644 46.2335 118.717 54.8351 118.413 60.7693C118.335 62.3154 117.258 64.4184 112.579 65.6564C110.219 66.2809 107.245 66.6079 104.024 66.6079ZM102.925 27.9322C97.9236 27.9322 93.9999 31.4269 91.2556 38.3299C88.422 45.4575 87.5935 54.459 87.352 59.1903C87.2682 60.8321 89.8048 62.0373 91.3244 62.6099C93.9589 63.6023 97.7107 64.2856 101.618 64.4841C105.525 64.6831 109.327 64.3837 112.049 63.6634C113.619 63.248 116.266 62.306 116.35 60.6642L117.382 60.7168L116.35 60.6642C116.591 55.9329 116.684 46.8942 114.591 39.516C112.489 32.1068 108.752 28.2143 103.484 27.9464C103.296 27.9371 103.11 27.9322 102.925 27.9322Z" fill="#58595B"/>
<path d="M60.7534 63.9757C63.0007 71.0889 92.6635 61.7589 90.4161 54.6456C86.5305 42.3466 78.0516 23.8782 65.6253 27.7867C53.199 31.6953 56.8678 51.6768 60.7534 63.9757Z" fill="white"/>
<path d="M66.7355 67.5467C65.5831 67.5467 64.546 67.4508 63.6597 67.2546C61.0347 66.6738 60.0945 65.3197 59.7679 64.2861C57.9775 58.6193 55.8774 50.2763 56.0393 42.7132C56.1239 38.766 56.8359 35.4612 58.1557 32.8909C59.7142 29.8559 62.1228 27.8079 65.3146 26.8039C68.5066 25.8002 71.6568 26.0996 74.6779 27.6941C77.2363 29.0446 79.7189 31.3444 82.0569 34.5297C86.5366 40.6329 89.6112 48.6691 91.4015 54.3362C91.728 55.3698 91.736 57.0171 89.9194 58.9949C87.6926 61.4195 83.0801 63.8997 77.5808 65.6294C73.5964 66.8826 69.7668 67.5467 66.7355 67.5467ZM61.7387 63.6663C61.9757 64.4164 62.7726 64.9465 64.1071 65.2418C66.9434 65.869 71.8682 65.2644 76.9596 63.6629C82.0509 62.0614 86.4332 59.739 88.396 57.6019C89.3196 56.5962 89.6677 55.7061 89.4306 54.9559C88.0032 50.4377 84.9305 41.9342 80.3898 35.7478C75.8299 29.5354 70.9667 27.1874 65.9358 28.7703C60.9047 30.3527 58.2701 35.0587 58.1052 42.7572C57.9411 50.4235 60.3112 59.148 61.7387 63.6663Z" fill="#58595B"/>
<defs>
<linearGradient id="paint0_linear_2514_3195" x1="96.4776" y1="81.1585" x2="96.4776" y2="53.2834" gradientUnits="userSpaceOnUse">
<stop offset="0.2465" stop-color="white"/>
<stop offset="0.3294" stop-color="#FAFAFA"/>
<stop offset="0.4299" stop-color="#EBEBEB"/>
<stop offset="0.5395" stop-color="#D3D2D3"/>
<stop offset="0.6557" stop-color="#B2B0B1"/>
<stop offset="0.777" stop-color="#868485"/>
<stop offset="0.9008" stop-color="#524F50"/>
<stop offset="1" stop-color="#231F20"/>
</linearGradient>
<linearGradient id="paint1_linear_2514_3195" x1="118.801" y1="81.5695" x2="110.023" y2="52.9844" gradientUnits="userSpaceOnUse">
<stop offset="0.2465" stop-color="white"/>
<stop offset="0.3294" stop-color="#FAFAFA"/>
<stop offset="0.4299" stop-color="#EBEBEB"/>
<stop offset="0.5395" stop-color="#D3D2D3"/>
<stop offset="0.6557" stop-color="#B2B0B1"/>
<stop offset="0.777" stop-color="#868485"/>
<stop offset="0.9008" stop-color="#524F50"/>
<stop offset="1" stop-color="#231F20"/>
</linearGradient>
<linearGradient id="paint2_linear_2514_3195" x1="79.8175" y1="79.9025" x2="74.1926" y2="52.643" gradientUnits="userSpaceOnUse">
<stop offset="0.2465" stop-color="white"/>
<stop offset="0.3294" stop-color="#FAFAFA"/>
<stop offset="0.4299" stop-color="#EBEBEB"/>
<stop offset="0.5395" stop-color="#D3D2D3"/>
<stop offset="0.6557" stop-color="#B2B0B1"/>
<stop offset="0.777" stop-color="#868485"/>
<stop offset="0.9008" stop-color="#524F50"/>
<stop offset="1" stop-color="#231F20"/>
</linearGradient>
<linearGradient id="paint3_linear_2514_3195" x1="55.1827" y1="79.1546" x2="62.1947" y2="50.0619" gradientUnits="userSpaceOnUse">
<stop offset="0.2465" stop-color="white"/>
<stop offset="0.3294" stop-color="#FAFAFA"/>
<stop offset="0.4299" stop-color="#EBEBEB"/>
<stop offset="0.5395" stop-color="#D3D2D3"/>
<stop offset="0.6557" stop-color="#B2B0B1"/>
<stop offset="0.777" stop-color="#868485"/>
<stop offset="0.9008" stop-color="#524F50"/>
<stop offset="1" stop-color="#231F20"/>
</linearGradient>
<linearGradient id="paint4_linear_2514_3195" x1="24.3057" y1="48.082" x2="47.3601" y2="48.082" gradientUnits="userSpaceOnUse">
<stop stop-color="white"/>
<stop offset="0.1161" stop-color="#FAFAFA"/>
<stop offset="0.2492" stop-color="#EDECEC"/>
<stop offset="0.3905" stop-color="#D6D5D6"/>
<stop offset="0.5378" stop-color="#B7B5B6"/>
<stop offset="0.6897" stop-color="#8E8C8C"/>
<stop offset="0.8448" stop-color="#5C595A"/>
<stop offset="1" stop-color="#231F20"/>
</linearGradient>
<linearGradient id="paint5_linear_2514_3195" x1="69.2066" y1="46.238" x2="100.399" y2="46.238" gradientUnits="userSpaceOnUse">
<stop stop-color="#231F20"/>
<stop offset="0.1552" stop-color="#5C595A"/>
<stop offset="0.3103" stop-color="#8E8C8C"/>
<stop offset="0.4622" stop-color="#B7B5B6"/>
<stop offset="0.6095" stop-color="#D6D5D6"/>
<stop offset="0.7508" stop-color="#EDECEC"/>
<stop offset="0.8839" stop-color="#FAFAFA"/>
<stop offset="1" stop-color="white"/>
</linearGradient>
</defs>
</svg>
