<svg width="64" height="65" viewBox="0 0 64 65" fill="none" xmlns="http://www.w3.org/2000/svg">
<path d="M29.131 64.8701C12.2182 64.8701 0 52.9474 0 35.4188C0 17.8902 12.2182 0.870117 29.131 0.870117C46.0439 0.870117 64 14.2088 64 31.7374C64 49.266 46.0439 64.8701 29.131 64.8701Z" fill="#914BF1"/>
<g filter="url(#filter0_d_2514_4114)">
<path d="M51.1787 23.0247C51.283 20.5773 49.3795 18.5106 46.9318 18.4138L17.5021 17.2491C14.9525 17.1482 12.8459 19.2183 12.9022 21.7693L13.4651 47.2768C13.5201 49.7734 15.6286 51.7301 18.1224 51.599L46.0148 50.1323C48.2932 50.0125 50.1072 48.1803 50.2043 45.9008L51.1787 23.0247Z" fill="#FCEFE8"/>
<path d="M51.4151 21.1056C51.723 19.1967 50.2604 17.4611 48.327 17.4409L15.6388 17.0993C13.7759 17.0798 12.3002 18.6673 12.4553 20.5238L12.7131 23.6084C12.8514 25.2635 14.2467 26.5294 15.9074 26.5063L47.9672 26.0611C49.5021 26.0398 50.7999 24.9189 51.0444 23.4034L51.4151 21.1056Z" fill="#EB433C"/>
<rect x="16.0514" y="15.1609" width="3.67634" height="6.89314" rx="1.83817" transform="rotate(-6.67602 16.0514 15.1609)" fill="white"/>
<rect width="3.67634" height="6.89314" rx="1.83817" transform="matrix(-0.993219 -0.116255 -0.116255 0.993219 45.7039 14.3289)" fill="white"/>
<path d="M25.027 35.8784C24.5062 35.9045 23.978 35.8136 23.4425 35.6058C23.2691 35.5412 23.0775 35.4349 22.8677 35.287C22.4087 34.9668 22.1285 34.5834 22.0269 34.1368C22.0119 34.073 21.9914 34.0139 21.9652 33.9595C21.8622 33.7769 21.7879 33.4374 21.7425 32.941C21.7365 32.8797 21.732 32.8183 21.7289 32.7569C21.6977 32.1336 21.8166 31.5806 22.0857 31.0978C22.3547 30.612 22.8378 30.2123 23.5349 29.8987C23.8128 29.7675 24.0644 29.6962 24.2897 29.6849L24.4394 29.6862C24.5769 29.6793 24.7003 29.654 24.8096 29.6104C24.885 29.592 24.9592 29.5809 25.0324 29.5773C25.1055 29.5736 25.2111 29.5727 25.349 29.5746C25.4868 29.5736 25.6337 29.5779 25.7897 29.5877C25.9455 29.5946 26.0576 29.608 26.1261 29.628C26.1607 29.7319 26.1861 29.8582 26.2023 30.007C26.2051 30.0626 26.2088 30.1651 26.2133 30.3145C26.2177 30.4609 26.1815 30.5874 26.1047 30.6939C26.0873 30.6977 26.0655 30.7003 26.0391 30.7016C25.9748 30.7048 25.8791 30.6979 25.7521 30.6808C25.4536 30.6371 25.1786 30.6215 24.9269 30.6342C24.7338 30.6438 24.5362 30.6801 24.334 30.7431L24.3169 30.7527C24.1202 30.8095 23.9333 30.8834 23.756 30.9745C23.53 31.0885 23.3692 31.2754 23.2737 31.5354C23.2251 31.6787 23.184 31.7643 23.1502 31.7924L23.1543 31.8758C23.1602 31.9929 23.1585 32.1352 23.1494 32.3029C23.1416 32.4411 23.1389 32.5615 23.1411 32.6641C23.1706 32.9618 23.24 33.2326 23.349 33.4765C23.3863 33.5773 23.419 33.6739 23.4471 33.7664C23.5324 33.8296 23.6059 33.8919 23.6677 33.9533C23.7324 34.0146 23.7983 34.0714 23.8654 34.1238C23.9324 34.1732 24.0196 34.2143 24.1268 34.2471C24.2996 34.3 24.6017 34.3274 25.0329 34.3293C25.1004 34.3288 25.1606 34.3302 25.2136 34.3334C25.4105 34.3412 25.575 34.3461 25.7071 34.3483C25.8773 34.3486 26.0023 34.3555 26.0822 34.3691C26.1619 34.3798 26.2146 34.4065 26.2402 34.4492C26.2656 34.489 26.2837 34.557 26.2944 34.6533C26.307 34.7876 26.3258 34.9289 26.3509 35.0772C26.3719 35.2052 26.3869 35.3292 26.3959 35.449C26.3969 35.4695 26.3979 35.4885 26.3987 35.506C26.4014 35.5587 26.3974 35.597 26.3869 35.621C26.3369 35.6763 26.2669 35.7136 26.1769 35.7328C26.0868 35.749 25.9949 35.7595 25.9013 35.7642C25.8106 35.7687 25.7289 35.7772 25.6562 35.7897C25.4474 35.8383 25.2377 35.8678 25.027 35.8784ZM28.293 31.8646C29.0746 31.7727 29.4609 31.4922 29.4521 31.0233C29.4292 30.7429 29.29 30.5401 29.0344 30.4151C28.9416 30.3787 28.8081 30.3472 28.6337 30.3208C28.4593 30.2943 28.3296 30.2832 28.2448 30.2875L28.2793 30.8885C28.2953 31.2075 28.2999 31.5328 28.293 31.8646ZM27.9764 35.7306L27.9194 35.7334C27.7731 35.7408 27.6404 35.7269 27.5213 35.6918C27.4421 35.2821 27.3903 34.8345 27.3659 34.3487C27.3479 33.9888 27.3449 33.6062 27.3568 33.2008C27.3647 32.7721 27.3604 32.3939 27.3439 32.0662L27.2864 31.3563L27.2798 31.2246C27.2608 30.8472 27.2724 30.6398 27.3146 30.6025C27.3068 30.5647 27.3012 30.5122 27.2979 30.4449C27.2955 30.3981 27.2932 30.3234 27.291 30.2209C27.2918 30.1182 27.2943 29.9934 27.2987 29.8465C27.306 29.6994 27.3155 29.5963 27.3272 29.537C27.418 29.4768 27.5805 29.4407 27.8146 29.429C28.1452 29.4124 28.5055 29.4325 28.8956 29.4892C29.2147 29.5348 29.4438 29.5996 29.5829 29.6836C29.7829 29.8114 29.9013 29.8905 29.938 29.921C30.0116 29.9848 30.1103 30.1397 30.2341 30.3857C30.2972 30.5322 30.3342 30.7137 30.345 30.9302C30.3455 30.939 30.3472 31.0034 30.3503 31.1235C30.3534 31.2436 30.3199 31.3656 30.2499 31.4894C30.2291 31.6605 30.1566 31.8534 30.0324 32.0679C29.9083 32.2824 29.7737 32.4358 29.6287 32.5281C29.2406 32.7441 28.8207 32.8825 28.3691 32.9432C28.3513 33.0556 28.3361 33.25 28.3235 33.5263C28.2964 34.0968 28.291 34.5444 28.3072 34.8692L28.3187 35.0094C28.3228 35.0913 28.3248 35.1602 28.3246 35.2159L28.3279 35.2817C28.3336 35.3959 28.3582 35.5061 28.4017 35.6124C28.2904 35.6738 28.1486 35.7131 27.9764 35.7306ZM33.303 34.4648C34.017 34.429 34.4101 34.0793 34.4825 33.4156C34.4893 33.3185 34.5 33.2094 34.5145 33.0884C34.5529 32.7433 34.5685 32.499 34.5613 32.3557C34.5184 31.4983 34.1982 30.7297 33.6009 30.0498C33.5477 30.0407 33.5015 30.0269 33.4625 30.0083C33.4023 29.9791 33.3386 29.9661 33.2713 29.9695C33.2186 29.9721 33.1491 29.9903 33.0628 30.0239C32.8099 30.1276 32.6468 30.2105 32.5737 30.2729C32.3847 30.4818 32.242 30.7955 32.1457 31.2139C32.0493 31.6324 32.0081 31.9806 32.022 32.2585L32.0511 32.7499C32.0643 33.0132 32.068 33.2638 32.0623 33.5017C32.0897 33.5209 32.1505 33.622 32.2447 33.805C32.3529 34.0313 32.4427 34.1837 32.5141 34.2623C32.6373 34.3793 32.8489 34.4464 33.149 34.4637C33.2019 34.4669 33.2533 34.4672 33.303 34.4648ZM32.9426 35.6136C32.3516 35.6433 31.8926 35.4404 31.5657 35.005C31.4584 34.855 31.3422 34.6129 31.2169 34.2789C31.0916 33.9449 30.9944 33.6139 30.9251 33.2859C30.8976 33.1465 30.8812 33.0241 30.8759 32.9188C30.8689 32.7783 30.8825 32.6706 30.9169 32.5955C30.9055 32.5433 30.898 32.4821 30.8945 32.4119C30.8867 32.2568 30.9015 32.0258 30.939 31.7188C30.9764 31.4119 31.0452 31.0872 31.1453 30.7449C31.2484 30.4024 31.3635 30.181 31.4905 30.0808C31.5476 29.8755 31.741 29.6663 32.0706 29.4533C32.4001 29.2373 32.7205 29.1054 33.032 29.0575L33.2725 29.0278C33.3598 29.0146 33.4357 29.0064 33.5001 29.0032C33.5617 29.0031 33.6297 29.0143 33.7042 29.037C33.883 29.0926 34.0691 29.1771 34.2625 29.2906C34.5256 29.4476 34.6758 29.5764 34.7131 29.6772C34.8314 29.7564 34.9351 29.8934 35.0241 30.0884C35.1158 30.2804 35.1925 30.4643 35.2541 30.6401C35.3156 30.813 35.3603 30.9149 35.3883 30.9458C35.4221 31.0937 35.4602 31.2399 35.5027 31.3845C35.5969 31.6848 35.6536 31.9958 35.6726 32.3176C35.6691 32.3647 35.6629 32.4163 35.654 32.4725C35.6449 32.5257 35.6384 32.5701 35.6343 32.6055C35.6372 32.664 35.6437 32.7062 35.6538 32.7321C35.6667 32.7549 35.6774 32.794 35.6861 32.8493C35.6889 32.9635 35.6726 33.0773 35.6372 33.1905C35.6199 33.2559 35.6055 33.3197 35.594 33.3819C35.5484 33.701 35.4356 34.0264 35.2557 34.3581C35.0787 34.6896 34.8491 34.9358 34.5667 35.0966C34.3468 35.2748 34.0442 35.4103 33.6587 35.5029C33.4007 35.5657 33.1621 35.6026 32.9426 35.6136ZM39.739 35.141C39.382 35.1589 39.1564 35.1643 39.0622 35.1573C39.0076 35.0632 38.9437 34.9286 38.8704 34.7533C38.8106 34.6155 38.7414 34.462 38.6625 34.2929C38.6076 34.193 38.4908 33.9994 38.3122 33.7121C38.0951 33.3621 37.9048 33.0461 37.741 32.7639L37.7415 33.1247C37.7566 33.1914 37.7682 33.3052 37.7762 33.4661C37.7902 33.7441 37.7974 34.0063 37.798 34.2526C37.8044 34.8478 37.7956 35.1694 37.7716 35.2176C37.6552 35.2351 37.5223 35.2477 37.3731 35.2552C37.1244 35.2676 36.9338 35.2698 36.8014 35.2618C36.7377 34.869 36.696 34.4751 36.6762 34.0801C36.6721 33.9981 36.6641 33.6348 36.6523 32.9901C36.6504 32.6 36.6276 31.9705 36.5841 31.1015C36.5647 30.7152 36.5585 30.4163 36.5655 30.2048C36.5692 30.1019 36.5645 29.9203 36.5514 29.6599C36.537 29.3731 36.5374 29.1751 36.5524 29.0658L36.8825 28.9789C36.9562 28.9869 37.0267 28.9892 37.094 28.9859C37.1204 28.9845 37.1466 28.9818 37.1728 28.9775C37.199 28.9733 37.2282 28.9703 37.2604 28.9687C37.3511 28.9642 37.4528 28.9752 37.5656 29.0018C37.5856 29.0478 37.5989 29.1087 37.6056 29.1846L37.619 29.5404C37.6227 29.6135 37.6301 29.6733 37.6412 29.7197C37.6474 29.7839 37.6522 29.8511 37.6557 29.9213C37.6629 30.0647 37.665 30.223 37.6619 30.3962C37.6602 30.5371 37.6608 30.6661 37.6637 30.7833C37.6797 30.8089 37.6904 30.8465 37.6958 30.8961C37.7085 30.9747 37.7229 31.1734 37.7389 31.4924C37.8644 31.2455 38.0114 30.9008 38.1799 30.4583C38.3276 30.0695 38.465 29.7385 38.5921 29.4652C38.6845 29.2611 38.7378 29.1235 38.7518 29.0524L38.7702 28.9811C38.7863 28.9509 38.8483 28.9302 38.9563 28.9189C39.0265 28.9154 39.0913 28.921 39.1507 28.9356C39.1763 28.9196 39.2563 28.9054 39.3906 28.8928C39.5135 28.8866 39.669 28.8876 39.8572 28.8958C39.856 28.9897 39.8353 29.0743 39.7951 29.1497C39.7549 29.225 39.7004 29.3099 39.6318 29.4043C39.5773 29.4862 39.5329 29.5662 39.4987 29.6441C39.4491 29.7669 39.3922 29.8607 39.328 29.9255C39.2627 30.1458 39.1544 30.4431 39.0031 30.8174C38.7335 31.4675 38.5947 31.8866 38.5865 32.0747C38.6184 32.1259 38.7445 32.3601 38.9649 32.7773C39.2014 33.2231 39.3269 33.4749 39.3416 33.5329C39.3754 33.5634 39.5186 33.8159 39.7711 34.2901C40.0265 34.7613 40.1619 35.0332 40.1772 35.1058C40.0519 35.1209 39.9058 35.1326 39.739 35.141ZM15.7232 46.4585C15.7027 46.4595 15.6821 46.4576 15.6613 46.4528C15.6407 46.4509 15.6216 46.4504 15.6041 46.4513C15.5953 46.4517 15.5866 46.4551 15.5782 46.4614L15.5867 46.2806C15.5939 46.1893 15.5887 45.9695 15.5713 45.6213C15.5768 45.5565 15.5907 45.5118 15.6129 45.4872C15.6615 45.4613 15.7588 45.4418 15.9048 45.4286L16.0619 45.4031C16.2164 45.3836 16.3756 45.2818 16.5394 45.0976C16.5498 45.0707 16.5643 45.0391 16.5831 45.003C16.8219 44.6185 16.9348 43.9734 16.9217 43.0676C16.9178 42.6395 16.933 42.2706 16.9674 41.9609C17.0017 41.6512 17.028 41.4724 17.0461 41.4245C17.0225 41.2468 17.0066 41.0745 16.9982 40.9077C16.9869 40.6824 16.9892 40.4653 17.0051 40.2562L17.0113 40.0271L17.2307 40.0161C17.257 40.0148 17.2862 40.0104 17.3181 40.0029C17.3499 39.9954 17.3849 39.9907 17.4229 39.9888L17.4754 39.9818C17.6363 39.9737 17.8412 39.9649 18.0901 39.9554C18.3388 39.9429 18.5525 39.9337 18.7311 39.9277L19.1086 39.9088L19.2971 39.8949C19.3731 39.8911 19.4393 39.8936 19.4954 39.9026C19.5544 39.9084 19.6234 39.9093 19.7024 39.9054C19.8131 40.9441 19.8949 41.9902 19.9477 43.0435L19.9741 43.5702C19.9882 43.7924 20.0102 44.0861 20.0403 44.4513C20.0779 44.91 20.1039 45.2812 20.1181 45.565C20.1294 45.7903 20.146 45.9758 20.168 46.1213L19.1629 46.1717L19.1273 45.5487C19.1227 45.458 19.1104 45.3002 19.0903 45.0753C19.0426 44.5321 19.0166 44.2181 19.0123 44.1332C19.0083 44.0542 19.0075 43.978 19.0096 43.9046C19.0133 43.8017 19.0124 43.6961 19.007 43.5879L18.9949 43.4345C18.9887 43.3116 18.9898 43.1869 18.9981 43.0603C19.0064 42.9338 19.0079 42.8164 19.0025 42.7081L18.803 40.9229L18.7984 40.9187L18.7367 40.9174C18.6103 40.912 18.5017 40.9116 18.411 40.9161L18.3584 40.9188C18.2623 40.9324 18.1383 40.9459 17.9864 40.9594C17.9739 41.2358 17.9647 41.3756 17.959 41.3788L17.9102 42.424C17.8971 42.806 17.8685 43.202 17.8246 43.612C17.8034 43.7157 17.7827 43.8605 17.7627 44.0463C17.7367 44.4054 17.6777 44.7487 17.5855 45.0759C17.4232 45.5241 17.2294 45.8418 17.0041 46.0291C16.8862 46.1347 16.7612 46.2158 16.6291 46.2723C16.4998 46.3257 16.4073 46.3538 16.3517 46.3566C16.2803 46.3954 16.0927 46.4268 15.7888 46.4508C15.7596 46.4523 15.7377 46.4549 15.7232 46.4585ZM23.219 45.9816L23.0698 45.9891C22.9498 45.9951 22.7184 46.0008 22.3754 46.0063L22.375 45.9975L21.9539 46.023L21.6512 46.0426C21.4347 46.0534 21.2397 46.0544 21.0662 46.0455C21.0479 45.9144 21.0206 45.6342 20.9844 45.2048C20.9143 44.3899 20.8635 43.6694 20.8321 43.0432C20.7915 42.2327 20.7932 41.7706 20.8374 41.6569C20.8089 41.5557 20.7887 41.388 20.777 41.1539C20.7565 40.7443 20.7518 40.3295 20.763 39.9094C20.8356 39.8354 21.1308 39.7854 21.6487 39.7594C21.8652 39.7486 22.0966 39.7414 22.3428 39.7378C22.4484 39.7384 22.5598 39.7358 22.6768 39.7299C22.7763 39.7249 22.8815 39.7167 22.9924 39.7053C23.1061 39.6908 23.217 39.6808 23.3253 39.6754C23.6296 39.6601 23.9078 39.6799 24.1599 39.7348C24.1982 39.856 24.2217 40.0015 24.2302 40.1712C24.234 40.2473 24.2316 40.3178 24.2232 40.3828C24.208 40.4892 24.1638 40.5442 24.0906 40.5478L23.1863 40.5888L22.2861 40.6251C22.0023 40.6393 21.8122 40.6518 21.716 40.6625L21.7283 40.9963L21.7422 41.2728L21.7516 41.5495C21.7519 41.79 21.7577 42.0215 21.7688 42.2438C21.7735 42.3375 21.7803 42.4134 21.789 42.4716C21.8343 42.4958 22.1056 42.4954 22.603 42.4704C22.9073 42.4552 23.2031 42.4462 23.4905 42.4435C23.7778 42.4409 23.9784 42.4631 24.0922 42.5102C24.1486 42.698 24.1797 42.8519 24.1857 42.9719C24.1923 43.1036 24.1676 43.1943 24.1114 43.244C24.0186 43.3249 23.7704 43.3755 23.3666 43.3958L23.1513 43.4021L22.6775 43.4303L21.8585 43.5066L21.8905 44.847C22.1651 44.8831 22.7033 44.881 23.505 44.8408C24.0785 44.8121 24.3866 44.8128 24.4291 44.8429C24.4814 44.9488 24.5097 45.075 24.5141 45.2215C24.5216 45.3707 24.5152 45.5059 24.4948 45.6272C24.4775 45.7484 24.4299 45.8241 24.3522 45.8544C24.2889 45.8781 24.2162 45.892 24.1343 45.8961L23.9368 45.906L23.219 45.9816ZM25.8483 39.3597C26.042 39.4204 26.1407 39.4873 26.1444 39.5605L26.2229 41.1274C26.2456 41.5809 26.4537 41.9283 26.8472 42.1697L26.9876 42.1626C27.6899 42.1274 28.0484 41.2045 28.0632 39.3939C28.2164 39.2894 28.3574 39.234 28.4861 39.2275L28.7012 39.2167C28.9865 39.2318 29.132 39.2963 29.1377 39.4104C29.3498 43.6415 29.3373 45.7629 29.1003 45.7748L28.2444 45.8177C28.1479 45.8225 28.0972 45.7767 28.0923 45.6801L28.0673 45.1798C28.0435 44.7057 28.0327 43.992 28.0347 43.0386C27.5843 43.2987 27.2801 43.4328 27.1221 43.4407L27.0519 43.4442C26.2794 43.483 25.7639 43.1759 25.5053 42.5229C25.2266 41.7038 25.0593 40.7354 25.0032 39.6177C24.9978 39.5094 25.2795 39.4234 25.8483 39.3597ZM32.4359 45.5196L32.2867 45.5271C32.1667 45.5331 31.9353 45.5388 31.5924 45.5443L31.5919 45.5355L31.1708 45.561L30.8682 45.5806C30.6517 45.5914 30.4566 45.5924 30.2831 45.5835C30.2648 45.4524 30.2376 45.1722 30.2014 44.7428C30.1312 43.9279 30.0804 43.2074 30.049 42.5812C30.0084 41.7707 30.0102 41.3086 30.0543 41.1949C30.0258 41.0937 30.0057 40.926 29.9939 40.6919C29.9734 40.2823 29.9687 39.8675 29.9799 39.4474C30.0525 39.3734 30.3477 39.3234 30.8656 39.2974C31.0822 39.2866 31.3135 39.2794 31.5598 39.2758C31.6654 39.2764 31.7767 39.2738 31.8938 39.2679C31.9933 39.2629 32.0984 39.2547 32.2093 39.2433C32.323 39.2288 32.434 39.2188 32.5422 39.2134C32.8465 39.1981 33.1247 39.2179 33.3768 39.2728C33.4152 39.394 33.4386 39.5395 33.4471 39.7092C33.4509 39.7853 33.4486 39.8558 33.4401 39.9208C33.4249 40.0272 33.3807 40.0822 33.3076 40.0858L32.4032 40.1268L31.503 40.1631C31.2192 40.1773 31.0292 40.1898 30.9329 40.2005L30.9452 40.5342L30.9591 40.8108L30.9686 41.0875C30.9689 41.328 30.9746 41.5595 30.9858 41.7818C30.9905 41.8755 30.9972 41.9514 31.006 42.0096C31.0512 42.0338 31.3225 42.0334 31.8199 42.0084C32.1242 41.9932 32.4201 41.9842 32.7074 41.9815C32.9947 41.9789 33.1953 42.0011 33.3091 42.0482C33.3655 42.236 33.3967 42.3899 33.4027 42.5099C33.4093 42.6416 33.3845 42.7323 33.3283 42.782C33.2356 42.8629 32.9873 42.9135 32.5835 42.9338L32.3682 42.9401L31.8945 42.9683L31.0755 43.0445L31.1075 44.385C31.3821 44.4211 31.9202 44.419 32.722 44.3788C33.2955 44.3501 33.6035 44.3508 33.6461 44.3809C33.6983 44.4868 33.7266 44.613 33.7311 44.7595C33.7385 44.9087 33.7321 45.0439 33.7118 45.1652C33.6944 45.2864 33.6469 45.3621 33.5692 45.3924C33.5058 45.4161 33.4332 45.43 33.3513 45.4341L33.1538 45.444L32.4359 45.5196ZM37.7423 45.2536L37.6808 45.2567C37.6077 45.2603 37.5606 45.2583 37.5397 45.2506L37.4499 45.2155L37.1226 42.6358L36.9337 42.6409C36.8167 42.6468 36.7131 42.6593 36.6232 42.6785C36.4808 42.7061 36.3716 42.7219 36.2955 42.7257C36.1756 42.7317 36.0406 42.7311 35.8906 42.724L35.5516 42.719C35.5543 42.9476 35.5587 43.1528 35.5648 43.3343C35.5778 43.7091 35.5777 44.1477 35.5648 44.6499C35.5641 44.694 35.5649 44.7409 35.5674 44.7906L35.5918 45.1018C35.5965 45.1954 35.5949 45.2791 35.5868 45.3528C35.5102 45.345 35.4221 45.3435 35.3226 45.3485L35.1692 45.3606C35.0936 45.3732 35.0279 45.3809 34.9724 45.3836C34.9285 45.3858 34.8857 45.3807 34.844 45.3681C34.7872 45.3475 34.7537 45.2347 34.7434 45.0299C34.7383 44.9275 34.739 44.7955 34.7456 44.6338C34.6136 43.1708 34.5412 42.3414 34.5284 42.1455C34.4886 41.5843 34.4576 41.0842 34.4356 40.6453C34.4059 40.0513 34.4038 39.717 34.4294 39.6424L34.4155 39.3659C34.4104 39.2635 34.4217 39.1969 34.4495 39.1662C34.4802 39.1353 34.6316 39.1131 34.9038 39.0994C35.0735 39.0909 35.197 39.0979 35.2744 39.1204C35.3638 39.1482 35.4117 39.225 35.418 39.3508L35.4213 39.4167C35.4188 39.5429 35.4207 39.669 35.427 39.7948C35.4322 39.8972 35.4403 40.0009 35.4514 40.106L35.4692 40.3735C35.477 40.5286 35.4788 40.681 35.4745 40.8308C35.469 40.9543 35.4736 41.1623 35.4882 41.4549C35.4951 41.5925 35.5051 41.7034 35.5181 41.7878C35.8733 41.7935 36.2265 41.7875 36.5776 41.7699C36.7356 41.762 36.895 41.7511 37.0556 41.7372C37.0543 41.6522 37.0508 41.5541 37.0452 41.4429L37.0215 41.0569C37.0074 40.8933 36.9962 40.7281 36.9879 40.5614C36.9769 40.3419 36.968 40.0784 36.9614 39.7707C36.9547 39.4601 36.9791 39.2154 37.0346 39.0366C37.1119 38.9975 37.2105 38.975 37.3304 38.969C37.4914 38.9609 37.6357 38.9727 37.7634 39.0045L37.9085 40.9332C37.9681 41.4201 38.0088 41.8815 38.0307 42.3175C38.0407 42.5165 38.0452 42.6937 38.0442 42.8492C38.0911 42.9085 38.134 43.1498 38.1728 43.5732C38.1894 43.7865 38.2003 43.9458 38.2056 44.0512C38.209 44.1185 38.2078 44.1831 38.2021 44.2449C38.1993 44.3067 38.1982 44.3713 38.1986 44.4387C38.2041 44.547 38.2191 44.6709 38.2437 44.8105C38.2564 44.889 38.2658 44.9604 38.272 45.0246L38.3012 45.1684C38.2178 45.2019 38.0315 45.2303 37.7423 45.2536ZM39.2345 45.1788C39.1906 45.181 39.145 45.1774 39.0976 45.1681C39.0531 45.1586 39.0244 45.1131 39.0116 45.0316C39.0368 44.8924 39.0488 44.751 39.0475 44.6074L39.0554 44.4134C39.0482 44.27 39.0397 44.1311 39.0301 43.9966C39.0107 43.7277 38.9943 43.4587 38.9808 43.1895C38.9519 42.6131 38.9374 42.0315 38.9374 41.4449C38.9399 40.7935 38.9292 40.2279 38.9051 39.7481C38.8894 39.435 38.8675 39.1735 38.8394 38.9637L38.9083 38.9339C38.9317 38.9327 38.9463 38.9305 38.952 38.9273C38.9577 38.9241 38.962 38.9224 38.9649 38.9222C38.9643 38.9105 38.9962 38.9031 39.0606 38.8999C39.1747 38.8941 39.2477 38.8875 39.2796 38.8801C39.3144 38.8725 39.3479 38.8678 39.3801 38.8662C39.4269 38.8639 39.483 38.8713 39.5484 38.8886L39.6283 38.9022L39.7293 38.8971C39.7702 38.8951 39.8158 38.8972 39.866 38.9035L39.8649 39.0575C39.8379 39.3376 39.8327 39.6444 39.8494 39.9779L39.8815 40.4427C39.8927 40.6651 39.8959 40.8761 39.8913 41.0758L39.8526 42.147C39.8529 42.1528 39.8516 42.1573 39.8488 42.1604C39.8488 42.1604 39.8476 42.1648 39.8451 42.1738C39.8622 42.2228 39.8724 42.2795 39.8756 42.3438C39.8809 42.4492 39.8733 42.7649 39.8527 43.291C39.8787 43.2252 39.92 43.1116 39.9764 42.9504L40.4384 41.6336C40.6467 41.0482 40.7718 40.7354 40.8138 40.6952C40.8324 40.5975 40.8665 40.4887 40.9163 40.3689C40.9525 40.2732 40.9959 40.1434 41.0463 39.9795C41.1038 39.7801 41.1547 39.6544 41.199 39.6023L41.1982 39.5847C41.1957 39.535 41.212 39.4506 41.2471 39.3315C41.2845 39.2005 41.3149 39.1345 41.3383 39.1333L41.3427 39.1331C41.3562 39.0503 41.3834 38.98 41.4245 38.9222C41.4655 38.8614 41.5226 38.8292 41.5957 38.8256L41.6177 38.8245C41.7752 38.8078 41.9769 38.7933 42.2227 38.781C42.3339 38.7754 42.4042 38.7748 42.4338 38.7792L42.4501 39.192C42.4665 39.2263 42.4833 39.4162 42.5006 39.7614C42.5055 39.858 42.5106 39.9897 42.516 40.1567C42.5215 40.3236 42.5241 40.4936 42.524 40.6667C42.5267 40.8367 42.5256 40.9321 42.5207 40.9528L42.5476 41.3123C42.5952 41.6766 42.6297 42.0738 42.6513 42.5039C42.6729 42.934 42.6871 43.3352 42.694 43.7074L42.7143 44.1112C42.7348 44.5208 42.7266 44.7955 42.6896 44.9352C42.6546 44.9399 42.6198 44.9475 42.5851 44.9581C42.5532 44.9655 42.4921 44.9745 42.4016 44.9848L42.1519 45.0062C42.0817 45.0097 42.017 45.0071 41.9579 44.9983C41.8691 44.9822 41.8221 44.923 41.817 44.8206L41.8159 44.7986C41.8187 44.6195 41.8125 44.262 41.7973 43.7259L41.7499 41.9903C41.7411 41.6974 41.7373 41.3294 41.7386 40.8864C41.6802 41.0096 41.5991 41.2044 41.4951 41.4707C41.2298 42.1469 41.0724 42.6065 41.023 42.8495C41.0158 42.8822 40.9742 43.0177 40.8982 43.2562C40.7989 43.5574 40.7315 43.7339 40.6959 43.7855L40.5748 44.0908C40.4191 44.4946 40.3379 44.7187 40.3313 44.763C40.2984 44.8087 40.2772 44.8537 40.2677 44.8982C40.2364 44.976 40.2025 45.032 40.1661 45.0661C40.1449 45.1112 40.0567 45.1376 39.9017 45.1454C39.8197 45.1495 39.7347 45.1508 39.6467 45.1493L39.4884 45.1529C39.4445 45.1551 39.4095 45.1583 39.3833 45.1625C39.3339 45.1709 39.2843 45.1763 39.2345 45.1788ZM46.4288 44.9194L46.3057 44.9212C46.0998 44.9109 45.9271 44.8888 45.7876 44.8547C45.7336 44.7137 45.6949 44.4106 45.6716 43.9453C45.6516 43.5474 45.6571 43.2186 45.6881 42.9589C45.693 42.9381 45.6951 42.9233 45.6947 42.9146C45.6943 42.9058 45.6924 42.8985 45.6892 42.8928C45.6859 42.8842 45.6811 42.8771 45.675 42.8716C45.6687 42.8631 45.6608 42.8532 45.6515 42.8419L45.5446 43.0805C45.1645 43.9238 44.9479 44.3717 44.8948 44.4243C44.8658 44.4903 44.8321 44.5785 44.7936 44.6889C44.7477 44.8262 44.7164 44.904 44.6997 44.9225C44.6244 44.9409 44.4638 44.9563 44.2181 44.9686C43.8113 44.989 43.5732 44.9789 43.5037 44.9384C43.4973 44.927 43.4937 44.914 43.493 44.8993C43.4881 44.8028 43.5704 44.6007 43.7398 44.293C43.9334 43.943 44.0618 43.7532 44.1248 43.7237C44.1279 43.6678 44.1958 43.5294 44.3284 43.3086C44.4611 43.0879 44.6048 42.8533 44.7596 42.605L44.9961 42.2324C44.9038 42.2047 44.7971 42.1822 44.6759 42.1648C44.5546 42.1445 44.4314 42.1155 44.3063 42.0777C44.2199 42.0498 44.1197 42.0123 44.0059 41.9652C43.8921 41.9181 43.8047 41.8712 43.7436 41.8243C43.5515 41.7372 43.4078 41.5904 43.3124 41.384C43.2139 41.1748 43.1608 40.9941 43.1532 40.8419C43.1494 40.7659 43.1544 40.6908 43.1683 40.6168C43.143 40.5799 43.1289 40.5322 43.1259 40.4737C43.1105 40.1665 43.1631 39.869 43.2836 39.5814C43.3753 39.3626 43.5083 39.2064 43.6825 39.1126C43.7188 39.0169 43.8112 38.9287 43.9596 38.8479C44.1109 38.764 44.2733 38.6972 44.4468 38.6475C44.6202 38.5948 44.7595 38.5658 44.8649 38.5605L45.1368 38.5425C45.6605 38.5162 46.1802 38.5268 46.696 38.5743L46.703 38.7148C46.7118 38.8903 46.7183 39.1951 46.7224 39.629C46.7252 39.6846 46.7254 39.7477 46.7231 39.8182C46.7168 39.9857 46.7172 40.1397 46.7243 40.2801C46.7304 40.403 46.746 40.5078 46.7708 40.5946C46.7441 40.9978 46.7522 41.6281 46.7952 42.4854L46.8027 42.6346C46.8237 43.053 46.8226 43.4711 46.7996 43.8888C46.7953 43.9799 46.7931 44.1121 46.793 44.2851C46.7939 44.596 46.7881 44.7723 46.7755 44.814C46.6878 44.8771 46.5722 44.9122 46.4288 44.9194ZM45.3425 41.3306L45.5661 41.315C45.5627 41.189 45.565 41.0877 45.5729 41.011C45.5765 40.9082 45.577 40.8304 45.5744 40.7778C45.5713 40.7163 45.5617 40.642 45.5456 40.5548C45.5406 40.514 45.5366 40.4629 45.5335 40.4014C45.5249 40.2288 45.5279 39.9954 45.5424 39.7014C45.549 39.5397 45.5576 39.419 45.5683 39.3393L45.4276 39.3419C44.7342 39.3767 44.3189 39.6072 44.1819 40.0336C44.1462 40.1996 44.1314 40.3441 44.1376 40.467C44.1442 40.5987 44.197 40.7456 44.2961 40.9078C44.4051 41.093 44.5549 41.2131 44.7454 41.2681C44.9357 41.3202 45.1348 41.341 45.3425 41.3306Z" fill="#284795"/>
</g>
<defs>
<filter id="filter0_d_2514_4114" x="9.91496" y="14.1025" width="44.0703" height="42.5612" filterUnits="userSpaceOnUse" color-interpolation-filters="sRGB">
<feFlood flood-opacity="0" result="BackgroundImageFix"/>
<feColorMatrix in="SourceAlpha" type="matrix" values="0 0 0 0 0 0 0 0 0 0 0 0 0 0 0 0 0 0 127 0" result="hardAlpha"/>
<feOffset dy="2.52914"/>
<feGaussianBlur stdDeviation="1.26457"/>
<feComposite in2="hardAlpha" operator="out"/>
<feColorMatrix type="matrix" values="0 0 0 0 0 0 0 0 0 0 0 0 0 0 0 0 0 0 0.1 0"/>
<feBlend mode="normal" in2="BackgroundImageFix" result="effect1_dropShadow_2514_4114"/>
<feBlend mode="normal" in="SourceGraphic" in2="effect1_dropShadow_2514_4114" result="shape"/>
</filter>
</defs>
</svg>
