<svg width="1657" height="690" viewBox="0 0 1657 690" fill="none" xmlns="http://www.w3.org/2000/svg">
<mask id="mask0_2281_3356" style="mask-type:alpha" maskUnits="userSpaceOnUse" x="0" y="0" width="1657" height="690">
<rect width="1657" height="690" fill="#FFF9F5"/>
</mask>
<g mask="url(#mask0_2281_3356)">
<path fill-rule="evenodd" clip-rule="evenodd" d="M1502.17 70.2335C1497.92 73.7262 1500.94 82.7491 1501.56 88.4201C1500.57 136.056 1428.39 9.76047 1483.01 31.6982L1488.72 30.3146L1494.11 27.9566C1524.3 -22.5634 1543.29 121.659 1513.68 84.3352C1510.73 79.4477 1507.68 70.4369 1502.17 70.2335L1502.17 70.2335Z" fill="#FFDDF6"/>
<path fill-rule="evenodd" clip-rule="evenodd" d="M145.84 607.75C147.576 610.261 144.589 614.609 143.395 617.538C136.65 643.077 194.393 586.778 161.937 590.136L159.102 588.527L156.59 586.448C148.206 554.914 116.078 628.885 137.558 613.511C139.872 611.355 142.876 607.019 145.84 607.75L145.84 607.75Z" fill="#FFF2D7"/>
<path fill-rule="evenodd" clip-rule="evenodd" d="M377.002 122.24C379.871 124.636 377.768 130.742 377.316 134.587C377.705 166.923 427.431 81.6278 390.237 96.1983L386.366 95.2259L382.723 93.5941C362.525 59.1303 348.796 156.902 369.114 131.744C371.139 128.444 373.266 122.346 377.002 122.24L377.002 122.24Z" fill="#F3D78D"/>
<path fill-rule="evenodd" clip-rule="evenodd" d="M91.1987 359.199C88.6322 360.355 85.1858 356.922 82.7284 355.352C60.6876 344.983 102.139 406.726 104.495 376.73L106.427 374.427L108.73 372.495C138.726 370.139 76.9834 328.688 87.352 350.728C88.9225 353.186 92.3554 356.632 91.1987 359.199L91.1987 359.199Z" fill="#EDDFF5"/>
<path fill-rule="evenodd" clip-rule="evenodd" d="M111.806 187.228C116.354 192.793 110.166 203.56 107.917 210.657C96.9124 271.858 221.776 128.846 146.252 142.857L139.295 139.616L133.01 135.212C107.381 62.8003 45.961 242.442 93.4608 202.31C98.4824 196.814 104.713 186.072 111.806 187.228L111.806 187.228Z" fill="white"/>
<path fill-rule="evenodd" clip-rule="evenodd" d="M1473.2 581.915C1471.46 584.426 1474.45 588.774 1475.64 591.703C1482.39 617.241 1424.65 560.942 1457.1 564.301L1459.94 562.692L1462.45 560.613C1470.83 529.079 1502.96 603.05 1481.48 587.676C1479.17 585.52 1476.16 581.184 1473.2 581.915L1473.2 581.915Z" fill="#FFF2D7"/>
<path fill-rule="evenodd" clip-rule="evenodd" d="M1541.43 366.992C1545.17 370.795 1541.33 379.177 1540.15 384.578C1536.21 430.573 1618.72 316.31 1563.85 331.835L1558.49 329.915L1553.54 327.089C1529.64 275.314 1496.53 412.313 1528.9 379.397C1532.23 374.99 1536.1 366.623 1541.43 366.992L1541.43 366.992Z" fill="#EDDFF5"/>
<path fill-rule="evenodd" clip-rule="evenodd" d="M1314.81 236.228C1319.35 241.793 1313.17 252.56 1310.92 259.657C1299.91 320.858 1424.78 177.846 1349.25 191.857L1342.3 188.616L1336.01 184.212C1310.38 111.8 1248.96 291.442 1296.46 251.31C1301.48 245.814 1307.71 235.072 1314.81 236.228L1314.81 236.228Z" fill="white"/>
</g>
</svg>
