<svg width="55" height="23" viewBox="0 0 55 23" fill="none" xmlns="http://www.w3.org/2000/svg"><path d="M43.994 17.93c-1.92-.713-3.167-1.123-3.345-.836-.178.288.756 1.176 2.529 2.294a31.453 31.453 0 003.248 1.754 39.61 39.61 0 002.02.876l1.108.42a2.603 2.603 0 002.158.015c.315-.168.575-.421.753-.73a3.33 3.33 0 00.22-.487l.124-.374c.11-.342.227-.674.334-1 .197-.653.391-1.29.572-1.894.362-1.218.644-2.321.852-3.29.406-1.881.525-3.089.157-3.203-.368-.114-1.017.918-1.872 2.653a73.57 73.57 0 00-1.385 3.088c-.215.556-.445 1.144-.685 1.747a17.378 17.378 0 00-1.206-3.434 22.874 22.874 0 00-2.27-3.82 26.415 26.415 0 00-4.221-4.686A27.863 27.863 0 0027.002.355a29.76 29.76 0 00-9.688.834 27.162 27.162 0 00-8.382 3.728c-.597.402-1.173.835-1.726 1.295-.272.229-.54.44-.812.721-.271.28-.523.495-.744.732a17.897 17.897 0 00-2.254 3.13 21.233 21.233 0 00-2.418 5.918c-.795 3.514-.314 5.743-.113 5.726.201-.018.223-2.17 1.333-5.407a22.92 22.92 0 012.633-5.358 17.462 17.462 0 012.245-2.727c.214-.214.438-.416.672-.607.239-.192.511-.377.769-.574.507-.403 1.082-.743 1.643-1.112A26.04 26.04 0 0118 3.53a27.96 27.96 0 018.764-.51 25.584 25.584 0 0114.164 6.11 26.44 26.44 0 016.022 7.464 57.356 57.356 0 011.438 2.984l-1.064-.378-3.351-1.249" fill="#fff"/></svg>