<svg xmlns="http://www.w3.org/2000/svg" width="56" height="113" fill="none"><path fill="#3578F7" d="M24.886 91.716c.812-4.287 1.227-7.054.56-7.326-.668-.271-2.202 2.008-3.917 6.132a67.052 67.052 0 00-2.526 7.452 84.3 84.3 0 00-1.119 4.559l-.487 2.478a5.544 5.544 0 00.74 4.54 4.076 4.076 0 001.805 1.32c.358.126.726.223 1.1.29l.83.126c.758.109 1.498.235 2.22.344 1.444.181 2.851.362 4.186.524a93.66 93.66 0 007.218.615c4.097.181 6.677 0 6.785-.814.108-.814-2.291-1.808-6.243-2.984-1.985-.579-4.35-1.176-6.984-1.809a375.755 375.755 0 01-3.915-.814 37.07 37.07 0 006.785-3.762 48.792 48.792 0 007.217-6.132 56.304 56.304 0 008.337-10.545 59.388 59.388 0 008.265-36.176 63.427 63.427 0 00-5.215-20.06A57.89 57.89 0 0039.7 13.395a45.629 45.629 0 00-3.339-3.165c-.577-.489-1.118-.977-1.804-1.447-.686-.47-1.227-.923-1.804-1.303a38.145 38.145 0 00-7.38-3.617 45.255 45.255 0 00-13.3-2.967C4.404.48-.106 2.29.002 2.705c.108.416 4.637-.308 11.837.868a48.85 48.85 0 0112.199 3.618 37.227 37.227 0 016.532 3.744c.525.372 1.031.77 1.516 1.194.487.434.974.94 1.48 1.41 1.028.923 1.948 2.008 2.923 3.057a55.504 55.504 0 019.365 15.357 59.593 59.593 0 014.205 18.233 54.53 54.53 0 01-7.778 31.943 56.356 56.356 0 01-13.534 15.32c-2.418 1.81-4.33 3.148-5.756 4.089l.415-2.37 1.426-7.488"/></svg>