<svg width="56" height="52" viewBox="0 0 56 52" fill="none" xmlns="http://www.w3.org/2000/svg"><path d="M55.5 28.5C55.5 42.86 42.36 52 28 52S.5 39.86.5 25.5 13.64 0 28 0s27.5 14.14 27.5 28.5z" fill="#fff" fill-opacity=".05"/><path d="M41.68 33.099a1.932 1.932 0 00-.098-.186c-.5-.89-1.453-1.983-2.86-3.279l-.03-.03-.015-.014-.015-.015h-.015c-.64-.603-1.044-1.009-1.213-1.216-.31-.396-.38-.797-.21-1.202.12-.307.569-.954 1.348-1.944.41-.524.733-.944.973-1.26 1.727-2.276 2.476-3.73 2.247-4.362l-.09-.148c-.06-.09-.214-.17-.464-.245-.25-.074-.569-.087-.959-.037l-4.313.03a.564.564 0 00-.3.007l-.194.044-.075.038-.06.044a.66.66 0 00-.165.156.995.995 0 00-.15.26 24.128 24.128 0 01-1.602 3.338c-.37.613-.709 1.144-1.019 1.594-.309.45-.569.782-.778.994-.21.213-.4.383-.57.512-.17.129-.299.183-.389.163-.09-.02-.174-.04-.255-.06a.991.991 0 01-.336-.363 1.619 1.619 0 01-.173-.578 6.302 6.302 0 01-.052-.601c-.005-.168-.003-.406.008-.712.01-.307.015-.515.015-.623 0-.376.007-.784.022-1.224l.037-1.046c.01-.257.015-.53.015-.816 0-.287-.017-.512-.052-.675a2.293 2.293 0 00-.157-.475.802.802 0 00-.307-.356 1.738 1.738 0 00-.502-.2c-.529-.12-1.203-.183-2.022-.193-1.857-.02-3.05.099-3.58.356a2 2 0 00-.568.445c-.18.218-.205.336-.076.356.6.089 1.024.302 1.273.638l.09.178c.07.128.14.356.21.682.07.327.115.688.135 1.083.05.722.05 1.34 0 1.855-.05.514-.097.915-.142 1.201a2.39 2.39 0 01-.203.698c-.09.178-.15.286-.18.326a.257.257 0 01-.074.074 1.13 1.13 0 01-.405.074c-.14 0-.31-.069-.509-.207a3.577 3.577 0 01-.621-.572 7.635 7.635 0 01-.727-1.016c-.27-.435-.549-.95-.838-1.543l-.24-.43c-.15-.277-.354-.68-.614-1.21a23.16 23.16 0 01-.689-1.535.979.979 0 00-.36-.474l-.074-.045a1.03 1.03 0 00-.24-.126 1.604 1.604 0 00-.344-.096l-4.104.029c-.42 0-.704.094-.854.282l-.06.089a.475.475 0 00-.045.238c0 .108.03.242.09.4a48.86 48.86 0 001.954 4.035c.704 1.296 1.316 2.34 1.835 3.13a36.89 36.89 0 001.588 2.24c.539.703.896 1.153 1.07 1.35.175.199.313.347.412.446l.375.356c.24.237.591.522 1.056.853.464.331.978.657 1.542.98a8.45 8.45 0 001.97.785 6.872 6.872 0 002.187.245h1.722c.35-.03.614-.138.794-.326l.06-.075a.976.976 0 00.112-.274c.035-.123.052-.26.052-.408a4.84 4.84 0 01.097-1.15c.075-.34.16-.598.255-.77.095-.174.203-.32.322-.438a1.3 1.3 0 01.255-.215.983.983 0 01.12-.052c.24-.08.521-.003.846.23.325.232.63.52.914.86.284.342.626.725 1.026 1.15.4.425.749.741 1.048.95l.3.178c.2.118.459.227.779.326.319.099.598.124.838.074l3.834-.059c.38 0 .674-.062.884-.186.21-.123.334-.26.374-.408.04-.148.042-.316.008-.504a1.852 1.852 0 00-.105-.393z" fill="#fff"/></svg>