<svg width="231" height="160" viewBox="0 0 231 160" fill="none" xmlns="http://www.w3.org/2000/svg"><circle cx="115.417" cy="44.485" r="93.955" transform="rotate(-15 115.417 44.485)" fill="url(#paint0_linear_72_1044)"/><path d="M176.746 74.099a7.813 7.813 0 00-.564-.611c-2.827-2.9-7.605-6.11-14.331-9.63l-.145-.083-.072-.04-.073-.042-.058.016c-3.068-1.657-5.036-2.796-5.899-3.418-1.594-1.198-2.272-2.662-2.039-4.39.144-1.299 1.203-4.242 3.171-8.833a435.228 435.228 0 002.436-5.833c4.284-10.493 5.662-16.834 4.131-19.025l-.494-.475c-.321-.28-.998-.433-2.03-.462-1.034-.027-2.271.254-3.713.843l-16.501 4.543c-.293-.022-.673.089-1.141.336l-.701.371-.249.22-.183.232c-.161.165-.318.42-.472.766a4.077 4.077 0 00-.306 1.148c-.571 5.07-1.474 9.883-2.715 14.44-.786 2.73-1.54 5.116-2.266 7.159-.724 2.042-1.379 3.58-1.963 4.609-.586 1.03-1.137 1.878-1.657 2.546-.518.668-.959 1.01-1.324 1.025-.365.016-.71.028-1.038.034a3.932 3.932 0 01-1.664-1.047c-.483-.5-.901-1.18-1.254-2.04a25.405 25.405 0 01-.819-2.25 49.766 49.766 0 01-.702-2.737 85.092 85.092 0 00-.582-2.404 144.15 144.15 0 01-1.172-4.714 901.582 901.582 0 01-.93-4.047 81.169 81.169 0 00-.781-3.143c-.294-1.099-.593-1.943-.894-2.533a9.05 9.05 0 00-1.089-1.659 3.18 3.18 0 00-1.542-1.049c-.603-.184-1.314-.268-2.129-.253-2.15.09-4.799.535-7.948 1.338-7.138 1.832-11.59 3.512-13.354 5.041a7.995 7.995 0 00-1.724 2.29c-.465 1.019-.44 1.5.078 1.442 2.388-.275 4.232.105 5.534 1.137l.528.59c.4.421.902 1.222 1.505 2.4.602 1.18 1.146 2.517 1.628 4.012.933 2.717 1.567 5.086 1.905 7.108.336 2.023.567 3.607.688 4.752.122 1.146.103 2.106-.059 2.88-.162.775-.279 1.253-.354 1.436-.074.182-.144.303-.21.36a4.488 4.488 0 01-1.474.701c-.536.144-1.257.052-2.165-.274-.907-.326-1.897-.842-2.968-1.55-1.072-.71-2.348-1.759-3.829-3.15-1.48-1.39-3.08-3.075-4.799-5.052l-1.36-1.403c-.858-.907-2.056-2.242-3.595-4.003a91.998 91.998 0 01-4.218-5.179c-.519-.714-1.14-1.197-1.865-1.45l-.333-.094c-.231-.1-.58-.179-1.047-.237a6.359 6.359 0 00-1.42-.016l-15.698 4.328c-1.607.43-2.601 1.084-2.982 1.958l-.139.402c-.064.22-.04.54.071.956.112.417.364.899.756 1.443a193.486 193.486 0 0011.635 13.46c4.029 4.242 7.445 7.614 10.246 10.112 2.803 2.5 5.598 4.82 8.386 6.956 2.788 2.138 4.618 3.496 5.49 4.075a38.06 38.06 0 002.037 1.282l1.8.98c1.163.664 2.804 1.392 4.923 2.185a71.522 71.522 0 006.919 2.17c2.492.652 5.278.982 8.356.99 3.079.009 5.956-.428 8.633-1.306l6.601-1.77c1.309-.473 2.211-1.161 2.708-2.066l.152-.346c.093-.268.142-.658.148-1.166a5.87 5.87 0 00-.218-1.618c-.475-1.619-.744-3.121-.808-4.506-.064-1.384-.002-2.457.185-3.218.187-.761.448-1.43.784-2.007.337-.578.59-.941.757-1.087.165-.147.3-.252.404-.322.837-.549 1.997-.545 3.481.013 1.482.558 2.944 1.345 4.386 2.36a104.77 104.77 0 005.112 3.353c1.968 1.22 3.632 2.073 4.993 2.562l1.331.375c.888.25 1.995.4 3.321.451 1.324.051 2.421-.14 3.29-.577l14.634-4.164c1.454-.39 2.521-.931 3.196-1.619.677-.69 1.015-1.34 1.017-1.948.001-.61-.164-1.257-.49-1.942-.328-.683-.597-1.15-.807-1.398z" fill="#fff"/><defs><linearGradient id="paint0_linear_72_1044" x1="115.417" y1="-49.47" x2="115.417" y2="138.439" gradientUnits="userSpaceOnUse"><stop stop-color="#3476F6"/><stop offset="1" stop-color="#346AF6"/></linearGradient></defs></svg>