<svg width="121" height="121" viewBox="0 0 121 121" fill="none" xmlns="http://www.w3.org/2000/svg"><circle cx="60.484" cy="60.875" r="60" fill="url(#paint0_linear_122_230)"/><path d="M99.81 69.042a4.966 4.966 0 00-.36-.39c-1.805-1.852-4.856-3.901-9.152-6.15l-.092-.052-.046-.026-.047-.027-.037.01c-1.96-1.057-3.216-1.785-3.766-2.182-1.019-.765-1.451-1.7-1.303-2.804.092-.83.768-2.709 2.025-5.64a275.469 275.469 0 001.556-3.725c2.736-6.702 3.616-10.75 2.638-12.15l-.316-.303c-.205-.179-.637-.277-1.296-.295-.66-.018-1.45.162-2.371.538l-10.538 2.901c-.187-.014-.43.057-.728.215l-.448.237-.16.14-.116.148a1.68 1.68 0 00-.301.49c-.098.22-.163.465-.196.733-.364 3.237-.941 6.31-1.734 9.221a79.889 79.889 0 01-1.447 4.572c-.462 1.304-.88 2.285-1.254 2.943-.374.658-.725 1.2-1.057 1.626-.331.426-.613.645-.846.655-.233.01-.453.017-.663.022a2.51 2.51 0 01-1.062-.67c-.31-.319-.576-.753-.802-1.302a15.91 15.91 0 01-.522-1.437 31.498 31.498 0 01-.449-1.748c-.175-.757-.3-1.268-.371-1.535a92.218 92.218 0 01-.749-3.01 763.22 763.22 0 01-.594-2.584 52.434 52.434 0 00-.498-2.008c-.188-.702-.38-1.24-.571-1.617a5.817 5.817 0 00-.696-1.06 2.032 2.032 0 00-.985-.67c-.385-.117-.839-.17-1.36-.161-1.372.056-3.064.341-5.075.854-4.558 1.17-7.401 2.243-8.528 3.22a5.106 5.106 0 00-1.1 1.462c-.298.65-.282.958.049.92 1.525-.175 2.703.067 3.534.727l.337.377c.256.269.576.78.961 1.533a17.28 17.28 0 011.04 2.561c.596 1.735 1.001 3.248 1.216 4.54a55.47 55.47 0 01.44 3.034c.078.732.066 1.345-.037 1.84-.104.494-.179.8-.227.916a.65.65 0 01-.134.23c-.285.206-.6.356-.941.448-.343.092-.803.033-1.383-.175s-1.211-.538-1.895-.99c-.685-.453-1.5-1.123-2.445-2.011-.945-.889-1.967-1.964-3.065-3.227l-.868-.896a93.495 93.495 0 01-2.296-2.556 58.733 58.733 0 01-2.694-3.307c-.331-.456-.728-.765-1.19-.926l-.213-.06c-.148-.064-.372-.115-.67-.152-.298-.037-.6-.04-.906-.01l-10.025 2.764c-1.026.275-1.661.692-1.905 1.25l-.088.257c-.04.14-.026.344.046.61.07.267.232.574.482.922a123.565 123.565 0 007.43 8.595c2.573 2.71 4.755 4.863 6.544 6.458a93.673 93.673 0 005.355 4.442c1.78 1.366 2.949 2.233 3.506 2.602.558.37.991.643 1.3.82l1.15.625c.743.424 1.79.89 3.144 1.396 1.354.506 2.827.968 4.419 1.385 1.591.416 3.37.627 5.336.632 1.966.006 3.803-.273 5.513-.834l4.216-1.13c.835-.302 1.411-.742 1.728-1.32l.097-.22c.06-.171.092-.42.095-.745a3.783 3.783 0 00-.139-1.033c-.304-1.034-.475-1.993-.516-2.877-.041-.884-.001-1.57.118-2.056.12-.486.286-.913.5-1.281.216-.37.378-.601.484-.695.105-.093.192-.16.258-.205.535-.35 1.275-.348 2.223.008.947.356 1.88.859 2.8 1.507.921.65 2.01 1.362 3.266 2.141 1.257.78 2.32 1.324 3.188 1.637l.85.24c.567.159 1.274.255 2.121.287.846.033 1.546-.09 2.101-.368l9.346-2.66c.928-.248 1.61-.594 2.04-1.033.433-.44.648-.856.65-1.245 0-.389-.105-.802-.313-1.24-.21-.436-.381-.734-.515-.893z" fill="#fff"/><defs><linearGradient id="paint0_linear_122_230" x1="60.484" y1=".875" x2="60.484" y2="120.875" gradientUnits="userSpaceOnUse"><stop stop-color="#3476F6"/><stop offset="1" stop-color="#346AF6"/></linearGradient></defs></svg>