<svg xmlns="http://www.w3.org/2000/svg" width="315" height="156" fill="none"><path fill="#fff" d="M25.277 54.05c-.054 1.056-.535 1.907-1.441 2.556-.898.64-1.828 1.03-2.79 1.171a12.33 12.33 0 01-1.675.2 10.614 10.614 0 01-1.734-.059c-.063-.523-.106-1.559-.13-3.105a89.894 89.894 0 01.024-5.028c.032-1.156.114-1.894.246-2.215-.015-.047-.023-.199-.023-.457s.004-.558.012-.902a730.512 730.512 0 01.047-1.922c0-.328-.012-.676-.036-1.043a8.3 8.3 0 01-.035-.75c0-.46.043-.89.13-1.289h.421c.5-.023.977-.035 1.43-.035.273 0 .535.004.785.012.297.007.613.011.949.011h.773c.25 0 .512-.008.786-.023.28-.031.55-.047.808-.047.438 0 .848.043 1.23.129l.012 1.266c0 .078.004.148.012.21.008.086.012.168.012.247 0 .226-.035.398-.106.515-.078.149-.32.223-.726.223h-.059c-.414 0-.832-.016-1.254-.047a21.24 21.24 0 00-.996-.047h-.398c-.406 0-.817-.008-1.23-.023a296.71 296.71 0 01-.235 3.726c-.023.453-.05.883-.082 1.29a10.32 10.32 0 011.64.245c.587.133 1.083.325 1.489.575a2.77 2.77 0 011.523 1.09c.227.312.403.652.528 1.019.039.156.082.422.128.797.047.375.075.738.082 1.09v.082c0 .304-.038.484-.117.539zM19.7 55l.047.762c.25.039.496.058.738.058a4.37 4.37 0 001.184-.164c.289-.093.516-.21.68-.351.164-.14.312-.293.445-.457a4.9 4.9 0 01.281-.328c.016-.157.035-.31.059-.458.039-.203.062-.43.07-.68-.023-1.015-.52-1.714-1.488-2.097a3.557 3.557 0 00-1.266-.234c-.21 0-.422.02-.633.058v.047a4.15 4.15 0 00-.035.469v.082c0 .11.012.25.035.422L19.7 55zm13.453.34c1.907 0 3-.88 3.282-2.637.03-.258.074-.547.129-.867.148-.914.222-1.563.222-1.945 0-2.29-.75-4.38-2.25-6.27a1.41 1.41 0 01-.363-.129 1.029 1.029 0 00-.504-.129c-.14 0-.328.04-.563.117-.687.243-1.132.442-1.335.598-.532.531-.954 1.348-1.266 2.45-.313 1.1-.469 2.023-.469 2.765l.012 1.313c0 .703-.024 1.37-.07 2.003.07.055.218.332.445.832.258.618.476 1.036.656 1.254.313.328.867.535 1.664.621.14.016.278.024.41.024zm-1.113 3.012c-1.578 0-2.773-.602-3.586-1.805-.265-.414-.543-1.074-.832-1.98a18.254 18.254 0 01-.644-2.684 6.932 6.932 0 01-.082-.985c0-.375.05-.66.152-.855a3.022 3.022 0 01-.035-.492c0-.414.07-1.028.21-1.84.141-.813.368-1.668.68-2.566.32-.899.657-1.473 1.008-1.723.18-.54.723-1.07 1.63-1.594.905-.531 1.776-.84 2.612-.926l.645-.047c.234-.023.437-.035.61-.035.163.008.343.047.538.117.47.172.953.422 1.453.75.68.454 1.063.817 1.149 1.09.305.227.562.606.773 1.137.22.523.399 1.023.54 1.5.14.469.245.746.316.832.07.398.152.793.246 1.184.21.812.32 1.648.328 2.508-.016.124-.04.261-.07.41a6.84 6.84 0 00-.07.351c0 .157.011.27.035.34.03.063.054.168.07.316a2.804 2.804 0 01-.176.903c-.055.172-.102.34-.14.504-.165.843-.508 1.695-1.032 2.554-.515.86-1.16 1.485-1.933 1.875-.61.446-1.434.766-2.473.961-.695.133-1.336.2-1.922.2zm9.059-.082a.596.596 0 01-.164-.024 1.084 1.084 0 00-.153-.012.126.126 0 00-.07.024l.047-.48c.031-.243.047-.829.047-1.758.023-.172.066-.29.129-.352.132-.063.394-.102.785-.117l.422-.047c.414-.031.851-.281 1.312-.75.031-.07.074-.152.129-.246.688-.992 1.074-2.696 1.16-5.11.047-1.14.137-2.12.27-2.941.133-.82.226-1.293.281-1.418-.04-.477-.059-.937-.059-1.383 0-.601.035-1.18.106-1.734l.047-.61h.586c.07 0 .148-.007.234-.023.086-.016.18-.023.281-.023l.14-.012c.43 0 .977.004 1.642.012.664 0 1.234.004 1.71.011h1.008l.504-.011c.203 0 .38.015.528.047.156.023.34.035.55.035.157 2.78.235 5.578.235 8.39v1.407c.008.593.027 1.378.058 2.355.04 1.227.059 2.219.059 2.977 0 .601.02 1.097.059 1.488h-2.684l-.012-1.664c0-.242-.012-.664-.035-1.266a124.27 124.27 0 01-.082-2.52c0-.21.008-.413.023-.609.024-.273.036-.554.036-.843l-.012-.41c0-.329.02-.66.058-.997a8.14 8.14 0 00.059-.937l-.293-4.782-.012-.011-.164-.012a9.54 9.54 0 00-.867-.047h-.14c-.258.024-.59.043-.997.059-.07.734-.113 1.105-.129 1.113l-.27 2.777a43.786 43.786 0 01-.386 3.153c-.07.273-.144.656-.222 1.148a13.77 13.77 0 01-.61 2.719c-.492 1.172-1.05 1.992-1.676 2.46a3.65 3.65 0 01-1.03.599c-.352.124-.602.187-.75.187-.196.094-.7.152-1.513.176a.971.971 0 00-.175.011zm16.113-.258c-.602 0-1.211-.043-1.828-.13-.086-.765-.13-2.51-.13-5.237 0-2.75.048-4.43.142-5.04a6.143 6.143 0 01-.118-1.207c0-.421.035-.93.106-1.523l.047-.527c0-.328-.012-.672-.035-1.032a6.243 6.243 0 01-.047-.75c0-.46.047-.886.14-1.277l1.535.047a2.01 2.01 0 01.375-.023c.29 0 .532.042.727.128.195.078.293.34.293.786a17 17 0 01-.047 1.254c-.023.328-.039.656-.047.984 0 .844-.05 1.703-.152 2.578-.047.484-.086.969-.117 1.453.523.04 1.136.152 1.84.34.71.18 1.28.398 1.71.656.297.102.536.223.715.364.18.14.364.351.551.632.219.313.39.649.516 1.008.039.156.082.441.129.856.054.414.082.84.082 1.277 0 .32-.04.512-.117.574 0 .234-.094.555-.282.961a5.26 5.26 0 01-.656 1.09c-.25.32-.484.484-.703.492-.235.336-.828.637-1.781.902-.836.243-1.786.364-2.848.364zm1.254-2.227a5.41 5.41 0 001.36-.176c.32-.101.562-.21.726-.328a3.33 3.33 0 00.457-.422l.187-.199c.008-.148.024-.297.047-.445.04-.196.063-.422.07-.68 0-.484-.097-.93-.292-1.336-.368-.75-1.208-1.125-2.52-1.125a5.4 5.4 0 00-.621.035c-.04.22-.059.43-.059.633 0 .125.016.274.047.446l-.164 2.8.035.75c.242.032.485.047.727.047zM80.25 58H66.54l-.376-.188c.125-2.539.188-4.44.188-5.706v-6.669c0-.523.062-1.218.187-2.085-.125-.133-.187-.641-.187-1.524v-.574c0-.258.824-.512 2.472-.762.578.242.899.496.961.762-.258 7.102-.387 11.73-.387 13.887h2.66c0-.758.067-1.899.2-3.422-.133-3.899-.2-7.196-.2-9.89.422-.259.805-.388 1.149-.388h1.711c.25.04.375.168.375.387v9.89l-.188 1.15c.126.202.188.519.188.948v1.325c.578 0 .96.066 1.148.199.5-.133.946-.2 1.336-.2.125-4.39.188-8.066.188-11.027 0-.672-.063-1.754-.188-3.246.242-.125.43-.187.563-.187 1.781 0 2.672.254 2.672.761-.258 9.149-.387 14.543-.387 16.184 0 .25-.125.375-.375.375zm8.484 0h-.398a67.7 67.7 0 01-1.852-.047v-.023l-1.125.011-.808.012c-.578 0-1.098-.023-1.559-.07a54.017 54.017 0 01-.105-2.25c-.078-2.18-.118-4.106-.118-5.778 0-2.164.067-3.394.2-3.69-.063-.274-.094-.724-.094-1.349a43.2 43.2 0 01.129-3.316c.203-.188.996-.281 2.379-.281.578 0 1.195.011 1.851.035a16.108 16.108 0 001.735 0c.304-.023.601-.035.89-.035.813 0 1.551.09 2.215.27.086.327.13.718.13 1.171 0 .203-.016.39-.048.563-.054.28-.18.422-.375.422l-2.414-.012-2.402-.024c-.758 0-1.266.008-1.524.024l-.011.89v.739l-.012.738c-.031.64-.047 1.258-.047 1.852 0 .25.008.453.023.609.118.07.84.105 2.168.105.813 0 1.602.016 2.368.047.765.032 1.297.117 1.593.258.125.508.188.922.188 1.242 0 .352-.078.59-.234.715-.258.203-.926.305-2.004.305l-.575-.012-1.265.012-2.192.094-.093 3.574c.726.133 2.16.199 4.3.199 1.532 0 2.352.043 2.461.129.125.289.184.629.176 1.02 0 .398-.035.757-.105 1.078-.063.32-.2.515-.41.586a1.93 1.93 0 01-.586.081h-.528L88.734 58zm21.246-17.04c3.204 0 5.586 1.528 7.149 4.583.242.328.488 1.242.738 2.742 0 3.172-1.59 5.313-4.769 6.422-.547.242-1.34.363-2.379.363v2.567c0 .242-.121.363-.364.363h-2.39c-.172 0-.352-.184-.539-.55v-2.016c0-.203-.918-.508-2.754-.914-2.32-1.563-3.481-3.7-3.481-6.41v-1.29c0-1.992 1.954-3.945 5.86-5.86h2.929zm-6.222 6.411v.55c0 2.071.914 3.415 2.742 4.032.406.242.773.363 1.102.363h.187c0-1.445.121-4.191.363-8.238-.125-.367-.246-.55-.363-.55-2.687.78-4.031 2.062-4.031 3.843zm6.41-3.844v.188c.094 5.86.34 8.789.738 8.789h.176c2.57-.57 3.856-1.793 3.856-3.668v-.55c-.563-3.173-2.153-4.759-4.77-4.759zm15.398 11.813c1.907 0 3-.88 3.282-2.637.031-.258.074-.547.129-.867.148-.914.222-1.563.222-1.945 0-2.29-.75-4.38-2.25-6.27a1.425 1.425 0 01-.363-.129 1.027 1.027 0 00-.504-.129c-.141 0-.328.04-.562.117-.688.243-1.133.442-1.336.598-.532.531-.954 1.348-1.266 2.45-.313 1.1-.469 2.023-.469 2.765l.012 1.313c0 .703-.023 1.37-.07 2.003.07.055.218.332.445.832.258.618.476 1.036.656 1.254.313.328.867.535 1.664.621.141.016.278.024.41.024zm-1.113 3.012c-1.578 0-2.773-.602-3.586-1.805-.265-.414-.543-1.074-.832-1.98a18.23 18.23 0 01-.644-2.684 6.886 6.886 0 01-.082-.985c0-.375.05-.66.152-.855a3.081 3.081 0 01-.035-.492c0-.414.07-1.028.211-1.84.14-.813.367-1.668.679-2.566.321-.899.657-1.473 1.008-1.723.18-.54.723-1.07 1.629-1.594.906-.531 1.777-.84 2.613-.926l.645-.047c.234-.023.437-.035.609-.035.164.008.344.047.539.117.469.172.953.422 1.453.75.68.454 1.063.817 1.149 1.09.305.227.562.606.773 1.137a14.4 14.4 0 01.539 1.5c.141.469.247.746.317.832.07.398.152.793.246 1.184.211.812.32 1.648.328 2.508a5.319 5.319 0 01-.07.41 6.63 6.63 0 00-.071.351c0 .157.012.27.036.34.031.063.054.168.07.316a2.818 2.818 0 01-.176.903 7.41 7.41 0 00-.141.504c-.164.843-.507 1.695-1.031 2.554-.515.86-1.16 1.485-1.933 1.875-.61.446-1.434.766-2.473.961-.695.133-1.336.2-1.922.2zm15.809-.153a6.08 6.08 0 01-.926-.082c-.352-.047-.57-.129-.656-.246-.039-.156-.059-.504-.059-1.043 0-.93.02-1.875.059-2.836.07-2.219.156-3.472.258-3.761a3.985 3.985 0 01-.059-.786l.012-1.008.011-.585a5.73 5.73 0 00-.023-.48 13.695 13.695 0 01-.035-.997c0-.352.031-.613.094-.785a3.257 3.257 0 01-.094-.856l.011-.21a1.97 1.97 0 00-.011-.223c-.5-.063-1.11-.094-1.828-.094-.711 0-1.379.008-2.004.023-.375.016-.684.024-.926.024s-.387-.008-.434-.023a9.856 9.856 0 01-.129-1.348c0-.516.055-.942.165-1.278.789-.132 1.863-.234 3.222-.304l9.762.023c.062.266.094.73.094 1.395 0 .304-.004.504-.012.597a.955.955 0 01-.152.422 2.091 2.091 0 00-.164.27c-.29-.04-.844-.059-1.665-.059-1.687 0-2.668.028-2.941.082l.059 2.52.07.984-.059 5.262a22.647 22.647 0 01-.129 1.781 9.5 9.5 0 00-.117 1.512l.024.844c0 .28-.012.558-.035.832-.165.289-.625.433-1.383.433zm13.265-2.86c1.907 0 3-.878 3.282-2.636.031-.258.074-.547.129-.867.148-.914.222-1.563.222-1.945 0-2.29-.75-4.38-2.25-6.27a1.411 1.411 0 01-.363-.129 1.027 1.027 0 00-.504-.129c-.141 0-.328.04-.563.117-.687.243-1.132.442-1.335.598-.532.531-.954 1.348-1.266 2.45-.313 1.1-.469 2.023-.469 2.765l.012 1.313c0 .703-.024 1.37-.07 2.003.07.055.218.332.445.832.258.618.476 1.036.656 1.254.313.328.867.535 1.664.621.141.016.278.024.41.024zm-1.113 3.013c-1.578 0-2.773-.602-3.586-1.805-.266-.414-.543-1.074-.832-1.98a18.23 18.23 0 01-.644-2.684 6.886 6.886 0 01-.082-.985c0-.375.05-.66.152-.855a2.969 2.969 0 01-.035-.492c0-.414.07-1.028.211-1.84.14-.813.367-1.668.679-2.566.321-.899.657-1.473 1.008-1.723.18-.54.723-1.07 1.629-1.594.906-.531 1.777-.84 2.613-.926l.645-.047c.234-.023.437-.035.609-.035.164.008.344.047.539.117.469.172.953.422 1.453.75.68.454 1.063.817 1.149 1.09.305.227.562.606.773 1.137a14.4 14.4 0 01.539 1.5c.141.469.246.746.317.832.07.398.152.793.246 1.184.211.812.32 1.648.328 2.508a5.319 5.319 0 01-.07.41 6.63 6.63 0 00-.071.351c0 .157.012.27.036.34.031.063.054.168.07.316a2.818 2.818 0 01-.176.903 6.89 6.89 0 00-.141.504c-.164.843-.507 1.695-1.031 2.554-.515.86-1.16 1.485-1.933 1.875-.61.446-1.434.766-2.473.961-.695.133-1.336.2-1.922.2zM3.223 80.578c.625-.086 1.242-.355 1.851-.809.617-.453.942-1.097.973-1.933a2.56 2.56 0 00-.305-1.055 1.854 1.854 0 00-.715-.773 3.54 3.54 0 00-.867-.246 4.512 4.512 0 00-.832-.106l.012 1.547c0 1.149-.04 2.274-.117 3.375zm.75 7.711c.859 0 1.48-.168 1.863-.504.164-.14.305-.289.422-.445l.281-.305c.008-.148.024-.3.047-.457.039-.195.059-.422.059-.68a3.178 3.178 0 00-.41-1.523 2.142 2.142 0 00-1.137-1.008c-.493-.172-.907-.258-1.243-.258-.18 0-.363.016-.55.047v.059c-.024.203-.035.39-.035.562 0 .11.011.246.035.41l-.258 3.258.058.762c.297.055.586.082.868.082zM2.52 90.457c-.438 0-.903-.035-1.395-.105-.047-.383-.094-1.121-.14-2.215C.93 86.8.901 85.407.901 83.953c0-1.016.02-1.906.059-2.672 0-.437-.008-.867-.023-1.289 0-.07-.004-.136-.012-.199v-.176a69.596 69.596 0 01-.012-1.488c0-1.04.063-1.613.188-1.723a6.053 6.053 0 01-.012-.433c0-.125.004-.329.012-.61.015-.289.039-.632.07-1.031.039-.406.074-.691.105-.855.266-.172.727-.258 1.383-.258l.598.012c.367.007.91.09 1.629.246.726.148 1.25.347 1.57.597.461.375.738.614.832.715.18.188.399.625.656 1.313.133.39.2.859.2 1.406 0 .062-.008.265-.024.61-.008.343-.11.683-.305 1.019-.062.445-.21.902-.445 1.37-.226.47-.504.821-.832 1.055.156.07.293.145.41.223l.586.211c.055.086.156.2.305.34.43.43.742.922.937 1.477.04.164.086.453.141.867.07.476.105.91.105 1.3 0 .32-.039.512-.117.575-.008.242-.101.566-.281.972-.18.407-.398.774-.656 1.102-.25.328-.48.496-.692.504-.14.195-.379.37-.715.527a7.997 7.997 0 01-2.003.61 13.14 13.14 0 01-2.04.187zM26.613 90h-.164c-.195 0-.32-.012-.375-.035l-.234-.106-.527-6.914-.504-.011a5.4 5.4 0 00-.832.058 6.716 6.716 0 01-.88.082c-.32 0-.679-.02-1.078-.058l-.902-.059c-.023.61-.039 1.156-.047 1.64-.015 1-.074 2.169-.175 3.505a5.661 5.661 0 00-.012.375l.023.832c0 .25-.015.472-.047.668a4.666 4.666 0 00-.703-.047l-.41.011a4.698 4.698 0 01-.527.036c-.117 0-.23-.02-.34-.059-.149-.063-.223-.367-.223-.914 0-.273.02-.625.059-1.055-.156-3.914-.238-6.133-.246-6.656-.032-1.5-.047-2.836-.047-4.008 0-1.586.039-2.476.117-2.672v-.738c0-.273.04-.45.117-.527.086-.079.492-.117 1.219-.117.453 0 .781.035.984.105.235.086.352.297.352.633v.175a14.501 14.501 0 00-.012 1.84l.012.715c0 .414-.016.82-.047 1.219-.031.328-.047.883-.047 1.664 0 .367.012.664.035.89.946.063 1.887.094 2.825.094.421 0 .847-.007 1.277-.023.008-.227.012-.488.012-.785l-.012-1.031a37.161 37.161 0 01-.024-1.325c0-.586.012-1.289.036-2.109.023-.828.12-1.477.293-1.945.21-.094.476-.141.796-.141.43 0 .813.05 1.149.152l.129 5.157a51.61 51.61 0 01.14 3.703c0 .531-.011 1.004-.035 1.418.117.164.2.812.246 1.945.016.57.024.996.024 1.277 0 .18-.012.352-.035.516a9.95 9.95 0 00-.035.516c0 .289.023.62.07.996.023.21.039.402.047.574l.058.387c-.226.078-.726.129-1.5.152zm7.582-6.984l2.684-.035c.094 0 .14-.016.14-.047l-.023-.07c-.297-1.157-.477-2.04-.539-2.65-.11-.843-.277-1.378-.504-1.605l-.246.692c-.281.695-.469 1.21-.563 1.547l-.316.68c-.344.71-.555 1.206-.633 1.488zm-2.46 7.148h-.07c-.15 0-.544-.031-1.184-.094-.696-.062-1.083-.117-1.16-.164a.602.602 0 01-.048-.246c0-.304.184-.941.551-1.91.133-.352.227-.625.281-.82.055-.235.141-.555.258-.961.305-1.031.578-1.684.82-1.957.008-.164.063-.426.165-.785a18.28 18.28 0 01.644-1.864c.367-.937.938-2.257 1.711-3.96.906-2 1.465-3.06 1.676-3.176.172-.485.394-.829.668-1.032.297.235.598.848.902 1.84.117.383.18.672.188.867.156.188.351.633.586 1.336.14.453.28.801.422 1.043.078.258.207.649.386 1.172l1.301 3.961c1.273 3.898 1.91 5.984 1.91 6.258v.012c-.133.14-.265.222-.398.246a1.32 1.32 0 01-.258.023c-.055 0-.121-.004-.2-.012a1.146 1.146 0 00-.245-.023l-.446.023a2.848 2.848 0 01-.351.024 1.82 1.82 0 01-.621-.106c-.25-.336-.614-1.375-1.09-3.117-.211-.789-.399-1.39-.563-1.805a5.217 5.217 0 00-.492.047 3.674 3.674 0 01-.539.035h-.129a11.675 11.675 0 00-.586-.011c-.672 0-1.488.07-2.449.21-.32.65-.73 1.833-1.23 3.551l-.41 1.395zM57.351 90H43.64l-.375-.188c.125-2.539.187-4.44.187-5.706v-6.668c0-.524.063-1.22.188-2.086-.125-.133-.188-.641-.188-1.524v-.574c0-.258.824-.512 2.473-.762.578.242.898.496.96.762-.257 7.102-.386 11.73-.386 13.887h2.66c0-.758.067-1.899.2-3.422-.133-3.899-.2-7.196-.2-9.89.422-.259.805-.388 1.149-.388h1.71c.25.04.376.168.376.387v9.89l-.188 1.15c.125.202.188.519.188.948v1.325c.578 0 .96.066 1.148.199.5-.133.945-.2 1.336-.2.125-4.39.187-8.066.187-11.027 0-.672-.062-1.754-.187-3.246.242-.125.43-.187.562-.187 1.782 0 2.672.254 2.672.761-.258 9.149-.386 14.543-.386 16.184 0 .25-.125.375-.375.375zm8.484 0h-.398a67.7 67.7 0 01-1.852-.047v-.023l-1.125.011-.809.012c-.578 0-1.097-.023-1.558-.07-.032-.352-.067-1.102-.106-2.25-.078-2.18-.117-4.106-.117-5.777 0-2.165.066-3.395.2-3.692-.063-.273-.094-.723-.094-1.348a43.2 43.2 0 01.129-3.316c.203-.188.996-.281 2.378-.281.578 0 1.196.012 1.852.035a16.115 16.115 0 001.734 0c.305-.023.602-.035.89-.035.813 0 1.552.09 2.216.27.086.327.129.718.129 1.171 0 .203-.016.39-.047.563-.055.28-.18.421-.375.421l-2.414-.011-2.403-.024c-.757 0-1.265.008-1.523.024l-.012.89v.739l-.01.738a38.1 38.1 0 00-.047 1.852c0 .25.008.453.023.609.117.07.84.105 2.168.105.813 0 1.602.016 2.367.047.766.031 1.297.118 1.594.258.125.508.188.922.188 1.242 0 .352-.079.59-.235.715-.258.203-.926.305-2.004.305L66 83.12l-1.266.012-2.191.094-.094 3.574c.727.133 2.16.199 4.301.199 1.531 0 2.352.043 2.46.129.126.289.184.629.177 1.02 0 .398-.035.757-.106 1.078-.062.32-.199.515-.41.585a1.93 1.93 0 01-.586.082h-.527L65.836 90zm8.215 0c-.219 0-.516-.012-.89-.035a6.04 6.04 0 00-.493.012 3.414 3.414 0 01-.399.023c-.117 0-.238-.016-.363-.047-.117-.031-.187-.156-.21-.375.085-.367.136-.742.152-1.125l.046-.516c0-.382-.003-.753-.011-1.113a93.065 93.065 0 01.094-6.809c.093-1.734.14-3.242.14-4.523 0-.836-.023-1.535-.07-2.098l.187-.07a.344.344 0 00.118-.011.09.09 0 01.035-.012c0-.032.086-.047.257-.047.305 0 .5-.008.587-.023a1.59 1.59 0 01.269-.024c.125 0 .273.027.445.082l.211.047h.27c.11 0 .23.012.363.035l-.023.41a16.86 16.86 0 00-.164 2.45l.023 1.242c0 .593-.02 1.156-.059 1.687-.164 1.914-.25 2.875-.257 2.883l-.012.035c.039.133.059.285.059.457 0 .281-.063 1.121-.188 2.52.07-.157.664-1.602 1.781-4.336.633-1.531 1.008-2.348 1.125-2.45.063-.257.168-.542.317-.855.109-.25.242-.59.398-1.02.18-.523.332-.851.457-.984v-.047c0-.132.055-.355.164-.668.117-.343.211-.515.281-.515.118-.524.356-.786.715-.786h.059c.422-.023.96-.035 1.617-.035.297 0 .484.008.563.024l-.012 1.101c.039.094.058.602.058 1.524 0 .258-.004.61-.011 1.055a40.98 40.98 0 01-.047 1.359c-.016.453-.031.707-.047.762l.023.96c.079.977.118 2.04.118 3.188 0 1.149-.016 2.219-.047 3.211v1.078c0 1.094-.059 1.824-.176 2.192a1.752 1.752 0 00-.281.046 5.12 5.12 0 01-.48.047l-.68.024a2.63 2.63 0 01-.516-.047c-.234-.055-.352-.219-.352-.492v-.059c.032-.476.082-2.2.153-5.168.046-2.328.101-4.082.164-5.262a26.7 26.7 0 00-.727 1.524c-.797 1.765-1.277 2.968-1.441 3.61-.024.085-.153.44-.387 1.066-.305.789-.508 1.25-.61 1.382-.71 1.555-1.078 2.407-1.1 2.555a.964.964 0 00-.188.352c-.094.203-.192.347-.293.433-.063.117-.301.176-.715.176zm3.117-17.73c-.79 0-1.629-.2-2.52-.598-.046-.149-.07-.3-.07-.457 0-.219.012-.36.035-.422-.039-.078-.058-.34-.058-.785 0-.274.035-.41.105-.41l.047.011c.617.344 1.195.516 1.734.516l.246-.012.633-.035c.758 0 1.446-.14 2.063-.422.414.36.676.809.785 1.348-.836.844-1.836 1.265-3 1.265zM92.718 90a29.44 29.44 0 00-1.054-.023h-.363a9.48 9.48 0 01-.54-.012 1.114 1.114 0 01-.07-.317c0-.07.004-.117.012-.14a.772.772 0 00.047-.317c0-.156-.012-.297-.035-.422a6.7 6.7 0 01-.035-.351c0-.336.027-.633.082-.89.054-.29.082-.579.082-.868a102.745 102.745 0 01-.094-4.031c0-1.227.008-2.242.023-3.047.04-1.96.09-3.023.153-3.188a9.284 9.284 0 01-.14-1.593c0-.313.015-.617.046-.914.016-.188.027-.38.035-.575.219 0 .43-.015.633-.046.21-.04.523-.063.938-.07.492-.008 1.41-.012 2.753-.012 1.961.023 3.172.12 3.633.293.024.148.035.312.035.492 0 .148-.007.308-.023.48a5.197 5.197 0 00-.023.492c-.047.547-.36.856-.938.926a6.5 6.5 0 01-.89.059c-.313 0-.633-.016-.962-.047a8.613 8.613 0 00-1.02-.059 14 14 0 01-1.394.07l-.082 3.563a6.997 6.997 0 00-.035.738c0 .352.02.75.059 1.196.039.492.058.933.058 1.324 0 .156-.039 1.414-.117 3.773l.024 1.723c.015.297.023.55.023.762 0 .21-.012.414-.035.61-.016.194-.09.32-.223.374-.101.031-.289.047-.562.047zm11.649-10.254c2.094-.14 3.16-.836 3.199-2.086-.023-.75-.367-1.308-1.031-1.676-.242-.109-.594-.21-1.055-.304-.46-.094-.804-.14-1.031-.14l.012 1.604c0 .852-.031 1.72-.094 2.602zM103.008 90h-.153c-.39 0-.742-.055-1.054-.164a25.721 25.721 0 01-.235-3.598c0-.96.043-1.98.129-3.058a44.91 44.91 0 00.117-3.024l-.058-1.898v-.352c0-1.008.058-1.558.176-1.652a2.866 2.866 0 01-.024-.422c0-.125.004-.324.012-.598.016-.273.039-.605.07-.996.039-.39.078-.664.117-.82.25-.149.688-.223 1.313-.223.883 0 1.84.102 2.871.305.844.164 1.445.367 1.805.61.515.367.82.593.914.68.187.179.43.604.726 1.276.149.399.223.887.223 1.465l-.012.516c-.007.32-.113.64-.316.96-.078.454-.297.958-.656 1.512-.36.555-.739.946-1.137 1.172a9.432 9.432 0 01-3.41.938c-.063.297-.129.812-.199 1.547-.149 1.515-.223 2.707-.223 3.574l.012.375c0 .219-.004.402-.012.55v.177c0 .304.051.601.152.89-.304.149-.687.235-1.148.258zm11.238.469h-.574l-.375-.188.187-.949v-1.324c0-.188.696-.442 2.086-.762.5-.46.75-.965.75-1.512 0-1.039-1.515-4.703-4.547-10.992-.25-.805-.375-1.312-.375-1.523l.375-.188h1.899c.414.07 1.297 1.965 2.648 5.684.211 0 .719.887 1.524 2.66h.187c.328 0 1.278-2.34 2.848-7.02 0-.804.691-1.308 2.074-1.511.891.172 1.336.363 1.336.574-3.406 9.766-5.68 15.07-6.82 15.914-.891.758-1.965 1.137-3.223 1.137zm12.445-.258c-.523 0-.875-.02-1.054-.059a.27.27 0 01-.223-.21 2.147 2.147 0 01-.047-.516v-.61c-.078-.195-.117-1.097-.117-2.707 0-.437.023-1.78.07-4.03.039-1.282.129-3.583.27-6.903a14.312 14.312 0 01-.047-1.032c0-.578.082-.898.246-.96.109-.04.238-.059.387-.059l.515.023h.247c.124-.007.234-.015.328-.023.101-.008.179-.012.234-.012.195 0 .297.02.305.059.086-.008.183-.028.293-.059a15.086 15.086 0 012.367.024c.547.039 1.422.074 2.625.105l.012-.011.293-.012c1.242 0 1.972.039 2.191.117-.125.898-.188 1.57-.188 2.016l.012.304c0 .406-.023 1.125-.07 2.156-.024 1.18-.035 2.31-.035 3.387 0 .907.007 1.782.023 2.625.016.875.024 1.778.024 2.707 0 1.125-.012 2.29-.036 3.492-.359.102-.816.153-1.371.153-.406 0-.722-.043-.949-.13-.18-.468-.277-1.097-.293-1.886-.015-.797-.023-1.457-.023-1.98 0-.532.004-1.051.011-1.559.008-.515.012-.96.012-1.336v-.504c0-.453.063-2.48.188-6.082l-.012-.316c0-.094.004-.164.012-.211a.831.831 0 00.011-.117c0-.078-.035-.121-.105-.13l-.27.013a1.431 1.431 0 01-.199.011c-.648.047-1.301.102-1.957.164-1.344.118-2.078.176-2.203.176s-.203.012-.234.035c-.032.016-.047.063-.047.14l.011.095v.164c.032.508.079 1.53.141 3.07l.023.574c0 .508-.007 1.035-.023 1.582-.016.485-.023.965-.023 1.442 0 .71.019 1.402.058 2.074.031.367.047.742.047 1.125 0 .273-.008.55-.023.832a14.647 14.647 0 00.011 1.84l.012.21c0 .329-.113.532-.34.61-.219.086-.582.129-1.09.129zm12.516 0c-.523 0-.875-.02-1.055-.059a.27.27 0 01-.222-.21 2.096 2.096 0 01-.047-.516v-.61c-.078-.195-.117-1.097-.117-2.707 0-.437.023-1.78.07-4.03.039-1.282.129-3.583.269-6.903a14.231 14.231 0 01-.046-1.032c0-.578.082-.898.246-.96.109-.04.238-.059.386-.059l.516.023h.246c.125-.007.235-.015.328-.023.102-.008.18-.012.235-.012.195 0 .296.02.304.059a1.61 1.61 0 00.293-.059 15.137 15.137 0 012.367.024c.547.039 1.422.074 2.625.105l.012-.011.293-.012c1.242 0 1.973.039 2.192.117-.125.898-.188 1.57-.188 2.016l.012.304c0 .406-.024 1.125-.071 2.156-.023 1.18-.035 2.31-.035 3.387 0 .907.008 1.782.024 2.625.015.875.023 1.778.023 2.707 0 1.125-.012 2.29-.035 3.492-.359.102-.816.153-1.371.153-.406 0-.723-.043-.949-.13-.18-.468-.278-1.097-.293-1.886-.016-.797-.024-1.457-.024-1.98 0-.532.004-1.051.012-1.559.008-.515.012-.96.012-1.336v-.504c0-.453.062-2.48.187-6.082l-.011-.316c0-.094.003-.164.011-.211a.72.72 0 00.012-.117c0-.078-.035-.121-.106-.13l-.269.013a1.441 1.441 0 01-.199.011c-.649.047-1.301.102-1.957.164-1.344.118-2.078.176-2.203.176s-.204.012-.235.035c-.031.016-.047.063-.047.14l.012.095v.164c.031.508.078 1.53.141 3.07l.023.574c0 .508-.008 1.035-.023 1.582-.016.485-.024.965-.024 1.442 0 .71.02 1.402.059 2.074a13.368 13.368 0 01.023 1.957 14.75 14.75 0 00.012 1.84l.012.21c0 .329-.114.532-.34.61-.219.086-.582.129-1.09.129zM156.141 90h-.399c-.32 0-.937-.016-1.851-.047v-.023l-1.125.011-.809.012c-.578 0-1.098-.023-1.559-.07a53.94 53.94 0 01-.105-2.25 163.7 163.7 0 01-.117-5.777c0-2.165.066-3.395.199-3.692-.063-.273-.094-.723-.094-1.348a43.2 43.2 0 01.129-3.316c.203-.188.996-.281 2.379-.281.578 0 1.195.012 1.852.035a16.094 16.094 0 001.734 0c.305-.023.602-.035.891-.035.812 0 1.55.09 2.214.27.086.327.129.718.129 1.171 0 .203-.015.39-.047.563-.054.28-.179.421-.374.421l-2.415-.011-2.402-.024c-.758 0-1.266.008-1.523.024l-.012.89v.739l-.012.738c-.031.64-.047 1.258-.047 1.852 0 .25.008.453.024.609.117.07.84.105 2.168.105.812 0 1.601.016 2.367.047s1.297.118 1.594.258c.125.508.187.922.187 1.242 0 .352-.078.59-.234.715-.258.203-.926.305-2.004.305l-.574-.012-1.266.012-2.191.094-.094 3.574c.726.133 2.16.199 4.301.199 1.531 0 2.351.043 2.461.129.125.289.183.629.175 1.02 0 .398-.035.757-.105 1.078-.063.32-.199.515-.41.585a1.93 1.93 0 01-.586.082h-.528l-1.921.106zM53.379 112.578c.625-.086 1.242-.355 1.852-.808.617-.454.94-1.098.972-1.934a2.561 2.561 0 00-.305-1.055 1.853 1.853 0 00-.714-.773 3.501 3.501 0 00-.868-.246 4.46 4.46 0 00-.832-.106l.012 1.547c0 1.149-.039 2.274-.117 3.375zm.75 7.711c.86 0 1.48-.168 1.863-.504.164-.14.305-.289.422-.445l.281-.305a4.99 4.99 0 01.047-.457c.04-.195.059-.422.059-.68a3.178 3.178 0 00-.41-1.523 2.14 2.14 0 00-1.137-1.008c-.492-.172-.906-.258-1.242-.258-.18 0-.364.016-.551.047v.059a5.02 5.02 0 00-.035.562c0 .11.011.246.035.411l-.258 3.257.059.762c.297.055.586.082.867.082zm-1.453 2.168c-.438 0-.903-.035-1.395-.105-.047-.383-.093-1.122-.14-2.215a102.411 102.411 0 01-.082-4.184c0-1.015.02-1.906.058-2.672 0-.437-.008-.867-.023-1.289 0-.07-.004-.137-.012-.199v-.176a69.691 69.691 0 01-.012-1.488c0-1.039.063-1.613.188-1.723a6.046 6.046 0 01-.012-.433c0-.125.004-.328.012-.61.015-.289.039-.633.07-1.031.04-.406.074-.691.106-.855.265-.172.726-.258 1.382-.258l.598.011c.367.008.91.09 1.629.247.727.148 1.25.347 1.57.597.461.375.739.614.832.715.18.188.399.625.657 1.313.132.39.199.859.199 1.406 0 .062-.008.265-.024.609a2.112 2.112 0 01-.304 1.02 4.46 4.46 0 01-.446 1.371c-.226.469-.504.82-.832 1.054.157.071.293.145.41.223l.586.211c.055.086.157.199.305.34.43.43.742.922.938 1.476.039.165.086.454.14.868.07.476.106.91.106 1.3 0 .321-.04.512-.117.575-.008.242-.102.566-.282.972-.18.407-.398.774-.656 1.102-.25.328-.48.496-.691.504-.141.195-.38.371-.715.527a8.007 8.007 0 01-2.004.61c-.781.125-1.461.187-2.04.187zM70.008 122c-.953 0-1.555-.016-1.805-.047a9.805 9.805 0 01-.457-1.101c-.14-.375-.305-.793-.492-1.254a41.067 41.067 0 00-.856-1.594 100.83 100.83 0 01-1.394-2.602l-.047.961c.031.18.047.485.047.914 0 .743-.016 1.442-.047 2.098-.063 1.586-.129 2.441-.2 2.566a10.57 10.57 0 01-1.066.047 14.87 14.87 0 01-1.523-.058 28.64 28.64 0 01-.176-3.164c0-.219.028-1.188.082-2.907.047-1.039.07-2.718.07-5.039 0-1.031.024-1.828.07-2.39.024-.274.036-.758.036-1.453 0-.766.027-1.293.082-1.582l.89-.188c.196.031.383.047.563.047.07 0 .14-.004.211-.012a2.08 2.08 0 01.235-.012c.242 0 .511.043.808.129.047.125.074.289.082.493l-.012.949c0 .195.012.355.035.48.008.172.012.352.012.539 0 .383-.015.805-.047 1.266a26.89 26.89 0 00-.046 1.031.737.737 0 01.07.305c.023.211.035.742.035 1.594.367-.641.805-1.539 1.313-2.696a40.69 40.69 0 011.23-2.59c.273-.531.433-.89.48-1.078l.059-.187c.047-.078.215-.125.504-.141.187 0 .36.024.515.071.07-.04.286-.067.645-.083.328 0 .742.024 1.242.071-.015.25-.082.472-.199.668a5.952 5.952 0 01-.469.656 4.22 4.22 0 00-.386.621c-.149.32-.313.563-.493.727-.203.578-.53 1.355-.984 2.332-.805 1.695-1.23 2.793-1.277 3.293.078.14.383.781.914 1.922.57 1.218.87 1.906.902 2.062.086.086.434.777 1.043 2.074.617 1.289.941 2.032.973 2.227-.336.023-.727.035-1.172.035zm8.05-2.66c1.907 0 3-.879 3.282-2.637.031-.258.074-.547.129-.867.148-.914.222-1.563.222-1.945 0-2.289-.75-4.379-2.25-6.27a1.391 1.391 0 01-.363-.129 1.028 1.028 0 00-.504-.129c-.14 0-.328.039-.562.117-.688.243-1.133.442-1.336.598-.532.531-.953 1.348-1.266 2.449-.312 1.102-.469 2.024-.469 2.766l.012 1.312c0 .704-.023 1.372-.07 2.004.07.055.219.332.445.832.258.618.477 1.036.656 1.254.313.328.868.535 1.664.621.141.016.278.024.41.024zm-1.113 3.012c-1.578 0-2.773-.602-3.586-1.805-.265-.414-.543-1.074-.832-1.981a18.29 18.29 0 01-.644-2.683 6.93 6.93 0 01-.082-.985c0-.375.05-.66.152-.855a3.038 3.038 0 01-.035-.492c0-.414.07-1.028.21-1.84.141-.813.368-1.668.68-2.566.32-.899.657-1.473 1.008-1.723.18-.539.723-1.07 1.63-1.594.906-.531 1.777-.84 2.613-.926l.644-.047c.234-.023.438-.035.61-.035.164.008.343.047.539.118a7.08 7.08 0 011.453.75c.68.453 1.062.816 1.148 1.089.305.227.563.606.774 1.137.218.524.398 1.024.539 1.5.14.469.246.746.316.832.07.399.152.793.246 1.184.211.812.32 1.648.328 2.508a5.117 5.117 0 01-.07.41c-.031.14-.055.257-.07.351 0 .156.011.27.035.34a.999.999 0 01.07.316 2.805 2.805 0 01-.176.903c-.054.172-.101.34-.14.504-.164.843-.508 1.695-1.032 2.554-.515.86-1.16 1.485-1.933 1.875-.61.446-1.434.766-2.473.961-.695.133-1.336.2-1.922.2zM94.84 122h-.164c-.195 0-.32-.012-.375-.035l-.235-.106-.527-6.914-.504-.011c-.312 0-.59.019-.832.058a6.663 6.663 0 01-.879.082c-.32 0-.68-.019-1.078-.058l-.902-.059c-.024.609-.04 1.156-.047 1.641a59.2 59.2 0 01-.176 3.504 5.652 5.652 0 00-.012.375l.024.832c0 .25-.016.472-.047.668a4.573 4.573 0 00-.703-.047l-.41.011a4.582 4.582 0 01-.528.036c-.117 0-.23-.02-.34-.059-.148-.063-.222-.367-.222-.914 0-.274.02-.625.058-1.055-.156-3.914-.238-6.133-.246-6.656-.03-1.5-.047-2.836-.047-4.008 0-1.586.04-2.476.118-2.672v-.738c0-.273.039-.449.117-.527.086-.078.492-.118 1.219-.118.453 0 .78.036.984.106.234.086.352.297.352.633v.176a14.454 14.454 0 00-.012 1.839l.011.715c0 .414-.015.821-.046 1.219-.032.328-.047.883-.047 1.664 0 .367.012.664.035.891a43.14 43.14 0 002.824.093c.422 0 .848-.007 1.278-.023.007-.227.011-.488.011-.785l-.011-1.031a36.96 36.96 0 01-.024-1.325c0-.586.012-1.289.035-2.109.024-.828.121-1.477.293-1.945.211-.094.477-.141.797-.141.43 0 .813.051 1.149.152l.128 5.157a51.8 51.8 0 01.141 3.703c0 .531-.012 1.004-.035 1.418.117.164.2.812.246 1.945.016.57.023.996.023 1.277 0 .18-.011.352-.035.516-.015.164-.027.336-.035.516 0 .289.023.621.07.996.024.211.04.402.047.574l.059.387c-.227.078-.727.129-1.5.152zm9.633.199c-.266 0-.575-.027-.926-.082-.352-.047-.57-.129-.656-.246-.039-.156-.059-.504-.059-1.043 0-.93.02-1.875.059-2.836.07-2.219.156-3.472.257-3.762a4.071 4.071 0 01-.058-.785l.012-1.007.011-.586c0-.133-.008-.293-.023-.481-.024-.328-.035-.66-.035-.996 0-.352.031-.613.093-.785a3.311 3.311 0 01-.093-.856l.011-.211a2.23 2.23 0 00-.011-.222c-.5-.063-1.11-.094-1.828-.094-.711 0-1.38.008-2.004.023-.375.016-.684.024-.926.024s-.387-.008-.434-.024a9.736 9.736 0 01-.129-1.347c0-.516.055-.942.164-1.278.79-.132 1.864-.234 3.223-.304l9.762.023c.062.266.094.731.094 1.395 0 .304-.004.504-.012.597a.956.956 0 01-.153.422 2.424 2.424 0 00-.164.27c-.289-.039-.843-.059-1.664-.059-1.687 0-2.668.028-2.941.082l.059 2.52.07.984-.059 5.262a22.642 22.642 0 01-.129 1.781 9.494 9.494 0 00-.117 1.512l.024.844c0 .281-.012.558-.036.832-.164.289-.625.433-1.382.433zm11.847-7.183l2.684-.036c.094 0 .141-.015.141-.046l-.024-.071c-.297-1.156-.476-2.039-.539-2.648-.109-.844-.277-1.379-.504-1.606l-.246.692c-.281.695-.469 1.211-.562 1.547l-.317.679c-.344.711-.555 1.207-.633 1.489zm-2.461 7.148h-.07c-.148 0-.543-.031-1.184-.094-.695-.062-1.082-.117-1.16-.164a.603.603 0 01-.047-.246c0-.305.184-.941.551-1.91.133-.352.227-.625.281-.82.055-.235.141-.555.258-.961.305-1.031.578-1.684.821-1.957.007-.164.062-.426.164-.785.203-.696.418-1.317.644-1.864.367-.937.938-2.258 1.711-3.961.906-2 1.465-3.058 1.676-3.175.172-.485.394-.829.668-1.032.297.235.598.848.902 1.84.117.383.18.672.188.867.156.188.351.633.586 1.336.14.453.281.801.422 1.043.078.258.207.649.386 1.172l1.301 3.961c1.273 3.898 1.91 5.984 1.91 6.258v.012c-.133.14-.265.222-.398.246a1.368 1.368 0 01-.258.023c-.055 0-.121-.004-.199-.012a1.197 1.197 0 00-.246-.023l-.446.023a2.774 2.774 0 01-.351.024 1.8 1.8 0 01-.621-.106c-.25-.336-.614-1.375-1.09-3.117-.211-.789-.399-1.39-.563-1.804a5.112 5.112 0 00-.492.046 3.583 3.583 0 01-.539.036h-.129a11.376 11.376 0 00-.586-.012c-.672 0-1.488.07-2.449.211-.32.648-.73 1.832-1.23 3.551l-.411 1.394zm19.758-.164c-.953 0-1.555-.016-1.805-.047a9.979 9.979 0 01-.457-1.101c-.14-.375-.304-.793-.492-1.254a41.85 41.85 0 00-.855-1.594 103.51 103.51 0 01-1.395-2.602l-.047.961c.032.18.047.485.047.914 0 .743-.015 1.442-.047 2.098-.062 1.586-.128 2.441-.199 2.566-.312.032-.668.047-1.066.047-.664 0-1.172-.019-1.524-.058a28.687 28.687 0 01-.175-3.164c0-.219.027-1.188.082-2.907.046-1.039.07-2.718.07-5.039 0-1.031.023-1.828.07-2.39.024-.274.035-.758.035-1.453 0-.766.028-1.293.082-1.582l.891-.188c.195.031.383.047.563.047.07 0 .14-.004.21-.012.071-.008.149-.012.235-.012.242 0 .512.043.808.129.047.125.075.289.082.493l-.011.949c0 .195.011.355.035.48.008.172.012.352.012.539 0 .383-.016.805-.047 1.266-.024.375-.039.719-.047 1.031a.737.737 0 01.07.305c.024.211.035.742.035 1.594.368-.641.805-1.539 1.313-2.696a40.545 40.545 0 011.23-2.59c.274-.531.434-.89.481-1.078l.058-.187c.047-.078.215-.125.504-.141.188 0 .36.024.516.071.07-.04.285-.067.644-.083.329 0 .743.024 1.243.071-.016.25-.082.472-.2.668a5.95 5.95 0 01-.468.656 4.125 4.125 0 00-.387.621c-.149.32-.313.563-.492.727-.203.578-.531 1.355-.985 2.332-.804 1.695-1.23 2.793-1.277 3.293.078.14.383.781.914 1.922.57 1.218.871 1.906.902 2.062.086.086.434.777 1.043 2.074.618 1.289.942 2.032.973 2.227-.336.023-.727.035-1.172.035zm8.988.199c-.265 0-.574-.027-.925-.082-.352-.047-.571-.129-.657-.246-.039-.156-.058-.504-.058-1.043 0-.93.019-1.875.058-2.836.071-2.219.157-3.472.258-3.762a4.071 4.071 0 01-.058-.785l.011-1.007.012-.586c0-.133-.008-.293-.023-.481-.024-.328-.035-.66-.035-.996 0-.352.031-.613.093-.785a3.311 3.311 0 01-.093-.856l.011-.211a2.23 2.23 0 00-.011-.222c-.5-.063-1.11-.094-1.829-.094-.711 0-1.379.008-2.004.023-.375.016-.683.024-.925.024s-.387-.008-.434-.024a9.844 9.844 0 01-.129-1.347c0-.516.055-.942.164-1.278.789-.132 1.864-.234 3.223-.304l9.762.023c.062.266.093.731.093 1.395 0 .304-.004.504-.011.597a.956.956 0 01-.153.422 2.28 2.28 0 00-.164.27c-.289-.039-.843-.059-1.664-.059-1.687 0-2.668.028-2.941.082l.058 2.52.071.984-.059 5.262a23.134 23.134 0 01-.129 1.781 9.494 9.494 0 00-.117 1.512l.023.844c0 .281-.011.558-.035.832-.164.289-.625.433-1.383.433zm13.536-.199h-.399c-.32 0-.937-.016-1.851-.047v-.023l-1.125.011-.809.012c-.578 0-1.098-.023-1.559-.07a54.017 54.017 0 01-.105-2.25c-.078-2.18-.117-4.106-.117-5.778 0-2.164.066-3.394.199-3.691-.063-.273-.094-.723-.094-1.348a43.2 43.2 0 01.129-3.316c.203-.188.996-.281 2.379-.281.578 0 1.195.011 1.852.035a15.724 15.724 0 001.734 0c.305-.024.602-.035.891-.035a8.5 8.5 0 012.214.269c.086.328.129.719.129 1.172 0 .203-.015.391-.047.563-.054.281-.179.422-.374.422l-2.415-.012-2.402-.024c-.758 0-1.266.008-1.523.024l-.012.89v.739l-.012.738a38.385 38.385 0 00-.047 1.852c0 .25.008.453.024.609.117.07.84.105 2.168.105.812 0 1.601.016 2.367.047.766.032 1.297.117 1.594.258.125.508.187.922.187 1.242 0 .352-.078.59-.234.715-.258.203-.926.305-2.004.305l-.574-.012-1.266.012-2.191.094-.094 3.574c.726.133 2.16.199 4.301.199 1.531 0 2.351.043 2.461.129.125.289.183.629.175 1.019 0 .399-.035.758-.105 1.079-.063.32-.199.515-.41.585a1.92 1.92 0 01-.586.083h-.528l-1.921.105z"/><circle cx="241.485" cy="82.485" r="60" fill="url(#a)" transform="rotate(15 241.485 82.485)"/><path fill="#fff" d="M271.83 109.319a4.657 4.657 0 00-.117-.517c-.637-2.507-2.255-5.807-4.851-9.902l-.053-.092-.027-.046-.027-.046-.037-.01c-1.168-1.896-1.893-3.154-2.171-3.773-.499-1.172-.407-2.198.274-3.08.494-.672 2.019-1.962 4.574-3.872a277.774 277.774 0 003.209-2.448c5.721-4.436 8.507-7.502 8.36-9.203l-.121-.42c-.089-.258-.414-.558-.976-.904-.563-.345-1.337-.585-2.322-.72l-10.577-2.756c-.155-.106-.401-.166-.738-.178l-.506-.019-.208.042-.176.07c-.141.04-.31.13-.505.273a2.552 2.552 0 00-.536.538c-1.934 2.62-3.971 4.994-6.112 7.118a80.618 80.618 0 01-3.539 3.236c-1.053.898-1.906 1.54-2.558 1.922a13.77 13.77 0 01-1.729.88c-.5.203-.853.251-1.059.144a25.342 25.342 0 01-.585-.313 2.5 2.5 0 01-.586-1.11c-.108-.431-.122-.941-.043-1.53.08-.588.168-1.09.266-1.505.099-.414.26-.994.486-1.738.226-.744.374-1.249.445-1.515.247-.92.532-1.914.857-2.981.326-1.068.585-1.913.778-2.535a51.45 51.45 0 00.572-1.988c.188-.702.292-1.264.314-1.687a5.842 5.842 0 00-.072-1.265 2.032 2.032 0 00-.518-1.072c-.275-.295-.641-.568-1.097-.82-1.218-.637-2.825-1.237-4.823-1.798-4.532-1.266-7.531-1.758-8.995-1.476a5.102 5.102 0 00-1.684.716c-.583.415-.723.69-.418.822 1.409.61 2.307 1.41 2.698 2.396l.103.495c.087.36.109.964.066 1.808-.043.845-.17 1.758-.38 2.739-.352 1.8-.757 3.313-1.217 4.539a55.24 55.24 0 01-1.136 2.848c-.298.673-.616 1.197-.952 1.574-.337.377-.555.604-.654.68a.658.658 0 01-.232.133 2.87 2.87 0 01-1.039-.083c-.342-.092-.712-.373-1.11-.843-.397-.47-.78-1.071-1.146-1.805-.367-.734-.737-1.722-1.112-2.964-.374-1.242-.721-2.684-1.041-4.327l-.304-1.21a94.576 94.576 0 01-.71-3.362 58.512 58.512 0 01-.679-4.21c-.059-.561-.249-1.027-.568-1.398l-.155-.158c-.096-.13-.264-.285-.503-.466a4.11 4.11 0 00-.78-.462l-10.064-2.62c-1.027-.274-1.785-.23-2.275.131l-.205.179c-.106.101-.194.285-.266.551-.071.267-.085.613-.042 1.04a123.379 123.379 0 002.137 11.158c.873 3.633 1.686 6.589 2.437 8.865a93.974 93.974 0 002.417 6.524c.859 2.073 1.438 3.408 1.736 4.007.298.6.537 1.052.716 1.36l.683 1.116c.431.739 1.106 1.665 2.025 2.78a45.599 45.599 0 003.134 3.41c1.17 1.156 2.605 2.228 4.305 3.215 1.7.988 3.43 1.666 5.191 2.034l4.216 1.13c.875.156 1.594.063 2.157-.279l.195-.142c.137-.119.289-.319.454-.598.167-.279.299-.601.396-.964.254-1.047.585-1.964.992-2.75.406-.786.783-1.36 1.13-1.721a4.802 4.802 0 011.075-.86c.37-.212.626-.332.765-.36.138-.028.246-.043.326-.048.639-.036 1.279.336 1.921 1.118a12.535 12.535 0 011.672 2.706 67.926 67.926 0 001.757 3.487c.699 1.303 1.347 2.306 1.943 3.011l.617.632c.411.422.975.859 1.693 1.311.715.451 1.383.694 2.003.731l9.423 2.369c.928.249 1.691.29 2.285.126.594-.165.988-.417 1.184-.753.195-.337.311-.747.35-1.231.036-.482.036-.826-.001-1.031zM194.994 21.54c-1.919-.714-3.167-1.123-3.345-.836-.178.288.756 1.176 2.529 2.294a31.439 31.439 0 003.248 1.754c.638.298 1.311.593 2.02.876l1.108.42a2.604 2.604 0 002.158.015c.315-.169.575-.422.753-.73a3.22 3.22 0 00.22-.487l.124-.374c.11-.342.227-.674.334-1 .197-.653.391-1.29.572-1.895.362-1.218.644-2.32.852-3.29.406-1.88.525-3.088.157-3.202-.368-.114-1.017.918-1.872 2.653a74.59 74.59 0 00-1.385 3.088c-.216.556-.445 1.144-.685 1.747a17.354 17.354 0 00-1.207-3.434 22.826 22.826 0 00-2.268-3.821 26.419 26.419 0 00-4.222-4.685 27.864 27.864 0 00-16.083-6.668 29.764 29.764 0 00-9.689.834 27.168 27.168 0 00-8.381 3.728c-.597.402-1.173.835-1.726 1.295-.272.229-.54.44-.812.72-.271.281-.523.496-.744.733a17.885 17.885 0 00-2.254 3.13 21.25 21.25 0 00-2.418 5.918c-.795 3.514-.314 5.743-.113 5.726.201-.018.223-2.17 1.333-5.407a22.898 22.898 0 012.633-5.358 17.437 17.437 0 012.245-2.727c.214-.214.438-.416.672-.607.239-.192.511-.377.769-.574.507-.403 1.082-.743 1.643-1.112A26.046 26.046 0 01169 7.14a27.96 27.96 0 018.764-.51 25.584 25.584 0 0114.164 6.109 26.457 26.457 0 016.022 7.465 57.84 57.84 0 011.438 2.984l-1.064-.378-3.351-1.249"/><defs><linearGradient id="a" x1="241.485" x2="241.485" y1="22.485" y2="142.485" gradientUnits="userSpaceOnUse"><stop stop-color="#3476F6"/><stop offset="1" stop-color="#346AF6"/></linearGradient></defs></svg>