<svg width="74" height="71" viewBox="0 0 74 71" fill="none" xmlns="http://www.w3.org/2000/svg"><path d="M73.333 38.775c0 19.146-17.52 31.334-36.666 31.334C17.52 70.109 0 53.92 0 34.775c0-19.146 17.52-34 36.667-34 19.145 0 36.666 18.854 36.666 38z" fill="#167BFB"/><path d="M54.906 44.907c-.046-.1-.09-.182-.13-.247-.665-1.188-1.937-2.645-3.814-4.372l-.04-.04-.02-.02-.02-.02h-.02c-.852-.804-1.391-1.345-1.617-1.622-.413-.527-.506-1.061-.28-1.602.16-.409.759-1.272 1.797-2.591.546-.7.979-1.26 1.298-1.681 2.303-3.034 3.302-4.972 2.996-5.816l-.12-.197c-.08-.119-.286-.228-.618-.327-.333-.099-.76-.115-1.279-.05l-5.75.04c-.094-.032-.227-.03-.4.01l-.26.06-.1.05-.08.059a.886.886 0 00-.22.207 1.35 1.35 0 00-.198.346 32.179 32.179 0 01-2.137 4.451 42.186 42.186 0 01-1.359 2.127c-.412.6-.758 1.042-1.038 1.325a7.32 7.32 0 01-.759.682c-.226.172-.399.244-.519.218a14.73 14.73 0 01-.34-.08 1.32 1.32 0 01-.449-.484 2.157 2.157 0 01-.23-.771 8.43 8.43 0 01-.07-.802c-.006-.224-.003-.54.01-.95.015-.408.02-.685.02-.83 0-.501.01-1.045.03-1.632.02-.587.037-1.052.05-1.394.014-.343.02-.706.02-1.088 0-.383-.023-.683-.07-.9a3.056 3.056 0 00-.209-.634 1.068 1.068 0 00-.409-.474 2.32 2.32 0 00-.669-.268c-.706-.158-1.604-.243-2.696-.256-2.476-.027-4.067.132-4.773.474a2.69 2.69 0 00-.759.594c-.24.29-.273.448-.1.474.8.119 1.365.402 1.698.85l.12.238c.093.172.186.475.28.91.093.435.153.917.179 1.444.067.963.067 1.787 0 2.473-.067.686-.13 1.22-.19 1.602-.06.382-.15.692-.27.93-.12.237-.2.382-.24.435a.342.342 0 01-.099.099 1.523 1.523 0 01-.539.099c-.187 0-.413-.093-.679-.277a4.773 4.773 0 01-.829-.762c-.286-.323-.609-.775-.968-1.355-.36-.58-.732-1.266-1.119-2.057l-.319-.574c-.2-.37-.472-.907-.819-1.612a30.878 30.878 0 01-.918-2.048 1.305 1.305 0 00-.48-.632l-.1-.06a1.369 1.369 0 00-.319-.168c-.146-.06-.3-.102-.46-.129l-5.47.04c-.56 0-.94.125-1.14.376l-.079.119c-.04.066-.06.17-.06.316 0 .145.04.323.12.534a65.007 65.007 0 002.606 5.38c.938 1.728 1.754 3.12 2.446 4.174a49.365 49.365 0 002.117 2.987c.719.936 1.194 1.536 1.427 1.8.233.264.417.462.55.593l.499.475c.32.317.789.696 1.408 1.137.619.442 1.305.877 2.057 1.306.752.429 1.627.778 2.626 1.048.998.271 1.97.38 2.915.327h2.297c.466-.04.819-.185 1.058-.435l.08-.1c.053-.078.103-.2.15-.365.046-.165.07-.346.07-.544a6.46 6.46 0 01.129-1.533c.1-.454.213-.797.34-1.028.127-.23.27-.426.429-.583.16-.159.273-.254.34-.287a1.3 1.3 0 01.16-.07c.319-.105.695-.003 1.128.307.433.31.838.693 1.218 1.148.38.455.836.965 1.368 1.532.533.568.998.99 1.398 1.267l.399.237c.267.158.613.303 1.039.435.425.132.798.165 1.118.1l5.112-.08c.505 0 .899-.083 1.178-.247.28-.165.446-.347.5-.544.053-.198.056-.422.01-.673a2.463 2.463 0 00-.14-.524z" fill="#fff"/></svg>