<svg width="73" height="70" viewBox="0 0 73 70" fill="none" xmlns="http://www.w3.org/2000/svg">
<path d="M72.666 35.1084C72.666 54.2543 55.8119 69.7751 36.666 69.7751C17.5201 69.7751 0.666016 57.5876 0.666016 38.4417C0.666016 19.2959 17.5201 2.44172 36.666 2.44172C55.9994 0.441722 72.666 15.9625 72.666 35.1084Z" fill="#26CF47"/>
<path d="M19.4827 34.2626C19.4815 37.4229 20.3073 40.5084 21.877 43.2277L19.332 52.5194L28.8414 50.026C31.4616 51.4548 34.4113 52.2078 37.4134 52.2091H37.4211C47.3069 52.2091 55.3552 44.1634 55.3592 34.2766C55.361 29.4847 53.4965 24.9792 50.11 21.5898C46.723 18.2004 42.2195 16.3327 37.4211 16.3307C27.5332 16.3307 19.4866 24.3747 19.4824 34.2622L19.4827 34.2626ZM25.1453 42.7591L24.7903 42.1953C23.2978 39.8221 22.5098 37.0794 22.511 34.2635C22.5143 26.0456 29.2024 19.3594 37.4263 19.3594C41.4089 19.361 45.1519 20.9136 47.9673 23.7306C50.7825 26.5477 52.3315 30.2927 52.3304 34.2752C52.3268 42.4935 45.6385 49.1802 37.4207 49.1802H37.4149C34.7391 49.1787 32.1149 48.4603 29.8264 47.1024L29.2817 46.7794L23.6384 48.259L25.1453 42.7591ZM37.4211 52.2091H37.4212H37.4211C37.421 52.2091 37.4207 52.2091 37.4211 52.2091Z" fill="white"/>
<path fill-rule="evenodd" clip-rule="evenodd" d="M32.9383 26.7651C32.6024 26.0188 32.2491 26.0038 31.9297 25.9906C31.6683 25.9795 31.3693 25.9802 31.0707 25.9802C30.7717 25.9802 30.2861 26.0925 29.8756 26.541C29.4647 26.9896 28.3066 28.0738 28.3066 30.2789C28.3066 32.4843 29.913 34.6153 30.1368 34.9146C30.3609 35.2133 33.2375 39.8834 37.793 41.6799C41.5793 43.1729 42.3498 42.876 43.1716 42.8012C43.9934 42.7265 45.8236 41.7173 46.1968 40.6707C46.5705 39.6242 46.5705 38.727 46.4584 38.5397C46.3465 38.3529 46.0474 38.2407 45.5992 38.0168C45.1509 37.7926 42.9474 36.7081 42.5366 36.5586C42.1256 36.4091 41.8268 36.3346 41.5279 36.7832C41.2291 37.2314 40.3706 38.2408 40.1091 38.5397C39.8478 38.8393 39.5862 38.8767 39.138 38.6525C38.6896 38.4276 37.246 37.9547 35.5335 36.4279C34.201 35.24 33.3015 33.7729 33.0399 33.3241C32.7785 32.8759 33.0121 32.6331 33.2367 32.4096C33.4382 32.2088 33.6852 31.8863 33.9094 31.6247C34.133 31.363 34.2075 31.1762 34.357 30.8772C34.5065 30.578 34.4317 30.3163 34.3197 30.092C34.2075 29.8678 33.3365 27.6513 32.938 26.7651" fill="white"/>
</svg>
