<svg width="54" height="52" viewBox="0 0 54 52" fill="none" xmlns="http://www.w3.org/2000/svg"><path d="M54 26c0 14.36-12.64 26-27 26S0 42.86 0 28.5s12.64-27 27-27C41.5 0 54 11.64 54 26z" fill="#fff" fill-opacity=".05"/><path d="M14.113 25.366c0 2.37.619 4.684 1.796 6.723L14 39.06l7.132-1.87a13.446 13.446 0 006.43 1.636h.005c7.414 0 13.45-6.034 13.453-13.449a13.368 13.368 0 00-3.937-9.515 13.369 13.369 0 00-9.516-3.944c-7.416 0-13.451 6.033-13.454 13.448zm4.247 6.372l-.266-.423a11.15 11.15 0 01-1.71-5.949c.003-6.163 5.019-11.178 11.187-11.178a11.11 11.11 0 017.905 3.279 11.11 11.11 0 013.273 7.908c-.003 6.164-5.02 11.179-11.183 11.179h-.004a11.171 11.171 0 01-5.691-1.559l-.409-.242-4.232 1.11 1.13-4.125zm9.207 7.087z" fill="#fff"/><path fill-rule="evenodd" clip-rule="evenodd" d="M24.204 19.742c-.251-.56-.516-.57-.756-.58-.196-.009-.42-.008-.644-.008-.224 0-.589.084-.896.42-.309.337-1.177 1.15-1.177 2.804s1.205 3.252 1.372 3.477c.169.224 2.326 3.726 5.743 5.073 2.84 1.12 3.417.898 4.034.841.616-.055 1.988-.812 2.268-1.597.28-.785.28-1.458.197-1.599-.084-.14-.309-.224-.645-.392s-1.989-.981-2.297-1.093c-.308-.113-.532-.168-.756.168-.224.336-.868 1.093-1.064 1.317-.196.225-.392.253-.729.085-.336-.169-1.419-.523-2.703-1.669-1-.89-1.674-1.99-1.87-2.327-.196-.336-.021-.519.147-.686.151-.15.337-.393.505-.589.168-.196.224-.336.336-.56.112-.225.056-.421-.028-.59-.084-.167-.738-1.83-1.037-2.494" fill="#fff"/></svg>