<svg width="73" height="70" viewBox="0 0 73 70" fill="none" xmlns="http://www.w3.org/2000/svg"><path d="M72.666 35.108c0 19.146-16.854 34.667-36 34.667s-36-12.187-36-31.333 16.854-36 36-36c19.333-2 36 13.52 36 32.666z" fill="#26CF47"/><path d="M19.483 34.263a17.898 17.898 0 002.394 8.965l-2.545 9.291 9.51-2.493a17.928 17.928 0 008.571 2.183h.008c9.886 0 17.934-8.046 17.938-17.932A17.823 17.823 0 0050.11 21.59a17.826 17.826 0 00-12.689-5.26c-9.888 0-17.934 8.045-17.939 17.932zm5.662 8.496l-.355-.564a14.865 14.865 0 01-2.279-7.931c.003-8.218 6.691-14.905 14.915-14.905a14.814 14.814 0 0110.541 4.372 14.814 14.814 0 014.363 10.544c-.003 8.218-6.691 14.905-14.91 14.905h-.005a14.89 14.89 0 01-7.589-2.078l-.544-.323-5.644 1.48 1.507-5.5zm12.276 9.45z" fill="#fff"/><path fill-rule="evenodd" clip-rule="evenodd" d="M32.938 26.765c-.336-.746-.689-.761-1.008-.774-.262-.011-.56-.01-.86-.01-.298 0-.784.111-1.194.56-.411.449-1.57 1.533-1.57 3.738s1.607 4.336 1.83 4.636c.225.298 3.101 4.968 7.657 6.765 3.786 1.493 4.557 1.196 5.379 1.121.821-.075 2.652-1.084 3.025-2.13.373-1.047.373-1.944.261-2.131-.111-.187-.41-.3-.859-.523-.448-.224-2.652-1.309-3.062-1.458-.411-.15-.71-.224-1.01.224-.298.448-1.156 1.458-1.418 1.757-.261.3-.523.337-.971.113-.448-.225-1.892-.698-3.605-2.225-1.332-1.188-2.232-2.655-2.493-3.104-.261-.448-.028-.69.197-.914.201-.201.448-.524.672-.785.224-.262.299-.449.448-.748.15-.299.075-.56-.037-.785-.112-.224-.983-2.44-1.382-3.327" fill="#fff"/></svg>