<svg width="442" height="250" viewBox="0 0 442 250" fill="none" xmlns="http://www.w3.org/2000/svg">
<path fill-rule="evenodd" clip-rule="evenodd" d="M403.403 214.07C398.931 217.739 402.105 227.217 402.752 233.174C401.72 283.212 325.899 150.547 383.267 173.591L389.271 172.138L394.929 169.661C426.647 116.593 446.593 268.088 415.484 228.883C412.394 223.749 409.184 214.283 403.403 214.07L403.403 214.07Z" fill="#FEE6D9"/>
<path fill-rule="evenodd" clip-rule="evenodd" d="M22.9416 133.948C24.7651 136.585 21.6275 141.153 20.3733 144.229C13.288 171.056 73.943 111.917 39.8502 115.446L36.8722 113.755L34.2342 111.571C25.4271 78.4471 -8.3209 156.148 14.2422 139.999C16.6724 137.734 19.828 133.179 22.9416 133.948L22.9416 133.948Z" fill="#EDDFF5"/>
<path fill-rule="evenodd" clip-rule="evenodd" d="M254.438 49.6126C258.16 52.7203 255.431 60.6424 254.845 65.6313C255.35 107.584 319.864 -3.07825 271.608 15.8256L266.586 14.5641L261.861 12.4469C235.655 -32.2666 217.844 94.5835 244.204 61.9427C246.831 57.6613 249.59 49.75 254.438 49.6126L254.438 49.6126Z" fill="#FFF2D7"/>
</svg>
