<svg width="161" height="202" viewBox="0 0 161 202" fill="none" xmlns="http://www.w3.org/2000/svg">
<path d="M98.2875 1.76155C94.3814 3.87201 91.6969 7.72534 89.8777 14.0351C85.0107 25.0292 86.6243 51.7745 93.7723 80.044C74.7169 74.3222 54.6267 66.404 38.1089 64.5804C30.994 63.9691 22.3151 64.2459 17.3497 68.3386C13.2839 71.8135 10.6077 77.7369 8.94118 85.7297C4.43707 107.312 2.62772 136.107 0.269266 156.318C-0.415269 162.183 2.45972 167.171 8.0661 171.928C14.9212 176.851 22.532 180.644 29.6138 182.635C71.5978 190.971 83.3979 187.031 108.187 186.329L108.381 186.291L108.467 186.314C118.27 186.539 123.199 182.185 125.634 173.098C132.54 147.69 139.349 122.254 146.163 96.8264C124.849 78.1076 121.707 53.647 121.661 34.3438C121.635 24.2317 122.238 15.2768 121.583 9.38049C121.322 5.37452 119.915 2.83137 117.214 1.44918C109.437 -0.581668 101.621 0.0510102 98.2897 1.76866L98.2875 1.76155ZM178.171 86.5756C173.847 85.4172 169.232 85.6611 165.625 87.3254C162.534 88.7529 160.007 90.9984 158.448 94.9962C150.44 124.595 142.257 155.08 135.109 181.755C133.672 187.12 134.712 190.894 137.004 194.141C139.295 197.388 143.149 199.991 147.471 201.149C151.794 202.307 156.432 201.979 160.04 200.313C163.647 198.647 166.436 195.899 167.873 190.534L190.532 105.969C191.97 100.604 190.952 96.7444 188.661 93.4975C185.533 90.1773 181.833 87.6034 178.17 86.5728L178.171 86.5756Z" fill="#FEE6D9"/>
</svg>
