<svg width="57" height="52" viewBox="0 0 57 52" fill="none" xmlns="http://www.w3.org/2000/svg"><path d="M57 27.5C57 41.86 43.36 52 29 52S.5 38.36.5 24 14.64 0 29 0s28 13.14 28 27.5z" fill="#fff" fill-opacity=".05"/><path fill-rule="evenodd" clip-rule="evenodd" d="M40.987 16.888a3.668 3.668 0 012.576 2.585c.626 2.296.601 7.08.601 7.08s0 4.761-.601 7.057a3.668 3.668 0 01-2.576 2.585c-2.286.605-11.432.605-11.432.605s-9.121 0-11.432-.629a3.67 3.67 0 01-2.575-2.585c-.602-2.272-.602-7.056-.602-7.056s0-4.761.602-7.057c.337-1.256 1.348-2.271 2.575-2.61 2.287-.604 11.432-.604 11.432-.604s9.146 0 11.432.629zm-6.57 9.654l-8.667 4.875v-9.75l8.667 4.875z" fill="#fff"/></svg>