<svg width="76" height="70" viewBox="0 0 76 70" fill="none" xmlns="http://www.w3.org/2000/svg"><path d="M75.666 37.108c0 19.146-18.187 32.667-37.333 32.667-19.146 0-38-18.187-38-37.333 0-19.146 18.854-32 38-32s37.333 17.52 37.333 36.666z" fill="#EA3323"/><path fill-rule="evenodd" clip-rule="evenodd" d="M54.316 22.959a4.891 4.891 0 013.434 3.447c.834 3.061.802 9.44.802 9.44s0 6.348-.802 9.409a4.89 4.89 0 01-3.434 3.447c-3.048.806-15.242.806-15.242.806s-12.163 0-15.243-.838a4.892 4.892 0 01-3.434-3.447c-.802-3.03-.802-9.408-.802-9.408s0-6.348.802-9.409c.449-1.675 1.797-3.028 3.433-3.48 3.05-.805 15.243-.805 15.243-.805s12.195 0 15.243.838zm-8.76 12.872L34 42.33v-13l11.555 6.5z" fill="#fff"/></svg>